<svg xmlns="http://www.w3.org/2000/svg" width="512" height="512" viewBox="0 0 512 512" fill="none"><g clip-path="url(#clip0_3014_1036)"><mask id="mask0_3014_1036" style="mask-type:luminance" maskUnits="userSpaceOnUse" x="0" y="0" width="512" height="512"><path d="M512 0H0V512H512V0Z" fill="white"></path></mask><g mask="url(#mask0_3014_1036)"><path d="M256 512C397.385 512 512 397.385 512 256C512 114.615 397.385 0 256 0C114.615 0 0 114.615 0 256C0 397.385 114.615 512 256 512Z" fill="#039D55"></path><mask id="mask1_3014_1036" style="mask-type:luminance" maskUnits="userSpaceOnUse" x="112" y="108" width="288" height="288"><path d="M399.361 108.89H112.641V395.61H399.361V108.89Z" fill="white"></path></mask><g mask="url(#mask1_3014_1036)"><mask id="mask2_3014_1036" style="mask-type:luminance" maskUnits="userSpaceOnUse" x="112" y="108" width="288" height="288"><path d="M112.641 108.89H399.361V395.61H112.641V108.89Z" fill="white"></path></mask><g mask="url(#mask2_3014_1036)"><path d="M347.718 253.37H343.033C337.999 253.37 333.511 256.18 331.59 260.833C331.569 260.883 331.548 260.935 331.526 260.986C329.594 265.638 330.587 270.99 334.149 274.552L337.462 277.864C344.727 285.129 344.727 296.908 337.462 304.174L330.884 310.751C323.619 318.015 311.84 318.015 304.575 310.751L301.263 307.439C297.701 303.876 292.349 302.883 287.697 304.815C287.646 304.837 287.595 304.858 287.543 304.879C282.891 306.8 280.081 311.288 280.081 316.321V321.006C280.081 331.281 271.486 339.61 261.212 339.61H251.91C241.636 339.61 233.041 331.281 233.041 321.006V316.321C233.041 311.288 230.231 306.8 225.578 304.879C225.527 304.858 225.476 304.837 225.425 304.815C220.772 302.883 215.421 303.876 211.859 307.439L208.546 310.751C201.281 318.015 189.502 318.015 182.238 310.751L175.66 304.174C168.395 296.908 168.395 285.129 175.66 277.864L178.972 274.552C182.535 270.99 183.528 265.638 181.595 260.986C181.574 260.935 181.553 260.883 181.532 260.833C179.611 256.18 175.123 252.81 170.089 252.81H165.404C155.13 252.81 146.801 244.775 146.801 234.501V225.199C146.801 214.925 155.13 206.33 165.404 206.33H170.089C175.123 206.33 179.611 203.52 181.532 198.867C181.553 198.816 181.574 198.765 181.595 198.714C183.527 194.062 182.535 188.71 178.972 185.148L175.66 181.836C168.395 174.571 168.395 162.792 175.66 155.527L182.238 148.95C189.502 141.684 201.281 141.684 208.546 148.95L211.859 152.261C215.421 155.824 220.772 156.816 225.425 154.884C225.476 154.863 225.527 154.842 225.578 154.821C230.231 152.899 233.041 148.413 233.041 143.378V138.693C233.041 128.419 241.636 120.09 251.91 120.09H261.212C271.486 120.09 280.081 128.419 280.081 138.693V143.378C280.081 148.413 282.891 152.899 287.543 154.821C287.595 154.842 287.646 154.863 287.697 154.884C292.349 156.816 297.701 155.824 301.263 152.261L304.575 148.95C311.841 141.684 323.619 141.684 330.884 148.95L337.462 155.527C344.727 162.792 344.727 174.571 337.462 181.836L334.149 185.148C330.587 188.71 329.594 194.062 331.526 198.714C331.548 198.765 331.569 198.816 331.59 198.867C333.511 203.52 337.999 206.89 343.033 206.89H347.718C357.992 206.89 366.321 214.925 366.321 225.199V234.501C366.321 244.775 357.992 253.37 347.718 253.37Z" stroke="white" stroke-width="13.44" stroke-miterlimit="10" stroke-linecap="round"></path><path d="M354.559 384.41C373.115 384.41 388.159 369.367 388.159 350.81V330.09" stroke="white" stroke-width="13.44" stroke-miterlimit="10" stroke-linecap="round" stroke-linejoin="round"></path><path d="M123.84 330.09V350.81C123.84 369.367 138.883 384.41 157.44 384.41H298" stroke="white" stroke-width="13.44" stroke-miterlimit="10" stroke-linecap="round" stroke-linejoin="round"></path><path d="M256.627 258.728L256.559 191.21" stroke="white" stroke-width="13.44" stroke-miterlimit="10" stroke-linecap="round" stroke-linejoin="round"></path><path d="M289.107 235.768L271.907 252.969C263.159 261.717 248.976 261.717 240.228 252.969L223.027 235.768" stroke="white" stroke-width="13.44" stroke-miterlimit="10" stroke-linecap="round" stroke-linejoin="round"></path></g></g></g></g><defs><clipPath id="clip0_3014_1036"><rect width="512" height="512" fill="white"></rect></clipPath></defs></svg>