<svg xmlns="http://www.w3.org/2000/svg" width="30" height="31" viewBox="0 0 30 31" fill="none"><circle cx="15" cy="15.4336" r="15" fill="url(#paint0_linear_4501_18083)"></circle><path d="M9.67113 16.0859C9.26816 16.0859 8.87424 16.2109 8.53918 16.4449C8.20412 16.679 7.94297 17.0116 7.78876 17.4009C7.63455 17.7901 7.5942 18.2184 7.67282 18.6316C7.75143 19.0448 7.94548 19.4243 8.23043 19.7222C8.51537 20.0201 8.87841 20.223 9.27364 20.3052C9.66887 20.3873 10.0785 20.3452 10.4508 20.1839C10.8231 20.0227 11.1413 19.7497 11.3652 19.3994C11.5891 19.0491 11.7086 18.6373 11.7086 18.216C11.708 17.6513 11.4931 17.1099 11.1112 16.7105C10.7292 16.3112 10.2113 16.0866 9.67113 16.0859ZM9.67113 19.1991C9.48514 19.1991 9.30333 19.1415 9.14869 19.0334C8.99405 18.9254 8.87352 18.7719 8.80234 18.5922C8.73117 18.4126 8.71255 18.2149 8.74883 18.0242C8.78512 17.8335 8.87468 17.6583 9.00619 17.5208C9.1377 17.3834 9.30526 17.2897 9.48767 17.2518C9.67009 17.2139 9.85916 17.2333 10.031 17.3077C10.2028 17.3821 10.3497 17.5082 10.453 17.6698C10.5563 17.8315 10.6115 18.0216 10.6115 18.216C10.6115 18.4767 10.5124 18.7268 10.3361 18.9112C10.1597 19.0955 9.92053 19.1991 9.67113 19.1991Z" fill="white"></path><path d="M20.9556 16.0859C20.5526 16.0859 20.1587 16.2109 19.8236 16.4449C19.4885 16.679 19.2274 17.0116 19.0732 17.4009C18.919 17.7901 18.8786 18.2184 18.9572 18.6316C19.0359 19.0448 19.2299 19.4243 19.5148 19.7222C19.7998 20.0201 20.1628 20.223 20.5581 20.3052C20.9533 20.3873 21.363 20.3452 21.7353 20.1839C22.1076 20.0227 22.4258 19.7497 22.6496 19.3994C22.8735 19.0491 22.993 18.6373 22.993 18.216C22.9924 17.6513 22.7775 17.1099 22.3956 16.7105C22.0136 16.3112 21.4957 16.0866 20.9556 16.0859ZM20.9556 19.1991C20.7696 19.1991 20.5878 19.1415 20.4331 19.0334C20.2785 18.9254 20.1579 18.7719 20.0868 18.5922C20.0156 18.4126 19.997 18.2149 20.0333 18.0242C20.0695 17.8335 20.1591 17.6583 20.2906 17.5208C20.4221 17.3834 20.5897 17.2897 20.7721 17.2518C20.9545 17.2139 21.1436 17.2333 21.3154 17.3077C21.4872 17.3821 21.6341 17.5082 21.7374 17.6698C21.8408 17.8315 21.8959 18.0216 21.8959 18.216C21.8959 18.4767 21.7968 18.7268 21.6205 18.9112C21.4441 19.0955 21.205 19.1991 20.9556 19.1991Z" fill="white"></path><path d="M23.6748 14.3268L20.0152 13.6288L16.8996 10.9263C16.5909 10.6611 16.2037 10.516 15.8041 10.5156H11.2141C10.9555 10.515 10.7 10.5755 10.4669 10.6926C10.2338 10.8098 10.029 10.9805 9.86788 11.1921L7.87786 13.6288H6.53659C6.16261 13.6292 5.80408 13.7848 5.53964 14.0612C5.2752 14.3377 5.12645 14.7125 5.12604 15.1035V16.9059C5.12655 17.3837 5.30834 17.8418 5.63155 18.1797C5.95475 18.5176 6.39296 18.7077 6.85004 18.7082H7.20836C7.13881 18.329 7.15024 17.9384 7.24184 17.5644C7.33343 17.1903 7.50293 16.842 7.73821 16.5444C7.9735 16.2468 8.26876 16.0072 8.6029 15.8427C8.93705 15.6782 9.30181 15.5929 9.67114 15.5929C10.0405 15.5929 10.4052 15.6782 10.7394 15.8427C11.0735 16.0072 11.3688 16.2468 11.6041 16.5444C11.8394 16.842 12.0089 17.1903 12.1004 17.5644C12.192 17.9384 12.2035 18.329 12.1339 18.7082H18.4928C18.4232 18.329 18.4346 17.9384 18.5262 17.5644C18.6178 17.1903 18.7873 16.842 19.0226 16.5444C19.2579 16.2468 19.5532 16.0072 19.8873 15.8427C20.2214 15.6782 20.5862 15.5929 20.9555 15.5929C21.3249 15.5929 21.6896 15.6782 22.0238 15.8427C22.3579 16.0072 22.6532 16.2468 22.8885 16.5444C23.1238 16.842 23.2933 17.1903 23.3848 17.5644C23.4764 17.9384 23.4879 18.329 23.4183 18.7082H23.4632C23.8372 18.7078 24.1957 18.5523 24.4601 18.2758C24.7246 17.9994 24.8733 17.6245 24.8737 17.2336V15.7848C24.8754 15.4315 24.7551 15.0895 24.5348 14.8216C24.3145 14.5538 24.0091 14.3781 23.6748 14.3268ZM12.0221 13.1373C12.0221 13.2676 11.9725 13.3927 11.8843 13.4848C11.7962 13.577 11.6766 13.6288 11.5519 13.6288H9.48483C9.43988 13.6288 9.39587 13.6154 9.358 13.5901C9.32014 13.5647 9.29001 13.5286 9.2712 13.4859C9.25238 13.4432 9.24566 13.3958 9.25184 13.3493C9.25802 13.3027 9.27683 13.259 9.30605 13.2233L10.6741 11.5479C10.7183 11.4939 10.7731 11.4506 10.8349 11.4209C10.8966 11.3912 10.9637 11.3758 11.0317 11.3759H11.5519C11.6766 11.3759 11.7962 11.4276 11.8843 11.5198C11.9725 11.612 12.0221 11.737 12.0221 11.8674V13.1373ZM14.373 15.4312H13.7461C13.6214 15.4312 13.5018 15.3794 13.4136 15.2872C13.3254 15.195 13.2759 15.07 13.2759 14.9396C13.2759 14.8093 13.3254 14.6842 13.4136 14.592C13.5018 14.4999 13.6214 14.4481 13.7461 14.4481H14.373C14.4977 14.4481 14.6173 14.4999 14.7054 14.592C14.7936 14.6842 14.8432 14.8093 14.8432 14.9396C14.8432 15.07 14.7936 15.195 14.7054 15.2872C14.6173 15.3794 14.4977 15.4312 14.373 15.4312ZM18.0748 13.6409L13.5882 13.63C13.4637 13.6297 13.3444 13.5777 13.2565 13.4856C13.1685 13.3934 13.1192 13.2686 13.1192 13.1384V11.8674C13.1192 11.737 13.1687 11.612 13.2569 11.5198C13.345 11.4276 13.4646 11.3759 13.5893 11.3759H15.8442C15.9499 11.3759 16.0525 11.4131 16.1354 11.4815L18.221 13.202C18.2594 13.2336 18.2875 13.277 18.3012 13.3261C18.3149 13.3752 18.3137 13.4276 18.2976 13.4759C18.2815 13.5242 18.2514 13.5661 18.2115 13.5956C18.1715 13.6252 18.1238 13.641 18.0748 13.6409Z" fill="white"></path><defs><linearGradient id="paint0_linear_4501_18083" x1="15" y1="0.433594" x2="15" y2="30.4336" gradientUnits="userSpaceOnUse"><stop stop-color="#00E8D4"></stop><stop offset="1" stop-color="#008B95"></stop></linearGradient></defs></svg>