<svg xmlns="http://www.w3.org/2000/svg" width="100" height="100" viewBox="0 0 100 100" fill="none"><g clip-path="url(#clip0_2321_1905)"><path d="M50 100C77.6142 100 100 77.6142 100 50C100 22.3858 77.6142 0 50 0C22.3858 0 0 22.3858 0 50C0 77.6142 22.3858 100 50 100Z" fill="url(#paint0_linear_2321_1905)"></path><path d="M65.2354 29H34.7146C31.0062 29 28 32.0062 28 35.7146V65.1085C28 68.8169 31.0062 71.8231 34.7146 71.8231H65.2354C68.9438 71.8231 71.95 68.8169 71.95 65.1085V35.7146C71.95 32.0062 68.9438 29 65.2354 29Z" fill="url(#paint1_linear_2321_1905)"></path><path d="M58.7082 42.7009L54.3438 38.3364L56.6235 36.0566L58.7082 38.1412L64.0174 32.832L66.2971 35.1118L58.7082 42.7009Z" fill="url(#paint2_linear_2321_1905)"></path><path d="M37.7394 55.4743L33.375 51.1098L35.6547 48.83L37.7394 50.9146L43.0487 45.6055L45.3284 47.8852L37.7394 55.4743Z" fill="url(#paint3_linear_2321_1905)"></path><path d="M37.7394 42.7009L33.375 38.3364L35.6547 36.0566L37.7394 38.1412L43.0487 32.832L45.3284 35.1118L37.7394 42.7009Z" fill="url(#paint4_linear_2321_1905)"></path><path d="M62.5567 45.9609L60.2675 48.25L57.9785 45.9609L55.6895 48.25L57.9785 50.5391L55.6895 52.8281L57.9785 55.1172L60.2675 52.8281L62.5567 55.1172L64.8457 52.8281L62.5567 50.5391L64.8457 48.25L62.5567 45.9609Z" fill="url(#paint5_linear_2321_1905)"></path><path d="M62.5567 58.418L60.2675 60.707L57.9785 58.418L55.6895 60.707L57.9785 62.9961L55.6895 65.2852L57.9785 67.5742L60.2675 65.2852L62.5567 67.5742L64.8457 65.2852L62.5567 62.9961L64.8457 60.707L62.5567 58.418Z" fill="url(#paint6_linear_2321_1905)"></path><path d="M42.5313 60.707L40.2422 58.418L37.9532 60.707L35.6641 58.418L33.375 60.707L35.6641 62.9961L33.375 65.2852L35.6641 67.5742L37.9532 65.2852L40.2422 67.5742L42.5313 65.2852L40.2422 62.9961L42.5313 60.707Z" fill="url(#paint7_linear_2321_1905)"></path><path d="M49.9785 29.6562V71.0708" stroke="#1C54C5" stroke-width="0.344828"></path></g><defs><linearGradient id="paint0_linear_2321_1905" x1="50" y1="0" x2="50" y2="100" gradientUnits="userSpaceOnUse"><stop stop-color="#98BAFF"></stop><stop offset="1" stop-color="#2D5DBE"></stop></linearGradient><linearGradient id="paint1_linear_2321_1905" x1="49.975" y1="29" x2="49.975" y2="71.8231" gradientUnits="userSpaceOnUse"><stop stop-color="white"></stop><stop offset="1" stop-color="#D0DDFF"></stop></linearGradient><linearGradient id="paint2_linear_2321_1905" x1="60.3204" y1="32.832" x2="60.3204" y2="42.7009" gradientUnits="userSpaceOnUse"><stop stop-color="#03FF9F"></stop><stop offset="1" stop-color="#00C077"></stop></linearGradient><linearGradient id="paint3_linear_2321_1905" x1="39.3517" y1="45.6055" x2="39.3517" y2="55.4743" gradientUnits="userSpaceOnUse"><stop stop-color="#03FF9F"></stop><stop offset="1" stop-color="#00C077"></stop></linearGradient><linearGradient id="paint4_linear_2321_1905" x1="39.3517" y1="32.832" x2="39.3517" y2="42.7009" gradientUnits="userSpaceOnUse"><stop stop-color="#03FF9F"></stop><stop offset="1" stop-color="#00C077"></stop></linearGradient><linearGradient id="paint5_linear_2321_1905" x1="60.2675" y1="45.9609" x2="60.2675" y2="55.1172" gradientUnits="userSpaceOnUse"><stop stop-color="#FF8383"></stop><stop offset="1" stop-color="#F84444"></stop></linearGradient><linearGradient id="paint6_linear_2321_1905" x1="60.2675" y1="58.418" x2="60.2675" y2="67.5742" gradientUnits="userSpaceOnUse"><stop stop-color="#FF8383"></stop><stop offset="1" stop-color="#F84444"></stop></linearGradient><linearGradient id="paint7_linear_2321_1905" x1="37.9532" y1="58.418" x2="37.9532" y2="67.5742" gradientUnits="userSpaceOnUse"><stop stop-color="#FF8383"></stop><stop offset="1" stop-color="#F84444"></stop></linearGradient><clipPath id="clip0_2321_1905"><rect width="100" height="100" fill="white"></rect></clipPath></defs></svg>