<svg xmlns="http://www.w3.org/2000/svg" width="30" height="30" viewBox="0 0 30 30" fill="none"><circle cx="15" cy="15" r="15" fill="url(#paint0_linear_2189_554)"></circle><path d="M22.5312 19.2227H7.46875C7.20987 19.2227 7 19.4325 7 19.6914V20.1602C7 20.6779 7.41972 21.0977 7.9375 21.0977H22.0625C22.5803 21.0977 23 20.6779 23 20.1602V19.6914C23 19.4325 22.7901 19.2227 22.5312 19.2227Z" fill="white"></path><path d="M16.5371 14.0625L17.162 12.1875H13.0225L13.4912 14.0625H16.5371Z" fill="white"></path><path d="M7.93848 10.3164V18.2852H22.0635V10.3164C22.0635 9.54097 21.4327 8.91016 20.6572 8.91016H9.34473C8.56929 8.91016 7.93848 9.54097 7.93848 10.3164ZM13.5947 16.8789C13.3359 16.8789 13.126 16.669 13.126 16.4102C13.126 16.1512 13.3359 15.9414 13.5947 15.9414C13.8536 15.9414 14.0635 16.1512 14.0635 16.4102C14.0635 16.669 13.8536 16.8789 13.5947 16.8789ZM16.4072 16.8789C16.1484 16.8789 15.9385 16.669 15.9385 16.4102C15.9385 16.1512 16.1484 15.9414 16.4072 15.9414C16.6661 15.9414 16.876 16.1512 16.876 16.4102C16.876 16.669 16.6661 16.8789 16.4072 16.8789ZM11.251 10.3164H12.1885C12.4036 10.3164 12.5909 10.4629 12.643 10.6716L12.7891 11.2539H17.8135C17.9641 11.2539 18.1055 11.3262 18.1939 11.4485C18.2818 11.5707 18.306 11.7282 18.258 11.871L17.3205 14.6835C17.2569 14.8748 17.0779 15.0039 16.876 15.0039H13.126C12.9108 15.0039 12.7236 14.8574 12.6714 14.6487C12.5851 14.3036 11.7734 11.0586 11.8223 11.2539H11.251C10.9919 11.2539 10.7822 11.0443 10.7822 10.7852C10.7822 10.5261 10.9919 10.3164 11.251 10.3164Z" fill="white"></path><defs><linearGradient id="paint0_linear_2189_554" x1="15" y1="0" x2="15" y2="30" gradientUnits="userSpaceOnUse"><stop stop-color="#558BFF"></stop><stop offset="1" stop-color="#1548B5"></stop></linearGradient></defs></svg>