<svg xmlns="http://www.w3.org/2000/svg" width="150" height="31" viewBox="0 0 150 31" fill="none"><g clip-path="url(#clip0_616_1855)"><path d="M115.464 23.0172V11.575H118.637V23.0172H115.464ZM117.058 10.1001C116.586 10.1001 116.182 9.94362 115.844 9.63075C115.511 9.31291 115.345 8.933 115.345 8.49101C115.345 8.05398 115.511 7.67903 115.844 7.36616C116.182 7.04832 116.586 6.8894 117.058 6.8894C117.53 6.8894 117.932 7.04832 118.265 7.36616C118.603 7.67903 118.771 8.05398 118.771 8.49101C118.771 8.933 118.603 9.31291 118.265 9.63075C117.932 9.94362 117.53 10.1001 117.058 10.1001Z" fill="#0461A5"></path><path d="M128.097 18.1453V11.575H131.271V23.0172H128.224V20.9388H128.105C127.847 21.6092 127.417 22.1481 126.816 22.5553C126.22 22.9625 125.493 23.1661 124.633 23.1661C123.869 23.1661 123.196 22.9923 122.615 22.6447C122.034 22.2971 121.579 21.8029 121.252 21.1623C120.929 20.5216 120.765 19.7544 120.76 18.8604V11.575H123.933V18.2943C123.938 18.9697 124.119 19.5036 124.477 19.8959C124.835 20.2882 125.314 20.4844 125.915 20.4844C126.297 20.4844 126.655 20.3975 126.987 20.2237C127.32 20.0449 127.588 19.7817 127.792 19.434C128.001 19.0864 128.102 18.6568 128.097 18.1453Z" fill="#0461A5"></path><path d="M133.39 23.0172V11.575H136.414V13.5938H136.548C136.787 12.9233 137.184 12.3944 137.74 12.0071C138.296 11.6197 138.962 11.426 139.736 11.426C140.521 11.426 141.189 11.6222 141.74 12.0145C142.292 12.4019 142.659 12.9283 142.843 13.5938H142.962C143.195 12.9382 143.618 12.4143 144.228 12.022C144.844 11.6247 145.572 11.426 146.411 11.426C147.479 11.426 148.345 11.7662 149.011 12.4466C149.681 13.122 150.016 14.0805 150.016 15.322V23.0172H146.851V15.9478C146.851 15.3121 146.682 14.8353 146.344 14.5175C146.006 14.1997 145.584 14.0407 145.078 14.0407C144.502 14.0407 144.052 14.2245 143.729 14.592C143.406 14.9545 143.245 15.4338 143.245 16.0297V23.0172H140.169V15.8807C140.169 15.3195 140.007 14.8726 139.684 14.5398C139.366 14.2071 138.947 14.0407 138.425 14.0407C138.073 14.0407 137.755 14.1301 137.472 14.3089C137.194 14.4827 136.973 14.7286 136.809 15.0464C136.645 15.3593 136.563 15.7268 136.563 16.1489V23.0172H133.39Z" fill="#0461A5"></path><path d="M38.084 22.9974H32.6758V7.74121H38.1287C39.6632 7.74121 40.9842 8.04663 42.0917 8.65748C43.1992 9.26335 44.0509 10.1349 44.6468 11.2722C45.2477 12.4094 45.5482 13.7702 45.5482 15.3544C45.5482 16.9436 45.2477 18.3093 44.6468 19.4515C44.0509 20.5938 43.1942 21.4703 42.0768 22.0811C40.9644 22.692 39.6334 22.9974 38.084 22.9974ZM35.9013 20.2337H37.9499C38.9034 20.2337 39.7054 20.0648 40.356 19.7271C41.0116 19.3845 41.5032 18.8556 41.831 18.1404C42.1637 17.4203 42.3301 16.4917 42.3301 15.3544C42.3301 14.2271 42.1637 13.3058 41.831 12.5907C41.5032 11.8756 41.014 11.3492 40.3635 11.0115C39.7129 10.6738 38.9109 10.5049 37.9573 10.5049H35.9013V20.2337Z" fill="#0461A5"></path><path d="M52.6729 23.2209C51.4959 23.2209 50.4828 22.9825 49.6336 22.5057C48.7894 22.024 48.1388 21.3436 47.6819 20.4646C47.225 19.5806 46.9966 18.5353 46.9966 17.3285C46.9966 16.1515 47.225 15.1185 47.6819 14.2296C48.1388 13.3406 48.7819 12.6478 49.6113 12.1512C50.4456 11.6546 51.4239 11.4063 52.5463 11.4063C53.3012 11.4063 54.0039 11.5279 54.6544 11.7713C55.31 12.0097 55.8811 12.3697 56.3678 12.8514C56.8594 13.3332 57.2418 13.939 57.515 14.6691C57.7881 15.3941 57.9247 16.2434 57.9247 17.2167V18.0883L50.1327 18.0957V16.1291L54.9375 16.1217C54.9375 15.6648 54.8382 15.26 54.6395 14.9074C54.4409 14.5548 54.1653 14.2792 53.8127 14.0806C53.465 13.877 53.0603 13.7752 52.5984 13.7752C52.1167 13.7752 51.6896 13.8869 51.3172 14.1104C50.9497 14.3289 50.6616 14.6244 50.453 14.9968C50.2445 15.3643 50.1377 15.774 50.1327 16.226V18.0957C50.1327 18.6619 50.237 19.1511 50.4456 19.5633C50.6591 19.9755 50.9596 20.2933 51.347 20.5168C51.7343 20.7403 52.1937 20.852 52.7251 20.852C53.0777 20.852 53.4005 20.8023 53.6935 20.703C53.9865 20.6037 54.2373 20.4547 54.4459 20.256C54.6544 20.0574 54.8134 19.8141 54.9226 19.526L57.8577 19.7197C57.7087 20.4249 57.4032 21.0407 56.9414 21.5671C56.4845 22.0886 55.8935 22.4958 55.1684 22.7888C54.4483 23.0769 53.6165 23.2209 52.6729 23.2209Z" fill="#0461A5"></path><path d="M59.5761 22.9974V11.5553H62.6005V13.574H62.7346C62.9729 12.9036 63.3702 12.3747 63.9265 11.9873C64.4827 11.6 65.1481 11.4063 65.9229 11.4063C66.7075 11.4063 67.3755 11.6024 67.9267 11.9948C68.478 12.3821 68.8455 12.9085 69.0292 13.574H69.1484C69.3818 12.9185 69.804 12.3945 70.4148 12.0022C71.0306 11.6049 71.7582 11.4063 72.5974 11.4063C73.6652 11.4063 74.5318 11.7465 75.1973 12.4268C75.8677 13.1022 76.2029 14.0607 76.2029 15.3023V22.9974H73.037V15.928C73.037 15.2923 72.8681 14.8156 72.5304 14.4977C72.1927 14.1799 71.7706 14.021 71.264 14.021C70.6879 14.021 70.2385 14.2047 69.9157 14.5722C69.5929 14.9348 69.4315 15.414 69.4315 16.0099V22.9974H66.3549V15.861C66.3549 15.2998 66.1935 14.8528 65.8707 14.5201C65.5529 14.1873 65.1332 14.021 64.6118 14.021C64.2592 14.021 63.9413 14.1104 63.6583 14.2892C63.3802 14.463 63.1592 14.7088 62.9953 15.0266C62.8314 15.3395 62.7495 15.707 62.7495 16.1291V22.9974H59.5761Z" fill="#0461A5"></path><path d="M81.5529 23.2134C80.8228 23.2134 80.1723 23.0868 79.6011 22.8335C79.03 22.5753 78.5781 22.1954 78.2454 21.6938C77.9176 21.1872 77.7537 20.5565 77.7537 19.8016C77.7537 19.166 77.8704 18.6321 78.1038 18.2C78.3372 17.768 78.6551 17.4203 79.0573 17.1571C79.4596 16.8939 79.9165 16.6953 80.428 16.5612C80.9445 16.4271 81.4858 16.3327 82.052 16.2781C82.7174 16.2086 83.2538 16.144 83.661 16.0844C84.0682 16.0199 84.3637 15.9255 84.5475 15.8014C84.7312 15.6772 84.8231 15.4935 84.8231 15.2501V15.2054C84.8231 14.7336 84.6741 14.3686 84.3761 14.1104C84.0831 13.8521 83.666 13.723 83.1247 13.723C82.5536 13.723 82.0991 13.8496 81.7614 14.1029C81.4237 14.3512 81.2003 14.6641 81.091 15.0415L78.156 14.8032C78.305 14.1079 78.598 13.507 79.035 13.0004C79.472 12.4889 80.0357 12.0966 80.726 11.8234C81.4213 11.5453 82.2258 11.4063 83.1396 11.4063C83.7752 11.4063 84.3836 11.4808 84.9646 11.6297C85.5507 11.7787 86.0696 12.0097 86.5215 12.3225C86.9784 12.6354 87.3385 13.0377 87.6017 13.5293C87.8649 14.016 87.9965 14.5995 87.9965 15.2799V22.9974H84.987V21.4107H84.8976C84.7138 21.7683 84.468 22.0836 84.1601 22.3568C83.8522 22.6249 83.4822 22.836 83.0502 22.9899C82.6181 23.1389 82.119 23.2134 81.5529 23.2134ZM82.4617 21.0233C82.9285 21.0233 83.3407 20.9315 83.6983 20.7477C84.0558 20.559 84.3364 20.3057 84.54 19.9879C84.7436 19.67 84.8455 19.31 84.8455 18.9077V17.6935C84.7461 17.758 84.6096 17.8176 84.4357 17.8723C84.2669 17.9219 84.0757 17.9691 83.8621 18.0138C83.6486 18.0535 83.4351 18.0908 83.2215 18.1255C83.008 18.1553 82.8143 18.1827 82.6405 18.2075C82.268 18.2621 81.9427 18.349 81.6646 18.4682C81.3865 18.5874 81.1705 18.7488 81.0165 18.9524C80.8626 19.1511 80.7856 19.3994 80.7856 19.6974C80.7856 20.1294 80.942 20.4597 81.2549 20.6881C81.5727 20.9116 81.975 21.0233 82.4617 21.0233Z" fill="#0461A5"></path><path d="M93.2124 16.3824V22.9974H90.039V11.5553H93.0634V13.574H93.1975C93.4507 12.9085 93.8754 12.3821 94.4713 11.9948C95.0672 11.6024 95.7898 11.4063 96.639 11.4063C97.4336 11.4063 98.1264 11.5801 98.7174 11.9277C99.3084 12.2754 99.7678 12.772 100.096 13.4176C100.423 14.0582 100.587 14.823 100.587 15.712V22.9974H97.4138V16.2781C97.4187 15.5779 97.24 15.0316 96.8774 14.6393C96.5149 14.242 96.0158 14.0433 95.3801 14.0433C94.953 14.0433 94.5756 14.1352 94.2478 14.319C93.925 14.5027 93.6717 14.7709 93.488 15.1235C93.3092 15.4711 93.2173 15.8908 93.2124 16.3824Z" fill="#0461A5"></path><path d="M106.885 23.1836C106.016 23.1836 105.229 22.9601 104.524 22.5132C103.823 22.0613 103.267 21.3983 102.855 20.5242C102.448 19.6452 102.244 18.5675 102.244 17.2912C102.244 15.9801 102.455 14.8901 102.877 14.021C103.299 13.1469 103.861 12.4939 104.561 12.0618C105.266 11.6248 106.038 11.4063 106.878 11.4063C107.518 11.4063 108.052 11.5155 108.479 11.734C108.911 11.9476 109.259 12.2158 109.522 12.5386C109.79 12.8564 109.994 13.1693 110.133 13.4772H110.23V7.74121H113.396V22.9974H110.267V21.1649H110.133C109.984 21.4827 109.773 21.7981 109.5 22.1109C109.232 22.4188 108.881 22.6746 108.449 22.8782C108.022 23.0818 107.501 23.1836 106.885 23.1836ZM107.891 20.6583C108.402 20.6583 108.834 20.5193 109.187 20.2412C109.544 19.9581 109.818 19.5633 110.006 19.0567C110.2 18.5502 110.297 17.9567 110.297 17.2763C110.297 16.596 110.202 16.005 110.014 15.5034C109.825 15.0018 109.552 14.6144 109.194 14.3413C108.837 14.0682 108.402 13.9316 107.891 13.9316C107.369 13.9316 106.93 14.0731 106.572 14.3562C106.215 14.6393 105.944 15.0316 105.76 15.5332C105.576 16.0348 105.485 16.6158 105.485 17.2763C105.485 17.9418 105.576 18.5303 105.76 19.0418C105.949 19.5484 106.22 19.9457 106.572 20.2337C106.93 20.5168 107.369 20.6583 107.891 20.6583Z" fill="#0461A5"></path><path d="M-0.046875 22.9657L13.205 30.611L-0.046875 7.67505V22.9657Z" fill="url(#paint0_linear_616_1855)"></path><path d="M13.205 0.0297852L-0.046875 7.67511H26.4314L13.205 0.0297852Z" fill="url(#paint1_linear_616_1855)"></path><path d="M13.2051 30.611L26.457 22.9657V7.67505L13.2051 30.611Z" fill="url(#paint2_linear_616_1855)"></path><path d="M-0.046875 7.67505L13.205 30.611L26.4569 7.67505H-0.046875Z" fill="url(#paint3_linear_616_1855)"></path><path d="M8.94141 15.2932C10.632 14.813 12.215 14.4736 13.7101 14.4736C15.219 14.4736 16.4486 14.6758 17.3987 15.0802C17.7759 15.9142 17.9646 16.8745 17.9646 17.9612C17.9646 19.0353 17.6362 20.1283 16.9795 21.2403C16.3228 22.3523 15.3657 23.281 14.1083 24.0265C12.8647 24.7594 11.4675 25.1448 9.91661 25.1827L8.94141 15.2932ZM11.7819 23.8749C12.8158 23.4958 13.5983 22.8324 14.1292 21.8847C14.6602 20.9244 14.9256 19.9703 14.9256 19.0226C14.9256 17.1778 14.4506 16.0026 13.5005 15.4972C13.3049 15.4972 13.0534 15.5351 12.746 15.6109L11.7819 23.8749Z" fill="#C1C5EC"></path><path d="M9.28261 15.194C10.9732 14.7138 12.5661 14.4737 14.0611 14.4737C15.5701 14.4737 16.7996 14.6759 17.7497 15.0802C18.127 15.9142 18.3156 16.8746 18.3156 17.9613C18.3156 19.0353 17.9873 20.1284 17.3306 21.2404C16.6739 22.3523 15.7168 23.2811 14.4593 24.0266C13.2158 24.7595 11.8186 25.1449 10.2676 25.1828L9.28261 15.194ZM12.1329 23.875C13.1669 23.4959 13.9493 22.8325 14.4802 21.8848C15.0112 20.9244 15.2767 19.9704 15.2767 19.0227C15.2767 17.1778 14.8016 16.0027 13.8515 15.4972C13.6559 15.4972 13.4044 15.5351 13.097 15.611L12.1329 23.875Z" fill="white"></path><path d="M13.2854 12.531C14.7498 12.4979 16.1595 12.7125 17.5131 13.1815C17.7022 13.2471 17.8893 13.3148 18.006 13.4689C18.1868 13.7083 18.1716 13.9891 17.9641 14.2137C17.7675 14.4269 17.4382 14.5081 17.113 14.4059C16.3216 14.1569 15.5108 13.9784 14.6687 13.8993C12.9159 13.7348 11.2355 13.966 9.62149 14.5654C9.44626 14.6306 9.2736 14.6704 9.08397 14.6305C8.77557 14.5659 8.55451 14.3656 8.51671 14.1151C8.47144 13.8162 8.62715 13.5728 8.97318 13.4293C9.64122 13.1524 10.3368 12.9368 11.0586 12.7854C11.7897 12.6325 12.5321 12.547 13.2854 12.531Z" fill="#FBA505"></path><path d="M19.2812 10.7169C18.866 11.2591 18.4839 11.822 18.2299 12.4395C18.1734 12.5767 18.1939 12.7854 18.0622 12.8229C17.9418 12.8573 17.8577 12.7671 17.5995 12.663C14.7387 11.6668 11.8944 11.7076 9.06566 12.7734C8.80322 12.8722 8.38487 12.6912 8.30205 12.4229C8.09658 11.7574 7.65193 11.1845 7.25173 10.5942C7.60188 10.8543 7.93969 11.1196 8.35321 11.3C9.11749 11.6333 9.72928 11.4091 9.96543 10.6974C10.1293 10.2032 10.0672 9.70513 9.97932 9.20809C9.9685 9.14703 9.95496 9.08642 9.93979 9.01214C10.051 9.06716 10.0695 9.15745 10.1139 9.22997C10.3547 9.62214 10.6648 9.9647 11.0716 10.2378C11.4889 10.5176 11.9859 10.4799 12.3316 10.1323C12.7577 9.70402 12.9495 9.18009 13.0878 8.64317C13.1857 8.26357 13.2458 7.87683 13.3324 7.44451C13.4381 8.18795 13.5822 8.87395 13.9226 9.51691C14.0359 9.73101 14.1695 9.93531 14.3546 10.1096C14.7211 10.4547 15.221 10.4816 15.6408 10.1872C16.1311 9.84346 16.4554 9.39618 16.7294 8.91022C16.6655 9.2863 16.6174 9.66053 16.6345 10.0391C16.6476 10.3313 16.698 10.6159 16.8545 10.8779C17.1367 11.3499 17.6057 11.4935 18.1735 11.2899C18.5744 11.1462 18.8959 10.9047 19.2179 10.6636C19.2704 10.6537 19.2946 10.6689 19.2812 10.7169Z" fill="#FBA505"></path><path d="M19.3649 10.4988C19.3376 10.499 19.3099 10.4993 19.2826 10.4995C19.3756 10.4987 19.5298 10.4973 19.6836 10.4959C19.5994 10.4967 19.5161 10.4974 19.3649 10.4988Z" fill="#FBA505"></path><path d="M7.18774 10.1097C7.16635 10.3483 6.91399 10.5306 6.63878 10.5061C6.37694 10.483 6.16494 10.266 6.18828 10.0454C6.21332 9.80884 6.47079 9.62262 6.73919 9.64705C7.00394 9.67128 7.20816 9.88194 7.18774 10.1097Z" fill="#FBA505"></path><path d="M17.6164 8.16521C17.6193 8.40505 17.3859 8.61066 17.1127 8.60877C16.8571 8.60688 16.6207 8.404 16.6139 8.18054C16.6068 7.94469 16.8422 7.74265 17.1207 7.74538C17.392 7.74811 17.6137 7.93587 17.6164 8.16521Z" fill="#FBA505"></path><path d="M19.7117 10.5082C19.4288 10.5027 19.2076 10.2998 19.2211 10.0582C19.234 9.82504 19.4626 9.63933 19.729 9.64502C20.0062 9.65114 20.2362 9.86172 20.2225 10.0965C20.2091 10.3261 19.9766 10.5133 19.7117 10.5082Z" fill="#FBA505"></path><path d="M14.0069 6.54079C13.9984 6.8288 13.7063 7.068 13.3803 7.05409C13.0549 7.04019 12.801 6.80832 12.8039 6.5279C12.8069 6.23635 13.0857 6.00853 13.4264 6.01889C13.7492 6.0285 14.0151 6.26771 14.0069 6.54079Z" fill="#FBA505"></path><path d="M9.70204 7.74537C9.97908 7.74726 10.1938 7.92989 10.197 8.16653C10.2002 8.40444 9.96036 8.61313 9.68923 8.60871C9.42278 8.6043 9.19843 8.41011 9.19449 8.18019C9.19006 7.93535 9.41416 7.74347 9.70204 7.74537Z" fill="#FBA505"></path></g><defs><linearGradient id="paint0_linear_616_1855" x1="6.72292" y1="30.611" x2="10.6306" y2="8.36137" gradientUnits="userSpaceOnUse"><stop stop-color="#0461A5"></stop><stop offset="1" stop-color="#1B91FF"></stop></linearGradient><linearGradient id="paint1_linear_616_1855" x1="13.4797" y1="11.3379" x2="13.8107" y2="0.039485" gradientUnits="userSpaceOnUse"><stop stop-color="#1B91FF"></stop><stop offset="1" stop-color="#0461A5"></stop></linearGradient><linearGradient id="paint2_linear_616_1855" x1="19.9749" y1="30.611" x2="23.8826" y2="8.36137" gradientUnits="userSpaceOnUse"><stop stop-color="#0461A5"></stop><stop offset="1" stop-color="#1B91FF"></stop></linearGradient><linearGradient id="paint3_linear_616_1855" x1="13.4927" y1="30.611" x2="15.4914" y2="7.85057" gradientUnits="userSpaceOnUse"><stop stop-color="#1B91FF"></stop><stop offset="1" stop-color="#0461A5"></stop></linearGradient><clipPath id="clip0_616_1855"><rect width="150" height="30.5813" fill="white"></rect></clipPath></defs></svg>