<svg xmlns="http://www.w3.org/2000/svg" width="512" height="479" viewBox="0 0 512 479" fill="none"><path d="M28.0706 478.656C12.568 478.656 0 466.089 0 450.585V125.34H176.564L225.48 163.717H422.89V219.858C282.232 341.118 191.13 478.656 28.0706 478.656Z" fill="#039D55"></path><path d="M123.394 219.858L59.2751 456.46C55.7253 469.56 43.8367 478.656 30.2638 478.656H250.669L317.169 334.256L320.803 219.858H123.394Z" fill="#36F99E"></path><path d="M313.666 219.858L243.532 478.656H417.946C431.517 478.656 443.406 469.56 446.957 456.46L511.075 219.858H313.666Z" fill="#0AD174"></path><path d="M255.986 432.689H152.126L160.339 402.631H264.199L281.815 417.66L255.986 432.689Z" fill="#0AD174"></path><path d="M359.848 432.689H255.986L264.134 402.631H368.06L359.848 432.689Z" fill="#039D55"></path><path d="M493.563 71.6678L470.26 89.7673C462.305 38.9784 418.254 0 365.267 0C306.665 0 258.989 47.676 258.989 106.278H289.047C289.047 64.2496 323.239 30.0574 365.267 30.0574C400.565 30.0574 430.327 54.1804 438.957 86.8036L419.47 71.6678L401.033 95.4041L456.517 138.502L512.001 95.4041L493.563 71.6678Z" fill="#039D55"></path></svg>