<svg xmlns="http://www.w3.org/2000/svg" width="157" height="47" viewBox="0 0 157 47" fill="none"><path d="M122.802 15.9478V31.7933H120.176V20.9253L115.283 31.7933H113.463L108.54 20.9547V31.7933H105.914V15.9478H108.749L114.388 28.3768L119.997 15.9478H122.802ZM125.397 25.461C125.397 24.1945 125.666 23.0753 126.173 22.1034C126.71 21.1314 127.426 20.3657 128.351 19.8355C129.276 19.2759 130.291 19.0108 131.394 19.0108C132.409 19.0108 133.274 19.217 133.99 19.5999C134.736 19.9828 135.333 20.454 135.78 21.0431V19.217H138.436V31.7933H135.78V29.9378C135.333 30.5269 134.736 31.0276 133.96 31.4105C133.185 31.7933 132.319 31.9995 131.335 31.9995C130.231 31.9995 129.246 31.7344 128.321 31.1748C127.426 30.6152 126.68 29.8495 126.143 28.8481C125.636 27.8467 125.397 26.698 125.397 25.461ZM135.78 25.4905C135.78 24.6363 135.601 23.8705 135.214 23.2226C134.856 22.5746 134.378 22.1034 133.811 21.7499C133.215 21.426 132.588 21.2493 131.932 21.2493C131.275 21.2493 130.619 21.426 130.052 21.7499C129.455 22.0739 128.978 22.5452 128.62 23.1931C128.262 23.8116 128.083 24.548 128.083 25.4315C128.083 26.2857 128.262 27.0514 128.62 27.6994C128.978 28.3474 129.455 28.8481 130.052 29.2015C130.649 29.5255 131.275 29.7022 131.932 29.7022C132.618 29.7022 133.244 29.5255 133.811 29.2015C134.408 28.8775 134.856 28.3768 135.214 27.7289C135.601 27.1104 135.78 26.374 135.78 25.4905ZM144.552 21.0431C144.94 20.3951 145.447 19.9239 146.074 19.5704C146.73 19.217 147.476 19.0108 148.371 19.0108V21.691H147.715C146.671 21.691 145.895 21.9561 145.358 22.4568C144.821 22.987 144.582 23.8705 144.582 25.137V31.7933H141.957V19.217H144.582V21.0431H144.552ZM153.832 21.3376V28.2885C153.832 28.7597 153.951 29.1131 154.16 29.3193C154.398 29.5255 154.786 29.6138 155.323 29.6138H156.935V31.7933H154.846C153.653 31.7933 152.757 31.5283 152.131 30.9687C151.504 30.4091 151.176 29.5255 151.176 28.2885V21.3376H149.684V19.217H151.176V16.095H153.832V19.217H156.935V21.3376H153.832Z" fill="#039D55"></path><path d="M58.5332 19.07C58.3841 18.4221 58.1155 17.9214 57.6978 17.5974C57.3099 17.2734 56.7729 17.0967 56.0568 17.0967C54.9827 17.0967 54.1771 17.5385 53.6401 18.3926C53.1328 19.2468 52.8643 20.631 52.8643 22.5749C53.2522 21.9564 53.7892 21.4852 54.5053 21.1317C55.2214 20.7783 56.027 20.6016 56.8624 20.6016C57.8768 20.6016 58.7719 20.8078 59.5775 21.2495C60.3533 21.6913 60.9798 22.3098 61.4274 23.164C61.8749 23.9887 62.0838 24.99 62.0838 26.1387C62.0838 27.2285 61.8451 28.2299 61.3976 29.084C60.95 29.9381 60.2936 30.6155 59.4283 31.0868C58.5631 31.558 57.5486 31.7936 56.3552 31.7936C54.7142 31.7936 53.4312 31.4402 52.5063 30.7333C51.5813 30.0265 50.9249 29.0251 50.5371 27.7586C50.179 26.4627 50 24.9017 50 23.0167C50 20.1892 50.5072 18.0392 51.4918 16.596C52.4764 15.1528 54.0578 14.4165 56.1762 14.4165C57.8172 14.4165 59.1001 14.8583 60.0251 15.7419C60.95 16.6255 61.4572 17.7152 61.6064 19.0406H58.5332V19.07ZM56.1165 23.2818C55.2811 23.2818 54.5948 23.5174 54.0279 23.9887C53.461 24.4599 53.1925 25.1668 53.1925 26.0798C53.1925 26.9928 53.461 27.7292 53.9683 28.2299C54.5053 28.76 55.2512 29.0251 56.206 29.0251C57.0414 29.0251 57.7277 28.76 58.205 28.2593C58.7123 27.7586 58.951 27.0517 58.951 26.1976C58.951 25.2846 58.7123 24.5777 58.2349 24.0476C57.7575 23.5469 57.0414 23.2818 56.1165 23.2818ZM64.2022 25.2846C64.2022 23.9887 64.4707 22.84 64.9779 21.8091C65.515 20.8078 66.2311 20.0125 67.1262 19.4824C68.0511 18.9522 69.0357 18.6577 70.1695 18.6577C71.1541 18.6577 71.9895 18.8639 72.7056 19.2468C73.4515 19.6296 74.0184 20.1303 74.466 20.7194V18.8933H77.7778V31.7936H74.466V29.9087C74.0482 30.5272 73.4515 31.0279 72.7056 31.4108C71.9597 31.7936 71.1243 31.9998 70.1397 31.9998C69.0357 31.9998 68.0213 31.7347 67.1262 31.1751C66.2311 30.6155 65.515 29.8203 64.9779 28.8189C64.4707 27.7881 64.2022 26.61 64.2022 25.2846ZM74.4958 25.3435C74.4958 24.5483 74.3466 23.8708 74.0184 23.3112C73.6902 22.7516 73.2725 22.3098 72.7354 22.0153C72.1984 21.6913 71.6315 21.5441 71.0049 21.5441C70.3784 21.5441 69.8413 21.6913 69.3042 21.9859C68.797 22.2804 68.3495 22.7222 68.0213 23.2818C67.6931 23.8414 67.5439 24.5188 67.5439 25.2846C67.5439 26.0503 67.6931 26.7278 68.0213 27.3168C68.3495 27.8764 68.7672 28.3182 69.3042 28.6422C69.8413 28.9662 70.4082 29.1134 71.0049 29.1134C71.6315 29.1134 72.1984 28.9662 72.7354 28.6716C73.2725 28.3477 73.6902 27.9353 74.0184 27.3757C74.3168 26.8161 74.4958 26.1387 74.4958 25.3435ZM97.2312 18.7166C98.8424 18.7166 100.125 19.2173 101.08 20.1892C102.065 21.1612 102.572 22.4866 102.572 24.2243V31.7936H99.2601V24.6661C99.2601 23.6647 98.9916 22.8989 98.4844 22.3688C97.9771 21.8386 97.2611 21.5441 96.366 21.5441C95.4709 21.5441 94.7548 21.8091 94.2177 22.3688C93.7105 22.8989 93.442 23.6647 93.442 24.6661V31.7936H90.16V24.6661C90.16 23.6647 89.8914 22.8989 89.3842 22.3688C88.877 21.8386 88.1609 21.5441 87.2658 21.5441C86.3409 21.5441 85.6248 21.8091 85.0878 22.3688C84.5805 22.8989 84.312 23.6647 84.312 24.6661V31.7936H81.0002V18.8933H84.312V20.4543C84.7297 19.9242 85.2668 19.4824 85.9232 19.1879C86.6094 18.8639 87.3255 18.7166 88.1311 18.7166C89.1455 18.7166 90.0705 18.9228 90.8761 19.3646C91.6816 19.7769 92.3082 20.3954 92.7259 21.1906C93.1436 20.4543 93.7702 19.8358 94.5758 19.394C95.4112 18.9522 96.2765 18.7166 97.2312 18.7166Z" fill="#039D55"></path><path d="M1.57812 34.8858L21.5014 46.2677L1.57812 12.1184V34.8858Z" fill="url(#paint0_linear_1470_6581)"></path><path d="M21.5014 0.732422L1.57812 12.118H41.421L21.5014 0.732422Z" fill="url(#paint1_linear_1470_6581)"></path><path d="M21.4961 46.2677L41.4156 34.8858V12.1184L21.4961 46.2677Z" fill="url(#paint2_linear_1470_6581)"></path><path d="M1.57812 12.1184L21.5014 46.2677L41.421 12.1184H1.57812Z" fill="url(#paint3_linear_1470_6581)"></path><g clip-path="url(#clip0_1470_6581)"><path d="M23.8586 15.0608H29.3507C29.9184 21.2445 30.486 27.4145 31.0537 33.5948H27.282C26.979 30.1651 26.676 26.7286 26.3695 23.2817C26.3069 23.2782 26.2546 23.2679 26.2059 23.2679C25.6382 23.2679 25.0705 23.2679 24.5063 23.2679C24.3844 23.2679 24.3217 23.292 24.28 23.4161C23.6983 25.2257 23.1133 27.0319 22.5247 28.8415C22.1938 29.8549 21.856 30.8683 21.5078 31.9162C21.4625 31.7748 21.4277 31.6645 21.3894 31.5508C20.9053 30.0858 20.4177 28.6244 19.9301 27.1594C19.5192 25.9185 19.1013 24.6777 18.6973 23.4368C18.6555 23.3092 18.6067 23.2644 18.4674 23.2644C17.9067 23.2748 17.346 23.2644 16.7853 23.2679C16.7261 23.2679 16.6704 23.2748 16.6007 23.2782C16.3082 26.7217 16.0156 30.1548 15.7231 33.5982H11.9932C12.4807 27.4214 12.9648 21.2549 13.4559 15.0608C15.1659 15.0608 16.8654 15.0608 18.5649 15.0608C18.6973 15.0608 18.8296 15.0608 18.9619 15.0608H23.862H23.8586ZM24.2625 16.0949C24.266 15.7157 23.9352 15.3814 23.5521 15.3848C23.2038 15.3848 22.859 15.7226 22.8486 16.0742C22.8381 16.4223 23.1934 16.7842 23.5521 16.7842C23.9247 16.7842 24.2591 16.4637 24.2625 16.0949ZM19.5993 16.0949C19.6411 15.726 19.2928 15.3917 18.9167 15.3848C18.5371 15.3814 18.2132 15.7088 18.2097 16.0845C18.2097 16.4568 18.5336 16.7842 18.9132 16.7877C19.2754 16.7911 19.5958 16.4671 19.5993 16.0949Z" fill="white"></path><path d="M17.8709 25.0498C18.7973 27.8625 19.7376 30.7269 20.6814 33.6016H17.251C17.4599 30.7269 17.6654 27.859 17.8709 25.0498Z" fill="white"></path><path d="M25.0956 25.1084C25.2941 27.8556 25.4995 30.7234 25.705 33.5981H22.3164C23.2532 30.7337 24.1936 27.8625 25.0956 25.1084Z" fill="white"></path><path d="M23.8568 15.0605C23.721 15.0605 23.5852 15.0605 23.4459 15.0605C23.4633 14.2642 23.3867 13.4749 23.2056 12.6993C23.0732 12.1375 22.8852 11.5998 22.5404 11.1275C21.7777 10.0935 20.3742 10.121 19.6846 11.2034C19.4931 11.5067 19.3503 11.8514 19.2423 12.1961C18.9533 13.1267 18.9184 14.0919 18.9568 15.057C18.8244 15.057 18.6921 15.057 18.5597 15.057C18.5179 14.016 18.5771 12.9854 18.8871 11.9824C19.0543 11.4412 19.2911 10.938 19.716 10.5416C20.0538 10.2279 20.4299 10.0107 20.9175 10.0555C20.9906 10.0624 21.0638 10.0624 21.1334 10.0555C22.0041 9.96593 22.5648 10.4278 22.9931 11.0965C23.3971 11.7239 23.5956 12.427 23.6966 13.1509C23.7837 13.7817 23.8046 14.4228 23.8534 15.057L23.8568 15.0605Z" fill="white"></path><path d="M24.2638 16.0943C24.2603 16.4632 23.926 16.7872 23.5533 16.7837C23.1946 16.7837 22.8394 16.4218 22.8498 16.0737C22.8603 15.7221 23.2051 15.3843 23.5533 15.3843C23.9364 15.3843 24.2673 15.7152 24.2638 16.0943ZM23.5498 16.639C23.8703 16.639 24.1175 16.408 24.1245 16.0943C24.1314 15.7807 23.8877 15.5325 23.5707 15.529C23.2538 15.529 23.0031 15.7634 22.9961 16.0737C22.9926 16.3873 23.2364 16.6355 23.5498 16.639Z" fill="white"></path><path d="M19.6025 16.0919C19.6025 16.4642 19.2821 16.7882 18.9164 16.7848C18.5368 16.7813 18.2094 16.4573 18.2129 16.0816C18.2129 15.7059 18.5403 15.3784 18.9199 15.3819C19.296 15.3853 19.6443 15.7197 19.6025 16.0919ZM18.906 16.6365C19.2264 16.6365 19.4736 16.4056 19.4806 16.0919C19.4876 15.7817 19.2403 15.5335 18.9269 15.5266C18.6099 15.5232 18.3627 15.7576 18.3557 16.0712C18.3487 16.3849 18.589 16.6331 18.906 16.6331V16.6365Z" fill="white"></path></g><defs><linearGradient id="paint0_linear_1470_6581" x1="11.5577" y1="46.7707" x2="11.5577" y2="12.1184" gradientUnits="userSpaceOnUse"><stop offset="0.270833" stop-color="#009C60"></stop><stop offset="1" stop-color="#00DF89"></stop></linearGradient><linearGradient id="paint1_linear_1470_6581" x1="21.5353" y1="12.2857" x2="21.5353" y2="0.732422" gradientUnits="userSpaceOnUse"><stop stop-color="#00DF89"></stop><stop offset="0.875" stop-color="#05BB75"></stop></linearGradient><linearGradient id="paint2_linear_1470_6581" x1="31.4738" y1="46.7707" x2="31.4737" y2="12.1184" gradientUnits="userSpaceOnUse"><stop offset="0.197917" stop-color="#05BB75"></stop><stop offset="1" stop-color="#00DF89"></stop></linearGradient><linearGradient id="paint3_linear_1470_6581" x1="21.5353" y1="46.7707" x2="21.5353" y2="12.1184" gradientUnits="userSpaceOnUse"><stop stop-color="#0FE794"></stop><stop offset="0.817708" stop-color="#05BB75"></stop></linearGradient><clipPath id="clip0_1470_6581"><rect width="19.0605" height="23.5561" fill="white" transform="translate(11.9932 10.0454)"></rect></clipPath></defs></svg>