<svg xmlns="http://www.w3.org/2000/svg" width="40" height="40" viewBox="0 0 40 40" fill="none"><rect width="40" height="40" rx="20" fill="url(#paint0_linear_1486_14627)"></rect><path d="M24.0613 27.6162C23.975 27.7493 23.8288 27.8299 23.6694 27.8299H16.3288C16.1694 27.8299 16.0231 27.7493 15.9369 27.6162C15.8525 27.4849 15.8413 27.3237 15.9032 27.1831C16.0832 26.7837 16.4825 26.5269 16.9213 26.5269H17.8007V25.7543H22.1994V26.5269H23.0769C23.5157 26.5269 23.915 26.7856 24.095 27.185C24.1588 27.3237 24.1456 27.4868 24.0613 27.6162ZM14.8101 16.5432C14.5007 16.5432 14.2476 16.2901 14.2476 15.9807C14.2513 13.9624 14.237 14.0262 14.2607 13.9313C13.3569 14.1731 12.6876 15.0001 12.6876 15.9807C12.6876 17.1507 13.6401 18.1032 14.8101 18.1032C15.7889 18.1032 16.6176 17.4357 16.8595 16.5319C16.7635 16.5521 16.8148 16.5394 14.8101 16.5432ZM14.8101 13.8601C14.7069 13.8601 14.6225 13.9425 14.6225 14.0476V15.9807C14.6225 16.0838 14.7069 16.1682 14.8101 16.1682H16.7451C16.8482 16.1682 16.9326 16.0838 16.9326 15.9807C16.9325 14.8107 15.9801 13.8601 14.8101 13.8601ZM16.9318 19.0541C16.9318 18.9504 16.8478 18.8666 16.7443 18.8666H12.8749C12.7714 18.8666 12.6874 18.9504 12.6874 19.0541C12.6874 19.1578 12.7714 19.2416 12.8749 19.2416H16.7443C16.8479 19.2416 16.9318 19.1577 16.9318 19.0541ZM16.9318 20.1584C16.9318 20.0547 16.8478 19.9708 16.7443 19.9708H12.8749C12.7714 19.9708 12.6874 20.0547 12.6874 20.1584C12.6874 20.262 12.7714 20.3459 12.8749 20.3459H16.7443C16.8479 20.3459 16.9318 20.262 16.9318 20.1584ZM16.9318 21.2627C16.9318 21.1591 16.8478 21.0752 16.7443 21.0752H12.8749C12.7714 21.0752 12.6874 21.159 12.6874 21.2627C12.6874 21.3663 12.7714 21.4502 12.8749 21.4502H16.7443C16.8479 21.4502 16.9318 21.3663 16.9318 21.2627ZM19.9907 17.9551H19.2088C19.0007 17.9551 18.8338 18.1238 18.8338 18.3301V21.0751C18.8338 21.2814 19.0007 21.4501 19.2088 21.4501H19.9907C20.1969 21.4501 20.3657 21.2814 20.3657 21.0751V18.3301C20.3657 18.1238 20.1969 17.9551 19.9907 17.9551ZM22.3063 16.0219H21.5244C21.3164 16.0219 21.1494 16.1906 21.1494 16.3969V21.0751C21.1494 21.2814 21.3163 21.4501 21.5244 21.4501H22.3063C22.5126 21.4501 22.6813 21.2814 22.6813 21.0751V16.3969C22.6813 16.1907 22.5125 16.0219 22.3063 16.0219ZM24.622 17.9551H23.8382C23.6319 17.9551 23.4632 18.1238 23.4632 18.3301V21.0751C23.4632 21.2814 23.6319 21.4501 23.8382 21.4501H24.622C24.8282 21.4501 24.997 21.2814 24.997 21.0751V18.3301C24.997 18.1238 24.8282 17.9551 24.622 17.9551ZM26.9376 16.8075H26.1538C25.9475 16.8075 25.7788 16.9763 25.7788 17.1825V21.075C25.7788 21.2813 25.9475 21.45 26.1538 21.45H26.9376C27.1438 21.45 27.3126 21.2813 27.3126 21.075V17.1825C27.3126 16.9763 27.1438 16.8075 26.9376 16.8075ZM24.3385 16.954L26.6538 15.3172C26.7384 15.2575 26.7585 15.1405 26.6987 15.0559C26.639 14.9715 26.5221 14.9511 26.4374 15.011L24.2629 16.5482L22.0585 13.9252C22.0251 13.8855 21.9766 13.8613 21.9247 13.8585C21.8739 13.856 21.822 13.875 21.7847 13.9109L19.4694 16.1472C19.395 16.2191 19.3929 16.338 19.4649 16.4123C19.5368 16.487 19.6555 16.4887 19.73 16.417L21.9007 14.3203L24.0868 16.9215C24.1237 16.9654 24.1768 16.9883 24.2304 16.9883C24.268 16.9885 24.3058 16.9773 24.3385 16.954ZM29 13.1074V24.4418C29 24.9574 28.5781 25.3793 28.0625 25.3793H11.9375C11.42 25.3793 11 24.9574 11 24.4418C11 25.1594 11 13.4078 11 13.1074C11 12.5899 11.42 12.1699 11.9375 12.1699H28.0626C28.5782 12.1699 29 12.5899 29 13.1074ZM20.632 23.884C20.632 23.5352 20.3484 23.2516 19.9996 23.2516C19.6509 23.2516 19.3673 23.5352 19.3673 23.884C19.3673 24.2327 19.6509 24.5163 19.9996 24.5163C20.3483 24.5163 20.632 24.2326 20.632 23.884ZM28.25 13.1074C28.25 13.0043 28.1656 12.9199 28.0625 12.9199H11.9375C11.8344 12.9199 11.75 13.0043 11.75 13.1074V22.3886H28.25V13.1074Z" fill="url(#paint1_linear_1486_14627)"></path><defs><linearGradient id="paint0_linear_1486_14627" x1="20" y1="40" x2="20" y2="0" gradientUnits="userSpaceOnUse"><stop stop-color="#0F12B0"></stop><stop offset="1" stop-color="#0085FF"></stop></linearGradient><linearGradient id="paint1_linear_1486_14627" x1="12.4723" y1="26.3015" x2="27.527" y2="11.2469" gradientUnits="userSpaceOnUse"><stop stop-color="#A9BFFF"></stop><stop offset="0.3042" stop-color="#ECF2FF"></stop><stop offset="0.9442" stop-color="#E8F4FF"></stop><stop offset="1" stop-color="#F4FAFF"></stop></linearGradient></defs></svg>