<svg xmlns="http://www.w3.org/2000/svg" width="40" height="40" viewBox="0 0 40 40" fill="none"><rect width="40" height="40" rx="20" fill="url(#paint0_linear_1486_14647)"></rect><g clip-path="url(#clip0_1486_14647)"><path d="M26.6797 28.2001H13.3203C13.0291 28.2001 12.793 27.9876 12.793 27.7255V27.061C12.793 23.4845 16.026 20.5747 20 20.5747C23.974 20.5747 27.207 23.4844 27.207 27.061V27.7255C27.207 27.9876 26.9709 28.2001 26.6797 28.2001Z" fill="url(#paint1_linear_1486_14647)"></path><path d="M20 19.6254C18.0615 19.6254 16.4844 18.206 16.4844 16.4613V15.1641C16.4844 13.4194 18.0615 12 20 12C21.9385 12 23.5156 13.4194 23.5156 15.1641V16.4613C23.5156 18.206 21.9385 19.6254 20 19.6254Z" fill="white"></path></g><defs><linearGradient id="paint0_linear_1486_14647" x1="20" y1="40" x2="20" y2="0" gradientUnits="userSpaceOnUse"><stop stop-color="#069954"></stop><stop offset="1" stop-color="#039D55"></stop></linearGradient><linearGradient id="paint1_linear_1486_14647" x1="20" y1="28.2001" x2="20" y2="20.5747" gradientUnits="userSpaceOnUse"><stop stop-color="white"></stop><stop offset="1" stop-color="white"></stop></linearGradient><clipPath id="clip0_1486_14647"><rect width="18" height="16.2" fill="white" transform="translate(11 12)"></rect></clipPath></defs></svg>