<svg xmlns="http://www.w3.org/2000/svg" width="22" height="22" viewBox="0 0 22 22" fill="none"><rect width="22" height="22" rx="11" fill="url(#paint0_linear_1486_14696)"></rect><path d="M13.1093 12.7813C13.0815 12.7813 12.7782 12.7813 12.3459 12.7813C12.3848 12.6713 12.4062 12.553 12.4062 12.4297V11.6281C12.408 11.6246 12.4095 11.6217 12.4114 11.6181C12.9809 11.2171 13.3575 10.6006 13.4398 9.9125C13.8617 9.77188 14.164 9.37813 14.164 8.91406C14.164 8.45701 13.8687 8.06326 13.4609 7.92263C13.271 7.72578 12.6312 6.94531 10.9999 6.94531C9.36163 6.94531 8.74288 7.71873 8.539 7.92263C8.13117 8.06326 7.83588 8.45701 7.83588 8.91406C7.83588 9.3781 8.13822 9.77185 8.55309 9.9125C8.63043 10.5523 8.94684 11.1219 9.45306 11.5226C9.49525 11.5578 9.54447 11.593 9.59369 11.6281V12.4297C9.59369 12.553 9.61506 12.6713 9.65395 12.7813C9.21417 12.7813 8.90833 12.7813 8.89056 12.7813C8.30899 12.7813 7.83588 13.2544 7.83588 13.8359V17H14.164V13.8359C14.164 13.2544 13.6909 12.7813 13.1093 12.7813Z" fill="url(#paint1_linear_1486_14696)"></path><path d="M9.81401 9.43562L9.81856 9.43437C10.5914 9.21971 11.4082 9.21971 12.1811 9.43437L12.1856 9.43562C12.3335 9.47673 12.491 9.41703 12.5746 9.28824L13.4607 7.92263V6.75781C13.4607 5.78701 12.6737 5 11.7029 5H10.2967C9.32588 5 8.53887 5.78701 8.53887 6.75781V7.92263L9.42502 9.28824C9.50857 9.41703 9.66607 9.47673 9.81401 9.43562ZM16.2662 16.5781L15.774 14.1313C15.6193 13.3438 15.092 12.6898 14.3608 12.3664L12.526 11.5502C12.4743 11.5838 12.4579 11.5945 12.4061 11.6281V11.7266C12.4061 12.3091 11.9339 12.7812 11.3514 12.7812H10.6483C10.0658 12.7812 9.59358 12.3091 9.59358 11.7266V11.6281C9.54436 11.593 9.49514 11.5578 9.45295 11.5226L7.85688 12.05C7.00608 12.3313 6.37327 13.0555 6.21155 13.9484L5.73342 16.5851C5.71231 16.6906 5.74045 16.7961 5.81077 16.8734C5.87407 16.9508 5.97246 17 6.07795 17H8.53889V13.8359C8.53889 13.6418 8.6963 13.4844 8.89045 13.4844H9.94514V15.5938C9.94514 15.7156 10.0083 15.8286 10.112 15.8928C10.2157 15.9573 10.3448 15.9625 10.4539 15.9082L10.9998 15.6353L11.5457 15.9082C11.5955 15.933 11.649 15.9453 11.703 15.9453C11.7671 15.9453 11.8314 15.9278 11.8877 15.8928C11.9914 15.8286 12.0545 15.7156 12.0545 15.5938V13.4844H13.1092C13.3034 13.4844 13.4608 13.6418 13.4608 13.8359V17H15.9217C16.0272 17 16.1256 16.9508 16.1959 16.8734C16.2592 16.7891 16.2873 16.6836 16.2662 16.5781Z" fill="url(#paint2_linear_1486_14696)"></path><defs><linearGradient id="paint0_linear_1486_14696" x1="11" y1="22" x2="11" y2="0" gradientUnits="userSpaceOnUse"><stop stop-color="#A93AFF"></stop><stop offset="1" stop-color="#FF81FF"></stop></linearGradient><linearGradient id="paint1_linear_1486_14696" x1="10.9999" y1="17" x2="10.9999" y2="6.94531" gradientUnits="userSpaceOnUse"><stop stop-color="#E6C1FF"></stop><stop offset="0.5028" stop-color="#EAF6FF"></stop><stop offset="1" stop-color="#EAF6FF"></stop></linearGradient><linearGradient id="paint2_linear_1486_14696" x1="10.9998" y1="17" x2="10.9998" y2="5" gradientUnits="userSpaceOnUse"><stop stop-color="#A93AFF"></stop><stop offset="1" stop-color="#FF81FF"></stop></linearGradient></defs></svg>