<svg xmlns="http://www.w3.org/2000/svg" width="40" height="40" viewBox="0 0 40 40" fill="none"><rect width="40" height="40" rx="20" fill="url(#paint0_linear_1486_14655)"></rect><g clip-path="url(#clip0_1486_14655)"><path d="M28.1562 12.6172H11.8438L11 15.7812V27.9102C11 28.2013 11.2363 28.4375 11.5273 28.4375H28.4727C28.7638 28.4375 29 28.2013 29 27.9102V15.7812L28.1562 12.6172Z" fill="#D5EFFF"></path><path d="M26.3633 21.0547H25.642L24.7256 19.2218C24.5953 18.9613 24.2786 18.8557 24.0181 18.986C23.7576 19.1162 23.652 19.433 23.7823 19.6935L24.4629 21.0547H21.9356L22.6162 19.6935C22.7464 19.433 22.6409 19.1162 22.3804 18.986C22.12 18.8558 21.8031 18.9613 21.6729 19.2218L20.7564 21.0547H20.0352C19.8657 21.0547 19.7064 21.1362 19.6073 21.2737C19.5082 21.4112 19.4813 21.5879 19.5348 21.7488L20.5895 24.9128C20.6614 25.1282 20.8629 25.2734 21.0898 25.2734H25.3086C25.5356 25.2734 25.7371 25.1282 25.8089 24.9129L26.8636 21.7488C26.9171 21.588 26.8902 21.4112 26.7911 21.2737C26.6919 21.1362 26.5328 21.0547 26.3633 21.0547ZM17.9258 20H13.6367C13.3455 20 13.1094 20.2361 13.1094 20.5273C13.1094 20.8186 13.3455 21.0547 13.6367 21.0547H17.9258C18.217 21.0547 18.4531 20.8186 18.4531 20.5273C18.4531 20.2361 18.217 20 17.9258 20ZM17.9258 22.1094H13.6367C13.3455 22.1094 13.1094 22.3455 13.1094 22.6367C13.1094 22.928 13.3455 23.1641 13.6367 23.1641H17.9258C18.217 23.1641 18.4531 22.928 18.4531 22.6367C18.4531 22.3455 18.217 22.1094 17.9258 22.1094ZM17.9258 24.2188H13.6367C13.3455 24.2188 13.1094 24.4549 13.1094 24.7461C13.1094 25.0373 13.3455 25.2734 13.6367 25.2734H17.9258C18.217 25.2734 18.4531 25.0373 18.4531 24.7461C18.4531 24.4549 18.217 24.2188 17.9258 24.2188ZM28.4727 11.5625H11.5273C11.2363 11.5625 11 11.7988 11 12.0898V15.7812H29V12.0898C29 11.7988 28.7638 11.5625 28.4727 11.5625ZM20.0352 14.1992H13.6367C13.3455 14.1992 13.1094 13.9631 13.1094 13.6719C13.1094 13.3806 13.3455 13.1445 13.6367 13.1445H20.0352C20.3264 13.1445 20.5625 13.3806 20.5625 13.6719C20.5625 13.9631 20.3264 14.1992 20.0352 14.1992ZM22.1445 14.1992C21.8533 14.1992 21.6172 13.9631 21.6172 13.6719C21.6172 13.3806 21.8533 13.1445 22.1445 13.1445C22.4358 13.1445 22.6719 13.3806 22.6719 13.6719C22.6719 13.9631 22.4358 14.1992 22.1445 14.1992ZM24.2539 14.1992C23.9627 14.1992 23.7266 13.9631 23.7266 13.6719C23.7266 13.3806 23.9627 13.1445 24.2539 13.1445C24.5451 13.1445 24.7812 13.3806 24.7812 13.6719C24.7812 13.9631 24.5451 14.1992 24.2539 14.1992ZM26.3633 14.1992C26.072 14.1992 25.8359 13.9631 25.8359 13.6719C25.8359 13.3806 26.072 13.1445 26.3633 13.1445C26.6545 13.1445 26.8906 13.3806 26.8906 13.6719C26.8906 13.9631 26.6545 14.1992 26.3633 14.1992Z" fill="url(#paint1_linear_1486_14655)"></path></g><defs><linearGradient id="paint0_linear_1486_14655" x1="20" y1="40" x2="20" y2="0" gradientUnits="userSpaceOnUse"><stop stop-color="#5558FF"></stop><stop offset="1" stop-color="#00C0FF"></stop></linearGradient><linearGradient id="paint1_linear_1486_14655" x1="20" y1="25.2734" x2="20" y2="11.5625" gradientUnits="userSpaceOnUse"><stop stop-color="#5558FF"></stop><stop offset="1" stop-color="#00C0FF"></stop></linearGradient><clipPath id="clip0_1486_14655"><rect width="18" height="18" fill="white" transform="translate(11 11)"></rect></clipPath></defs></svg>