<svg xmlns="http://www.w3.org/2000/svg" width="40" height="40" viewBox="0 0 40 40" fill="none"><rect width="40" height="40" rx="20" fill="url(#paint0_linear_1486_14635)"></rect><g clip-path="url(#clip0_1486_14635)"><path d="M27.418 14.7266H25.2734C24.983 14.7266 24.7461 14.4902 24.7461 14.1992C24.7461 13.9077 24.5102 13.6719 24.2188 13.6719C23.9273 13.6719 23.6914 13.9077 23.6914 14.1992C23.6914 14.4902 23.4545 14.7266 23.1641 14.7266H21.0547C20.7642 14.7266 20.5273 14.4902 20.5273 14.1992C20.5273 13.9077 20.2915 13.6719 20 13.6719C19.7085 13.6719 19.4727 13.9077 19.4727 14.1992C19.4727 14.4902 19.2358 14.7266 18.9453 14.7266H16.8359C16.5455 14.7266 16.3086 14.4902 16.3086 14.1992C16.3086 13.9077 16.0727 13.6719 15.7812 13.6719C15.4898 13.6719 15.2539 13.9077 15.2539 14.1992C15.2539 14.4902 15.017 14.7266 14.7266 14.7266H12.582C12.2906 14.7266 12.0547 14.9624 12.0547 15.2539V24.7461C12.0547 25.0376 12.2906 25.2734 12.582 25.2734H15.5629L16.4631 26.1736C16.562 26.2725 16.6959 26.3281 16.8359 26.3281H23.1641C23.3041 26.3281 23.438 26.2725 23.5369 26.1736L24.4371 25.2734H27.418C27.7094 25.2734 27.9453 25.0376 27.9453 24.7461V15.2539C27.9453 14.9624 27.7094 14.7266 27.418 14.7266Z" fill="url(#paint1_linear_1486_14635)"></path><path d="M19.1812 17.9462C18.9206 17.8175 18.6054 17.9221 18.4736 18.1821L17.5647 20H16.8359C16.666 20 16.5074 20.0814 16.4085 20.2189C16.3086 20.3564 16.2818 20.5335 16.3354 20.6942L17.1501 23.1368C17.3654 23.7841 17.9689 24.2188 18.6507 24.2188H21.3493C22.0311 24.2188 22.6346 23.7841 22.8499 23.1373L23.6647 20.6942C23.7182 20.5335 23.6914 20.3564 23.5915 20.2188C23.4926 20.0814 23.334 20 23.1641 20H22.4353L21.5264 18.1821C21.3956 17.921 21.0794 17.8165 20.8188 17.9462C20.5582 18.0765 20.4532 18.3933 20.583 18.6538L21.2561 20H18.744L19.4171 18.6538C19.5468 18.3933 19.4418 18.0765 19.1812 17.9462ZM27.418 11.5625H12.582C11.7097 11.5625 11 12.2722 11 13.1445V14.1992C11 15.0716 11.7097 15.7812 12.582 15.7812H14.7266C15.1314 15.7812 15.5011 15.6283 15.7812 15.3775C16.0614 15.6283 16.4311 15.7812 16.8359 15.7812H18.9453C19.3501 15.7812 19.7198 15.6283 20 15.3775C20.2802 15.6283 20.6499 15.7812 21.0547 15.7812H23.1641C23.5689 15.7812 23.9386 15.6283 24.2188 15.3775C24.4989 15.6283 24.8686 15.7812 25.2734 15.7812H27.418C28.2903 15.7812 29 15.0716 29 14.1992V13.1445C29 12.2722 28.2903 11.5625 27.418 11.5625ZM28.4727 24.2188H24.2188C24.0787 24.2188 23.9448 24.2744 23.8459 24.3733L22.9457 25.2734H17.0543L16.1541 24.3733C16.0552 24.2744 15.9213 24.2188 15.7812 24.2188H11.5273C11.2359 24.2188 11 24.4546 11 24.7461V25.8008C11 27.2546 12.1824 28.4375 13.6367 28.4375H26.3633C27.8176 28.4375 29 27.2546 29 25.8008V24.7461C29 24.4546 28.7641 24.2188 28.4727 24.2188Z" fill="url(#paint2_linear_1486_14635)"></path></g><defs><linearGradient id="paint0_linear_1486_14635" x1="29.2547" y1="35.7179" x2="19.7299" y2="1.70085" gradientUnits="userSpaceOnUse"><stop stop-color="#C77FFF"></stop><stop offset="1" stop-color="#FF4EFF"></stop></linearGradient><linearGradient id="paint1_linear_1486_14635" x1="20" y1="26.3281" x2="20" y2="13.6719" gradientUnits="userSpaceOnUse"><stop stop-color="#FFBEF9"></stop><stop offset="1" stop-color="#FFF1FF"></stop></linearGradient><linearGradient id="paint2_linear_1486_14635" x1="20" y1="28.4375" x2="20" y2="11.5625" gradientUnits="userSpaceOnUse"><stop stop-color="#A93AFF"></stop><stop offset="1" stop-color="#FF81FF"></stop></linearGradient><clipPath id="clip0_1486_14635"><rect width="18" height="18" fill="white" transform="translate(11 11)"></rect></clipPath></defs></svg>