<svg xmlns="http://www.w3.org/2000/svg" width="22" height="22" viewBox="0 0 22 22" fill="none"><rect width="22" height="22" rx="11" fill="url(#paint0_linear_1486_14672)"></rect><g clip-path="url(#clip0_1486_14672)"><path d="M13.3203 6.05005H8.67963C8.19984 6.05005 7.80951 6.44038 7.80951 6.92017V15.0799C7.80951 15.5597 8.19984 15.95 8.67963 15.95H13.3203C13.8 15.95 14.1904 15.5597 14.1904 15.0799V6.92017C14.1904 6.44038 13.8 6.05005 13.3203 6.05005Z" fill="#DEFFF0"></path><path d="M12.9755 10.2504C12.921 10.1748 12.8334 10.1299 12.7402 10.1299H12.3435L11.8394 9.12183C11.7678 8.97855 11.5936 8.92047 11.4503 8.99213C11.307 9.06377 11.249 9.23798 11.3206 9.38126L11.695 10.13H10.3049L10.6793 9.38126C10.7509 9.23798 10.6929 9.06379 10.5496 8.99213C10.4064 8.92051 10.2321 8.97855 10.1605 9.12183L9.65641 10.1299H9.25971C9.16649 10.1299 9.07892 10.1748 9.02441 10.2504C8.9699 10.326 8.95507 10.4232 8.98454 10.5117L9.56462 12.2519C9.60412 12.3704 9.71496 12.4502 9.83979 12.4502H12.1601C12.2849 12.4502 12.3958 12.3704 12.4353 12.2519L13.0153 10.5117C13.0448 10.4232 13.03 10.326 12.9755 10.2504ZM11.58 14.2098H10.4199C10.2597 14.2098 10.1298 14.3397 10.1298 14.4999C10.1298 14.66 10.2597 14.7899 10.4199 14.7899H11.58C11.7402 14.7899 11.8701 14.66 11.8701 14.4999C11.8701 14.3397 11.7402 14.2098 11.58 14.2098ZM10.9999 7.79028C11.1601 7.79028 11.29 7.66042 11.29 7.50024C11.29 7.34007 11.1601 7.21021 10.9999 7.21021C10.8398 7.21021 10.7099 7.34007 10.7099 7.50024C10.7099 7.66042 10.8398 7.79028 10.9999 7.79028Z" fill="url(#paint1_linear_1486_14672)"></path></g><defs><linearGradient id="paint0_linear_1486_14672" x1="6.73333" y1="-0.785714" x2="24.0849" y2="6.47531" gradientUnits="userSpaceOnUse"><stop stop-color="#0AD174"></stop><stop offset="0.875757" stop-color="#039D55"></stop></linearGradient><linearGradient id="paint1_linear_1486_14672" x1="10.2124" y1="6.9395" x2="13.7958" y2="7.7428" gradientUnits="userSpaceOnUse"><stop stop-color="#0AD174"></stop><stop offset="0.875757" stop-color="#039D55"></stop></linearGradient><clipPath id="clip0_1486_14672"><rect width="9.9" height="9.9" fill="white" transform="translate(6.04999 6.05005)"></rect></clipPath></defs></svg>