<svg xmlns="http://www.w3.org/2000/svg" width="30" height="30" viewBox="0 0 30 30" fill="none"><g clip-path="url(#clip0_2526_382)"><path d="M15 30C23.2843 30 30 23.2843 30 15C30 6.71573 23.2843 0 15 0C6.71573 0 0 6.71573 0 15C0 23.2843 6.71573 30 15 30Z" fill="url(#paint0_linear_2526_382)"></path><path d="M19.2796 14.6465C19.2796 14.1879 18.9095 13.8179 18.451 13.8179C17.9924 13.8179 17.6224 14.1879 17.6224 14.6465V15.4026H15.4021V16.8104C16.279 16.8346 16.9869 17.5586 16.9869 18.4515C16.9869 19.3445 16.279 20.0604 15.4021 20.0926V21.5004H21.4998V15.4026H19.2796V14.6465Z" fill="white"></path><path d="M18.451 8.5C16.7697 8.5 15.4021 9.86757 15.4021 11.5489C15.4021 12.7314 16.0778 13.7611 17.0754 14.2679C17.2362 13.6565 17.7913 13.2141 18.451 13.2141C19.1106 13.2141 19.6657 13.6565 19.8266 14.2679C20.8241 13.7611 21.4998 12.7314 21.4998 11.5489C21.4998 9.86757 20.1323 8.5 18.451 8.5ZM20.1564 10.7444L18.2096 12.6751C18.089 12.7877 17.912 12.7958 17.7833 12.6831L16.7536 11.7419C16.6329 11.6293 16.6249 11.4362 16.7294 11.3156C16.8501 11.1949 17.0351 11.1869 17.1558 11.2995L17.9763 12.0476L19.722 10.31C19.8427 10.1893 20.0357 10.1893 20.1564 10.31C20.2771 10.4307 20.2771 10.6238 20.1564 10.7444Z" fill="white"></path><path d="M10.7203 15.3459C10.7203 15.8044 11.0903 16.1745 11.5489 16.1745C12.0074 16.1745 12.3775 15.8044 12.3775 15.3459V14.5977H14.5977V12.3292H13.8416C13.383 12.3292 13.013 11.9591 13.013 11.5006C13.013 11.0421 13.383 10.672 13.8416 10.672H14.5977V8.5H8.5V14.5977H10.7203V15.3459Z" fill="white"></path><path d="M16.1825 18.4517C16.1825 17.9932 15.8125 17.6231 15.3539 17.6231H14.5977V15.4028H13.19C13.1578 16.2797 12.4338 16.9796 11.5489 16.9796C10.664 16.9796 9.94801 16.2797 9.90779 15.4028H8.5V21.5006H14.5977V19.2803H15.3539C15.8125 19.2803 16.1825 18.9102 16.1825 18.4517Z" fill="white"></path></g><defs><linearGradient id="paint0_linear_2526_382" x1="15" y1="0" x2="15" y2="30" gradientUnits="userSpaceOnUse"><stop stop-color="#66A9FF"></stop><stop offset="1" stop-color="#005ED9"></stop></linearGradient><clipPath id="clip0_2526_382"><rect width="30" height="30" fill="white"></rect></clipPath></defs></svg>