<svg xmlns="http://www.w3.org/2000/svg" width="30" height="31" viewBox="0 0 30 31" fill="none"><circle cx="15" cy="15.332" r="15" fill="url(#paint0_linear_2104_2905)"></circle><g clip-path="url(#clip0_2104_2905)"><path d="M12.1371 18.1508C11.7549 17.9316 11.4967 17.5198 11.4967 17.0484C11.4967 15.1027 13.0796 13.5198 15.0253 13.5198H16.4794L16.5479 12.3906H8.30859L8.90041 22.1551C8.91397 22.3786 9.09911 22.553 9.32306 22.553H11.9212C11.6548 22.1989 11.4967 21.7589 11.4967 21.2827C11.4967 20.7337 11.8469 20.2649 12.3356 20.0879C12.1624 19.8223 12.0613 19.5056 12.0613 19.1655C12.0613 18.8251 12.1626 18.5081 12.3362 18.2422C12.1981 18.2112 12.1215 18.1806 12.1371 18.1508Z" fill="white"></path><path d="M12.4307 11.5456C12.4311 11.5456 12.4314 11.5455 12.4317 11.5455H16.6655C16.8994 11.5455 17.0889 11.3559 17.0889 11.122C17.0889 10.8882 16.8994 10.6986 16.6655 10.6986H13.2129L14.3543 8.94843H15.8186C16.0525 8.94843 16.2421 8.75887 16.2421 8.52499C16.2421 8.29111 16.0525 8.10156 15.8186 8.10156H14.1249C13.9818 8.10156 13.8484 8.17379 13.7703 8.29365L12.2018 10.6986H8.19687C7.96299 10.6986 7.77344 10.8882 7.77344 11.122C7.77344 11.3559 7.96299 11.5455 8.19687 11.5455H12.4292C12.4297 11.5455 12.4303 11.5456 12.4307 11.5456Z" fill="white"></path><path d="M12.3477 17.0489C12.3477 17.2828 12.5372 17.4724 12.7711 17.4724H21.8043C22.0382 17.4724 22.2277 17.2828 22.2277 17.0489C22.2277 15.5702 21.0247 14.3672 19.546 14.3672H15.0294C13.5507 14.3672 12.3477 15.5702 12.3477 17.0489Z" fill="white"></path><path d="M13.7531 18.3242C13.2854 18.3242 12.9062 18.7033 12.9062 19.1711C12.9062 19.6388 13.2854 20.0179 13.7531 20.0179H20.8103C21.2781 20.0179 21.6572 19.6388 21.6572 19.1711C21.6572 18.7033 21.2781 18.3242 20.8103 18.3242H13.7531Z" fill="white"></path><path d="M21.8043 20.8594H12.7711C12.5372 20.8594 12.3477 21.0489 12.3477 21.2828C12.3477 21.9832 12.9175 22.5531 13.618 22.5531H20.9574C21.6579 22.5531 22.2277 21.9832 22.2277 21.2828C22.2277 21.0489 22.0382 20.8594 21.8043 20.8594Z" fill="white"></path></g><defs><linearGradient id="paint0_linear_2104_2905" x1="15" y1="0.332031" x2="15" y2="30.332" gradientUnits="userSpaceOnUse"><stop stop-color="#FFE655"></stop><stop offset="1" stop-color="#FF7700"></stop></linearGradient><clipPath id="clip0_2104_2905"><rect width="14.4531" height="14.4531" fill="white" transform="translate(7.77344 8.10156)"></rect></clipPath></defs></svg>