<svg xmlns="http://www.w3.org/2000/svg" width="40" height="40" viewBox="0 0 40 40" fill="none"><rect width="40" height="40" rx="20" fill="url(#paint0_linear_1486_14719)"></rect><g clip-path="url(#clip0_1486_14719)"><path d="M28.5409 18.0415L27.2285 17.779C27.0842 17.3005 26.8928 16.8384 26.6571 16.3989L27.3993 15.2855C27.5388 15.0764 27.5112 14.7979 27.3335 14.6201L25.3447 12.6314C25.167 12.4536 24.8885 12.4261 24.6793 12.5655L23.5659 13.3077C23.1265 13.072 22.6644 12.8807 22.1858 12.7363L21.9233 11.4239C21.8741 11.1774 21.6576 11 21.4062 11H18.5938C18.3424 11 18.1259 11.1774 18.0766 11.4239L17.8142 12.7363C17.3356 12.8807 16.8735 13.0721 16.4341 13.3077L15.3206 12.5655C15.1115 12.4261 14.833 12.4536 14.6552 12.6314L12.6665 14.6201C12.4887 14.7979 12.4612 15.0764 12.6006 15.2855L13.3429 16.3989C13.1072 16.8384 12.9158 17.3005 12.7714 17.779L11.4591 18.0415C11.2126 18.0908 11.0352 18.3072 11.0352 18.5586V21.3711C11.0352 21.6225 11.2126 21.8389 11.4591 21.8882L12.7715 22.1507C12.9158 22.6292 13.1072 23.0913 13.3429 23.5307L12.6007 24.6441C12.4612 24.8533 12.4888 25.1318 12.6665 25.3095L14.6553 27.2983C14.8331 27.476 15.1115 27.5036 15.3207 27.3642L16.4113 26.6372V23.3267C15.5854 22.4476 15.0781 21.2665 15.0781 19.9648C15.0781 17.2466 17.2817 15.043 20 15.043C22.7183 15.043 24.9219 17.2466 24.9219 19.9648C24.9219 21.2665 24.4146 22.4476 23.5887 23.3267V26.6372L24.6793 27.3642C24.7686 27.4237 24.8704 27.4528 24.9717 27.4528C25.1077 27.4528 25.2428 27.4002 25.3447 27.2983L27.3334 25.3096C27.5112 25.1318 27.5388 24.8533 27.3993 24.6442L26.657 23.5308C26.8928 23.0913 27.0841 22.6292 27.2285 22.1507L28.5409 21.8882C28.7874 21.8389 28.9648 21.6225 28.9648 21.3711V18.5586C28.9648 18.3072 28.7874 18.0908 28.5409 18.0415Z" fill="white"></path><path d="M21.6706 17.0754C21.4052 16.9216 21.0685 17.0847 21.0246 17.3883L20.7031 19.6133H19.2969L18.9754 17.3883C18.9315 17.0847 18.5948 16.9216 18.3294 17.0754C17.2998 17.6718 16.6602 18.779 16.6602 19.9648C16.6602 21.2498 17.3798 22.3994 18.5382 22.9648L18.5938 22.9919V28.4726C18.5938 28.7639 18.8299 29 19.1211 29H20.8789C21.1701 29 21.4062 28.7639 21.4062 28.4726V22.9919L21.4618 22.9648C22.6202 22.3994 23.3398 21.2498 23.3398 19.9648C23.3398 18.779 22.7002 17.6718 21.6706 17.0754Z" fill="white"></path></g><defs><linearGradient id="paint0_linear_1486_14719" x1="29.2547" y1="35.7179" x2="19.7299" y2="1.70085" gradientUnits="userSpaceOnUse"><stop stop-color="#C77FFF"></stop><stop offset="1" stop-color="#FF4EFF"></stop></linearGradient><clipPath id="clip0_1486_14719"><rect width="18" height="18" fill="white" transform="translate(11 11)"></rect></clipPath></defs></svg>