<svg xmlns="http://www.w3.org/2000/svg" width="40" height="40" viewBox="0 0 40 40" fill="none"><rect width="40" height="40" rx="20" fill="url(#paint0_linear_1486_14752)"></rect><path d="M21.974 14.2408C22.3993 14.5061 22.7586 14.8648 23.0246 15.2897C23.2906 15.7146 23.4563 16.1945 23.5091 16.693C23.861 16.8585 24.2451 16.9445 24.6339 16.9447C25.34 16.9444 26.0171 16.6637 26.5164 16.1643C27.0155 15.6648 27.2959 14.9875 27.2958 14.2814C27.2959 13.9317 27.2272 13.5855 27.0934 13.2623C26.9597 12.9392 26.7637 12.6456 26.5165 12.3983C26.2694 12.1509 25.9759 11.9547 25.6529 11.8207C25.3299 11.6868 24.9836 11.6178 24.6339 11.6177C23.9351 11.6184 23.2644 11.8938 22.7668 12.3845C22.2691 12.8753 21.9844 13.542 21.974 14.2408ZM20.2307 19.6949C20.9368 19.6945 21.6138 19.4136 22.1129 18.9141C22.6121 18.4146 22.8922 17.7373 22.892 17.0311C22.9003 16.6763 22.8375 16.3235 22.7074 15.9933C22.5773 15.6631 22.3825 15.3623 22.1345 15.1085C21.8866 14.8546 21.5903 14.6529 21.2632 14.5152C20.9361 14.3775 20.5848 14.3066 20.2299 14.3066C19.8751 14.3066 19.5238 14.3775 19.1967 14.5152C18.8696 14.6529 18.5734 14.8546 18.3254 15.1085C18.0773 15.3623 17.8826 15.6631 17.7525 15.9933C17.6224 16.3235 17.5596 16.6763 17.5679 17.0311C17.5678 17.7374 17.8482 18.4148 18.3474 18.9143C18.8467 19.4139 19.5244 19.6946 20.2307 19.6949ZM21.3593 19.8764H19.1006C17.2216 19.8764 15.6927 21.4067 15.6927 23.2871V26.0511L15.6994 26.0941L15.89 26.1538C17.6835 26.7156 19.2415 26.9018 20.5239 26.9018C23.0286 26.9018 24.4806 26.1873 24.5704 26.1415L24.748 26.0517H24.7672V23.2871C24.7676 21.4067 23.2388 19.8764 21.3593 19.8764ZM25.763 17.1267H23.522C23.4993 17.9925 23.1353 18.8143 22.5095 19.4131C24.1802 19.9098 25.4024 21.4602 25.4024 23.2914V24.143C27.6153 24.0618 28.8906 23.4343 28.9746 23.3922L29.1523 23.3015H29.1714V20.5369C29.1714 18.6565 27.642 17.1267 25.763 17.1267ZM15.5594 16.9452C16.0801 16.9452 16.5649 16.7933 16.9751 16.5344C17.1038 15.7008 17.547 14.9482 18.2136 14.4314C18.216 14.3817 18.2208 14.3325 18.2208 14.2819C18.221 13.5758 17.9408 12.8984 17.4417 12.3989C16.9426 11.8994 16.2656 11.6185 15.5594 11.6182C15.2097 11.6182 14.8635 11.6872 14.5404 11.8211C14.2174 11.955 13.9239 12.1512 13.6767 12.3986C13.4295 12.646 13.2335 12.9396 13.0998 13.2627C12.9661 13.5859 12.8974 13.9322 12.8976 14.2819C12.8975 14.6316 12.9662 14.9778 13.1 15.3009C13.2337 15.624 13.4297 15.9176 13.6769 16.1649C13.9241 16.4122 14.2175 16.6084 14.5405 16.7423C14.8636 16.8762 15.2098 16.9451 15.5594 16.9452ZM17.95 19.4131C17.3277 18.8172 16.9644 18.0007 16.9384 17.1396C16.8553 17.1333 16.7731 17.1267 16.6881 17.1267H14.4298C12.5504 17.1267 11.0215 18.6565 11.0215 20.5369V23.3015L11.0286 23.3445L11.2187 23.4042C12.6574 23.8531 13.9412 24.0609 15.057 24.1259V23.2909C15.057 21.4602 16.2792 19.9108 17.95 19.4131Z" fill="white"></path><defs><linearGradient id="paint0_linear_1486_14752" x1="20" y1="40" x2="20" y2="0" gradientUnits="userSpaceOnUse"><stop stop-color="#FD5900"></stop><stop offset="1" stop-color="#FFDE00"></stop></linearGradient></defs></svg>