<svg xmlns="http://www.w3.org/2000/svg" width="40" height="40" viewBox="0 0 40 40" fill="none"><rect width="40" height="40" rx="20" fill="url(#paint0_linear_1486_14711)"></rect><g clip-path="url(#clip0_1486_14711)"><path d="M20 16.0625C19.2212 16.0625 18.46 16.2934 17.8124 16.7261C17.1649 17.1587 16.6602 17.7737 16.3622 18.4932C16.0642 19.2127 15.9862 20.0044 16.1382 20.7682C16.2901 21.532 16.6651 22.2336 17.2158 22.7842C17.7664 23.3349 18.468 23.7099 19.2318 23.8618C19.9956 24.0138 20.7873 23.9358 21.5068 23.6378C22.2263 23.3398 22.8413 22.8351 23.2739 22.1876C23.7066 21.54 23.9375 20.7788 23.9375 20C23.9363 18.9561 23.5211 17.9552 22.783 17.217C22.0448 16.4789 21.0439 16.0637 20 16.0625ZM22.0852 19.2727L19.8352 21.5227C19.783 21.5749 19.721 21.6164 19.6527 21.6447C19.5845 21.6729 19.5114 21.6875 19.4375 21.6875C19.3636 21.6875 19.2905 21.6729 19.2223 21.6447C19.154 21.6164 19.092 21.5749 19.0398 21.5227L17.9148 20.3977C17.8124 20.2916 17.7557 20.1495 17.7569 20.002C17.7582 19.8545 17.8174 19.7135 17.9217 19.6092C18.026 19.5049 18.167 19.4457 18.3145 19.4444C18.462 19.4432 18.6041 19.4998 18.7102 19.6023L19.4375 20.3296L21.2898 18.4773C21.3959 18.3748 21.538 18.3182 21.6855 18.3194C21.833 18.3207 21.974 18.3799 22.0783 18.4842C22.1826 18.5885 22.2418 18.7295 22.2431 18.877C22.2444 19.0245 22.1877 19.1666 22.0852 19.2727Z" fill="white"></path><path d="M28.1475 18.2225L27.0098 17.938C26.8631 17.4393 26.6632 16.9578 26.4136 16.5018L27.0179 15.4949C27.1472 15.2798 27.2008 15.0277 27.1701 14.7786C27.1394 14.5295 27.0263 14.2978 26.8487 14.1205L25.8788 13.1511C25.7015 12.9734 25.4699 12.8602 25.2208 12.8295C24.9717 12.7989 24.7194 12.8525 24.5044 12.9819L23.4981 13.5859C23.042 13.3364 22.5604 13.1368 22.0616 12.9905L21.7771 11.852C21.7165 11.6084 21.5761 11.3922 21.3783 11.2377C21.1804 11.0833 20.9365 10.9996 20.6856 11H19.3142C19.0633 10.9997 18.8195 11.0835 18.6217 11.2379C18.424 11.3923 18.2836 11.6085 18.223 11.852L17.9384 12.9905C17.4397 13.1369 16.9581 13.3365 16.502 13.5859L15.4951 12.9816C15.28 12.8524 15.0279 12.7989 14.7788 12.8296C14.5298 12.8603 14.2982 12.9735 14.121 13.1511L13.1508 14.1212C12.9734 14.2986 12.8603 14.5302 12.8298 14.7792C12.7992 15.0282 12.8528 15.2803 12.9821 15.4953L13.5861 16.5022C13.3367 16.9582 13.1371 17.4397 12.9906 17.9384L11.8521 18.2229C11.6086 18.2835 11.3924 18.4239 11.2379 18.6217C11.0835 18.8195 10.9997 19.0633 11 19.3142V20.6858C10.9996 20.9368 11.0833 21.1807 11.2378 21.3785C11.3922 21.5764 11.6084 21.7169 11.852 21.7775L12.9905 22.062C13.1369 22.5607 13.3365 23.0422 13.5859 23.4982L12.9816 24.5051C12.8525 24.7202 12.799 24.9724 12.8297 25.2214C12.8604 25.4704 12.9736 25.702 13.1511 25.8793L14.1212 26.8493C14.2985 27.0269 14.5301 27.14 14.7792 27.1706C15.0282 27.2012 15.2803 27.1475 15.4953 27.0181L16.5022 26.4141C16.9582 26.6635 17.4397 26.8631 17.9384 27.0095L18.2229 28.148C18.2835 28.3915 18.4239 28.6077 18.6217 28.7621C18.8195 28.9165 19.0633 29.0003 19.3142 29H20.6856C20.9365 29.0003 21.1803 28.9166 21.3781 28.7622C21.5759 28.6078 21.7163 28.3916 21.7768 28.148L22.0613 27.0095C22.5602 26.8632 23.0418 26.6636 23.4979 26.4141L24.5047 27.0184C24.7198 27.1476 24.9719 27.2011 25.2209 27.1704C25.4698 27.1397 25.7014 27.0265 25.8786 26.8489L26.8492 25.8788C27.0267 25.7014 27.1397 25.4698 27.1702 25.2208C27.2008 24.9718 27.1472 24.7197 27.018 24.5047L26.4137 23.4981C26.6633 23.0421 26.8632 22.5606 27.0099 22.0618L28.1476 21.7773C28.3912 21.7168 28.6075 21.5764 28.762 21.3785C28.9165 21.1807 29.0003 20.9368 29 20.6858V19.3142C29.0003 19.0631 28.9165 18.8192 28.762 18.6213C28.6075 18.4235 28.3911 18.2831 28.1475 18.2225ZM20 25.0625C18.9987 25.0625 18.02 24.7656 17.1874 24.2093C16.3549 23.653 15.706 22.8624 15.3229 21.9373C14.9397 21.0123 14.8394 19.9944 15.0348 19.0124C15.2301 18.0303 15.7123 17.1283 16.4203 16.4203C17.1283 15.7123 18.0303 15.2301 19.0124 15.0348C19.9944 14.8394 21.0123 14.9397 21.9373 15.3229C22.8624 15.706 23.653 16.3549 24.2093 17.1874C24.7656 18.02 25.0625 18.9987 25.0625 20C25.061 21.3422 24.5272 22.629 23.5781 23.5781C22.629 24.5272 21.3422 25.061 20 25.0625Z" fill="white"></path></g><defs><linearGradient id="paint0_linear_1486_14711" x1="12.2424" y1="-1.42857" x2="43.7908" y2="11.7733" gradientUnits="userSpaceOnUse"><stop stop-color="#0AD174"></stop><stop offset="0.875757" stop-color="#039D55"></stop></linearGradient><clipPath id="clip0_1486_14711"><rect width="18" height="18" fill="white" transform="translate(11 11)"></rect></clipPath></defs></svg>