<svg xmlns="http://www.w3.org/2000/svg" width="40" height="40" viewBox="0 0 40 40" fill="none"><rect width="40" height="40" rx="20" fill="url(#paint0_linear_1486_14760)"></rect><path d="M15.7812 18.3828C14.9089 18.3828 14.1992 19.0925 14.1992 19.9648V24.2539C14.1992 25.1263 14.9089 25.8359 15.7812 25.8359C16.6536 25.8359 17.3633 25.1263 17.3633 24.2539V19.9648C17.3633 19.0925 16.6536 18.3828 15.7812 18.3828Z" fill="white"></path><path d="M13.1445 19.9649C13.1445 19.8128 13.1646 19.6658 13.1895 19.5208C12.5539 19.7262 12.0898 20.3165 12.0898 21.0196V23.1993C12.0898 23.9024 12.5539 24.4927 13.1895 24.6981C13.1646 24.5531 13.1445 24.4061 13.1445 24.254V19.9649Z" fill="white"></path><path d="M24.2188 18.3828C23.3464 18.3828 22.6367 19.0925 22.6367 19.9648V24.2539C22.6367 25.1263 23.3464 25.8359 24.2188 25.8359C24.3773 25.8359 24.5275 25.8054 24.672 25.7618C24.4757 26.4125 23.8779 26.8906 23.1641 26.8906H21.4849C21.2665 26.2781 20.6866 25.8359 20 25.8359C19.1276 25.8359 18.418 26.5456 18.418 27.418C18.418 28.2903 19.1276 29 20 29C20.6866 29 21.2665 28.5578 21.4849 27.9453H23.1641C24.6179 27.9453 25.8008 26.7624 25.8008 25.3086V24.2539V19.9648C25.8008 19.0925 25.0911 18.3828 24.2188 18.3828Z" fill="white"></path><path d="M26.8105 19.5208C26.8354 19.6658 26.8555 19.8128 26.8555 19.9649V24.254C26.8555 24.4061 26.8354 24.5531 26.8105 24.6981C27.4461 24.4927 27.9102 23.9024 27.9102 23.1993V21.0196C27.9102 20.3165 27.4461 19.7262 26.8105 19.5208Z" fill="white"></path><path d="M20 11C15.6381 11 12.0898 14.5482 12.0898 18.9102V18.9236C12.404 18.6858 12.7676 18.5117 13.1687 18.4338C13.4152 14.876 16.3808 12.0547 20 12.0547C23.6192 12.0547 26.5848 14.876 26.8313 18.4337C27.2324 18.5117 27.5959 18.6858 27.9102 18.9236V18.9102C27.9102 14.5482 24.3619 11 20 11Z" fill="white"></path><defs><linearGradient id="paint0_linear_1486_14760" x1="20.5" y1="40.5" x2="21.5" y2="-1.12697e-06" gradientUnits="userSpaceOnUse"><stop stop-color="#7D22FF"></stop><stop offset="1" stop-color="#0079E3"></stop></linearGradient></defs></svg>