<svg xmlns="http://www.w3.org/2000/svg" width="40" height="40" viewBox="0 0 40 40" fill="none"><rect width="40" height="40" rx="20" fill="url(#paint0_linear_1486_14787)"></rect><path fill-rule="evenodd" clip-rule="evenodd" d="M17.6543 14.7645H27.647L21.7119 18.8332L17.6747 16.0656C17.8284 15.6541 17.8297 15.1888 17.6543 14.7645ZM15.0409 17.126L16.4975 16.2392C16.9297 15.976 17.0732 15.4145 16.8201 14.9762L15.5052 12.6986C15.3703 12.4649 15.1661 12.3146 14.9029 12.2552C14.6397 12.1957 14.3908 12.2437 14.1685 12.3968L11.7705 14.0478C10.629 18.0699 15.7586 26.7774 19.6927 27.7695L22.3216 26.5183C22.5652 26.4023 22.7313 26.2107 22.8114 25.9531C22.8915 25.6954 22.8634 25.4435 22.7285 25.2098L21.4136 22.9322C21.1605 22.4939 20.6025 22.3374 20.1585 22.5802L18.6622 23.3981C17.1824 22.0821 15.4408 19.0655 15.0409 17.126ZM28.3727 15.2878L21.9492 19.6914C21.7989 19.794 21.6058 19.7859 21.4661 19.6856L17.2016 16.7622C17.1208 16.835 17.0324 16.9013 16.9362 16.9599L16.015 17.5208C16.499 19.0827 17.6966 21.157 18.8073 22.3572L19.7537 21.8398C20.5993 21.3776 21.6624 21.6758 22.1442 22.5103L22.9597 23.9228H27.7096C28.0846 23.9228 28.3915 23.6159 28.3915 23.2409V15.4464C28.3915 15.3918 28.385 15.3387 28.3727 15.2878Z" fill="white"></path><defs><linearGradient id="paint0_linear_1486_14787" x1="27.1698" y1="-5.21306e-08" x2="28.5053" y2="51.1549" gradientUnits="userSpaceOnUse"><stop offset="0.00520833" stop-color="#2486F2"></stop><stop offset="0.895833" stop-color="#80BCFF"></stop></linearGradient></defs></svg>