<svg xmlns="http://www.w3.org/2000/svg" width="40" height="40" viewBox="0 0 40 40" fill="none"><rect width="40" height="40" rx="20" fill="url(#paint0_linear_1486_14738)"></rect><path d="M14.7266 29H25.2734C26.1458 29 26.8555 28.2903 26.8555 27.418V16.2734H23.1641C22.2917 16.2734 21.582 15.5638 21.582 14.6914V11H14.7266C13.8542 11 13.1445 11.7097 13.1445 12.582V27.418C13.1445 28.2903 13.8542 29 14.7266 29ZM16.8359 18.418H23.1641C23.4555 18.418 23.6914 18.6538 23.6914 18.9453C23.6914 19.2368 23.4555 19.4727 23.1641 19.4727H16.8359C16.5445 19.4727 16.3086 19.2368 16.3086 18.9453C16.3086 18.6538 16.5445 18.418 16.8359 18.418ZM16.8359 20.5273H23.1641C23.4555 20.5273 23.6914 20.7632 23.6914 21.0547C23.6914 21.3462 23.4555 21.582 23.1641 21.582H16.8359C16.5445 21.582 16.3086 21.3462 16.3086 21.0547C16.3086 20.7632 16.5445 20.5273 16.8359 20.5273ZM16.8359 22.6367H23.1641C23.4555 22.6367 23.6914 22.8726 23.6914 23.1641C23.6914 23.4555 23.4555 23.6914 23.1641 23.6914H16.8359C16.5445 23.6914 16.3086 23.4555 16.3086 23.1641C16.3086 22.8726 16.5445 22.6367 16.8359 22.6367ZM16.8359 24.7461H21.0547C21.3462 24.7461 21.582 24.982 21.582 25.2734C21.582 25.5649 21.3462 25.8008 21.0547 25.8008H16.8359C16.5445 25.8008 16.3086 25.5649 16.3086 25.2734C16.3086 24.982 16.5445 24.7461 16.8359 24.7461Z" fill="white"></path><path d="M23.1641 15.2188H26.5465L22.6367 11.3091V14.6915C22.6367 14.9825 22.8731 15.2188 23.1641 15.2188Z" fill="white"></path><defs><linearGradient id="paint0_linear_1486_14738" x1="20" y1="0" x2="20" y2="40" gradientUnits="userSpaceOnUse"><stop stop-color="#5ABEFF"></stop><stop offset="1" stop-color="#0088FF"></stop></linearGradient></defs></svg>