<svg xmlns="http://www.w3.org/2000/svg" width="31" height="31" viewBox="0 0 31 31" fill="none"><circle cx="15.3853" cy="15.3853" r="15" fill="url(#paint0_linear_1987_812)"></circle><g clip-path="url(#clip0_1987_812)"><path fill-rule="evenodd" clip-rule="evenodd" d="M10.4208 15.6963L11.2857 21.6677C11.3031 21.8301 11.4418 21.9496 11.6045 21.9496H18.9188C19.0815 21.9496 19.2201 21.8302 19.2375 21.6677L20.1025 15.6963C20.1145 15.5837 20.0764 15.4807 19.99 15.408C19.9035 15.3354 19.7965 15.3182 19.6877 15.3475L18.568 15.6491C18.4689 15.6758 18.3778 15.6799 18.2799 15.6491L16.9868 15.2424C16.8889 15.2117 16.7966 15.2117 16.6987 15.2424L15.4057 15.6491C15.3078 15.6799 15.2155 15.6799 15.1176 15.6491L13.8245 15.2424C13.7266 15.2117 13.6343 15.2117 13.5364 15.2424L12.2434 15.6491C12.1455 15.6799 12.0544 15.6758 11.9553 15.6491L10.8356 15.3475C10.7267 15.3182 10.6197 15.3354 10.5333 15.408C10.4468 15.4807 10.4088 15.5837 10.4208 15.6963ZM12.8892 16.7202C12.7978 16.7202 12.7237 16.7946 12.7237 16.8864C12.7237 16.9781 12.7978 17.0525 12.8892 17.0525H17.6341C17.7255 17.0525 17.7996 16.9781 17.7996 16.8864C17.7996 16.7946 17.7255 16.7202 17.6341 16.7202H12.8892ZM15.2617 18.2157C16.5234 18.2157 17.5463 18.8535 17.5463 19.6402C17.5463 20.4269 16.5234 21.0647 15.2617 21.0647C13.9999 21.0647 12.977 20.4269 12.977 19.6402C12.977 18.8535 13.9999 18.2157 15.2617 18.2157Z" fill="white"></path><path fill-rule="evenodd" clip-rule="evenodd" d="M10.8793 15.0166C10.6814 14.5832 10.5072 14.0996 10.3689 13.5815C9.78123 11.3788 10.0668 9.38817 11.0068 9.13521C11.9468 8.88228 13.1853 10.4628 13.773 12.6655C13.9934 13.4916 14.0909 14.2879 14.0772 14.9738L13.9231 14.9253C13.7609 14.8743 13.5993 14.8743 13.4372 14.9253L12.1441 15.332C12.1081 15.3433 12.0767 15.3379 12.0406 15.3282L10.921 15.0266C10.9071 15.0228 10.8932 15.0195 10.8793 15.0166ZM13.6454 14.3289C13.627 14.088 13.5963 13.8467 13.556 13.6087L12.7296 13.8311C12.5394 13.8823 12.4255 14.0804 12.4765 14.2713C12.5274 14.4623 12.7247 14.5766 12.9148 14.5255L13.6454 14.3289ZM13.331 12.6189C13.2668 12.394 13.1922 12.164 13.1069 11.935L12.2828 12.1567C12.0927 12.2079 11.9788 12.406 12.0297 12.5969C12.0807 12.7879 12.2779 12.9023 12.4681 12.8511L13.331 12.6189ZM12.6873 10.9975C12.5669 10.7727 12.4346 10.558 12.2905 10.3601L11.8361 10.4824C11.6459 10.5335 11.532 10.7316 11.583 10.9225C11.6339 11.1135 11.8312 11.2279 12.0213 11.1767L12.6873 10.9975Z" fill="white"></path><path fill-rule="evenodd" clip-rule="evenodd" d="M20.3738 13.1382C20.5847 12.7711 20.4482 12.3886 20.1461 12.0712C20.0398 11.9596 19.913 11.856 19.7736 11.764C19.586 11.6402 19.3756 11.5373 19.1617 11.464C18.9792 11.4015 18.7941 11.3605 18.6186 11.3463C18.1702 11.31 17.7834 11.4486 17.6576 11.8506L16.9402 14.1426L16.7033 14.8995C16.8305 14.8766 16.9575 14.8852 17.0849 14.9253L18.378 15.3319C18.414 15.3433 18.4454 15.3378 18.4815 15.3281L19.232 15.126L20.3738 13.1382Z" fill="white"></path><path fill-rule="evenodd" clip-rule="evenodd" d="M16.2368 11.0416C16.0538 11.0416 15.9045 10.8916 15.9045 10.7078V10.383H14.6177V10.7078C14.6177 10.8916 14.4684 11.0416 14.2854 11.0416H13.9972C13.8426 11.0416 13.7073 11.1271 13.6358 11.2533C13.8243 11.6913 13.9761 12.1436 14.0924 12.5794C14.3041 13.3727 14.4354 14.2452 14.4054 15.077L15.2159 15.3319C15.2493 15.3424 15.2729 15.3424 15.3063 15.3319L16.3213 15.0127L16.6248 14.0429L16.9405 13.0344V11.4588C16.9405 11.229 16.7538 11.0416 16.525 11.0416H16.2368Z" fill="white"></path><path fill-rule="evenodd" clip-rule="evenodd" d="M16.2409 9.87239V9.28706C16.2409 9.18892 16.161 9.10863 16.0633 9.10863H14.4598C14.3621 9.10863 14.2822 9.18892 14.2822 9.28706V9.87239C14.2822 9.97052 14.3621 10.0508 14.4598 10.0508H14.6182H15.9049H16.0633C16.161 10.0508 16.2409 9.97052 16.2409 9.87239Z" fill="white"></path><path fill-rule="evenodd" clip-rule="evenodd" d="M20.0885 11.2L20.5403 10.3906C20.7965 9.93147 19.8227 9.49418 19.6617 9.97407L19.3269 10.9717L19.2674 11.1491L19.2686 11.1495C19.5017 11.2294 19.7288 11.3392 19.9359 11.4735L20.0885 11.2Z" fill="white"></path><path fill-rule="evenodd" clip-rule="evenodd" d="M19.3145 9.96925L19.3136 9.90056C19.3069 9.37433 18.2459 9.48459 18.3453 9.98103L18.5515 11.0099C18.5828 11.0109 18.6141 11.0126 18.6455 11.0152C18.747 11.0234 18.8483 11.0388 18.9484 11.0602L19.3145 9.96925Z" fill="white"></path><path fill-rule="evenodd" clip-rule="evenodd" d="M21.3703 11.4153C21.8151 11.1769 21.2255 10.2842 20.8167 10.6135L20.7772 10.6453L20.2042 11.672C20.2675 11.7254 20.3281 11.7819 20.3851 11.8418C20.4063 11.8641 20.427 11.8869 20.447 11.9101L21.3703 11.4153Z" fill="white"></path><rect x="11.7341" y="17.7399" width="7.1094" height="3.23501" fill="white"></rect></g><defs><linearGradient id="paint0_linear_1987_812" x1="15.3853" y1="0.385277" x2="15.3853" y2="30.3853" gradientUnits="userSpaceOnUse"><stop stop-color="#00FF7F"></stop><stop offset="1" stop-color="#009B4D"></stop></linearGradient><clipPath id="clip0_1987_812"><rect width="12.0755" height="13.585" fill="white" transform="translate(9.70505 8.59293)"></rect></clipPath></defs></svg>