<svg xmlns="http://www.w3.org/2000/svg" width="164" height="49" viewBox="0 0 164 49" fill="none"><g clip-path="url(#clip0_1139_6805)"><path d="M122.802 16.9478V32.7933H120.176V21.9253L115.283 32.7933H113.463L108.54 21.9547V32.7933H105.914V16.9478H108.749L114.388 29.3768L119.997 16.9478H122.802ZM125.397 26.461C125.397 25.1945 125.666 24.0753 126.173 23.1034C126.71 22.1314 127.426 21.3657 128.351 20.8355C129.276 20.2759 130.291 20.0108 131.394 20.0108C132.409 20.0108 133.274 20.217 133.99 20.5999C134.736 20.9828 135.333 21.454 135.78 22.0431V20.217H138.436V32.7933H135.78V30.9378C135.333 31.5269 134.736 32.0276 133.96 32.4105C133.185 32.7933 132.319 32.9995 131.335 32.9995C130.231 32.9995 129.246 32.7344 128.321 32.1748C127.426 31.6152 126.68 30.8495 126.143 29.8481C125.636 28.8467 125.397 27.698 125.397 26.461ZM135.78 26.4904C135.78 25.6363 135.601 24.8705 135.214 24.2226C134.856 23.5746 134.378 23.1034 133.811 22.7499C133.215 22.426 132.588 22.2493 131.932 22.2493C131.275 22.2493 130.619 22.426 130.052 22.7499C129.455 23.0739 128.978 23.5452 128.62 24.1931C128.262 24.8116 128.083 25.548 128.083 26.4315C128.083 27.2857 128.262 28.0514 128.62 28.6994C128.978 29.3474 129.455 29.8481 130.052 30.2015C130.649 30.5255 131.275 30.7022 131.932 30.7022C132.618 30.7022 133.244 30.5255 133.811 30.2015C134.408 29.8775 134.856 29.3768 135.214 28.7289C135.601 28.1104 135.78 27.374 135.78 26.4904ZM144.552 22.0431C144.94 21.3951 145.447 20.9239 146.074 20.5704C146.73 20.217 147.476 20.0108 148.371 20.0108V22.691H147.715C146.671 22.691 145.895 22.9561 145.358 23.4568C144.821 23.987 144.582 24.8705 144.582 26.137V32.7933H141.957V20.217H144.582V22.0431H144.552ZM153.832 22.3376V29.2885C153.832 29.7597 153.951 30.1131 154.16 30.3193C154.398 30.5255 154.786 30.6138 155.323 30.6138H156.935V32.7933H154.846C153.653 32.7933 152.757 32.5283 152.131 31.9687C151.504 31.4091 151.176 30.5255 151.176 29.2885V22.3376H149.684V20.217H151.176V17.095H153.832V20.217H156.935V22.3376H153.832Z" fill="white"></path><path d="M58.5332 20.07C58.3841 19.4221 58.1155 18.9214 57.6978 18.5974C57.3099 18.2734 56.7729 18.0967 56.0568 18.0967C54.9827 18.0967 54.1771 18.5385 53.6401 19.3926C53.1328 20.2468 52.8643 21.631 52.8643 23.5749C53.2522 22.9564 53.7892 22.4852 54.5053 22.1317C55.2214 21.7783 56.027 21.6016 56.8624 21.6016C57.8768 21.6016 58.7719 21.8078 59.5775 22.2495C60.3533 22.6913 60.9798 23.3098 61.4274 24.164C61.8749 24.9887 62.0838 25.99 62.0838 27.1387C62.0838 28.2285 61.8451 29.2299 61.3976 30.084C60.95 30.9381 60.2936 31.6155 59.4283 32.0868C58.5631 32.558 57.5486 32.7936 56.3552 32.7936C54.7142 32.7936 53.4312 32.4402 52.5063 31.7333C51.5813 31.0265 50.9249 30.0251 50.5371 28.7586C50.179 27.4627 50 25.9017 50 24.0167C50 21.1892 50.5072 19.0392 51.4918 17.596C52.4764 16.1528 54.0578 15.4165 56.1762 15.4165C57.8172 15.4165 59.1001 15.8583 60.0251 16.7419C60.95 17.6255 61.4572 18.7152 61.6064 20.0406H58.5332V20.07ZM56.1165 24.2818C55.2811 24.2818 54.5948 24.5174 54.0279 24.9887C53.461 25.4599 53.1925 26.1668 53.1925 27.0798C53.1925 27.9928 53.461 28.7292 53.9683 29.2299C54.5053 29.76 55.2512 30.0251 56.206 30.0251C57.0414 30.0251 57.7277 29.76 58.205 29.2593C58.7123 28.7586 58.951 28.0517 58.951 27.1976C58.951 26.2846 58.7123 25.5777 58.2349 25.0476C57.7575 24.5469 57.0414 24.2818 56.1165 24.2818ZM64.2022 26.2846C64.2022 24.9887 64.4707 23.84 64.9779 22.8091C65.515 21.8078 66.2311 21.0125 67.1262 20.4824C68.0511 19.9522 69.0357 19.6577 70.1695 19.6577C71.1541 19.6577 71.9895 19.8639 72.7056 20.2468C73.4515 20.6296 74.0184 21.1303 74.466 21.7194V19.8933H77.7778V32.7936H74.466V30.9087C74.0482 31.5272 73.4515 32.0279 72.7056 32.4107C71.9597 32.7936 71.1243 32.9998 70.1397 32.9998C69.0357 32.9998 68.0213 32.7347 67.1262 32.1751C66.2311 31.6155 65.515 30.8203 64.9779 29.8189C64.4707 28.7881 64.2022 27.61 64.2022 26.2846ZM74.4958 26.3435C74.4958 25.5483 74.3466 24.8708 74.0184 24.3112C73.6902 23.7516 73.2725 23.3098 72.7354 23.0153C72.1984 22.6913 71.6315 22.5441 71.0049 22.5441C70.3784 22.5441 69.8413 22.6913 69.3042 22.9859C68.797 23.2804 68.3495 23.7222 68.0213 24.2818C67.6931 24.8414 67.5439 25.5188 67.5439 26.2846C67.5439 27.0503 67.6931 27.7278 68.0213 28.3168C68.3495 28.8764 68.7672 29.3182 69.3042 29.6422C69.8413 29.9662 70.4082 30.1134 71.0049 30.1134C71.6315 30.1134 72.1984 29.9662 72.7354 29.6716C73.2725 29.3477 73.6902 28.9353 74.0184 28.3757C74.3168 27.8161 74.4958 27.1387 74.4958 26.3435ZM97.2312 19.7166C98.8424 19.7166 100.125 20.2173 101.08 21.1892C102.065 22.1612 102.572 23.4866 102.572 25.2243V32.7936H99.2601V25.6661C99.2601 24.6647 98.9916 23.8989 98.4844 23.3688C97.9771 22.8386 97.2611 22.5441 96.366 22.5441C95.4709 22.5441 94.7548 22.8091 94.2178 23.3688C93.7105 23.8989 93.442 24.6647 93.442 25.6661V32.7936H90.16V25.6661C90.16 24.6647 89.8914 23.8989 89.3842 23.3688C88.877 22.8386 88.1609 22.5441 87.2658 22.5441C86.3409 22.5441 85.6248 22.8091 85.0878 23.3688C84.5805 23.8989 84.312 24.6647 84.312 25.6661V32.7936H81.0002V19.8933H84.312V21.4543C84.7297 20.9242 85.2668 20.4824 85.9232 20.1879C86.6094 19.8639 87.3255 19.7166 88.1311 19.7166C89.1455 19.7166 90.0705 19.9228 90.8761 20.3646C91.6816 20.7769 92.3082 21.3954 92.7259 22.1906C93.1436 21.4543 93.7702 20.8358 94.5758 20.394C95.4112 19.9522 96.2765 19.7166 97.2312 19.7166Z" fill="white"></path><path d="M1.57812 35.8858L21.5014 47.2677L1.57812 13.1184V35.8858Z" fill="url(#paint0_linear_1139_6805)"></path><path d="M21.5014 1.73242L1.57812 13.118H41.421L21.5014 1.73242Z" fill="url(#paint1_linear_1139_6805)"></path><path d="M21.4963 47.2677L41.4158 35.8858V13.1184L21.4963 47.2677Z" fill="url(#paint2_linear_1139_6805)"></path><path d="M1.57812 13.1184L21.5014 47.2677L41.421 13.1184H1.57812Z" fill="url(#paint3_linear_1139_6805)"></path><g clip-path="url(#clip1_1139_6805)"><path d="M23.8586 16.0608H29.3507C29.9184 22.2445 30.4861 28.4145 31.0538 34.5948H27.2821C26.9791 31.1651 26.6761 27.7286 26.3696 24.2817C26.3069 24.2782 26.2547 24.2679 26.2059 24.2679C25.6382 24.2679 25.0706 24.2679 24.5064 24.2679C24.3845 24.2679 24.3218 24.292 24.28 24.4161C23.6984 26.2257 23.1133 28.0319 22.5248 29.8415C22.1939 30.8549 21.8561 31.8683 21.5078 32.9162C21.4625 32.7748 21.4277 32.6645 21.3894 32.5508C20.9053 31.0858 20.4178 29.6244 19.9302 28.1594C19.5192 26.9185 19.1013 25.6777 18.6973 24.4368C18.6555 24.3092 18.6068 24.2644 18.4675 24.2644C17.9068 24.2748 17.3461 24.2644 16.7854 24.2679C16.7261 24.2679 16.6704 24.2748 16.6008 24.2782C16.3082 27.7217 16.0157 31.1548 15.7231 34.5982H11.9932C12.4808 28.4214 12.9649 22.2549 13.4559 16.0608C15.1659 16.0608 16.8655 16.0608 18.565 16.0608C18.6973 16.0608 18.8297 16.0608 18.962 16.0608H23.8621H23.8586ZM24.2626 17.0949C24.2661 16.7157 23.9352 16.3814 23.5521 16.3848C23.2039 16.3848 22.8591 16.7226 22.8486 17.0742C22.8382 17.4223 23.1934 17.7842 23.5521 17.7842C23.9248 17.7842 24.2591 17.4637 24.2626 17.0949ZM19.5993 17.0949C19.6411 16.726 19.2929 16.3917 18.9167 16.3848C18.5371 16.3814 18.2132 16.7088 18.2098 17.0845C18.2098 17.4568 18.5336 17.7842 18.9132 17.7877C19.2754 17.7911 19.5958 17.4671 19.5993 17.0949Z" fill="white"></path><path d="M17.8709 26.0498C18.7973 28.8625 19.7376 31.7269 20.6814 34.6016H17.251C17.46 31.7269 17.6655 28.859 17.8709 26.0498Z" fill="white"></path><path d="M25.0956 26.1084C25.2941 28.8556 25.4996 31.7234 25.7051 34.5981H22.3165C23.2533 31.7337 24.1936 28.8625 25.0956 26.1084Z" fill="white"></path><path d="M23.8571 16.0605C23.7213 16.0605 23.5855 16.0605 23.4462 16.0605C23.4636 15.2642 23.387 14.4749 23.2059 13.6993C23.0735 13.1375 22.8855 12.5998 22.5407 12.1275C21.778 11.0935 20.3745 11.121 19.6849 12.2034C19.4934 12.5067 19.3506 12.8514 19.2426 13.1961C18.9536 14.1267 18.9187 15.0919 18.9571 16.057C18.8247 16.057 18.6924 16.057 18.56 16.057C18.5182 15.016 18.5774 13.9854 18.8874 12.9824C19.0546 12.4412 19.2914 11.938 19.7163 11.5416C20.0541 11.2279 20.4302 11.0107 20.9178 11.0555C20.9909 11.0624 21.0641 11.0624 21.1337 11.0555C22.0044 10.9659 22.5651 11.4278 22.9934 12.0965C23.3974 12.7239 23.5959 13.427 23.6969 14.1509C23.784 14.7817 23.8049 15.4228 23.8537 16.057L23.8571 16.0605Z" fill="white"></path><path d="M24.264 17.0943C24.2606 17.4632 23.9262 17.7872 23.5536 17.7837C23.1949 17.7837 22.8396 17.4218 22.8501 17.0737C22.8605 16.7221 23.2053 16.3843 23.5536 16.3843C23.9367 16.3843 24.2675 16.7152 24.264 17.0943ZM23.5501 17.639C23.8705 17.639 24.1178 17.408 24.1247 17.0943C24.1317 16.7807 23.8879 16.5325 23.571 16.529C23.2541 16.529 23.0033 16.7634 22.9963 17.0737C22.9929 17.3873 23.2367 17.6355 23.5501 17.639Z" fill="white"></path><path d="M19.6026 17.0919C19.6026 17.4642 19.2822 17.7882 18.9165 17.7848C18.5369 17.7813 18.2095 17.4573 18.213 17.0816C18.213 16.7059 18.5403 16.3784 18.92 16.3819C19.2961 16.3853 19.6443 16.7197 19.6026 17.0919ZM18.906 17.6365C19.2264 17.6365 19.4737 17.4056 19.4807 17.0919C19.4876 16.7817 19.2404 16.5335 18.9269 16.5266C18.61 16.5232 18.3627 16.7576 18.3558 17.0712C18.3488 17.3849 18.5891 17.6331 18.906 17.6331V17.6365Z" fill="white"></path></g></g><defs><linearGradient id="paint0_linear_1139_6805" x1="11.5577" y1="47.7707" x2="11.5577" y2="13.1184" gradientUnits="userSpaceOnUse"><stop offset="0.270833" stop-color="#009C60"></stop><stop offset="1" stop-color="#00DF89"></stop></linearGradient><linearGradient id="paint1_linear_1139_6805" x1="21.5353" y1="13.2857" x2="21.5353" y2="1.73242" gradientUnits="userSpaceOnUse"><stop stop-color="#00DF89"></stop><stop offset="0.875" stop-color="#05BB75"></stop></linearGradient><linearGradient id="paint2_linear_1139_6805" x1="31.4739" y1="47.7707" x2="31.4739" y2="13.1184" gradientUnits="userSpaceOnUse"><stop offset="0.197917" stop-color="#05BB75"></stop><stop offset="1" stop-color="#00DF89"></stop></linearGradient><linearGradient id="paint3_linear_1139_6805" x1="21.5353" y1="47.7707" x2="21.5353" y2="13.1184" gradientUnits="userSpaceOnUse"><stop stop-color="#0FE794"></stop><stop offset="0.817708" stop-color="#05BB75"></stop></linearGradient><clipPath id="clip0_1139_6805"><rect width="164" height="49" fill="white"></rect></clipPath><clipPath id="clip1_1139_6805"><rect width="19.0605" height="23.5561" fill="white" transform="translate(11.9932 11.0454)"></rect></clipPath></defs></svg>