<svg xmlns="http://www.w3.org/2000/svg" width="30" height="31" viewBox="0 0 30 31" fill="none"><circle cx="15" cy="15.0195" r="15" fill="url(#paint0_linear_2277_3176)"></circle><g clip-path="url(#clip0_2277_3176)"><path d="M22.7289 13.1587L15.3961 7.82577C15.1294 7.62578 14.8628 7.62578 14.5961 7.82577L7.2633 13.1587C6.73 13.492 7.06332 14.3586 7.66328 14.3586H8.99653V21.6915C8.99653 22.0914 9.26316 22.3581 9.66314 22.3581H20.329C20.729 22.3581 20.9957 22.0914 20.9957 21.6915V14.3586H22.3289C22.9289 14.3586 23.2622 13.492 22.7289 13.1587ZM14.9961 21.0248C12.7963 21.0248 10.9964 19.225 10.9964 17.0251C10.9964 14.8253 12.7963 13.0254 14.9961 13.0254C17.1959 13.0254 18.9958 14.8253 18.9958 17.0251C18.9958 19.225 17.1959 21.0248 14.9961 21.0248Z" fill="white"></path><path d="M15.9997 16.0311V14.0312H13.9999V16.0311H12V18.031H13.9999V20.0308H15.9997V18.031H17.9996V16.0311H15.9997Z" fill="white"></path></g><defs><linearGradient id="paint0_linear_2277_3176" x1="15" y1="0.0195312" x2="15" y2="30.0195" gradientUnits="userSpaceOnUse"><stop stop-color="#55FFAA"></stop><stop offset="1" stop-color="#00C8FF"></stop></linearGradient><clipPath id="clip0_2277_3176"><rect width="16" height="16" fill="white" transform="translate(7 7.01953)"></rect></clipPath></defs></svg>