<svg xmlns="http://www.w3.org/2000/svg" width="41" height="40" viewBox="0 0 41 40" fill="none"><path d="M20.4209 0C16.4653 0 12.5985 1.17298 9.3095 3.37061C6.02052 5.56824 3.45707 8.69181 1.94332 12.3463C0.429564 16.0009 0.0334974 20.0222 0.805202 23.9018C1.57691 27.7814 3.48172 31.3451 6.27877 34.1421C9.07582 36.9392 12.6395 38.844 16.5191 39.6157C20.3987 40.3874 24.4201 39.9913 28.0746 38.4776C31.7291 36.9638 34.8527 34.4004 37.0503 31.1114C39.2479 27.8224 40.4209 23.9556 40.4209 20C40.4202 14.6959 38.3129 9.60917 34.5623 5.85858C30.8117 2.108 25.725 0.000651253 20.4209 0Z" fill="url(#paint0_linear_128_52)"></path><path d="M26.3657 17.398C25.5069 17.398 24.7081 17.398 23.7835 17.398C22.2104 17.4676 21.7556 15.4059 23.1388 14.8628C21.423 13.7727 19.6225 13.6336 17.7996 14.4211C15.8187 15.2668 14.6648 16.8154 14.3509 19.0293C14.3265 19.2173 14.319 19.4052 14.3077 19.5931C14.2569 20.3449 13.7213 20.8805 12.9921 20.8805C12.8098 20.8816 12.6293 20.8441 12.4624 20.7705C12.2956 20.6969 12.1463 20.5888 12.0241 20.4534C11.902 20.318 11.8099 20.1583 11.7539 19.9847C11.6979 19.8112 11.6792 19.6278 11.6991 19.4465C11.7538 18.6423 11.8904 17.8457 12.1069 17.0691C13.7232 11.619 20.769 9.45016 25.1911 12.9984C25.4899 11.4141 27.7696 11.5851 27.8222 13.2202C27.841 13.784 27.8222 14.3159 27.8222 14.8665C27.8448 16.0956 27.9632 17.3548 26.3657 17.398Z" fill="white"></path><path d="M20.7372 28.7256C18.8994 28.7328 17.1124 28.1226 15.6629 26.9928C15.4148 28.5301 13.0863 28.4136 13.0449 26.8406C13.028 25.9009 13.028 24.933 13.0449 23.8862C13.0446 23.7145 13.0786 23.5445 13.145 23.3861C13.2113 23.2277 13.3086 23.0842 13.4311 22.9639C13.5537 22.8436 13.699 22.7491 13.8586 22.6857C14.0182 22.6224 14.1888 22.5916 14.3605 22.5951C14.8096 22.5951 15.287 22.5951 15.7738 22.5951C16.2304 22.5951 16.6965 22.5951 17.204 22.5951C18.6849 22.5688 19.0833 24.6229 17.7358 25.1379C21.3799 27.5284 26.4448 24.8184 26.5068 20.4488C26.4711 19.6445 27.0218 18.9453 27.8224 18.9453C28.0014 18.9443 28.1787 18.9788 28.3442 19.0469C28.5098 19.115 28.6601 19.2152 28.7865 19.3419C28.9027 19.4612 28.9934 19.6028 29.0532 19.7582C29.1129 19.9136 29.1405 20.0795 29.1342 20.2459C29.2808 24.8578 25.3304 28.7914 20.7372 28.7256Z" fill="white"></path><defs><linearGradient id="paint0_linear_128_52" x1="20.4209" y1="0" x2="20.4209" y2="40" gradientUnits="userSpaceOnUse"><stop stop-color="#9B4ECC"></stop><stop offset="1" stop-color="#171378"></stop></linearGradient></defs></svg>