<svg xmlns="http://www.w3.org/2000/svg" width="61" height="61" viewBox="0 0 61 61" fill="none"><path d="M51.5428 44.8496L50.5834 50.6066C50.3179 52.1994 48.9532 53.3555 47.3384 53.3555H35.5508C34.8695 53.3555 34.3172 52.8031 34.3172 52.1218V42.2527C34.3172 41.5659 34.8784 41.0102 35.5672 41.0191C36.6963 41.0338 37.6069 40.0922 37.6069 38.963V37.3181C37.6069 35.7284 38.8956 34.4396 40.4854 34.4396C42.3022 34.4396 43.7751 35.9125 43.7751 37.7293V41.019H48.245C49.0881 41.019 49.9117 41.3185 50.5299 41.8916C51.3528 42.6544 51.7241 43.7626 51.5428 44.8496ZM23.4611 36.4957C23.4611 33.548 21.0631 31.1499 18.1153 31.1499C15.1676 31.1499 12.7695 33.548 12.7695 36.4957C12.7695 39.4434 15.1676 41.8415 18.1153 41.8415C21.0631 41.8415 23.4611 39.4434 23.4611 36.4957Z" fill="#A7E7C9"></path><path d="M26.7505 48.832V52.1217C26.7505 52.803 26.1981 53.3553 25.5168 53.3553H10.7131C10.0318 53.3553 9.47949 52.803 9.47949 52.1217V48.832C9.47949 45.1884 11.7478 42.0646 14.9463 40.7986C15.8337 41.4537 16.9299 41.8413 18.115 41.8413C19.3001 41.8413 20.3963 41.4537 21.2836 40.7986C24.4822 42.0646 26.7505 45.1884 26.7505 48.832ZM30.6159 41.0189C29.9346 41.0189 29.3823 41.5713 29.3823 42.2526V52.1217C29.3823 52.803 29.9346 53.3553 30.6159 53.3553H35.5505V41.0189H30.6159Z" fill="url(#paint0_linear_1470_8923)"></path><path d="M11.8473 28.6048L9.15879 28.2142L7.9565 25.7781C7.76667 25.3934 7.37499 25.1499 6.94605 25.1499C6.51712 25.1499 6.12544 25.3934 5.93561 25.778L4.73331 28.2141L2.04484 28.6048C1.62041 28.6664 1.26772 28.9638 1.13528 29.3717C1.00269 29.7796 1.11327 30.2274 1.42044 30.5267L3.36575 32.423L2.90654 35.1005C2.83405 35.5232 3.00788 35.9505 3.35486 36.2026C3.70176 36.4547 4.16172 36.488 4.54153 36.2884L6.94613 35.0242L9.35073 36.2884C9.51562 36.3751 9.6956 36.4179 9.87499 36.4179C10.1086 36.4179 10.3412 36.3453 10.5374 36.2026C10.8844 35.9505 11.0582 35.5233 10.9857 35.1005L10.5265 32.423L12.4718 30.5267C12.779 30.2274 12.8896 29.7796 12.757 29.3717C12.6244 28.9638 12.2718 28.6665 11.8473 28.6048Z" fill="url(#paint1_linear_1470_8923)"></path><path d="M21.4469 17.805L18.7584 17.4144L17.5561 14.9783C17.3663 14.5936 16.9746 14.3501 16.5457 14.3501C16.1167 14.3501 15.7251 14.5936 15.5352 14.9782L14.3329 17.4143L11.6444 17.8049C11.22 17.8666 10.8673 18.1639 10.7349 18.5719C10.6023 18.9798 10.7129 19.4275 11.02 19.7269L12.9654 21.6232L12.5061 24.3007C12.4337 24.7234 12.6075 25.1507 12.9545 25.4028C13.3014 25.6549 13.7613 25.6882 14.1411 25.4886L16.5457 24.2244L18.9503 25.4886C19.1152 25.5753 19.2952 25.618 19.4746 25.618C19.7082 25.618 19.9408 25.5455 20.137 25.4028C20.484 25.1507 20.6578 24.7235 20.5853 24.3007L20.1261 21.6232L22.0714 19.7269C22.3786 19.4275 22.4892 18.9798 22.3566 18.5719C22.224 18.164 21.8714 17.8667 21.4469 17.805Z" fill="url(#paint2_linear_1470_8923)"></path><path d="M34.6471 11.805L31.9586 11.4144L30.7563 8.97825C30.5665 8.59364 30.1748 8.3501 29.7459 8.3501C29.3169 8.3501 28.9252 8.59364 28.7354 8.97818L27.5331 11.4143L24.8446 11.8049C24.4202 11.8666 24.0675 12.1639 23.9351 12.5719C23.8025 12.9798 23.9131 13.4275 24.2202 13.7269L26.1656 15.6232L25.7063 18.3007C25.6339 18.7234 25.8077 19.1507 26.1547 19.4028C26.5016 19.6549 26.9615 19.6882 27.3413 19.4886L29.7459 18.2244L32.1505 19.4886C32.3154 19.5753 32.4954 19.618 32.6748 19.618C32.9084 19.618 33.141 19.5455 33.3372 19.4028C33.6842 19.1507 33.858 18.7235 33.7855 18.3007L33.3263 15.6232L35.2716 13.7269C35.5788 13.4275 35.6894 12.9798 35.5568 12.5719C35.4242 12.164 35.0716 11.8667 34.6471 11.805Z" fill="url(#paint3_linear_1470_8923)"></path><path d="M49.0465 17.805L46.358 17.4144L45.1557 14.9783C44.9659 14.5936 44.5742 14.3501 44.1453 14.3501C43.7163 14.3501 43.3247 14.5936 43.1348 14.9782L41.9325 17.4143L39.2441 17.8049C38.8196 17.8666 38.4669 18.1639 38.3345 18.5719C38.2019 18.9798 38.3125 19.4275 38.6197 19.7269L40.565 21.6232L40.1058 24.3007C40.0333 24.7234 40.2071 25.1507 40.5541 25.4028C40.901 25.6549 41.3609 25.6882 41.7408 25.4886L44.1453 24.2244L46.5499 25.4886C46.7148 25.5753 46.8948 25.618 47.0742 25.618C47.3078 25.618 47.5404 25.5455 47.7366 25.4028C48.0836 25.1507 48.2574 24.7235 48.1849 24.3007L47.7257 21.6232L49.671 19.7269C49.9782 19.4275 50.0888 18.9798 49.9562 18.5719C49.8236 18.164 49.471 17.8667 49.0465 17.805Z" fill="url(#paint4_linear_1470_8923)"></path><path d="M58.6471 28.6048L55.9586 28.2142L54.7563 25.7781C54.5665 25.3934 54.1748 25.1499 53.7459 25.1499C53.3169 25.1499 52.9252 25.3934 52.7354 25.778L51.5331 28.2141L48.8446 28.6048C48.4202 28.6664 48.0675 28.9638 47.9351 29.3717C47.8025 29.7796 47.9131 30.2274 48.2202 30.5267L50.1656 32.423L49.7063 35.1005C49.6339 35.5232 49.8077 35.9505 50.1547 36.2026C50.5016 36.4547 50.9615 36.488 51.3413 36.2884L53.7459 35.0242L56.1505 36.2884C56.3154 36.3751 56.4954 36.4179 56.6748 36.4179C56.9084 36.4179 57.141 36.3453 57.3372 36.2026C57.6842 35.9505 57.858 35.5233 57.7855 35.1005L57.3263 32.423L59.2716 30.5267C59.5788 30.2274 59.6894 29.7796 59.5568 29.3717C59.4242 28.9638 59.0716 28.6665 58.6471 28.6048Z" fill="url(#paint5_linear_1470_8923)"></path><defs><linearGradient id="paint0_linear_1470_8923" x1="30.5337" y1="53.3552" x2="30.5337" y2="11.2469" gradientUnits="userSpaceOnUse"><stop stop-color="#039D55"></stop><stop offset="1" stop-color="#17E484"></stop></linearGradient><linearGradient id="paint1_linear_1470_8923" x1="20.3108" y1="59.4798" x2="20.3108" y2="21.0183" gradientUnits="userSpaceOnUse"><stop stop-color="#039D55"></stop><stop offset="1" stop-color="#17E484"></stop></linearGradient><linearGradient id="paint2_linear_1470_8923" x1="29.9105" y1="48.68" x2="29.9105" y2="10.2185" gradientUnits="userSpaceOnUse"><stop stop-color="#039D55"></stop><stop offset="1" stop-color="#17E484"></stop></linearGradient><linearGradient id="paint3_linear_1470_8923" x1="43.1107" y1="42.68" x2="43.1107" y2="4.21849" gradientUnits="userSpaceOnUse"><stop stop-color="#039D55"></stop><stop offset="1" stop-color="#17E484"></stop></linearGradient><linearGradient id="paint4_linear_1470_8923" x1="57.5101" y1="48.68" x2="57.5101" y2="10.2185" gradientUnits="userSpaceOnUse"><stop stop-color="#039D55"></stop><stop offset="1" stop-color="#17E484"></stop></linearGradient><linearGradient id="paint5_linear_1470_8923" x1="67.1107" y1="59.4798" x2="67.1107" y2="21.0183" gradientUnits="userSpaceOnUse"><stop stop-color="#039D55"></stop><stop offset="1" stop-color="#17E484"></stop></linearGradient></defs></svg>