<svg xmlns="http://www.w3.org/2000/svg" width="140" height="71" viewBox="0 0 140 71" fill="none"><path d="M139.357 0C139.357 0 135.903 23.4258 116.293 33.1632V49.2188C116.293 54.6998 114.176 59.6698 110.711 63.3944C108.662 65.6246 106.115 67.402 103.25 68.558C101.404 69.3164 99.4344 69.8035 97.362 69.9853C97.2831 70.0076 97.1698 70.0076 97.0909 70.0076C96.8987 70.0181 96.6946 70.0419 96.4905 70.0419C96.1508 70.0643 95.7888 70.0762 95.4372 70.0762H20.8678C18.8297 70.0762 16.8602 69.7812 14.9905 69.2374C14.323 69.0333 13.666 68.8069 13.0209 68.5476C5.39013 65.4548 0 57.9596 0 49.2188V22.5885C0 11.0618 9.35302 1.70881 20.8678 1.70881H95.4372C105.322 1.70881 113.588 8.60513 115.739 17.8434C121.887 16.1793 131.511 11.7516 139.357 0Z" fill="url(#paint0_linear_1427_6422)"></path><path d="M25.5899 56V46.2H29.5799C30.1119 46.2 30.5926 46.3353 31.0219 46.606C31.4606 46.8673 31.8106 47.2267 32.0719 47.684C32.3332 48.1413 32.4639 48.65 32.4639 49.21C32.4639 49.77 32.3332 50.2787 32.0719 50.736C31.8106 51.1933 31.4606 51.562 31.0219 51.842C30.5926 52.1127 30.1119 52.248 29.5799 52.248H27.1019V56H25.5899ZM27.1019 50.792H29.5519C29.8039 50.792 30.0326 50.722 30.2379 50.582C30.4432 50.4327 30.6066 50.2413 30.7279 50.008C30.8586 49.7653 30.9239 49.4993 30.9239 49.21C30.9239 48.9207 30.8586 48.6593 30.7279 48.426C30.6066 48.1927 30.4432 48.006 30.2379 47.866C30.0326 47.726 29.8039 47.656 29.5519 47.656H27.1019V50.792ZM38.5962 56V51.212C38.5962 50.8013 38.4469 50.47 38.1482 50.218C37.8589 49.9567 37.4902 49.826 37.0422 49.826C36.6316 49.826 36.2582 49.91 35.9222 50.078C35.5956 50.246 35.2969 50.5027 35.0262 50.848L34.0882 49.91C34.5269 49.434 34.9982 49.0793 35.5022 48.846C36.0156 48.6127 36.5662 48.496 37.1542 48.496C37.7142 48.496 38.1996 48.5893 38.6102 48.776C39.0209 48.9627 39.3382 49.238 39.5622 49.602C39.7862 49.9567 39.8982 50.3907 39.8982 50.904V56H38.5962ZM36.3982 56.14C35.9222 56.14 35.4976 56.0467 35.1242 55.86C34.7509 55.6733 34.4522 55.4167 34.2282 55.09C34.0136 54.754 33.9062 54.362 33.9062 53.914C33.9062 53.522 33.9762 53.1767 34.1162 52.878C34.2562 52.5793 34.4616 52.332 34.7322 52.136C35.0122 51.94 35.3576 51.7907 35.7682 51.688C36.1882 51.5853 36.6689 51.534 37.2102 51.534H39.2542L39.1282 52.682H37.0282C36.7482 52.682 36.4962 52.71 36.2722 52.766C36.0576 52.8127 35.8709 52.892 35.7122 53.004C35.5629 53.1067 35.4509 53.2327 35.3762 53.382C35.3016 53.522 35.2642 53.69 35.2642 53.886C35.2642 54.0913 35.3156 54.2733 35.4182 54.432C35.5209 54.5813 35.6609 54.698 35.8382 54.782C36.0156 54.866 36.2209 54.908 36.4542 54.908C36.7902 54.908 37.1076 54.852 37.4062 54.74C37.7142 54.6187 37.9849 54.4553 38.2182 54.25C38.4609 54.0447 38.6476 53.816 38.7782 53.564L39.1142 54.502C38.9182 54.8287 38.6756 55.1133 38.3862 55.356C38.0969 55.5987 37.7842 55.79 37.4482 55.93C37.1122 56.07 36.7622 56.14 36.3982 56.14ZM44.4507 56.14C43.8347 56.14 43.2794 56.0327 42.7847 55.818C42.2901 55.6033 41.8794 55.286 41.5527 54.866L42.5327 54.026C42.8127 54.3527 43.1161 54.5907 43.4427 54.74C43.7787 54.88 44.1567 54.95 44.5767 54.95C44.7447 54.95 44.8987 54.9313 45.0387 54.894C45.1881 54.8473 45.3141 54.782 45.4167 54.698C45.5287 54.614 45.6127 54.516 45.6687 54.404C45.7247 54.2827 45.7527 54.152 45.7527 54.012C45.7527 53.7693 45.6641 53.5733 45.4867 53.424C45.3934 53.3587 45.2441 53.2887 45.0387 53.214C44.8427 53.13 44.5861 53.046 44.2687 52.962C43.7274 52.822 43.2841 52.6633 42.9387 52.486C42.5934 52.3087 42.3274 52.108 42.1407 51.884C42.0007 51.7067 41.8981 51.5153 41.8327 51.31C41.7674 51.0953 41.7347 50.862 41.7347 50.61C41.7347 50.1993 41.8514 49.8353 42.0847 49.518C42.3181 49.2007 42.6307 48.9533 43.0227 48.776C43.4241 48.5893 43.8721 48.496 44.3667 48.496C44.7121 48.496 45.0527 48.5427 45.3887 48.636C45.7341 48.7293 46.0514 48.8647 46.3407 49.042C46.6301 49.2193 46.8727 49.4293 47.0687 49.672L46.2427 50.582C46.0654 50.4047 45.8694 50.2507 45.6547 50.12C45.4494 49.98 45.2394 49.8727 45.0247 49.798C44.8101 49.7233 44.6141 49.686 44.4367 49.686C44.2407 49.686 44.0634 49.7047 43.9047 49.742C43.7461 49.7793 43.6107 49.8353 43.4987 49.91C43.3961 49.9847 43.3167 50.078 43.2607 50.19C43.2047 50.302 43.1767 50.428 43.1767 50.568C43.1861 50.6893 43.2141 50.806 43.2607 50.918C43.3167 51.0207 43.3914 51.1093 43.4847 51.184C43.5874 51.2587 43.7414 51.338 43.9467 51.422C44.1521 51.506 44.4134 51.5853 44.7307 51.66C45.1974 51.7813 45.5801 51.9167 45.8787 52.066C46.1867 52.206 46.4294 52.3693 46.6067 52.556C46.7934 52.7333 46.9241 52.9387 46.9987 53.172C47.0734 53.4053 47.1107 53.6667 47.1107 53.956C47.1107 54.376 46.9894 54.754 46.7467 55.09C46.5134 55.4167 46.1961 55.6733 45.7947 55.86C45.3934 56.0467 44.9454 56.14 44.4507 56.14ZM51.43 56.14C50.814 56.14 50.2586 56.0327 49.764 55.818C49.2693 55.6033 48.8586 55.286 48.532 54.866L49.512 54.026C49.792 54.3527 50.0953 54.5907 50.422 54.74C50.758 54.88 51.136 54.95 51.556 54.95C51.724 54.95 51.878 54.9313 52.018 54.894C52.1673 54.8473 52.2933 54.782 52.396 54.698C52.508 54.614 52.592 54.516 52.648 54.404C52.704 54.2827 52.732 54.152 52.732 54.012C52.732 53.7693 52.6433 53.5733 52.466 53.424C52.3726 53.3587 52.2233 53.2887 52.018 53.214C51.822 53.13 51.5653 53.046 51.248 52.962C50.7066 52.822 50.2633 52.6633 49.918 52.486C49.5726 52.3087 49.3066 52.108 49.12 51.884C48.98 51.7067 48.8773 51.5153 48.812 51.31C48.7466 51.0953 48.714 50.862 48.714 50.61C48.714 50.1993 48.8306 49.8353 49.064 49.518C49.2973 49.2007 49.61 48.9533 50.002 48.776C50.4033 48.5893 50.8513 48.496 51.346 48.496C51.6913 48.496 52.032 48.5427 52.368 48.636C52.7133 48.7293 53.0306 48.8647 53.32 49.042C53.6093 49.2193 53.852 49.4293 54.048 49.672L53.222 50.582C53.0446 50.4047 52.8486 50.2507 52.634 50.12C52.4286 49.98 52.2186 49.8727 52.004 49.798C51.7893 49.7233 51.5933 49.686 51.416 49.686C51.22 49.686 51.0426 49.7047 50.884 49.742C50.7253 49.7793 50.59 49.8353 50.478 49.91C50.3753 49.9847 50.296 50.078 50.24 50.19C50.184 50.302 50.156 50.428 50.156 50.568C50.1653 50.6893 50.1933 50.806 50.24 50.918C50.296 51.0207 50.3706 51.1093 50.464 51.184C50.5666 51.2587 50.7206 51.338 50.926 51.422C51.1313 51.506 51.3926 51.5853 51.71 51.66C52.1766 51.7813 52.5593 51.9167 52.858 52.066C53.166 52.206 53.4086 52.3693 53.586 52.556C53.7726 52.7333 53.9033 52.9387 53.978 53.172C54.0526 53.4053 54.09 53.6667 54.09 53.956C54.09 54.376 53.9686 54.754 53.726 55.09C53.4926 55.4167 53.1753 55.6733 52.774 55.86C52.3726 56.0467 51.9246 56.14 51.43 56.14ZM55.9592 59.08V48.65H57.4152V50.33L57.1912 50.204C57.2472 49.924 57.4058 49.658 57.6672 49.406C57.9285 49.1447 58.2458 48.9347 58.6192 48.776C59.0018 48.608 59.3938 48.524 59.7952 48.524C60.4578 48.524 61.0458 48.6873 61.5592 49.014C62.0725 49.3407 62.4785 49.7887 62.7772 50.358C63.0758 50.9273 63.2252 51.5807 63.2252 52.318C63.2252 53.046 63.0758 53.6993 62.7772 54.278C62.4878 54.8473 62.0865 55.3 61.5732 55.636C61.0598 55.9627 60.4812 56.126 59.8372 56.126C59.4078 56.126 58.9925 56.042 58.5912 55.874C58.1898 55.6967 57.8492 55.4727 57.5692 55.202C57.2892 54.9313 57.1165 54.6513 57.0512 54.362L57.4152 54.166V59.08H55.9592ZM59.5992 54.796C60.0285 54.796 60.4112 54.6887 60.7472 54.474C61.0832 54.2593 61.3492 53.9653 61.5452 53.592C61.7412 53.2187 61.8392 52.794 61.8392 52.318C61.8392 51.842 61.7412 51.422 61.5452 51.058C61.3585 50.6847 61.0972 50.3907 60.7612 50.176C60.4252 49.9613 60.0378 49.854 59.5992 49.854C59.1605 49.854 58.7732 49.9613 58.4372 50.176C58.1012 50.3813 57.8352 50.6707 57.6392 51.044C57.4432 51.4173 57.3452 51.842 57.3452 52.318C57.3452 52.794 57.4432 53.2187 57.6392 53.592C57.8352 53.9653 58.1012 54.2593 58.4372 54.474C58.7732 54.6887 59.1605 54.796 59.5992 54.796ZM68.3752 56.14C67.6565 56.14 67.0125 55.9767 66.4432 55.65C65.8832 55.314 65.4399 54.8613 65.1132 54.292C64.7865 53.7133 64.6232 53.0553 64.6232 52.318C64.6232 51.5807 64.7865 50.9273 65.1132 50.358C65.4399 49.7793 65.8832 49.3267 66.4432 49C67.0125 48.664 67.6565 48.496 68.3752 48.496C69.0845 48.496 69.7192 48.664 70.2792 49C70.8485 49.3267 71.2965 49.7793 71.6232 50.358C71.9499 50.9273 72.1132 51.5807 72.1132 52.318C72.1132 53.0553 71.9499 53.7133 71.6232 54.292C71.2965 54.8613 70.8485 55.314 70.2792 55.65C69.7192 55.9767 69.0845 56.14 68.3752 56.14ZM68.3752 54.824C68.8139 54.824 69.2059 54.7167 69.5512 54.502C69.8965 54.278 70.1672 53.9793 70.3632 53.606C70.5592 53.2233 70.6525 52.794 70.6432 52.318C70.6525 51.8327 70.5592 51.4033 70.3632 51.03C70.1672 50.6473 69.8965 50.3487 69.5512 50.134C69.2059 49.9193 68.8139 49.812 68.3752 49.812C67.9365 49.812 67.5399 49.924 67.1852 50.148C66.8399 50.3627 66.5692 50.6613 66.3732 51.044C66.1772 51.4173 66.0839 51.842 66.0932 52.318C66.0839 52.794 66.1772 53.2233 66.3732 53.606C66.5692 53.9793 66.8399 54.278 67.1852 54.502C67.5399 54.7167 67.9365 54.824 68.3752 54.824ZM73.9645 56V48.65H75.4205V50.96L75.2805 50.4C75.3832 50.0453 75.5558 49.7233 75.7985 49.434C76.0505 49.1447 76.3352 48.916 76.6525 48.748C76.9792 48.58 77.3152 48.496 77.6605 48.496C77.8192 48.496 77.9685 48.51 78.1085 48.538C78.2578 48.566 78.3745 48.5987 78.4585 48.636L78.0805 50.204C77.9685 50.1573 77.8425 50.12 77.7025 50.092C77.5718 50.0547 77.4412 50.036 77.3105 50.036C77.0585 50.036 76.8158 50.0873 76.5825 50.19C76.3585 50.2833 76.1578 50.4187 75.9805 50.596C75.8125 50.764 75.6772 50.9647 75.5745 51.198C75.4718 51.422 75.4205 51.6693 75.4205 51.94V56H73.9645ZM81.0744 56V46.774H82.5164V56H81.0744ZM79.5484 50.05V48.65H84.2244V50.05H79.5484ZM88.5409 56.14C87.9249 56.14 87.3696 56.0327 86.8749 55.818C86.3802 55.6033 85.9696 55.286 85.6429 54.866L86.6229 54.026C86.9029 54.3527 87.2062 54.5907 87.5329 54.74C87.8689 54.88 88.2469 54.95 88.6669 54.95C88.8349 54.95 88.9889 54.9313 89.1289 54.894C89.2782 54.8473 89.4042 54.782 89.5069 54.698C89.6189 54.614 89.7029 54.516 89.7589 54.404C89.8149 54.2827 89.8429 54.152 89.8429 54.012C89.8429 53.7693 89.7542 53.5733 89.5769 53.424C89.4836 53.3587 89.3342 53.2887 89.1289 53.214C88.9329 53.13 88.6762 53.046 88.3589 52.962C87.8176 52.822 87.3742 52.6633 87.0289 52.486C86.6836 52.3087 86.4176 52.108 86.2309 51.884C86.0909 51.7067 85.9882 51.5153 85.9229 51.31C85.8576 51.0953 85.8249 50.862 85.8249 50.61C85.8249 50.1993 85.9416 49.8353 86.1749 49.518C86.4082 49.2007 86.7209 48.9533 87.1129 48.776C87.5142 48.5893 87.9622 48.496 88.4569 48.496C88.8022 48.496 89.1429 48.5427 89.4789 48.636C89.8242 48.7293 90.1416 48.8647 90.4309 49.042C90.7202 49.2193 90.9629 49.4293 91.1589 49.672L90.3329 50.582C90.1556 50.4047 89.9596 50.2507 89.7449 50.12C89.5396 49.98 89.3296 49.8727 89.1149 49.798C88.9002 49.7233 88.7042 49.686 88.5269 49.686C88.3309 49.686 88.1536 49.7047 87.9949 49.742C87.8362 49.7793 87.7009 49.8353 87.5889 49.91C87.4862 49.9847 87.4069 50.078 87.3509 50.19C87.2949 50.302 87.2669 50.428 87.2669 50.568C87.2762 50.6893 87.3042 50.806 87.3509 50.918C87.4069 51.0207 87.4816 51.1093 87.5749 51.184C87.6776 51.2587 87.8316 51.338 88.0369 51.422C88.2422 51.506 88.5036 51.5853 88.8209 51.66C89.2876 51.7813 89.6702 51.9167 89.9689 52.066C90.2769 52.206 90.5196 52.3693 90.6969 52.556C90.8836 52.7333 91.0142 52.9387 91.0889 53.172C91.1636 53.4053 91.2009 53.6667 91.2009 53.956C91.2009 54.376 91.0796 54.754 90.8369 55.09C90.6036 55.4167 90.2862 55.6733 89.8849 55.86C89.4836 56.0467 89.0356 56.14 88.5409 56.14Z" fill="white"></path><path d="M54.6589 28.6225H62.3502C62.5472 28.6226 62.7423 28.5838 62.9243 28.5084C63.1063 28.4331 63.2717 28.3226 63.411 28.1833C63.5503 28.044 63.6608 27.8786 63.7361 27.6966C63.8115 27.5146 63.8502 27.3195 63.8502 27.1225V15.8125C63.8502 15.6155 63.8115 15.4204 63.7361 15.2384C63.6608 15.0564 63.5503 14.891 63.411 14.7517C63.2717 14.6124 63.1063 14.5019 62.9243 14.4266C62.7423 14.3512 62.5472 14.3124 62.3502 14.3125H54.6589C54.4619 14.3124 54.2669 14.3512 54.0848 14.4266C53.9028 14.5019 53.7375 14.6124 53.5982 14.7517C53.4589 14.891 53.3484 15.0564 53.273 15.2384C53.1976 15.4204 53.1589 15.6155 53.1589 15.8125V27.1225C53.1589 27.3195 53.1976 27.5146 53.273 27.6966C53.3484 27.8786 53.4589 28.044 53.5981 28.1833C53.7374 28.3226 53.9028 28.4331 54.0848 28.5084C54.2669 28.5838 54.4619 28.6226 54.6589 28.6225ZM58.5027 15.79C59.4627 15.7904 60.3832 16.1717 61.0624 16.8502C61.7415 17.5286 62.1238 18.4488 62.1252 19.4088C61.9281 24.2128 55.0813 24.2153 54.8839 19.4087C54.8852 18.4493 55.2668 17.5296 55.9452 16.8512C56.6236 16.1729 57.5433 15.7912 58.5027 15.79ZM62.0352 25.2662C62.0349 25.3656 61.9953 25.4608 61.925 25.5311C61.8548 25.6014 61.7596 25.641 61.6602 25.6412H55.3489C55.2495 25.6412 55.1541 25.6017 55.0838 25.5314C55.0134 25.4611 54.9739 25.3657 54.9739 25.2662C54.9739 25.1668 55.0134 25.0714 55.0838 25.0011C55.1541 24.9308 55.2495 24.8912 55.3489 24.8912H61.6602C61.7095 24.8911 61.7583 24.9007 61.8039 24.9194C61.8495 24.9382 61.8909 24.9658 61.9257 25.0007C61.9606 25.0356 61.9882 25.077 62.007 25.1225C62.0258 25.1681 62.0354 25.217 62.0352 25.2662Z" fill="white"></path><path d="M67.3601 18.6362C67.2647 18.4926 67.1416 18.3696 66.998 18.2743C66.8544 18.1789 66.6932 18.1133 66.5238 18.0812L64.6001 17.6987V27.1225C64.5999 27.7192 64.3628 28.2914 63.9409 28.7133C63.519 29.1352 62.9467 29.3723 62.3501 29.3725H54.7788C54.8013 29.6575 54.9164 29.9273 55.1067 30.1406C55.297 30.3539 55.552 30.499 55.8326 30.5537L63.7563 32.1175C64.0962 32.1826 64.448 32.1113 64.7357 31.919C65.0235 31.7267 65.2239 31.4289 65.2938 31.09L67.5551 19.615C67.6221 19.2758 67.552 18.9239 67.3601 18.6362Z" fill="white"></path><path d="M55.6864 31.2925C55.2202 31.1989 54.8005 30.9476 54.4979 30.5808C54.1953 30.214 54.0284 29.7542 54.0251 29.2787C53.5591 29.142 53.1498 28.858 52.8584 28.4694C52.5671 28.0807 52.4094 27.6082 52.4089 27.1225C52.4079 26.6665 52.4096 21.2853 52.4089 21.01L49.3901 21.8237C49.2244 21.8682 49.069 21.9449 48.9329 22.0495C48.7968 22.1541 48.6826 22.2844 48.597 22.4332C48.5113 22.5819 48.4558 22.746 48.4336 22.9162C48.4114 23.0864 48.4229 23.2593 48.4676 23.425L51.5089 34.72C51.5995 35.0534 51.8183 35.3375 52.1176 35.5103C52.4168 35.6831 52.7722 35.7306 53.1064 35.6425L60.9101 33.5425C61.1499 33.4785 61.3665 33.3476 61.5346 33.1649C61.7026 32.9823 61.8151 32.7555 61.8589 32.5112C61.67 32.4753 56.0878 31.3703 55.6864 31.2925Z" fill="white"></path><path d="M61.2025 20.3875C60.7572 20.5573 60.2923 20.6707 59.8188 20.725C59.7633 21.1987 59.6487 21.6636 59.4775 22.1087C59.8737 21.966 60.2337 21.7378 60.5318 21.4403C60.8299 21.1428 61.0589 20.7834 61.2025 20.3875Z" fill="white"></path><path d="M61.2027 18.43C61.0591 18.0351 60.8306 17.6766 60.5331 17.3798C60.2357 17.083 59.8767 16.8552 59.4814 16.7125C59.6508 17.1567 59.7642 17.6203 59.8189 18.0925C60.2925 18.1468 60.7573 18.2602 61.2027 18.43Z" fill="white"></path><path d="M57.5276 16.7125C57.1324 16.8552 56.7734 17.083 56.476 17.3798C56.1785 17.6766 55.95 18.0351 55.8064 18.43C56.252 18.2611 56.7168 18.1477 57.1901 18.0925C57.2449 17.6203 57.3582 17.1567 57.5276 16.7125Z" fill="white"></path><path d="M57.5314 22.1087C57.3602 21.6636 57.2456 21.1987 57.1901 20.725C56.7168 20.6698 56.252 20.5564 55.8064 20.3875C55.95 20.7834 56.179 21.1428 56.4772 21.4403C56.7753 21.7378 57.1352 21.966 57.5314 22.1087Z" fill="white"></path><path d="M57.9514 20.7962C58.1014 21.745 58.3789 22.24 58.5139 22.2812C58.6339 22.24 58.9077 21.745 59.0539 20.7962C58.6867 20.8168 58.3186 20.8168 57.9514 20.7962Z" fill="white"></path><path d="M59.0539 18.0212C58.899 17.0806 58.6472 16.5842 58.4877 16.54C58.3639 16.6 58.0977 17.0912 57.9514 18.0212C58.3186 18.0006 58.6867 18.0006 59.0539 18.0212Z" fill="white"></path><path d="M58.5026 20.0612C59.1733 20.0893 59.1805 20.0765 59.155 19.4087C59.1814 18.7428 59.1693 18.7295 58.5025 18.7563C57.8388 18.7306 57.8255 18.7398 57.8539 19.4088C57.8274 20.0778 57.8333 20.0892 58.5026 20.0612Z" fill="white"></path><path d="M59.9051 19.4087C59.9051 19.5925 59.9014 19.78 59.8901 19.9637C60.8291 19.8072 61.328 19.5506 61.3752 19.3975C61.3187 19.2668 60.8252 19.0062 59.8902 18.8575C59.9014 19.0412 59.9051 19.225 59.9051 19.4087Z" fill="white"></path><path d="M57.1039 19.4087C57.1039 19.225 57.1076 19.0412 57.1189 18.8575C56.1834 19.0102 55.6982 19.2658 55.6301 19.42C55.6939 19.5565 56.1774 19.8132 57.1189 19.9637C57.1076 19.78 57.1039 19.5925 57.1039 19.4087Z" fill="white"></path><defs><linearGradient id="paint0_linear_1427_6422" x1="-37.373" y1="-38.3358" x2="43.21" y2="107.762" gradientUnits="userSpaceOnUse"><stop stop-color="#FD5900"></stop><stop offset="1" stop-color="#FF9900"></stop></linearGradient></defs></svg>