<svg xmlns="http://www.w3.org/2000/svg" width="521" height="273" viewBox="0 0 521 273" fill="none"><mask id="mask0_1139_7357" style="mask-type:luminance" maskUnits="userSpaceOnUse" x="0" y="0" width="521" height="273"><path d="M506.835 0H13.6289C6.10188 0 0 5.03273 0 11.2409V261.759C0 267.967 6.10188 273 13.6289 273H506.835C514.362 273 520.464 267.967 520.464 261.759V11.2409C520.464 5.03273 514.362 0 506.835 0Z" fill="white"></path></mask><g mask="url(#mask0_1139_7357)"><path d="M520.464 0.0348969H0V277.525H520.464V0.0348969Z" fill="#FBFBFB"></path><path d="M520 0H0V29H520V0Z" fill="url(#paint0_linear_1139_7357)"></path><path d="M19.0517 13.3536C19.1484 13.7815 19.1164 14.2196 18.9579 14.6376C18.7995 15.0555 18.5184 15.4433 18.1341 15.7739C17.7499 16.1046 17.2718 16.3702 16.7329 16.5524C16.194 16.7346 15.6073 16.829 15.0135 16.829C14.4196 16.829 13.833 16.7346 13.2941 16.5524C12.7552 16.3702 12.277 16.1046 11.8928 15.7739C11.5086 15.4433 11.2275 15.0555 11.0691 14.6376C10.9106 14.2196 10.8786 13.7815 10.9753 13.3536C10.8786 12.9257 10.9106 12.4876 11.0691 12.0697C11.2275 11.6517 11.5086 11.264 11.8928 10.9333C12.277 10.6027 12.7552 10.337 13.2941 10.1548C13.833 9.97263 14.4196 9.87827 15.0135 9.87827C15.6073 9.87827 16.194 9.97263 16.7329 10.1548C17.2718 10.337 17.7499 10.6027 18.1341 10.9333C18.5184 11.264 18.7995 11.6517 18.9579 12.0697C19.1164 12.4876 19.1484 12.9257 19.0517 13.3536Z" fill="#FFF7E4"></path><path d="M37.7695 13.3536C37.8661 13.7815 37.8341 14.2196 37.6756 14.6376C37.5172 15.0555 37.2361 15.4433 36.8519 15.7739C36.4677 16.1046 35.9896 16.3702 35.4507 16.5524C34.9118 16.7346 34.3251 16.829 33.7313 16.829C33.1374 16.829 32.5507 16.7346 32.0118 16.5524C31.4729 16.3702 30.9948 16.1046 30.6106 15.7739C30.2264 15.4433 29.9453 15.0555 29.7869 14.6376C29.6284 14.2196 29.5964 13.7815 29.6931 13.3536C29.5964 12.9257 29.6284 12.4876 29.7869 12.0697C29.9453 11.6517 30.2264 11.264 30.6106 10.9333C30.9948 10.6027 31.4729 10.337 32.0118 10.1548C32.5507 9.97263 33.1374 9.87827 33.7313 9.87827C34.3251 9.87827 34.9118 9.97263 35.4507 10.1548C35.9896 10.337 36.4677 10.6027 36.8519 10.9333C37.2361 11.264 37.5172 11.6517 37.6756 12.0697C37.8341 12.4876 37.8661 12.9257 37.7695 13.3536Z" fill="#FFF7E4"></path><path d="M55.3142 13.3536C55.4109 13.7815 55.3789 14.2196 55.2204 14.6375C55.062 15.0555 54.7809 15.4432 54.3967 15.7739C54.0125 16.1046 53.5343 16.3702 52.9954 16.5524C52.4565 16.7346 51.8699 16.829 51.276 16.829C50.6822 16.829 50.0955 16.7346 49.5566 16.5524C49.0177 16.3702 48.5396 16.1046 48.1554 15.7739C47.7712 15.4432 47.49 15.0555 47.3316 14.6375C47.1732 14.2196 47.1412 13.7815 47.2378 13.3536C47.1412 12.9257 47.1732 12.4876 47.3316 12.0697C47.49 11.6517 47.7712 11.2639 48.1554 10.9333C48.5396 10.6026 49.0177 10.337 49.5566 10.1548C50.0955 9.9726 50.6822 9.87823 51.276 9.87823C51.8699 9.87823 52.4565 9.9726 52.9954 10.1548C53.5343 10.337 54.0125 10.6026 54.3967 10.9333C54.7809 11.2639 55.062 11.6517 55.2204 12.0697C55.3789 12.4876 55.4109 12.9257 55.3142 13.3536Z" fill="#FFF7E4"></path></g><defs><linearGradient id="paint0_linear_1139_7357" x1="3.23898e-06" y1="-2.465" x2="244.312" y2="251.601" gradientUnits="userSpaceOnUse"><stop stop-color="#0AD174"></stop><stop offset="0.875757" stop-color="#039D55"></stop></linearGradient></defs></svg>