<svg xmlns="http://www.w3.org/2000/svg" width="313" height="313" viewBox="0 0 313 313" fill="none"><g opacity="0.45"><path opacity="0.5" d="M154.151 274.302C217.747 274.302 269.302 222.747 269.302 159.151C269.302 95.5549 217.747 44 154.151 44C90.5549 44 39 95.5549 39 159.151C39 222.747 90.5549 274.302 154.151 274.302Z" stroke="#039D55" stroke-width="0.824558" stroke-dasharray="4.95 4.95"></path></g><g opacity="0.45"><path opacity="0.5" d="M154.646 213.293C184.827 213.293 209.293 188.827 209.293 158.646C209.293 128.466 184.827 104 154.646 104C124.466 104 100 128.466 100 158.646C100 188.827 124.466 213.293 154.646 213.293Z" stroke="#039D55" stroke-width="0.824558" stroke-dasharray="4.95 4.95"></path></g><circle cx="188.707" cy="183.297" r="1.83941" fill="url(#paint0_linear_1209_7406)"></circle><circle cx="114.396" cy="90.5914" r="1.83941" fill="url(#paint1_linear_1209_7406)"></circle><circle cx="29.5" cy="108.5" r="2.5" fill="url(#paint2_linear_1209_7406)"></circle><circle cx="228.439" cy="64.8394" r="1.83941" fill="url(#paint3_linear_1209_7406)"></circle><circle cx="286.564" cy="157.545" r="1.83941" fill="url(#paint4_linear_1209_7406)"></circle><circle cx="230.646" cy="267.174" r="1.83941" fill="url(#paint5_linear_1209_7406)"></circle><defs><linearGradient id="paint0_linear_1209_7406" x1="188.707" y1="181.458" x2="188.707" y2="185.137" gradientUnits="userSpaceOnUse"><stop stop-color="#FF43BD"></stop><stop offset="1" stop-color="#FE625C"></stop></linearGradient><linearGradient id="paint1_linear_1209_7406" x1="114.396" y1="88.752" x2="114.396" y2="92.4308" gradientUnits="userSpaceOnUse"><stop stop-color="#5ABEFF"></stop><stop offset="1" stop-color="#0088FF"></stop></linearGradient><linearGradient id="paint2_linear_1209_7406" x1="29.5" y1="106" x2="29.5" y2="111" gradientUnits="userSpaceOnUse"><stop stop-color="#FF43BD"></stop><stop offset="1" stop-color="#FE625C"></stop></linearGradient><linearGradient id="paint3_linear_1209_7406" x1="228.439" y1="63" x2="228.439" y2="66.6788" gradientUnits="userSpaceOnUse"><stop stop-color="#FF43BD"></stop><stop offset="1" stop-color="#FE625C"></stop></linearGradient><linearGradient id="paint4_linear_1209_7406" x1="286.564" y1="155.706" x2="286.564" y2="159.385" gradientUnits="userSpaceOnUse"><stop stop-color="#EF7822"></stop><stop offset="0.0001" stop-color="#EF7822"></stop><stop offset="1" stop-color="#FFCE31"></stop></linearGradient><linearGradient id="paint5_linear_1209_7406" x1="230.646" y1="265.335" x2="230.646" y2="269.014" gradientUnits="userSpaceOnUse"><stop stop-color="#5ABEFF"></stop><stop offset="1" stop-color="#0088FF"></stop></linearGradient></defs></svg>