<svg xmlns="http://www.w3.org/2000/svg" width="352" height="357" viewBox="0 0 352 357" fill="none"><path d="M80.4306 254.967C20.2138 246.963 7.96917 347.413 -11.5234 324.213C-12.4016 213.318 -23.3242 -4.82418 -21.8508 -11.5068C-20.3774 -18.1893 189.421 -5.43107 306.054 -4.86513L306.305 103.269C281.646 170.283 301.318 187.844 211.774 184.509C148.514 182.153 147.834 263.927 80.4306 254.967Z" fill="white" fill-opacity="0.1"></path><path d="M101.665 276.244C35.0767 267.393 21.5366 378.471 -0.0183687 352.817C-0.989474 230.188 -13.0677 -11.0339 -11.4385 -18.4235C-9.80919 -25.8131 222.186 -11.705 351.16 -11.0792L351.438 108.496C324.169 182.6 345.922 202.02 246.904 198.331C176.952 195.726 176.2 286.152 101.665 276.244Z" fill="white" fill-opacity="0.1"></path></svg>