<svg xmlns="http://www.w3.org/2000/svg" width="358" height="251" viewBox="0 0 358 251" fill="none"><path d="M178.979 251C154.815 251 131.377 246.272 109.308 236.942C87.9859 227.922 68.8414 215.024 52.414 198.602C35.9659 182.159 23.0647 163.041 14.0628 141.725C4.7291 119.663 0 96.2322 0 72.0757C0 47.9191 5.08169 22.7673 15.1206 0L16.6348 0.663528C6.69955 23.2027 1.65933 47.2349 1.65933 72.0757C1.65933 96.9165 6.34694 119.228 15.5977 141.083C24.5373 162.191 37.3141 181.143 53.5963 197.441C69.8785 213.718 88.857 226.512 109.972 235.428C131.834 244.676 155.064 249.362 179 249.362C202.936 249.362 226.166 244.676 248.028 235.428C269.143 226.491 288.122 213.718 304.404 197.441C320.686 181.164 333.483 162.191 342.402 141.083C351.653 119.228 356.341 96.0041 356.341 72.0757C356.341 48.1472 351.3 23.2235 341.365 0.663528L342.879 0C352.918 22.7673 358 47.0068 358 72.0757C358 97.1446 353.271 119.663 343.937 141.725C334.915 163.041 322.013 182.18 305.586 198.602C289.138 215.045 270.014 227.942 248.692 236.942C226.623 246.272 203.185 251 179.021 251H178.979Z" fill="#0461A5" fill-opacity="0.16"></path><path d="M130 124.255L180.403 153L130 66.7554V124.255Z" fill="url(#paint0_linear_1012_815)"></path><path d="M180.403 38L130 66.7544H230.797L180.403 38Z" fill="url(#paint1_linear_1012_815)"></path><path d="M180.4 153L230.794 124.255V66.7554L180.4 153Z" fill="url(#paint2_linear_1012_815)"></path><path d="M130 66.7554L180.403 153L230.797 66.7554H130Z" fill="url(#paint3_linear_1012_815)"></path><path d="M163.406 95.2857C169.769 93.4816 175.727 92.2065 181.354 92.2065C187.033 92.2065 191.661 92.9662 195.237 94.4854C196.657 97.6189 197.367 101.227 197.367 105.31C197.367 109.346 196.131 113.453 193.659 117.631C191.188 121.809 187.586 125.298 182.853 128.099C178.172 130.853 172.914 132.301 167.077 132.443L163.406 95.2857ZM174.097 127.53C177.988 126.105 180.933 123.613 182.932 120.052C184.93 116.444 185.929 112.859 185.929 109.298C185.929 102.367 184.141 97.9513 180.565 96.0522C179.829 96.0522 178.882 96.1946 177.725 96.4795L174.097 127.53Z" fill="url(#paint4_radial_1012_815)"></path><path d="M164.69 94.913C171.053 93.1089 177.048 92.2068 182.675 92.2068C188.355 92.2068 192.982 92.9665 196.558 94.4857C197.978 97.6192 198.688 101.227 198.688 105.311C198.688 109.346 197.452 113.453 194.98 117.631C192.509 121.809 188.907 125.298 184.174 128.1C179.494 130.853 174.235 132.301 168.398 132.444L164.69 94.913ZM175.418 127.53C179.31 126.105 182.254 123.613 184.253 120.052C186.251 116.444 187.25 112.859 187.25 109.299C187.25 102.367 185.462 97.9516 181.886 96.0525C181.15 96.0525 180.204 96.1949 179.047 96.4798L175.418 127.53Z" fill="url(#paint5_linear_1012_815)"></path><path d="M179.748 84.9066C185.259 84.782 190.565 85.589 195.66 87.3517C196.371 87.5982 197.076 87.8528 197.515 88.4321C198.195 89.3318 198.138 90.3875 197.357 91.2316C196.617 92.0329 195.378 92.3383 194.154 91.9539C191.175 91.0179 188.124 90.3471 184.954 90.0497C178.357 89.4313 172.032 90.3002 165.958 92.5533C165.299 92.7982 164.649 92.948 163.935 92.798C162.774 92.5551 161.942 91.8021 161.8 90.8605C161.63 89.7371 162.216 88.8222 163.518 88.283C166.032 87.2422 168.65 86.4319 171.367 85.8627C174.119 85.2879 176.913 84.9667 179.748 84.9066Z" fill="#FBA505"></path><path d="M202.325 78.092C200.762 80.1291 199.324 82.2442 198.368 84.5644C198.156 85.0797 198.233 85.8637 197.737 86.0047C197.284 86.1341 196.968 85.7951 195.996 85.4041C185.229 81.661 174.523 81.8142 163.877 85.8187C163.743 85.8692 163.611 85.9224 163.481 85.9788C162.655 86.3382 161.351 85.7816 161.12 84.9096C160.411 82.2334 158.637 79.9683 157.05 77.6308C158.368 78.608 159.639 79.605 161.196 80.2828C164.072 81.5353 166.375 80.6926 167.263 78.0188C167.88 76.1621 167.646 74.2905 167.316 72.423C167.275 72.1936 167.224 71.9658 167.167 71.6867C167.585 71.8935 167.655 72.2327 167.822 72.5052C168.728 73.9787 169.896 75.2658 171.427 76.2917C172.997 77.343 174.868 77.2016 176.169 75.8956C177.773 74.2863 178.495 72.3178 179.015 70.3004C179.384 68.8742 179.61 67.4211 179.936 65.7968C180.333 68.5901 180.876 71.1675 182.157 73.5833C182.584 74.3877 183.086 75.1553 183.783 75.8103C185.162 77.1068 187.044 77.208 188.624 76.1019C190.469 74.8102 191.69 73.1297 192.721 71.3038C192.48 72.7168 192.299 74.1229 192.364 75.5453C192.413 76.6432 192.603 77.7125 193.192 78.697C194.254 80.4704 196.019 81.0097 198.156 80.2449C199.665 79.7051 200.875 78.7976 202.087 77.8916C202.284 77.8545 202.376 77.9115 202.325 78.092Z" fill="#FBA505"></path><path d="M156.807 75.8098C156.727 76.7066 155.777 77.3912 154.741 77.2994C153.756 77.2124 152.958 76.3971 153.046 75.5684C153.14 74.6795 154.109 73.9799 155.119 74.0717C156.116 74.1627 156.884 74.9542 156.807 75.8098Z" fill="#FBA505"></path><path d="M196.057 68.504C196.068 69.4051 195.19 70.1777 194.162 70.1706C193.2 70.1635 192.31 69.4012 192.285 68.5616C192.258 67.6754 193.144 66.9163 194.192 66.9266C195.213 66.9369 196.047 67.6423 196.057 68.504Z" fill="#FBA505"></path><path d="M203.944 77.3073C202.879 77.2867 202.046 76.524 202.097 75.6164C202.146 74.7404 203.006 74.0427 204.009 74.064C205.052 74.087 205.918 74.8782 205.866 75.7605C205.816 76.623 204.941 77.3263 203.944 77.3073Z" fill="#FBA505"></path><path d="M182.472 62.4007C182.44 63.4828 181.341 64.3815 180.114 64.3293C178.889 64.277 177.934 63.4058 177.945 62.3522C177.956 61.2568 179.005 60.4008 180.288 60.4398C181.502 60.4759 182.503 61.3746 182.472 62.4007Z" fill="#FBA505"></path><path d="M166.27 66.9265C167.313 66.9337 168.121 67.6198 168.133 68.509C168.145 69.4028 167.243 70.1869 166.222 70.1704C165.219 70.1538 164.375 69.4242 164.36 68.5603C164.343 67.6404 165.187 66.9194 166.27 66.9265Z" fill="#FBA505"></path><defs><linearGradient id="paint0_linear_1012_815" x1="155.202" y1="153" x2="155.202" y2="66.7554" gradientUnits="userSpaceOnUse"><stop stop-color="#DAE8F2"></stop><stop offset="1" stop-color="#F3FAFF"></stop></linearGradient><linearGradient id="paint1_linear_1012_815" x1="180.399" y1="71.5" x2="180.399" y2="38" gradientUnits="userSpaceOnUse"><stop stop-color="white"></stop><stop offset="1" stop-color="#DAE8F2"></stop></linearGradient><linearGradient id="paint2_linear_1012_815" x1="205.597" y1="153" x2="205.597" y2="66.7554" gradientUnits="userSpaceOnUse"><stop stop-color="#DAE8F2"></stop><stop offset="1" stop-color="#F3FAFF"></stop></linearGradient><linearGradient id="paint3_linear_1012_815" x1="180.399" y1="153" x2="180.399" y2="66.7554" gradientUnits="userSpaceOnUse"><stop stop-color="white"></stop><stop offset="1" stop-color="#DAE8F2"></stop></linearGradient><radialGradient id="paint4_radial_1012_815" cx="0" cy="0" r="1" gradientUnits="userSpaceOnUse" gradientTransform="translate(181.047 106.772) rotate(90) scale(25.6717 27.9583)"><stop stop-color="#0458A5"></stop><stop offset="0.265625" stop-color="#0059AB"></stop><stop offset="0.609375" stop-color="#003E77"></stop><stop offset="0.75" stop-color="#006BCD"></stop><stop offset="1" stop-color="#024B8E"></stop></radialGradient><linearGradient id="paint5_linear_1012_815" x1="181.029" y1="60.5712" x2="181.029" y2="132.444" gradientUnits="userSpaceOnUse"><stop stop-color="#0458A5"></stop><stop offset="0.265625" stop-color="#0059AB"></stop><stop offset="0.609375" stop-color="#003E77"></stop><stop offset="0.75" stop-color="#006BCD"></stop><stop offset="1" stop-color="#024B8E"></stop></linearGradient></defs></svg>