<svg xmlns="http://www.w3.org/2000/svg" width="1440" height="480" viewBox="0 0 1440 480" fill="none"><path d="M0 20C0 8.95431 8.95431 0 20 0L1420 0C1431.05 0 1440 8.95431 1440 20V460C1440 471.046 1431.05 480 1420 480H20C8.95432 480 0 471.046 0 460V20Z" fill="#E4F5FF"></path><g clip-path="url(#clip0_1101_809)"><path d="M20 35C20 23.9543 28.9543 15 40 15L1400 15C1411.05 15 1420 23.9543 1420 35V445C1420 456.046 1411.05 465 1400 465H40C28.9543 465 20 456.046 20 445V35Z" fill="url(#paint0_linear_1101_809)"></path><path d="M184.606 125.887C49.0376 119.57 21.4708 198.84 -22.4137 180.532C-24.3908 93.0197 -48.9813 -79.1261 -45.6642 -84.3996C-42.3471 -89.6732 429.981 -79.605 692.562 -79.1584L693.128 6.17513C637.611 59.0586 681.899 72.9174 480.305 70.2853C337.886 68.4258 336.355 132.958 184.606 125.887Z" fill="white" fill-opacity="0.04"></path><path d="M232.41 142.678C82.4978 135.693 52.0143 223.35 3.48671 203.105C1.30043 106.333 -25.8919 -84.0263 -22.2238 -89.8578C-18.5558 -95.6893 503.746 -84.5559 794.109 -84.0621L794.735 10.3001C733.344 68.7789 782.318 84.1039 559.394 81.1933C401.908 79.1371 400.214 150.497 232.41 142.678Z" fill="white" fill-opacity="0.04"></path><path d="M1230.04 352.178C1405.44 360.351 1441.11 257.789 1497.89 281.476C1500.45 394.703 1532.26 617.43 1527.97 624.254C1523.68 631.077 912.569 618.05 572.833 617.472L572.101 507.065C643.93 438.643 586.629 420.712 847.458 424.117C1031.72 426.523 1033.7 343.03 1230.04 352.178Z" fill="white" fill-opacity="0.04"></path><path d="M1168.19 330.453C1362.15 339.491 1401.59 226.078 1464.38 252.271C1467.21 377.477 1502.39 623.771 1497.64 631.316C1492.9 638.86 817.128 624.456 441.447 623.817L440.637 501.728C520.066 426.066 456.703 406.238 745.128 410.004C948.889 412.665 951.081 320.337 1168.19 330.453Z" fill="white" fill-opacity="0.04"></path></g><defs><linearGradient id="paint0_linear_1101_809" x1="95.5765" y1="472.531" x2="654.46" y2="-576.625" gradientUnits="userSpaceOnUse"><stop stop-color="#006EBE"></stop><stop offset="1" stop-color="#05497A"></stop></linearGradient><clipPath id="clip0_1101_809"><rect width="1400" height="450" fill="white" transform="translate(20 15)"></rect></clipPath></defs></svg>