<svg xmlns="http://www.w3.org/2000/svg" width="64" height="64" viewBox="0 0 64 64" fill="none"><g opacity="0.15"><path d="M60.7136 43.3078C60.7136 44.8364 60.3662 46.1914 59.6714 47.3726C59.0461 48.4843 58.2123 49.4223 57.17 50.1866C56.1278 50.9509 54.9813 51.5415 53.7306 51.9584C52.5494 52.3058 51.4377 52.4795 50.3955 52.4795C48.7974 52.4795 47.1645 52.1321 45.497 51.4373C43.8988 50.673 42.4397 49.596 41.1195 48.2064C39.7994 46.8167 38.7224 45.1491 37.8886 43.2036C37.0548 41.2581 36.6379 39.1041 36.6379 36.7417C36.6379 32.6422 37.4022 29.1334 38.9308 26.2151C40.5289 23.2968 42.405 20.8649 44.5589 18.9194C46.7824 16.9044 49.0406 15.3411 51.3335 14.2294C53.6959 13.0481 55.6414 12.2144 57.17 11.728V15.0631C55.7804 15.8969 54.2865 16.8002 52.6884 17.773C51.1598 18.7457 49.7354 19.8922 48.4152 21.2124C47.1645 22.5325 46.1223 24.0264 45.2885 25.694C44.4547 27.3616 44.0378 29.2376 44.0378 31.3221C44.0378 32.3643 44.142 33.1981 44.3505 33.8235C44.5589 34.4488 44.8021 34.9352 45.0801 35.2826C45.4275 35.63 45.7401 35.8732 46.0181 36.0122C46.3655 36.1511 46.6434 36.2206 46.8519 36.2206C47.6162 36.2206 48.5542 36.0122 49.6659 35.5953C50.7776 35.1089 51.8199 34.8657 52.7926 34.8657C53.6959 34.8657 54.5992 35.0741 55.5024 35.491C56.4752 35.8384 57.3437 36.3943 58.108 37.1586C58.8724 37.8534 59.4977 38.722 59.9841 39.7642C60.4705 40.8065 60.7136 41.9877 60.7136 43.3078ZM28.2088 43.0994C28.2088 44.628 27.8614 45.9829 27.1666 47.1641C26.5412 48.3453 25.7074 49.3181 24.6652 50.0824C23.623 50.7772 22.4765 51.3331 21.2258 51.75C20.0446 52.0974 18.8981 52.2711 17.7864 52.2711C16.1883 52.2711 14.5902 51.9237 12.9921 51.2288C11.394 50.4645 9.93488 49.4223 8.61471 48.1021C7.29454 46.7125 6.21756 45.0449 5.38377 43.0994C4.61946 41.1539 4.2373 38.9999 4.2373 36.6375C4.2373 32.538 5.00161 29.0292 6.53023 26.1109C8.12833 23.1231 10.0044 20.6565 12.1583 18.711C14.3818 16.696 16.64 15.1326 18.9329 14.0209C21.2258 12.8397 23.1366 12.0059 24.6652 11.5195V14.9589C23.2755 15.7927 21.7817 16.696 20.1836 17.6687C18.6549 18.6415 17.2306 19.788 15.9104 21.1081C14.6597 22.4283 13.5827 23.9222 12.6794 25.5898C11.8457 27.1879 11.4288 29.0639 11.4288 31.2179C11.4288 33.1634 11.8109 34.4488 12.5752 35.0741C13.409 35.6995 14.0344 36.0122 14.4512 36.0122C15.1461 36.0122 16.0493 35.8037 17.1611 35.3868C18.2728 34.9699 19.315 34.7615 20.2878 34.7615C21.1911 34.7615 22.0943 34.9699 22.9976 35.3868C23.9704 35.7342 24.8389 36.2901 25.6032 37.0544C26.3675 37.7492 26.9929 38.6178 27.4792 39.66C27.9656 40.6327 28.2088 41.7792 28.2088 43.0994Z" fill="#0461A5"></path></g></svg>