<svg xmlns="http://www.w3.org/2000/svg" width="2560" height="100" viewBox="0 0 2560 100" fill="none"><g clip-path="url(#clip0_2001_2)"><path d="M183.596 -547.75H238.496L372.196 -400.55L781.396 49.95L502.796 590.95L473.596 647.65H396.796L452.096 561.75L781.396 49.95L1231.9 459.05L1379.1 592.75V647.55H1324.3L1190.6 500.35L781.396 50.05L240.296 328.55L183.596 357.75V434.45L269.496 379.25L781.296 50.05L240.296 -228.65L183.596 -257.75V-334.55L269.496 -279.25L781.296 50.05L966.896 -529.55L972.696 -547.75H910.996L910.396 -544.75L781.396 50.05L1322.4 328.65L1379.1 357.85V434.55L1293.2 379.25L781.396 50.05L1322.4 -228.55L1379.1 -257.75V-334.55L1293.2 -279.25L781.396 50.05L186.596 -79.15L183.596 -79.75V-141.35L201.796 -135.55L781.396 50.05L1059.9 -491.05L1089.2 -547.75H1165.9L1110.6 -461.85L781.396 50.05L1376.1 179.15L1379.1 179.75V241.45L1360.9 235.65L781.396 50.05L330.796 459.15L183.596 592.85V647.65H238.496L372.196 500.45L781.396 49.95L183.596 78.75V21.25L781.396 50.05L810.096 -547.75H752.596L781.396 50.05L1379.1 21.25V78.75L781.396 50.05L1231.9 -359.15L1379.1 -492.85V-547.75H1324.3L1190.6 -400.55L781.396 50.05L201.796 235.55L183.596 241.35V179.65L186.596 179.05L781.296 49.95L966.796 629.45L972.596 647.65H910.896L910.296 644.65L781.396 50.05L452.096 -461.85L396.796 -547.75H473.596L502.796 -491.05L781.396 50.05L595.796 629.55L589.996 647.75H651.596L652.196 644.75L781.296 50.05L1110.6 561.75L1165.9 647.65H1089.2L1060 590.95L781.396 49.95L1376.1 -79.15L1379.1 -79.75V-141.35L1360.9 -135.55L781.396 50.05L330.796 -359.15L183.596 -492.85V-547.75ZM589.896 -547.75H651.596L652.196 -544.75L781.296 49.95L809.996 647.65H752.596L781.396 49.95L595.796 -529.55L589.896 -547.75Z" fill="url(#paint0_radial_2001_2)" fill-opacity="0.1"></path></g><defs><radialGradient id="paint0_radial_2001_2" cx="0" cy="0" r="1" gradientUnits="userSpaceOnUse" gradientTransform="translate(781.336 49.985) scale(583.545)"><stop stop-color="white"></stop><stop offset="0.17" stop-color="white" stop-opacity="0.99"></stop><stop offset="0.31" stop-color="white" stop-opacity="0.95"></stop><stop offset="0.43" stop-color="white" stop-opacity="0.88"></stop><stop offset="0.54" stop-color="white" stop-opacity="0.79"></stop><stop offset="0.64" stop-color="white" stop-opacity="0.67"></stop><stop offset="0.74" stop-color="white" stop-opacity="0.53"></stop><stop offset="0.84" stop-color="white" stop-opacity="0.35"></stop><stop offset="0.93" stop-color="white" stop-opacity="0.16"></stop><stop offset="1" stop-color="white" stop-opacity="0"></stop></radialGradient><clipPath id="clip0_2001_2"><rect width="2560" height="100" fill="white"></rect></clipPath></defs></svg>