<svg xmlns="http://www.w3.org/2000/svg" width="40" height="40" viewBox="0 0 40 40" fill="none"><rect width="40" height="40" rx="5" fill="url(#paint0_linear_3020_68)"></rect><g clip-path="url(#clip0_3020_68)"><path d="M28.1591 15.6484H23.1383C22.1197 15.6484 21.2971 16.4729 21.2971 17.4896V28.1589C21.2971 29.1774 22.1215 30 23.1383 30H28.1591C29.1777 30 30.0002 29.1756 30.0002 28.1588V17.4896C30.0002 16.471 29.1758 15.6484 28.1591 15.6484ZM26.2763 18.1588H25.0211C24.6975 18.1588 24.4351 17.8965 24.4351 17.5729C24.4351 17.2493 24.6975 16.987 25.0211 16.987H26.2763C26.5999 16.987 26.8622 17.2493 26.8622 17.5729C26.8622 17.8965 26.5999 18.1588 26.2763 18.1588Z" fill="white"></path><path d="M16.2759 26.3174H14.979C14.6554 26.3174 14.3931 26.5797 14.3931 26.9033C14.3931 27.2269 14.6554 27.4893 14.979 27.4893H20.1248V24.8955H16.2758V26.3174H16.2759Z" fill="white"></path><path d="M28.1588 14.4766C28.3593 14.4766 28.5552 14.4967 28.7448 14.5342V11.8411C28.7448 10.8259 27.9188 10 26.9036 10H11.8411C10.8259 10 10 10.826 10 11.8412V21.8828C10 22.898 10.8259 23.7239 11.8411 23.7239H20.125V17.4896C20.125 15.8282 21.4766 14.4765 23.138 14.4765L28.1588 14.4766Z" fill="white"></path></g><defs><linearGradient id="paint0_linear_3020_68" x1="27.1698" y1="-5.21306e-08" x2="28.5053" y2="51.1549" gradientUnits="userSpaceOnUse"><stop stop-color="#2486F2"></stop><stop offset="0.234375" stop-color="#2486F2"></stop><stop offset="0.941554" stop-color="#1B72D1"></stop></linearGradient><clipPath id="clip0_3020_68"><rect width="20" height="20" fill="white" transform="translate(10 10)"></rect></clipPath></defs></svg>