<svg xmlns="http://www.w3.org/2000/svg" width="250" height="55" viewBox="0 0 250 55" fill="none"><g clip-path="url(#clip0_1160_137)"><path d="M74.8855 28.3365C74.1424 27.6755 73.2656 27.1207 72.2519 26.6686C71.2382 26.2166 70.1251 25.8535 68.9128 25.583L66.4161 24.9871C65.81 24.8501 65.2414 24.6857 64.7072 24.4905C64.1729 24.2953 63.7037 24.0658 63.2962 23.7987C62.8886 23.5315 62.5701 23.213 62.3407 22.8432C62.1112 22.4733 62.0051 22.0384 62.0222 21.5418C62.0222 20.9459 62.1968 20.4116 62.5462 19.9424C62.8955 19.4732 63.3989 19.1033 64.0599 18.8362C64.7209 18.5691 65.5291 18.4355 66.4881 18.4355C67.8991 18.4355 69.0155 18.7403 69.8409 19.3431C70.6628 19.9493 71.1286 20.7986 71.2382 21.8945H76.8685C76.8411 20.2404 76.3993 18.7848 75.5397 17.5245C74.6801 16.2676 73.478 15.2847 71.9368 14.5792C70.3957 13.8737 68.5908 13.521 66.5291 13.521C64.4674 13.521 62.6934 13.8737 61.1009 14.5792C59.5084 15.2847 58.2584 16.2676 57.3508 17.5245C56.4433 18.7814 55.9912 20.2506 56.0015 21.9356C55.9912 23.9905 56.6659 25.6206 58.0221 26.833C59.3783 28.0454 61.2276 28.9358 63.5702 29.5043L66.5942 30.2646C67.6079 30.5078 68.4641 30.7783 69.1662 31.0797C69.8683 31.3777 70.4025 31.7407 70.7656 32.1653C71.132 32.59 71.3135 33.114 71.3135 33.7407C71.3135 34.412 71.1115 35.001 70.7039 35.5182C70.2964 36.0353 69.7244 36.436 68.9881 36.7271C68.2518 37.0148 67.3853 37.1621 66.3887 37.1621C65.3921 37.1621 64.4675 37.0045 63.6695 36.6929C62.8681 36.3812 62.2311 35.9154 61.755 35.2956C61.279 34.6757 61.0119 33.9017 60.9468 32.9702H55.2617C55.3062 34.9702 55.7926 36.6449 56.7207 37.9977C57.6488 39.3505 58.9399 40.371 60.6009 41.056C62.2619 41.7409 64.2106 42.0868 66.4538 42.0868C68.697 42.0868 70.6491 41.7444 72.2553 41.0628C73.8615 40.3813 75.091 39.4155 75.9472 38.1724C76.8034 36.9292 77.2349 35.4565 77.2418 33.7544C77.2315 32.5969 77.0226 31.5694 76.6116 30.6756C76.2006 29.7783 75.6219 29.0009 74.8821 28.3433L74.8855 28.3365Z" fill="#FB5607"></path><path d="M91.0026 37.244C90.732 37.2954 90.4614 37.3194 90.1875 37.3194C89.797 37.3194 89.458 37.2611 89.1635 37.1413C88.8689 37.0248 88.6429 36.8193 88.4785 36.5248C88.3141 36.2303 88.2354 35.8159 88.2354 35.2851V25.1923H92.1567V20.8497H88.2354V15.8564H82.4544V20.8497H79.605V25.1923H82.4544V36.0454C82.4441 37.4118 82.7318 38.542 83.3106 39.4359C83.8893 40.3297 84.701 40.9907 85.7456 41.4154C86.7901 41.84 88.0093 42.025 89.4032 41.9702C90.1532 41.9428 90.7902 41.8674 91.3176 41.7476C91.8416 41.6243 92.2492 41.5181 92.5403 41.4291L91.6327 37.1276C91.4889 37.155 91.28 37.1926 91.0094 37.244H91.0026Z" fill="#FB5607"></path><path d="M110.914 22.2474C110.085 21.6789 109.14 21.2577 108.078 20.9871C107.017 20.7166 105.907 20.5796 104.746 20.5796C103.082 20.5796 101.619 20.8296 100.355 21.333C99.0917 21.8365 98.0643 22.5488 97.2697 23.4769C96.4752 24.405 95.9409 25.501 95.6704 26.7681L101.016 27.2031C101.215 26.5147 101.623 25.9428 102.239 25.4873C102.856 25.0318 103.681 24.8023 104.722 24.8023C105.708 24.8023 106.469 25.0386 107.01 25.5078C107.547 25.977 107.818 26.6414 107.818 27.501V27.5832C107.818 28.025 107.65 28.3606 107.315 28.5867C106.979 28.8127 106.441 28.9839 105.701 29.0969C104.958 29.21 103.982 29.3298 102.77 29.4565C101.739 29.5559 100.756 29.7271 99.8178 29.9703C98.8828 30.2134 98.0472 30.5764 97.3143 31.0559C96.5814 31.5354 96.0026 32.169 95.5779 32.9566C95.1532 33.7443 94.9409 34.717 94.9409 35.8745C94.9409 37.2479 95.2423 38.3951 95.8416 39.313C96.4444 40.2308 97.2629 40.9226 98.304 41.3884C99.3452 41.8541 100.53 42.087 101.859 42.087C102.89 42.087 103.801 41.95 104.585 41.6726C105.373 41.3987 106.047 41.0117 106.606 40.5185C107.167 40.0253 107.613 39.4534 107.948 38.8027H108.113V41.6932H113.592V27.638C113.592 26.3982 113.352 25.3331 112.873 24.4427C112.393 23.5523 111.739 22.8228 110.914 22.2509V22.2474ZM107.856 34.2409C107.856 34.9738 107.671 35.6279 107.301 36.2067C106.931 36.7855 106.417 37.2444 105.767 37.5835C105.116 37.9225 104.366 38.0938 103.513 38.0938C102.66 38.0938 101.897 37.8883 101.321 37.4773C100.746 37.0663 100.458 36.467 100.458 35.6793C100.458 35.1382 100.599 34.6827 100.879 34.3163C101.16 33.9498 101.554 33.6587 102.061 33.4395C102.568 33.2238 103.16 33.0628 103.838 32.9635C104.154 32.919 104.506 32.8676 104.897 32.806C105.284 32.7477 105.674 32.6792 106.065 32.6039C106.455 32.5285 106.804 32.4395 107.116 32.347C107.428 32.2546 107.674 32.145 107.856 32.0285V34.2409Z" fill="#FB5607"></path><path d="M125.226 25.8058C125.89 25.3229 126.671 25.0797 127.565 25.0797C128.623 25.0797 129.479 25.3982 130.137 26.0352C130.791 26.6722 131.199 27.5113 131.353 28.5524H136.805C136.723 26.9428 136.284 25.5421 135.49 24.3468C134.695 23.1516 133.613 22.2269 132.247 21.5659C130.88 20.9049 129.288 20.5762 127.472 20.5762C125.366 20.5762 123.548 21.0317 122.017 21.9392C120.489 22.8468 119.311 24.1105 118.482 25.7236C117.654 27.3366 117.243 29.2134 117.243 31.347C117.243 33.4806 117.654 35.3163 118.469 36.9362C119.287 38.5561 120.462 39.8199 121.996 40.7274C123.531 41.635 125.363 42.0905 127.496 42.0905C129.349 42.0905 130.955 41.7514 132.312 41.0733C133.668 40.3952 134.733 39.4534 135.507 38.2445C136.281 37.0355 136.712 35.6382 136.801 34.0457H131.349C131.24 34.7786 131.014 35.4053 130.664 35.9259C130.315 36.4465 129.877 36.8403 129.349 37.1143C128.822 37.3883 128.226 37.5218 127.565 37.5218C126.668 37.5218 125.887 37.2787 125.219 36.7889C124.551 36.2992 124.031 35.5903 123.664 34.6587C123.298 33.7272 123.116 32.5971 123.116 31.2682C123.116 29.9394 123.301 28.8401 123.671 27.9154C124.041 26.9942 124.558 26.2887 125.226 25.8058Z" fill="#FB5607"></path><path d="M159.926 20.8502H153.292L146.617 28.7579H146.305V13.9014H140.524V41.6898H146.305V35.0732L147.87 33.282L153.549 41.6898H160.319L152.196 29.8744L159.926 20.8502Z" fill="#FB5607"></path><path d="M162.857 41.6898H168.73V30.21H180.032V25.3674H168.73V18.744H181.255V13.9014H162.857V41.6898Z" fill="#FB5607"></path><path d="M198.451 21.9255C196.916 21.0248 195.098 20.5762 192.988 20.5762C190.878 20.5762 189.06 21.0248 187.526 21.9255C185.991 22.8262 184.81 24.0831 183.978 25.6962C183.145 27.3092 182.731 29.1928 182.731 31.347C182.731 33.5012 183.145 35.3574 183.978 36.9705C184.81 38.5835 185.991 39.8438 187.526 40.7411C189.06 41.6384 190.878 42.0905 192.988 42.0905C195.098 42.0905 196.916 41.6418 198.451 40.7411C199.985 39.8404 201.166 38.5835 201.999 36.9705C202.831 35.3574 203.245 33.4806 203.245 31.347C203.245 29.2134 202.831 27.3092 201.999 25.6962C201.166 24.0831 199.985 22.8262 198.451 21.9255ZM196.875 34.5492C196.546 35.4978 196.06 36.2478 195.416 36.7958C194.772 37.3438 193.974 37.6177 193.015 37.6177C192.057 37.6177 191.235 37.3438 190.58 36.7958C189.926 36.2478 189.433 35.5012 189.101 34.5492C188.769 33.5971 188.604 32.5183 188.604 31.3059C188.604 30.0936 188.769 29.0148 189.101 28.0627C189.43 27.114 189.923 26.364 190.58 25.8092C191.238 25.2578 192.05 24.9804 193.015 24.9804C193.981 24.9804 194.776 25.2578 195.416 25.8092C196.06 26.3606 196.543 27.1106 196.875 28.0627C197.204 29.0113 197.372 30.0936 197.372 31.3059C197.372 32.5183 197.207 33.6005 196.875 34.5492Z" fill="#FB5607"></path><path d="M221.896 21.9255C220.362 21.0248 218.544 20.5762 216.434 20.5762C214.324 20.5762 212.506 21.0248 210.971 21.9255C209.437 22.8262 208.256 24.0831 207.423 25.6962C206.591 27.3092 206.177 29.1928 206.177 31.347C206.177 33.5012 206.591 35.3574 207.423 36.9705C208.256 38.5835 209.437 39.8438 210.971 40.7411C212.506 41.6384 214.324 42.0905 216.434 42.0905C218.544 42.0905 220.362 41.6418 221.896 40.7411C223.431 39.8404 224.612 38.5835 225.444 36.9705C226.277 35.3574 226.691 33.4806 226.691 31.347C226.691 29.2134 226.277 27.3092 225.444 25.6962C224.612 24.0831 223.431 22.8262 221.896 21.9255ZM220.321 34.5492C219.992 35.4978 219.506 36.2478 218.862 36.7958C218.218 37.3438 217.42 37.6177 216.461 37.6177C215.502 37.6177 214.68 37.3438 214.026 36.7958C213.372 36.2478 212.879 35.5012 212.547 34.5492C212.215 33.5971 212.05 32.5183 212.05 31.3059C212.05 30.0936 212.215 29.0148 212.547 28.0627C212.876 27.114 213.369 26.364 214.026 25.8092C214.684 25.2578 215.495 24.9804 216.461 24.9804C217.427 24.9804 218.222 25.2578 218.862 25.8092C219.506 26.3606 219.989 27.1106 220.321 28.0627C220.65 29.0113 220.818 30.0936 220.818 31.3059C220.818 32.5183 220.653 33.6005 220.321 34.5492Z" fill="#FB5607"></path><path d="M244.236 13.9014V24.3469H244.058C243.804 23.7852 243.434 23.2133 242.952 22.6311C242.469 22.0489 241.835 21.5591 241.051 21.1653C240.267 20.7714 239.294 20.5762 238.126 20.5762C236.599 20.5762 235.195 20.9735 233.914 21.7646C232.633 22.5557 231.609 23.7441 230.842 25.3332C230.071 26.9188 229.688 28.9086 229.688 31.2957C229.688 33.6827 230.061 35.58 230.807 37.176C231.554 38.7719 232.568 39.9808 233.845 40.7994C235.126 41.6179 236.558 42.0254 238.14 42.0254C239.26 42.0254 240.212 41.8405 240.996 41.4706C241.78 41.1007 242.417 40.6315 242.91 40.0665C243.404 39.5014 243.787 38.9294 244.058 38.3507H244.301V41.6898H250V13.9014H244.232H244.236ZM243.835 34.5115C243.486 35.4328 242.989 36.152 242.342 36.6623C241.695 37.1726 240.907 37.4294 239.975 37.4294C239.044 37.4294 238.229 37.1691 237.582 36.6486C236.934 36.128 236.441 35.4054 236.102 34.4773C235.763 33.5492 235.592 32.4806 235.592 31.2683C235.592 30.0559 235.76 29.0079 236.095 28.0935C236.431 27.1791 236.924 26.4668 237.575 25.9496C238.225 25.4325 239.027 25.1756 239.975 25.1756C240.924 25.1756 241.698 25.4257 242.349 25.9222C243 26.4188 243.496 27.1243 243.842 28.0387C244.184 28.9531 244.359 30.0285 244.359 31.2683C244.359 32.508 244.184 33.5868 243.835 34.5115Z" fill="#FB5607"></path><path d="M0 41.4363L24.1705 55.2452L0 13.814V41.4363Z" fill="url(#paint0_linear_1160_137)"></path><path d="M24.1704 0L0 13.8134H48.3363L24.1704 0Z" fill="url(#paint1_linear_1160_137)"></path><path d="M24.1748 55.2452L48.3407 41.4363V13.814L24.1748 55.2452Z" fill="url(#paint2_linear_1160_137)"></path><path d="M0 13.814L24.1704 55.2452L48.3363 13.814H0Z" fill="url(#paint3_linear_1160_137)"></path><path d="M38.809 24.1206H9.14039C8.79106 24.1206 8.50681 23.8774 8.54791 23.6C8.91778 20.9835 10.4007 18.6341 12.6097 16.8669C15.1748 14.8155 18.7194 13.5449 22.6373 13.5449H25.3155C32.6034 13.5449 38.6069 17.9423 39.4049 23.6C39.4426 23.8774 39.1583 24.124 38.809 24.124V24.1206Z" fill="white"></path><path d="M39.422 35.9497C39.2131 37.3059 38.5761 38.5217 37.648 39.4464C36.5076 40.5868 34.9322 41.2923 33.189 41.2923H14.7604C11.6062 41.2923 8.98969 38.9738 8.52734 35.9463H39.422V35.9497Z" fill="white"></path><path d="M39.4975 32.3023V33.6174C39.4975 33.9975 39.0763 34.2338 38.7612 34.0249L38.7509 34.0181C38.7132 33.9941 34.6344 31.3365 29.2335 31.6721C27.4527 31.7817 26.0108 32.316 24.4834 32.8776C22.8121 33.4941 21.086 34.1345 18.8702 34.2441C18.562 34.2612 18.2538 34.2681 17.9524 34.2681C13.7434 34.2681 10.3358 33.0797 8.72612 32.2852C8.56173 32.203 8.45557 32.0351 8.45557 31.8536V30.5351C8.45557 30.1652 8.86311 29.9392 9.17819 30.1378C9.23641 30.1755 13.4043 32.4975 18.7367 32.2338C20.5415 32.1447 22.0039 31.6036 23.5519 31.0317C25.1923 30.4255 26.891 29.7988 29.0657 29.6618C33.7576 29.3707 37.5214 30.9735 39.2407 31.8776C39.3982 31.9598 39.4975 32.1242 39.4975 32.3023Z" fill="white"></path><path d="M39.4975 28.4872V29.8297C39.4975 30.1995 39.09 30.429 38.7783 30.2304C38.768 30.2235 38.7612 30.2201 38.7509 30.2132C38.7132 30.1893 34.6344 27.7988 29.2335 28.1344C27.4527 28.244 26.0108 28.7783 24.4834 29.3399C22.8121 29.9564 21.086 30.5968 18.8702 30.7064C18.562 30.7235 18.2538 30.7304 17.9524 30.7304C13.7331 30.7304 10.3186 29.292 8.71242 28.4769C8.55488 28.3947 8.45557 28.2337 8.45557 28.0556V26.7303C8.45557 26.3604 8.86311 26.1344 9.17819 26.333C9.23641 26.3707 13.4043 28.9632 18.7367 28.6961C20.5415 28.607 22.0039 28.0659 23.5519 27.494C25.1923 26.8878 26.891 26.2611 29.0657 26.1241C33.7576 25.833 37.5249 27.1926 39.2407 28.0728C39.3982 28.1515 39.4941 28.3159 39.4941 28.4906L39.4975 28.4872Z" fill="white"></path><path d="M24.35 25.6685C23.8294 25.8431 23.3294 26.0281 22.8534 26.2061C21.3944 26.7473 20.1341 27.213 18.6375 27.2849C18.4149 27.2952 18.1889 27.3021 17.9663 27.3021C14.9251 27.3021 12.3497 26.2781 11.0859 25.6685H24.3534H24.35Z" fill="#E6E6E6"></path><path d="M39.4907 25.9459V26.5144C39.4907 26.6993 39.3126 26.8363 39.1345 26.7884C37.816 26.4527 36.7475 25.9973 36.0591 25.6582H39.2064C39.364 25.6582 39.4907 25.7849 39.4907 25.9425V25.9459Z" fill="#E6E6E6"></path><path d="M30.1788 32.9048C33.2063 32.9048 35.6995 33.9391 36.8913 34.5384H23.73C24.2368 34.3672 24.7197 34.1891 25.1855 34.0178C26.6273 33.4836 27.8739 33.0247 29.3603 32.9322C29.6308 32.9151 29.9082 32.9082 30.1788 32.9082V32.9048Z" fill="#E6E6E6"></path><path d="M11.9968 34.5419H8.71243C8.56859 34.5419 8.45215 34.4254 8.45215 34.2816V33.6069C8.45215 33.4391 8.60969 33.3124 8.77408 33.3535C10.1816 33.7063 11.3152 34.1891 11.9968 34.5419Z" fill="#E6E6E6"></path><path d="M23.9767 13.5448C30.0009 15.3428 32.8023 17.3223 34.6003 20.0278C35.1448 20.8464 34.4873 21.8498 33.3366 21.9491L9.10987 24.0827C9.07562 24.0827 9.07904 24.1238 9.10987 24.1238H38.7922C39.1689 24.1238 39.46 23.8567 39.4052 23.5588C38.1004 16.4524 30.4563 13.0824 23.9733 13.5448H23.9767Z" fill="#E6E6E6"></path><path d="M8.52734 35.9497C8.52734 35.9497 11.3836 39.1998 14.3563 39.7101C17.6577 40.2752 31.2506 40.2341 34.0006 39.7101C36.8603 39.1621 38.6891 37.1621 39.422 35.9497C39.2953 37.7888 37.2062 41.2957 33.9732 41.2957H14.2467C11.9315 41.2957 9.05818 39.1964 8.52734 35.9497Z" fill="#E6E6E6"></path></g><defs><linearGradient id="paint0_linear_1160_137" x1="12.0852" y1="55.2452" x2="12.0852" y2="13.814" gradientUnits="userSpaceOnUse"><stop stop-color="#FF5722"></stop><stop offset="1" stop-color="#F2914E"></stop></linearGradient><linearGradient id="paint1_linear_1160_137" x1="24.1682" y1="13.8134" x2="24.1682" y2="2.38813e-07" gradientUnits="userSpaceOnUse"><stop stop-color="#F2914E"></stop><stop offset="1" stop-color="#FF5722"></stop></linearGradient><linearGradient id="paint2_linear_1160_137" x1="36.2577" y1="55.2452" x2="36.2577" y2="13.814" gradientUnits="userSpaceOnUse"><stop stop-color="#FF5722"></stop><stop offset="1" stop-color="#F2914E"></stop></linearGradient><linearGradient id="paint3_linear_1160_137" x1="24.1682" y1="55.2452" x2="24.1682" y2="13.814" gradientUnits="userSpaceOnUse"><stop offset="0.0249283" stop-color="#F2914E"></stop><stop offset="1" stop-color="#FF5722"></stop></linearGradient><clipPath id="clip0_1160_137"><rect width="250" height="54.796" fill="white"></rect></clipPath></defs></svg>