<svg xmlns="http://www.w3.org/2000/svg" width="40" height="40" viewBox="0 0 40 40" fill="none"><rect width="40" height="40" rx="20" fill="url(#paint0_linear_844_231)"></rect><g clip-path="url(#clip0_844_231)"><path d="M29 23.1817C29 20.948 27.7186 18.9545 25.7994 17.9849C25.7398 22.2676 22.2676 25.7398 17.9849 25.7994C18.9545 27.7186 20.948 29 23.1817 29C24.2289 29 25.2474 28.7211 26.1422 28.1912L28.9746 28.9746L28.1912 26.1422C28.7211 25.2474 29 24.2289 29 23.1817Z" fill="white"></path><path d="M24.7461 17.873C24.7461 14.0832 21.6629 11 17.873 11C14.0832 11 11 14.0832 11 17.873C11 19.1082 11.3288 20.3108 11.9531 21.3666L11.0253 24.7207L14.3795 23.793C15.4353 24.4173 16.6379 24.7461 17.873 24.7461C21.6629 24.7461 24.7461 21.6629 24.7461 17.873ZM16.8184 16.2734H15.7637C15.7637 15.1103 16.7099 14.1641 17.873 14.1641C19.0362 14.1641 19.9824 15.1103 19.9824 16.2734C19.9824 16.8638 19.7325 17.4313 19.2965 17.8301L18.4004 18.6502V19.4727H17.3457V18.1857L18.5844 17.052C18.8058 16.8494 18.9277 16.573 18.9277 16.2734C18.9277 15.6918 18.4546 15.2188 17.873 15.2188C17.2915 15.2188 16.8184 15.6918 16.8184 16.2734ZM17.3457 20.5273H18.4004V21.582H17.3457V20.5273Z" fill="white"></path></g><defs><linearGradient id="paint0_linear_844_231" x1="21.4118" y1="-18.8473" x2="-7.66666" y2="64.6667" gradientUnits="userSpaceOnUse"><stop stop-color="#FEDC2A"></stop><stop offset="0.61318" stop-color="#FF5B98"></stop><stop offset="1" stop-color="#7A2C9E"></stop></linearGradient><clipPath id="clip0_844_231"><rect width="18" height="18" fill="white" transform="translate(11 11)"></rect></clipPath></defs></svg>