<svg xmlns="http://www.w3.org/2000/svg" width="40" height="40" viewBox="0 0 40 40" fill="none"><rect width="40" height="40" rx="20" fill="url(#paint0_linear_844_266)"></rect><g clip-path="url(#clip0_844_266)"><path d="M19.9996 11C15.0297 11 11 15.0297 11 19.9996C11 24.9695 15.0297 29 19.9996 29C24.9695 29 29 24.9695 29 19.9996C29 15.0297 24.9695 11 19.9996 11ZM21.8731 24.9482C21.4099 25.131 21.0411 25.2697 20.7646 25.3657C20.4888 25.4617 20.168 25.5097 19.803 25.5097C19.2423 25.5097 18.8057 25.3726 18.4949 25.099C18.184 24.8255 18.0293 24.4789 18.0293 24.0575C18.0293 23.8937 18.0408 23.7261 18.0636 23.5554C18.0872 23.3848 18.1246 23.1928 18.1756 22.9771L18.7554 20.9291C18.8065 20.7326 18.8507 20.5459 18.8857 20.3722C18.9208 20.197 18.9375 20.0362 18.9375 19.8899C18.9375 19.6293 18.8834 19.4465 18.776 19.3436C18.667 19.2408 18.4621 19.1905 18.1566 19.1905C18.0072 19.1905 17.8533 19.2126 17.6956 19.259C17.5394 19.307 17.4038 19.3505 17.2926 19.3931L17.4457 18.7623C17.8251 18.6076 18.1886 18.475 18.5352 18.3653C18.8819 18.2541 19.2095 18.1992 19.5181 18.1992C20.075 18.1992 20.5048 18.3349 20.8072 18.603C21.1082 18.872 21.2598 19.2217 21.2598 19.6514C21.2598 19.7406 21.2491 19.8975 21.2286 20.1215C21.208 20.3463 21.1691 20.5512 21.1128 20.7394L20.536 22.7813C20.4888 22.9451 20.4469 23.1326 20.4088 23.3421C20.3714 23.5516 20.3531 23.7116 20.3531 23.819C20.3531 24.0903 20.4133 24.2754 20.5352 24.3737C20.6556 24.472 20.8667 24.5215 21.1653 24.5215C21.3063 24.5215 21.464 24.4964 21.6423 24.4476C21.819 24.3989 21.947 24.3554 22.0278 24.3181L21.8731 24.9482ZM21.771 16.6602C21.5021 16.9101 21.1783 17.035 20.7996 17.035C20.4217 17.035 20.0956 16.9101 19.8244 16.6602C19.5547 16.4103 19.4183 16.1063 19.4183 15.7512C19.4183 15.397 19.5554 15.0922 19.8244 14.84C20.0956 14.587 20.4217 14.4613 20.7996 14.4613C21.1783 14.4613 21.5029 14.587 21.771 14.84C22.04 15.0922 22.1749 15.397 22.1749 15.7512C22.1749 16.107 22.04 16.4103 21.771 16.6602Z" fill="white"></path></g><defs><linearGradient id="paint0_linear_844_266" x1="-15" y1="5" x2="49" y2="37.5" gradientUnits="userSpaceOnUse"><stop stop-color="#FF5722"></stop><stop offset="1" stop-color="#FF9E28"></stop></linearGradient><clipPath id="clip0_844_266"><rect width="18" height="18" fill="white" transform="translate(11 11)"></rect></clipPath></defs></svg>