<svg xmlns="http://www.w3.org/2000/svg" width="40" height="40" viewBox="0 0 40 40" fill="none"><rect width="40" height="40" rx="20" fill="url(#paint0_linear_844_273)"></rect><path fill-rule="evenodd" clip-rule="evenodd" d="M17.6543 14.7645H27.6469L21.7118 18.8332L17.6747 16.0656C17.8284 15.6541 17.8297 15.1888 17.6543 14.7645ZM15.0409 17.126L16.4974 16.2392C16.9296 15.976 17.0731 15.4145 16.82 14.9762L15.5051 12.6986C15.3702 12.4649 15.166 12.3146 14.9028 12.2552C14.6396 12.1957 14.3907 12.2437 14.1685 12.3968L11.7704 14.0478C10.6289 18.0699 15.7585 26.7774 19.6926 27.7695L22.3215 26.5183C22.5652 26.4023 22.7312 26.2107 22.8113 25.9531C22.8915 25.6954 22.8634 25.4435 22.7284 25.2098L21.4135 22.9322C21.1605 22.4939 20.6024 22.3374 20.1584 22.5802L18.6621 23.3981C17.1824 22.0821 15.4407 19.0655 15.0409 17.126ZM28.3727 15.2878L21.9491 19.6914C21.7988 19.794 21.6057 19.7859 21.466 19.6856L17.2016 16.7622C17.1208 16.835 17.0323 16.9013 16.9362 16.9599L16.0149 17.5208C16.4989 19.0827 17.6965 21.157 18.8072 22.3572L19.7536 21.8398C20.5992 21.3776 21.6623 21.6758 22.1441 22.5103L22.9596 23.9228H27.7095C28.0846 23.9228 28.3914 23.6159 28.3914 23.2409V15.4464C28.3914 15.3918 28.3849 15.3387 28.3727 15.2878Z" fill="white"></path><defs><linearGradient id="paint0_linear_844_273" x1="29.6667" y1="51" x2="32.6667" y2="-5.33333" gradientUnits="userSpaceOnUse"><stop stop-color="#F4426C"></stop><stop offset="1" stop-color="#FBF2B1"></stop></linearGradient></defs></svg>