<svg xmlns="http://www.w3.org/2000/svg" width="30" height="31" viewBox="0 0 30 31" fill="none"><circle cx="14.9995" cy="15.0405" r="15" fill="url(#paint0_linear_2759_404)"></circle><g clip-path="url(#clip0_2759_404)"><path d="M12.0357 17.968C11.6397 17.7408 11.372 17.314 11.372 16.8255C11.372 14.8091 13.0124 13.1687 15.0288 13.1687H16.5358L16.6067 11.9985H8.06812L8.68143 22.1178C8.69548 22.3494 8.88735 22.5301 9.11944 22.5301H11.812C11.5359 22.1632 11.372 21.7072 11.372 21.2137C11.372 20.6447 11.735 20.1589 12.2414 19.9755C12.0619 19.7002 11.9571 19.372 11.9571 19.0196C11.9571 18.6668 12.0621 18.3383 12.242 18.0628C12.0989 18.0305 12.0195 17.9989 12.0357 17.968Z" fill="white"></path><path d="M12.3368 11.1211C12.3371 11.1211 12.3375 11.121 12.3378 11.121H16.7254C16.9678 11.121 17.1642 10.9246 17.1642 10.6822C17.1642 10.4398 16.9678 10.2434 16.7254 10.2434H13.1473L14.3302 8.42963H15.8477C16.0901 8.42963 16.2866 8.23319 16.2866 7.99082C16.2866 7.74844 16.0901 7.552 15.8477 7.552H14.0925C13.9442 7.552 13.8059 7.62685 13.725 7.75107L12.0995 10.2434H7.94907C7.70669 10.2434 7.51025 10.4398 7.51025 10.6822C7.51025 10.9246 7.70669 11.121 7.94907 11.121H12.3352C12.3357 11.121 12.3363 11.1211 12.3368 11.1211Z" fill="white"></path><path d="M12.2498 16.8248C12.2498 17.0672 12.4462 17.2636 12.6886 17.2636H22.05C22.2923 17.2636 22.4888 17.0672 22.4888 16.8248C22.4888 15.2924 21.242 14.0457 19.7096 14.0457H15.0289C13.4965 14.0457 12.2498 15.2924 12.2498 16.8248Z" fill="white"></path><path d="M13.7128 18.1416C13.2281 18.1416 12.8352 18.5345 12.8352 19.0192C12.8352 19.504 13.2281 19.8969 13.7128 19.8969H21.0264C21.5112 19.8969 21.9041 19.504 21.9041 19.0192C21.9041 18.5345 21.5112 18.1416 21.0264 18.1416H13.7128Z" fill="white"></path><path d="M22.05 20.7744H12.6886C12.4462 20.7744 12.2498 20.9709 12.2498 21.2132C12.2498 21.9391 12.8403 22.5297 13.5662 22.5297H21.1723C21.8982 22.5297 22.4888 21.9391 22.4888 21.2132C22.4888 20.9709 22.2923 20.7744 22.05 20.7744Z" fill="white"></path></g><defs><linearGradient id="paint0_linear_2759_404" x1="14.9995" y1="0.0405273" x2="14.9995" y2="30.0405" gradientUnits="userSpaceOnUse"><stop stop-color="#FF7F39"></stop><stop offset="1" stop-color="#FFE100"></stop></linearGradient><clipPath id="clip0_2759_404"><rect width="14.9782" height="14.9782" fill="white" transform="translate(7.51025 7.552)"></rect></clipPath></defs></svg>