<svg xmlns="http://www.w3.org/2000/svg" width="30" height="30" viewBox="0 0 30 30" fill="none"><circle cx="15" cy="15" r="15" fill="url(#paint0_linear_2759_256)"></circle><path d="M21.1519 15.2729H19.9502V20.7589H21.1519C21.3685 20.7589 21.5437 20.5836 21.5437 20.367V15.6648C21.5437 15.4482 21.3685 15.2729 21.1519 15.2729Z" fill="white"></path><path d="M8.84791 15.2729C8.63132 15.2729 8.45605 15.4482 8.45605 15.6648V20.367C8.45605 20.5836 8.63132 20.7589 8.84791 20.7589H10.0496V15.2729H8.84791Z" fill="white"></path><path d="M14.688 15.6646C14.3891 15.6646 14.1205 15.8306 13.987 16.0977L12.7942 18.484C12.9939 18.5717 13.2052 18.6161 13.421 18.6161C14.0176 18.6161 14.5545 18.2835 14.822 17.7478L15.0799 17.232H15.8383C16.0446 17.232 16.2466 17.3158 16.3924 17.4616L19.2977 20.3668V15.6646H14.688Z" fill="white"></path><path d="M15.8372 18.0157H15.5632L15.5406 18.061C15.1705 18.8013 14.4486 19.3239 13.6237 19.3913C13.0168 19.441 12.5962 19.2664 12.0974 19.0395C11.8946 18.9473 11.8063 18.705 11.906 18.5057L13.2846 15.7476C13.5502 15.2164 14.0931 14.8809 14.6869 14.8809H16.378C16.4865 14.6405 16.5536 14.378 16.5536 14.0972C16.5536 13.8806 16.3783 13.7053 16.1617 13.7053H13.1195C12.6741 13.7053 12.267 13.9569 12.0678 14.3553L11.7175 15.056C11.6511 15.1888 11.5154 15.2727 11.3669 15.2727H10.6758V20.7587H12.4728L13.5829 21.8688C13.9047 22.1906 14.3682 22.2922 14.768 22.1585L18.1145 21.1065C18.3145 21.0502 18.4831 20.9402 18.6206 20.7991L15.8372 18.0157Z" fill="white"></path><mask id="mask0_2759_256" style="mask-type:alpha" maskUnits="userSpaceOnUse" x="9" y="7" width="12" height="12"><path d="M14.9866 10.4357C15.7188 10.4357 16.3124 9.84214 16.3124 9.10994C16.3124 8.37774 15.7188 7.78418 14.9866 7.78418C14.2545 7.78418 13.6609 8.37774 13.6609 9.10994C13.6609 9.84214 14.2545 10.4357 14.9866 10.4357Z" fill="white"></path><path d="M16.9729 14.0392L16.6719 11.6952C16.6381 11.3552 16.3544 11.0986 16.013 11.0986H15.6498C15.5616 11.0986 15.4774 11.1338 15.4151 11.1954L14.9869 11.6236L14.5587 11.1954C14.4964 11.1338 14.4122 11.0986 14.324 11.0986H13.9614C13.6194 11.0986 13.3357 11.3552 13.3025 11.6866L13.0009 14.0398C12.989 14.134 13.0181 14.2294 13.0811 14.3003C13.1441 14.3719 13.2342 14.413 13.3297 14.413H13.6877L13.9647 17.7937C13.9979 18.1331 14.2823 18.3903 14.6243 18.3903H15.3502C15.6922 18.3903 15.9759 18.1331 16.0104 17.7878L16.2868 14.413H16.6441C16.7396 14.413 16.8297 14.3719 16.8927 14.3003C16.9563 14.2294 16.9855 14.134 16.9729 14.0392Z" fill="white"></path><path d="M18.0931 10.4357C18.8253 10.4357 19.4189 9.84214 19.4189 9.10994C19.4189 8.37774 18.8253 7.78418 18.0931 7.78418C17.3609 7.78418 16.7673 8.37774 16.7673 9.10994C16.7673 9.84214 17.3609 10.4357 18.0931 10.4357Z" fill="white"></path><path d="M11.8829 7.78418C11.1517 7.78418 10.5571 8.37878 10.5571 9.10994C10.5571 9.8411 11.1517 10.4357 11.8829 10.4357C12.6134 10.4357 13.2087 9.8411 13.2087 9.10994C13.2087 8.37878 12.6134 7.78418 11.8829 7.78418Z" fill="white"></path><path d="M20.0796 14.0392L19.7787 11.6959C19.7449 11.3552 19.4618 11.0986 19.1198 11.0986H18.7565C18.6683 11.0986 18.5842 11.1338 18.5218 11.1954L18.0936 11.6236L17.6654 11.1954C17.6031 11.1338 17.5189 11.0986 17.4314 11.0986H17.0681C17.0271 11.0986 16.9899 11.1132 16.9508 11.1205C17.0363 11.2716 17.1033 11.4354 17.1232 11.619L17.4235 13.955C17.4606 14.2394 17.3717 14.5257 17.1808 14.7412C17.0907 14.8446 16.9753 14.9175 16.8521 14.9745L17.0721 17.1308C17.1059 17.4709 17.3896 17.7274 17.7317 17.7274H18.4575C18.7996 17.7274 19.0833 17.4702 19.1178 17.1249L19.3935 14.413H19.7508C19.8463 14.413 19.9364 14.3719 19.9994 14.3003C20.063 14.2294 20.0922 14.134 20.0796 14.0392Z" fill="white"></path><path d="M12.7937 14.7378C12.6055 14.5251 12.518 14.2394 12.5538 13.9563L12.8554 11.6024C12.8726 11.4261 12.9376 11.267 13.0204 11.1198C12.9833 11.1132 12.9482 11.0986 12.9091 11.0986H12.5458C12.4576 11.0986 12.3734 11.1338 12.3111 11.1954L11.8829 11.6236L11.4547 11.1954C11.3924 11.1338 11.3082 11.0986 11.2207 11.0986H10.8574C10.5154 11.0986 10.2317 11.3552 10.1985 11.6866L9.89691 14.0398C9.88498 14.134 9.91414 14.2294 9.97712 14.3003C10.0401 14.3719 10.1309 14.413 10.2257 14.413H10.5837L10.8607 17.1308C10.8939 17.4702 11.1783 17.7274 11.5203 17.7274H12.2462C12.5882 17.7274 12.8719 17.4702 12.9064 17.1249L13.1265 14.9738C13.0025 14.9162 12.8865 14.8426 12.7937 14.7378Z" fill="white"></path></mask><g mask="url(#mask0_2759_256)"><path d="M11.6944 13.7639L11.5775 14.0268C11.5026 14.1953 11.3603 14.3244 11.1855 14.3827C11.1186 14.405 11.0486 14.4163 10.9782 14.4163H10.5928H10.1414C10.0897 14.4163 10.0597 14.4748 10.0898 14.5169C10.1228 14.5629 10.0836 14.6259 10.0278 14.6165L9.65907 14.5551C9.58729 14.5431 9.52622 14.4961 9.49627 14.4298L9.40808 14.2345C9.35877 14.1253 9.34222 14.0041 9.36044 13.8857L9.63611 12.0939C9.65549 11.9679 9.66523 11.8406 9.66523 11.7131V9.96279C9.66523 8.57971 10.7864 7.4585 12.1695 7.4585H18.2459C19.629 7.4585 20.7502 8.57971 20.7502 9.96279V13.9514C20.7502 14.2829 20.4983 14.56 20.1683 14.5914L19.7647 14.6299C19.6919 14.6368 19.6343 14.6945 19.6274 14.7673C19.6203 14.8432 19.5581 14.9021 19.4819 14.9052L17.8827 14.9702C17.6298 14.9805 17.4191 14.7782 17.4191 14.5251V14.2051C17.4191 14.107 17.3331 14.0311 17.2358 14.0433C17.142 14.055 17.0579 13.9848 17.0527 13.8904L17.0316 13.5076C17.027 13.4234 17.002 13.3416 16.9587 13.2692L16.9491 13.2532C16.8415 13.073 16.647 12.9626 16.4371 12.9626H12.9595C12.738 12.9626 12.5196 13.0152 12.3224 13.1162L12.2938 13.1308C12.0275 13.267 11.8159 13.4905 11.6944 13.7639Z" fill="white"></path></g><defs><linearGradient id="paint0_linear_2759_256" x1="15" y1="0" x2="15" y2="30" gradientUnits="userSpaceOnUse"><stop stop-color="#F572D4"></stop><stop offset="1" stop-color="#A700C0"></stop></linearGradient></defs></svg>