<svg xmlns="http://www.w3.org/2000/svg" width="148" height="85" viewBox="0 0 148 85" fill="none"><path d="M0 19.8002V45.0797C0 56.0169 11.8857 64.8799 26.5489 64.8799H36.3679C36.9755 64.8799 37.444 65.4202 37.3296 66.0169C36.0678 72.5964 32.1831 77.2164 28.4591 80.2519C27.5308 81.0087 28.4473 83.4133 29.6051 83.1066C33.6858 82.0257 37.3213 80.7264 40.5484 79.3111C44.2137 77.7121 47.3488 75.9485 49.9946 74.1955C55.0334 70.866 58.3536 67.5473 60.3209 65.2384C60.5139 65.0119 60.7945 64.8799 61.092 64.8799H121.451C136.114 64.8799 148 56.0155 148 45.0797V19.8002C148 8.8644 136.114 0 121.451 0H26.5489C11.8857 0 0 8.8644 0 19.8002Z" fill="url(#paint0_linear_616_2509)"></path><path d="M17.1188 52V43.54H18.6668V47.068H22.9988V43.54H24.5468V52H22.9988V48.352H18.6668V52H17.1188ZM28.7818 52.12C28.2538 52.12 27.7898 51.996 27.3898 51.748C26.9898 51.492 26.6778 51.128 26.4538 50.656C26.2298 50.184 26.1178 49.62 26.1178 48.964C26.1178 48.308 26.2298 47.748 26.4538 47.284C26.6778 46.812 26.9898 46.452 27.3898 46.204C27.7898 45.948 28.2538 45.82 28.7818 45.82C29.2938 45.82 29.7418 45.948 30.1258 46.204C30.5178 46.452 30.7778 46.788 30.9058 47.212H30.7738L30.9058 45.94H32.3458C32.3218 46.188 32.2978 46.44 32.2738 46.696C32.2578 46.952 32.2498 47.204 32.2498 47.452V52H30.7618L30.7498 50.752H30.8938C30.7658 51.168 30.5058 51.5 30.1138 51.748C29.7218 51.996 29.2778 52.12 28.7818 52.12ZM29.2018 50.968C29.6738 50.968 30.0538 50.804 30.3418 50.476C30.6298 50.14 30.7738 49.636 30.7738 48.964C30.7738 48.292 30.6298 47.792 30.3418 47.464C30.0538 47.136 29.6738 46.972 29.2018 46.972C28.7298 46.972 28.3498 47.136 28.0618 47.464C27.7738 47.792 27.6298 48.292 27.6298 48.964C27.6298 49.636 27.7698 50.14 28.0498 50.476C28.3378 50.804 28.7218 50.968 29.2018 50.968ZM34.0332 52V47.452C34.0332 47.204 34.0252 46.952 34.0092 46.696C33.9932 46.44 33.9692 46.188 33.9372 45.94H35.3892L35.5092 47.14H35.3652C35.5572 46.716 35.8412 46.392 36.2172 46.168C36.5932 45.936 37.0292 45.82 37.5252 45.82C38.2372 45.82 38.7732 46.02 39.1332 46.42C39.4932 46.82 39.6732 47.444 39.6732 48.292V52H38.1732V48.364C38.1732 47.876 38.0772 47.528 37.8852 47.32C37.7012 47.104 37.4212 46.996 37.0452 46.996C36.5812 46.996 36.2132 47.14 35.9412 47.428C35.6692 47.716 35.5332 48.1 35.5332 48.58V52H34.0332ZM43.7657 52.12C43.2377 52.12 42.7697 51.996 42.3617 51.748C41.9617 51.492 41.6497 51.128 41.4257 50.656C41.2017 50.184 41.0897 49.62 41.0897 48.964C41.0897 48.308 41.2017 47.748 41.4257 47.284C41.6497 46.812 41.9617 46.452 42.3617 46.204C42.7697 45.948 43.2377 45.82 43.7657 45.82C44.2697 45.82 44.7137 45.944 45.0977 46.192C45.4897 46.432 45.7497 46.76 45.8777 47.176H45.7217V43.168H47.2217V52H45.7457V50.716H45.8897C45.7617 51.148 45.5017 51.492 45.1097 51.748C44.7257 51.996 44.2777 52.12 43.7657 52.12ZM44.1857 50.968C44.6577 50.968 45.0377 50.804 45.3257 50.476C45.6137 50.14 45.7577 49.636 45.7577 48.964C45.7577 48.292 45.6137 47.792 45.3257 47.464C45.0377 47.136 44.6577 46.972 44.1857 46.972C43.7137 46.972 43.3297 47.136 43.0337 47.464C42.7457 47.792 42.6017 48.292 42.6017 48.964C42.6017 49.636 42.7457 50.14 43.0337 50.476C43.3297 50.804 43.7137 50.968 44.1857 50.968ZM48.8851 54.724L48.5371 53.536C48.9131 53.456 49.2291 53.364 49.4851 53.26C49.7411 53.156 49.9531 53.02 50.1211 52.852C50.2891 52.684 50.4291 52.468 50.5411 52.204L50.8411 51.496L50.8051 52.084L48.1651 45.94H49.7611L51.6571 50.668H51.3091L53.2171 45.94H54.7291L51.9691 52.336C51.7851 52.768 51.5851 53.124 51.3691 53.404C51.1531 53.692 50.9211 53.92 50.6731 54.088C50.4251 54.264 50.1531 54.4 49.8571 54.496C49.5611 54.592 49.2371 54.668 48.8851 54.724ZM55.6707 52V47.452C55.6707 47.204 55.6627 46.952 55.6467 46.696C55.6307 46.44 55.6067 46.188 55.5747 45.94H57.0267L57.1467 47.14H57.0027C57.1707 46.724 57.4267 46.4 57.7707 46.168C58.1227 45.936 58.5387 45.82 59.0187 45.82C59.4987 45.82 59.8947 45.936 60.2067 46.168C60.5267 46.392 60.7507 46.744 60.8787 47.224H60.6867C60.8547 46.792 61.1307 46.452 61.5147 46.204C61.8987 45.948 62.3387 45.82 62.8347 45.82C63.5147 45.82 64.0227 46.02 64.3587 46.42C64.6947 46.82 64.8627 47.444 64.8627 48.292V52H63.3627V48.352C63.3627 47.872 63.2827 47.528 63.1227 47.32C62.9627 47.104 62.7067 46.996 62.3547 46.996C61.9387 46.996 61.6107 47.144 61.3707 47.44C61.1307 47.728 61.0107 48.12 61.0107 48.616V52H59.5107V48.352C59.5107 47.872 59.4307 47.528 59.2707 47.32C59.1107 47.104 58.8547 46.996 58.5027 46.996C58.0867 46.996 57.7587 47.144 57.5187 47.44C57.2867 47.728 57.1707 48.12 57.1707 48.616V52H55.6707ZM68.9537 52.12C68.4257 52.12 67.9617 51.996 67.5617 51.748C67.1617 51.492 66.8497 51.128 66.6257 50.656C66.4017 50.184 66.2897 49.62 66.2897 48.964C66.2897 48.308 66.4017 47.748 66.6257 47.284C66.8497 46.812 67.1617 46.452 67.5617 46.204C67.9617 45.948 68.4257 45.82 68.9537 45.82C69.4657 45.82 69.9137 45.948 70.2977 46.204C70.6897 46.452 70.9497 46.788 71.0777 47.212H70.9457L71.0777 45.94H72.5177C72.4937 46.188 72.4697 46.44 72.4457 46.696C72.4297 46.952 72.4217 47.204 72.4217 47.452V52H70.9337L70.9217 50.752H71.0657C70.9377 51.168 70.6777 51.5 70.2857 51.748C69.8937 51.996 69.4497 52.12 68.9537 52.12ZM69.3737 50.968C69.8457 50.968 70.2257 50.804 70.5137 50.476C70.8017 50.14 70.9457 49.636 70.9457 48.964C70.9457 48.292 70.8017 47.792 70.5137 47.464C70.2257 47.136 69.8457 46.972 69.3737 46.972C68.9017 46.972 68.5217 47.136 68.2337 47.464C67.9457 47.792 67.8017 48.292 67.8017 48.964C67.8017 49.636 67.9417 50.14 68.2217 50.476C68.5097 50.804 68.8937 50.968 69.3737 50.968ZM74.2051 52V47.452C74.2051 47.204 74.1971 46.952 74.1811 46.696C74.1651 46.44 74.1411 46.188 74.1091 45.94H75.5611L75.6811 47.14H75.5371C75.7291 46.716 76.0131 46.392 76.3891 46.168C76.7651 45.936 77.2011 45.82 77.6971 45.82C78.4091 45.82 78.9451 46.02 79.3051 46.42C79.6651 46.82 79.8451 47.444 79.8451 48.292V52H78.3451V48.364C78.3451 47.876 78.2491 47.528 78.0571 47.32C77.8731 47.104 77.5931 46.996 77.2171 46.996C76.7531 46.996 76.3851 47.14 76.1131 47.428C75.8411 47.716 75.7051 48.1 75.7051 48.58V52H74.2051ZM88.1005 52.12C87.4205 52.12 86.7925 52.036 86.2165 51.868C85.6485 51.692 85.1605 51.452 84.7525 51.148L85.2325 49.936C85.5045 50.128 85.7885 50.292 86.0845 50.428C86.3805 50.556 86.6965 50.656 87.0325 50.728C87.3685 50.792 87.7245 50.824 88.1005 50.824C88.7325 50.824 89.1885 50.72 89.4685 50.512C89.7485 50.304 89.8885 50.032 89.8885 49.696C89.8885 49.4 89.7925 49.176 89.6005 49.024C89.4085 48.864 89.0645 48.732 88.5685 48.628L87.2125 48.352C86.4365 48.192 85.8565 47.924 85.4725 47.548C85.0885 47.172 84.8965 46.668 84.8965 46.036C84.8965 45.508 85.0365 45.048 85.3165 44.656C85.5965 44.264 85.9885 43.96 86.4925 43.744C86.9965 43.528 87.5845 43.42 88.2565 43.42C88.8565 43.42 89.4125 43.508 89.9245 43.684C90.4365 43.852 90.8645 44.096 91.2085 44.416L90.7285 45.568C90.3845 45.28 90.0085 45.068 89.6005 44.932C89.1925 44.788 88.7365 44.716 88.2325 44.716C87.6645 44.716 87.2205 44.828 86.9005 45.052C86.5885 45.268 86.4325 45.568 86.4325 45.952C86.4325 46.248 86.5285 46.484 86.7205 46.66C86.9205 46.836 87.2565 46.972 87.7285 47.068L89.0725 47.332C89.8725 47.492 90.4645 47.756 90.8485 48.124C91.2325 48.484 91.4245 48.972 91.4245 49.588C91.4245 50.092 91.2885 50.536 91.0165 50.92C90.7445 51.296 90.3605 51.592 89.8645 51.808C89.3685 52.016 88.7805 52.12 88.1005 52.12ZM95.8409 52.12C94.8249 52.12 94.0289 51.84 93.4529 51.28C92.8769 50.72 92.5889 49.952 92.5889 48.976C92.5889 48.344 92.7129 47.792 92.9609 47.32C93.2089 46.848 93.5529 46.48 93.9929 46.216C94.4409 45.952 94.9609 45.82 95.5529 45.82C96.1369 45.82 96.6249 45.944 97.0169 46.192C97.4089 46.44 97.7049 46.788 97.9049 47.236C98.1129 47.684 98.2169 48.208 98.2169 48.808V49.204H93.8009V48.412H97.1489L96.9449 48.58C96.9449 48.02 96.8249 47.592 96.5849 47.296C96.3529 47 96.0129 46.852 95.5649 46.852C95.0689 46.852 94.6849 47.028 94.4129 47.38C94.1489 47.732 94.0169 48.224 94.0169 48.856V49.012C94.0169 49.668 94.1769 50.16 94.4969 50.488C94.8249 50.808 95.2849 50.968 95.8769 50.968C96.2209 50.968 96.5409 50.924 96.8369 50.836C97.1409 50.74 97.4289 50.588 97.7009 50.38L98.1449 51.388C97.8569 51.62 97.5129 51.8 97.1129 51.928C96.7129 52.056 96.2889 52.12 95.8409 52.12ZM99.6251 52V47.488C99.6251 47.232 99.6171 46.972 99.6011 46.708C99.5931 46.444 99.5731 46.188 99.5411 45.94H100.993L101.161 47.596H100.921C101.001 47.196 101.133 46.864 101.317 46.6C101.509 46.336 101.741 46.14 102.013 46.012C102.285 45.884 102.581 45.82 102.901 45.82C103.045 45.82 103.161 45.828 103.249 45.844C103.337 45.852 103.425 45.872 103.513 45.904L103.501 47.224C103.349 47.16 103.217 47.12 103.105 47.104C103.001 47.088 102.869 47.08 102.709 47.08C102.365 47.08 102.073 47.152 101.833 47.296C101.601 47.44 101.425 47.64 101.305 47.896C101.193 48.152 101.137 48.444 101.137 48.772V52H99.6251ZM106.637 52L104.021 45.94H105.617L107.513 50.68H107.141L109.085 45.94H110.585L107.957 52H106.637ZM111.539 52V45.94H113.039V52H111.539ZM111.455 44.8V43.336H113.123V44.8H111.455ZM117.602 52.12C116.978 52.12 116.43 51.992 115.958 51.736C115.494 51.48 115.134 51.116 114.878 50.644C114.622 50.164 114.494 49.596 114.494 48.94C114.494 48.284 114.622 47.724 114.878 47.26C115.142 46.796 115.506 46.44 115.97 46.192C116.434 45.944 116.978 45.82 117.602 45.82C118.002 45.82 118.39 45.884 118.766 46.012C119.15 46.132 119.462 46.308 119.702 46.54L119.246 47.584C119.03 47.384 118.786 47.236 118.514 47.14C118.25 47.036 117.99 46.984 117.734 46.984C117.198 46.984 116.778 47.152 116.474 47.488C116.178 47.824 116.03 48.312 116.03 48.952C116.03 49.592 116.178 50.084 116.474 50.428C116.778 50.772 117.198 50.944 117.734 50.944C117.982 50.944 118.238 50.896 118.502 50.8C118.774 50.704 119.022 50.556 119.246 50.356L119.702 51.388C119.454 51.62 119.138 51.8 118.754 51.928C118.378 52.056 117.994 52.12 117.602 52.12ZM123.825 52.12C122.809 52.12 122.013 51.84 121.437 51.28C120.861 50.72 120.573 49.952 120.573 48.976C120.573 48.344 120.697 47.792 120.945 47.32C121.193 46.848 121.537 46.48 121.977 46.216C122.425 45.952 122.945 45.82 123.537 45.82C124.121 45.82 124.609 45.944 125.001 46.192C125.393 46.44 125.689 46.788 125.889 47.236C126.097 47.684 126.201 48.208 126.201 48.808V49.204H121.785V48.412H125.133L124.929 48.58C124.929 48.02 124.809 47.592 124.569 47.296C124.337 47 123.997 46.852 123.549 46.852C123.053 46.852 122.669 47.028 122.397 47.38C122.133 47.732 122.001 48.224 122.001 48.856V49.012C122.001 49.668 122.161 50.16 122.481 50.488C122.809 50.808 123.269 50.968 123.861 50.968C124.205 50.968 124.525 50.924 124.821 50.836C125.125 50.74 125.413 50.588 125.685 50.38L126.129 51.388C125.841 51.62 125.497 51.8 125.097 51.928C124.697 52.056 124.273 52.12 123.825 52.12ZM129.781 52.12C129.261 52.12 128.781 52.06 128.341 51.94C127.909 51.812 127.545 51.636 127.249 51.412L127.669 50.404C127.973 50.612 128.309 50.772 128.677 50.884C129.045 50.996 129.417 51.052 129.793 51.052C130.193 51.052 130.489 50.984 130.681 50.848C130.881 50.712 130.981 50.528 130.981 50.296C130.981 50.112 130.917 49.968 130.789 49.864C130.669 49.752 130.473 49.668 130.201 49.612L129.001 49.384C128.489 49.272 128.097 49.08 127.825 48.808C127.561 48.536 127.429 48.18 127.429 47.74C127.429 47.364 127.529 47.032 127.729 46.744C127.937 46.456 128.229 46.232 128.605 46.072C128.989 45.904 129.437 45.82 129.949 45.82C130.397 45.82 130.817 45.88 131.209 46C131.609 46.12 131.945 46.3 132.217 46.54L131.785 47.512C131.537 47.312 131.253 47.156 130.933 47.044C130.613 46.932 130.301 46.876 129.997 46.876C129.581 46.876 129.277 46.952 129.085 47.104C128.893 47.248 128.797 47.436 128.797 47.668C128.797 47.844 128.853 47.992 128.965 48.112C129.085 48.224 129.269 48.308 129.517 48.364L130.717 48.592C131.253 48.696 131.657 48.88 131.929 49.144C132.209 49.4 132.349 49.752 132.349 50.2C132.349 50.6 132.241 50.944 132.025 51.232C131.809 51.52 131.509 51.74 131.125 51.892C130.741 52.044 130.293 52.12 129.781 52.12Z" fill="white"></path><path d="M77.323 20.6812C75.6855 21.2775 71.3751 21.9905 68.1777 22.0598C68.5814 23.3952 69.247 24.6369 70.1355 25.7124C70.4376 26.1174 70.8225 26.4534 71.2647 26.698C71.7068 26.9425 72.196 27.09 72.6996 27.1306C73.2033 27.09 73.6926 26.9425 74.1348 26.698C74.577 26.4534 74.962 26.1174 75.2642 25.7124C76.4671 24.2373 77.2631 22.4732 77.573 20.5952L77.323 20.6812Z" fill="white"></path><path d="M67.6855 21.2853C70.7725 21.2853 75.4032 20.5488 77.0548 19.9473H67.0344C66.3178 20.4634 65.6818 21.2853 67.6855 21.2853Z" fill="white"></path><path d="M84.2643 28.0452V18.5936C84.9441 18.3363 85.5309 17.8808 85.9489 17.2862C86.3669 16.6916 86.5968 15.9852 86.6088 15.2585C86.6208 14.5318 86.4144 13.8182 86.0162 13.2101C85.6181 12.602 85.0466 12.1274 84.3758 11.8478V14.8061C84.3758 15.0547 84.277 15.2932 84.1012 15.469C83.9254 15.6448 83.6869 15.7436 83.4383 15.7436H82.5169C82.2683 15.7436 82.0298 15.6448 81.854 15.469C81.6782 15.2932 81.5794 15.0547 81.5794 14.8061V11.8462C80.9075 12.1264 80.3355 12.6022 79.9374 13.2117C79.5394 13.8212 79.3338 14.5363 79.3473 15.2641C79.3608 15.992 79.5929 16.6989 80.0133 17.2932C80.4337 17.8875 81.0231 18.3416 81.7049 18.5967V28.0384C81.2245 28.2817 80.8238 28.6575 80.5504 29.1215C80.2769 29.5854 80.1421 30.1179 80.1619 30.6561C80.1816 31.1943 80.3552 31.7155 80.662 32.1581C80.9688 32.6007 81.396 32.9461 81.893 33.1535V30.8571C81.893 30.6637 81.9698 30.4783 82.1065 30.3415C82.2433 30.2048 82.4287 30.128 82.6221 30.128H83.3362C83.5296 30.128 83.715 30.2048 83.8518 30.3415C83.9885 30.4783 84.0653 30.6637 84.0653 30.8571V33.1535C84.5612 32.9466 84.9876 32.6023 85.2942 32.1612C85.6009 31.7201 85.7751 31.2005 85.7963 30.6636C85.8175 30.1268 85.6848 29.5951 85.4138 29.1312C85.1428 28.6672 84.7449 28.2904 84.2669 28.0452H84.2643Z" fill="white"></path><path d="M72.7008 14.5889C71.4515 14.5894 70.2483 15.0608 69.3312 15.9092C68.4141 16.7575 67.8506 17.9205 67.7529 19.166H77.6488C77.5512 17.9204 76.9877 16.7574 76.0706 15.909C75.1535 15.0607 73.9502 14.5892 72.7008 14.5889ZM73.5107 17.3212L72.6467 18.6165C72.6185 18.6598 72.582 18.697 72.5393 18.7261C72.4966 18.7552 72.4486 18.7756 72.398 18.786C72.3474 18.7964 72.2952 18.7967 72.2445 18.7868C72.1938 18.7769 72.1456 18.7571 72.1026 18.7284C72.0596 18.6997 72.0228 18.6628 71.9941 18.6198C71.9655 18.5768 71.9457 18.5286 71.9358 18.4779C71.926 18.4272 71.9263 18.375 71.9367 18.3244C71.9472 18.2738 71.9676 18.2258 71.9967 18.1831L72.4555 17.4951H71.8878C71.8171 17.4951 71.7478 17.4759 71.6871 17.4396C71.6265 17.4033 71.5768 17.3511 71.5434 17.2888C71.5101 17.2265 71.4943 17.1563 71.4977 17.0856C71.5011 17.015 71.5236 16.9467 71.5628 16.8878L72.4269 15.592C72.4849 15.507 72.574 15.4484 72.675 15.4288C72.776 15.4092 72.8806 15.4302 72.9662 15.4872C73.0518 15.5443 73.1114 15.6328 73.1321 15.7335C73.1528 15.8343 73.133 15.9391 73.0769 16.0253L72.618 16.7139H73.1837C73.2544 16.7139 73.3237 16.7331 73.3844 16.7694C73.445 16.8057 73.4947 16.8578 73.528 16.9202C73.5614 16.9825 73.5772 17.0527 73.5738 17.1233C73.5704 17.194 73.5479 17.2623 73.5087 17.3212H73.5107Z" fill="white"></path><path d="M75.1771 26.8842C74.5011 27.5133 73.6213 27.8782 72.6984 27.9123C71.7224 27.8732 70.7963 27.4708 70.1016 26.7842V26.7925L72.6823 29.5467L75.1771 26.8842Z" fill="white"></path><path d="M69.1221 27.6605L70.7523 31.11L72.1044 30.0709L69.6861 27.4907L69.1221 27.6605Z" fill="white"></path><path d="M76.246 27.66L75.6814 27.4902L73.2627 30.071L74.6153 31.11L76.246 27.66Z" fill="white"></path><path d="M79.375 30.5522C79.3753 29.9187 79.5443 29.2967 79.8646 28.7502L77.0026 27.8882L74.9078 32.3194L72.6839 30.6111L70.4594 32.3194L68.3651 27.8887L63.9687 29.2137C63.5844 29.2977 63.238 29.5049 62.9823 29.8039C62.7265 30.1029 62.5755 30.4772 62.5521 30.87L62.3906 33.1564H80.5C80.1458 32.8212 79.8635 32.4175 79.6701 31.9698C79.4767 31.5222 79.3763 31.0399 79.375 30.5522Z" fill="white"></path><defs><linearGradient id="paint0_linear_616_2509" x1="148" y1="41.2857" x2="0.0390061" y2="40.2982" gradientUnits="userSpaceOnUse"><stop stop-color="#0461A5"></stop><stop offset="1" stop-color="#0E7AC9"></stop></linearGradient></defs></svg>