<svg xmlns="http://www.w3.org/2000/svg" width="183" height="70" viewBox="0 0 183 70" fill="none"><path d="M180.471 2.69405C181.194 1.97404 182.316 2.57272 181.984 3.53721C179.624 10.3761 172.442 25.3955 153.366 32.8757C152.979 33.0276 152.713 33.4024 152.713 33.8184V49.1653C152.713 54.6404 149.933 59.605 145.383 63.3255C142.693 65.5533 139.347 67.3287 135.585 68.4835C133.183 69.2343 130.621 69.719 127.926 69.9043C127.878 69.9076 127.83 69.9151 127.782 69.9207C127.688 69.9315 127.579 69.9315 127.497 69.9315C127.245 69.9419 126.977 69.9658 126.709 69.9658C126.263 69.9881 125.788 70 125.326 70H27.403C24.7267 70 22.1404 69.7053 19.6851 69.1621C18.8087 68.9583 17.9459 68.7321 17.0988 68.4731C7.07819 65.3836 0 57.8965 0 49.1653V22.5639C0 11.0498 12.2822 1.70695 27.403 1.70695H125.326C137.899 1.70695 148.476 8.1697 151.696 16.9613C151.873 17.4458 152.37 17.7458 152.874 17.6338C160.29 15.9845 171.076 12.052 180.471 2.69405Z" fill="url(#paint0_linear_641_11854)"></path><path d="M9.936 53V44.54H15.636V45.752H11.424V48.092H15.36V49.316H11.424V51.776H15.636V53H9.936ZM17.1027 53V48.452C17.1027 48.204 17.0947 47.952 17.0787 47.696C17.0627 47.44 17.0387 47.188 17.0067 46.94H18.4587L18.5787 48.14H18.4347C18.6267 47.716 18.9107 47.392 19.2867 47.168C19.6627 46.936 20.0987 46.82 20.5947 46.82C21.3067 46.82 21.8427 47.02 22.2027 47.42C22.5627 47.82 22.7427 48.444 22.7427 49.292V53H21.2427V49.364C21.2427 48.876 21.1467 48.528 20.9547 48.32C20.7707 48.104 20.4907 47.996 20.1147 47.996C19.6507 47.996 19.2827 48.14 19.0107 48.428C18.7387 48.716 18.6027 49.1 18.6027 49.58V53H17.1027ZM27.0752 53.12C26.3552 53.12 25.8112 52.932 25.4432 52.556C25.0752 52.18 24.8912 51.616 24.8912 50.864V48.068H23.7272V46.94H24.8912V45.392L26.3912 45.008V46.94H28.0112V48.068H26.3912V50.768C26.3912 51.184 26.4712 51.476 26.6312 51.644C26.7912 51.812 27.0112 51.896 27.2912 51.896C27.4432 51.896 27.5712 51.884 27.6752 51.86C27.7872 51.836 27.8952 51.804 27.9992 51.764V52.952C27.8632 53.008 27.7112 53.048 27.5432 53.072C27.3832 53.104 27.2272 53.12 27.0752 53.12ZM32.0495 53.12C31.0335 53.12 30.2375 52.84 29.6615 52.28C29.0855 51.72 28.7975 50.952 28.7975 49.976C28.7975 49.344 28.9215 48.792 29.1695 48.32C29.4175 47.848 29.7615 47.48 30.2015 47.216C30.6495 46.952 31.1695 46.82 31.7615 46.82C32.3455 46.82 32.8335 46.944 33.2255 47.192C33.6175 47.44 33.9135 47.788 34.1135 48.236C34.3215 48.684 34.4255 49.208 34.4255 49.808V50.204H30.0095V49.412H33.3575L33.1535 49.58C33.1535 49.02 33.0335 48.592 32.7935 48.296C32.5615 48 32.2215 47.852 31.7735 47.852C31.2775 47.852 30.8935 48.028 30.6215 48.38C30.3575 48.732 30.2255 49.224 30.2255 49.856V50.012C30.2255 50.668 30.3855 51.16 30.7055 51.488C31.0335 51.808 31.4935 51.968 32.0855 51.968C32.4295 51.968 32.7495 51.924 33.0455 51.836C33.3495 51.74 33.6375 51.588 33.9095 51.38L34.3535 52.388C34.0655 52.62 33.7215 52.8 33.3215 52.928C32.9215 53.056 32.4975 53.12 32.0495 53.12ZM35.8337 53V48.488C35.8337 48.232 35.8257 47.972 35.8097 47.708C35.8017 47.444 35.7817 47.188 35.7497 46.94H37.2017L37.3697 48.596H37.1297C37.2097 48.196 37.3417 47.864 37.5257 47.6C37.7177 47.336 37.9497 47.14 38.2217 47.012C38.4937 46.884 38.7897 46.82 39.1097 46.82C39.2537 46.82 39.3697 46.828 39.4577 46.844C39.5457 46.852 39.6337 46.872 39.7217 46.904L39.7097 48.224C39.5577 48.16 39.4257 48.12 39.3137 48.104C39.2097 48.088 39.0777 48.08 38.9177 48.08C38.5737 48.08 38.2817 48.152 38.0417 48.296C37.8097 48.44 37.6337 48.64 37.5137 48.896C37.4017 49.152 37.3457 49.444 37.3457 49.772V53H35.8337ZM43.6385 53.12C42.9185 53.12 42.3745 52.932 42.0065 52.556C41.6385 52.18 41.4545 51.616 41.4545 50.864V48.068H40.2905V46.94H41.4545V45.392L42.9545 45.008V46.94H44.5745V48.068H42.9545V50.768C42.9545 51.184 43.0345 51.476 43.1945 51.644C43.3545 51.812 43.5745 51.896 43.8545 51.896C44.0065 51.896 44.1345 51.884 44.2385 51.86C44.3505 51.836 44.4585 51.804 44.5625 51.764V52.952C44.4265 53.008 44.2745 53.048 44.1065 53.072C43.9465 53.104 43.7905 53.12 43.6385 53.12ZM48.0833 53.12C47.5553 53.12 47.0913 52.996 46.6913 52.748C46.2913 52.492 45.9793 52.128 45.7553 51.656C45.5313 51.184 45.4193 50.62 45.4193 49.964C45.4193 49.308 45.5313 48.748 45.7553 48.284C45.9793 47.812 46.2913 47.452 46.6913 47.204C47.0913 46.948 47.5553 46.82 48.0833 46.82C48.5953 46.82 49.0433 46.948 49.4273 47.204C49.8193 47.452 50.0793 47.788 50.2073 48.212H50.0753L50.2073 46.94H51.6473C51.6233 47.188 51.5993 47.44 51.5753 47.696C51.5593 47.952 51.5513 48.204 51.5513 48.452V53H50.0633L50.0513 51.752H50.1953C50.0673 52.168 49.8073 52.5 49.4153 52.748C49.0233 52.996 48.5793 53.12 48.0833 53.12ZM48.5033 51.968C48.9753 51.968 49.3553 51.804 49.6433 51.476C49.9313 51.14 50.0753 50.636 50.0753 49.964C50.0753 49.292 49.9313 48.792 49.6433 48.464C49.3553 48.136 48.9753 47.972 48.5033 47.972C48.0313 47.972 47.6513 48.136 47.3633 48.464C47.0753 48.792 46.9313 49.292 46.9313 49.964C46.9313 50.636 47.0713 51.14 47.3513 51.476C47.6393 51.804 48.0233 51.968 48.5033 51.968ZM53.3347 53V46.94H54.8347V53H53.3347ZM53.2507 45.8V44.336H54.9187V45.8H53.2507ZM56.6137 53V48.452C56.6137 48.204 56.6057 47.952 56.5897 47.696C56.5737 47.44 56.5497 47.188 56.5177 46.94H57.9697L58.0897 48.14H57.9457C58.1377 47.716 58.4217 47.392 58.7977 47.168C59.1737 46.936 59.6097 46.82 60.1057 46.82C60.8177 46.82 61.3537 47.02 61.7137 47.42C62.0737 47.82 62.2537 48.444 62.2537 49.292V53H60.7537V49.364C60.7537 48.876 60.6577 48.528 60.4657 48.32C60.2817 48.104 60.0017 47.996 59.6257 47.996C59.1617 47.996 58.7937 48.14 58.5217 48.428C58.2497 48.716 58.1137 49.1 58.1137 49.58V53H56.6137ZM63.9941 53V48.452C63.9941 48.204 63.9861 47.952 63.9701 47.696C63.9541 47.44 63.9301 47.188 63.8981 46.94H65.3501L65.4701 48.14H65.3261C65.4941 47.724 65.7501 47.4 66.0941 47.168C66.4461 46.936 66.8621 46.82 67.3421 46.82C67.8221 46.82 68.2181 46.936 68.5301 47.168C68.8501 47.392 69.0741 47.744 69.2021 48.224H69.0101C69.1781 47.792 69.4541 47.452 69.8381 47.204C70.2221 46.948 70.6621 46.82 71.1581 46.82C71.8381 46.82 72.3461 47.02 72.6821 47.42C73.0181 47.82 73.1861 48.444 73.1861 49.292V53H71.6861V49.352C71.6861 48.872 71.6061 48.528 71.4461 48.32C71.2861 48.104 71.0301 47.996 70.6781 47.996C70.2621 47.996 69.9341 48.144 69.6941 48.44C69.4541 48.728 69.3341 49.12 69.3341 49.616V53H67.8341V49.352C67.8341 48.872 67.7541 48.528 67.5941 48.32C67.4341 48.104 67.1781 47.996 66.8261 47.996C66.4101 47.996 66.0821 48.144 65.8421 48.44C65.6101 48.728 65.4941 49.12 65.4941 49.616V53H63.9941ZM77.8651 53.12C76.8491 53.12 76.0531 52.84 75.4771 52.28C74.9011 51.72 74.6131 50.952 74.6131 49.976C74.6131 49.344 74.7371 48.792 74.9851 48.32C75.2331 47.848 75.5771 47.48 76.0171 47.216C76.4651 46.952 76.9851 46.82 77.5771 46.82C78.1611 46.82 78.6491 46.944 79.0411 47.192C79.4331 47.44 79.7291 47.788 79.9291 48.236C80.1371 48.684 80.2411 49.208 80.2411 49.808V50.204H75.8251V49.412H79.1731L78.9691 49.58C78.9691 49.02 78.8491 48.592 78.6091 48.296C78.3771 48 78.0371 47.852 77.5891 47.852C77.0931 47.852 76.7091 48.028 76.4371 48.38C76.1731 48.732 76.0411 49.224 76.0411 49.856V50.012C76.0411 50.668 76.2011 51.16 76.5211 51.488C76.8491 51.808 77.3091 51.968 77.9011 51.968C78.2451 51.968 78.5651 51.924 78.8611 51.836C79.1651 51.74 79.4531 51.588 79.7251 51.38L80.1691 52.388C79.8811 52.62 79.5371 52.8 79.1371 52.928C78.7371 53.056 78.3131 53.12 77.8651 53.12ZM81.6613 53V48.452C81.6613 48.204 81.6533 47.952 81.6373 47.696C81.6213 47.44 81.5973 47.188 81.5653 46.94H83.0173L83.1373 48.14H82.9933C83.1853 47.716 83.4693 47.392 83.8453 47.168C84.2213 46.936 84.6573 46.82 85.1533 46.82C85.8653 46.82 86.4013 47.02 86.7613 47.42C87.1213 47.82 87.3013 48.444 87.3013 49.292V53H85.8013V49.364C85.8013 48.876 85.7053 48.528 85.5133 48.32C85.3293 48.104 85.0493 47.996 84.6733 47.996C84.2093 47.996 83.8413 48.14 83.5693 48.428C83.2973 48.716 83.1613 49.1 83.1613 49.58V53H81.6613ZM91.6338 53.12C90.9138 53.12 90.3698 52.932 90.0018 52.556C89.6338 52.18 89.4498 51.616 89.4498 50.864V48.068H88.2858V46.94H89.4498V45.392L90.9498 45.008V46.94H92.5698V48.068H90.9498V50.768C90.9498 51.184 91.0298 51.476 91.1898 51.644C91.3498 51.812 91.5698 51.896 91.8498 51.896C92.0018 51.896 92.1298 51.884 92.2338 51.86C92.3458 51.836 92.4538 51.804 92.5578 51.764V52.952C92.4218 53.008 92.2698 53.048 92.1018 53.072C91.9418 53.104 91.7858 53.12 91.6338 53.12ZM97.3016 53V44.54H101.01C101.93 44.54 102.638 44.736 103.134 45.128C103.63 45.512 103.878 46.048 103.878 46.736C103.878 47.248 103.726 47.68 103.422 48.032C103.118 48.384 102.698 48.62 102.162 48.74V48.56C102.778 48.648 103.254 48.872 103.59 49.232C103.934 49.584 104.106 50.052 104.106 50.636C104.106 51.388 103.846 51.972 103.326 52.388C102.806 52.796 102.082 53 101.154 53H97.3016ZM98.7896 51.824H100.974C101.494 51.824 101.898 51.728 102.186 51.536C102.474 51.336 102.618 51.012 102.618 50.564C102.618 50.108 102.474 49.784 102.186 49.592C101.898 49.392 101.494 49.292 100.974 49.292H98.7896V51.824ZM98.7896 48.128H100.746C101.298 48.128 101.706 48.028 101.97 47.828C102.242 47.62 102.378 47.316 102.378 46.916C102.378 46.516 102.242 46.216 101.97 46.016C101.706 45.808 101.298 45.704 100.746 45.704H98.7896V48.128ZM108.353 53.12C107.729 53.12 107.189 52.992 106.733 52.736C106.277 52.48 105.921 52.116 105.665 51.644C105.417 51.172 105.293 50.612 105.293 49.964C105.293 49.316 105.417 48.76 105.665 48.296C105.921 47.824 106.277 47.46 106.733 47.204C107.189 46.948 107.729 46.82 108.353 46.82C108.977 46.82 109.517 46.948 109.973 47.204C110.437 47.46 110.793 47.824 111.041 48.296C111.297 48.76 111.425 49.316 111.425 49.964C111.425 50.612 111.297 51.172 111.041 51.644C110.793 52.116 110.437 52.48 109.973 52.736C109.517 52.992 108.977 53.12 108.353 53.12ZM108.353 51.968C108.825 51.968 109.201 51.804 109.481 51.476C109.761 51.14 109.901 50.636 109.901 49.964C109.901 49.292 109.761 48.792 109.481 48.464C109.201 48.136 108.825 47.972 108.353 47.972C107.881 47.972 107.505 48.136 107.225 48.464C106.945 48.792 106.805 49.292 106.805 49.964C106.805 50.636 106.945 51.14 107.225 51.476C107.505 51.804 107.881 51.968 108.353 51.968ZM115.604 53.12C114.98 53.12 114.44 52.992 113.984 52.736C113.528 52.48 113.172 52.116 112.916 51.644C112.668 51.172 112.544 50.612 112.544 49.964C112.544 49.316 112.668 48.76 112.916 48.296C113.172 47.824 113.528 47.46 113.984 47.204C114.44 46.948 114.98 46.82 115.604 46.82C116.228 46.82 116.768 46.948 117.224 47.204C117.688 47.46 118.044 47.824 118.292 48.296C118.548 48.76 118.676 49.316 118.676 49.964C118.676 50.612 118.548 51.172 118.292 51.644C118.044 52.116 117.688 52.48 117.224 52.736C116.768 52.992 116.228 53.12 115.604 53.12ZM115.604 51.968C116.076 51.968 116.452 51.804 116.732 51.476C117.012 51.14 117.152 50.636 117.152 49.964C117.152 49.292 117.012 48.792 116.732 48.464C116.452 48.136 116.076 47.972 115.604 47.972C115.132 47.972 114.756 48.136 114.476 48.464C114.196 48.792 114.056 49.292 114.056 49.964C114.056 50.636 114.196 51.14 114.476 51.476C114.756 51.804 115.132 51.968 115.604 51.968ZM120.12 53V44.168H121.62V49.52H121.644L124.104 46.94H125.916L122.856 50.144L122.868 49.544L126.132 53H124.272L121.644 50.288H121.62V53H120.12ZM126.891 53V46.94H128.391V53H126.891ZM126.807 45.8V44.336H128.475V45.8H126.807ZM130.17 53V48.452C130.17 48.204 130.162 47.952 130.146 47.696C130.13 47.44 130.106 47.188 130.074 46.94H131.526L131.646 48.14H131.502C131.694 47.716 131.978 47.392 132.354 47.168C132.73 46.936 133.166 46.82 133.662 46.82C134.374 46.82 134.91 47.02 135.27 47.42C135.63 47.82 135.81 48.444 135.81 49.292V53H134.31V49.364C134.31 48.876 134.214 48.528 134.022 48.32C133.838 48.104 133.558 47.996 133.182 47.996C132.718 47.996 132.35 48.14 132.078 48.428C131.806 48.716 131.67 49.1 131.67 49.58V53H130.17ZM140.358 55.688C139.798 55.688 139.29 55.628 138.834 55.508C138.386 55.388 137.986 55.204 137.634 54.956L137.958 53.876C138.19 54.028 138.43 54.152 138.678 54.248C138.926 54.344 139.182 54.416 139.446 54.464C139.71 54.512 139.978 54.536 140.25 54.536C140.81 54.536 141.226 54.396 141.498 54.116C141.778 53.844 141.918 53.452 141.918 52.94V51.488H142.038C141.91 51.904 141.65 52.236 141.258 52.484C140.874 52.732 140.43 52.856 139.926 52.856C139.382 52.856 138.906 52.736 138.498 52.496C138.098 52.248 137.786 51.896 137.562 51.44C137.338 50.984 137.226 50.448 137.226 49.832C137.226 49.216 137.338 48.684 137.562 48.236C137.786 47.78 138.098 47.432 138.498 47.192C138.906 46.944 139.382 46.82 139.926 46.82C140.438 46.82 140.882 46.944 141.258 47.192C141.642 47.432 141.898 47.76 142.026 48.176L141.918 48.104L142.038 46.94H143.49C143.458 47.188 143.434 47.44 143.418 47.696C143.402 47.952 143.394 48.204 143.394 48.452V52.76C143.394 53.712 143.134 54.436 142.614 54.932C142.102 55.436 141.35 55.688 140.358 55.688ZM140.334 51.704C140.814 51.704 141.194 51.544 141.474 51.224C141.762 50.896 141.906 50.432 141.906 49.832C141.906 49.232 141.762 48.772 141.474 48.452C141.194 48.132 140.814 47.972 140.334 47.972C139.846 47.972 139.458 48.132 139.17 48.452C138.882 48.772 138.738 49.232 138.738 49.832C138.738 50.432 138.882 50.896 139.17 51.224C139.458 51.544 139.846 51.704 140.334 51.704Z" fill="white"></path><g clip-path="url(#clip0_641_11854)"><path d="M90 22.5C90 15.5964 84.4036 10 77.5 10C70.5964 10 65 15.5964 65 22.5C65 29.4036 70.5964 35 77.5 35H90V32.9167H84.401C87.8958 30.6029 89.9985 26.6916 90 22.5ZM83.6228 30.9274C82.2267 31.9416 80.272 31.6324 79.2578 30.2357C78.2436 28.8395 78.5529 26.8854 79.949 25.8707C81.3457 24.8565 83.2999 25.1657 84.3141 26.5624C85.3288 27.9586 85.019 29.9127 83.6228 30.9274ZM83.4692 17.2749C85.1106 16.7413 86.8735 17.6396 87.407 19.2809C87.9401 20.9227 87.0418 22.6856 85.4005 23.2187C83.7592 23.7522 81.9963 22.854 81.4627 21.2127C80.9297 19.5713 81.8279 17.8079 83.4692 17.2749ZM77.5 12.0833C79.2258 12.0833 80.625 13.4826 80.625 15.2083C80.625 16.9341 79.2258 18.3333 77.5 18.3333C75.7742 18.3333 74.375 16.9341 74.375 15.2083C74.375 13.4826 75.7742 12.0833 77.5 12.0833ZM67.593 19.2809C68.1265 17.6396 69.8894 16.7413 71.5308 17.2744C73.1721 17.8079 74.0703 19.5708 73.5373 21.2122C73.0037 22.8535 71.2408 23.7517 69.5995 23.2187C67.9582 22.6856 67.0599 20.9227 67.593 19.2809ZM75.7422 30.2357C74.728 31.6324 72.7733 31.9416 71.3772 30.9274C69.981 29.9127 69.6712 27.9586 70.6859 26.5624C71.7001 25.1662 73.6548 24.8565 75.051 25.8712C76.4471 26.8854 76.7564 28.8395 75.7422 30.2357ZM76.4583 22.5C76.4583 21.9247 76.9247 21.4583 77.5 21.4583C78.0753 21.4583 78.5417 21.9247 78.5417 22.5C78.5417 23.0753 78.0753 23.5417 77.5 23.5417C76.9247 23.5417 76.4583 23.0753 76.4583 22.5Z" fill="white"></path></g><defs><linearGradient id="paint0_linear_641_11854" x1="183" y1="34" x2="0.0584517" y2="32.1668" gradientUnits="userSpaceOnUse"><stop stop-color="#0461A5"></stop><stop offset="1" stop-color="#0E7AC9"></stop></linearGradient><clipPath id="clip0_641_11854"><rect width="25" height="25" fill="white" transform="translate(65 10)"></rect></clipPath></defs></svg>