<svg xmlns="http://www.w3.org/2000/svg" width="138" height="85" viewBox="0 0 138 85" fill="none"><path d="M0 19.8002V45.0797C0 56.0169 11.0826 64.8799 24.755 64.8799H33.8437C34.4475 64.8799 34.9149 65.414 34.8088 66.0085C33.6266 72.6334 29.9649 77.2724 26.4715 80.3083C25.5735 81.0888 26.5175 83.4165 27.6617 83.0904C31.4436 82.0127 34.8146 80.7194 37.8086 79.3111C41.2263 77.7121 44.1496 75.9485 46.6166 74.1955C51.2969 70.8788 54.387 67.5728 56.224 65.2651C56.4167 65.023 56.7074 64.8799 57.0169 64.8799H113.245C126.917 64.8799 138 56.0155 138 45.0797V19.8002C138 8.8644 126.917 0 113.245 0H24.755C11.0826 0 0 8.8644 0 19.8002Z" fill="url(#paint0_linear_641_11861)"></path><path d="M20.2786 52.12C19.3986 52.12 18.6426 51.944 18.0106 51.592C17.3866 51.232 16.9066 50.728 16.5706 50.08C16.2346 49.424 16.0666 48.652 16.0666 47.764C16.0666 46.876 16.2346 46.108 16.5706 45.46C16.9066 44.812 17.3866 44.312 18.0106 43.96C18.6426 43.6 19.3986 43.42 20.2786 43.42C20.8706 43.42 21.4026 43.504 21.8746 43.672C22.3546 43.84 22.7666 44.088 23.1106 44.416L22.6066 45.64C22.2306 45.336 21.8666 45.12 21.5146 44.992C21.1706 44.856 20.7746 44.788 20.3266 44.788C19.4706 44.788 18.8146 45.048 18.3586 45.568C17.9106 46.08 17.6866 46.812 17.6866 47.764C17.6866 48.716 17.9106 49.452 18.3586 49.972C18.8146 50.492 19.4706 50.752 20.3266 50.752C20.7746 50.752 21.1706 50.688 21.5146 50.56C21.8666 50.424 22.2306 50.2 22.6066 49.888L23.1106 51.112C22.7666 51.432 22.3546 51.68 21.8746 51.856C21.4026 52.032 20.8706 52.12 20.2786 52.12ZM24.5875 52V43.168H26.0875V47.152H25.9195C26.1035 46.72 26.3875 46.392 26.7715 46.168C27.1555 45.936 27.5955 45.82 28.0915 45.82C28.8115 45.82 29.3475 46.024 29.6995 46.432C30.0515 46.832 30.2275 47.444 30.2275 48.268V52H28.7275V48.34C28.7275 47.868 28.6355 47.528 28.4515 47.32C28.2755 47.104 27.9915 46.996 27.5995 46.996C27.1435 46.996 26.7755 47.14 26.4955 47.428C26.2235 47.708 26.0875 48.084 26.0875 48.556V52H24.5875ZM31.968 52V45.94H33.468V52H31.968ZM31.884 44.8V43.336H33.552V44.8H31.884ZM35.2469 52V43.168H36.7469V52H35.2469ZM40.8778 52.12C40.3498 52.12 39.8818 51.996 39.4738 51.748C39.0738 51.492 38.7618 51.128 38.5378 50.656C38.3138 50.184 38.2018 49.62 38.2018 48.964C38.2018 48.308 38.3138 47.748 38.5378 47.284C38.7618 46.812 39.0738 46.452 39.4738 46.204C39.8818 45.948 40.3498 45.82 40.8778 45.82C41.3818 45.82 41.8258 45.944 42.2098 46.192C42.6018 46.432 42.8618 46.76 42.9898 47.176H42.8338V43.168H44.3338V52H42.8578V50.716H43.0018C42.8738 51.148 42.6138 51.492 42.2218 51.748C41.8378 51.996 41.3898 52.12 40.8778 52.12ZM41.2978 50.968C41.7698 50.968 42.1498 50.804 42.4378 50.476C42.7258 50.14 42.8698 49.636 42.8698 48.964C42.8698 48.292 42.7258 47.792 42.4378 47.464C42.1498 47.136 41.7698 46.972 41.2978 46.972C40.8258 46.972 40.4418 47.136 40.1458 47.464C39.8578 47.792 39.7138 48.292 39.7138 48.964C39.7138 49.636 39.8578 50.14 40.1458 50.476C40.4418 50.804 40.8258 50.968 41.2978 50.968ZM48.9012 52.12C48.2772 52.12 47.7292 51.992 47.2572 51.736C46.7932 51.48 46.4332 51.116 46.1772 50.644C45.9212 50.164 45.7932 49.596 45.7932 48.94C45.7932 48.284 45.9212 47.724 46.1772 47.26C46.4412 46.796 46.8052 46.44 47.2692 46.192C47.7332 45.944 48.2772 45.82 48.9012 45.82C49.3012 45.82 49.6892 45.884 50.0652 46.012C50.4492 46.132 50.7612 46.308 51.0012 46.54L50.5452 47.584C50.3292 47.384 50.0852 47.236 49.8132 47.14C49.5492 47.036 49.2892 46.984 49.0332 46.984C48.4972 46.984 48.0772 47.152 47.7732 47.488C47.4772 47.824 47.3292 48.312 47.3292 48.952C47.3292 49.592 47.4772 50.084 47.7732 50.428C48.0772 50.772 48.4972 50.944 49.0332 50.944C49.2812 50.944 49.5372 50.896 49.8012 50.8C50.0732 50.704 50.3212 50.556 50.5452 50.356L51.0012 51.388C50.7532 51.62 50.4372 51.8 50.0532 51.928C49.6772 52.056 49.2932 52.12 48.9012 52.12ZM54.6189 52.12C54.0909 52.12 53.6269 51.996 53.2269 51.748C52.8269 51.492 52.5149 51.128 52.2909 50.656C52.0669 50.184 51.9549 49.62 51.9549 48.964C51.9549 48.308 52.0669 47.748 52.2909 47.284C52.5149 46.812 52.8269 46.452 53.2269 46.204C53.6269 45.948 54.0909 45.82 54.6189 45.82C55.1309 45.82 55.5789 45.948 55.9629 46.204C56.3549 46.452 56.6149 46.788 56.7429 47.212H56.6109L56.7429 45.94H58.1829C58.1589 46.188 58.1349 46.44 58.1109 46.696C58.0949 46.952 58.0869 47.204 58.0869 47.452V52H56.5989L56.5869 50.752H56.7309C56.6029 51.168 56.3429 51.5 55.9509 51.748C55.5589 51.996 55.1149 52.12 54.6189 52.12ZM55.0389 50.968C55.5109 50.968 55.8909 50.804 56.1789 50.476C56.4669 50.14 56.6109 49.636 56.6109 48.964C56.6109 48.292 56.4669 47.792 56.1789 47.464C55.8909 47.136 55.5109 46.972 55.0389 46.972C54.5669 46.972 54.1869 47.136 53.8989 47.464C53.6109 47.792 53.4669 48.292 53.4669 48.964C53.4669 49.636 53.6069 50.14 53.8869 50.476C54.1749 50.804 54.5589 50.968 55.0389 50.968ZM59.8583 52V47.488C59.8583 47.232 59.8503 46.972 59.8343 46.708C59.8263 46.444 59.8063 46.188 59.7743 45.94H61.2263L61.3943 47.596H61.1543C61.2343 47.196 61.3663 46.864 61.5503 46.6C61.7423 46.336 61.9743 46.14 62.2463 46.012C62.5183 45.884 62.8143 45.82 63.1343 45.82C63.2783 45.82 63.3943 45.828 63.4823 45.844C63.5703 45.852 63.6583 45.872 63.7463 45.904L63.7343 47.224C63.5823 47.16 63.4503 47.12 63.3383 47.104C63.2343 47.088 63.1023 47.08 62.9423 47.08C62.5983 47.08 62.3063 47.152 62.0663 47.296C61.8343 47.44 61.6583 47.64 61.5383 47.896C61.4263 48.152 61.3703 48.444 61.3703 48.772V52H59.8583ZM67.5655 52.12C66.5495 52.12 65.7535 51.84 65.1775 51.28C64.6015 50.72 64.3135 49.952 64.3135 48.976C64.3135 48.344 64.4375 47.792 64.6855 47.32C64.9335 46.848 65.2775 46.48 65.7175 46.216C66.1655 45.952 66.6855 45.82 67.2775 45.82C67.8615 45.82 68.3495 45.944 68.7415 46.192C69.1335 46.44 69.4295 46.788 69.6295 47.236C69.8375 47.684 69.9415 48.208 69.9415 48.808V49.204H65.5255V48.412H68.8735L68.6695 48.58C68.6695 48.02 68.5495 47.592 68.3095 47.296C68.0775 47 67.7375 46.852 67.2895 46.852C66.7935 46.852 66.4095 47.028 66.1375 47.38C65.8735 47.732 65.7415 48.224 65.7415 48.856V49.012C65.7415 49.668 65.9015 50.16 66.2215 50.488C66.5495 50.808 67.0095 50.968 67.6015 50.968C67.9455 50.968 68.2655 50.924 68.5615 50.836C68.8655 50.74 69.1535 50.588 69.4255 50.38L69.8695 51.388C69.5815 51.62 69.2375 51.8 68.8375 51.928C68.4375 52.056 68.0135 52.12 67.5655 52.12ZM77.8767 52.12C77.1967 52.12 76.5687 52.036 75.9927 51.868C75.4247 51.692 74.9367 51.452 74.5287 51.148L75.0087 49.936C75.2807 50.128 75.5647 50.292 75.8607 50.428C76.1567 50.556 76.4727 50.656 76.8087 50.728C77.1447 50.792 77.5007 50.824 77.8767 50.824C78.5087 50.824 78.9647 50.72 79.2447 50.512C79.5247 50.304 79.6647 50.032 79.6647 49.696C79.6647 49.4 79.5687 49.176 79.3767 49.024C79.1847 48.864 78.8407 48.732 78.3447 48.628L76.9887 48.352C76.2127 48.192 75.6327 47.924 75.2487 47.548C74.8647 47.172 74.6727 46.668 74.6727 46.036C74.6727 45.508 74.8127 45.048 75.0927 44.656C75.3727 44.264 75.7647 43.96 76.2687 43.744C76.7727 43.528 77.3607 43.42 78.0327 43.42C78.6327 43.42 79.1887 43.508 79.7007 43.684C80.2127 43.852 80.6407 44.096 80.9847 44.416L80.5047 45.568C80.1607 45.28 79.7847 45.068 79.3767 44.932C78.9687 44.788 78.5127 44.716 78.0087 44.716C77.4407 44.716 76.9967 44.828 76.6767 45.052C76.3647 45.268 76.2087 45.568 76.2087 45.952C76.2087 46.248 76.3047 46.484 76.4967 46.66C76.6967 46.836 77.0327 46.972 77.5047 47.068L78.8487 47.332C79.6487 47.492 80.2407 47.756 80.6247 48.124C81.0087 48.484 81.2007 48.972 81.2007 49.588C81.2007 50.092 81.0647 50.536 80.7927 50.92C80.5207 51.296 80.1367 51.592 79.6407 51.808C79.1447 52.016 78.5567 52.12 77.8767 52.12ZM85.617 52.12C84.601 52.12 83.805 51.84 83.229 51.28C82.653 50.72 82.365 49.952 82.365 48.976C82.365 48.344 82.489 47.792 82.737 47.32C82.985 46.848 83.329 46.48 83.769 46.216C84.217 45.952 84.737 45.82 85.329 45.82C85.913 45.82 86.401 45.944 86.793 46.192C87.185 46.44 87.481 46.788 87.681 47.236C87.889 47.684 87.993 48.208 87.993 48.808V49.204H83.577V48.412H86.925L86.721 48.58C86.721 48.02 86.601 47.592 86.361 47.296C86.129 47 85.789 46.852 85.341 46.852C84.845 46.852 84.461 47.028 84.189 47.38C83.925 47.732 83.793 48.224 83.793 48.856V49.012C83.793 49.668 83.953 50.16 84.273 50.488C84.601 50.808 85.061 50.968 85.653 50.968C85.997 50.968 86.317 50.924 86.613 50.836C86.917 50.74 87.205 50.588 87.477 50.38L87.921 51.388C87.633 51.62 87.289 51.8 86.889 51.928C86.489 52.056 86.065 52.12 85.617 52.12ZM89.4013 52V47.488C89.4013 47.232 89.3933 46.972 89.3773 46.708C89.3693 46.444 89.3493 46.188 89.3173 45.94H90.7693L90.9373 47.596H90.6973C90.7773 47.196 90.9093 46.864 91.0933 46.6C91.2853 46.336 91.5173 46.14 91.7893 46.012C92.0613 45.884 92.3573 45.82 92.6773 45.82C92.8213 45.82 92.9373 45.828 93.0253 45.844C93.1133 45.852 93.2013 45.872 93.2893 45.904L93.2773 47.224C93.1253 47.16 92.9933 47.12 92.8813 47.104C92.7773 47.088 92.6453 47.08 92.4853 47.08C92.1413 47.08 91.8493 47.152 91.6093 47.296C91.3773 47.44 91.2013 47.64 91.0813 47.896C90.9693 48.152 90.9133 48.444 90.9133 48.772V52H89.4013ZM96.4135 52L93.7975 45.94H95.3935L97.2895 50.68H96.9175L98.8615 45.94H100.361L97.7335 52H96.4135ZM101.315 52V45.94H102.815V52H101.315ZM101.231 44.8V43.336H102.899V44.8H101.231ZM107.378 52.12C106.754 52.12 106.206 51.992 105.734 51.736C105.27 51.48 104.91 51.116 104.654 50.644C104.398 50.164 104.27 49.596 104.27 48.94C104.27 48.284 104.398 47.724 104.654 47.26C104.918 46.796 105.282 46.44 105.746 46.192C106.21 45.944 106.754 45.82 107.378 45.82C107.778 45.82 108.166 45.884 108.542 46.012C108.926 46.132 109.238 46.308 109.478 46.54L109.022 47.584C108.806 47.384 108.562 47.236 108.29 47.14C108.026 47.036 107.766 46.984 107.51 46.984C106.974 46.984 106.554 47.152 106.25 47.488C105.954 47.824 105.806 48.312 105.806 48.952C105.806 49.592 105.954 50.084 106.25 50.428C106.554 50.772 106.974 50.944 107.51 50.944C107.758 50.944 108.014 50.896 108.278 50.8C108.55 50.704 108.798 50.556 109.022 50.356L109.478 51.388C109.23 51.62 108.914 51.8 108.53 51.928C108.154 52.056 107.77 52.12 107.378 52.12ZM113.601 52.12C112.585 52.12 111.789 51.84 111.213 51.28C110.637 50.72 110.349 49.952 110.349 48.976C110.349 48.344 110.473 47.792 110.721 47.32C110.969 46.848 111.313 46.48 111.753 46.216C112.201 45.952 112.721 45.82 113.313 45.82C113.897 45.82 114.385 45.944 114.777 46.192C115.169 46.44 115.465 46.788 115.665 47.236C115.873 47.684 115.977 48.208 115.977 48.808V49.204H111.561V48.412H114.909L114.705 48.58C114.705 48.02 114.585 47.592 114.345 47.296C114.113 47 113.773 46.852 113.325 46.852C112.829 46.852 112.445 47.028 112.173 47.38C111.909 47.732 111.777 48.224 111.777 48.856V49.012C111.777 49.668 111.937 50.16 112.257 50.488C112.585 50.808 113.045 50.968 113.637 50.968C113.981 50.968 114.301 50.924 114.597 50.836C114.901 50.74 115.189 50.588 115.461 50.38L115.905 51.388C115.617 51.62 115.273 51.8 114.873 51.928C114.473 52.056 114.049 52.12 113.601 52.12ZM119.558 52.12C119.038 52.12 118.558 52.06 118.118 51.94C117.686 51.812 117.322 51.636 117.026 51.412L117.446 50.404C117.75 50.612 118.086 50.772 118.454 50.884C118.822 50.996 119.194 51.052 119.57 51.052C119.97 51.052 120.266 50.984 120.458 50.848C120.658 50.712 120.758 50.528 120.758 50.296C120.758 50.112 120.694 49.968 120.566 49.864C120.446 49.752 120.25 49.668 119.978 49.612L118.778 49.384C118.266 49.272 117.874 49.08 117.602 48.808C117.338 48.536 117.206 48.18 117.206 47.74C117.206 47.364 117.306 47.032 117.506 46.744C117.714 46.456 118.006 46.232 118.382 46.072C118.766 45.904 119.214 45.82 119.726 45.82C120.174 45.82 120.594 45.88 120.986 46C121.386 46.12 121.722 46.3 121.994 46.54L121.562 47.512C121.314 47.312 121.03 47.156 120.71 47.044C120.39 46.932 120.078 46.876 119.774 46.876C119.358 46.876 119.054 46.952 118.862 47.104C118.67 47.248 118.574 47.436 118.574 47.668C118.574 47.844 118.63 47.992 118.742 48.112C118.862 48.224 119.046 48.308 119.294 48.364L120.494 48.592C121.03 48.696 121.434 48.88 121.706 49.144C121.986 49.4 122.126 49.752 122.126 50.2C122.126 50.6 122.018 50.944 121.802 51.232C121.586 51.52 121.286 51.74 120.902 51.892C120.518 52.044 120.07 52.12 119.558 52.12Z" fill="white"></path><path d="M70.6719 18.2031C70.8876 18.2031 71.0625 18.0282 71.0625 17.8125C71.0625 17.5968 70.8876 17.4219 70.6719 17.4219C70.4561 17.4219 70.2812 17.5968 70.2812 17.8125C70.2812 18.0282 70.4561 18.2031 70.6719 18.2031Z" fill="white"></path><path d="M69.8906 18.9844H69.1094C69.0058 18.9844 68.9064 19.0255 68.8332 19.0988C68.7599 19.172 68.7188 19.2714 68.7188 19.375C68.7188 19.4786 68.7599 19.578 68.8332 19.6512C68.9064 19.7245 69.0058 19.7656 69.1094 19.7656H69.8906C69.9942 19.7656 70.0936 19.7245 70.1668 19.6512C70.2401 19.578 70.2812 19.4786 70.2812 19.375C70.2812 19.2714 70.2401 19.172 70.1668 19.0988C70.0936 19.0255 69.9942 18.9844 69.8906 18.9844Z" fill="white"></path><path d="M68.3281 18.2031C68.5439 18.2031 68.7188 18.0282 68.7188 17.8125C68.7188 17.5968 68.5439 17.4219 68.3281 17.4219C68.1124 17.4219 67.9375 17.5968 67.9375 17.8125C67.9375 18.0282 68.1124 18.2031 68.3281 18.2031Z" fill="white"></path><path d="M76.5312 23.6147V20.6187C74.5984 23.5179 69.2465 25.6968 62.4688 26.2601V28.728C69.0637 28.5058 74.5613 26.4261 76.5312 23.6147Z" fill="white"></path><path d="M62.4688 21.5854V25.4757C64.6583 25.2991 66.8251 24.9074 68.9379 24.3062C66.5697 24.0213 64.3287 23.0788 62.4688 21.5854Z" fill="white"></path><path d="M76.5312 18.2031V16.25C76.5312 14.7996 75.9551 13.4086 74.9295 12.383C73.9039 11.3574 72.5129 10.7812 71.0625 10.7812H67.9375C66.4871 10.7812 65.0961 11.3574 64.0705 12.383C63.0449 13.4086 62.4688 14.7996 62.4688 16.25V20.5445C64.3402 22.3938 67.3836 23.6148 70.8305 23.6676C74.3316 22.3102 76.5312 20.3637 76.5312 18.2031ZM66.5863 18.9355C66.5199 18.9659 66.448 18.9825 66.375 18.9844C65.9434 18.9844 65.5938 18.4598 65.5938 17.8125C65.5938 17.1652 65.9434 16.6406 66.375 16.6406C66.448 16.6425 66.5199 16.6591 66.5863 16.6895C66.8126 16.1002 67.2122 15.5935 67.7323 15.236C68.2525 14.8785 68.8688 14.6872 69.5 14.6872C70.1312 14.6872 70.7475 14.8785 71.2677 15.236C71.7878 15.5935 72.1874 16.1002 72.4137 16.6895C72.4801 16.6591 72.552 16.6425 72.625 16.6406C73.0547 16.6406 73.4062 17.1652 73.4062 17.8125C73.4062 18.4598 73.0547 18.9844 72.625 18.9844C72.552 18.9825 72.4801 18.9659 72.4137 18.9355C72.1874 19.5248 71.7878 20.0315 71.2677 20.389C70.7475 20.7465 70.1312 20.9378 69.5 20.9378C68.8688 20.9378 68.2525 20.7465 67.7323 20.389C67.2122 20.0315 66.8126 19.5248 66.5863 18.9355Z" fill="white"></path><path d="M67.9375 34.2188H71.0625C72.5129 34.2188 73.9039 33.6427 74.9295 32.6171C75.9551 31.5915 76.5312 30.2005 76.5312 28.7501V24.8384C74.0441 27.4653 68.8145 29.297 62.5273 29.5083C62.7094 30.8139 63.3572 32.0098 64.3514 32.8754C65.3456 33.7411 66.6192 34.2182 67.9375 34.2188Z" fill="white"></path><defs><linearGradient id="paint0_linear_641_11861" x1="138" y1="41.2857" x2="0.0355682" y2="40.4271" gradientUnits="userSpaceOnUse"><stop stop-color="#0461A5"></stop><stop offset="1" stop-color="#0E7AC9"></stop></linearGradient></defs></svg>