<svg xmlns="http://www.w3.org/2000/svg" width="106" height="85" viewBox="0 0 106 85" fill="none"><path d="M0 19.8002V45.0797C0 56.0169 8.51272 64.8799 19.0147 64.8799H25.7655C26.3574 64.8799 26.8208 65.3944 26.741 65.9809C25.8144 72.7859 22.8787 77.4986 20.1326 80.5326C19.3554 81.3913 20.3867 83.4155 21.4705 83.007C24.2851 81.9462 26.8007 80.6832 29.0414 79.3111C31.6666 77.7121 33.912 75.9485 35.807 74.1955C39.3498 70.927 41.7064 67.6688 43.1245 65.3662C43.3095 65.0658 43.6349 64.8799 43.9877 64.8799H86.9853C97.4873 64.8799 106 56.0155 106 45.0797V19.8002C106 8.8644 97.4873 0 86.9853 0H19.0147C8.51272 0 0 8.8644 0 19.8002Z" fill="url(#paint0_linear_641_11821)"></path><path d="M16.4145 52V43.54H20.1705C21.0985 43.54 21.8065 43.764 22.2945 44.212C22.7825 44.66 23.0265 45.276 23.0265 46.06C23.0265 46.836 22.7825 47.452 22.2945 47.908C21.8065 48.364 21.0985 48.592 20.1705 48.592H17.9625V52H16.4145ZM17.9625 47.368H19.9905C20.5025 47.368 20.8865 47.256 21.1425 47.032C21.3985 46.8 21.5265 46.476 21.5265 46.06C21.5265 45.644 21.3985 45.324 21.1425 45.1C20.8865 44.868 20.5025 44.752 19.9905 44.752H17.9625V47.368ZM24.4367 52V43.168H25.9367V47.152H25.7687C25.9527 46.72 26.2367 46.392 26.6207 46.168C27.0047 45.936 27.4447 45.82 27.9407 45.82C28.6607 45.82 29.1967 46.024 29.5487 46.432C29.9007 46.832 30.0767 47.444 30.0767 48.268V52H28.5767V48.34C28.5767 47.868 28.4847 47.528 28.3007 47.32C28.1247 47.104 27.8407 46.996 27.4487 46.996C26.9927 46.996 26.6247 47.14 26.3447 47.428C26.0727 47.708 25.9367 48.084 25.9367 48.556V52H24.4367ZM34.5532 52.12C33.9292 52.12 33.3892 51.992 32.9332 51.736C32.4772 51.48 32.1212 51.116 31.8652 50.644C31.6172 50.172 31.4932 49.612 31.4932 48.964C31.4932 48.316 31.6172 47.76 31.8652 47.296C32.1212 46.824 32.4772 46.46 32.9332 46.204C33.3892 45.948 33.9292 45.82 34.5532 45.82C35.1772 45.82 35.7172 45.948 36.1732 46.204C36.6372 46.46 36.9932 46.824 37.2412 47.296C37.4972 47.76 37.6252 48.316 37.6252 48.964C37.6252 49.612 37.4972 50.172 37.2412 50.644C36.9932 51.116 36.6372 51.48 36.1732 51.736C35.7172 51.992 35.1772 52.12 34.5532 52.12ZM34.5532 50.968C35.0252 50.968 35.4012 50.804 35.6812 50.476C35.9612 50.14 36.1012 49.636 36.1012 48.964C36.1012 48.292 35.9612 47.792 35.6812 47.464C35.4012 47.136 35.0252 46.972 34.5532 46.972C34.0812 46.972 33.7052 47.136 33.4252 47.464C33.1452 47.792 33.0052 48.292 33.0052 48.964C33.0052 49.636 33.1452 50.14 33.4252 50.476C33.7052 50.804 34.0812 50.968 34.5532 50.968ZM41.6021 52.12C40.8821 52.12 40.3381 51.932 39.9701 51.556C39.6021 51.18 39.4181 50.616 39.4181 49.864V47.068H38.2541V45.94H39.4181V44.392L40.9181 44.008V45.94H42.5381V47.068H40.9181V49.768C40.9181 50.184 40.9981 50.476 41.1581 50.644C41.3181 50.812 41.5381 50.896 41.8181 50.896C41.9701 50.896 42.0981 50.884 42.2021 50.86C42.3141 50.836 42.4221 50.804 42.5261 50.764V51.952C42.3901 52.008 42.2381 52.048 42.0701 52.072C41.9101 52.104 41.7541 52.12 41.6021 52.12ZM46.3844 52.12C45.7604 52.12 45.2204 51.992 44.7644 51.736C44.3084 51.48 43.9524 51.116 43.6964 50.644C43.4484 50.172 43.3244 49.612 43.3244 48.964C43.3244 48.316 43.4484 47.76 43.6964 47.296C43.9524 46.824 44.3084 46.46 44.7644 46.204C45.2204 45.948 45.7604 45.82 46.3844 45.82C47.0084 45.82 47.5484 45.948 48.0044 46.204C48.4684 46.46 48.8244 46.824 49.0724 47.296C49.3284 47.76 49.4564 48.316 49.4564 48.964C49.4564 49.612 49.3284 50.172 49.0724 50.644C48.8244 51.116 48.4684 51.48 48.0044 51.736C47.5484 51.992 47.0084 52.12 46.3844 52.12ZM46.3844 50.968C46.8564 50.968 47.2324 50.804 47.5124 50.476C47.7924 50.14 47.9324 49.636 47.9324 48.964C47.9324 48.292 47.7924 47.792 47.5124 47.464C47.2324 47.136 46.8564 46.972 46.3844 46.972C45.9124 46.972 45.5364 47.136 45.2564 47.464C44.9764 47.792 44.8364 48.292 44.8364 48.964C44.8364 49.636 44.9764 50.14 45.2564 50.476C45.5364 50.804 45.9124 50.968 46.3844 50.968ZM53.708 54.688C53.148 54.688 52.64 54.628 52.184 54.508C51.736 54.388 51.336 54.204 50.984 53.956L51.308 52.876C51.54 53.028 51.78 53.152 52.028 53.248C52.276 53.344 52.532 53.416 52.796 53.464C53.06 53.512 53.328 53.536 53.6 53.536C54.16 53.536 54.576 53.396 54.848 53.116C55.128 52.844 55.268 52.452 55.268 51.94V50.488H55.388C55.26 50.904 55 51.236 54.608 51.484C54.224 51.732 53.78 51.856 53.276 51.856C52.732 51.856 52.256 51.736 51.848 51.496C51.448 51.248 51.136 50.896 50.912 50.44C50.688 49.984 50.576 49.448 50.576 48.832C50.576 48.216 50.688 47.684 50.912 47.236C51.136 46.78 51.448 46.432 51.848 46.192C52.256 45.944 52.732 45.82 53.276 45.82C53.788 45.82 54.232 45.944 54.608 46.192C54.992 46.432 55.248 46.76 55.376 47.176L55.268 47.104L55.388 45.94H56.84C56.808 46.188 56.784 46.44 56.768 46.696C56.752 46.952 56.744 47.204 56.744 47.452V51.76C56.744 52.712 56.484 53.436 55.964 53.932C55.452 54.436 54.7 54.688 53.708 54.688ZM53.684 50.704C54.164 50.704 54.544 50.544 54.824 50.224C55.112 49.896 55.256 49.432 55.256 48.832C55.256 48.232 55.112 47.772 54.824 47.452C54.544 47.132 54.164 46.972 53.684 46.972C53.196 46.972 52.808 47.132 52.52 47.452C52.232 47.772 52.088 48.232 52.088 48.832C52.088 49.432 52.232 49.896 52.52 50.224C52.808 50.544 53.196 50.704 53.684 50.704ZM58.5028 52V47.488C58.5028 47.232 58.4948 46.972 58.4788 46.708C58.4708 46.444 58.4508 46.188 58.4188 45.94H59.8708L60.0388 47.596H59.7988C59.8788 47.196 60.0108 46.864 60.1948 46.6C60.3868 46.336 60.6188 46.14 60.8908 46.012C61.1628 45.884 61.4588 45.82 61.7788 45.82C61.9228 45.82 62.0388 45.828 62.1268 45.844C62.2148 45.852 62.3028 45.872 62.3908 45.904L62.3788 47.224C62.2268 47.16 62.0948 47.12 61.9828 47.104C61.8788 47.088 61.7468 47.08 61.5868 47.08C61.2428 47.08 60.9508 47.152 60.7108 47.296C60.4788 47.44 60.3028 47.64 60.1828 47.896C60.0708 48.152 60.0148 48.444 60.0148 48.772V52H58.5028ZM65.6572 52.12C65.1292 52.12 64.6652 51.996 64.2652 51.748C63.8652 51.492 63.5532 51.128 63.3292 50.656C63.1052 50.184 62.9932 49.62 62.9932 48.964C62.9932 48.308 63.1052 47.748 63.3292 47.284C63.5532 46.812 63.8652 46.452 64.2652 46.204C64.6652 45.948 65.1292 45.82 65.6572 45.82C66.1692 45.82 66.6172 45.948 67.0012 46.204C67.3932 46.452 67.6532 46.788 67.7812 47.212H67.6492L67.7812 45.94H69.2212C69.1972 46.188 69.1732 46.44 69.1492 46.696C69.1332 46.952 69.1252 47.204 69.1252 47.452V52H67.6372L67.6252 50.752H67.7692C67.6412 51.168 67.3812 51.5 66.9892 51.748C66.5972 51.996 66.1532 52.12 65.6572 52.12ZM66.0772 50.968C66.5492 50.968 66.9292 50.804 67.2172 50.476C67.5052 50.14 67.6492 49.636 67.6492 48.964C67.6492 48.292 67.5052 47.792 67.2172 47.464C66.9292 47.136 66.5492 46.972 66.0772 46.972C65.6052 46.972 65.2252 47.136 64.9372 47.464C64.6492 47.792 64.5052 48.292 64.5052 48.964C64.5052 49.636 64.6452 50.14 64.9252 50.476C65.2132 50.804 65.5972 50.968 66.0772 50.968ZM70.9086 54.592V47.452C70.9086 47.204 70.9006 46.952 70.8846 46.696C70.8686 46.44 70.8446 46.188 70.8126 45.94H72.2646L72.3966 47.212H72.2646C72.3846 46.788 72.6366 46.452 73.0206 46.204C73.4126 45.948 73.8646 45.82 74.3766 45.82C74.9126 45.82 75.3806 45.948 75.7806 46.204C76.1806 46.452 76.4926 46.812 76.7166 47.284C76.9406 47.748 77.0526 48.308 77.0526 48.964C77.0526 49.62 76.9406 50.184 76.7166 50.656C76.4926 51.128 76.1806 51.492 75.7806 51.748C75.3806 51.996 74.9126 52.12 74.3766 52.12C73.8726 52.12 73.4286 51.996 73.0446 51.748C72.6606 51.5 72.4046 51.168 72.2766 50.752H72.4086V54.592H70.9086ZM73.9566 50.968C74.4366 50.968 74.8206 50.804 75.1086 50.476C75.3966 50.14 75.5406 49.636 75.5406 48.964C75.5406 48.292 75.3966 47.792 75.1086 47.464C74.8206 47.136 74.4366 46.972 73.9566 46.972C73.4846 46.972 73.1046 47.136 72.8166 47.464C72.5286 47.792 72.3846 48.292 72.3846 48.964C72.3846 49.636 72.5286 50.14 72.8166 50.476C73.1046 50.804 73.4846 50.968 73.9566 50.968ZM78.5 52V43.168H80V47.152H79.832C80.016 46.72 80.3 46.392 80.684 46.168C81.068 45.936 81.508 45.82 82.004 45.82C82.724 45.82 83.26 46.024 83.612 46.432C83.964 46.832 84.14 47.444 84.14 48.268V52H82.64V48.34C82.64 47.868 82.548 47.528 82.364 47.32C82.188 47.104 81.904 46.996 81.512 46.996C81.056 46.996 80.688 47.14 80.408 47.428C80.136 47.708 80 48.084 80 48.556V52H78.5ZM85.7019 54.724L85.3539 53.536C85.7299 53.456 86.0459 53.364 86.3019 53.26C86.5579 53.156 86.7699 53.02 86.9379 52.852C87.1059 52.684 87.2459 52.468 87.3579 52.204L87.6579 51.496L87.6219 52.084L84.9819 45.94H86.5779L88.4739 50.668H88.1259L90.0339 45.94H91.5459L88.7859 52.336C88.6019 52.768 88.4019 53.124 88.1859 53.404C87.9699 53.692 87.7379 53.92 87.4899 54.088C87.2419 54.264 86.9699 54.4 86.6739 54.496C86.3779 54.592 86.0539 54.668 85.7019 54.724Z" fill="white"></path><path d="M53.5 20.1562C51.3461 20.1562 49.5938 21.9086 49.5938 24.0625C49.5938 26.2164 51.3461 27.9688 53.5 27.9688C55.6539 27.9688 57.4062 26.2164 57.4062 24.0625C57.4062 21.9086 55.6539 20.1562 53.5 20.1562ZM55.8438 24.8438C55.4117 24.8438 55.0625 24.4938 55.0625 24.0625C55.0625 23.2008 54.3617 22.5 53.5 22.5C53.068 22.5 52.7188 22.15 52.7188 21.7188C52.7188 21.2875 53.068 20.9375 53.5 20.9375C55.2234 20.9375 56.625 22.3391 56.625 24.0625C56.625 24.4938 56.2758 24.8438 55.8438 24.8438Z" fill="white"></path><path d="M57.8203 15.4688L57.3828 13.7164C57.2953 13.3695 56.9836 13.125 56.625 13.125H50.375C50.0164 13.125 49.7047 13.3695 49.6172 13.7164L49.1797 15.4688H57.8203Z" fill="white"></path><path d="M62.875 16.25H58.0156H48.9844H44.125C42.8328 16.25 41.7812 17.3016 41.7812 18.5938V29.5312C41.7812 30.8234 42.8328 31.875 44.125 31.875H62.875C64.1672 31.875 65.2188 30.8234 65.2188 29.5312V18.5938C65.2188 17.3016 64.1672 16.25 62.875 16.25ZM45.6875 20.9375C45.2555 20.9375 44.9062 20.5875 44.9062 20.1562C44.9062 19.725 45.2555 19.375 45.6875 19.375C46.1195 19.375 46.4688 19.725 46.4688 20.1562C46.4688 20.5875 46.1195 20.9375 45.6875 20.9375ZM53.5 29.5312C50.4852 29.5312 48.0312 27.0781 48.0312 24.0625C48.0312 21.0469 50.4852 18.5938 53.5 18.5938C56.5148 18.5938 58.9688 21.0469 58.9688 24.0625C58.9688 27.0781 56.5148 29.5312 53.5 29.5312Z" fill="white"></path><defs><linearGradient id="paint0_linear_641_11821" x1="106" y1="41.2857" x2="0.0256379" y2="40.7791" gradientUnits="userSpaceOnUse"><stop stop-color="#0461A5"></stop><stop offset="1" stop-color="#0E7AC9"></stop></linearGradient></defs></svg>