<svg xmlns="http://www.w3.org/2000/svg" width="146" height="97" viewBox="0 0 146 97" fill="none"><path d="M0.000933237 20.7905C0.000417825 20.7905 0 20.7909 0 20.7914V47.3282C0 56.0335 6.75947 63.4951 16.3469 66.5779C19.3919 67.565 22.7173 68.1068 26.1981 68.1068H86.2901C86.7003 68.1068 87.0682 68.3575 87.2231 68.7373C88.5111 71.8938 89.9455 74.6952 91.4754 77.1832C99.4297 90.2124 109.868 94.7404 115.174 96.2633C116.141 96.5408 116.671 95.4044 115.954 94.6981C111.892 90.6914 109.074 85.6118 107.138 80.5496C105.607 76.6079 104.6 72.6757 103.949 69.2762C103.833 68.6663 104.304 68.1068 104.925 68.1068H119.802C120.253 68.1068 120.703 68.0949 121.137 68.0696C121.386 68.0696 121.635 68.0444 121.884 68.0325C121.967 68.0325 122.06 68.0325 122.148 68.0211C122.2 68.0143 122.252 68.0055 122.305 68.0016C128.892 67.5188 134.767 65.0821 138.992 61.4467C143.342 57.736 146 52.7785 146 47.3282V20.7905C146 9.30948 134.269 0 119.802 0H26.1999C11.7331 0 0.00250696 9.30897 0.0018665 20.7895C0.00186647 20.7901 0.00144865 20.7905 0.000933237 20.7905Z" fill="url(#paint0_linear_641_11884)"></path><path d="M18.2626 54V45.54H21.9706C22.8906 45.54 23.5986 45.736 24.0946 46.128C24.5906 46.512 24.8386 47.048 24.8386 47.736C24.8386 48.248 24.6866 48.68 24.3826 49.032C24.0786 49.384 23.6586 49.62 23.1226 49.74V49.56C23.7386 49.648 24.2146 49.872 24.5506 50.232C24.8946 50.584 25.0666 51.052 25.0666 51.636C25.0666 52.388 24.8066 52.972 24.2866 53.388C23.7666 53.796 23.0426 54 22.1146 54H18.2626ZM19.7506 52.824H21.9346C22.4546 52.824 22.8586 52.728 23.1466 52.536C23.4346 52.336 23.5786 52.012 23.5786 51.564C23.5786 51.108 23.4346 50.784 23.1466 50.592C22.8586 50.392 22.4546 50.292 21.9346 50.292H19.7506V52.824ZM19.7506 49.128H21.7066C22.2586 49.128 22.6666 49.028 22.9306 48.828C23.2026 48.62 23.3386 48.316 23.3386 47.916C23.3386 47.516 23.2026 47.216 22.9306 47.016C22.6666 46.808 22.2586 46.704 21.7066 46.704H19.7506V49.128ZM28.9177 54.12C28.3897 54.12 27.9257 53.996 27.5257 53.748C27.1257 53.492 26.8137 53.128 26.5897 52.656C26.3657 52.184 26.2537 51.62 26.2537 50.964C26.2537 50.308 26.3657 49.748 26.5897 49.284C26.8137 48.812 27.1257 48.452 27.5257 48.204C27.9257 47.948 28.3897 47.82 28.9177 47.82C29.4297 47.82 29.8777 47.948 30.2617 48.204C30.6537 48.452 30.9137 48.788 31.0417 49.212H30.9097L31.0417 47.94H32.4817C32.4577 48.188 32.4337 48.44 32.4097 48.696C32.3937 48.952 32.3857 49.204 32.3857 49.452V54H30.8977L30.8857 52.752H31.0297C30.9017 53.168 30.6417 53.5 30.2497 53.748C29.8577 53.996 29.4137 54.12 28.9177 54.12ZM29.3377 52.968C29.8097 52.968 30.1897 52.804 30.4777 52.476C30.7657 52.14 30.9097 51.636 30.9097 50.964C30.9097 50.292 30.7657 49.792 30.4777 49.464C30.1897 49.136 29.8097 48.972 29.3377 48.972C28.8657 48.972 28.4857 49.136 28.1977 49.464C27.9097 49.792 27.7657 50.292 27.7657 50.964C27.7657 51.636 27.9057 52.14 28.1857 52.476C28.4737 52.804 28.8577 52.968 29.3377 52.968ZM37.6371 54.12C37.1251 54.12 36.6771 53.996 36.2931 53.748C35.9091 53.492 35.6531 53.148 35.5251 52.716H35.6571V54H34.1691V45.168H35.6691V49.176H35.5251C35.6611 48.76 35.9211 48.432 36.3051 48.192C36.6891 47.944 37.1331 47.82 37.6371 47.82C38.1731 47.82 38.6411 47.948 39.0411 48.204C39.4411 48.46 39.7531 48.824 39.9771 49.296C40.2011 49.76 40.3131 50.32 40.3131 50.976C40.3131 51.632 40.2011 52.196 39.9771 52.668C39.7531 53.132 39.4371 53.492 39.0291 53.748C38.6291 53.996 38.1651 54.12 37.6371 54.12ZM37.2171 52.968C37.6891 52.968 38.0691 52.804 38.3571 52.476C38.6531 52.148 38.8011 51.648 38.8011 50.976C38.8011 50.304 38.6531 49.804 38.3571 49.476C38.0691 49.14 37.6891 48.972 37.2171 48.972C36.7451 48.972 36.3651 49.136 36.0771 49.464C35.7891 49.792 35.6451 50.292 35.6451 50.964C35.6451 51.636 35.7891 52.14 36.0771 52.476C36.3651 52.804 36.7451 52.968 37.2171 52.968ZM41.5233 56.724L41.1753 55.536C41.5513 55.456 41.8673 55.364 42.1233 55.26C42.3793 55.156 42.5913 55.02 42.7593 54.852C42.9273 54.684 43.0673 54.468 43.1793 54.204L43.4793 53.496L43.4433 54.084L40.8033 47.94H42.3993L44.2953 52.668H43.9473L45.8553 47.94H47.3673L44.6073 54.336C44.4233 54.768 44.2233 55.124 44.0073 55.404C43.7913 55.692 43.5593 55.92 43.3113 56.088C43.0633 56.264 42.7913 56.4 42.4953 56.496C42.1993 56.592 41.8753 56.668 41.5233 56.724ZM50.3518 54.12C49.8318 54.12 49.3518 54.06 48.9118 53.94C48.4798 53.812 48.1158 53.636 47.8198 53.412L48.2398 52.404C48.5438 52.612 48.8798 52.772 49.2478 52.884C49.6158 52.996 49.9878 53.052 50.3638 53.052C50.7638 53.052 51.0598 52.984 51.2518 52.848C51.4518 52.712 51.5518 52.528 51.5518 52.296C51.5518 52.112 51.4878 51.968 51.3598 51.864C51.2398 51.752 51.0438 51.668 50.7718 51.612L49.5718 51.384C49.0598 51.272 48.6678 51.08 48.3958 50.808C48.1318 50.536 47.9998 50.18 47.9998 49.74C47.9998 49.364 48.0998 49.032 48.2998 48.744C48.5078 48.456 48.7998 48.232 49.1758 48.072C49.5598 47.904 50.0078 47.82 50.5198 47.82C50.9678 47.82 51.3878 47.88 51.7798 48C52.1798 48.12 52.5158 48.3 52.7878 48.54L52.3558 49.512C52.1078 49.312 51.8238 49.156 51.5038 49.044C51.1838 48.932 50.8718 48.876 50.5678 48.876C50.1518 48.876 49.8478 48.952 49.6558 49.104C49.4638 49.248 49.3678 49.436 49.3678 49.668C49.3678 49.844 49.4238 49.992 49.5358 50.112C49.6558 50.224 49.8398 50.308 50.0878 50.364L51.2878 50.592C51.8238 50.696 52.2278 50.88 52.4998 51.144C52.7798 51.4 52.9198 51.752 52.9198 52.2C52.9198 52.6 52.8118 52.944 52.5958 53.232C52.3798 53.52 52.0798 53.74 51.6958 53.892C51.3118 54.044 50.8638 54.12 50.3518 54.12ZM54.3535 54V47.94H55.8535V54H54.3535ZM54.2695 46.8V45.336H55.9375V46.8H54.2695ZM60.2244 54.12C59.5044 54.12 58.9604 53.932 58.5924 53.556C58.2244 53.18 58.0404 52.616 58.0404 51.864V49.068H56.8764V47.94H58.0404V46.392L59.5404 46.008V47.94H61.1604V49.068H59.5404V51.768C59.5404 52.184 59.6204 52.476 59.7804 52.644C59.9404 52.812 60.1604 52.896 60.4404 52.896C60.5924 52.896 60.7204 52.884 60.8244 52.86C60.9364 52.836 61.0444 52.804 61.1484 52.764V53.952C61.0124 54.008 60.8604 54.048 60.6924 54.072C60.5324 54.104 60.3764 54.12 60.2244 54.12ZM64.5814 54.12C63.8614 54.12 63.3174 53.932 62.9494 53.556C62.5814 53.18 62.3974 52.616 62.3974 51.864V49.068H61.2334V47.94H62.3974V46.392L63.8974 46.008V47.94H65.5174V49.068H63.8974V51.768C63.8974 52.184 63.9774 52.476 64.1374 52.644C64.2974 52.812 64.5174 52.896 64.7974 52.896C64.9494 52.896 65.0774 52.884 65.1814 52.86C65.2934 52.836 65.4014 52.804 65.5054 52.764V53.952C65.3694 54.008 65.2174 54.048 65.0494 54.072C64.8894 54.104 64.7334 54.12 64.5814 54.12ZM69.5557 54.12C68.5397 54.12 67.7437 53.84 67.1677 53.28C66.5917 52.72 66.3037 51.952 66.3037 50.976C66.3037 50.344 66.4277 49.792 66.6757 49.32C66.9237 48.848 67.2677 48.48 67.7077 48.216C68.1557 47.952 68.6757 47.82 69.2677 47.82C69.8517 47.82 70.3397 47.944 70.7317 48.192C71.1237 48.44 71.4197 48.788 71.6197 49.236C71.8277 49.684 71.9317 50.208 71.9317 50.808V51.204H67.5157V50.412H70.8637L70.6597 50.58C70.6597 50.02 70.5397 49.592 70.2997 49.296C70.0677 49 69.7277 48.852 69.2797 48.852C68.7837 48.852 68.3997 49.028 68.1277 49.38C67.8637 49.732 67.7317 50.224 67.7317 50.856V51.012C67.7317 51.668 67.8917 52.16 68.2117 52.488C68.5397 52.808 68.9997 52.968 69.5917 52.968C69.9357 52.968 70.2557 52.924 70.5517 52.836C70.8557 52.74 71.1437 52.588 71.4157 52.38L71.8597 53.388C71.5717 53.62 71.2277 53.8 70.8277 53.928C70.4277 54.056 70.0037 54.12 69.5557 54.12ZM73.3399 54V49.488C73.3399 49.232 73.3319 48.972 73.3159 48.708C73.3079 48.444 73.2879 48.188 73.2559 47.94H74.7079L74.8759 49.596H74.6359C74.7159 49.196 74.8479 48.864 75.0319 48.6C75.2239 48.336 75.4559 48.14 75.7279 48.012C75.9999 47.884 76.2959 47.82 76.6159 47.82C76.7599 47.82 76.8759 47.828 76.9639 47.844C77.0519 47.852 77.1399 47.872 77.2279 47.904L77.2159 49.224C77.0639 49.16 76.9319 49.12 76.8199 49.104C76.7159 49.088 76.5839 49.08 76.4239 49.08C76.0799 49.08 75.7879 49.152 75.5479 49.296C75.3159 49.44 75.1399 49.64 75.0199 49.896C74.9079 50.152 74.8519 50.444 74.8519 50.772V54H73.3399ZM81.7758 54V45.54H85.4838C86.4038 45.54 87.1118 45.736 87.6078 46.128C88.1038 46.512 88.3518 47.048 88.3518 47.736C88.3518 48.248 88.1998 48.68 87.8958 49.032C87.5918 49.384 87.1718 49.62 86.6358 49.74V49.56C87.2518 49.648 87.7278 49.872 88.0638 50.232C88.4078 50.584 88.5798 51.052 88.5798 51.636C88.5798 52.388 88.3198 52.972 87.7998 53.388C87.2798 53.796 86.5558 54 85.6278 54H81.7758ZM83.2638 52.824H85.4478C85.9678 52.824 86.3718 52.728 86.6598 52.536C86.9478 52.336 87.0918 52.012 87.0918 51.564C87.0918 51.108 86.9478 50.784 86.6598 50.592C86.3718 50.392 85.9678 50.292 85.4478 50.292H83.2638V52.824ZM83.2638 49.128H85.2198C85.7718 49.128 86.1798 49.028 86.4438 48.828C86.7158 48.62 86.8518 48.316 86.8518 47.916C86.8518 47.516 86.7158 47.216 86.4438 47.016C86.1798 46.808 85.7718 46.704 85.2198 46.704H83.2638V49.128ZM92.827 54.12C92.203 54.12 91.663 53.992 91.207 53.736C90.751 53.48 90.395 53.116 90.139 52.644C89.891 52.172 89.767 51.612 89.767 50.964C89.767 50.316 89.891 49.76 90.139 49.296C90.395 48.824 90.751 48.46 91.207 48.204C91.663 47.948 92.203 47.82 92.827 47.82C93.451 47.82 93.991 47.948 94.447 48.204C94.911 48.46 95.267 48.824 95.515 49.296C95.771 49.76 95.899 50.316 95.899 50.964C95.899 51.612 95.771 52.172 95.515 52.644C95.267 53.116 94.911 53.48 94.447 53.736C93.991 53.992 93.451 54.12 92.827 54.12ZM92.827 52.968C93.299 52.968 93.675 52.804 93.955 52.476C94.235 52.14 94.375 51.636 94.375 50.964C94.375 50.292 94.235 49.792 93.955 49.464C93.675 49.136 93.299 48.972 92.827 48.972C92.355 48.972 91.979 49.136 91.699 49.464C91.419 49.792 91.279 50.292 91.279 50.964C91.279 51.636 91.419 52.14 91.699 52.476C91.979 52.804 92.355 52.968 92.827 52.968ZM100.079 54.12C99.4546 54.12 98.9146 53.992 98.4586 53.736C98.0026 53.48 97.6466 53.116 97.3906 52.644C97.1426 52.172 97.0186 51.612 97.0186 50.964C97.0186 50.316 97.1426 49.76 97.3906 49.296C97.6466 48.824 98.0026 48.46 98.4586 48.204C98.9146 47.948 99.4546 47.82 100.079 47.82C100.703 47.82 101.243 47.948 101.699 48.204C102.163 48.46 102.519 48.824 102.767 49.296C103.023 49.76 103.151 50.316 103.151 50.964C103.151 51.612 103.023 52.172 102.767 52.644C102.519 53.116 102.163 53.48 101.699 53.736C101.243 53.992 100.703 54.12 100.079 54.12ZM100.079 52.968C100.551 52.968 100.927 52.804 101.207 52.476C101.487 52.14 101.627 51.636 101.627 50.964C101.627 50.292 101.487 49.792 101.207 49.464C100.927 49.136 100.551 48.972 100.079 48.972C99.6066 48.972 99.2306 49.136 98.9506 49.464C98.6706 49.792 98.5306 50.292 98.5306 50.964C98.5306 51.636 98.6706 52.14 98.9506 52.476C99.2306 52.804 99.6066 52.968 100.079 52.968ZM104.594 54V45.168H106.094V50.52H106.118L108.578 47.94H110.39L107.33 51.144L107.342 50.544L110.606 54H108.746L106.118 51.288H106.094V54H104.594ZM111.365 54V47.94H112.865V54H111.365ZM111.281 46.8V45.336H112.949V46.8H111.281ZM114.644 54V49.452C114.644 49.204 114.636 48.952 114.62 48.696C114.604 48.44 114.58 48.188 114.548 47.94H116L116.12 49.14H115.976C116.168 48.716 116.452 48.392 116.828 48.168C117.204 47.936 117.64 47.82 118.136 47.82C118.848 47.82 119.384 48.02 119.744 48.42C120.104 48.82 120.284 49.444 120.284 50.292V54H118.784V50.364C118.784 49.876 118.688 49.528 118.496 49.32C118.312 49.104 118.032 48.996 117.656 48.996C117.192 48.996 116.824 49.14 116.552 49.428C116.28 49.716 116.144 50.1 116.144 50.58V54H114.644ZM124.833 56.688C124.273 56.688 123.765 56.628 123.309 56.508C122.861 56.388 122.461 56.204 122.109 55.956L122.433 54.876C122.665 55.028 122.905 55.152 123.153 55.248C123.401 55.344 123.657 55.416 123.921 55.464C124.185 55.512 124.453 55.536 124.725 55.536C125.285 55.536 125.701 55.396 125.973 55.116C126.253 54.844 126.393 54.452 126.393 53.94V52.488H126.513C126.385 52.904 126.125 53.236 125.733 53.484C125.349 53.732 124.905 53.856 124.401 53.856C123.857 53.856 123.381 53.736 122.973 53.496C122.573 53.248 122.261 52.896 122.037 52.44C121.813 51.984 121.701 51.448 121.701 50.832C121.701 50.216 121.813 49.684 122.037 49.236C122.261 48.78 122.573 48.432 122.973 48.192C123.381 47.944 123.857 47.82 124.401 47.82C124.913 47.82 125.357 47.944 125.733 48.192C126.117 48.432 126.373 48.76 126.501 49.176L126.393 49.104L126.513 47.94H127.965C127.933 48.188 127.909 48.44 127.893 48.696C127.877 48.952 127.869 49.204 127.869 49.452V53.76C127.869 54.712 127.609 55.436 127.089 55.932C126.577 56.436 125.825 56.688 124.833 56.688ZM124.809 52.704C125.289 52.704 125.669 52.544 125.949 52.224C126.237 51.896 126.381 51.432 126.381 50.832C126.381 50.232 126.237 49.772 125.949 49.452C125.669 49.132 125.289 48.972 124.809 48.972C124.321 48.972 123.933 49.132 123.645 49.452C123.357 49.772 123.213 50.232 123.213 50.832C123.213 51.432 123.357 51.896 123.645 52.224C123.933 52.544 124.321 52.704 124.809 52.704Z" fill="white"></path><g clip-path="url(#clip0_641_11884)"><path d="M66.3599 28.2793C67.2128 28.2793 67.9043 27.5878 67.9043 26.7349C67.9043 25.8819 67.2128 25.1904 66.3599 25.1904C65.5069 25.1904 64.8154 25.8819 64.8154 26.7349C64.8154 27.5878 65.5069 28.2793 66.3599 28.2793Z" fill="white"></path><path d="M74.5843 16.0558C75.9805 16.0558 77.1124 14.9239 77.1124 13.5276C77.1124 12.1314 75.9805 10.9995 74.5843 10.9995C73.188 10.9995 72.0562 12.1314 72.0562 13.5276C72.0562 14.9239 73.188 16.0558 74.5843 16.0558Z" fill="white"></path><path d="M77.4337 29.7441H63.9297V32.8822H77.4337C77.8382 32.8822 78.1662 32.5542 78.1662 32.1498V30.4766C78.1662 30.072 77.8383 29.7441 77.4337 29.7441Z" fill="white"></path><path d="M61.7324 11C61.3279 11 61 11.3279 61 11.7324V35.2676C61 35.6721 61.3279 36 61.7324 36C62.1369 36 62.4648 35.6721 62.4648 35.2676V11.7324C62.4648 11.3279 62.1369 11 61.7324 11Z" fill="white"></path><path d="M85.8453 22.2274L82.9213 16.3968C82.2249 15.0039 80.8013 14.124 79.2443 14.124H79.2439C78.1662 14.124 77.1332 14.5524 76.372 15.3153L71.3741 20.3215C70.7997 20.8958 70.6991 21.7641 71.0711 22.442C71.5038 22.1053 72.047 21.9041 72.6364 21.9041H74.8385L78.4022 18.3321L81.7906 25.0649L81.7866 35.2675C81.7865 35.6722 82.1144 36.0002 82.519 36.0002H85.2675C85.672 36.0002 85.9999 35.6723 85.9999 35.2678V22.8826C85.9999 22.6551 85.947 22.4309 85.8453 22.2274Z" fill="white"></path><path d="M69.4488 28.2795H72.1811C73.0341 28.2795 73.7255 27.588 73.7255 26.7351V25.5473H74.6362C75.2377 25.5473 75.7253 25.0597 75.7253 24.4582C75.7253 23.8567 75.2377 23.3691 74.6362 23.3691H72.6364C72.0349 23.3691 71.5473 23.8567 71.5473 24.4583V25.3483C71.5473 25.7427 71.2442 26.082 70.8503 26.1006C70.4297 26.1204 70.0825 25.7853 70.0825 25.369V24.4602C70.0825 24.4595 70.0825 24.4589 70.0825 24.4583C70.0825 23.8567 69.5949 23.3691 68.9934 23.3691C68.3919 23.3691 67.9043 23.8567 67.9043 24.4583V26.7351C67.9044 27.588 68.5958 28.2795 69.4488 28.2795Z" fill="white"></path></g><defs><linearGradient id="paint0_linear_641_11884" x1="146" y1="47.1143" x2="0.0368359" y2="46.2722" gradientUnits="userSpaceOnUse"><stop stop-color="#0461A5"></stop><stop offset="1" stop-color="#0E7AC9"></stop></linearGradient><clipPath id="clip0_641_11884"><rect width="25" height="25" fill="white" transform="translate(61 11)"></rect></clipPath></defs></svg>