<svg xmlns="http://www.w3.org/2000/svg" width="148" height="85" viewBox="0 0 148 85" fill="none"><path d="M0 19.8002V45.0797C0 56.0169 11.8857 64.8799 26.5489 64.8799H36.3679C36.9755 64.8799 37.444 65.4202 37.3296 66.0169C36.0678 72.5964 32.1831 77.2164 28.4591 80.2519C27.5308 81.0087 28.4473 83.4133 29.6051 83.1066C33.6858 82.0257 37.3213 80.7264 40.5484 79.3111C44.2137 77.7121 47.3488 75.9485 49.9946 74.1955C55.0334 70.866 58.3536 67.5473 60.3209 65.2384C60.5139 65.0119 60.7945 64.8799 61.092 64.8799H121.451C136.114 64.8799 148 56.0155 148 45.0797V19.8002C148 8.8644 136.114 0 121.451 0H26.5489C11.8857 0 0 8.8644 0 19.8002Z" fill="url(#paint0_linear_641_12144)"></path><path d="M22.9742 52V43.54H24.3302L27.4382 50.536H27.0662L30.1742 43.54H31.5182V52H30.1142V45.724H30.5462L27.7022 52H26.7782L23.9342 45.724H24.3782V52H22.9742ZM35.7736 52.12C35.2456 52.12 34.7816 51.996 34.3816 51.748C33.9816 51.492 33.6696 51.128 33.4456 50.656C33.2216 50.184 33.1096 49.62 33.1096 48.964C33.1096 48.308 33.2216 47.748 33.4456 47.284C33.6696 46.812 33.9816 46.452 34.3816 46.204C34.7816 45.948 35.2456 45.82 35.7736 45.82C36.2856 45.82 36.7336 45.948 37.1176 46.204C37.5096 46.452 37.7696 46.788 37.8976 47.212H37.7656L37.8976 45.94H39.3376C39.3136 46.188 39.2896 46.44 39.2656 46.696C39.2496 46.952 39.2416 47.204 39.2416 47.452V52H37.7536L37.7416 50.752H37.8856C37.7576 51.168 37.4976 51.5 37.1056 51.748C36.7136 51.996 36.2696 52.12 35.7736 52.12ZM36.1936 50.968C36.6656 50.968 37.0456 50.804 37.3336 50.476C37.6216 50.14 37.7656 49.636 37.7656 48.964C37.7656 48.292 37.6216 47.792 37.3336 47.464C37.0456 47.136 36.6656 46.972 36.1936 46.972C35.7216 46.972 35.3416 47.136 35.0536 47.464C34.7656 47.792 34.6216 48.292 34.6216 48.964C34.6216 49.636 34.7616 50.14 35.0416 50.476C35.3296 50.804 35.7136 50.968 36.1936 50.968ZM43.185 52.12C42.665 52.12 42.185 52.06 41.745 51.94C41.313 51.812 40.949 51.636 40.653 51.412L41.073 50.404C41.377 50.612 41.713 50.772 42.081 50.884C42.449 50.996 42.821 51.052 43.197 51.052C43.597 51.052 43.893 50.984 44.085 50.848C44.285 50.712 44.385 50.528 44.385 50.296C44.385 50.112 44.321 49.968 44.193 49.864C44.073 49.752 43.877 49.668 43.605 49.612L42.405 49.384C41.893 49.272 41.501 49.08 41.229 48.808C40.965 48.536 40.833 48.18 40.833 47.74C40.833 47.364 40.933 47.032 41.133 46.744C41.341 46.456 41.633 46.232 42.009 46.072C42.393 45.904 42.841 45.82 43.353 45.82C43.801 45.82 44.221 45.88 44.613 46C45.013 46.12 45.349 46.3 45.621 46.54L45.189 47.512C44.941 47.312 44.657 47.156 44.337 47.044C44.017 46.932 43.705 46.876 43.401 46.876C42.985 46.876 42.681 46.952 42.489 47.104C42.297 47.248 42.201 47.436 42.201 47.668C42.201 47.844 42.257 47.992 42.369 48.112C42.489 48.224 42.673 48.308 42.921 48.364L44.121 48.592C44.657 48.696 45.061 48.88 45.333 49.144C45.613 49.4 45.753 49.752 45.753 50.2C45.753 50.6 45.645 50.944 45.429 51.232C45.213 51.52 44.913 51.74 44.529 51.892C44.145 52.044 43.697 52.12 43.185 52.12ZM49.3467 52.12C48.8267 52.12 48.3467 52.06 47.9067 51.94C47.4747 51.812 47.1107 51.636 46.8147 51.412L47.2347 50.404C47.5387 50.612 47.8747 50.772 48.2427 50.884C48.6107 50.996 48.9827 51.052 49.3587 51.052C49.7587 51.052 50.0547 50.984 50.2467 50.848C50.4467 50.712 50.5467 50.528 50.5467 50.296C50.5467 50.112 50.4827 49.968 50.3547 49.864C50.2347 49.752 50.0387 49.668 49.7667 49.612L48.5667 49.384C48.0547 49.272 47.6627 49.08 47.3907 48.808C47.1267 48.536 46.9947 48.18 46.9947 47.74C46.9947 47.364 47.0947 47.032 47.2947 46.744C47.5027 46.456 47.7947 46.232 48.1707 46.072C48.5547 45.904 49.0027 45.82 49.5147 45.82C49.9627 45.82 50.3827 45.88 50.7747 46C51.1747 46.12 51.5107 46.3 51.7827 46.54L51.3507 47.512C51.1027 47.312 50.8187 47.156 50.4987 47.044C50.1787 46.932 49.8667 46.876 49.5627 46.876C49.1467 46.876 48.8427 46.952 48.6507 47.104C48.4587 47.248 48.3627 47.436 48.3627 47.668C48.3627 47.844 48.4187 47.992 48.5307 48.112C48.6507 48.224 48.8347 48.308 49.0827 48.364L50.2827 48.592C50.8187 48.696 51.2227 48.88 51.4947 49.144C51.7747 49.4 51.9147 49.752 51.9147 50.2C51.9147 50.6 51.8067 50.944 51.5907 51.232C51.3747 51.52 51.0747 51.74 50.6907 51.892C50.3067 52.044 49.8587 52.12 49.3467 52.12ZM55.6884 52.12C55.1604 52.12 54.6964 51.996 54.2964 51.748C53.8964 51.492 53.5844 51.128 53.3604 50.656C53.1364 50.184 53.0244 49.62 53.0244 48.964C53.0244 48.308 53.1364 47.748 53.3604 47.284C53.5844 46.812 53.8964 46.452 54.2964 46.204C54.6964 45.948 55.1604 45.82 55.6884 45.82C56.2004 45.82 56.6484 45.948 57.0324 46.204C57.4244 46.452 57.6844 46.788 57.8124 47.212H57.6804L57.8124 45.94H59.2524C59.2284 46.188 59.2044 46.44 59.1804 46.696C59.1644 46.952 59.1564 47.204 59.1564 47.452V52H57.6684L57.6564 50.752H57.8004C57.6724 51.168 57.4124 51.5 57.0204 51.748C56.6284 51.996 56.1844 52.12 55.6884 52.12ZM56.1084 50.968C56.5804 50.968 56.9604 50.804 57.2484 50.476C57.5364 50.14 57.6804 49.636 57.6804 48.964C57.6804 48.292 57.5364 47.792 57.2484 47.464C56.9604 47.136 56.5804 46.972 56.1084 46.972C55.6364 46.972 55.2564 47.136 54.9684 47.464C54.6804 47.792 54.5364 48.292 54.5364 48.964C54.5364 49.636 54.6764 50.14 54.9564 50.476C55.2444 50.804 55.6284 50.968 56.1084 50.968ZM63.7478 54.688C63.1878 54.688 62.6798 54.628 62.2238 54.508C61.7758 54.388 61.3758 54.204 61.0238 53.956L61.3478 52.876C61.5798 53.028 61.8198 53.152 62.0678 53.248C62.3158 53.344 62.5718 53.416 62.8358 53.464C63.0998 53.512 63.3678 53.536 63.6398 53.536C64.1998 53.536 64.6158 53.396 64.8878 53.116C65.1678 52.844 65.3078 52.452 65.3078 51.94V50.488H65.4278C65.2998 50.904 65.0398 51.236 64.6478 51.484C64.2638 51.732 63.8198 51.856 63.3158 51.856C62.7718 51.856 62.2958 51.736 61.8878 51.496C61.4878 51.248 61.1758 50.896 60.9518 50.44C60.7278 49.984 60.6158 49.448 60.6158 48.832C60.6158 48.216 60.7278 47.684 60.9518 47.236C61.1758 46.78 61.4878 46.432 61.8878 46.192C62.2958 45.944 62.7718 45.82 63.3158 45.82C63.8278 45.82 64.2718 45.944 64.6478 46.192C65.0318 46.432 65.2878 46.76 65.4158 47.176L65.3078 47.104L65.4278 45.94H66.8798C66.8478 46.188 66.8238 46.44 66.8078 46.696C66.7918 46.952 66.7838 47.204 66.7838 47.452V51.76C66.7838 52.712 66.5238 53.436 66.0038 53.932C65.4918 54.436 64.7398 54.688 63.7478 54.688ZM63.7238 50.704C64.2038 50.704 64.5838 50.544 64.8638 50.224C65.1518 49.896 65.2958 49.432 65.2958 48.832C65.2958 48.232 65.1518 47.772 64.8638 47.452C64.5838 47.132 64.2038 46.972 63.7238 46.972C63.2358 46.972 62.8478 47.132 62.5598 47.452C62.2718 47.772 62.1278 48.232 62.1278 48.832C62.1278 49.432 62.2718 49.896 62.5598 50.224C62.8478 50.544 63.2358 50.704 63.7238 50.704ZM71.4827 52.12C70.4667 52.12 69.6707 51.84 69.0947 51.28C68.5187 50.72 68.2307 49.952 68.2307 48.976C68.2307 48.344 68.3547 47.792 68.6027 47.32C68.8507 46.848 69.1947 46.48 69.6347 46.216C70.0827 45.952 70.6027 45.82 71.1947 45.82C71.7787 45.82 72.2667 45.944 72.6587 46.192C73.0507 46.44 73.3467 46.788 73.5467 47.236C73.7547 47.684 73.8587 48.208 73.8587 48.808V49.204H69.4427V48.412H72.7907L72.5867 48.58C72.5867 48.02 72.4667 47.592 72.2267 47.296C71.9947 47 71.6547 46.852 71.2067 46.852C70.7107 46.852 70.3267 47.028 70.0547 47.38C69.7907 47.732 69.6587 48.224 69.6587 48.856V49.012C69.6587 49.668 69.8187 50.16 70.1387 50.488C70.4667 50.808 70.9267 50.968 71.5187 50.968C71.8627 50.968 72.1827 50.924 72.4787 50.836C72.7827 50.74 73.0707 50.588 73.3427 50.38L73.7867 51.388C73.4987 51.62 73.1547 51.8 72.7547 51.928C72.3547 52.056 71.9307 52.12 71.4827 52.12ZM80.8339 52V44.812H78.0379V43.54H85.1779V44.812H82.3819V52H80.8339ZM86.3015 52V43.168H87.8015V47.152H87.6335C87.8175 46.72 88.1015 46.392 88.4855 46.168C88.8695 45.936 89.3095 45.82 89.8055 45.82C90.5255 45.82 91.0615 46.024 91.4135 46.432C91.7655 46.832 91.9415 47.444 91.9415 48.268V52H90.4415V48.34C90.4415 47.868 90.3495 47.528 90.1655 47.32C89.9895 47.104 89.7055 46.996 89.3135 46.996C88.8575 46.996 88.4895 47.14 88.2095 47.428C87.9375 47.708 87.8015 48.084 87.8015 48.556V52H86.3015ZM96.61 52.12C95.594 52.12 94.798 51.84 94.222 51.28C93.646 50.72 93.358 49.952 93.358 48.976C93.358 48.344 93.482 47.792 93.73 47.32C93.978 46.848 94.322 46.48 94.762 46.216C95.21 45.952 95.73 45.82 96.322 45.82C96.906 45.82 97.394 45.944 97.786 46.192C98.178 46.44 98.474 46.788 98.674 47.236C98.882 47.684 98.986 48.208 98.986 48.808V49.204H94.57V48.412H97.918L97.714 48.58C97.714 48.02 97.594 47.592 97.354 47.296C97.122 47 96.782 46.852 96.334 46.852C95.838 46.852 95.454 47.028 95.182 47.38C94.918 47.732 94.786 48.224 94.786 48.856V49.012C94.786 49.668 94.946 50.16 95.266 50.488C95.594 50.808 96.054 50.968 96.646 50.968C96.99 50.968 97.31 50.924 97.606 50.836C97.91 50.74 98.198 50.588 98.47 50.38L98.914 51.388C98.626 51.62 98.282 51.8 97.882 51.928C97.482 52.056 97.058 52.12 96.61 52.12ZM100.394 52V47.488C100.394 47.232 100.386 46.972 100.37 46.708C100.362 46.444 100.342 46.188 100.31 45.94H101.762L101.93 47.596H101.69C101.77 47.196 101.902 46.864 102.086 46.6C102.278 46.336 102.51 46.14 102.782 46.012C103.054 45.884 103.35 45.82 103.67 45.82C103.814 45.82 103.93 45.828 104.018 45.844C104.106 45.852 104.194 45.872 104.282 45.904L104.27 47.224C104.118 47.16 103.986 47.12 103.874 47.104C103.77 47.088 103.638 47.08 103.478 47.08C103.134 47.08 102.842 47.152 102.602 47.296C102.37 47.44 102.194 47.64 102.074 47.896C101.962 48.152 101.906 48.444 101.906 48.772V52H100.394ZM107.549 52.12C107.021 52.12 106.557 51.996 106.157 51.748C105.757 51.492 105.445 51.128 105.221 50.656C104.997 50.184 104.885 49.62 104.885 48.964C104.885 48.308 104.997 47.748 105.221 47.284C105.445 46.812 105.757 46.452 106.157 46.204C106.557 45.948 107.021 45.82 107.549 45.82C108.061 45.82 108.509 45.948 108.893 46.204C109.285 46.452 109.545 46.788 109.673 47.212H109.541L109.673 45.94H111.113C111.089 46.188 111.065 46.44 111.041 46.696C111.025 46.952 111.017 47.204 111.017 47.452V52H109.529L109.517 50.752H109.661C109.533 51.168 109.273 51.5 108.881 51.748C108.489 51.996 108.045 52.12 107.549 52.12ZM107.969 50.968C108.441 50.968 108.821 50.804 109.109 50.476C109.397 50.14 109.541 49.636 109.541 48.964C109.541 48.292 109.397 47.792 109.109 47.464C108.821 47.136 108.441 46.972 107.969 46.972C107.497 46.972 107.117 47.136 106.829 47.464C106.541 47.792 106.397 48.292 106.397 48.964C106.397 49.636 106.537 50.14 106.817 50.476C107.105 50.804 107.489 50.968 107.969 50.968ZM112.8 54.592V47.452C112.8 47.204 112.792 46.952 112.776 46.696C112.76 46.44 112.736 46.188 112.704 45.94H114.156L114.288 47.212H114.156C114.276 46.788 114.528 46.452 114.912 46.204C115.304 45.948 115.756 45.82 116.268 45.82C116.804 45.82 117.272 45.948 117.672 46.204C118.072 46.452 118.384 46.812 118.608 47.284C118.832 47.748 118.944 48.308 118.944 48.964C118.944 49.62 118.832 50.184 118.608 50.656C118.384 51.128 118.072 51.492 117.672 51.748C117.272 51.996 116.804 52.12 116.268 52.12C115.764 52.12 115.32 51.996 114.936 51.748C114.552 51.5 114.296 51.168 114.168 50.752H114.3V54.592H112.8ZM115.848 50.968C116.328 50.968 116.712 50.804 117 50.476C117.288 50.14 117.432 49.636 117.432 48.964C117.432 48.292 117.288 47.792 117 47.464C116.712 47.136 116.328 46.972 115.848 46.972C115.376 46.972 114.996 47.136 114.708 47.464C114.42 47.792 114.276 48.292 114.276 48.964C114.276 49.636 114.42 50.14 114.708 50.476C114.996 50.804 115.376 50.968 115.848 50.968ZM120.154 54.724L119.806 53.536C120.182 53.456 120.498 53.364 120.754 53.26C121.01 53.156 121.222 53.02 121.39 52.852C121.558 52.684 121.698 52.468 121.81 52.204L122.11 51.496L122.074 52.084L119.434 45.94H121.03L122.926 50.668H122.578L124.486 45.94H125.998L123.238 52.336C123.054 52.768 122.854 53.124 122.638 53.404C122.422 53.692 122.19 53.92 121.942 54.088C121.694 54.264 121.422 54.4 121.126 54.496C120.83 54.592 120.506 54.668 120.154 54.724Z" fill="white"></path><path d="M66.1229 21.8402C66.1646 22.0214 66.2688 22.1822 66.4173 22.2943L70.6815 25.5536C70.7516 25.6058 70.8348 25.6377 70.9218 25.6456C71.0089 25.6535 71.0964 25.6372 71.1748 25.5985C71.2531 25.5597 71.3192 25.5001 71.3658 25.4261C71.4123 25.3521 71.4375 25.2667 71.4385 25.1793C71.4404 25.0743 71.4063 24.9719 71.3418 24.8891L69.2853 22.2985C68.9523 22.338 68.6168 22.2484 68.3477 22.0482C68.0786 21.848 67.8965 21.5523 67.8387 21.222L67.4812 19.052C67.4724 18.9973 67.4744 18.9414 67.4872 18.8875C67.4999 18.8336 67.5232 18.7828 67.5556 18.7379C67.588 18.693 67.6289 18.6549 67.6761 18.6258C67.7232 18.5967 67.7756 18.5772 67.8303 18.5683C67.885 18.5595 67.9408 18.5615 67.9947 18.5743C68.0486 18.587 68.0995 18.6103 68.1444 18.6427C68.1893 18.6751 68.2274 18.7161 68.2564 18.7632C68.2855 18.8103 68.3051 18.8627 68.3139 18.9174L68.6672 21.0832C68.6882 21.1947 68.7496 21.2946 68.8398 21.3635C68.9299 21.4325 69.0423 21.4658 69.1555 21.4569C69.2687 21.4481 69.3746 21.3977 69.4529 21.3155C69.5312 21.2334 69.5763 21.1252 69.5797 21.0117C69.5805 20.9864 69.5791 20.9611 69.5755 20.936L69.2728 19.073C69.2406 18.8652 68.7344 18.341 68.6293 18.1604L67.3677 16.5329C67.3374 16.4888 67.3011 16.4528 67.2709 16.4067C67.0273 16.0898 66.863 15.7192 66.7915 15.3259L66.3289 12.7396C66.3202 12.6878 66.3013 12.6382 66.2732 12.5938C66.2452 12.5493 66.2085 12.5109 66.1655 12.4808C66.1224 12.4506 66.0738 12.4293 66.0224 12.4182C65.9711 12.407 65.918 12.4062 65.8663 12.4158L64.3439 12.6807C64.2901 12.6902 64.2388 12.7106 64.1932 12.7406C64.1475 12.7707 64.1085 12.8098 64.0786 12.8555C64.0487 12.9012 64.0284 12.9526 64.0191 13.0064C64.0097 13.0603 64.0115 13.1154 64.0243 13.1686L66.1229 21.8402Z" fill="white"></path><path d="M79.8931 19.1293C79.8199 19.3309 79.7747 19.5417 79.7588 19.7556C79.7101 20.1602 79.6615 20.5648 79.6128 20.9694C79.5834 21.2132 79.5964 21.5308 79.8276 21.6137C79.9056 21.6332 79.9877 21.6273 80.062 21.5967C80.1363 21.5661 80.1989 21.5126 80.2406 21.4439C80.3209 21.3045 80.3696 21.1493 80.3834 20.9891C80.4779 20.3959 80.5724 19.8028 80.667 19.2097C80.6821 19.0476 80.7289 18.8901 80.8048 18.7461C80.8384 18.6704 80.896 18.608 80.9688 18.5684C81.0415 18.5289 81.1253 18.5146 81.2071 18.5276C81.2889 18.5407 81.364 18.5804 81.4209 18.6406C81.4777 18.7008 81.513 18.7781 81.5214 18.8605C81.5484 19.0201 81.544 19.1834 81.5085 19.3413L81.2894 20.7234C81.2521 21.1667 81.1165 21.5962 80.8924 21.9805C80.7759 22.1698 80.601 22.3161 80.3941 22.3972C80.1872 22.4784 79.9595 22.49 79.7454 22.4304C79.2302 23.0377 77.9069 24.5991 77.8302 24.8098C77.7522 25.0236 77.7847 25.6604 78.1448 25.6144C78.2528 25.5908 78.353 25.5399 78.4359 25.4666C79.731 24.5016 81.0262 23.5366 82.3213 22.5715C82.521 22.441 82.6947 22.2744 82.8334 22.0803C82.9348 21.8953 83.0051 21.6949 83.0413 21.487C83.676 18.741 84.3106 15.9949 84.9453 13.2489C84.9549 13.2075 84.9643 13.1647 84.9709 13.1218C84.9934 13.0228 84.9815 12.919 84.9373 12.8276C84.8822 12.7592 84.8126 12.7039 84.7336 12.6656C84.6545 12.6273 84.568 12.607 84.4801 12.6061C84.0848 12.5456 83.6894 12.4852 83.2941 12.4247C83.1501 12.384 82.996 12.4005 82.8638 12.4706C82.7542 12.576 82.6903 12.7202 82.6858 12.8722C82.5687 13.621 82.4517 14.3697 82.3346 15.1185C82.297 15.4482 82.2183 15.7719 82.1003 16.0821C81.9507 16.3923 81.7614 16.6818 81.5372 16.9432C81.104 17.4949 80.6707 18.0466 80.2375 18.5982C80.0992 18.7589 79.9834 18.9375 79.8931 19.1293Z" fill="white"></path><path d="M77.7173 11.9742C76.5802 11.4174 74.735 11.5919 73.4993 11.5663C72.2075 11.5681 70.9584 12.0287 69.9748 12.866C68.9911 13.7032 68.3369 14.8627 68.1289 16.1376L68.9827 17.2437C70.3453 15.2593 75.2786 12.8569 77.7173 11.9742Z" fill="white"></path><path d="M80.0763 17.4456L81.0393 16.1882C80.9298 15.4439 80.6651 14.7309 80.2623 14.0955C79.8594 13.4601 79.3275 12.9165 78.7011 12.5C77.9147 12.7944 76.6993 13.2696 75.3872 13.8794C76.4331 13.946 77.4361 14.32 78.2702 14.9544C79.1044 15.5889 79.7327 16.4555 80.0763 17.4456Z" fill="white"></path><path d="M71.9978 24.3634C72.1726 24.581 72.2715 24.8498 72.2796 25.1288C73.3856 25.6629 75.2486 26.2264 76.9476 25.1666C76.9176 24.9772 76.9283 24.7836 76.979 24.5986C77.0298 24.4137 77.1195 24.2417 77.242 24.0942L79.0041 22.0041C78.8042 21.746 78.7123 21.4204 78.7475 21.0958L78.9957 19.1318C79.0532 18.8167 79.2024 18.5256 79.4246 18.2949C79.2261 17.2877 78.6848 16.3803 77.8928 15.7271C77.1008 15.0739 76.107 14.7151 75.0804 14.7119H73.7178C71.6404 15.8306 70.2274 16.9156 69.5166 17.9375C69.7948 18.2172 69.9974 18.5631 70.1054 18.9426L70.404 20.7972C70.4361 20.9983 70.4209 21.2041 70.3596 21.3983C70.2983 21.5925 70.1925 21.7697 70.0507 21.9158L71.9978 24.3634Z" fill="white"></path><path d="M83.1508 33.0814C83.2048 30.9846 80.5369 29.4028 78.1926 28.8718C77.819 28.796 77.483 28.5935 77.2416 28.2984C77.0002 28.0034 76.8682 27.634 76.8679 27.2527V26.1677C76.2287 26.4629 75.5323 26.6137 74.8282 26.6093C73.8593 26.5903 72.9056 26.3637 72.0316 25.9448C71.9985 25.9961 71.9605 26.044 71.9181 26.0878V27.4966C71.9193 27.8626 71.7983 28.2185 71.5744 28.508C71.3504 28.7975 71.0363 29.004 70.6817 29.0947C68.9487 29.561 65.9119 30.404 65.9969 32.8291V33.4347H83.1508V33.0814Z" fill="white"></path><defs><linearGradient id="paint0_linear_641_12144" x1="148" y1="41.2857" x2="0.0390061" y2="40.2982" gradientUnits="userSpaceOnUse"><stop stop-color="#0461A5"></stop><stop offset="1" stop-color="#0E7AC9"></stop></linearGradient></defs></svg>