<svg xmlns="http://www.w3.org/2000/svg" width="132" height="97" viewBox="0 0 132 97" fill="none"><path d="M0.000843749 20.7905C0.000377759 20.7905 0 20.7909 0 20.7913V47.3282C0 56.0335 6.1113 63.4951 14.7794 66.5779C17.5324 67.565 20.539 68.1068 23.6859 68.1068H77.9259C78.3483 68.1068 78.7244 68.3724 78.8708 68.7686C80.0323 71.9123 81.3252 74.7034 82.7038 77.1832C89.8593 90.1471 99.2384 94.6948 104.058 96.2402C104.996 96.5411 105.54 95.4639 104.873 94.7386C101.18 90.7257 98.6211 85.6289 96.8643 80.5496C95.4783 76.6018 94.5669 72.6637 93.9789 69.2605C93.8743 68.6552 94.3438 68.1068 94.9582 68.1068H108.314C108.722 68.1068 109.129 68.0949 109.521 68.0696C109.746 68.0696 109.971 68.0444 110.196 68.0325C110.267 68.0325 110.345 68.0325 110.42 68.0231C110.478 68.016 110.535 68.0051 110.593 68.0004C116.542 67.5146 121.847 65.0789 125.664 61.4467C129.597 57.736 132 52.7785 132 47.3282V20.7905C132 9.30948 121.394 0 108.314 0H23.6876C10.608 0 0.00220967 9.30902 0.00168752 20.7896C0.0016875 20.7901 0.00130974 20.7905 0.000843749 20.7905Z" fill="url(#paint0_linear_641_12090)"></path><path d="M18.273 54V45.54H19.629L22.737 52.536H22.365L25.473 45.54H26.817V54H25.413V47.724H25.845L23.001 54H22.077L19.233 47.724H19.677V54H18.273ZM31.4684 54.12C30.8444 54.12 30.3044 53.992 29.8484 53.736C29.3924 53.48 29.0364 53.116 28.7804 52.644C28.5324 52.172 28.4084 51.612 28.4084 50.964C28.4084 50.316 28.5324 49.76 28.7804 49.296C29.0364 48.824 29.3924 48.46 29.8484 48.204C30.3044 47.948 30.8444 47.82 31.4684 47.82C32.0924 47.82 32.6324 47.948 33.0884 48.204C33.5524 48.46 33.9084 48.824 34.1564 49.296C34.4124 49.76 34.5404 50.316 34.5404 50.964C34.5404 51.612 34.4124 52.172 34.1564 52.644C33.9084 53.116 33.5524 53.48 33.0884 53.736C32.6324 53.992 32.0924 54.12 31.4684 54.12ZM31.4684 52.968C31.9404 52.968 32.3164 52.804 32.5964 52.476C32.8764 52.14 33.0164 51.636 33.0164 50.964C33.0164 50.292 32.8764 49.792 32.5964 49.464C32.3164 49.136 31.9404 48.972 31.4684 48.972C30.9964 48.972 30.6204 49.136 30.3404 49.464C30.0604 49.792 29.9204 50.292 29.9204 50.964C29.9204 51.636 30.0604 52.14 30.3404 52.476C30.6204 52.804 30.9964 52.968 31.4684 52.968ZM39.452 54.12C38.94 54.12 38.492 53.996 38.108 53.748C37.724 53.492 37.468 53.148 37.34 52.716H37.472V54H35.984V45.168H37.484V49.176H37.34C37.476 48.76 37.736 48.432 38.12 48.192C38.504 47.944 38.948 47.82 39.452 47.82C39.988 47.82 40.456 47.948 40.856 48.204C41.256 48.46 41.568 48.824 41.792 49.296C42.016 49.76 42.128 50.32 42.128 50.976C42.128 51.632 42.016 52.196 41.792 52.668C41.568 53.132 41.252 53.492 40.844 53.748C40.444 53.996 39.98 54.12 39.452 54.12ZM39.032 52.968C39.504 52.968 39.884 52.804 40.172 52.476C40.468 52.148 40.616 51.648 40.616 50.976C40.616 50.304 40.468 49.804 40.172 49.476C39.884 49.14 39.504 48.972 39.032 48.972C38.56 48.972 38.18 49.136 37.892 49.464C37.604 49.792 37.46 50.292 37.46 50.964C37.46 51.636 37.604 52.14 37.892 52.476C38.18 52.804 38.56 52.968 39.032 52.968ZM43.5754 54V47.94H45.0754V54H43.5754ZM43.4914 46.8V45.336H45.1594V46.8H43.4914ZM46.8543 54V45.168H48.3543V54H46.8543ZM53.0612 54.12C52.0452 54.12 51.2492 53.84 50.6732 53.28C50.0972 52.72 49.8092 51.952 49.8092 50.976C49.8092 50.344 49.9332 49.792 50.1812 49.32C50.4292 48.848 50.7732 48.48 51.2132 48.216C51.6612 47.952 52.1812 47.82 52.7732 47.82C53.3572 47.82 53.8452 47.944 54.2372 48.192C54.6292 48.44 54.9252 48.788 55.1252 49.236C55.3332 49.684 55.4372 50.208 55.4372 50.808V51.204H51.0212V50.412H54.3692L54.1652 50.58C54.1652 50.02 54.0452 49.592 53.8052 49.296C53.5732 49 53.2332 48.852 52.7852 48.852C52.2892 48.852 51.9052 49.028 51.6332 49.38C51.3692 49.732 51.2372 50.224 51.2372 50.856V51.012C51.2372 51.668 51.3972 52.16 51.7172 52.488C52.0452 52.808 52.5052 52.968 53.0972 52.968C53.4412 52.968 53.7612 52.924 54.0572 52.836C54.3612 52.74 54.6492 52.588 54.9212 52.38L55.3652 53.388C55.0772 53.62 54.7332 53.8 54.3332 53.928C53.9332 54.056 53.5092 54.12 53.0612 54.12ZM60.4324 54V45.54H61.7884L64.8964 52.536H64.5244L67.6324 45.54H68.9764V54H67.5724V47.724H68.0044L65.1604 54H64.2364L61.3924 47.724H61.8364V54H60.4324ZM73.8198 54.12C72.8038 54.12 72.0078 53.84 71.4318 53.28C70.8558 52.72 70.5678 51.952 70.5678 50.976C70.5678 50.344 70.6918 49.792 70.9398 49.32C71.1878 48.848 71.5318 48.48 71.9718 48.216C72.4198 47.952 72.9398 47.82 73.5318 47.82C74.1158 47.82 74.6038 47.944 74.9958 48.192C75.3878 48.44 75.6838 48.788 75.8838 49.236C76.0918 49.684 76.1958 50.208 76.1958 50.808V51.204H71.7798V50.412H75.1278L74.9238 50.58C74.9238 50.02 74.8038 49.592 74.5638 49.296C74.3318 49 73.9918 48.852 73.5438 48.852C73.0478 48.852 72.6638 49.028 72.3918 49.38C72.1278 49.732 71.9958 50.224 71.9958 50.856V51.012C71.9958 51.668 72.1558 52.16 72.4758 52.488C72.8038 52.808 73.2638 52.968 73.8558 52.968C74.1998 52.968 74.5198 52.924 74.8158 52.836C75.1198 52.74 75.4078 52.588 75.6798 52.38L76.1238 53.388C75.8358 53.62 75.4918 53.8 75.0918 53.928C74.6918 54.056 74.2678 54.12 73.8198 54.12ZM80.4 54.12C79.776 54.12 79.228 53.992 78.756 53.736C78.292 53.48 77.932 53.116 77.676 52.644C77.42 52.164 77.292 51.596 77.292 50.94C77.292 50.284 77.42 49.724 77.676 49.26C77.94 48.796 78.304 48.44 78.768 48.192C79.232 47.944 79.776 47.82 80.4 47.82C80.8 47.82 81.188 47.884 81.564 48.012C81.948 48.132 82.26 48.308 82.5 48.54L82.044 49.584C81.828 49.384 81.584 49.236 81.312 49.14C81.048 49.036 80.788 48.984 80.532 48.984C79.996 48.984 79.576 49.152 79.272 49.488C78.976 49.824 78.828 50.312 78.828 50.952C78.828 51.592 78.976 52.084 79.272 52.428C79.576 52.772 79.996 52.944 80.532 52.944C80.78 52.944 81.036 52.896 81.3 52.8C81.572 52.704 81.82 52.556 82.044 52.356L82.5 53.388C82.252 53.62 81.936 53.8 81.552 53.928C81.176 54.056 80.792 54.12 80.4 54.12ZM83.8129 54V45.168H85.3129V49.152H85.1449C85.3289 48.72 85.6129 48.392 85.9969 48.168C86.3809 47.936 86.8209 47.82 87.3169 47.82C88.0369 47.82 88.5729 48.024 88.9249 48.432C89.2769 48.832 89.4529 49.444 89.4529 50.268V54H87.9529V50.34C87.9529 49.868 87.8609 49.528 87.6769 49.32C87.5009 49.104 87.2169 48.996 86.8249 48.996C86.3689 48.996 86.0009 49.14 85.7209 49.428C85.4489 49.708 85.3129 50.084 85.3129 50.556V54H83.8129ZM93.5333 54.12C93.0053 54.12 92.5413 53.996 92.1413 53.748C91.7413 53.492 91.4293 53.128 91.2053 52.656C90.9813 52.184 90.8693 51.62 90.8693 50.964C90.8693 50.308 90.9813 49.748 91.2053 49.284C91.4293 48.812 91.7413 48.452 92.1413 48.204C92.5413 47.948 93.0053 47.82 93.5333 47.82C94.0454 47.82 94.4934 47.948 94.8774 48.204C95.2694 48.452 95.5294 48.788 95.6574 49.212H95.5254L95.6574 47.94H97.0973C97.0734 48.188 97.0494 48.44 97.0254 48.696C97.0094 48.952 97.0014 49.204 97.0014 49.452V54H95.5134L95.5014 52.752H95.6453C95.5173 53.168 95.2573 53.5 94.8654 53.748C94.4734 53.996 94.0294 54.12 93.5333 54.12ZM93.9533 52.968C94.4254 52.968 94.8054 52.804 95.0933 52.476C95.3814 52.14 95.5254 51.636 95.5254 50.964C95.5254 50.292 95.3814 49.792 95.0933 49.464C94.8054 49.136 94.4254 48.972 93.9533 48.972C93.4813 48.972 93.1013 49.136 92.8133 49.464C92.5253 49.792 92.3813 50.292 92.3813 50.964C92.3813 51.636 92.5213 52.14 92.8013 52.476C93.0893 52.804 93.4733 52.968 93.9533 52.968ZM98.7848 54V49.452C98.7848 49.204 98.7768 48.952 98.7607 48.696C98.7448 48.44 98.7208 48.188 98.6888 47.94H100.141L100.261 49.14H100.117C100.309 48.716 100.593 48.392 100.969 48.168C101.345 47.936 101.781 47.82 102.277 47.82C102.989 47.82 103.525 48.02 103.885 48.42C104.245 48.82 104.425 49.444 104.425 50.292V54H102.925V50.364C102.925 49.876 102.829 49.528 102.637 49.32C102.453 49.104 102.173 48.996 101.797 48.996C101.333 48.996 100.965 49.14 100.693 49.428C100.421 49.716 100.285 50.1 100.285 50.58V54H98.7848ZM106.165 54V47.94H107.665V54H106.165ZM106.081 46.8V45.336H107.749V46.8H106.081ZM112.228 54.12C111.604 54.12 111.056 53.992 110.584 53.736C110.12 53.48 109.76 53.116 109.504 52.644C109.248 52.164 109.12 51.596 109.12 50.94C109.12 50.284 109.248 49.724 109.504 49.26C109.768 48.796 110.132 48.44 110.596 48.192C111.06 47.944 111.604 47.82 112.228 47.82C112.628 47.82 113.016 47.884 113.392 48.012C113.776 48.132 114.088 48.308 114.328 48.54L113.872 49.584C113.656 49.384 113.412 49.236 113.14 49.14C112.876 49.036 112.616 48.984 112.36 48.984C111.824 48.984 111.404 49.152 111.1 49.488C110.804 49.824 110.656 50.312 110.656 50.952C110.656 51.592 110.804 52.084 111.1 52.428C111.404 52.772 111.824 52.944 112.36 52.944C112.608 52.944 112.864 52.896 113.128 52.8C113.4 52.704 113.648 52.556 113.872 52.356L114.328 53.388C114.08 53.62 113.764 53.8 113.38 53.928C113.004 54.056 112.62 54.12 112.228 54.12Z" fill="white"></path><path d="M55.1719 32.875C55.1725 33.3928 55.3785 33.8892 55.7446 34.2554C56.1108 34.6215 56.6072 34.8275 57.125 34.8281H66.5C67.0178 34.8275 67.5142 34.6215 67.8804 34.2554C68.2465 33.8892 68.4525 33.3928 68.4531 32.875V30.9219H55.1719V32.875ZM61.8125 32.0938C61.967 32.0938 62.1181 32.1396 62.2465 32.2254C62.375 32.3113 62.4752 32.4333 62.5343 32.576C62.5934 32.7188 62.6089 32.8759 62.5787 33.0274C62.5486 33.179 62.4742 33.3182 62.3649 33.4274C62.2557 33.5367 62.1165 33.6111 61.9649 33.6412C61.8134 33.6714 61.6563 33.6559 61.5135 33.5968C61.3708 33.5377 61.2488 33.4375 61.1629 33.309C61.0771 33.1806 61.0312 33.0295 61.0312 32.875C61.0312 32.6678 61.1136 32.4691 61.2601 32.3226C61.4066 32.1761 61.6053 32.0938 61.8125 32.0938Z" fill="white"></path><path d="M68.4531 14.125C68.4525 13.6072 68.2465 13.1108 67.8804 12.7446C67.5142 12.3785 67.0178 12.1725 66.5 12.1719H57.125C56.6072 12.1725 56.1108 12.3785 55.7446 12.7446C55.3785 13.1108 55.1725 13.6072 55.1719 14.125V14.5156H68.4531V14.125Z" fill="white"></path><path d="M66.8516 28.7117L66.6082 28.0422C66.3844 27.9649 66.1658 27.8736 65.9535 27.7688L65.1836 28.0254C65.1147 28.0484 65.0408 28.0517 64.9702 28.035C64.8995 28.0183 64.8349 27.9822 64.7836 27.9309L63.2418 26.3891C63.1906 26.3378 63.1546 26.2732 63.138 26.2026C63.1214 26.132 63.1247 26.0582 63.1477 25.9895L63.1965 25.8438H61.4219V27.1238C61.5708 27.2098 61.6872 27.3426 61.753 27.5014C61.8188 27.6603 61.8304 27.8365 61.7859 28.0026C61.7414 28.1687 61.6433 28.3155 61.5068 28.4202C61.3704 28.5249 61.2032 28.5817 61.0312 28.5817C60.8593 28.5817 60.6921 28.5249 60.5557 28.4202C60.4192 28.3155 60.3211 28.1687 60.2766 28.0026C60.2321 27.8365 60.2437 27.6603 60.3095 27.5014C60.3753 27.3426 60.4917 27.2098 60.6406 27.1238V25.4531C60.6406 25.3495 60.6818 25.2502 60.755 25.1769C60.8283 25.1037 60.9276 25.0625 61.0312 25.0625H63.3398C63.2641 24.898 63.1887 24.7328 63.1297 24.5629L62.4602 24.3203C62.3848 24.2929 62.3197 24.2429 62.2737 24.1772C62.2278 24.1116 62.2031 24.0333 62.2031 23.9531V23.1094H60.1418C60.0558 23.2583 59.9231 23.3747 59.7642 23.4405C59.6053 23.5063 59.4291 23.5179 59.263 23.4734C59.0969 23.4289 58.9501 23.3308 58.8454 23.1943C58.7407 23.0579 58.684 22.8907 58.684 22.7188C58.684 22.5468 58.7407 22.3796 58.8454 22.2432C58.9501 22.1067 59.0969 22.0086 59.263 21.9641C59.4291 21.9196 59.6053 21.9312 59.7642 21.997C59.9231 22.0628 60.0558 22.1792 60.1418 22.3281H62.2031V21.4852C62.2031 21.405 62.2278 21.3267 62.2737 21.261C62.3197 21.1953 62.3848 21.1454 62.4602 21.118L63.1297 20.8746C63.1887 20.7047 63.2641 20.5395 63.3398 20.375H61.0312C60.9276 20.375 60.8283 20.3338 60.755 20.2606C60.6818 20.1873 60.6406 20.088 60.6406 19.9844V18.3137C60.4917 18.2277 60.3753 18.0949 60.3095 17.9361C60.2437 17.7772 60.2321 17.601 60.2766 17.4349C60.3211 17.2688 60.4192 17.122 60.5557 17.0173C60.6921 16.9126 60.8593 16.8558 61.0312 16.8558C61.2032 16.8558 61.3704 16.9126 61.5068 17.0173C61.6433 17.122 61.7414 17.2688 61.7859 17.4349C61.8304 17.601 61.8188 17.7772 61.753 17.9361C61.6872 18.0949 61.5708 18.2277 61.4219 18.3137V19.5938H63.1965L63.1484 19.45C63.1255 19.3812 63.1221 19.3074 63.1388 19.2368C63.1554 19.1663 63.1913 19.1017 63.2426 19.0504L64.7844 17.5086C64.8357 17.4572 64.9003 17.4212 64.9709 17.4045C65.0416 17.3878 65.1155 17.3911 65.1844 17.4141L65.9543 17.6707C66.1665 17.5652 66.3852 17.4733 66.609 17.3953L66.8523 16.7258C66.8798 16.6504 66.9297 16.5853 66.9954 16.5394C67.0611 16.4934 67.1393 16.4687 67.2195 16.4688H68.4531V15.2969H55.1719V30.1406H68.4531V28.9688H67.2195C67.1392 28.9689 67.0608 28.9444 66.9949 28.8984C66.9291 28.8524 66.879 28.7872 66.8516 28.7117Z" fill="white"></path><path d="M73.9219 21.7586L73.3309 21.5441C73.274 21.5234 73.2228 21.4899 73.1812 21.446C73.1396 21.4021 73.1087 21.3492 73.091 21.2914C72.9999 20.9956 72.8803 20.7094 72.734 20.4367C72.7089 20.3898 72.6937 20.3383 72.6893 20.2853C72.6849 20.2323 72.6913 20.1789 72.7082 20.1285L72.9402 19.432L71.7402 18.2316L71.0434 18.4641C70.993 18.4809 70.9397 18.4872 70.8868 18.4827C70.8338 18.4782 70.7824 18.463 70.7355 18.4379C70.4625 18.2916 70.176 18.172 69.8801 18.0805C69.8224 18.0627 69.7697 18.0319 69.726 17.9903C69.6823 17.9488 69.6488 17.8977 69.6281 17.841L69.4133 17.25H67.493L67.2781 17.841C67.2575 17.8977 67.224 17.9488 67.1803 17.9903C67.1365 18.0319 67.0838 18.0627 67.0262 18.0805C66.7302 18.172 66.4438 18.2916 66.1707 18.4379C66.1239 18.463 66.0724 18.4782 66.0195 18.4827C65.9666 18.4872 65.9133 18.4809 65.8629 18.4641L65.166 18.2316L63.966 19.432L64.198 20.1285C64.215 20.1789 64.2214 20.2323 64.217 20.2853C64.2125 20.3383 64.1973 20.3898 64.1723 20.4367C64.0259 20.7094 63.9064 20.9956 63.8152 21.2914C63.7975 21.3492 63.7667 21.4021 63.7251 21.446C63.6834 21.4899 63.6322 21.5234 63.5754 21.5441L62.9844 21.7586V23.6789L63.5754 23.8934C63.6322 23.9141 63.6834 23.9476 63.7251 23.9915C63.7667 24.0354 63.7975 24.0883 63.8152 24.1461C63.9064 24.4419 64.0259 24.7281 64.1723 25.0008C64.1973 25.0477 64.2125 25.0992 64.217 25.1522C64.2214 25.2052 64.215 25.2586 64.198 25.309L63.966 26.0055L65.166 27.2059L65.8629 26.9734C65.9133 26.9568 65.9666 26.9505 66.0195 26.955C66.0724 26.9595 66.1238 26.9747 66.1707 26.9996C66.4438 27.1459 66.7302 27.2655 67.0262 27.357C67.0838 27.3748 67.1365 27.4056 67.1803 27.4472C67.224 27.4887 67.2575 27.5398 67.2781 27.5965L67.493 28.1875H69.4133L69.6281 27.5965C69.6488 27.5398 69.6823 27.4887 69.726 27.4472C69.7697 27.4056 69.8224 27.3748 69.8801 27.357C70.176 27.2655 70.4625 27.1459 70.7355 26.9996C70.7824 26.9747 70.8339 26.9595 70.8868 26.955C70.9397 26.9505 70.9929 26.9568 71.0434 26.9734L71.7402 27.2059L72.9402 26.0055L72.7082 25.309C72.6913 25.2586 72.6849 25.2052 72.6893 25.1522C72.6937 25.0992 72.7089 25.0477 72.734 25.0008C72.8803 24.7281 72.9999 24.4419 73.091 24.1461C73.1087 24.0883 73.1396 24.0354 73.1812 23.9915C73.2228 23.9476 73.274 23.9141 73.3309 23.8934L73.9219 23.6789V21.7586ZM68.4531 26.2344C67.7578 26.2344 67.0781 26.0282 66.4999 25.6419C65.9218 25.2556 65.4712 24.7065 65.2051 24.0641C64.939 23.4217 64.8694 22.7148 65.0051 22.0329C65.1407 21.3509 65.4755 20.7245 65.9672 20.2328C66.4589 19.7412 67.0853 19.4063 67.7673 19.2707C68.4492 19.135 69.1561 19.2046 69.7985 19.4707C70.4409 19.7368 70.99 20.1874 71.3763 20.7656C71.7626 21.3437 71.9688 22.0234 71.9688 22.7188C71.9688 23.6512 71.5984 24.5454 70.939 25.2047C70.2797 25.864 69.3855 26.2344 68.4531 26.2344Z" fill="white"></path><path d="M77.4375 21.5469C77.3009 21.5473 77.1668 21.5836 77.0487 21.6521C76.9306 21.7207 76.8325 21.8191 76.7645 21.9375H74.7031V22.7188H76.7645C76.8331 22.8377 76.9319 22.9364 77.0508 23.0049C77.1697 23.0735 77.3046 23.1095 77.4419 23.1094C77.5792 23.1092 77.714 23.0729 77.8328 23.004C77.9516 22.9352 78.0501 22.8363 78.1185 22.7172C78.1869 22.5982 78.2227 22.4632 78.2223 22.3259C78.2219 22.1886 78.1853 22.0539 78.1163 21.9352C78.0472 21.8165 77.9481 21.7182 77.829 21.65C77.7098 21.5818 77.5748 21.5463 77.4375 21.5469Z" fill="white"></path><path d="M76.2654 26.7332V25.0625C76.2654 24.9589 76.2243 24.8595 76.151 24.7863C76.0778 24.713 75.9784 24.6719 75.8748 24.6719H73.7303C73.6636 24.8581 73.5871 25.0407 73.501 25.2188L73.5791 25.4531H75.4842V26.7332C75.3352 26.8192 75.2188 26.9519 75.153 27.1108C75.0872 27.2697 75.0757 27.4459 75.1202 27.612C75.1647 27.7781 75.2628 27.9249 75.3992 28.0296C75.5357 28.1343 75.7028 28.191 75.8748 28.191C76.0468 28.191 76.214 28.1343 76.3504 28.0296C76.4868 27.9249 76.5849 27.7781 76.6294 27.612C76.6739 27.4459 76.6624 27.2697 76.5966 27.1108C76.5308 26.9519 76.4144 26.8192 76.2654 26.7332Z" fill="white"></path><path d="M73.5796 19.9845H75.8749C75.9785 19.9845 76.0779 19.9433 76.1511 19.8701C76.2244 19.7968 76.2655 19.6975 76.2655 19.5939V17.9232C76.4145 17.8372 76.5309 17.7044 76.5967 17.5456C76.6625 17.3867 76.674 17.2105 76.6295 17.0444C76.585 16.8783 76.4869 16.7315 76.3505 16.6268C76.2141 16.5221 76.0469 16.4653 75.8749 16.4653C75.7029 16.4653 75.5357 16.5221 75.3993 16.6268C75.2629 16.7315 75.1648 16.8783 75.1203 17.0444C75.0758 17.2105 75.0873 17.3867 75.1531 17.5456C75.2189 17.7044 75.3353 17.8372 75.4843 17.9232V19.2032H73.7542C73.7823 19.2829 73.7836 19.3697 73.7577 19.4501L73.5796 19.9845Z" fill="white"></path><defs><linearGradient id="paint0_linear_641_12090" x1="132" y1="47.1143" x2="0.0325017" y2="46.4259" gradientUnits="userSpaceOnUse"><stop stop-color="#0461A5"></stop><stop offset="1" stop-color="#0E7AC9"></stop></linearGradient></defs></svg>