<svg xmlns="http://www.w3.org/2000/svg" width="129" height="113" viewBox="0 0 129 113" fill="none"><path d="M125.455 36.8483C125.455 36.8481 125.456 36.8483 125.456 36.8487L121.907 63.2465C120.707 72.1765 114.016 79.0322 105.69 80.8487C103.376 81.3493 100.936 81.4709 98.4586 81.1378L50.7734 74.7276C50.3441 74.6699 49.9278 74.8957 49.7356 75.2838C49.6156 75.5262 49.4944 75.765 49.3704 76.0001C47.6315 79.3635 45.64 82.2916 43.5352 84.8437C42.6985 85.8677 41.8449 86.8277 40.976 87.7226C35.4242 93.5235 29.579 96.9253 26.0985 98.619C25.1996 99.0564 24.4429 98.0587 25.0312 97.2505C28.4963 92.4899 31.0685 87.8173 32.9601 83.4236C34.425 80.0518 35.482 76.843 36.2592 73.8942C36.4108 73.319 36.0197 72.7458 35.4301 72.6665L24.5493 71.2038C21.1149 70.7421 17.989 69.4726 15.3417 67.606C9.18002 63.2677 5.58437 55.7418 6.65799 47.7553L10.2067 21.3564C11.742 9.93549 22.2476 1.93163 33.6553 3.46514L107.563 13.4004C118.983 14.9357 126.989 25.4273 125.454 36.8479C125.454 36.8483 125.455 36.8485 125.455 36.8483Z" fill="url(#paint0_linear_641_11832)"></path><path d="M23.3793 55.2107L24.5064 46.8262L30.1556 47.5856L29.9941 48.7868L25.8197 48.2256L25.5079 50.5447L29.4089 51.0691L29.2458 52.2822L25.3449 51.7578L25.0171 54.1959L29.1916 54.7571L29.0285 55.9701L23.3793 55.2107ZM32.1494 56.3897L30.3641 50.0352L31.9459 50.2478L33.1934 55.1982L32.8248 55.1486L35.3829 50.7098L36.8696 50.9097L33.4576 56.5655L32.1494 56.3897ZM39.7768 57.5361C38.7699 57.4007 38.0183 57.0172 37.522 56.3854C37.0258 55.7537 36.8426 54.9542 36.9727 53.9869C37.0569 53.3605 37.2533 52.8299 37.562 52.3952C37.8707 51.9604 38.2606 51.6415 38.7319 51.4385C39.2111 51.2366 39.744 51.175 40.3307 51.2539C40.9095 51.3317 41.3766 51.5196 41.7321 51.8176C42.0876 52.1156 42.3346 52.5 42.4731 52.9706C42.6196 53.4423 42.6528 53.9755 42.5729 54.5702L42.5201 54.9626L38.1435 54.3743L38.249 53.5894L41.5672 54.0354L41.3426 54.1747C41.4172 53.6197 41.3553 53.1796 41.1569 52.8542C40.9664 52.53 40.6491 52.338 40.2051 52.2783C39.7135 52.2122 39.3095 52.3355 38.9931 52.6481C38.6845 52.9618 38.4881 53.4318 38.4039 54.0582L38.3831 54.2128C38.2958 54.8629 38.3888 55.3719 38.6622 55.7396C38.9447 56.1004 39.3792 56.3203 39.966 56.3992C40.3069 56.445 40.6299 56.444 40.935 56.3962C41.2491 56.3416 41.5548 56.2293 41.852 56.0594L42.1578 57.1176C41.8415 57.3091 41.4765 57.4417 41.0631 57.5153C40.6496 57.5888 40.2208 57.5958 39.7768 57.5361ZM43.5552 57.9229L44.1611 53.4155C44.1941 53.1697 44.2198 52.9189 44.238 52.663C44.2563 52.4072 44.2661 52.1542 44.2674 51.9042L45.7065 52.0976L45.6655 53.3029L45.5228 53.2837C45.7696 52.8891 46.0942 52.6058 46.4967 52.4339C46.9003 52.2541 47.3478 52.1972 47.8394 52.2633C48.5451 52.3581 49.0496 52.6278 49.3531 53.0722C49.6566 53.5165 49.7519 54.159 49.6389 54.9994L49.1449 58.6744L47.6583 58.4745L48.1427 54.8709C48.2077 54.3873 48.1589 54.0296 47.9964 53.7979C47.8428 53.5593 47.5797 53.4149 47.207 53.3648C46.7471 53.303 46.3632 53.3967 46.0553 53.6459C45.7473 53.8951 45.5614 54.2575 45.4974 54.7333L45.0418 58.1228L43.5552 57.9229ZM53.4228 59.3705C52.7092 59.2746 52.1951 59.0158 51.8804 58.5941C51.5658 58.1724 51.4586 57.5889 51.5588 56.8436L51.9313 54.0726L50.7777 53.9175L50.928 52.7995L52.0816 52.9546L52.2878 51.4204L53.8256 51.2397L53.5682 53.1545L55.1738 53.3703L55.0235 54.4882L53.4179 54.2724L53.0582 56.9483C53.0028 57.3606 53.0432 57.6607 53.1794 57.8485C53.3155 58.0363 53.5224 58.1489 53.7999 58.1862C53.9505 58.2064 54.079 58.2116 54.1853 58.2017C54.2995 58.1928 54.4108 58.1755 54.5192 58.1497L54.3609 59.3271C54.2187 59.3645 54.0627 59.3839 53.893 59.3853C53.7301 59.3957 53.5734 59.3907 53.4228 59.3705ZM59.0561 60.0067L60.1832 51.6221L63.9057 52.1225C64.8254 52.2462 65.4973 52.5625 65.9212 53.0715C66.3452 53.5805 66.5049 54.2235 66.4005 55.0006C66.2971 55.7696 65.9732 56.3476 65.4288 56.7346C64.8844 57.1215 64.1523 57.2531 63.2326 57.1295L61.0443 56.8353L60.5903 60.2129L59.0561 60.0067ZM61.2074 55.6222L63.2173 55.8924C63.7247 55.9606 64.1202 55.9008 64.4038 55.7129C64.6884 55.5171 64.8584 55.213 64.9139 54.8007C64.9693 54.3884 64.8851 54.0542 64.6612 53.7981C64.4384 53.5341 64.0733 53.3679 63.5658 53.2997L61.5559 53.0295L61.2074 55.6222ZM67.0067 61.0755L68.1834 52.3222L69.67 52.5221L68.4934 61.2753L67.0067 61.0755ZM72.5596 61.943C72.0363 61.8727 71.5929 61.688 71.2295 61.3889C70.8672 61.0819 70.6065 60.6795 70.4474 60.1819C70.2882 59.6843 70.2524 59.1104 70.3398 58.4602C70.4272 57.8101 70.6128 57.27 70.8966 56.84C71.1815 56.402 71.5387 56.0868 71.9682 55.8943C72.3987 55.6939 72.8756 55.6288 73.3989 55.6992C73.9063 55.7674 74.3333 55.9539 74.6798 56.2588C75.0352 56.5568 75.2481 56.9245 75.3185 57.3618L75.1877 57.3442L75.488 56.1011L76.9151 56.2929C76.8583 56.5355 76.801 56.7821 76.7431 57.0326C76.6931 57.2842 76.6516 57.5329 76.6186 57.7787L76.0126 62.2861L74.5379 62.0879L74.6923 60.8494L74.835 60.8686C74.6527 61.2638 74.3508 61.5582 73.9292 61.7518C73.5077 61.9454 73.0511 62.0091 72.5596 61.943ZM73.1293 60.8572C73.5971 60.9201 73.9955 60.8082 74.3247 60.5215C74.6549 60.2269 74.8647 59.7466 74.9543 59.0805C75.0438 58.4145 74.9677 57.8998 74.726 57.5364C74.4842 57.1729 74.1295 56.9598 73.6617 56.8969C73.1939 56.834 72.7954 56.9459 72.4663 57.2326C72.1372 57.5193 71.9278 57.9957 71.8383 58.6617C71.7488 59.3277 71.8204 59.8458 72.0531 60.2162C72.2948 60.5796 72.6536 60.7933 73.1293 60.8572ZM77.7801 62.5237L78.3861 58.0163C78.4191 57.7705 78.4447 57.5197 78.463 57.2638C78.4812 57.008 78.491 56.755 78.4924 56.505L79.9314 56.6984L79.8905 57.9037L79.7478 57.8845C79.9945 57.4899 80.3192 57.2066 80.7217 57.0347C81.1252 56.8549 81.5728 56.798 82.0644 56.8641C82.77 56.9589 83.2746 57.2286 83.5781 57.6729C83.8816 58.1173 83.9768 58.7598 83.8639 59.6002L83.3699 63.2751L81.8832 63.0753L82.3676 59.4717C82.4327 58.9881 82.3839 58.6304 82.2213 58.3987C82.0677 58.1601 81.8046 58.0157 81.432 57.9656C80.9721 57.9038 80.5882 57.9975 80.2802 58.2467C79.9723 58.4959 79.7864 58.8583 79.7224 59.3341L79.2668 62.7236L77.7801 62.5237ZM85.0948 63.507L85.7007 58.9996C85.7338 58.7538 85.7594 58.503 85.7777 58.2471C85.7959 57.9913 85.8057 57.7383 85.807 57.4883L87.2461 57.6817L87.2051 58.887L87.0624 58.8678C87.3092 58.4732 87.6338 58.1899 88.0363 58.018C88.4399 57.8382 88.8875 57.7813 89.379 57.8474C90.0847 57.9422 90.5893 58.2118 90.8928 58.6562C91.1963 59.1006 91.2915 59.7431 91.1785 60.5835L90.6845 64.2584L89.1979 64.0586L89.6823 60.455C89.7473 59.9714 89.6986 59.6137 89.536 59.382C89.3824 59.1434 89.1193 58.999 88.7466 58.9489C88.2868 58.8871 87.9029 58.9808 87.5949 59.23C87.287 59.4792 87.101 59.8416 87.0371 60.3174L86.5814 63.7069L85.0948 63.507ZM92.4095 64.4903L93.2169 58.4844L94.7035 58.6842L93.8961 64.6902L92.4095 64.4903ZM93.2855 57.3433L93.4805 55.8924L95.1337 56.1146L94.9386 57.5656L93.2855 57.3433ZM95.6592 64.9272L96.2651 60.4197C96.2981 60.1739 96.3238 59.9231 96.342 59.6673C96.3603 59.4114 96.3701 59.1585 96.3714 58.9084L97.8104 59.1019L97.7695 60.3071L97.6268 60.288C97.8736 59.8933 98.1982 59.61 98.6007 59.4381C99.0042 59.2583 99.4518 59.2014 99.9434 59.2675C100.649 59.3624 101.154 59.632 101.457 60.0764C101.761 60.5208 101.856 61.1632 101.743 62.0036L101.249 65.6786L99.7623 65.4787L100.247 61.8752C100.312 61.3915 100.263 61.0338 100.1 60.8021C99.9468 60.5635 99.6836 60.4192 99.311 60.3691C98.8511 60.3073 98.4672 60.4009 98.1593 60.6501C97.8513 60.8993 97.6654 61.2618 97.6014 61.7375L97.1458 65.127L95.6592 64.9272ZM105.399 68.9486C104.844 68.874 104.348 68.7469 103.912 68.5672C103.484 68.3886 103.112 68.1529 102.796 67.8602L103.261 66.833C103.471 67.0146 103.692 67.1694 103.925 67.2976C104.158 67.4258 104.403 67.5313 104.658 67.614C104.913 67.6968 105.176 67.7563 105.445 67.7925C106 67.8671 106.431 67.7838 106.738 67.5425C107.052 67.3102 107.243 66.9404 107.311 66.433L107.504 64.9939L107.623 65.0099C107.441 65.4051 107.139 65.6995 106.718 65.8931C106.304 66.0877 105.847 66.1515 105.348 66.0843C104.809 66.0118 104.353 65.8295 103.981 65.5373C103.617 65.2382 103.355 64.8478 103.194 64.366C103.032 63.8842 102.993 63.3381 103.075 62.7275C103.157 62.117 103.339 61.6047 103.62 61.1905C103.903 60.7684 104.259 60.4651 104.687 60.2806C105.125 60.0891 105.613 60.0296 106.152 60.1021C106.659 60.1703 107.083 60.3524 107.423 60.6483C107.771 60.9373 107.981 61.2965 108.053 61.7258L107.955 61.6401L108.229 60.5024L109.668 60.6959C109.603 60.9374 109.546 61.184 109.496 61.4355C109.446 61.6871 109.405 61.9358 109.372 62.1816L108.798 66.4512C108.671 67.3947 108.317 68.0776 107.735 68.4999C107.161 68.9312 106.382 69.0808 105.399 68.9486ZM105.906 64.9969C106.381 65.0609 106.779 64.9529 107.099 64.6731C107.429 64.3864 107.633 63.9457 107.713 63.3511C107.793 62.7564 107.712 62.2813 107.469 61.9258C107.234 61.5714 106.879 61.3622 106.403 61.2982C105.919 61.2332 105.513 61.3401 105.185 61.6188C104.857 61.8976 104.653 62.3343 104.573 62.929C104.493 63.5236 104.574 64.0027 104.816 64.3661C105.059 64.7217 105.422 64.9319 105.906 64.9969Z" fill="white"></path><g clip-path="url(#clip0_641_11832)"><path fill-rule="evenodd" clip-rule="evenodd" d="M67.0233 20.0023L66.5373 23.6156C66.4799 24.043 66.7801 24.4365 67.2075 24.494C67.6349 24.5515 68.0284 24.2513 68.0859 23.8239L68.5719 20.2106C68.6293 19.7832 68.3291 19.3896 67.9017 19.3322C67.4743 19.2747 67.0808 19.5749 67.0233 20.0023Z" fill="white"></path><path fill-rule="evenodd" clip-rule="evenodd" d="M76.3143 21.2518L75.8284 24.8651C75.7709 25.2925 76.0711 25.686 76.4985 25.7435C76.9259 25.801 77.3194 25.5008 77.3769 25.0734L77.8629 21.4601C77.9204 21.0327 77.6201 20.6392 77.1927 20.5817C76.7653 20.5242 76.3718 20.8244 76.3143 21.2518Z" fill="white"></path><path fill-rule="evenodd" clip-rule="evenodd" d="M81.8596 34.7248L82.3607 30.999L60.1647 28.0138L59.0192 36.5308C58.7316 38.6689 60.2319 40.6354 62.3699 40.9229L71.4042 42.138C69.9955 40.7493 69.2328 38.738 69.5165 36.6289C69.9954 33.0682 73.2759 30.5655 76.8366 31.0443C79.1078 31.3498 80.9483 32.7945 81.8596 34.7248ZM69.465 21.3818L69.1179 23.9627C68.9838 24.96 68.0655 25.6605 67.0683 25.5264C66.8886 25.5022 66.7187 25.4531 66.5622 25.3816L67.1422 21.0694L65.0774 20.7917C62.9394 20.5041 60.9729 22.0043 60.6854 24.1424L60.373 26.4652L82.569 29.4505L82.8814 27.1276C83.1689 24.9896 81.6687 23.0231 79.5306 22.7356L78.7564 22.6314L78.4092 25.2123C78.2751 26.2096 77.3569 26.9101 76.3596 26.776C76.18 26.7519 76.01 26.7027 75.8536 26.6312L76.4335 22.319L69.465 21.3818Z" fill="white"></path><path fill-rule="evenodd" clip-rule="evenodd" d="M76.6978 32.0766C73.706 31.6742 70.9513 33.7758 70.5489 36.7676C70.1465 39.7594 72.2481 42.5141 75.2399 42.9165C78.2317 43.3189 80.9864 41.2173 81.3888 38.2255C81.7912 35.2337 79.6896 32.479 76.6978 32.0766ZM73.3181 37.4343L74.6583 39.1912C74.9201 39.5343 75.4095 39.6001 75.7526 39.3383L78.6807 37.1045C79.0237 36.8438 79.0898 36.3524 78.8279 36.0102C78.5671 35.6672 78.0757 35.6011 77.7336 35.863L75.4264 37.6223L74.5595 36.4872C74.2988 36.1442 73.8074 36.0781 73.4652 36.34C73.1222 36.6008 73.0561 37.0922 73.3181 37.4343Z" fill="white"></path></g><defs><linearGradient id="paint0_linear_641_11832" x1="121.952" y1="62.9094" x2="6.8023" y2="46.8913" gradientUnits="userSpaceOnUse"><stop stop-color="#0461A5"></stop><stop offset="1" stop-color="#0E7AC9"></stop></linearGradient><clipPath id="clip0_641_11832"><rect width="25" height="25" fill="white" transform="translate(60.3325 17.0005) rotate(7.66)"></rect></clipPath></defs></svg>