<svg xmlns="http://www.w3.org/2000/svg" width="129" height="113" viewBox="0 0 129 113" fill="none"><path d="M125.455 36.8483C125.455 36.8481 125.456 36.8483 125.456 36.8487L121.907 63.2465C120.707 72.1765 114.016 79.0322 105.69 80.8487C103.376 81.3493 100.936 81.4709 98.4586 81.1378L50.7734 74.7276C50.3441 74.6699 49.9278 74.8957 49.7356 75.2838C49.6156 75.5262 49.4944 75.765 49.3704 76.0001C47.6315 79.3635 45.64 82.2916 43.5352 84.8437C42.6985 85.8677 41.8449 86.8277 40.976 87.7226C35.4242 93.5235 29.579 96.9253 26.0985 98.619C25.1996 99.0564 24.4429 98.0587 25.0312 97.2505C28.4963 92.4899 31.0685 87.8173 32.9601 83.4236C34.425 80.0518 35.482 76.843 36.2592 73.8942C36.4108 73.319 36.0197 72.7458 35.4301 72.6665L24.5493 71.2038C21.1149 70.7421 17.989 69.4726 15.3417 67.606C9.18002 63.2677 5.58437 55.7418 6.65799 47.7553L10.2067 21.3564C11.742 9.93549 22.2476 1.93163 33.6553 3.46514L107.563 13.4004C118.983 14.9357 126.989 25.4273 125.454 36.8479C125.454 36.8483 125.455 36.8485 125.455 36.8483Z" fill="url(#paint0_linear_641_12156)"></path><path d="M30.022 56.5748C29.348 56.4842 28.7368 56.3172 28.1883 56.074C27.6488 55.8239 27.1972 55.521 26.8333 55.1654L27.4705 54.0281C27.7145 54.2546 27.9741 54.455 28.2494 54.6292C28.5257 54.7955 28.8255 54.9368 29.1489 55.0529C29.4734 55.1611 29.822 55.2402 30.1946 55.2903C30.821 55.3745 31.2868 55.3322 31.592 55.1633C31.8972 54.9945 32.0722 54.7436 32.117 54.4106C32.1564 54.1172 32.0911 53.8824 31.9211 53.7062C31.7521 53.522 31.4287 53.3454 30.951 53.1762L29.6439 52.722C28.8961 52.4601 28.357 52.1172 28.0265 51.6934C27.696 51.2696 27.5729 50.7445 27.6571 50.1181C27.7274 49.5948 27.9275 49.1576 28.2572 48.8064C28.5869 48.4552 29.0159 48.2061 29.5442 48.0592C30.0725 47.9123 30.6697 47.8836 31.3357 47.9731C31.9303 48.053 32.4696 48.2143 32.9536 48.457C33.4387 48.6917 33.8303 48.9905 34.1286 49.3535L33.4994 50.4313C33.1969 50.1 32.8525 49.8398 32.4662 49.6507C32.0811 49.4536 31.6387 49.3215 31.1392 49.2543C30.5763 49.1787 30.1213 49.2305 29.7743 49.4099C29.4363 49.5824 29.2417 49.8589 29.1906 50.2395C29.1511 50.5329 29.2149 50.7796 29.3817 50.9796C29.5565 51.1806 29.8713 51.3602 30.3263 51.5182L31.6232 51.9589C32.3947 52.2241 32.9463 52.5646 33.2778 52.9805C33.6105 53.3884 33.7357 53.8977 33.6537 54.5082C33.5865 55.0077 33.3926 55.4296 33.0718 55.7739C32.7522 56.1104 32.3322 56.3526 31.8118 56.5006C31.2925 56.6406 30.6959 56.6653 30.022 56.5748ZM34.4621 59.6659L35.4133 52.5895C35.4464 52.3437 35.472 52.0929 35.4903 51.8371C35.5085 51.5812 35.5183 51.3283 35.5196 51.0782L36.9587 51.2717L36.9201 52.5499L36.7892 52.5323C36.9646 52.1281 37.2592 51.8287 37.6728 51.634C38.0954 51.4325 38.5604 51.3659 39.0679 51.4341C39.5991 51.5055 40.0459 51.6947 40.4082 52.0017C40.7716 52.3008 41.0328 52.6992 41.1919 53.1968C41.3521 53.6865 41.3885 54.2565 41.3011 54.9066C41.2137 55.5568 41.0276 56.1008 40.7427 56.5388C40.4578 56.9767 40.1001 57.2959 39.6696 57.4963C39.2401 57.6888 38.7597 57.7494 38.2285 57.6779C37.729 57.6108 37.3055 57.4287 36.9579 57.1318C36.6104 56.8349 36.4009 56.4717 36.3295 56.0424L36.4603 56.0599L35.9487 59.8657L34.4621 59.6659ZM37.9657 56.4803C38.4415 56.5442 38.8439 56.4328 39.173 56.1461C39.5032 55.8515 39.7131 55.3712 39.8026 54.7052C39.8921 54.0392 39.816 53.5244 39.5743 53.161C39.3326 52.7975 38.9738 52.5838 38.4981 52.5199C38.0303 52.457 37.6319 52.5689 37.3027 52.8556C36.9736 53.1423 36.7643 53.6187 36.6747 54.2847C36.5852 54.9507 36.6608 55.4694 36.9014 55.8408C37.1432 56.2042 37.4979 56.4174 37.9657 56.4803ZM44.6343 58.5391C44.111 58.4687 43.6677 58.284 43.3043 57.9849C42.9419 57.6779 42.6812 57.2756 42.5221 56.778C42.363 56.2803 42.3271 55.7064 42.4145 55.0563C42.5019 54.4061 42.6875 53.866 42.9713 53.436C43.2562 52.9981 43.6134 52.6828 44.0429 52.4903C44.4734 52.2899 44.9504 52.2249 45.4736 52.2952C45.9811 52.3634 46.408 52.55 46.7545 52.8549C47.11 53.1529 47.3229 53.5205 47.3933 53.9578L47.2624 53.9402L47.5627 52.6971L48.9899 52.889C48.9331 53.1316 48.8757 53.3781 48.8178 53.6287C48.7678 53.8802 48.7263 54.1289 48.6933 54.3747L48.0874 58.8822L46.6126 58.6839L46.767 57.4455L46.9097 57.4646C46.7274 57.8599 46.4255 58.1543 46.004 58.3478C45.5824 58.5414 45.1259 58.6051 44.6343 58.5391ZM45.204 57.4533C45.6718 57.5162 46.0703 57.4043 46.3994 57.1176C46.7296 56.8229 46.9395 56.3426 47.029 55.6766C47.1185 55.0106 47.0424 54.4959 46.8007 54.1324C46.559 53.769 46.2042 53.5558 45.7364 53.4929C45.2686 53.43 44.8702 53.5419 44.541 53.8286C44.2119 54.1154 44.0026 54.5917 43.913 55.2577C43.8235 55.9237 43.8951 56.4419 44.1279 56.8122C44.3696 57.1756 44.7283 57.3893 45.204 57.4533ZM56.2958 60.1067C55.6218 60.0161 55.0106 59.8492 54.4621 59.6059C53.9227 59.3558 53.471 59.053 53.1071 58.6973L53.7443 57.5601C53.9883 57.7866 54.2479 57.987 54.5232 58.1612C54.7995 58.3275 55.0993 58.4687 55.4228 58.5848C55.7472 58.693 56.0958 58.7722 56.4684 58.8222C57.0948 58.9064 57.5606 58.8641 57.8658 58.6953C58.171 58.5264 58.346 58.2755 58.3908 57.9425C58.4302 57.6492 58.3649 57.4144 58.1949 57.2381C58.0259 57.054 57.7026 56.8773 57.2248 56.7082L55.9177 56.254C55.1699 55.992 54.6308 55.6491 54.3003 55.2253C53.9698 54.8015 53.8467 54.2764 53.9309 53.6501C54.0013 53.1268 54.2013 52.6895 54.531 52.3383C54.8608 51.9871 55.2898 51.7381 55.818 51.5911C56.3463 51.4442 56.9435 51.4155 57.6095 51.505C58.2041 51.585 58.7435 51.7463 59.2274 51.9889C59.7125 52.2236 60.1042 52.5225 60.4025 52.8855L59.7733 53.9632C59.4707 53.632 59.1263 53.3718 58.7401 53.1826C58.3549 52.9855 57.9125 52.8534 57.413 52.7863C56.8501 52.7106 56.3951 52.7625 56.0481 52.9418C55.7101 53.1143 55.5156 53.3909 55.4644 53.7715C55.425 54.0648 55.4887 54.3115 55.6555 54.5115C55.8303 54.7126 56.1452 54.8921 56.6002 55.0502L57.897 55.4909C58.6686 55.756 59.2201 56.0966 59.5517 56.5124C59.8843 56.9204 60.0096 57.4296 59.9275 58.0401C59.8603 58.5396 59.6664 58.9616 59.3457 59.3059C59.026 59.6423 58.606 59.8845 58.0856 60.0325C57.5663 60.1726 56.9697 60.1973 56.2958 60.1067ZM63.9671 61.1379C62.9602 61.0026 62.2086 60.619 61.7123 59.9873C61.2161 59.3555 61.033 58.556 61.163 57.5887C61.2472 56.9623 61.4437 56.4318 61.7523 55.997C62.061 55.5623 62.451 55.2434 62.9222 55.0404C63.4014 54.8384 63.9343 54.7769 64.5211 54.8557C65.0999 54.9335 65.567 55.1215 65.9224 55.4195C66.2779 55.7175 66.5249 56.1018 66.6634 56.5725C66.8099 57.0442 66.8432 57.5774 66.7632 58.172L66.7105 58.5645L62.3338 57.9761L62.4393 57.1912L65.7575 57.6373L65.5329 57.7766C65.6075 57.2216 65.5456 56.7814 65.3472 56.4561C65.1567 56.1318 64.8395 55.9398 64.3955 55.8801C63.9039 55.8141 63.4999 55.9373 63.1834 56.2499C62.8748 56.5636 62.6785 57.0337 62.5943 57.66L62.5735 57.8146C62.4861 58.4648 62.5791 58.9737 62.8526 59.3414C63.135 59.7023 63.5696 59.9221 64.1563 60.001C64.4972 60.0468 64.8202 60.0459 65.1253 59.9981C65.4394 59.9434 65.7451 59.8312 66.0424 59.6613L66.3481 60.7194C66.0318 60.911 65.6669 61.0436 65.2534 61.1171C64.8399 61.1907 64.4112 61.1976 63.9671 61.1379ZM67.7336 61.5232L68.3348 57.0514C68.3689 56.7977 68.3956 56.5389 68.4149 56.2752C68.4421 56.0124 68.4564 55.7561 68.4577 55.506L69.8968 55.6995L69.8427 57.3631L69.6048 57.3311C69.7374 56.9453 69.9124 56.6339 70.13 56.3967C70.3554 56.1607 70.6115 55.9973 70.8981 55.9067C71.1847 55.8161 71.4866 55.7921 71.8038 55.8347C71.9465 55.8539 72.0604 55.8773 72.1455 55.9049C72.2316 55.9245 72.3162 55.9561 72.3991 55.9995L72.2114 57.3062C72.0693 57.2225 71.9438 57.1652 71.8349 57.1345C71.7339 57.1048 71.6042 57.0792 71.4456 57.0579C71.1047 57.0121 70.8057 57.0445 70.5486 57.1553C70.2995 57.2671 70.0985 57.4419 69.9454 57.6796C69.8003 57.9184 69.7059 58.2003 69.6622 58.5254L69.2321 61.7246L67.7336 61.5232ZM74.6833 62.4574L72.898 56.1029L74.4798 56.3155L75.7274 61.2659L75.3587 61.2163L77.9169 56.7776L79.4035 56.9774L75.9916 62.6333L74.6833 62.4574ZM79.541 63.1104L80.3483 57.1044L81.835 57.3043L81.0276 63.3103L79.541 63.1104ZM80.417 55.9634L80.612 54.5125L82.2652 54.7347L82.0701 56.1856L80.417 55.9634ZM85.5338 64.0371C84.9154 63.954 84.3893 63.7541 83.9557 63.4375C83.5299 63.122 83.2216 62.7133 83.0308 62.2114C82.841 61.7015 82.7898 61.1215 82.8772 60.4714C82.9646 59.8212 83.1661 59.2833 83.4816 58.8575C83.8051 58.4328 84.2133 58.1285 84.7062 57.9445C85.1991 57.7606 85.7548 57.7101 86.3732 57.7933C86.7696 57.8466 87.1456 57.9617 87.5012 58.1386C87.8658 58.3087 88.1516 58.5247 88.3585 58.7866L87.7675 59.7606C87.5801 59.5336 87.358 59.3544 87.1012 59.223C86.8534 59.0848 86.6026 58.9986 86.3489 58.9645C85.8177 58.8931 85.3791 59.0036 85.033 59.2961C84.6949 59.5897 84.4832 60.0536 84.3979 60.6879C84.3127 61.3222 84.3938 61.8295 84.6413 62.2099C84.8968 62.5913 85.2901 62.8178 85.8213 62.8892C86.0671 62.9222 86.3272 62.9088 86.6017 62.8488C86.884 62.7899 87.1496 62.6762 87.3982 62.5079L87.7126 63.5914C87.4359 63.7883 87.0988 63.9246 86.7012 64.0003C86.3114 64.0771 85.9223 64.0893 85.5338 64.0371ZM91.702 64.8663C90.6951 64.7309 89.9435 64.3474 89.4472 63.7156C88.951 63.0839 88.7679 62.2844 88.8979 61.3171C88.9821 60.6907 89.1786 60.1601 89.4872 59.7254C89.7959 59.2906 90.1859 58.9717 90.6571 58.7687C91.1363 58.5668 91.6692 58.5052 92.256 58.5841C92.8348 58.6619 93.3019 58.8498 93.6573 59.1478C94.0128 59.4458 94.2598 59.8302 94.3983 60.3008C94.5448 60.7725 94.5781 61.3057 94.4981 61.9004L94.4454 62.2928L90.0687 61.7045L90.1742 60.9196L93.4924 61.3656L93.2678 61.5049C93.3424 60.9499 93.2805 60.5098 93.0821 60.1844C92.8916 59.8601 92.5744 59.6682 92.1304 59.6085C91.6388 59.5424 91.2348 59.6657 90.9183 59.9783C90.6097 60.292 90.4134 60.762 90.3292 61.3884L90.3084 61.543C90.221 62.1931 90.314 62.7021 90.5875 63.0698C90.8699 63.4306 91.3045 63.6505 91.8912 63.7294C92.2321 63.7752 92.5551 63.7742 92.8602 63.7264C93.1743 63.6718 93.48 63.5595 93.7773 63.3896L94.083 64.4478C93.7667 64.6393 93.4018 64.7719 92.9883 64.8455C92.5748 64.919 92.1461 64.926 91.702 64.8663ZM97.6052 65.6598C97.0898 65.5906 96.6221 65.4671 96.202 65.2896C95.7909 65.1052 95.4536 64.8822 95.1901 64.6208L95.7406 63.6778C96.0142 63.9244 96.3259 64.1277 96.6757 64.2878C97.0255 64.4478 97.3867 64.5529 97.7593 64.603C98.1558 64.6562 98.4582 64.6283 98.6666 64.5191C98.8829 64.4109 99.0066 64.2419 99.0375 64.012C99.062 63.8296 99.0177 63.6784 98.9047 63.5582C98.8007 63.4313 98.6177 63.3219 98.3556 63.2302L97.1966 62.8443C96.7041 62.6651 96.3412 62.4226 96.1079 62.1168C95.8825 61.812 95.7991 61.4416 95.8577 61.0055C95.9078 60.6329 96.0511 60.3172 96.2877 60.0584C96.5322 59.8007 96.8515 59.6176 97.2454 59.5091C97.6484 59.3937 98.1036 59.3702 98.611 59.4384C99.055 59.4981 99.4633 59.6135 99.8358 59.7846C100.216 59.9569 100.525 60.18 100.763 60.4541L100.205 61.3599C99.9861 61.1286 99.7254 60.9362 99.4232 60.7826C99.1209 60.6289 98.8192 60.5319 98.5179 60.4914C98.1056 60.4359 97.7942 60.4708 97.5836 60.5958C97.3742 60.713 97.254 60.8865 97.2231 61.1164C97.1996 61.2909 97.2354 61.445 97.3304 61.5789C97.4344 61.7058 97.6056 61.8136 97.8439 61.9021L99.0029 62.288C99.5202 62.4625 99.8961 62.6987 100.131 62.9965C100.374 63.2876 100.466 63.6551 100.406 64.0991C100.353 64.4955 100.2 64.8221 99.9475 65.0787C99.695 65.3354 99.3684 65.5134 98.9676 65.6129C98.5667 65.7124 98.1126 65.728 97.6052 65.6598Z" fill="white"></path><g clip-path="url(#clip0_641_12156)"><path d="M69.0632 40.5592C68.9449 41.1548 69.3247 41.741 69.9203 41.8593C70.6336 41.9552 71.1122 41.5228 71.2204 41.0022L71.9556 37.2409L69.7782 36.9481L69.0632 40.5592Z" fill="white"></path><path d="M65.6824 39.8369C65.564 40.4325 65.9439 41.0187 66.5395 41.137C67.0925 41.2878 67.7162 40.9131 67.8395 40.2799L68.6195 36.7539L66.4422 36.4611L65.6824 39.8369Z" fill="white"></path><path d="M60.2363 32.8744C61.3625 33.0259 62.3897 32.2085 62.5362 31.1199C62.6826 30.0312 61.9078 28.9715 60.7816 28.82C59.6554 28.6685 58.6332 29.4483 58.4817 30.5746C58.3303 31.7008 59.1101 32.7229 60.2363 32.8744Z" fill="white"></path><path d="M74.1444 34.3247L80.7515 35.2133C81.3522 35.2941 81.9058 34.8717 81.9866 34.2711C82.0674 33.6704 81.645 33.1168 81.0444 33.036C80.1809 32.9198 76.3142 32.3998 74.8501 32.2029C74.8155 31.8925 74.7006 31.6095 74.5483 31.3214C74.5634 31.2088 74.6795 30.3454 74.6694 30.4205C74.554 30.7107 74.401 30.9959 74.1678 31.3085C74.1577 31.3836 73.5569 35.8509 73.5973 35.5506C73.572 35.7383 73.4017 35.8683 73.214 35.843C73.1013 35.8279 69.3097 35.3179 69.3473 35.323C69.1971 35.3028 69.0621 35.17 69.0447 35.0148C69.0123 34.9722 69.0498 34.9772 69.1558 34.1889C69.0937 33.7983 69.394 33.8387 69.0186 33.7882C67.9574 33.7219 65.4349 33.1533 64.5223 32.2662C64.0797 31.8627 64.0204 31.1668 64.4239 30.7242C64.8274 30.2816 65.5233 30.2223 65.9659 30.6258C66.7312 31.1874 68.5505 31.5849 69.4992 31.6361L69.7365 29.8717L69.7415 29.8341L72.2943 30.1775C72.3845 30.0749 72.5224 29.9024 72.5852 29.7197L72.5678 29.5645L72.8203 27.6875C73.3698 28.7169 73.3612 29.633 72.0381 30.9456C71.7674 31.2532 71.7444 31.7087 72.0519 31.9794C72.2895 32.2025 72.5898 32.2429 72.8352 32.123C74.2877 31.5539 75.4115 29.4501 73.2358 25.4502C73.0835 25.1621 72.4005 24.841 72.1478 24.7305C72.0099 24.9031 71.7017 25.2056 71.6967 25.2432C71.6967 25.2432 71.8692 25.381 71.9717 25.4713C72.0042 25.5139 72.0743 25.5615 72.0743 25.5615L71.8512 25.799L70.6177 27.5823L71.6749 24.5523C71.197 24.4116 70.714 24.3084 70.2534 24.3229L70.4675 27.5621L69.7215 25.4362C69.7316 25.3611 69.7467 25.2484 69.7193 25.1683C69.842 25.1084 70.0875 24.9885 70.0875 24.9885C70.0925 24.951 69.8477 24.4976 69.7553 24.3323C69.4023 24.3995 68.5786 24.5563 68.3779 24.9115C67.2469 26.785 67.0058 27.4405 65.6379 28.5178C65.3347 28.7828 65.2742 29.2333 65.5016 29.5314C65.7666 29.8346 66.2171 29.8952 66.5152 29.6677C67.2443 29.0778 67.8557 28.5103 68.3949 27.6274C68.4418 28.1305 68.1387 28.3955 68.086 28.5031C68.0809 28.5406 67.8998 29.3189 67.9099 29.2438L69.3365 29.4357L69.286 29.8111C68.9856 29.7707 67.7468 29.6041 67.2963 29.5435C66.6423 30.1435 65.8908 30.6157 65.236 29.8015C65.106 29.6311 65.0186 29.4282 65.0063 29.2355C63.935 29.2443 63.0255 30.0392 62.879 31.1279C62.7377 32.1791 63.3673 33.181 64.3557 33.505C64.6509 33.583 67.5791 33.9768 68.7429 34.1333L68.6974 34.4712L68.6873 34.5463C67.6362 34.4049 69.8886 34.7078 58.6315 33.1556C58.1059 33.0849 57.6374 33.4423 57.5667 33.9679C57.496 34.4935 57.8534 34.9619 58.379 35.0326L59.0172 35.1185L58.0528 42.2887L58.9538 42.4099L59.9182 35.2396L61.1946 35.4113L60.3665 41.568L61.0423 41.6589L61.8703 35.5022L76.2484 37.436L75.4204 43.5926L76.1336 43.6886L76.9617 37.5319L78.2756 37.7086L77.3113 44.8789L78.2122 45.0001L79.1766 37.8298L79.8148 37.9156C80.3404 37.9863 80.8088 37.6289 80.8795 37.1033C80.9502 36.5778 80.5928 36.1093 80.0672 36.0386C77.8148 35.7356 76.2381 35.5236 74.0607 35.2307C74.0282 35.1881 74.1544 34.2496 74.1444 34.3247Z" fill="white"></path><path d="M71.0078 32.0681C69.5936 32.069 66.6228 31.7077 65.7001 30.8956C65.3925 30.6249 64.9269 30.6769 64.6612 30.947C64.3906 31.2546 64.4051 31.7151 64.7126 31.9858C66.0505 33.1213 69.1288 33.5353 70.9611 33.5524C71.3791 33.5704 71.6924 33.2303 71.7104 32.8123C71.7233 32.4319 71.3883 32.0811 71.0078 32.0681Z" fill="white"></path><path d="M70.4113 23.9998C70.5889 24.1002 70.8091 24.168 71.0343 24.1983C71.222 24.2235 71.4148 24.2112 71.6075 24.1989C72.4262 24.0797 73.0903 23.4046 73.2014 22.5787C73.3427 21.5276 72.5954 20.548 71.5443 20.4067C70.4931 20.2653 69.5136 21.0126 69.3722 22.0637C69.2236 22.8846 69.6908 23.6736 70.4113 23.9998Z" fill="white"></path></g><defs><linearGradient id="paint0_linear_641_12156" x1="121.952" y1="62.9094" x2="6.8023" y2="46.8913" gradientUnits="userSpaceOnUse"><stop stop-color="#0461A5"></stop><stop offset="1" stop-color="#0E7AC9"></stop></linearGradient><clipPath id="clip0_641_12156"><rect width="25" height="25" fill="white" transform="translate(59.332 18) rotate(7.66)"></rect></clipPath></defs></svg>