<svg xmlns="http://www.w3.org/2000/svg" width="129" height="113" viewBox="0 0 129 113" fill="none"><path d="M125.455 36.8483C125.455 36.8481 125.456 36.8483 125.456 36.8487L121.907 63.2465C120.707 72.1765 114.016 79.0322 105.69 80.8487C103.376 81.3493 100.936 81.4709 98.4586 81.1378L51.4932 74.8243C50.6347 74.7089 49.8084 75.1639 49.4066 75.9312C49.3946 75.9542 49.3825 75.9772 49.3704 76.0001C47.6315 79.3635 45.64 82.2916 43.5352 84.8437C42.6985 85.8677 41.8449 86.8277 40.976 87.7226C36.8156 92.0697 32.4903 95.0695 29.119 97.0129C27.3868 98.0113 25.8813 96.1051 26.9842 94.4375C29.4872 90.6524 31.4426 86.9483 32.9601 83.4236C34.2488 80.4573 35.2218 77.6173 35.9664 74.9694C36.2884 73.824 35.5051 72.6766 34.3259 72.5181L24.5493 71.2038C21.1149 70.7421 17.989 69.4726 15.3417 67.606C9.18002 63.2677 5.58437 55.7418 6.65799 47.7553L10.2067 21.3564C11.742 9.93549 22.2476 1.93163 33.6553 3.46514L107.563 13.4004C118.983 14.9357 126.989 25.4273 125.454 36.8479C125.454 36.8483 125.455 36.8485 125.455 36.8483Z" fill="url(#paint0_linear_616_2522)"></path><path d="M33.0899 56.8661L34.217 48.4815L35.7512 48.6877L34.7984 55.776L38.7469 56.3067L38.5726 57.6031L33.0899 56.8661ZM42.0778 58.1954C41.5545 58.125 41.1111 57.9403 40.7477 57.6412C40.3854 57.3342 40.1247 56.9319 39.9656 56.4343C39.8065 55.9366 39.7706 55.3627 39.858 54.7126C39.9454 54.0624 40.131 53.5223 40.4148 53.0923C40.6997 52.6544 41.0569 52.3391 41.4864 52.1466C41.9169 51.9462 42.3938 51.8812 42.9171 51.9515C43.4246 52.0197 43.8515 52.2063 44.198 52.5112C44.5534 52.8092 44.7664 53.1768 44.8367 53.6141L44.7059 53.5965L45.0062 52.3534L46.4334 52.5453C46.3765 52.7879 46.3192 53.0344 46.2613 53.285C46.2113 53.5365 46.1698 53.7852 46.1368 54.031L45.5308 58.5385L44.0561 58.3402L44.2105 57.1018L44.3532 57.1209C44.1709 57.5162 43.869 57.8106 43.4475 58.0041C43.0259 58.1977 42.5694 58.2614 42.0778 58.1954ZM42.6475 57.1096C43.1153 57.1725 43.5138 57.0606 43.8429 56.7739C44.1731 56.4792 44.383 55.9989 44.4725 55.3329C44.562 54.6669 44.4859 54.1522 44.2442 53.7887C44.0024 53.4253 43.6477 53.2121 43.1799 53.1492C42.7121 53.0863 42.3136 53.1982 41.9845 53.4849C41.6554 53.7717 41.446 54.248 41.3565 54.914C41.267 55.58 41.3386 56.0982 41.5713 56.4685C41.8131 56.8319 42.1718 57.0456 42.6475 57.1096ZM48.9053 58.9921L47.3697 52.6712L48.9039 52.8774L49.9644 57.7784L49.6552 57.7368L51.9961 53.2931L53.0546 53.4354L54.127 58.3379L53.8535 58.3012L56.1587 53.8526L57.6096 54.0477L54.4593 59.7387L53.1511 59.5629L51.998 54.5404L52.6283 54.6252L50.2254 59.1696L48.9053 58.9921ZM57.8883 60.1997L58.4942 55.6922C58.5272 55.4464 58.5529 55.1956 58.5711 54.9397C58.5894 54.6839 58.5992 54.4309 58.6005 54.1809L60.0395 54.3743L59.9986 55.5796L59.8559 55.5604C60.1027 55.1658 60.4273 54.8825 60.8298 54.7106C61.2333 54.5308 61.6809 54.4739 62.1725 54.54C62.8781 54.6348 63.3827 54.9045 63.6862 55.3489C63.9897 55.7933 64.085 56.4357 63.972 57.2761L63.478 60.9511L61.9913 60.7512L62.4758 57.1476C62.5408 56.664 62.492 56.3063 62.3294 56.0746C62.1758 55.836 61.9127 55.6916 61.5401 55.6416C61.0802 55.5797 60.6963 55.6734 60.3884 55.9226C60.0804 56.1718 59.8945 56.5343 59.8305 57.01L59.3749 60.3995L57.8883 60.1997ZM72.6191 62.301C71.7469 62.1837 71.0211 61.9086 70.4416 61.4755C69.8711 61.0356 69.4626 60.4721 69.2159 59.7851C68.9703 59.0902 68.9066 58.3027 69.025 57.4226C69.1433 56.5426 69.4121 55.8038 69.8314 55.2063C70.2508 54.6089 70.7931 54.1773 71.4584 53.9115C72.1328 53.639 72.906 53.5613 73.7782 53.6785C74.3649 53.7574 74.8809 53.9115 75.3264 54.1409C75.7797 54.3714 76.155 54.672 76.4522 55.043L75.7896 56.1889C75.4575 55.8375 75.1255 55.5749 74.7937 55.4012C74.4709 55.2206 74.0875 55.1004 73.6435 55.0407C72.7951 54.9267 72.1103 55.097 71.5891 55.5516C71.0769 55.9993 70.7573 56.695 70.6305 57.6385C70.5037 58.582 70.6276 59.3413 71.0023 59.9163C71.385 60.4924 72.0005 60.8375 72.8489 60.9516C73.2929 61.0112 73.6939 61.0006 74.0519 60.9195C74.4189 60.8317 74.8095 60.6581 75.2237 60.399L75.5601 61.6793C75.1765 61.9506 74.7352 62.1415 74.236 62.252C73.7448 62.3635 73.2058 62.3798 72.6191 62.301ZM78.9996 63.1587C78.4763 63.0883 78.0329 62.9036 77.6695 62.6045C77.3072 62.2975 77.0465 61.8952 76.8874 61.3976C76.7283 60.8999 76.6924 60.3261 76.7798 59.6759C76.8672 59.0257 77.0528 58.4857 77.3366 58.0556C77.6215 57.6177 77.9787 57.3025 78.4082 57.11C78.8387 56.9095 79.3156 56.8445 79.8389 56.9149C80.3464 56.9831 80.7733 57.1696 81.1198 57.4745C81.4752 57.7725 81.6882 58.1401 81.7585 58.5774L81.6277 58.5598L81.928 57.3168L83.3552 57.5086C83.2983 57.7512 83.241 57.9978 83.1831 58.2483C83.1331 58.4999 83.0916 58.7486 83.0586 58.9943L82.4526 63.5018L80.9779 63.3036L81.1323 62.0651L81.275 62.0843C81.0927 62.4795 80.7908 62.7739 80.3693 62.9675C79.9477 63.161 79.4911 63.2248 78.9996 63.1587ZM79.5693 62.0729C80.0371 62.1358 80.4356 62.0239 80.7647 61.7372C81.0949 61.4425 81.3048 60.9622 81.3943 60.2962C81.4838 59.6302 81.4077 59.1155 81.166 58.752C80.9242 58.3886 80.5695 58.1754 80.1017 58.1125C79.6339 58.0497 79.2354 58.1616 78.9063 58.4483C78.5772 58.735 78.3678 59.2113 78.2783 59.8773C78.1888 60.5434 78.2604 61.0615 78.4931 61.4318C78.7349 61.7953 79.0936 62.009 79.5693 62.0729ZM84.2082 63.7378L84.8094 59.266C84.8435 59.0123 84.8702 58.7536 84.8895 58.4898C84.9168 58.2271 84.931 57.9707 84.9324 57.7206L86.3714 57.9141L86.3173 59.5777L86.0794 59.5457C86.212 59.16 86.3871 58.8485 86.6046 58.6114C86.8301 58.3753 87.0861 58.212 87.3727 58.1213C87.6594 58.0307 87.9613 58.0067 88.2784 58.0494C88.4211 58.0685 88.535 58.0919 88.6201 58.1195C88.7063 58.1392 88.7908 58.1707 88.8738 58.2141L88.686 59.5208C88.5439 59.4371 88.4184 59.3799 88.3095 59.3491C88.2086 59.3194 88.0788 59.2939 87.9202 59.2725C87.5793 59.2267 87.2803 59.2592 87.0233 59.3699C86.7742 59.4817 86.5731 59.6565 86.42 59.8942C86.2749 60.133 86.1805 60.4149 86.1368 60.74L85.7068 63.9392L84.2082 63.7378ZM91.8307 64.8836C90.8238 64.7482 90.0722 64.3646 89.5759 63.7329C89.0797 63.1011 88.8966 62.3016 89.0266 61.3343C89.1108 60.708 89.3072 60.1774 89.6159 59.7426C89.9246 59.3079 90.3146 58.989 90.7858 58.786C91.265 58.584 91.7979 58.5225 92.3847 58.6014C92.9635 58.6792 93.4306 58.8671 93.786 59.1651C94.1415 59.4631 94.3885 59.8474 94.527 60.3181C94.6735 60.7898 94.7068 61.323 94.6268 61.9176L94.5741 62.3101L90.1974 61.7218L90.3029 60.9368L93.6211 61.3829L93.3965 61.5222C93.4711 60.9672 93.4092 60.527 93.2108 60.2017C93.0203 59.8774 92.7031 59.6854 92.2591 59.6258C91.7675 59.5597 91.3635 59.6829 91.047 59.9956C90.7384 60.3093 90.5421 60.7793 90.4579 61.4056L90.4371 61.5603C90.3497 62.2104 90.4427 62.7193 90.7162 63.087C90.9986 63.4479 91.4332 63.6678 92.0199 63.7466C92.3608 63.7925 92.6838 63.7915 92.9889 63.7437C93.303 63.6891 93.6087 63.5768 93.906 63.4069L94.2117 64.465C93.8954 64.6566 93.5305 64.7892 93.117 64.8627C92.7035 64.9363 92.2747 64.9432 91.8307 64.8836Z" fill="white"></path><g clip-path="url(#clip0_616_2522)"><path d="M64.9447 21.204C66.0743 21.3559 67.1077 20.5675 67.2596 19.4379C67.4115 18.3084 66.6231 17.275 65.4936 17.1231C64.364 16.9711 63.3306 17.7595 63.1787 18.8891C63.0268 20.0186 63.8152 21.052 64.9447 21.204Z" fill="white"></path><path d="M76.7367 42.7477C76.7122 42.9298 76.5419 43.0924 76.3233 43.063L53.4411 39.9855C53.2589 39.961 53.1012 39.7543 53.1258 39.5721C53.1503 39.3899 53.3569 39.2322 53.5391 39.2568L55.2516 39.4871L54.0092 38.2442C53.5845 37.8161 53.5585 37.182 53.8822 36.7062L56.7146 32.7469L56.7374 29.8194C56.3003 25.3463 59.4264 21.6862 60.326 21.0652C61.4274 20.3231 62.8484 20.5142 63.6368 21.5476C64.3621 22.4984 64.2537 23.8563 63.4025 24.6692L65.678 27.6091C65.9933 28.0225 65.9464 28.6468 65.5646 29.0035L67.3863 33.6629C67.4178 33.7042 67.408 33.7771 67.3982 33.85L67.1875 35.4167L68.2827 35.8237L68.3464 35.35L67.9092 35.2912C67.727 35.2667 67.5693 35.06 67.5938 34.8779C67.6526 34.4406 67.8887 34.0643 68.2243 33.7756C68.5914 33.5282 69.0167 33.3999 69.454 33.4587L70.1827 33.5567C71.0936 33.6792 71.7244 34.506 71.6018 35.4169C71.5773 35.5991 71.4071 35.7617 71.1885 35.7323L70.7512 35.6735L70.6189 36.6573L72.6685 37.4152C73.2319 37.6393 73.6103 38.1354 73.6413 38.733C73.3694 38.5481 73.0197 38.3898 72.6553 38.3408C71.4165 38.1742 70.2955 39.0621 70.1338 40.2645C70.1142 40.4102 70.0897 40.5924 70.1065 40.7431L68.0296 40.4637C68.0856 40.3229 68.1052 40.1771 68.1297 39.995C68.2964 38.7561 67.4085 37.6351 66.1696 37.4685C64.9308 37.3019 63.8098 38.1898 63.648 39.3922C63.6284 39.5379 63.6039 39.7201 63.6208 39.8708L63.1107 39.8022C62.637 39.7384 62.3216 39.3251 62.3853 38.8514L62.8999 35.0256C62.9979 34.2968 63.6642 33.7558 64.4294 33.8587C64.648 33.8881 64.8253 33.9491 64.9927 34.0829L66.5561 35.1463L66.7276 33.8711L64.8597 29.2796C64.5949 29.3182 64.2452 29.1599 64.0245 28.8705L62.0328 26.3027C61.5872 27.1331 61.2776 28.0559 61.1769 29.0811C61.1132 29.5548 60.9086 29.9724 60.6361 30.3438L60.6035 33.3442C60.6056 33.6041 60.5398 33.8178 60.3647 34.0169L57.9021 37.4323L58.4894 38.0307C58.9456 38.5001 58.952 39.2799 58.4826 39.7361C58.4363 39.8041 58.3586 39.8307 58.3172 39.8623L64.6936 40.7199C64.3685 40.3794 64.2038 39.9492 64.2724 39.4391C64.3851 38.601 65.1291 38.0334 65.9672 38.1461C66.8052 38.2588 67.4044 39.0442 67.2966 39.8458C67.2329 40.3195 66.9555 40.7273 66.5519 40.9698L71.2158 41.5971C70.8906 41.2566 70.7259 40.8264 70.7945 40.3163C70.9072 39.4782 71.6877 38.9155 72.4893 39.0233C73.3274 39.136 73.9266 39.9214 73.8188 40.723C73.7551 41.1967 73.4412 41.5996 73.0741 41.847L73.6935 41.9303C73.8175 41.8357 74.158 41.5105 74.5181 41.0396C75.1045 40.2653 75.6817 39.0075 75.2121 37.5347C75.1637 37.3427 75.2246 37.1654 75.3851 37.0757C75.5455 36.986 75.7228 37.0469 75.8539 37.1758C77.2267 39.104 76.9376 41.2538 76.7367 42.7477Z" fill="white"></path></g><defs><linearGradient id="paint0_linear_616_2522" x1="121.952" y1="62.9094" x2="6.8023" y2="46.8913" gradientUnits="userSpaceOnUse"><stop stop-color="#0461A5"></stop><stop offset="1" stop-color="#0E7AC9"></stop></linearGradient><clipPath id="clip0_616_2522"><rect width="25" height="25" fill="white" transform="translate(55.7773 15.4453) rotate(7.66)"></rect></clipPath></defs></svg>