<svg xmlns="http://www.w3.org/2000/svg" width="150" height="116" viewBox="0 0 150 116" fill="none"><path d="M146.649 39.6973C146.649 39.6971 146.65 39.6974 146.65 39.6979L143.101 66.0956C141.901 75.0256 134.168 81.7411 124.382 83.3615C121.662 83.8075 118.785 83.8702 115.851 83.4759L59.2252 75.8637C58.8153 75.8086 58.4149 76.0123 58.2119 76.3726C58.0674 76.629 57.9214 76.8814 57.7715 77.1294C55.8002 80.4616 53.5201 83.3509 51.097 85.8602C50.1341 86.8672 49.1496 87.8097 48.1455 88.6864C41.5358 94.545 34.4964 97.8398 30.4803 99.4004C29.5421 99.7649 28.8489 98.686 29.5004 97.9188C33.5021 93.206 36.4415 88.5596 38.5772 84.1787C40.2214 80.8385 41.39 77.6513 42.2355 74.7168C42.4024 74.1376 42.0105 73.5511 41.4132 73.4708L28.3504 71.7148C24.2844 71.1682 20.5631 69.8187 17.3923 67.8817C10.0123 63.3796 5.58437 55.7418 6.65799 47.7553L10.2067 21.3564C11.742 9.93549 23.9509 2.1606 37.4564 3.97612L124.955 15.7384C138.476 17.556 148.183 28.2763 146.648 39.6968C146.648 39.6973 146.648 39.6976 146.649 39.6973Z" fill="url(#paint0_linear_641_11873)"></path><path d="M15.7331 53.127L16.8602 44.7424L20.5827 45.2428C21.5024 45.3665 22.1743 45.6828 22.5982 46.1918C23.0222 46.7008 23.182 47.3439 23.0775 48.1209C22.9741 48.89 22.6502 49.468 22.1058 49.8549C21.5614 50.2418 20.8294 50.3734 19.9096 50.2498L17.7213 49.9556L17.2673 53.3332L15.7331 53.127ZM17.8844 48.7425L19.8943 49.0127C20.4017 49.0809 20.7972 49.0211 21.0808 48.8332C21.3654 48.6374 21.5354 48.3333 21.5909 47.921C21.6463 47.5087 21.5621 47.1745 21.3382 46.9184C21.1154 46.6544 20.7503 46.4883 20.2428 46.42L18.2329 46.1499L17.8844 48.7425ZM25.7081 54.589C25.1848 54.5187 24.7415 54.334 24.3781 54.0349C24.0158 53.7279 23.7551 53.3255 23.5959 52.8279C23.4368 52.3303 23.401 51.7564 23.4884 51.1062C23.5758 50.4561 23.7614 49.916 24.0452 49.486C24.3301 49.048 24.6873 48.7328 25.1167 48.5403C25.5473 48.3399 26.0242 48.2748 26.5475 48.3452C27.0549 48.4134 27.4819 48.5999 27.8283 48.9048C28.1838 49.2028 28.3967 49.5705 28.4671 50.0077L28.3363 49.9902L28.6366 48.7471L30.0637 48.9389C30.0069 49.1815 29.9495 49.4281 29.8916 49.6786C29.8417 49.9302 29.8002 50.1789 29.7671 50.4247L29.1612 54.9321L27.6865 54.7339L27.8409 53.4954L27.9836 53.5146C27.8013 53.9098 27.4994 54.2042 27.0778 54.3978C26.6563 54.5914 26.1997 54.6551 25.7081 54.589ZM26.2779 53.5032C26.7457 53.5661 27.1441 53.4542 27.4733 53.1675C27.8035 52.8729 28.0133 52.3926 28.1029 51.7265C28.1924 51.0605 28.1163 50.5458 27.8746 50.1824C27.6328 49.8189 27.2781 49.6058 26.8103 49.5429C26.3425 49.48 25.944 49.5919 25.6149 49.8786C25.2857 50.1653 25.0764 50.6417 24.9869 51.3077C24.8974 51.9737 24.969 52.4918 25.2017 52.8621C25.4434 53.2256 25.8022 53.4393 26.2779 53.5032ZM30.9168 55.1681L31.518 50.6964C31.5521 50.4426 31.5788 50.1839 31.5981 49.9201C31.6253 49.6574 31.6396 49.401 31.6409 49.151L33.08 49.3444L33.0259 51.008L32.788 50.9761C32.9206 50.5903 33.0957 50.2788 33.3132 50.0417C33.5386 49.8056 33.7947 49.6423 34.0813 49.5517C34.3679 49.461 34.6698 49.4371 34.987 49.4797C35.1297 49.4989 35.2436 49.5223 35.3287 49.5498C35.4148 49.5695 35.4994 49.601 35.5823 49.6445L35.3946 50.9511C35.2525 50.8674 35.127 50.8102 35.0181 50.7794C34.9172 50.7497 34.7874 50.7242 34.6288 50.7029C34.2879 50.657 33.9889 50.6895 33.7319 50.8002C33.4827 50.912 33.2817 51.0868 33.1286 51.3245C32.9835 51.5633 32.8891 51.8453 32.8454 52.1704L32.4153 55.3696L30.9168 55.1681ZM38.5393 56.3139C37.5324 56.1785 36.7808 55.795 36.2845 55.1632C35.7883 54.5315 35.6052 53.732 35.7352 52.7647C35.8194 52.1383 36.0158 51.6077 36.3245 51.173C36.6332 50.7382 37.0231 50.4193 37.4944 50.2163C37.9736 50.0144 38.5065 49.9528 39.0932 50.0317C39.672 50.1095 40.1392 50.2974 40.4946 50.5954C40.8501 50.8934 41.0971 51.2778 41.2356 51.7484C41.3821 52.2201 41.4153 52.7533 41.3354 53.348L41.2826 53.7404L36.906 53.1521L37.0115 52.3672L40.3297 52.8132L40.1051 52.9525C40.1797 52.3975 40.1178 51.9574 39.9194 51.632C39.7289 51.3077 39.4116 51.1158 38.9676 51.0561C38.4761 50.99 38.072 51.1133 37.7556 51.4259C37.447 51.7396 37.2506 52.2096 37.1664 52.836L37.1457 52.9906C37.0583 53.6407 37.1513 54.1497 37.4247 54.5174C37.7072 54.8782 38.1418 55.0981 38.7285 55.177C39.0694 55.2228 39.3924 55.2218 39.6975 55.174C40.0116 55.1194 40.3173 55.0071 40.6146 54.8372L40.9203 55.8954C40.604 56.0869 40.239 56.2195 39.8256 56.2931C39.4121 56.3666 38.9833 56.3736 38.5393 56.3139ZM42.3177 56.7007L42.9236 52.1933C42.9567 51.9475 42.9823 51.6967 43.0005 51.4408C43.0188 51.185 43.0286 50.932 43.0299 50.682L44.469 50.8754L44.428 52.0807L44.2853 52.0615C44.5321 51.6669 44.8567 51.3836 45.2592 51.2117C45.6628 51.0319 46.1103 50.975 46.6019 51.0411C47.3076 51.1359 47.8121 51.4055 48.1156 51.8499C48.4191 52.2943 48.5144 52.9368 48.4014 53.7772L47.9074 57.4521L46.4208 57.2523L46.9052 53.6487C46.9702 53.1651 46.9214 52.8074 46.7589 52.5756C46.6053 52.3371 46.3422 52.1927 45.9695 52.1426C45.5096 52.0808 45.1257 52.1745 44.8178 52.4237C44.5099 52.6729 44.3239 53.0353 44.26 53.5111L43.8043 56.9006L42.3177 56.7007ZM52.1853 58.1483C51.4717 58.0524 50.9576 57.7936 50.643 57.3719C50.3283 56.9502 50.2211 56.3667 50.3213 55.6214L50.6938 52.8503L49.5402 52.6953L49.6905 51.5773L50.8441 51.7324L51.0503 50.1982L52.5881 50.0175L52.3307 51.9322L53.9363 52.1481L53.786 53.266L52.1804 53.0502L51.8207 55.7261C51.7653 56.1384 51.8057 56.4385 51.9419 56.6263C52.0781 56.8141 52.2849 56.9267 52.5624 56.964C52.7131 56.9842 52.8415 56.9894 52.9478 56.9795C53.062 56.9706 53.1733 56.9533 53.2817 56.9275L53.1234 58.1049C52.9812 58.1423 52.8252 58.1617 52.6555 58.1631C52.4926 58.1735 52.3359 58.1685 52.1853 58.1483ZM54.2874 58.3098L55.0947 52.3038L56.5814 52.5037L55.774 58.5096L54.2874 58.3098ZM55.1634 51.1628L55.3584 49.7118L57.0115 49.9341L56.8165 51.385L55.1634 51.1628ZM57.537 58.7466L58.143 54.2392C58.176 53.9934 58.2016 53.7426 58.2199 53.4867C58.2381 53.2309 58.2479 52.9779 58.2493 52.7279L59.6883 52.9213L59.6474 54.1266L59.5047 54.1074C59.7514 53.7128 60.0761 53.4295 60.4786 53.2576C60.8821 53.0778 61.3297 53.0209 61.8213 53.087C62.5269 53.1818 63.0315 53.4515 63.335 53.8958C63.6385 54.3402 63.7337 54.9827 63.6208 55.8231L63.1268 59.498L61.6401 59.2982L62.1245 55.6946C62.1896 55.211 62.1408 54.8533 61.9782 54.6216C61.8246 54.383 61.5615 54.2386 61.1889 54.1885C60.729 54.1267 60.3451 54.2204 60.0371 54.4696C59.7292 54.7188 59.5433 55.0812 59.4793 55.557L59.0237 58.9465L57.537 58.7466ZM67.2766 62.7681C66.7215 62.6935 66.2261 62.5663 65.7901 62.3866C65.3621 62.208 64.9902 61.9724 64.6744 61.6797L65.1394 60.6525C65.349 60.834 65.5704 60.9889 65.8034 61.1171C66.0364 61.2453 66.2805 61.3507 66.5358 61.4335C66.791 61.5162 67.0534 61.5757 67.323 61.612C67.878 61.6866 68.3089 61.6032 68.6158 61.362C68.9296 61.1297 69.1205 60.7598 69.1888 60.2524L69.3822 58.8134L69.5011 58.8293C69.3189 59.2246 69.0169 59.519 68.5954 59.7125C68.1818 59.9072 67.7252 59.9709 67.2257 59.9038C66.6866 59.8313 66.2308 59.6489 65.8584 59.3567C65.495 59.0576 65.2327 58.6672 65.0714 58.1854C64.9102 57.7037 64.8706 57.1575 64.9527 56.547C65.0347 55.9365 65.2166 55.4242 65.4983 55.01C65.7811 54.5879 66.1366 54.2846 66.5651 54.1C67.0025 53.9086 67.4907 53.8491 68.0299 53.9216C68.5373 53.9898 68.9608 54.1718 69.3004 54.4677C69.6491 54.7567 69.8591 55.1159 69.9305 55.5453L69.8331 55.4595L70.1071 54.3219L71.5461 54.5153C71.4814 54.7569 71.424 55.0034 71.374 55.255C71.3241 55.5066 71.2826 55.7553 71.2495 56.0011L70.6756 60.2707C70.5487 61.2142 70.1946 61.8971 69.6132 62.3194C69.0386 62.7507 68.2597 62.9002 67.2766 62.7681ZM67.7836 58.8164C68.2593 58.8803 68.6572 58.7724 68.9773 58.4926C69.3065 58.2059 69.511 57.7652 69.5909 57.1705C69.6709 56.5759 69.5895 56.1008 69.3467 55.7453C69.1118 55.3908 68.7565 55.1816 68.2808 55.1177C67.7971 55.0527 67.3913 55.1595 67.0632 55.4383C66.7351 55.7171 66.5311 56.1538 66.4512 56.7485C66.3713 57.3431 66.4521 57.8222 66.6939 58.1856C66.9367 58.5411 67.2999 58.7514 67.7836 58.8164ZM75.9299 61.2191L77.057 52.8346L80.72 53.327C81.6398 53.4506 82.3201 53.7641 82.761 54.2673C83.2098 54.7716 83.382 55.4122 83.2775 56.1892C83.2082 56.7046 83.0341 57.1292 82.7551 57.463C82.4841 57.7979 82.1252 58.0362 81.6783 58.1779C81.2325 58.3117 80.7242 58.3402 80.1533 58.2635L80.3502 58.0599L80.7545 58.1143C81.0875 58.159 81.3732 58.2862 81.6113 58.4958C81.8495 58.7054 82.0279 58.9998 82.1465 59.379L83.0181 62.172L81.3293 61.945L80.4585 59.0552C80.3848 58.7628 80.2389 58.5575 80.0207 58.4394C79.8104 58.3223 79.5467 58.2425 79.2295 58.1998L77.9213 58.024L77.4641 61.4254L75.9299 61.2191ZM78.0732 56.8941L79.9523 57.1467C80.4914 57.2192 80.9147 57.1631 81.222 56.9784C81.5384 56.7869 81.7259 56.473 81.7845 56.037C81.8431 55.6009 81.7446 55.2527 81.489 54.9923C81.2414 54.733 80.848 54.5671 80.3088 54.4946L78.4297 54.242L78.0732 56.8941ZM87.0452 62.8344C86.0383 62.6991 85.2867 62.3155 84.7904 61.6838C84.2941 61.052 84.111 60.2525 84.2411 59.2852C84.3253 58.6588 84.5217 58.1283 84.8304 57.6935C85.139 57.2588 85.529 56.9399 86.0003 56.7369C86.4794 56.5349 87.0124 56.4734 87.5991 56.5522C88.1779 56.63 88.645 56.8179 89.0005 57.116C89.356 57.414 89.603 57.7983 89.7415 58.269C89.8879 58.7407 89.9212 59.2739 89.8413 59.8685L89.7885 60.261L85.4119 59.6726L85.5174 58.8877L88.8356 59.3338L88.611 59.4731C88.6856 58.9181 88.6237 58.4779 88.4253 58.1526C88.2348 57.8283 87.9175 57.6363 87.4735 57.5766C86.9819 57.5105 86.5779 57.6338 86.2614 57.9464C85.9529 58.2601 85.7565 58.7302 85.6723 59.3565L85.6515 59.5111C85.5641 60.1613 85.6572 60.6702 85.9306 61.0379C86.2131 61.3988 86.6476 61.6186 87.2344 61.6975C87.5753 61.7433 87.8983 61.7424 88.2034 61.6946C88.5175 61.6399 88.8231 61.5277 89.1204 61.3578L89.4262 62.4159C89.1098 62.6075 88.7449 62.7401 88.3314 62.8136C87.9179 62.8872 87.4892 62.8941 87.0452 62.8344ZM92.9483 63.628C92.433 63.5587 91.9652 63.4353 91.5451 63.2577C91.134 63.0733 90.7967 62.8504 90.5332 62.589L91.0838 61.6459C91.3573 61.8925 91.669 62.0959 92.0188 62.2559C92.3686 62.4159 92.7299 62.521 93.1025 62.5711C93.4989 62.6244 93.8014 62.5964 94.0098 62.4872C94.2261 62.3791 94.3497 62.2101 94.3806 61.9801C94.4051 61.7978 94.3609 61.6465 94.2479 61.5264C94.1439 61.3994 93.9608 61.29 93.6987 61.1983L92.5398 60.8125C92.0473 60.6332 91.6843 60.3907 91.451 60.0849C91.2256 59.7802 91.1422 59.4098 91.2008 58.9737C91.2509 58.601 91.3943 58.2853 91.6309 58.0265C91.8754 57.7688 92.1946 57.5857 92.5886 57.4772C92.9915 57.3619 93.4467 57.3383 93.9542 57.4065C94.3982 57.4662 94.8064 57.5816 95.179 57.7528C95.5594 57.925 95.8684 58.1482 96.106 58.4223L95.5484 59.3281C95.3292 59.0968 95.0685 58.9044 94.7663 58.7507C94.4641 58.5971 94.1623 58.5 93.861 58.4595C93.4488 58.4041 93.1373 58.4389 92.9268 58.564C92.7173 58.6811 92.5971 58.8546 92.5662 59.0846C92.5428 59.259 92.5786 59.4131 92.6736 59.547C92.7776 59.674 92.9488 59.7818 93.1871 59.8703L94.346 60.2561C94.8634 60.4306 95.2393 60.6668 95.4737 60.9647C95.7171 61.2557 95.8089 61.6232 95.7492 62.0672C95.6959 62.4637 95.5431 62.7902 95.2906 63.0469C95.0382 63.3035 94.7115 63.4816 94.3107 63.5811C93.9099 63.6806 93.4558 63.6962 92.9483 63.628ZM99.626 64.5256C99.0075 64.4425 98.4894 64.2437 98.0716 63.9292C97.6537 63.6148 97.3494 63.2066 97.1586 62.7047C96.9757 62.2039 96.9274 61.6323 97.0137 60.9901C97.1 60.3479 97.297 59.8134 97.6046 59.3865C97.9212 58.9528 98.3226 58.6395 98.8086 58.4466C99.2946 58.2536 99.8469 58.1987 100.465 58.2818C101.084 58.3649 101.602 58.5637 102.02 58.8782C102.445 59.1938 102.75 59.6019 102.933 60.1028C103.125 60.5967 103.177 61.1648 103.091 61.8071C103.005 62.4493 102.803 62.9872 102.487 63.4209C102.178 63.8557 101.777 64.169 101.283 64.3609C100.797 64.5539 100.244 64.6088 99.626 64.5256ZM99.7794 63.3839C100.247 63.4468 100.642 63.3344 100.963 63.0466C101.285 62.7509 101.491 62.27 101.581 61.604C101.67 60.938 101.598 60.4238 101.364 60.0614C101.13 59.6991 100.78 59.4864 100.312 59.4235C99.844 59.3607 99.4495 59.4731 99.1283 59.7609C98.8071 60.0486 98.6018 60.5255 98.5122 61.1915C98.4227 61.8576 98.4943 62.3757 98.727 62.746C98.9609 63.1084 99.3117 63.321 99.7794 63.3839ZM106.266 65.4182C105.528 65.3191 105.005 65.0428 104.694 64.5895C104.384 64.1361 104.285 63.4931 104.397 62.6606L104.889 58.9976L106.376 59.1974L105.885 62.8486C105.825 63.2926 105.872 63.6339 106.026 63.8724C106.18 64.1031 106.444 64.2435 106.817 64.2936C107.237 64.3501 107.597 64.2532 107.897 64.0029C108.205 63.7537 108.39 63.3952 108.453 62.9274L108.909 59.5379L110.395 59.7378L109.588 65.7438L108.137 65.5487L108.302 64.3237L108.468 64.3461C108.236 64.7508 107.926 65.0481 107.537 65.238C107.157 65.421 106.734 65.4811 106.266 65.4182ZM111.339 65.9791L111.94 61.5073C111.974 61.2536 112.001 60.9949 112.02 60.7311C112.047 60.4684 112.062 60.212 112.063 59.9619L113.502 60.1554L113.448 61.819L113.21 61.787C113.343 61.4012 113.518 61.0898 113.735 60.8527C113.961 60.6166 114.217 60.4532 114.503 60.3626C114.79 60.272 115.092 60.248 115.409 60.2906C115.552 60.3098 115.666 60.3332 115.751 60.3608C115.837 60.3805 115.921 60.412 116.004 60.4554L115.816 61.7621C115.674 61.6784 115.549 61.6212 115.44 61.5904C115.339 61.5607 115.209 61.5352 115.051 61.5138C114.71 61.468 114.411 61.5005 114.154 61.6112C113.905 61.723 113.704 61.8978 113.551 62.1355C113.405 62.3743 113.311 62.6562 113.267 62.9813L112.837 66.1805L111.339 65.9791ZM118.819 67.1057C118.2 67.0225 117.674 66.8227 117.24 66.5061C116.815 66.1905 116.506 65.7818 116.315 65.2799C116.126 64.7701 116.074 64.1901 116.162 63.5399C116.249 62.8898 116.451 62.3518 116.766 61.9261C117.09 61.5014 117.498 61.1971 117.991 61.0131C118.484 60.8291 119.039 60.7787 119.658 60.8618C120.054 60.9151 120.43 61.0302 120.786 61.2072C121.15 61.3773 121.436 61.5933 121.643 61.8552L121.052 62.8291C120.865 62.6021 120.643 62.423 120.386 62.2916C120.138 62.1533 119.887 62.0671 119.634 62.033C119.102 61.9616 118.664 62.0722 118.318 62.3647C117.98 62.6582 117.768 63.1222 117.683 63.7565C117.597 64.3908 117.678 64.8981 117.926 65.2785C118.181 65.6599 118.575 65.8863 119.106 65.9577C119.352 65.9908 119.612 65.9773 119.886 65.9173C120.169 65.8584 120.434 65.7448 120.683 65.5764L120.997 66.66C120.721 66.8569 120.383 66.9932 119.986 67.0689C119.596 67.1456 119.207 67.1579 118.819 67.1057ZM124.987 67.9348C123.98 67.7995 123.228 67.4159 122.732 66.7842C122.236 66.1524 122.053 65.3529 122.183 64.3856C122.267 63.7592 122.463 63.2287 122.772 62.7939C123.081 62.3592 123.471 62.0403 123.942 61.8373C124.421 61.6353 124.954 61.5738 125.541 61.6526C126.119 61.7304 126.587 61.9184 126.942 62.2164C127.297 62.5144 127.544 62.8987 127.683 63.3694C127.829 63.8411 127.863 64.3743 127.783 64.9689L127.73 65.3614L123.353 64.7731L123.459 63.9881L126.777 64.4342L126.553 64.5735C126.627 64.0185 126.565 63.5783 126.367 63.253C126.176 62.9287 125.859 62.7367 125.415 62.677C124.923 62.611 124.519 62.7342 124.203 63.0469C123.894 63.3605 123.698 63.8306 123.614 64.4569L123.593 64.6115C123.506 65.2617 123.599 65.7706 123.872 66.1383C124.155 66.4992 124.589 66.719 125.176 66.7979C125.517 66.8437 125.84 66.8428 126.145 66.795C126.459 66.7403 126.765 66.6281 127.062 66.4582L127.368 67.5163C127.051 67.7079 126.686 67.8405 126.273 67.914C125.859 67.9876 125.431 67.9945 124.987 67.9348ZM130.89 68.7284C130.374 68.6591 129.907 68.5357 129.487 68.3581C129.076 68.1737 128.738 67.9508 128.475 67.6894L129.025 66.7463C129.299 66.993 129.611 67.1963 129.96 67.3563C130.31 67.5164 130.671 67.6214 131.044 67.6715C131.44 67.7248 131.743 67.6968 131.951 67.5876C132.168 67.4795 132.291 67.3105 132.322 67.0805C132.347 66.8982 132.302 66.7469 132.189 66.6268C132.085 66.4998 131.902 66.3904 131.64 66.2987L130.481 65.9129C129.989 65.7336 129.626 65.4911 129.393 65.1853C129.167 64.8806 129.084 64.5102 129.142 64.0741C129.192 63.7014 129.336 63.3857 129.572 63.1269C129.817 62.8692 130.136 62.6861 130.53 62.5776C130.933 62.4623 131.388 62.4387 131.896 62.5069C132.34 62.5666 132.748 62.682 133.12 62.8532C133.501 63.0254 133.81 63.2486 134.048 63.5227L133.49 64.4285C133.271 64.1972 133.01 64.0048 132.708 63.8511C132.406 63.6975 132.104 63.6004 131.803 63.5599C131.39 63.5045 131.079 63.5393 130.868 63.6644C130.659 63.7815 130.539 63.955 130.508 64.185C130.484 64.3594 130.52 64.5136 130.615 64.6474C130.719 64.7744 130.89 64.8822 131.129 64.9707L132.288 65.3565C132.805 65.531 133.181 65.7672 133.415 66.0651C133.659 66.3561 133.75 66.7236 133.691 67.1676C133.637 67.5641 133.485 67.8906 133.232 68.1473C132.98 68.4039 132.653 68.582 132.252 68.6815C131.851 68.781 131.397 68.7966 130.89 68.7284Z" fill="white"></path><g clip-path="url(#clip0_641_11873)"><path d="M74.1876 15.788C72.586 15.5726 71.1085 16.6998 70.8931 18.3013C70.6777 19.9029 71.7984 21.4288 73.3999 21.6442C75.0015 21.8596 76.4855 20.684 76.7009 19.0825C76.9163 17.4809 75.7891 16.0034 74.1876 15.788Z" fill="white"></path><path d="M89.7683 20.8398C89.9837 19.2382 88.8565 17.7607 87.255 17.5453C85.6534 17.3299 84.1759 18.4571 83.9605 20.0587C83.7451 21.6602 84.8658 23.1861 86.4673 23.4015C88.0689 23.6169 89.5529 22.4413 89.7683 20.8398Z" fill="white"></path><path d="M73.8483 38.1657C75.3474 39.8109 75.7097 40.2662 76.1102 40.7116C76.492 41.1361 77.0054 41.3921 77.5435 41.4644C78.0866 41.5375 78.6548 41.4234 79.136 41.1084C80.0152 40.5326 80.9744 39.8608 81.8324 39.2911C81.439 39.0973 81.0807 38.8242 80.8005 38.4566C80.0543 37.4797 79.9903 36.1432 80.6888 35.075C79.3139 34.0922 77.4772 33.8473 75.8906 34.433C76.2795 35.6461 75.8653 36.9167 74.8871 37.662C74.5698 37.9039 74.2161 38.071 73.8483 38.1657Z" fill="white"></path><path d="M78.7621 31.2344C79.564 31.3423 80.3014 30.7796 80.4093 29.9777C80.5171 29.1759 79.9545 28.4384 79.1526 28.3305C78.3507 28.2227 77.6133 28.7853 77.5054 29.5872C77.3976 30.3891 77.9602 31.1266 78.7621 31.2344Z" fill="white"></path><path d="M79.4695 25.9714C78.7164 24.0468 77.2093 22.2656 74.7761 21.9384C71.4299 21.4883 68.5419 23.8614 68.0582 27.4579C67.6309 30.6349 69.4784 33.255 72.4969 36.6612C72.9792 36.8799 73.5593 36.8313 73.999 36.4967C74.6737 35.9834 74.7555 35.0107 74.2239 34.379C71.4882 31.1282 70.7155 29.6826 70.914 28.2066L72.3659 28.4019C72.2429 29.3165 72.9795 30.593 75.1251 33.1686C77.3036 32.2553 79.8987 32.6069 81.7581 34.0608C84.5079 32.1436 85.5557 31.107 85.6787 30.1924L87.1306 30.3877C86.9321 31.8637 85.8049 33.0538 82.3075 35.4662C81.6317 35.9325 81.4474 36.8915 81.9643 37.5673C82.3882 38.1213 83.1428 38.2788 83.7666 37.983C87.8426 35.1632 89.6924 33.3226 90.0827 30.4201C90.5665 26.8235 88.4081 23.7717 85.0618 23.3217C82.6278 22.9944 80.7043 24.3142 79.4695 25.9714ZM81.8608 30.1732C81.6454 31.7748 80.1679 32.902 78.5664 32.6866C76.9648 32.4712 75.8377 30.9937 76.053 29.3921C76.2684 27.7906 77.7459 26.6634 79.3475 26.8788C80.949 27.0942 82.0762 28.5717 81.8608 30.1732Z" fill="white"></path></g><defs><linearGradient id="paint0_linear_641_11873" x1="143.146" y1="65.7584" x2="6.83711" y2="46.6797" gradientUnits="userSpaceOnUse"><stop stop-color="#0461A5"></stop><stop offset="1" stop-color="#0E7AC9"></stop></linearGradient><clipPath id="clip0_641_11873"><rect width="25" height="25" fill="white" transform="translate(68.3325 15.0005) rotate(7.66)"></rect></clipPath></defs></svg>