<svg xmlns="http://www.w3.org/2000/svg" width="189" height="70" viewBox="0 0 189 70" fill="none"><path d="M186.481 2.60474C187.21 1.89842 188.317 2.50305 187.978 3.4599C185.568 10.2636 178.168 25.3728 158.384 32.8799C157.991 33.0289 157.72 33.4063 157.72 33.8262V49.1653C157.72 54.6404 154.849 59.605 150.149 63.3255C147.371 65.5533 143.916 67.3287 140.031 68.4835C137.527 69.241 134.856 69.7277 132.045 69.9092C131.938 69.9315 131.785 69.9315 131.678 69.9315C131.417 69.9419 131.14 69.9658 130.863 69.9658C130.403 69.9881 129.912 70 129.435 70H28.3015C25.5374 70 22.8663 69.7053 20.3305 69.1621C19.4253 68.9583 18.5343 68.7321 17.6594 68.4731C7.31026 65.3836 0 57.8965 0 49.1653V22.5639C0 11.0498 12.6849 1.70695 28.3015 1.70695H129.435C142.428 1.70695 153.358 8.17754 156.675 16.9773C156.855 17.4545 157.346 17.7497 157.845 17.6427C165.53 15.9933 176.738 12.0438 186.481 2.60474Z" fill="url(#paint0_linear_641_12102)"></path><path d="M14.131 53.12C13.251 53.12 12.495 52.944 11.863 52.592C11.239 52.232 10.759 51.728 10.423 51.08C10.087 50.424 9.91899 49.652 9.91899 48.764C9.91899 47.876 10.087 47.108 10.423 46.46C10.759 45.812 11.239 45.312 11.863 44.96C12.495 44.6 13.251 44.42 14.131 44.42C14.723 44.42 15.255 44.504 15.727 44.672C16.207 44.84 16.619 45.088 16.963 45.416L16.459 46.64C16.083 46.336 15.719 46.12 15.367 45.992C15.023 45.856 14.627 45.788 14.179 45.788C13.323 45.788 12.667 46.048 12.211 46.568C11.763 47.08 11.539 47.812 11.539 48.764C11.539 49.716 11.763 50.452 12.211 50.972C12.667 51.492 13.323 51.752 14.179 51.752C14.627 51.752 15.023 51.688 15.367 51.56C15.719 51.424 16.083 51.2 16.459 50.888L16.963 52.112C16.619 52.432 16.207 52.68 15.727 52.856C15.255 53.032 14.723 53.12 14.131 53.12ZM20.5689 53.12C20.0409 53.12 19.5769 52.996 19.1769 52.748C18.7769 52.492 18.4649 52.128 18.2409 51.656C18.0169 51.184 17.9049 50.62 17.9049 49.964C17.9049 49.308 18.0169 48.748 18.2409 48.284C18.4649 47.812 18.7769 47.452 19.1769 47.204C19.5769 46.948 20.0409 46.82 20.5689 46.82C21.0809 46.82 21.5289 46.948 21.9129 47.204C22.3049 47.452 22.5649 47.788 22.6929 48.212H22.5609L22.6929 46.94H24.1329C24.1089 47.188 24.0849 47.44 24.0609 47.696C24.0449 47.952 24.0369 48.204 24.0369 48.452V53H22.5489L22.5369 51.752H22.6809C22.5529 52.168 22.2929 52.5 21.9009 52.748C21.5089 52.996 21.0649 53.12 20.5689 53.12ZM20.9889 51.968C21.4609 51.968 21.8409 51.804 22.1289 51.476C22.4169 51.14 22.5609 50.636 22.5609 49.964C22.5609 49.292 22.4169 48.792 22.1289 48.464C21.8409 48.136 21.4609 47.972 20.9889 47.972C20.5169 47.972 20.1369 48.136 19.8489 48.464C19.5609 48.792 19.4169 49.292 19.4169 49.964C19.4169 50.636 19.5569 51.14 19.8369 51.476C20.1249 51.804 20.5089 51.968 20.9889 51.968ZM25.8083 53V48.488C25.8083 48.232 25.8003 47.972 25.7843 47.708C25.7763 47.444 25.7563 47.188 25.7243 46.94H27.1763L27.3443 48.596H27.1043C27.1843 48.196 27.3163 47.864 27.5003 47.6C27.6923 47.336 27.9243 47.14 28.1963 47.012C28.4683 46.884 28.7643 46.82 29.0843 46.82C29.2283 46.82 29.3443 46.828 29.4323 46.844C29.5203 46.852 29.6083 46.872 29.6963 46.904L29.6843 48.224C29.5323 48.16 29.4003 48.12 29.2883 48.104C29.1843 48.088 29.0523 48.08 28.8923 48.08C28.5483 48.08 28.2563 48.152 28.0163 48.296C27.7843 48.44 27.6083 48.64 27.4883 48.896C27.3763 49.152 27.3203 49.444 27.3203 49.772V53H25.8083ZM36.5962 53L33.6082 44.54H35.2162L37.5202 51.476H37.0402L39.5242 44.54H40.6762L42.9802 51.476H42.5362L44.9482 44.54H46.4602L43.4482 53H42.1642L39.9322 46.496H40.1962L37.8802 53H36.5962ZM49.3525 53.12C48.8245 53.12 48.3605 52.996 47.9605 52.748C47.5605 52.492 47.2485 52.128 47.0245 51.656C46.8005 51.184 46.6885 50.62 46.6885 49.964C46.6885 49.308 46.8005 48.748 47.0245 48.284C47.2485 47.812 47.5605 47.452 47.9605 47.204C48.3605 46.948 48.8245 46.82 49.3525 46.82C49.8645 46.82 50.3125 46.948 50.6965 47.204C51.0885 47.452 51.3485 47.788 51.4765 48.212H51.3445L51.4765 46.94H52.9165C52.8925 47.188 52.8685 47.44 52.8445 47.696C52.8285 47.952 52.8205 48.204 52.8205 48.452V53H51.3325L51.3205 51.752H51.4645C51.3365 52.168 51.0765 52.5 50.6845 52.748C50.2925 52.996 49.8485 53.12 49.3525 53.12ZM49.7725 51.968C50.2445 51.968 50.6245 51.804 50.9125 51.476C51.2005 51.14 51.3445 50.636 51.3445 49.964C51.3445 49.292 51.2005 48.792 50.9125 48.464C50.6245 48.136 50.2445 47.972 49.7725 47.972C49.3005 47.972 48.9205 48.136 48.6325 48.464C48.3445 48.792 48.2005 49.292 48.2005 49.964C48.2005 50.636 48.3405 51.14 48.6205 51.476C48.9085 51.804 49.2925 51.968 49.7725 51.968ZM56.7639 53.12C56.2439 53.12 55.7639 53.06 55.3239 52.94C54.8919 52.812 54.5279 52.636 54.2319 52.412L54.6519 51.404C54.9559 51.612 55.2919 51.772 55.6599 51.884C56.0279 51.996 56.3999 52.052 56.7759 52.052C57.1759 52.052 57.4719 51.984 57.6639 51.848C57.8639 51.712 57.9639 51.528 57.9639 51.296C57.9639 51.112 57.8999 50.968 57.7719 50.864C57.6519 50.752 57.4559 50.668 57.1839 50.612L55.9839 50.384C55.4719 50.272 55.0799 50.08 54.8079 49.808C54.5439 49.536 54.4119 49.18 54.4119 48.74C54.4119 48.364 54.5119 48.032 54.7119 47.744C54.9199 47.456 55.2119 47.232 55.5879 47.072C55.9719 46.904 56.4199 46.82 56.9319 46.82C57.3799 46.82 57.7999 46.88 58.1919 47C58.5919 47.12 58.9279 47.3 59.1999 47.54L58.7679 48.512C58.5199 48.312 58.2359 48.156 57.9159 48.044C57.5959 47.932 57.2839 47.876 56.9799 47.876C56.5639 47.876 56.2599 47.952 56.0679 48.104C55.8759 48.248 55.7799 48.436 55.7799 48.668C55.7799 48.844 55.8359 48.992 55.9479 49.112C56.0679 49.224 56.2519 49.308 56.4999 49.364L57.6999 49.592C58.2359 49.696 58.6399 49.88 58.9119 50.144C59.1919 50.4 59.3319 50.752 59.3319 51.2C59.3319 51.6 59.2239 51.944 59.0079 52.232C58.7919 52.52 58.4919 52.74 58.1079 52.892C57.7239 53.044 57.2759 53.12 56.7639 53.12ZM60.7656 53V44.168H62.2656V48.152H62.0976C62.2816 47.72 62.5656 47.392 62.9496 47.168C63.3336 46.936 63.7736 46.82 64.2696 46.82C64.9896 46.82 65.5256 47.024 65.8776 47.432C66.2296 47.832 66.4056 48.444 66.4056 49.268V53H64.9056V49.34C64.9056 48.868 64.8136 48.528 64.6296 48.32C64.4536 48.104 64.1696 47.996 63.7776 47.996C63.3216 47.996 62.9536 48.14 62.6736 48.428C62.4016 48.708 62.2656 49.084 62.2656 49.556V53H60.7656ZM73.929 53.12C73.401 53.12 72.937 52.996 72.537 52.748C72.137 52.492 71.825 52.128 71.601 51.656C71.377 51.184 71.265 50.62 71.265 49.964C71.265 49.308 71.377 48.748 71.601 48.284C71.825 47.812 72.137 47.452 72.537 47.204C72.937 46.948 73.401 46.82 73.929 46.82C74.441 46.82 74.889 46.948 75.273 47.204C75.665 47.452 75.925 47.788 76.053 48.212H75.921L76.053 46.94H77.493C77.469 47.188 77.445 47.44 77.421 47.696C77.405 47.952 77.397 48.204 77.397 48.452V53H75.909L75.897 51.752H76.041C75.913 52.168 75.653 52.5 75.261 52.748C74.869 52.996 74.425 53.12 73.929 53.12ZM74.349 51.968C74.821 51.968 75.201 51.804 75.489 51.476C75.777 51.14 75.921 50.636 75.921 49.964C75.921 49.292 75.777 48.792 75.489 48.464C75.201 48.136 74.821 47.972 74.349 47.972C73.877 47.972 73.497 48.136 73.209 48.464C72.921 48.792 72.777 49.292 72.777 49.964C72.777 50.636 72.917 51.14 73.197 51.476C73.485 51.804 73.869 51.968 74.349 51.968ZM79.1805 53V48.452C79.1805 48.204 79.1725 47.952 79.1565 47.696C79.1405 47.44 79.1165 47.188 79.0845 46.94H80.5365L80.6565 48.14H80.5125C80.7045 47.716 80.9885 47.392 81.3645 47.168C81.7405 46.936 82.1765 46.82 82.6725 46.82C83.3845 46.82 83.9205 47.02 84.2805 47.42C84.6405 47.82 84.8205 48.444 84.8205 49.292V53H83.3205V49.364C83.3205 48.876 83.2245 48.528 83.0325 48.32C82.8485 48.104 82.5685 47.996 82.1925 47.996C81.7285 47.996 81.3605 48.14 81.0885 48.428C80.8165 48.716 80.6805 49.1 80.6805 49.58V53H79.1805ZM88.9129 53.12C88.3849 53.12 87.9169 52.996 87.5089 52.748C87.1089 52.492 86.7969 52.128 86.5729 51.656C86.3489 51.184 86.2369 50.62 86.2369 49.964C86.2369 49.308 86.3489 48.748 86.5729 48.284C86.7969 47.812 87.1089 47.452 87.5089 47.204C87.9169 46.948 88.3849 46.82 88.9129 46.82C89.4169 46.82 89.8609 46.944 90.2449 47.192C90.6369 47.432 90.8969 47.76 91.0249 48.176H90.8689V44.168H92.3689V53H90.8929V51.716H91.0369C90.9089 52.148 90.6489 52.492 90.2569 52.748C89.8729 52.996 89.4249 53.12 88.9129 53.12ZM89.3329 51.968C89.8049 51.968 90.1849 51.804 90.4729 51.476C90.7609 51.14 90.9049 50.636 90.9049 49.964C90.9049 49.292 90.7609 48.792 90.4729 48.464C90.1849 48.136 89.8049 47.972 89.3329 47.972C88.8609 47.972 88.4769 48.136 88.1809 48.464C87.8929 48.792 87.7489 49.292 87.7489 49.964C87.7489 50.636 87.8929 51.14 88.1809 51.476C88.4769 51.804 88.8609 51.968 89.3329 51.968ZM97.7153 53V44.54H100.787C101.755 44.54 102.571 44.708 103.235 45.044C103.907 45.372 104.415 45.852 104.759 46.484C105.103 47.108 105.275 47.868 105.275 48.764C105.275 49.652 105.103 50.412 104.759 51.044C104.415 51.676 103.907 52.16 103.235 52.496C102.571 52.832 101.755 53 100.787 53H97.7153ZM99.2633 51.716H100.691C101.715 51.716 102.475 51.472 102.971 50.984C103.467 50.496 103.715 49.756 103.715 48.764C103.715 47.764 103.467 47.024 102.971 46.544C102.475 46.056 101.715 45.812 100.691 45.812H99.2633V51.716ZM109.814 53.12C108.798 53.12 108.002 52.84 107.426 52.28C106.85 51.72 106.562 50.952 106.562 49.976C106.562 49.344 106.686 48.792 106.934 48.32C107.182 47.848 107.526 47.48 107.966 47.216C108.414 46.952 108.934 46.82 109.526 46.82C110.11 46.82 110.598 46.944 110.99 47.192C111.382 47.44 111.678 47.788 111.878 48.236C112.086 48.684 112.19 49.208 112.19 49.808V50.204H107.774V49.412H111.122L110.918 49.58C110.918 49.02 110.798 48.592 110.558 48.296C110.326 48 109.986 47.852 109.538 47.852C109.042 47.852 108.658 48.028 108.386 48.38C108.122 48.732 107.99 49.224 107.99 49.856V50.012C107.99 50.668 108.15 51.16 108.47 51.488C108.798 51.808 109.258 51.968 109.85 51.968C110.194 51.968 110.514 51.924 110.81 51.836C111.114 51.74 111.402 51.588 111.674 51.38L112.118 52.388C111.83 52.62 111.486 52.8 111.086 52.928C110.686 53.056 110.262 53.12 109.814 53.12ZM116.179 53.12C115.459 53.12 114.915 52.932 114.547 52.556C114.179 52.18 113.995 51.616 113.995 50.864V48.068H112.831V46.94H113.995V45.392L115.495 45.008V46.94H117.115V48.068H115.495V50.768C115.495 51.184 115.575 51.476 115.735 51.644C115.895 51.812 116.115 51.896 116.395 51.896C116.547 51.896 116.675 51.884 116.779 51.86C116.891 51.836 116.999 51.804 117.103 51.764V52.952C116.967 53.008 116.815 53.048 116.647 53.072C116.487 53.104 116.331 53.12 116.179 53.12ZM120.624 53.12C120.096 53.12 119.632 52.996 119.232 52.748C118.832 52.492 118.52 52.128 118.296 51.656C118.072 51.184 117.96 50.62 117.96 49.964C117.96 49.308 118.072 48.748 118.296 48.284C118.52 47.812 118.832 47.452 119.232 47.204C119.632 46.948 120.096 46.82 120.624 46.82C121.136 46.82 121.584 46.948 121.968 47.204C122.36 47.452 122.62 47.788 122.748 48.212H122.616L122.748 46.94H124.188C124.164 47.188 124.14 47.44 124.116 47.696C124.1 47.952 124.092 48.204 124.092 48.452V53H122.604L122.592 51.752H122.736C122.608 52.168 122.348 52.5 121.956 52.748C121.564 52.996 121.12 53.12 120.624 53.12ZM121.044 51.968C121.516 51.968 121.896 51.804 122.184 51.476C122.472 51.14 122.616 50.636 122.616 49.964C122.616 49.292 122.472 48.792 122.184 48.464C121.896 48.136 121.516 47.972 121.044 47.972C120.572 47.972 120.192 48.136 119.904 48.464C119.616 48.792 119.472 49.292 119.472 49.964C119.472 50.636 119.612 51.14 119.892 51.476C120.18 51.804 120.564 51.968 121.044 51.968ZM125.875 53V46.94H127.375V53H125.875ZM125.791 45.8V44.336H127.459V45.8H125.791ZM129.154 53V44.168H130.654V53H129.154ZM132.433 53V46.94H133.933V53H132.433ZM132.349 45.8V44.336H134.017V45.8H132.349ZM135.712 53V48.452C135.712 48.204 135.704 47.952 135.688 47.696C135.672 47.44 135.648 47.188 135.616 46.94H137.068L137.188 48.14H137.044C137.236 47.716 137.52 47.392 137.896 47.168C138.272 46.936 138.708 46.82 139.204 46.82C139.916 46.82 140.452 47.02 140.812 47.42C141.172 47.82 141.352 48.444 141.352 49.292V53H139.852V49.364C139.852 48.876 139.756 48.528 139.564 48.32C139.38 48.104 139.1 47.996 138.724 47.996C138.26 47.996 137.892 48.14 137.62 48.428C137.348 48.716 137.212 49.1 137.212 49.58V53H135.712ZM145.9 55.688C145.34 55.688 144.832 55.628 144.376 55.508C143.928 55.388 143.528 55.204 143.176 54.956L143.5 53.876C143.732 54.028 143.972 54.152 144.22 54.248C144.468 54.344 144.724 54.416 144.988 54.464C145.252 54.512 145.52 54.536 145.792 54.536C146.352 54.536 146.768 54.396 147.04 54.116C147.32 53.844 147.46 53.452 147.46 52.94V51.488H147.58C147.452 51.904 147.192 52.236 146.8 52.484C146.416 52.732 145.972 52.856 145.468 52.856C144.924 52.856 144.448 52.736 144.04 52.496C143.64 52.248 143.328 51.896 143.104 51.44C142.88 50.984 142.768 50.448 142.768 49.832C142.768 49.216 142.88 48.684 143.104 48.236C143.328 47.78 143.64 47.432 144.04 47.192C144.448 46.944 144.924 46.82 145.468 46.82C145.98 46.82 146.424 46.944 146.8 47.192C147.184 47.432 147.44 47.76 147.568 48.176L147.46 48.104L147.58 46.94H149.032C149 47.188 148.976 47.44 148.96 47.696C148.944 47.952 148.936 48.204 148.936 48.452V52.76C148.936 53.712 148.676 54.436 148.156 54.932C147.644 55.436 146.892 55.688 145.9 55.688ZM145.876 51.704C146.356 51.704 146.736 51.544 147.016 51.224C147.304 50.896 147.448 50.432 147.448 49.832C147.448 49.232 147.304 48.772 147.016 48.452C146.736 48.132 146.356 47.972 145.876 47.972C145.388 47.972 145 48.132 144.712 48.452C144.424 48.772 144.28 49.232 144.28 49.832C144.28 50.432 144.424 50.896 144.712 51.224C145 51.544 145.388 51.704 145.876 51.704Z" fill="white"></path><g clip-path="url(#clip0_641_12102)"><path d="M88.5627 25.7458H91.8405V21.4137H86.9959C87.2855 21.7633 87.5467 22.2116 87.6626 22.655C87.9093 23.4518 87.4776 24.3144 86.698 24.5797C85.9017 24.8508 85.0319 24.4153 84.7719 23.5864C84.5765 22.963 84.9763 22.7129 83.9607 22.3478C83.5684 22.2063 83.3084 21.8488 83.2647 21.454C83.2453 21.2788 83.2671 21.1029 83.3379 20.9312C83.2675 20.9484 82.5747 21.0816 82.45 21.085L82.3228 21.7952C81.4838 22.2835 80.9194 23.1918 80.9194 24.2326V30.0135C80.9194 30.5962 81.3918 31.0686 81.9745 31.0686H82.616V32.9482C82.616 34.0813 83.5346 34.9998 84.6676 34.9998C85.8007 34.9998 86.7192 34.0813 86.7192 32.9482V31.0686H88.4936V31.9566C88.4936 32.2547 88.7353 32.4965 89.0334 32.4965H91.8405V29.6037V29.6025H89.6221C89.2604 29.6025 88.9672 29.3093 88.9672 28.9476C88.9672 28.5859 89.2604 28.2927 89.6221 28.2927H91.8405V27.0556H88.5627C88.2011 27.0556 87.9079 26.7624 87.9079 26.4007C87.9079 26.039 88.2011 25.7458 88.5627 25.7458ZM84.6144 28.1766C83.692 28.1766 82.7763 27.3993 82.7763 26.3169C82.7763 25.2977 83.6025 24.4714 84.6217 24.4714C85.641 24.4714 86.4672 25.2977 86.4672 26.3169C86.4672 27.3756 85.5812 28.1766 84.6144 28.1766Z" fill="white"></path><path d="M86.6145 13.6826H84.5014C84.0811 13.6826 83.7211 13.9838 83.647 14.3976L83.5435 14.976C84.0682 15.0937 84.4981 15.4861 84.6617 16.027C84.7946 16.4663 84.7507 17.2895 84.3219 18.1211C84.4075 18.0718 84.509 18.0217 84.7994 17.8119L85.2278 15.4185H86.4773C86.6243 14.8402 86.6659 14.2354 86.6145 13.6826Z" fill="white"></path><path d="M89.5487 13.6826C89.538 14.3684 89.4637 14.8813 89.3438 15.4186H89.82C89.82 15.5803 89.821 15.9863 89.821 16.1266C89.821 16.4122 90.0525 16.6436 90.338 16.6436H91.8406V15.0954V13.6826H89.5487Z" fill="white"></path><path d="M71.7815 28.2764L71.7286 27.832C70.926 27.9144 70.077 27.8488 69.2977 27.6182L69.374 28.259L67.3545 33.3661C67.112 33.9795 67.4126 34.6733 68.026 34.9159C68.6395 35.1584 69.3332 34.8577 69.5757 34.2444L71.7062 28.8567C71.779 28.6725 71.8049 28.4731 71.7815 28.2764Z" fill="white"></path><path d="M74.9999 27.7194L74.853 26.5474C74.1721 27.0928 73.4139 27.4727 72.5879 27.681L72.6056 27.8221L71.4377 33.5677C71.3064 34.214 71.7238 34.8445 72.3703 34.9759C73.0163 35.1072 73.6471 34.69 73.7785 34.0434L74.9852 28.1058C75.0111 27.9787 75.016 27.8482 74.9999 27.7194Z" fill="white"></path><path d="M81.1833 20.2958C81.0887 19.9752 80.752 19.7922 80.4316 19.8867L78.2739 20.5235C78.4776 20.8695 78.5829 21.2777 78.5568 21.7019L78.8462 21.6164L78.6751 22.2748C78.5911 22.5982 78.7851 22.9286 79.1086 23.0126C79.4317 23.0967 79.7623 22.9028 79.8464 22.5792L80.2005 21.2167L80.774 21.0475C81.0947 20.9528 81.2779 20.6163 81.1833 20.2958Z" fill="white"></path><path d="M71.6565 14.4236C72.829 14.4236 73.7794 13.4334 73.7794 12.2118C73.7794 10.9903 72.829 10 71.6565 10C70.4841 10 69.5337 10.9903 69.5337 12.2118C69.5337 13.4334 70.4841 14.4236 71.6565 14.4236Z" fill="white"></path><path d="M74.6841 23.332C74.595 23.4864 74.4961 23.6436 74.3863 23.7994C73.4842 25.0809 72.2946 25.6958 70.8496 25.6273C69.4833 25.5624 68.6917 24.9026 68.2337 24.1285C68.1954 24.0638 68.1327 24.0173 68.0597 23.9996C67.9867 23.9818 67.9095 23.9942 67.8458 24.0341L67.2904 24.382C67.1626 24.4621 67.1218 24.629 67.198 24.759C67.918 25.9876 69.11 26.7562 70.7921 26.8362C72.6741 26.9253 74.2636 26.0963 75.3999 24.4618C75.6169 24.1496 75.7971 23.8363 75.9456 23.5426L74.6841 23.332Z" fill="white"></path><path d="M76.7217 20.5201L73.2232 19.9362L71.6433 16.3246L73.7593 19.0352L74.3578 19.135V16.5801C74.3578 15.7549 73.7158 15.0859 72.9238 15.0859H70.3665C69.5745 15.0859 68.9443 15.7549 68.9443 16.5801V23.2631C69.3045 24.1442 69.9069 24.5582 70.8977 24.6053C72.0445 24.6598 72.943 24.0953 73.595 23.1504C72.0729 22.8964 72.1605 22.9125 72.0758 22.893C71.2116 22.6932 70.7112 21.9634 70.6274 21.5261L69.8168 17.296L71.587 21.3422C71.7022 21.6057 71.9143 21.8072 72.1724 21.9039C72.301 21.9521 71.9954 21.893 76.3977 22.6277C76.9563 22.7211 77.4816 22.3244 77.571 21.7428C77.6599 21.1643 77.2834 20.6138 76.7217 20.5201Z" fill="white"></path><path d="M88.5439 12.4836C88.4574 12.1534 88.1303 11.9587 87.8132 12.0489C87.5075 12.1359 87.3062 12.4658 87.3973 12.8149C87.5777 13.503 87.6083 14.535 87.4209 15.3995C87.2662 16.029 87.1844 16.3195 86.7877 17.002C86.5717 17.3876 86.0737 17.9391 85.9391 18.0524C84.9019 19.0285 83.6947 19.487 82.3888 19.8528C82.296 19.8787 82.2547 19.9616 82.2681 20.0398C82.283 20.1275 82.3633 20.1867 82.4483 20.171C83.847 19.912 85.1464 19.5504 86.3669 18.5871C86.5254 18.4742 87.1332 17.9157 87.4354 17.4752C87.7536 17.0248 88.0272 16.5912 88.3364 15.6592C88.7353 14.3558 88.6617 12.9347 88.5439 12.4836Z" fill="white"></path><path d="M83.7877 16.2912C83.6876 15.9603 83.3489 15.7765 83.0312 15.8808C82.7298 15.9797 82.5278 16.3162 82.6445 16.6924C82.6734 16.7257 82.701 16.9117 82.7043 16.957C82.7473 17.2506 82.672 17.5415 82.5586 17.7907C82.3584 18.2028 82.0932 18.4026 81.7979 18.6236C81.7477 18.6615 81.7234 18.7296 81.7422 18.7949C81.7658 18.8774 81.8492 18.9243 81.9285 18.8996C82.2459 18.8005 82.5433 18.7246 83.0061 18.3444C83.0604 18.291 83.2892 18.074 83.4054 17.8778C83.7772 17.2884 83.8739 16.5764 83.7877 16.2912Z" fill="white"></path><path d="M86.7841 22.9054C86.6209 22.279 86.1538 21.7519 85.6361 21.4633C85.0913 21.1792 84.6766 21.1853 84.3192 21.1856C84.2572 21.1857 84.1991 21.2262 84.1777 21.2907C84.1507 21.3722 84.1922 21.461 84.2703 21.4892L84.2871 21.4952C84.597 21.6069 84.9133 21.7137 85.2285 22.0589C85.4924 22.3635 85.6292 22.7013 85.6193 23.0721C85.6185 23.0766 85.6165 23.0795 85.6139 23.0852C85.6035 23.5606 86.0237 23.8451 86.4038 23.7157C86.6931 23.6172 86.902 23.2917 86.7841 22.9054Z" fill="white"></path></g><defs><linearGradient id="paint0_linear_641_12102" x1="189" y1="34" x2="0.0616325" y2="32.0446" gradientUnits="userSpaceOnUse"><stop stop-color="#0461A5"></stop><stop offset="1" stop-color="#0E7AC9"></stop></linearGradient><clipPath id="clip0_641_12102"><rect width="25" height="25" fill="white" transform="translate(67 10)"></rect></clipPath></defs></svg>