<svg xmlns="http://www.w3.org/2000/svg" width="50" height="51" viewBox="0 0 50 51" fill="none"><path d="M49.8269 21.6293C49.5723 21.153 49.0759 20.8554 48.5351 20.8554H46.6296C44.5725 10.7488 35.533 3.2771 25.0973 3.2771C17.5355 3.2771 10.5975 7.09227 6.53769 13.4839C6.09383 14.1828 6.3164 15.1039 7.01982 15.5253L12.0524 18.5451C12.7304 18.9542 13.6046 18.7468 14.0351 18.0873C16.4842 14.3165 20.6199 12.0662 25.0973 12.0662C30.7222 12.0662 35.6904 15.6697 37.5286 20.8554H36.8162C36.2755 20.8554 35.7791 21.153 35.5244 21.6293C35.2697 22.1057 35.297 22.6836 35.5973 23.1329L41.4568 31.922C41.7286 32.3297 42.1864 32.5744 42.6755 32.5744C43.1647 32.5744 43.6225 32.3297 43.8943 31.922L49.7537 23.1329C50.053 22.6835 50.0816 22.1056 49.8269 21.6293Z" fill="url(#paint0_linear_616_6359)"></path><path d="M42.5149 36.0661L37.9916 32.2967C37.3177 31.7376 36.3198 31.89 35.8386 32.6028C33.3752 36.2535 29.2868 38.4336 24.9023 38.4336C19.2775 38.4336 14.3092 34.8302 12.471 29.6445H13.1835C13.7242 29.6445 14.2206 29.3469 14.4753 28.8706C14.73 28.3942 14.7027 27.8163 14.4023 27.367L8.54288 18.5779C7.99932 17.7624 6.64882 17.7624 6.10526 18.5779L0.245824 27.367C-0.0532022 27.8163 -0.0817181 28.3942 0.172874 28.8706C0.427467 29.3469 0.923858 29.6445 1.46468 29.6445H3.37017C5.42722 39.7511 14.4668 47.2228 24.9024 47.2228C31.9663 47.2228 38.6455 43.7924 42.7668 38.0459C43.2144 37.4222 43.1042 36.5582 42.5149 36.0661Z" fill="url(#paint1_linear_616_6359)"></path><defs><linearGradient id="paint0_linear_616_6359" x1="28.1542" y1="32.5743" x2="28.1542" y2="3.2771" gradientUnits="userSpaceOnUse"><stop stop-color="#ADDCFF"></stop><stop offset="0.5028" stop-color="#EAF6FF"></stop><stop offset="1" stop-color="#EAF6FF"></stop></linearGradient><linearGradient id="paint1_linear_616_6359" x1="21.988" y1="47.2228" x2="23.9964" y2="18.1048" gradientUnits="userSpaceOnUse"><stop stop-color="#429AEC"></stop><stop offset="1" stop-color="#1589DE"></stop></linearGradient></defs></svg>