<svg xmlns="http://www.w3.org/2000/svg" width="60" height="61" viewBox="0 0 60 61" fill="none"><path d="M46.919 40.5119L45.4893 49.0904C45.0937 51.4639 43.0601 53.1866 40.654 53.1866H23.0892C22.074 53.1866 21.251 52.3635 21.251 51.3483V36.6423C21.251 35.6189 22.0873 34.7908 23.1137 34.8041C24.7961 34.8261 26.153 33.4229 26.153 31.7403V29.2893C26.153 26.9204 28.0734 25 30.4422 25C33.1495 25 35.3443 27.1948 35.3443 29.902V34.804H42.0049C43.2611 34.804 44.4885 35.2502 45.4097 36.1043C46.6358 37.2409 47.1891 38.8922 46.919 40.5119Z" fill="url(#paint0_linear_938_1234)"></path><path d="M15.7367 34.804C14.7215 34.804 13.8984 35.627 13.8984 36.6422V51.3482C13.8984 52.3634 14.7215 53.1865 15.7367 53.1865H23.0897V34.804H15.7367Z" fill="url(#paint1_linear_938_1234)"></path><path d="M11.2457 28.6048L8.55723 28.2142L7.35493 25.7781C7.1651 25.3934 6.77343 25.1499 6.34449 25.1499C5.91556 25.1499 5.52388 25.3934 5.33405 25.778L4.13175 28.2141L1.44327 28.6048C1.01885 28.6664 0.666156 28.9638 0.533719 29.3717C0.401132 29.7796 0.511709 30.2274 0.818875 30.5267L2.76419 32.423L2.30498 35.1005C2.23249 35.5232 2.40632 35.9505 2.7533 36.2026C3.1002 36.4547 3.56016 36.488 3.93997 36.2884L6.34457 35.0242L8.74916 36.2884C8.91405 36.3751 9.09404 36.4179 9.27343 36.4179C9.50705 36.4179 9.73962 36.3453 9.93584 36.2026C10.2828 35.9505 10.4566 35.5233 10.3842 35.1005L9.92494 32.423L11.8703 30.5267C12.1774 30.2274 12.288 29.7796 12.1554 29.3717C12.0228 28.9638 11.6702 28.6665 11.2457 28.6048Z" fill="url(#paint2_linear_938_1234)"></path><path d="M20.8453 17.805L18.1568 17.4144L16.9545 14.9783C16.7647 14.5936 16.373 14.3501 15.9441 14.3501C15.5152 14.3501 15.1235 14.5936 14.9337 14.9782L13.7314 17.4143L11.0429 17.8049C10.6185 17.8666 10.2658 18.1639 10.1333 18.5719C10.0007 18.9798 10.1113 19.4275 10.4185 19.7269L12.3638 21.6232L11.9046 24.3007C11.8321 24.7234 12.0059 25.1507 12.3529 25.4028C12.6998 25.6549 13.1598 25.6882 13.5396 25.4886L15.9442 24.2244L18.3488 25.4886C18.5137 25.5753 18.6937 25.618 18.873 25.618C19.1067 25.618 19.3392 25.5455 19.5354 25.4028C19.8824 25.1507 20.0563 24.7235 19.9838 24.3007L19.5246 21.6232L21.4699 19.7269C21.777 19.4275 21.8876 18.9798 21.755 18.5719C21.6224 18.164 21.2698 17.8667 20.8453 17.805Z" fill="url(#paint3_linear_938_1234)"></path><path d="M34.0455 11.805L31.357 11.4144L30.1547 8.97825C29.9649 8.59364 29.5732 8.3501 29.1443 8.3501C28.7154 8.3501 28.3237 8.59364 28.1339 8.97818L26.9316 11.4143L24.2431 11.8049C23.8187 11.8666 23.466 12.1639 23.3335 12.5719C23.2009 12.9798 23.3115 13.4275 23.6187 13.7269L25.564 15.6232L25.1048 18.3007C25.0323 18.7234 25.2061 19.1507 25.5531 19.4028C25.9 19.6549 26.36 19.6882 26.7398 19.4886L29.1444 18.2244L31.549 19.4886C31.7139 19.5753 31.8938 19.618 32.0732 19.618C32.3069 19.618 32.5394 19.5455 32.7356 19.4028C33.0826 19.1507 33.2564 18.7235 33.184 18.3007L32.7247 15.6232L34.6701 13.7269C34.9772 13.4275 35.0878 12.9798 34.9552 12.5719C34.8226 12.164 34.47 11.8667 34.0455 11.805Z" fill="url(#paint4_linear_938_1234)"></path><path d="M48.4449 17.805L45.7564 17.4144L44.5542 14.9783C44.3643 14.5936 43.9726 14.3501 43.5437 14.3501C43.1148 14.3501 42.7231 14.5936 42.5333 14.9782L41.331 17.4143L38.6425 17.8049C38.2181 17.8666 37.8654 18.1639 37.7329 18.5719C37.6004 18.9798 37.7109 19.4275 38.0181 19.7269L39.9634 21.6232L39.5042 24.3007C39.4317 24.7234 39.6055 25.1507 39.9525 25.4028C40.2994 25.6549 40.7594 25.6882 41.1392 25.4886L43.5438 24.2244L45.9484 25.4886C46.1133 25.5753 46.2933 25.618 46.4726 25.618C46.7063 25.618 46.9388 25.5455 47.1351 25.4028C47.482 25.1507 47.6559 24.7235 47.5834 24.3007L47.1242 21.6232L49.0695 19.7269C49.3766 19.4275 49.4872 18.9798 49.3546 18.5719C49.222 18.164 48.8694 17.8667 48.4449 17.805Z" fill="url(#paint5_linear_938_1234)"></path><path d="M58.0455 28.6048L55.357 28.2142L54.1547 25.7781C53.9649 25.3934 53.5732 25.1499 53.1443 25.1499C52.7154 25.1499 52.3237 25.3934 52.1339 25.778L50.9316 28.2141L48.2431 28.6048C47.8187 28.6664 47.466 28.9638 47.3335 29.3717C47.2009 29.7796 47.3115 30.2274 47.6187 30.5267L49.564 32.423L49.1048 35.1005C49.0323 35.5232 49.2061 35.9505 49.5531 36.2026C49.9 36.4547 50.36 36.488 50.7398 36.2884L53.1444 35.0242L55.549 36.2884C55.7139 36.3751 55.8938 36.4179 56.0732 36.4179C56.3069 36.4179 56.5394 36.3453 56.7356 36.2026C57.0826 35.9505 57.2564 35.5233 57.184 35.1005L56.7247 32.423L58.6701 30.5267C58.9772 30.2274 59.0878 29.7796 58.9552 29.3717C58.8226 28.9638 58.47 28.6665 58.0455 28.6048Z" fill="url(#paint6_linear_938_1234)"></path><defs><linearGradient id="paint0_linear_938_1234" x1="34.1186" y1="53.1866" x2="34.1186" y2="25" gradientUnits="userSpaceOnUse"><stop stop-color="#ADDCFF"></stop><stop offset="0.5028" stop-color="#EAF6FF"></stop><stop offset="1" stop-color="#EAF6FF"></stop></linearGradient><linearGradient id="paint1_linear_938_1234" x1="18.5938" y1="53.1865" x2="22.177" y2="35.5312" gradientUnits="userSpaceOnUse"><stop stop-color="#429AEC"></stop><stop offset="1" stop-color="#1589DE"></stop></linearGradient><linearGradient id="paint2_linear_938_1234" x1="6.47191" y1="36.4179" x2="7.55977" y2="25.2559" gradientUnits="userSpaceOnUse"><stop stop-color="#429AEC"></stop><stop offset="1" stop-color="#1589DE"></stop></linearGradient><linearGradient id="paint3_linear_938_1234" x1="16.0715" y1="25.6181" x2="17.1594" y2="14.4561" gradientUnits="userSpaceOnUse"><stop stop-color="#429AEC"></stop><stop offset="1" stop-color="#1589DE"></stop></linearGradient><linearGradient id="paint4_linear_938_1234" x1="29.2717" y1="19.6181" x2="30.3596" y2="8.45612" gradientUnits="userSpaceOnUse"><stop stop-color="#429AEC"></stop><stop offset="1" stop-color="#1589DE"></stop></linearGradient><linearGradient id="paint5_linear_938_1234" x1="43.6711" y1="25.6181" x2="44.759" y2="14.4561" gradientUnits="userSpaceOnUse"><stop stop-color="#429AEC"></stop><stop offset="1" stop-color="#1589DE"></stop></linearGradient><linearGradient id="paint6_linear_938_1234" x1="53.2717" y1="36.4179" x2="54.3596" y2="25.2559" gradientUnits="userSpaceOnUse"><stop stop-color="#429AEC"></stop><stop offset="1" stop-color="#1589DE"></stop></linearGradient></defs></svg>