<svg xmlns="http://www.w3.org/2000/svg" width="1114" height="444" viewBox="0 0 1114 444" fill="none"><g clip-path="url(#clip0_616_1904)"><path d="M-0.108398 22.6775C-0.108398 11.6318 8.84591 2.67749 19.8916 2.67749L870.45 2.67749C885.337 2.67749 895.006 18.3613 888.318 31.6619L687.195 431.662C683.8 438.415 676.886 442.677 669.327 442.677H19.8916C8.8459 442.677 -0.108398 433.723 -0.108398 422.677V22.6775Z" fill="url(#paint0_linear_616_1904)"></path><path d="M171.609 109.657C38.3901 103.449 11.3011 181.345 -31.8228 163.354C-33.7656 77.3588 -57.9299 -91.8033 -54.6704 -96.9855C-51.4108 -102.168 412.731 -92.2739 670.761 -91.8351L671.317 -7.98054C616.762 43.9864 660.282 57.6049 462.182 55.0184C322.233 53.1912 320.727 116.605 171.609 109.657Z" fill="white" fill-opacity="0.04"></path><path d="M218.585 126.156C71.271 119.292 41.3159 205.43 -6.37058 185.536C-8.51897 90.4414 -35.24 -96.6188 -31.6355 -102.349C-28.031 -108.08 485.218 -97.1392 770.549 -96.6539L771.164 -3.9272C710.837 53.538 758.962 68.5974 539.902 65.7373C385.145 63.7167 383.481 133.84 218.585 126.156Z" fill="white" fill-opacity="0.04"></path><path d="M752.797 413.123C886.016 419.33 913.105 341.435 956.229 359.425C958.172 445.421 982.336 614.583 979.077 619.765C975.817 624.947 511.676 615.054 253.646 614.615L253.09 530.76C307.644 478.793 264.124 465.175 462.224 467.761C602.174 469.589 603.679 406.175 752.797 413.123Z" fill="white" fill-opacity="0.04"></path><path d="M705.821 396.623C853.135 403.487 883.09 317.35 930.777 337.244C932.925 432.338 959.646 619.399 956.042 625.129C952.437 630.859 439.188 619.919 153.858 619.434L153.243 526.707C213.569 469.242 165.445 454.182 384.504 457.042C539.261 459.063 540.926 388.94 705.821 396.623Z" fill="white" fill-opacity="0.04"></path></g><defs><linearGradient id="paint0_linear_616_1904" x1="48.6384" y1="450.041" x2="692.346" y2="-347.084" gradientUnits="userSpaceOnUse"><stop stop-color="#006EBE"></stop><stop offset="1" stop-color="#05497A"></stop></linearGradient><clipPath id="clip0_616_1904"><rect width="1114" height="444" fill="white"></rect></clipPath></defs></svg>