<svg xmlns="http://www.w3.org/2000/svg" width="50" height="51" viewBox="0 0 50 51" fill="none"><path d="M25 12.0664C17.7302 12.0664 11.8164 17.9801 11.8164 25.25C11.8164 32.5198 17.7302 38.4335 25 38.4335C32.2698 38.4335 38.1836 32.5198 38.1836 25.25C38.1836 17.9801 32.2698 12.0664 25 12.0664ZM49.9889 21.8567C48.5755 10.5556 39.6949 1.67505 28.3938 0.258841C27.9618 0.214505 27.5556 0.337552 27.2408 0.613626C26.9261 0.892533 26.7459 1.29165 26.7459 1.71226V7.63462C26.7459 8.34986 27.2638 8.9607 27.9676 9.07945C34.7253 10.2168 40.0325 15.5225 41.1712 22.2816C41.2913 22.9869 41.9008 23.5033 42.616 23.5033H48.5354C48.9561 23.5033 49.3566 23.323 49.6341 23.0084C49.9116 22.692 50.0403 22.2729 49.9889 21.8567Z" fill="url(#paint0_linear_616_6370)"></path><path d="M25 26.7149H30.8594C31.669 26.7149 32.3242 26.0597 32.3242 25.2501C32.3242 24.4404 31.669 23.7852 30.8594 23.7852H26.4648V19.3907C26.4648 18.581 25.8097 17.9258 25 17.9258C24.1903 17.9258 23.5352 18.581 23.5352 19.3907V25.2501C23.5352 26.0597 24.1903 26.7149 25 26.7149ZM49.634 27.3075C49.3565 26.9927 48.956 26.8126 48.5354 26.8126H42.6159C41.9007 26.8126 41.2913 27.329 41.1711 28.0342C39.8608 35.8148 33.1775 41.461 25.2811 41.461C21.9137 41.461 18.6864 40.4295 15.9513 38.4784C15.3705 38.065 14.5694 38.1279 14.0658 38.6357L9.88018 42.82C9.58262 43.1161 9.42812 43.5266 9.45391 43.9472C9.47969 44.3664 9.68565 44.7541 10.0175 45.0115C14.4235 48.439 19.702 50.2501 25.2811 50.2501C37.8123 50.2501 48.4353 40.8816 49.9889 28.459C50.0403 28.0428 49.9116 27.6237 49.634 27.3075ZM11.7731 34.2994C9.82187 31.5585 8.78906 28.3327 8.78906 24.9681C8.78906 17.0717 14.4367 10.3883 22.2158 9.07945C22.9196 8.9607 23.4375 8.34986 23.4375 7.63462V1.71226C23.4375 1.29165 23.2572 0.892533 22.9426 0.613626C22.6278 0.337552 22.2302 0.214505 21.7896 0.258841C9.36699 1.81529 0 12.4369 0 24.9681C0 30.5457 1.81104 35.8243 5.23857 40.2317C5.49609 40.5635 5.88232 40.7696 6.30283 40.7953C6.76484 40.8163 7.15283 40.6476 7.43008 40.369L11.6157 36.1847C12.1222 35.6798 12.188 34.8816 11.7731 34.2994Z" fill="url(#paint1_linear_616_6370)"></path><defs><linearGradient id="paint0_linear_616_6370" x1="31.3227" y1="38.4336" x2="35.1579" y2="0.639181" gradientUnits="userSpaceOnUse"><stop stop-color="#429AEC"></stop><stop offset="1" stop-color="#1589DE"></stop></linearGradient><linearGradient id="paint1_linear_616_6370" x1="25" y1="50.2501" x2="25" y2="0.25" gradientUnits="userSpaceOnUse"><stop stop-color="#ADDCFF"></stop><stop offset="0.5028" stop-color="#EAF6FF"></stop><stop offset="1" stop-color="#EAF6FF"></stop></linearGradient></defs></svg>