<svg xmlns="http://www.w3.org/2000/svg" width="1024" height="350" viewBox="0 0 1024 350" fill="none"><path d="M0 20C0 8.9543 8.95431 0 20 0L1004 0C1015.05 0 1024 8.95431 1024 20V330C1024 341.046 1015.05 350 1004 350H20C8.95431 350 0 341.046 0 330V20Z" fill="#E4F5FF"></path><g clip-path="url(#clip0_1107_878)"><path d="M-188 -44.5385C-188 -55.5842 -179.046 -64.5385 -168 -64.5385L1192 -64.5385C1203.05 -64.5385 1212 -55.5842 1212 -44.5385V395.462C1212 406.507 1203.05 415.462 1192 415.462H-168C-179.046 415.462 -188 406.507 -188 395.462V-44.5385Z" fill="url(#paint0_linear_1107_878)"></path><path d="M184.606 124.349C49.0376 118.032 21.4708 197.302 -22.4137 178.994C-24.3908 91.4812 -48.9813 -80.6646 -45.6642 -85.9382C-42.3471 -91.2117 429.981 -81.1436 692.562 -80.697L693.128 4.63662C637.611 57.5201 681.899 71.3789 480.305 68.7468C337.886 66.8873 336.355 131.419 184.606 124.349Z" fill="white" fill-opacity="0.04"></path><path d="M232.41 141.14C82.4978 134.155 52.0143 221.811 3.48671 201.566C1.30043 104.795 -25.8919 -85.5648 -22.2238 -91.3963C-18.5558 -97.2278 503.746 -86.0944 794.109 -85.6005L794.735 8.76164C733.344 67.2404 782.318 82.5655 559.394 79.6549C401.908 77.5986 400.214 148.958 232.41 141.14Z" fill="white" fill-opacity="0.04"></path><path d="M1044.04 350.639C1219.44 358.812 1255.11 256.25 1311.89 279.938C1314.45 393.164 1346.26 615.892 1341.97 622.715C1337.68 629.538 726.569 616.512 386.833 615.934L386.101 505.527C457.93 437.104 400.629 419.173 661.458 422.579C845.723 424.985 847.705 341.491 1044.04 350.639Z" fill="white" fill-opacity="0.04"></path><path d="M982.191 328.915C1176.15 337.952 1215.59 224.539 1278.38 250.733C1281.21 375.939 1316.39 622.232 1311.64 629.777C1306.9 637.322 631.128 622.917 255.447 622.278L254.637 500.19C334.066 424.528 270.703 404.7 559.128 408.466C762.889 411.126 765.081 318.799 982.191 328.915Z" fill="white" fill-opacity="0.04"></path></g><defs><linearGradient id="paint0_linear_1107_878" x1="-112.424" y1="423.495" x2="504.669" y2="-662.53" gradientUnits="userSpaceOnUse"><stop stop-color="#006EBE"></stop><stop offset="1" stop-color="#05497A"></stop></linearGradient><clipPath id="clip0_1107_878"><rect x="20" y="13.4615" width="984" height="323.077" rx="20" fill="white"></rect></clipPath></defs></svg>