<svg xmlns="http://www.w3.org/2000/svg" width="129" height="113" viewBox="0 0 129 113" fill="none"><path d="M125.455 36.8483C125.455 36.8481 125.456 36.8483 125.456 36.8487L121.907 63.2465C120.707 72.1765 114.016 79.0322 105.69 80.8487C103.376 81.3493 100.936 81.4709 98.4586 81.1378L50.7734 74.7276C50.3441 74.6699 49.9278 74.8957 49.7356 75.2838C49.6156 75.5262 49.4944 75.765 49.3704 76.0001C47.6315 79.3635 45.64 82.2916 43.5352 84.8437C42.6985 85.8677 41.8449 86.8277 40.976 87.7226C35.4242 93.5235 29.579 96.9253 26.0985 98.619C25.1996 99.0564 24.4429 98.0587 25.0312 97.2505C28.4963 92.4899 31.0685 87.8173 32.9601 83.4236C34.425 80.0518 35.482 76.843 36.2592 73.8942C36.4108 73.319 36.0197 72.7458 35.4301 72.6665L24.5493 71.2038C21.1149 70.7421 17.989 69.4726 15.3417 67.606C9.18002 63.2677 5.58437 55.7418 6.65799 47.7553L10.2067 21.3564C11.742 9.93549 22.2476 1.93163 33.6553 3.46514L107.563 13.4004C118.983 14.9357 126.989 25.4273 125.454 36.8479C125.454 36.8483 125.455 36.8485 125.455 36.8483Z" fill="url(#paint0_linear_641_12083)"></path><path d="M29.1643 56.3381L34.0853 48.4635L35.3698 48.6362L38.0841 57.5372L36.5261 57.3278L35.8199 54.8354L36.3823 55.3348L31.3516 54.6586L32.0498 54.3286L30.7104 56.546L29.1643 56.3381ZM34.495 50.1895L32.2841 53.9364L32.0245 53.5261L36.0205 54.0633L35.7212 54.3984L34.5426 50.1959L34.495 50.1895ZM41.19 58.0758C40.4527 57.9767 39.9288 57.7004 39.6184 57.247C39.3081 56.7936 39.2088 56.1507 39.3208 55.3182L39.8132 51.6551L41.2998 51.855L40.809 55.5061C40.7493 55.9501 40.7962 56.2914 40.9498 56.53C41.1045 56.7607 41.3681 56.9011 41.7408 56.9511C42.161 57.0076 42.5211 56.9108 42.8211 56.6605C43.1291 56.4113 43.3145 56.0528 43.3774 55.585L43.833 52.1955L45.3196 52.3953L44.5123 58.4013L43.0613 58.2063L43.226 56.9813L43.3925 57.0037C43.1605 57.4084 42.8501 57.7057 42.4614 57.8956C42.0816 58.0786 41.6578 58.1387 41.19 58.0758ZM48.8278 59.1025C48.1142 59.0066 47.6001 58.7478 47.2855 58.3261C46.9708 57.9044 46.8636 57.321 46.9638 56.5757L47.3363 53.8046L46.1827 53.6495L46.333 52.5316L47.4866 52.6866L47.6928 51.1524L49.2306 50.9717L48.9732 52.8865L50.5788 53.1023L50.4285 54.2203L48.8229 54.0044L48.4632 56.6804C48.4078 57.0927 48.4482 57.3927 48.5844 57.5805C48.7206 57.7683 48.9274 57.8809 49.2049 57.9182C49.3556 57.9385 49.484 57.9436 49.5903 57.9337C49.7045 57.9248 49.8158 57.9075 49.9242 57.8817L49.7659 59.0591C49.6237 59.0965 49.4677 59.1159 49.298 59.1173C49.1351 59.1277 48.9784 59.1228 48.8278 59.1025ZM53.5674 59.7397C52.949 59.6565 52.4308 59.4577 52.013 59.1433C51.5952 58.8288 51.2909 58.4206 51.1 57.9187C50.9171 57.4179 50.8688 56.8463 50.9552 56.2041C51.0415 55.5619 51.2385 55.0274 51.5461 54.6005C51.8627 54.1669 52.264 53.8535 52.75 53.6606C53.2361 53.4676 53.7883 53.4127 54.4068 53.4958C55.0252 53.579 55.5433 53.7778 55.9612 54.0922C56.3869 54.4078 56.6912 54.816 56.8741 55.3168C57.066 55.8108 57.1188 56.3789 57.0325 57.0211C56.9462 57.6633 56.7447 58.2013 56.4281 58.6349C56.1194 59.0697 55.7181 59.383 55.2241 59.5749C54.7381 59.7679 54.1858 59.8228 53.5674 59.7397ZM53.7209 58.5979C54.1887 58.6608 54.5832 58.5484 54.9044 58.2606C55.2267 57.9649 55.4326 57.484 55.5221 56.818C55.6116 56.152 55.5395 55.6378 55.3057 55.2755C55.0719 54.9131 54.7211 54.7004 54.2533 54.6376C53.7855 54.5747 53.391 54.6871 53.0698 54.9749C52.7486 55.2627 52.5432 55.7396 52.4537 56.4056C52.3642 57.0716 52.4358 57.5897 52.6685 57.96C52.9023 58.3224 53.2531 58.535 53.7209 58.5979ZM61.5899 60.697L62.717 52.3125L66.3801 52.8049C67.2998 52.9285 67.9801 53.2419 68.421 53.7452C68.8698 54.2495 69.042 54.8901 68.9375 55.6671C68.8683 56.1825 68.6941 56.6071 68.4152 56.9409C68.1442 57.2758 67.7852 57.5141 67.3383 57.6558C66.8925 57.7896 66.3842 57.8181 65.8133 57.7414L66.0102 57.5378L66.4146 57.5921C66.7476 57.6369 67.0332 57.7641 67.2714 57.9737C67.5096 58.1833 67.688 58.4777 67.8065 58.8569L68.6782 61.6499L66.9893 61.4229L66.1186 58.5331C66.0449 58.2407 65.8989 58.0354 65.6807 57.9173C65.4704 57.8002 65.2067 57.7204 64.8896 57.6777L63.5814 57.5019L63.1241 60.9033L61.5899 60.697ZM63.7332 56.372L65.6123 56.6246C66.1515 56.6971 66.5747 56.641 66.8821 56.4563C67.1984 56.2647 67.3859 55.9509 67.4445 55.5148C67.5031 55.0788 67.4047 54.7305 67.1491 54.4702C66.9014 54.2109 66.508 54.045 65.9689 53.9725L64.0898 53.7199L63.7332 56.372ZM72.7052 62.3123C71.6983 62.177 70.9467 61.7934 70.4504 61.1617C69.9542 60.5299 69.7711 59.7304 69.9011 58.7631C69.9853 58.1367 70.1817 57.6062 70.4904 57.1714C70.7991 56.7367 71.189 56.4178 71.6603 56.2147C72.1395 56.0128 72.6724 55.9512 73.2592 56.0301C73.8379 56.1079 74.3051 56.2958 74.6605 56.5939C75.016 56.8919 75.263 57.2762 75.4015 57.7469C75.548 58.2186 75.5812 58.7518 75.5013 59.3464L75.4486 59.7389L71.0719 59.1505L71.1774 58.3656L74.4956 58.8116L74.271 58.951C74.3456 58.396 74.2837 57.9558 74.0853 57.6305C73.8948 57.3062 73.5776 57.1142 73.1335 57.0545C72.642 56.9884 72.2379 57.1117 71.9215 57.4243C71.6129 57.738 71.4166 58.208 71.3324 58.8344L71.3116 58.989C71.2242 59.6392 71.3172 60.1481 71.5906 60.5158C71.8731 60.8767 72.3077 61.0965 72.8944 61.1754C73.2353 61.2212 73.5583 61.2202 73.8634 61.1725C74.1775 61.1178 74.4832 61.0056 74.7805 60.8356L75.0862 61.8938C74.7699 62.0854 74.405 62.2179 73.9915 62.2915C73.578 62.3651 73.1492 62.372 72.7052 62.3123ZM76.1383 65.2681L77.0895 58.1917C77.1226 57.9459 77.1482 57.6951 77.1665 57.4393C77.1847 57.1834 77.1945 56.9305 77.1958 56.6804L78.6349 56.8738L78.5962 58.1521L78.4654 58.1345C78.6408 57.7303 78.9354 57.4308 79.349 57.2362C79.7716 57.0347 80.2366 56.9681 80.744 57.0363C81.2753 57.1077 81.722 57.2969 82.0844 57.6039C82.4478 57.903 82.709 58.3014 82.8681 58.799C83.0283 59.2887 83.0647 59.8586 82.9773 60.5088C82.8899 61.1589 82.7038 61.703 82.4189 62.1409C82.134 62.5789 81.7763 62.8981 81.3457 63.0985C80.9163 63.291 80.4359 63.3515 79.9047 63.2801C79.4052 63.213 78.9817 63.0309 78.6341 62.734C78.2866 62.437 78.0771 62.0739 78.0057 61.6445L78.1365 61.6621L77.6249 65.4679L76.1383 65.2681ZM79.6419 62.0824C80.1176 62.1464 80.5201 62.035 80.8492 61.7483C81.1794 61.4537 81.3893 60.9734 81.4788 60.3073C81.5683 59.6413 81.4922 59.1266 81.2505 58.7632C81.0088 58.3997 80.65 58.186 80.1743 58.1221C79.7065 58.0592 79.308 58.1711 78.9789 58.4578C78.6498 58.7445 78.4405 59.2209 78.3509 59.8869C78.2614 60.5529 78.337 61.0716 78.5776 61.443C78.8194 61.8064 79.1741 62.0196 79.6419 62.0824ZM86.3105 64.1413C85.7872 64.0709 85.3438 63.8862 84.9805 63.5871C84.6181 63.2801 84.3574 62.8778 84.1983 62.3801C84.0392 61.8825 84.0033 61.3086 84.0907 60.6585C84.1781 60.0083 84.3637 59.4682 84.6475 59.0382C84.9324 58.6003 85.2896 58.285 85.7191 58.0925C86.1496 57.8921 86.6265 57.8271 87.1498 57.8974C87.6573 57.9656 88.0842 58.1522 88.4307 58.4571C88.7862 58.7551 88.9991 59.1227 89.0694 59.56L88.9386 59.5424L89.2389 58.2993L90.6661 58.4912C90.6092 58.7338 90.5519 58.9803 90.494 59.2308C90.444 59.4824 90.4025 59.7311 90.3695 59.9769L89.7636 64.4844L88.2888 64.2861L88.4432 63.0476L88.5859 63.0668C88.4036 63.4621 88.1017 63.7565 87.6802 63.95C87.2586 64.1436 86.8021 64.2073 86.3105 64.1413ZM86.8802 63.0555C87.348 63.1184 87.7465 63.0065 88.0756 62.7197C88.4058 62.4251 88.6157 61.9448 88.7052 61.2788C88.7947 60.6128 88.7186 60.098 88.4769 59.7346C88.2352 59.3712 87.8804 59.158 87.4126 59.0951C86.9448 59.0322 86.5463 59.1441 86.2172 59.4308C85.8881 59.7175 85.6788 60.1939 85.5892 60.8599C85.4997 61.5259 85.5713 62.0441 85.804 62.4144C86.0458 62.7778 86.4045 62.9915 86.8802 63.0555ZM91.5311 64.722L92.3384 58.716L93.8251 58.9158L93.0177 64.9218L91.5311 64.722ZM92.4071 57.575L92.6021 56.124L94.2552 56.3462L94.0602 57.7972L92.4071 57.575ZM94.7688 65.1572L95.37 60.6854C95.4041 60.4317 95.4308 60.173 95.4501 59.9092C95.4773 59.6465 95.4916 59.3901 95.493 59.14L96.932 59.3335L96.8779 60.9971L96.64 60.9651C96.7726 60.5794 96.9477 60.2679 97.1652 60.0308C97.3907 59.7947 97.6467 59.6314 97.9333 59.5407C98.22 59.4501 98.5218 59.4261 98.839 59.4688C98.9817 59.488 99.0956 59.5113 99.1807 59.5389C99.2668 59.5586 99.3514 59.5901 99.4343 59.6336L99.2466 60.9402C99.1045 60.8565 98.979 60.7993 98.8701 60.7685C98.7692 60.7388 98.6394 60.7133 98.4808 60.692C98.1399 60.6461 97.8409 60.6786 97.5839 60.7893C97.3348 60.9011 97.1337 61.0759 96.9806 61.3136C96.8355 61.5524 96.7411 61.8344 96.6974 62.1594L96.2674 65.3587L94.7688 65.1572Z" fill="white"></path><g clip-path="url(#clip0_641_12083)"><path d="M66.6274 32.5171L70.5019 33.0382L70.9185 29.941L62.818 28.8516L64.3452 26.3815C64.5066 26.1132 64.8109 25.9665 65.1206 26.0081L69.8979 26.6506C69.8538 25.8478 69.9511 25.1065 70.2134 24.3282L65.4331 23.6853C64.1927 23.5185 62.9762 24.1053 62.3344 25.1793L60.1288 28.8714C59.0808 29.261 58.2695 30.1885 58.1104 31.3716L57.9021 32.9201C57.7486 34.0614 58.2429 35.1337 59.092 35.795L58.7217 38.5483C58.6068 39.4024 59.2079 40.1903 60.062 40.3052L62.3848 40.6176C63.2388 40.7324 64.0268 40.1313 64.1416 39.2773L64.4541 36.9545L69.8771 37.6838L70.2936 34.5867L66.4192 34.0656C65.9918 34.0081 65.6915 33.6146 65.749 33.1872C65.8065 32.7598 66.2 32.4596 66.6274 32.5171ZM62.0044 34.6543C60.9351 34.5105 60.1852 33.5275 60.3291 32.4582C60.4729 31.389 61.4558 30.6391 62.5251 30.7829C63.5944 30.9267 64.3443 31.9096 64.2005 32.9789C64.0566 34.0482 63.0737 34.7981 62.0044 34.6543Z" fill="white"></path><path d="M80.8254 26.1314C80.7521 24.2557 79.3907 22.738 78.5455 22.3524C78.4029 22.2874 78.2407 22.3855 78.2199 22.5403L77.6974 26.4249C77.658 26.7183 77.4562 26.9639 77.1762 27.0595L76.3498 27.3425C76.1168 27.4223 75.8605 27.3878 75.6576 27.2494L74.9354 26.7581C74.6905 26.592 74.561 26.301 74.6003 26.0083L75.1228 22.1238C75.1437 21.9681 75.0124 21.8307 74.8568 21.8562C73.9382 22.011 72.2222 23.1352 71.6604 24.9098C71.1779 26.4341 71.5574 28.0435 72.3567 29.0923C72.4881 29.2644 72.557 29.4731 72.5281 29.6876L71.1122 40.2155C70.8822 41.9251 72.0818 43.4974 73.7914 43.7274C75.501 43.9573 77.0734 42.7577 77.3033 41.0481L78.7211 30.5245C78.7502 30.3077 78.8754 30.1211 79.0494 29.9877C80.1043 29.1836 80.888 27.7235 80.8254 26.1314ZM74.0578 41.7933C73.4167 41.7071 72.9664 41.1168 73.0526 40.4757C73.1389 39.8346 73.7291 39.3842 74.3702 39.4704C75.0114 39.5567 75.4617 40.147 75.3755 40.7881C75.2892 41.4292 74.6989 41.8795 74.0578 41.7933Z" fill="white"></path></g><defs><linearGradient id="paint0_linear_641_12083" x1="121.952" y1="62.9094" x2="6.8023" y2="46.8913" gradientUnits="userSpaceOnUse"><stop stop-color="#0461A5"></stop><stop offset="1" stop-color="#0E7AC9"></stop></linearGradient><clipPath id="clip0_641_12083"><rect width="25" height="25" fill="white" transform="translate(58.332 18.0005) rotate(7.66)"></rect></clipPath></defs></svg>