<svg xmlns="http://www.w3.org/2000/svg" width="1440" height="480" viewBox="0 0 1440 480" fill="none"><path d="M0 20C0 8.95431 8.95431 0 20 0L1420 0C1431.05 0 1440 8.95431 1440 20V460C1440 471.046 1431.05 480 1420 480H20C8.95432 480 0 471.046 0 460V20Z" fill="#E4F5FF"></path><g clip-path="url(#clip0_1104_830)"><path d="M20 42.3256C20 31.2799 28.9543 22.3256 40 22.3256L1400 22.3256C1411.05 22.3256 1420 31.2799 1420 42.3256V452.326C1420 463.371 1411.05 472.326 1400 472.326H40C28.9543 472.326 20 463.371 20 452.326V42.3256Z" fill="url(#paint0_linear_1104_830)"></path><path d="M184.606 133.213C49.0376 126.896 21.4708 206.166 -22.4137 187.858C-24.3908 100.345 -48.9813 -71.8006 -45.6642 -77.0741C-42.3471 -82.3477 429.981 -72.2795 692.562 -71.8329L693.128 13.5006C637.611 66.3841 681.899 80.2429 480.305 77.6108C337.886 75.7513 336.355 140.283 184.606 133.213Z" fill="white" fill-opacity="0.04"></path><path d="M232.41 150.004C82.4978 143.019 52.0143 230.675 3.48671 210.43C1.30043 113.659 -25.8919 -76.7008 -22.2238 -82.5323C-18.5558 -88.3637 503.746 -77.2303 794.109 -76.7365L794.735 17.6257C733.344 76.1044 782.318 91.4295 559.394 88.5189C401.908 86.4627 400.214 157.822 232.41 150.004Z" fill="white" fill-opacity="0.04"></path><path d="M1228.04 299.503C1403.44 307.676 1439.11 205.114 1495.89 228.802C1498.45 342.028 1530.26 564.756 1525.97 571.579C1521.68 578.402 910.569 565.376 570.833 564.798L570.101 454.391C641.93 385.968 584.629 368.037 845.458 371.443C1029.72 373.849 1031.7 290.355 1228.04 299.503Z" fill="white" fill-opacity="0.04"></path><path d="M1166.19 277.779C1360.15 286.816 1399.59 173.403 1462.38 199.597C1465.21 324.803 1500.39 571.096 1495.64 578.641C1490.9 586.186 815.128 571.781 439.447 571.142L438.637 449.054C518.066 373.392 454.703 353.564 743.128 357.33C946.889 359.99 949.081 267.663 1166.19 277.779Z" fill="white" fill-opacity="0.04"></path></g><defs><linearGradient id="paint0_linear_1104_830" x1="95.5765" y1="479.857" x2="654.46" y2="-569.299" gradientUnits="userSpaceOnUse"><stop stop-color="#006EBE"></stop><stop offset="1" stop-color="#05497A"></stop></linearGradient><clipPath id="clip0_1104_830"><rect x="20" y="22.3256" width="1400" height="435.349" rx="20" fill="white"></rect></clipPath></defs></svg>