<svg xmlns="http://www.w3.org/2000/svg" width="140" height="71" viewBox="0 0 140 71" fill="none"><path d="M136.731 3.59268C137.397 2.75983 138.658 3.29666 138.371 4.32421C136.376 11.4667 130.802 25.6562 116.85 32.8805C116.513 33.0551 116.293 33.4033 116.293 33.7831V49.2188C116.293 54.6998 114.176 59.6698 110.711 63.3944C108.662 65.6246 106.115 67.402 103.25 68.558C101.432 69.3049 99.494 69.7887 97.4561 69.9768C97.3936 69.9826 97.3316 69.9953 97.2691 70.0015C97.2078 70.0076 97.1421 70.0076 97.0909 70.0076C96.8987 70.0181 96.6946 70.0419 96.4905 70.0419C96.1508 70.0643 95.7888 70.0762 95.4372 70.0762H20.8678C18.8297 70.0762 16.8602 69.7812 14.9905 69.2374C14.323 69.0333 13.666 68.8069 13.0209 68.5476C5.39013 65.4548 0 57.9596 0 49.2188V22.5885C0 11.0618 9.35302 1.70881 20.8678 1.70881H95.4372C104.961 1.70881 112.981 8.11026 115.479 16.8401C115.634 17.3845 116.19 17.7226 116.732 17.5587C122.181 15.9102 129.879 12.151 136.731 3.59268Z" fill="url(#paint0_linear_641_12261)"></path><path d="M13.0942 53V44.54H18.6742V45.752H14.6422V48.152H18.3982V49.364H14.6422V53H13.0942ZM19.9914 53V46.94H21.4914V53H19.9914ZM19.9074 45.8V44.336H21.5754V45.8H19.9074ZM25.8623 53.12C25.1423 53.12 24.5983 52.932 24.2303 52.556C23.8623 52.18 23.6783 51.616 23.6783 50.864V48.068H22.5143V46.94H23.6783V45.392L25.1783 45.008V46.94H26.7983V48.068H25.1783V50.768C25.1783 51.184 25.2583 51.476 25.4183 51.644C25.5783 51.812 25.7983 51.896 26.0783 51.896C26.2303 51.896 26.3583 51.884 26.4623 51.86C26.5743 51.836 26.6823 51.804 26.7863 51.764V52.952C26.6503 53.008 26.4983 53.048 26.3303 53.072C26.1703 53.104 26.0143 53.12 25.8623 53.12ZM27.9672 53V48.452C27.9672 48.204 27.9592 47.952 27.9432 47.696C27.9272 47.44 27.9032 47.188 27.8712 46.94H29.3232L29.4432 48.14H29.2992C29.4912 47.716 29.7752 47.392 30.1512 47.168C30.5272 46.936 30.9632 46.82 31.4592 46.82C32.1712 46.82 32.7072 47.02 33.0672 47.42C33.4272 47.82 33.6072 48.444 33.6072 49.292V53H32.1072V49.364C32.1072 48.876 32.0112 48.528 31.8192 48.32C31.6352 48.104 31.3552 47.996 30.9792 47.996C30.5152 47.996 30.1472 48.14 29.8752 48.428C29.6032 48.716 29.4672 49.1 29.4672 49.58V53H27.9672ZM38.2756 53.12C37.2596 53.12 36.4636 52.84 35.8876 52.28C35.3116 51.72 35.0236 50.952 35.0236 49.976C35.0236 49.344 35.1476 48.792 35.3956 48.32C35.6436 47.848 35.9876 47.48 36.4276 47.216C36.8756 46.952 37.3956 46.82 37.9876 46.82C38.5716 46.82 39.0596 46.944 39.4516 47.192C39.8436 47.44 40.1396 47.788 40.3396 48.236C40.5476 48.684 40.6516 49.208 40.6516 49.808V50.204H36.2356V49.412H39.5836L39.3796 49.58C39.3796 49.02 39.2596 48.592 39.0196 48.296C38.7876 48 38.4476 47.852 37.9996 47.852C37.5036 47.852 37.1196 48.028 36.8476 48.38C36.5836 48.732 36.4516 49.224 36.4516 49.856V50.012C36.4516 50.668 36.6116 51.16 36.9316 51.488C37.2596 51.808 37.7196 51.968 38.3116 51.968C38.6556 51.968 38.9756 51.924 39.2716 51.836C39.5756 51.74 39.8636 51.588 40.1356 51.38L40.5796 52.388C40.2916 52.62 39.9476 52.8 39.5476 52.928C39.1476 53.056 38.7236 53.12 38.2756 53.12ZM44.2319 53.12C43.7119 53.12 43.2319 53.06 42.7919 52.94C42.3599 52.812 41.9959 52.636 41.6999 52.412L42.1199 51.404C42.4239 51.612 42.7599 51.772 43.1279 51.884C43.4959 51.996 43.8679 52.052 44.2439 52.052C44.6439 52.052 44.9399 51.984 45.1319 51.848C45.3319 51.712 45.4319 51.528 45.4319 51.296C45.4319 51.112 45.3679 50.968 45.2399 50.864C45.1199 50.752 44.9239 50.668 44.6519 50.612L43.4519 50.384C42.9399 50.272 42.5479 50.08 42.2759 49.808C42.0119 49.536 41.8799 49.18 41.8799 48.74C41.8799 48.364 41.9799 48.032 42.1799 47.744C42.3879 47.456 42.6799 47.232 43.0559 47.072C43.4399 46.904 43.8879 46.82 44.3999 46.82C44.8479 46.82 45.2679 46.88 45.6599 47C46.0599 47.12 46.3959 47.3 46.6679 47.54L46.2359 48.512C45.9879 48.312 45.7039 48.156 45.3839 48.044C45.0639 47.932 44.7519 47.876 44.4479 47.876C44.0319 47.876 43.7279 47.952 43.5359 48.104C43.3439 48.248 43.2479 48.436 43.2479 48.668C43.2479 48.844 43.3039 48.992 43.4159 49.112C43.5359 49.224 43.7199 49.308 43.9679 49.364L45.1679 49.592C45.7039 49.696 46.1079 49.88 46.3799 50.144C46.6599 50.4 46.7999 50.752 46.7999 51.2C46.7999 51.6 46.6919 51.944 46.4759 52.232C46.2599 52.52 45.9599 52.74 45.5759 52.892C45.1919 53.044 44.7439 53.12 44.2319 53.12ZM50.3936 53.12C49.8736 53.12 49.3936 53.06 48.9536 52.94C48.5216 52.812 48.1576 52.636 47.8616 52.412L48.2816 51.404C48.5856 51.612 48.9216 51.772 49.2896 51.884C49.6576 51.996 50.0296 52.052 50.4056 52.052C50.8056 52.052 51.1016 51.984 51.2936 51.848C51.4936 51.712 51.5936 51.528 51.5936 51.296C51.5936 51.112 51.5296 50.968 51.4016 50.864C51.2816 50.752 51.0856 50.668 50.8136 50.612L49.6136 50.384C49.1016 50.272 48.7096 50.08 48.4376 49.808C48.1736 49.536 48.0416 49.18 48.0416 48.74C48.0416 48.364 48.1416 48.032 48.3416 47.744C48.5496 47.456 48.8416 47.232 49.2176 47.072C49.6016 46.904 50.0496 46.82 50.5616 46.82C51.0096 46.82 51.4296 46.88 51.8216 47C52.2216 47.12 52.5576 47.3 52.8296 47.54L52.3976 48.512C52.1496 48.312 51.8656 48.156 51.5456 48.044C51.2256 47.932 50.9136 47.876 50.6096 47.876C50.1936 47.876 49.8896 47.952 49.6976 48.104C49.5056 48.248 49.4096 48.436 49.4096 48.668C49.4096 48.844 49.4656 48.992 49.5776 49.112C49.6976 49.224 49.8816 49.308 50.1296 49.364L51.3296 49.592C51.8656 49.696 52.2696 49.88 52.5416 50.144C52.8216 50.4 52.9616 50.752 52.9616 51.2C52.9616 51.6 52.8536 51.944 52.6376 52.232C52.4216 52.52 52.1216 52.74 51.7376 52.892C51.3536 53.044 50.9056 53.12 50.3936 53.12ZM59.9503 53V45.812H57.1543V44.54H64.2943V45.812H61.4983V53H59.9503ZM64.4685 53V48.488C64.4685 48.232 64.4605 47.972 64.4445 47.708C64.4365 47.444 64.4165 47.188 64.3845 46.94H65.8365L66.0045 48.596H65.7645C65.8445 48.196 65.9765 47.864 66.1605 47.6C66.3525 47.336 66.5845 47.14 66.8565 47.012C67.1285 46.884 67.4245 46.82 67.7445 46.82C67.8885 46.82 68.0045 46.828 68.0925 46.844C68.1805 46.852 68.2685 46.872 68.3565 46.904L68.3445 48.224C68.1925 48.16 68.0605 48.12 67.9485 48.104C67.8445 48.088 67.7125 48.08 67.5525 48.08C67.2085 48.08 66.9165 48.152 66.6765 48.296C66.4445 48.44 66.2685 48.64 66.1485 48.896C66.0365 49.152 65.9805 49.444 65.9805 49.772V53H64.4685ZM71.6228 53.12C71.0948 53.12 70.6308 52.996 70.2308 52.748C69.8308 52.492 69.5188 52.128 69.2948 51.656C69.0708 51.184 68.9588 50.62 68.9588 49.964C68.9588 49.308 69.0708 48.748 69.2948 48.284C69.5188 47.812 69.8308 47.452 70.2308 47.204C70.6308 46.948 71.0948 46.82 71.6228 46.82C72.1348 46.82 72.5828 46.948 72.9668 47.204C73.3588 47.452 73.6188 47.788 73.7468 48.212H73.6148L73.7468 46.94H75.1868C75.1628 47.188 75.1388 47.44 75.1148 47.696C75.0988 47.952 75.0908 48.204 75.0908 48.452V53H73.6028L73.5908 51.752H73.7348C73.6068 52.168 73.3468 52.5 72.9548 52.748C72.5628 52.996 72.1188 53.12 71.6228 53.12ZM72.0428 51.968C72.5148 51.968 72.8948 51.804 73.1828 51.476C73.4708 51.14 73.6148 50.636 73.6148 49.964C73.6148 49.292 73.4708 48.792 73.1828 48.464C72.8948 48.136 72.5148 47.972 72.0428 47.972C71.5708 47.972 71.1908 48.136 70.9028 48.464C70.6148 48.792 70.4708 49.292 70.4708 49.964C70.4708 50.636 70.6108 51.14 70.8908 51.476C71.1788 51.804 71.5628 51.968 72.0428 51.968ZM76.8742 53V46.94H78.3742V53H76.8742ZM76.7902 45.8V44.336H78.4582V45.8H76.7902ZM80.1531 53V48.452C80.1531 48.204 80.1451 47.952 80.1291 47.696C80.1131 47.44 80.0891 47.188 80.0571 46.94H81.5091L81.6291 48.14H81.4851C81.6771 47.716 81.9611 47.392 82.3371 47.168C82.7131 46.936 83.1491 46.82 83.6451 46.82C84.3571 46.82 84.8931 47.02 85.2531 47.42C85.6131 47.82 85.7931 48.444 85.7931 49.292V53H84.2931V49.364C84.2931 48.876 84.1971 48.528 84.0051 48.32C83.8211 48.104 83.5411 47.996 83.1651 47.996C82.7011 47.996 82.3331 48.14 82.0611 48.428C81.7891 48.716 81.6531 49.1 81.6531 49.58V53H80.1531ZM87.5336 53V46.94H89.0336V53H87.5336ZM87.4496 45.8V44.336H89.1176V45.8H87.4496ZM90.8125 53V48.452C90.8125 48.204 90.8045 47.952 90.7885 47.696C90.7725 47.44 90.7485 47.188 90.7165 46.94H92.1685L92.2885 48.14H92.1445C92.3365 47.716 92.6205 47.392 92.9965 47.168C93.3725 46.936 93.8085 46.82 94.3045 46.82C95.0165 46.82 95.5525 47.02 95.9125 47.42C96.2725 47.82 96.4525 48.444 96.4525 49.292V53H94.9525V49.364C94.9525 48.876 94.8565 48.528 94.6645 48.32C94.4805 48.104 94.2005 47.996 93.8245 47.996C93.3605 47.996 92.9925 48.14 92.7205 48.428C92.4485 48.716 92.3125 49.1 92.3125 49.58V53H90.8125ZM101.001 55.688C100.441 55.688 99.933 55.628 99.477 55.508C99.029 55.388 98.629 55.204 98.277 54.956L98.601 53.876C98.833 54.028 99.073 54.152 99.321 54.248C99.569 54.344 99.825 54.416 100.089 54.464C100.353 54.512 100.621 54.536 100.893 54.536C101.453 54.536 101.869 54.396 102.141 54.116C102.421 53.844 102.561 53.452 102.561 52.94V51.488H102.681C102.553 51.904 102.293 52.236 101.901 52.484C101.517 52.732 101.073 52.856 100.569 52.856C100.025 52.856 99.549 52.736 99.141 52.496C98.741 52.248 98.429 51.896 98.205 51.44C97.981 50.984 97.869 50.448 97.869 49.832C97.869 49.216 97.981 48.684 98.205 48.236C98.429 47.78 98.741 47.432 99.141 47.192C99.549 46.944 100.025 46.82 100.569 46.82C101.081 46.82 101.525 46.944 101.901 47.192C102.285 47.432 102.541 47.76 102.669 48.176L102.561 48.104L102.681 46.94H104.133C104.101 47.188 104.077 47.44 104.061 47.696C104.045 47.952 104.037 48.204 104.037 48.452V52.76C104.037 53.712 103.777 54.436 103.257 54.932C102.745 55.436 101.993 55.688 101.001 55.688ZM100.977 51.704C101.457 51.704 101.837 51.544 102.117 51.224C102.405 50.896 102.549 50.432 102.549 49.832C102.549 49.232 102.405 48.772 102.117 48.452C101.837 48.132 101.457 47.972 100.977 47.972C100.489 47.972 100.101 48.132 99.813 48.452C99.525 48.772 99.381 49.232 99.381 49.832C99.381 50.432 99.525 50.896 99.813 51.224C100.101 51.544 100.489 51.704 100.977 51.704Z" fill="white"></path><g clip-path="url(#clip0_641_12261)"><path d="M70.211 14.9503H69.5461C69.5461 13.7067 69.5461 13.9754 69.5461 12.724C69.5461 12.4937 69.3595 12.3071 69.1292 12.3071H67.9904C67.7602 12.3071 67.5736 12.4937 67.5736 12.724C67.5736 13.9754 67.5736 13.7065 67.5736 14.9503H66.118C66.1787 14.3127 65.7091 13.7544 65.0871 13.6886C64.4472 13.6211 63.8797 14.0889 63.8131 14.7188L63.7887 14.9502H61.7824C61.1906 16.2281 59.9132 17.0532 58.4982 17.0532C57.0637 17.0532 55.7972 16.2094 55.214 14.9502H53.215L53.1906 14.7188C53.1234 14.0842 52.5508 13.6215 51.9167 13.6886C51.2954 13.7543 50.825 14.312 50.8857 14.9503H49.4263C49.4263 13.7067 49.4263 13.9754 49.4263 12.724C49.4263 12.4938 49.2397 12.3072 49.0095 12.3072H47.8707C47.6404 12.3072 47.4538 12.4938 47.4538 12.724C47.4538 13.9755 47.4538 13.7066 47.4538 14.9503H46.789C46.3532 14.9503 46 15.3035 46 15.7393C46 16.175 46.3532 16.5283 46.789 16.5283H47.4539C47.4539 17.7719 47.4539 17.5032 47.4539 18.7546C47.4539 18.9849 47.6405 19.1715 47.8707 19.1715H49.0095C49.2397 19.1715 49.4264 18.9848 49.4264 18.7546C49.4264 17.5032 49.4264 17.7721 49.4264 16.5283H51.0519C51.1019 17.0004 51.4549 20.3387 51.507 20.8324C51.6118 21.823 52.8598 22.2419 53.5315 21.4729L55.1598 19.6095V24.0423L50.9468 25.754C50.455 25.9538 50.1047 26.3977 50.0246 26.9225L49.1841 32.4328C49.0586 33.2553 49.6236 34.0237 50.4461 34.1492C51.2686 34.2746 52.037 33.7096 52.1625 32.8872L52.874 28.2229L56.7713 26.6395H60.231L64.1284 28.2229L64.8399 32.8872C64.9654 33.7097 65.7338 34.2746 66.5562 34.1492C67.3787 34.0237 67.9437 33.2553 67.8183 32.4328L66.9777 26.9224C66.8976 26.3977 66.5473 25.9538 66.0555 25.754L61.8091 24.0287V19.5698L63.472 21.4728C64.1258 22.2211 65.3887 21.8503 65.4965 20.8323C65.5486 20.3395 65.9019 16.9996 65.9517 16.5283H67.5736C67.5736 17.7719 67.5736 17.5032 67.5736 18.7546C67.5736 18.9848 67.7603 19.1714 67.9905 19.1714H69.1293C69.3595 19.1714 69.5461 18.9848 69.5461 18.7546C69.5461 17.5031 69.5461 17.772 69.5461 16.5283H70.211C70.6468 16.5283 71 16.175 71 15.7393C71 15.3035 70.6468 14.9503 70.211 14.9503ZM53.5323 17.9506C53.4698 17.3599 53.4437 17.113 53.3818 16.5283H54.7751C54.2703 17.1061 54.0441 17.3649 53.5323 17.9506ZM63.4713 17.9506C62.8954 17.2916 63.6352 18.1381 62.2284 16.5283H63.6217C63.5049 17.6328 63.5336 17.3607 63.4713 17.9506Z" fill="white"></path><path d="M58.4982 16.037C59.9352 16.037 61.1 14.8722 61.1 13.4353C61.1 11.9983 59.9352 10.8335 58.4982 10.8335C57.0613 10.8335 55.8965 11.9983 55.8965 13.4353C55.8965 14.8722 57.0613 16.037 58.4982 16.037Z" fill="white"></path></g><defs><linearGradient id="paint0_linear_641_12261" x1="139.357" y1="34.037" x2="0.0386175" y2="32.975" gradientUnits="userSpaceOnUse"><stop stop-color="#0461A5"></stop><stop offset="1" stop-color="#0E7AC9"></stop></linearGradient><clipPath id="clip0_641_12261"><rect width="25" height="25" fill="white" transform="translate(46 10)"></rect></clipPath></defs></svg>