<svg xmlns="http://www.w3.org/2000/svg" width="132" height="97" viewBox="0 0 132 97" fill="none"><path d="M0.000843749 20.7905C0.000377759 20.7905 0 20.7909 0 20.7913V47.3282C0 56.0335 6.1113 63.4951 14.7794 66.5779C17.5324 67.565 20.539 68.1068 23.6859 68.1068H77.9259C78.3483 68.1068 78.7244 68.3724 78.8708 68.7686C80.0323 71.9123 81.3252 74.7034 82.7038 77.1832C89.8593 90.1471 99.2384 94.6948 104.058 96.2402C104.996 96.5411 105.54 95.4639 104.873 94.7386C101.18 90.7257 98.6211 85.6289 96.8643 80.5496C95.4783 76.6018 94.5669 72.6637 93.9789 69.2605C93.8743 68.6552 94.3438 68.1068 94.9582 68.1068H108.314C108.722 68.1068 109.129 68.0949 109.521 68.0696C109.746 68.0696 109.971 68.0444 110.196 68.0325C110.267 68.0325 110.345 68.0325 110.42 68.0231C110.478 68.016 110.535 68.0051 110.593 68.0004C116.542 67.5146 121.847 65.0789 125.664 61.4467C129.597 57.736 132 52.7785 132 47.3282V20.7905C132 9.30948 121.394 0 108.314 0H23.6876C10.608 0 0.00220967 9.30902 0.00168752 20.7896C0.0016875 20.7901 0.00130974 20.7905 0.000843749 20.7905Z" fill="url(#paint0_linear_641_11842)"></path><path d="M20.2267 54.12C19.3467 54.12 18.5907 53.944 17.9587 53.592C17.3347 53.232 16.8547 52.728 16.5187 52.08C16.1827 51.424 16.0147 50.652 16.0147 49.764C16.0147 48.876 16.1827 48.108 16.5187 47.46C16.8547 46.812 17.3347 46.312 17.9587 45.96C18.5907 45.6 19.3467 45.42 20.2267 45.42C20.8187 45.42 21.3507 45.504 21.8227 45.672C22.3027 45.84 22.7147 46.088 23.0587 46.416L22.5547 47.64C22.1787 47.336 21.8147 47.12 21.4627 46.992C21.1187 46.856 20.7227 46.788 20.2747 46.788C19.4187 46.788 18.7627 47.048 18.3067 47.568C17.8587 48.08 17.6347 48.812 17.6347 49.764C17.6347 50.716 17.8587 51.452 18.3067 51.972C18.7627 52.492 19.4187 52.752 20.2747 52.752C20.7227 52.752 21.1187 52.688 21.4627 52.56C21.8147 52.424 22.1787 52.2 22.5547 51.888L23.0587 53.112C22.7147 53.432 22.3027 53.68 21.8227 53.856C21.3507 54.032 20.8187 54.12 20.2267 54.12ZM26.6646 54.12C26.1366 54.12 25.6726 53.996 25.2726 53.748C24.8726 53.492 24.5606 53.128 24.3366 52.656C24.1126 52.184 24.0006 51.62 24.0006 50.964C24.0006 50.308 24.1126 49.748 24.3366 49.284C24.5606 48.812 24.8726 48.452 25.2726 48.204C25.6726 47.948 26.1366 47.82 26.6646 47.82C27.1766 47.82 27.6246 47.948 28.0086 48.204C28.4006 48.452 28.6606 48.788 28.7886 49.212H28.6566L28.7886 47.94H30.2286C30.2046 48.188 30.1806 48.44 30.1566 48.696C30.1406 48.952 30.1326 49.204 30.1326 49.452V54H28.6446L28.6326 52.752H28.7766C28.6486 53.168 28.3886 53.5 27.9966 53.748C27.6046 53.996 27.1606 54.12 26.6646 54.12ZM27.0846 52.968C27.5566 52.968 27.9366 52.804 28.2246 52.476C28.5126 52.14 28.6566 51.636 28.6566 50.964C28.6566 50.292 28.5126 49.792 28.2246 49.464C27.9366 49.136 27.5566 48.972 27.0846 48.972C26.6126 48.972 26.2326 49.136 25.9446 49.464C25.6566 49.792 25.5126 50.292 25.5126 50.964C25.5126 51.636 25.6526 52.14 25.9326 52.476C26.2206 52.804 26.6046 52.968 27.0846 52.968ZM34.508 54.12C33.788 54.12 33.244 53.932 32.876 53.556C32.508 53.18 32.324 52.616 32.324 51.864V49.068H31.16V47.94H32.324V46.392L33.824 46.008V47.94H35.444V49.068H33.824V51.768C33.824 52.184 33.904 52.476 34.064 52.644C34.224 52.812 34.444 52.896 34.724 52.896C34.876 52.896 35.004 52.884 35.108 52.86C35.22 52.836 35.328 52.804 35.432 52.764V53.952C35.296 54.008 35.144 54.048 34.976 54.072C34.816 54.104 34.66 54.12 34.508 54.12ZM39.4823 54.12C38.4663 54.12 37.6703 53.84 37.0943 53.28C36.5183 52.72 36.2303 51.952 36.2303 50.976C36.2303 50.344 36.3543 49.792 36.6023 49.32C36.8503 48.848 37.1943 48.48 37.6343 48.216C38.0823 47.952 38.6023 47.82 39.1943 47.82C39.7783 47.82 40.2663 47.944 40.6583 48.192C41.0503 48.44 41.3463 48.788 41.5463 49.236C41.7543 49.684 41.8583 50.208 41.8583 50.808V51.204H37.4423V50.412H40.7903L40.5863 50.58C40.5863 50.02 40.4663 49.592 40.2263 49.296C39.9943 49 39.6543 48.852 39.2063 48.852C38.7103 48.852 38.3263 49.028 38.0543 49.38C37.7903 49.732 37.6583 50.224 37.6583 50.856V51.012C37.6583 51.668 37.8183 52.16 38.1383 52.488C38.4663 52.808 38.9263 52.968 39.5183 52.968C39.8623 52.968 40.1823 52.924 40.4783 52.836C40.7823 52.74 41.0703 52.588 41.3423 52.38L41.7863 53.388C41.4983 53.62 41.1543 53.8 40.7543 53.928C40.3543 54.056 39.9303 54.12 39.4823 54.12ZM43.2665 54V49.488C43.2665 49.232 43.2585 48.972 43.2425 48.708C43.2345 48.444 43.2145 48.188 43.1825 47.94H44.6345L44.8025 49.596H44.5625C44.6425 49.196 44.7745 48.864 44.9585 48.6C45.1505 48.336 45.3825 48.14 45.6545 48.012C45.9265 47.884 46.2225 47.82 46.5425 47.82C46.6865 47.82 46.8025 47.828 46.8905 47.844C46.9785 47.852 47.0665 47.872 47.1545 47.904L47.1425 49.224C46.9905 49.16 46.8585 49.12 46.7465 49.104C46.6425 49.088 46.5105 49.08 46.3505 49.08C46.0065 49.08 45.7145 49.152 45.4745 49.296C45.2425 49.44 45.0665 49.64 44.9465 49.896C44.8345 50.152 44.7785 50.444 44.7785 50.772V54H43.2665ZM48.1394 54V47.94H49.6394V54H48.1394ZM48.0554 46.8V45.336H49.7234V46.8H48.0554ZM51.4183 54V49.452C51.4183 49.204 51.4103 48.952 51.3943 48.696C51.3783 48.44 51.3543 48.188 51.3223 47.94H52.7743L52.8943 49.14H52.7503C52.9423 48.716 53.2263 48.392 53.6023 48.168C53.9783 47.936 54.4143 47.82 54.9103 47.82C55.6223 47.82 56.1583 48.02 56.5183 48.42C56.8783 48.82 57.0583 49.444 57.0583 50.292V54H55.5583V50.364C55.5583 49.876 55.4623 49.528 55.2703 49.32C55.0863 49.104 54.8063 48.996 54.4303 48.996C53.9663 48.996 53.5983 49.14 53.3263 49.428C53.0543 49.716 52.9183 50.1 52.9183 50.58V54H51.4183ZM61.6068 56.688C61.0468 56.688 60.5388 56.628 60.0828 56.508C59.6348 56.388 59.2348 56.204 58.8828 55.956L59.2068 54.876C59.4388 55.028 59.6788 55.152 59.9268 55.248C60.1748 55.344 60.4308 55.416 60.6948 55.464C60.9588 55.512 61.2268 55.536 61.4988 55.536C62.0588 55.536 62.4748 55.396 62.7468 55.116C63.0268 54.844 63.1668 54.452 63.1668 53.94V52.488H63.2868C63.1588 52.904 62.8988 53.236 62.5068 53.484C62.1228 53.732 61.6788 53.856 61.1748 53.856C60.6308 53.856 60.1548 53.736 59.7468 53.496C59.3468 53.248 59.0348 52.896 58.8108 52.44C58.5868 51.984 58.4748 51.448 58.4748 50.832C58.4748 50.216 58.5868 49.684 58.8108 49.236C59.0348 48.78 59.3468 48.432 59.7468 48.192C60.1548 47.944 60.6308 47.82 61.1748 47.82C61.6868 47.82 62.1308 47.944 62.5068 48.192C62.8908 48.432 63.1468 48.76 63.2748 49.176L63.1668 49.104L63.2868 47.94H64.7388C64.7068 48.188 64.6828 48.44 64.6668 48.696C64.6508 48.952 64.6428 49.204 64.6428 49.452V53.76C64.6428 54.712 64.3828 55.436 63.8628 55.932C63.3508 56.436 62.5988 56.688 61.6068 56.688ZM61.5828 52.704C62.0628 52.704 62.4428 52.544 62.7228 52.224C63.0108 51.896 63.1548 51.432 63.1548 50.832C63.1548 50.232 63.0108 49.772 62.7228 49.452C62.4428 49.132 62.0628 48.972 61.5828 48.972C61.0948 48.972 60.7068 49.132 60.4188 49.452C60.1308 49.772 59.9868 50.232 59.9868 50.832C59.9868 51.432 60.1308 51.896 60.4188 52.224C60.7068 52.544 61.0948 52.704 61.5828 52.704ZM72.9286 54.12C72.2486 54.12 71.6206 54.036 71.0446 53.868C70.4766 53.692 69.9886 53.452 69.5806 53.148L70.0606 51.936C70.3326 52.128 70.6166 52.292 70.9126 52.428C71.2086 52.556 71.5246 52.656 71.8606 52.728C72.1966 52.792 72.5526 52.824 72.9286 52.824C73.5606 52.824 74.0166 52.72 74.2966 52.512C74.5766 52.304 74.7166 52.032 74.7166 51.696C74.7166 51.4 74.6206 51.176 74.4286 51.024C74.2366 50.864 73.8926 50.732 73.3966 50.628L72.0406 50.352C71.2646 50.192 70.6846 49.924 70.3006 49.548C69.9166 49.172 69.7246 48.668 69.7246 48.036C69.7246 47.508 69.8646 47.048 70.1446 46.656C70.4246 46.264 70.8166 45.96 71.3206 45.744C71.8246 45.528 72.4126 45.42 73.0846 45.42C73.6846 45.42 74.2406 45.508 74.7526 45.684C75.2646 45.852 75.6926 46.096 76.0366 46.416L75.5566 47.568C75.2126 47.28 74.8366 47.068 74.4286 46.932C74.0206 46.788 73.5646 46.716 73.0606 46.716C72.4926 46.716 72.0486 46.828 71.7286 47.052C71.4166 47.268 71.2606 47.568 71.2606 47.952C71.2606 48.248 71.3566 48.484 71.5486 48.66C71.7486 48.836 72.0846 48.972 72.5566 49.068L73.9006 49.332C74.7006 49.492 75.2926 49.756 75.6766 50.124C76.0606 50.484 76.2526 50.972 76.2526 51.588C76.2526 52.092 76.1166 52.536 75.8446 52.92C75.5726 53.296 75.1886 53.592 74.6926 53.808C74.1966 54.016 73.6086 54.12 72.9286 54.12ZM80.669 54.12C79.653 54.12 78.857 53.84 78.281 53.28C77.705 52.72 77.417 51.952 77.417 50.976C77.417 50.344 77.541 49.792 77.789 49.32C78.037 48.848 78.381 48.48 78.821 48.216C79.269 47.952 79.789 47.82 80.381 47.82C80.965 47.82 81.453 47.944 81.845 48.192C82.237 48.44 82.533 48.788 82.733 49.236C82.941 49.684 83.045 50.208 83.045 50.808V51.204H78.629V50.412H81.977L81.773 50.58C81.773 50.02 81.653 49.592 81.413 49.296C81.181 49 80.841 48.852 80.393 48.852C79.897 48.852 79.513 49.028 79.241 49.38C78.977 49.732 78.845 50.224 78.845 50.856V51.012C78.845 51.668 79.005 52.16 79.325 52.488C79.653 52.808 80.113 52.968 80.705 52.968C81.049 52.968 81.369 52.924 81.665 52.836C81.969 52.74 82.257 52.588 82.529 52.38L82.973 53.388C82.685 53.62 82.341 53.8 81.941 53.928C81.541 54.056 81.117 54.12 80.669 54.12ZM84.4532 54V49.488C84.4532 49.232 84.4452 48.972 84.4292 48.708C84.4212 48.444 84.4012 48.188 84.3692 47.94H85.8212L85.9892 49.596H85.7492C85.8292 49.196 85.9612 48.864 86.1452 48.6C86.3372 48.336 86.5692 48.14 86.8412 48.012C87.1132 47.884 87.4092 47.82 87.7292 47.82C87.8732 47.82 87.9892 47.828 88.0772 47.844C88.1652 47.852 88.2532 47.872 88.3412 47.904L88.3292 49.224C88.1772 49.16 88.0452 49.12 87.9332 49.104C87.8292 49.088 87.6972 49.08 87.5372 49.08C87.1932 49.08 86.9012 49.152 86.6612 49.296C86.4292 49.44 86.2532 49.64 86.1332 49.896C86.0212 50.152 85.9652 50.444 85.9652 50.772V54H84.4532ZM91.4654 54L88.8494 47.94H90.4454L92.3414 52.68H91.9694L93.9134 47.94H95.4134L92.7854 54H91.4654ZM96.3668 54V47.94H97.8668V54H96.3668ZM96.2828 46.8V45.336H97.9508V46.8H96.2828ZM102.43 54.12C101.806 54.12 101.258 53.992 100.786 53.736C100.322 53.48 99.9617 53.116 99.7057 52.644C99.4497 52.164 99.3217 51.596 99.3217 50.94C99.3217 50.284 99.4497 49.724 99.7057 49.26C99.9697 48.796 100.334 48.44 100.798 48.192C101.262 47.944 101.806 47.82 102.43 47.82C102.83 47.82 103.218 47.884 103.594 48.012C103.978 48.132 104.29 48.308 104.53 48.54L104.074 49.584C103.858 49.384 103.614 49.236 103.342 49.14C103.078 49.036 102.818 48.984 102.562 48.984C102.026 48.984 101.606 49.152 101.302 49.488C101.006 49.824 100.858 50.312 100.858 50.952C100.858 51.592 101.006 52.084 101.302 52.428C101.606 52.772 102.026 52.944 102.562 52.944C102.81 52.944 103.066 52.896 103.33 52.8C103.602 52.704 103.85 52.556 104.074 52.356L104.53 53.388C104.282 53.62 103.966 53.8 103.582 53.928C103.206 54.056 102.822 54.12 102.43 54.12ZM108.653 54.12C107.637 54.12 106.841 53.84 106.265 53.28C105.689 52.72 105.401 51.952 105.401 50.976C105.401 50.344 105.525 49.792 105.773 49.32C106.021 48.848 106.365 48.48 106.805 48.216C107.253 47.952 107.773 47.82 108.365 47.82C108.949 47.82 109.437 47.944 109.829 48.192C110.221 48.44 110.517 48.788 110.717 49.236C110.925 49.684 111.029 50.208 111.029 50.808V51.204H106.613V50.412H109.961L109.757 50.58C109.757 50.02 109.637 49.592 109.397 49.296C109.165 49 108.825 48.852 108.377 48.852C107.881 48.852 107.497 49.028 107.225 49.38C106.961 49.732 106.829 50.224 106.829 50.856V51.012C106.829 51.668 106.989 52.16 107.309 52.488C107.637 52.808 108.097 52.968 108.689 52.968C109.033 52.968 109.353 52.924 109.649 52.836C109.953 52.74 110.241 52.588 110.513 52.38L110.957 53.388C110.669 53.62 110.325 53.8 109.925 53.928C109.525 54.056 109.101 54.12 108.653 54.12ZM114.61 54.12C114.09 54.12 113.61 54.06 113.17 53.94C112.738 53.812 112.374 53.636 112.078 53.412L112.498 52.404C112.802 52.612 113.138 52.772 113.506 52.884C113.874 52.996 114.246 53.052 114.622 53.052C115.022 53.052 115.318 52.984 115.51 52.848C115.71 52.712 115.81 52.528 115.81 52.296C115.81 52.112 115.746 51.968 115.618 51.864C115.498 51.752 115.302 51.668 115.03 51.612L113.83 51.384C113.318 51.272 112.926 51.08 112.654 50.808C112.39 50.536 112.258 50.18 112.258 49.74C112.258 49.364 112.358 49.032 112.558 48.744C112.766 48.456 113.058 48.232 113.434 48.072C113.818 47.904 114.266 47.82 114.778 47.82C115.226 47.82 115.646 47.88 116.038 48C116.438 48.12 116.774 48.3 117.046 48.54L116.614 49.512C116.366 49.312 116.082 49.156 115.762 49.044C115.442 48.932 115.13 48.876 114.826 48.876C114.41 48.876 114.106 48.952 113.914 49.104C113.722 49.248 113.626 49.436 113.626 49.668C113.626 49.844 113.682 49.992 113.794 50.112C113.914 50.224 114.098 50.308 114.346 50.364L115.546 50.592C116.082 50.696 116.486 50.88 116.758 51.144C117.038 51.4 117.178 51.752 117.178 52.2C117.178 52.6 117.07 52.944 116.854 53.232C116.638 53.52 116.338 53.74 115.954 53.892C115.57 54.044 115.122 54.12 114.61 54.12Z" fill="white"></path><g clip-path="url(#clip0_641_11842)"><path d="M77.2486 34.5296L78.7192 31.5884H54.2808L55.7514 34.5296H54V36.0001H79V34.5296H77.2486Z" fill="white"></path><path d="M74.8335 18.3529H76.3041C76.3041 17.9981 76.414 17.8606 76.6332 17.5867C77.5031 16.6406 77.5 15.1591 76.6331 14.217C76.414 13.9431 76.3041 13.8056 76.3041 13.4508C76.2844 12.6366 77.2799 12.4964 77.2845 11H75.8139C75.8139 11.3547 75.7039 11.4922 75.4848 11.766C74.6149 12.712 74.6181 14.1935 75.4849 15.1356C75.7039 15.4095 75.8139 15.547 75.8139 15.9019C75.8335 16.7163 74.8381 16.8565 74.8335 18.3529Z" fill="white"></path><path d="M70.4214 18.3529H71.892C71.892 17.9981 72.0019 17.8606 72.221 17.5867C73.0909 16.6406 73.0879 15.1591 72.221 14.217C72.0019 13.9431 71.892 13.8056 71.892 13.4508C71.8723 12.6366 72.8678 12.4964 72.8724 11H71.4018C71.4018 11.3547 71.2918 11.4922 71.0727 11.766C70.2028 12.712 70.2059 14.1935 71.0728 15.1356C71.2918 15.4095 71.4018 15.547 71.4018 15.9019C71.4214 16.7163 70.426 16.8565 70.4214 18.3529Z" fill="white"></path><path d="M60.1276 18.3529H61.5982C61.5982 17.9981 61.7082 17.8606 61.9273 17.5867C62.7972 16.6406 62.7941 15.1591 61.9272 14.217C61.7082 13.9431 61.5982 13.8056 61.5982 13.4508C61.5785 12.6366 62.574 12.4964 62.5786 11H61.108C61.108 11.3547 60.9981 11.4922 60.779 11.766C59.908 12.7186 59.9113 14.187 60.779 15.1356C60.998 15.4095 61.108 15.547 61.108 15.9019C61.1277 16.7162 60.1322 16.8565 60.1276 18.3529Z" fill="white"></path><path d="M55.7155 18.3529H57.1861C57.1861 17.9981 57.2961 17.8606 57.5152 17.5867C58.3851 16.6406 58.382 15.1591 57.5151 14.217C57.2961 13.9431 57.1861 13.8056 57.1861 13.4508C57.1664 12.6366 58.1619 12.4964 58.1665 11H56.6959C56.6959 11.3547 56.586 11.4922 56.3668 11.766C55.4959 12.7186 55.4992 14.187 56.3668 15.1356C56.5859 15.4095 56.6959 15.547 56.6959 15.9019C56.7156 16.7162 55.7201 16.8565 55.7155 18.3529Z" fill="white"></path><path d="M74.299 23.7892C72.3901 21.8804 69.9045 20.7581 67.2352 20.5836V19.0883H68.7058V17.6177H64.294V19.0883H65.7646V20.5836C60.6724 20.8234 56.1502 25.0621 55.5679 30.1177H77.4319C77.1156 27.7291 76.0313 25.5217 74.299 23.7892ZM69.4411 28.6471H60.6176V27.1765H69.4411V28.6471ZM72.3823 28.6471H70.9117V27.1765H72.3823V28.6471Z" fill="white"></path></g><defs><linearGradient id="paint0_linear_641_11842" x1="132" y1="47.1143" x2="0.0325017" y2="46.4259" gradientUnits="userSpaceOnUse"><stop stop-color="#0461A5"></stop><stop offset="1" stop-color="#0E7AC9"></stop></linearGradient><clipPath id="clip0_641_11842"><rect width="25" height="25" fill="white" transform="translate(54 11)"></rect></clipPath></defs></svg>