<svg xmlns="http://www.w3.org/2000/svg" width="159" height="70" viewBox="0 0 159 70" fill="none"><path d="M156.427 3.12056C157.121 2.34155 158.311 2.91621 158.002 3.91354C155.841 10.9078 149.539 25.507 133.291 32.8585C132.928 33.0226 132.685 33.3846 132.685 33.7828V49.1653C132.685 54.6404 130.27 59.605 126.316 63.3255C123.979 65.5533 121.072 67.3287 117.803 68.4835C115.722 69.2321 113.503 69.7162 111.169 69.9027C111.114 69.9071 111.059 69.917 111.004 69.9231C110.927 69.9315 110.842 69.9315 110.776 69.9315C110.557 69.9419 110.324 69.9658 110.091 69.9658C109.704 69.9881 109.291 70 108.89 70H23.8092C21.4839 70 19.2367 69.7053 17.1035 69.1621C16.3419 68.9583 15.5923 68.7321 14.8563 68.4731C6.1499 65.3836 0 57.8965 0 49.1653V22.5639C0 11.0498 10.6714 1.70695 23.8092 1.70695H108.89C119.784 1.70695 128.955 8.135 131.778 16.8905C131.945 17.406 132.47 17.7264 132.994 17.59C139.332 15.9412 148.425 12.0917 156.427 3.12056Z" fill="url(#paint0_linear_641_11896)"></path><path d="M14.0447 53L10.2767 44.54H11.9447L14.9807 51.644H14.4767L17.5127 44.54H19.1207L15.3527 53H14.0447ZM19.9871 53V46.94H21.4871V53H19.9871ZM19.9031 45.8V44.336H21.5711V45.8H19.9031ZM23.254 53V48.488C23.254 48.232 23.246 47.972 23.23 47.708C23.222 47.444 23.202 47.188 23.17 46.94H24.622L24.79 48.596H24.55C24.63 48.196 24.762 47.864 24.946 47.6C25.138 47.336 25.37 47.14 25.642 47.012C25.914 46.884 26.21 46.82 26.53 46.82C26.674 46.82 26.79 46.828 26.878 46.844C26.966 46.852 27.054 46.872 27.142 46.904L27.13 48.224C26.978 48.16 26.846 48.12 26.734 48.104C26.63 48.088 26.498 48.08 26.338 48.08C25.994 48.08 25.702 48.152 25.462 48.296C25.23 48.44 25.054 48.64 24.934 48.896C24.822 49.152 24.766 49.444 24.766 49.772V53H23.254ZM31.0588 53.12C30.3388 53.12 29.7948 52.932 29.4268 52.556C29.0588 52.18 28.8748 51.616 28.8748 50.864V48.068H27.7108V46.94H28.8748V45.392L30.3748 45.008V46.94H31.9948V48.068H30.3748V50.768C30.3748 51.184 30.4548 51.476 30.6148 51.644C30.7748 51.812 30.9948 51.896 31.2748 51.896C31.4268 51.896 31.5548 51.884 31.6588 51.86C31.7708 51.836 31.8788 51.804 31.9828 51.764V52.952C31.8468 53.008 31.6948 53.048 31.5268 53.072C31.3668 53.104 31.2108 53.12 31.0588 53.12ZM35.3477 53.12C34.6037 53.12 34.0477 52.916 33.6797 52.508C33.3117 52.1 33.1277 51.476 33.1277 50.636V46.94H34.6277V50.624C34.6277 51.072 34.7197 51.404 34.9037 51.62C35.0877 51.828 35.3677 51.932 35.7437 51.932C36.1677 51.932 36.5117 51.788 36.7757 51.5C37.0477 51.212 37.1837 50.832 37.1837 50.36V46.94H38.6837V53H37.2197V51.764H37.3877C37.2117 52.196 36.9437 52.532 36.5837 52.772C36.2317 53.004 35.8197 53.12 35.3477 53.12ZM42.8021 53.12C42.2741 53.12 41.8101 52.996 41.4101 52.748C41.0101 52.492 40.6981 52.128 40.4741 51.656C40.2501 51.184 40.1381 50.62 40.1381 49.964C40.1381 49.308 40.2501 48.748 40.4741 48.284C40.6981 47.812 41.0101 47.452 41.4101 47.204C41.8101 46.948 42.2741 46.82 42.8021 46.82C43.3141 46.82 43.7621 46.948 44.1461 47.204C44.5381 47.452 44.7981 47.788 44.9261 48.212H44.7941L44.9261 46.94H46.3661C46.3421 47.188 46.3181 47.44 46.2941 47.696C46.2781 47.952 46.2701 48.204 46.2701 48.452V53H44.7821L44.7701 51.752H44.9141C44.7861 52.168 44.5261 52.5 44.1341 52.748C43.7421 52.996 43.2981 53.12 42.8021 53.12ZM43.2221 51.968C43.6941 51.968 44.0741 51.804 44.3621 51.476C44.6501 51.14 44.7941 50.636 44.7941 49.964C44.7941 49.292 44.6501 48.792 44.3621 48.464C44.0741 48.136 43.6941 47.972 43.2221 47.972C42.7501 47.972 42.3701 48.136 42.0821 48.464C41.7941 48.792 41.6501 49.292 41.6501 49.964C41.6501 50.636 41.7901 51.14 42.0701 51.476C42.3581 51.804 42.7421 51.968 43.2221 51.968ZM48.0535 53V44.168H49.5535V53H48.0535ZM54.8954 53V44.54H58.6034C59.5234 44.54 60.2314 44.736 60.7274 45.128C61.2234 45.512 61.4714 46.048 61.4714 46.736C61.4714 47.248 61.3194 47.68 61.0154 48.032C60.7114 48.384 60.2914 48.62 59.7554 48.74V48.56C60.3714 48.648 60.8474 48.872 61.1834 49.232C61.5274 49.584 61.6994 50.052 61.6994 50.636C61.6994 51.388 61.4394 51.972 60.9194 52.388C60.3994 52.796 59.6754 53 58.7474 53H54.8954ZM56.3834 51.824H58.5674C59.0874 51.824 59.4914 51.728 59.7794 51.536C60.0674 51.336 60.2114 51.012 60.2114 50.564C60.2114 50.108 60.0674 49.784 59.7794 49.592C59.4914 49.392 59.0874 49.292 58.5674 49.292H56.3834V51.824ZM56.3834 48.128H58.3394C58.8914 48.128 59.2994 48.028 59.5634 47.828C59.8354 47.62 59.9714 47.316 59.9714 46.916C59.9714 46.516 59.8354 46.216 59.5634 46.016C59.2994 45.808 58.8914 45.704 58.3394 45.704H56.3834V48.128ZM65.5505 53.12C65.0225 53.12 64.5585 52.996 64.1585 52.748C63.7585 52.492 63.4465 52.128 63.2225 51.656C62.9985 51.184 62.8865 50.62 62.8865 49.964C62.8865 49.308 62.9985 48.748 63.2225 48.284C63.4465 47.812 63.7585 47.452 64.1585 47.204C64.5585 46.948 65.0225 46.82 65.5505 46.82C66.0625 46.82 66.5105 46.948 66.8945 47.204C67.2865 47.452 67.5465 47.788 67.6745 48.212H67.5425L67.6745 46.94H69.1145C69.0905 47.188 69.0665 47.44 69.0425 47.696C69.0265 47.952 69.0185 48.204 69.0185 48.452V53H67.5305L67.5185 51.752H67.6625C67.5345 52.168 67.2745 52.5 66.8825 52.748C66.4905 52.996 66.0465 53.12 65.5505 53.12ZM65.9705 51.968C66.4425 51.968 66.8225 51.804 67.1105 51.476C67.3985 51.14 67.5425 50.636 67.5425 49.964C67.5425 49.292 67.3985 48.792 67.1105 48.464C66.8225 48.136 66.4425 47.972 65.9705 47.972C65.4985 47.972 65.1185 48.136 64.8305 48.464C64.5425 48.792 64.3985 49.292 64.3985 49.964C64.3985 50.636 64.5385 51.14 64.8185 51.476C65.1065 51.804 65.4905 51.968 65.9705 51.968ZM74.2699 53.12C73.7579 53.12 73.3099 52.996 72.9259 52.748C72.5419 52.492 72.2859 52.148 72.1579 51.716H72.2899V53H70.8019V44.168H72.3019V48.176H72.1579C72.2939 47.76 72.5539 47.432 72.9379 47.192C73.3219 46.944 73.7659 46.82 74.2699 46.82C74.8059 46.82 75.2739 46.948 75.6739 47.204C76.0739 47.46 76.3859 47.824 76.6099 48.296C76.8339 48.76 76.9459 49.32 76.9459 49.976C76.9459 50.632 76.8339 51.196 76.6099 51.668C76.3859 52.132 76.0699 52.492 75.6619 52.748C75.2619 52.996 74.7979 53.12 74.2699 53.12ZM73.8499 51.968C74.3219 51.968 74.7019 51.804 74.9899 51.476C75.2859 51.148 75.4339 50.648 75.4339 49.976C75.4339 49.304 75.2859 48.804 74.9899 48.476C74.7019 48.14 74.3219 47.972 73.8499 47.972C73.3779 47.972 72.9979 48.136 72.7099 48.464C72.4219 48.792 72.2779 49.292 72.2779 49.964C72.2779 50.636 72.4219 51.14 72.7099 51.476C72.9979 51.804 73.3779 51.968 73.8499 51.968ZM78.1562 55.724L77.8082 54.536C78.1842 54.456 78.5002 54.364 78.7562 54.26C79.0122 54.156 79.2242 54.02 79.3922 53.852C79.5602 53.684 79.7002 53.468 79.8122 53.204L80.1122 52.496L80.0762 53.084L77.4362 46.94H79.0322L80.9282 51.668H80.5802L82.4882 46.94H84.0002L81.2402 53.336C81.0562 53.768 80.8562 54.124 80.6402 54.404C80.4242 54.692 80.1922 54.92 79.9442 55.088C79.6962 55.264 79.4242 55.4 79.1282 55.496C78.8322 55.592 78.5082 55.668 78.1562 55.724ZM86.9846 53.12C86.4646 53.12 85.9846 53.06 85.5446 52.94C85.1126 52.812 84.7486 52.636 84.4526 52.412L84.8726 51.404C85.1766 51.612 85.5126 51.772 85.8806 51.884C86.2486 51.996 86.6206 52.052 86.9966 52.052C87.3966 52.052 87.6926 51.984 87.8846 51.848C88.0846 51.712 88.1846 51.528 88.1846 51.296C88.1846 51.112 88.1206 50.968 87.9926 50.864C87.8726 50.752 87.6766 50.668 87.4046 50.612L86.2046 50.384C85.6926 50.272 85.3006 50.08 85.0286 49.808C84.7646 49.536 84.6326 49.18 84.6326 48.74C84.6326 48.364 84.7326 48.032 84.9326 47.744C85.1406 47.456 85.4326 47.232 85.8086 47.072C86.1926 46.904 86.6406 46.82 87.1526 46.82C87.6006 46.82 88.0206 46.88 88.4126 47C88.8126 47.12 89.1486 47.3 89.4206 47.54L88.9886 48.512C88.7406 48.312 88.4566 48.156 88.1366 48.044C87.8166 47.932 87.5046 47.876 87.2006 47.876C86.7846 47.876 86.4806 47.952 86.2886 48.104C86.0966 48.248 86.0006 48.436 86.0006 48.668C86.0006 48.844 86.0566 48.992 86.1686 49.112C86.2886 49.224 86.4726 49.308 86.7206 49.364L87.9206 49.592C88.4566 49.696 88.8606 49.88 89.1326 50.144C89.4126 50.4 89.5526 50.752 89.5526 51.2C89.5526 51.6 89.4446 51.944 89.2286 52.232C89.0126 52.52 88.7126 52.74 88.3286 52.892C87.9446 53.044 87.4966 53.12 86.9846 53.12ZM90.9863 53V46.94H92.4863V53H90.9863ZM90.9023 45.8V44.336H92.5703V45.8H90.9023ZM96.8572 53.12C96.1372 53.12 95.5932 52.932 95.2252 52.556C94.8572 52.18 94.6732 51.616 94.6732 50.864V48.068H93.5092V46.94H94.6732V45.392L96.1732 45.008V46.94H97.7932V48.068H96.1732V50.768C96.1732 51.184 96.2532 51.476 96.4132 51.644C96.5732 51.812 96.7932 51.896 97.0732 51.896C97.2252 51.896 97.3532 51.884 97.4572 51.86C97.5692 51.836 97.6772 51.804 97.7812 51.764V52.952C97.6452 53.008 97.4932 53.048 97.3252 53.072C97.1652 53.104 97.0092 53.12 96.8572 53.12ZM101.214 53.12C100.494 53.12 99.9503 52.932 99.5823 52.556C99.2143 52.18 99.0303 51.616 99.0303 50.864V48.068H97.8663V46.94H99.0303V45.392L100.53 45.008V46.94H102.15V48.068H100.53V50.768C100.53 51.184 100.61 51.476 100.77 51.644C100.93 51.812 101.15 51.896 101.43 51.896C101.582 51.896 101.71 51.884 101.814 51.86C101.926 51.836 102.034 51.804 102.138 51.764V52.952C102.002 53.008 101.85 53.048 101.682 53.072C101.522 53.104 101.366 53.12 101.214 53.12ZM103.319 53V46.94H104.819V53H103.319ZM103.235 45.8V44.336H104.903V45.8H103.235ZM106.598 53V48.452C106.598 48.204 106.59 47.952 106.574 47.696C106.558 47.44 106.534 47.188 106.502 46.94H107.954L108.074 48.14H107.93C108.122 47.716 108.406 47.392 108.782 47.168C109.158 46.936 109.594 46.82 110.09 46.82C110.802 46.82 111.338 47.02 111.698 47.42C112.058 47.82 112.238 48.444 112.238 49.292V53H110.738V49.364C110.738 48.876 110.642 48.528 110.45 48.32C110.266 48.104 109.986 47.996 109.61 47.996C109.146 47.996 108.778 48.14 108.506 48.428C108.234 48.716 108.098 49.1 108.098 49.58V53H106.598ZM116.786 55.688C116.226 55.688 115.718 55.628 115.262 55.508C114.814 55.388 114.414 55.204 114.062 54.956L114.386 53.876C114.618 54.028 114.858 54.152 115.106 54.248C115.354 54.344 115.61 54.416 115.874 54.464C116.138 54.512 116.406 54.536 116.678 54.536C117.238 54.536 117.654 54.396 117.926 54.116C118.206 53.844 118.346 53.452 118.346 52.94V51.488H118.466C118.338 51.904 118.078 52.236 117.686 52.484C117.302 52.732 116.858 52.856 116.354 52.856C115.81 52.856 115.334 52.736 114.926 52.496C114.526 52.248 114.214 51.896 113.99 51.44C113.766 50.984 113.654 50.448 113.654 49.832C113.654 49.216 113.766 48.684 113.99 48.236C114.214 47.78 114.526 47.432 114.926 47.192C115.334 46.944 115.81 46.82 116.354 46.82C116.866 46.82 117.31 46.944 117.686 47.192C118.07 47.432 118.326 47.76 118.454 48.176L118.346 48.104L118.466 46.94H119.918C119.886 47.188 119.862 47.44 119.846 47.696C119.83 47.952 119.822 48.204 119.822 48.452V52.76C119.822 53.712 119.562 54.436 119.042 54.932C118.53 55.436 117.778 55.688 116.786 55.688ZM116.762 51.704C117.242 51.704 117.622 51.544 117.902 51.224C118.19 50.896 118.334 50.432 118.334 49.832C118.334 49.232 118.19 48.772 117.902 48.452C117.622 48.132 117.242 47.972 116.762 47.972C116.274 47.972 115.886 48.132 115.598 48.452C115.31 48.772 115.166 49.232 115.166 49.832C115.166 50.432 115.31 50.896 115.598 51.224C115.886 51.544 116.274 51.704 116.762 51.704Z" fill="white"></path><g clip-path="url(#clip0_641_11896)"><path d="M63.6772 23.021C64.1087 23.021 64.4585 22.6712 64.4585 22.2397C64.4585 21.8083 64.1087 21.4585 63.6772 21.4585C63.2458 21.4585 62.896 21.8083 62.896 22.2397C62.896 22.6712 63.2458 23.021 63.6772 23.021Z" fill="white"></path><path d="M67.3228 23.021C67.7542 23.021 68.104 22.6712 68.104 22.2397C68.104 21.8083 67.7542 21.4585 67.3228 21.4585C66.8913 21.4585 66.5415 21.8083 66.5415 22.2397C66.5415 22.6712 66.8913 23.021 67.3228 23.021Z" fill="white"></path><path d="M66.2323 24.8302C65.9104 25.1729 65.0885 25.1729 64.7677 24.8302C64.4739 24.5166 63.9781 24.4989 63.6635 24.7947C63.3479 25.0895 63.3333 25.5843 63.6281 25.8989C64.0854 26.3864 64.7677 26.6666 65.5 26.6666C66.2323 26.6666 66.9145 26.3864 67.3718 25.8989C67.6666 25.5843 67.652 25.0895 67.3364 24.7947C67.0208 24.4989 66.527 24.5166 66.2323 24.8302Z" fill="white"></path><path d="M72.0104 10H58.9896C57.4094 10 56.125 11.2844 56.125 12.8646V32.1354C56.125 33.7156 57.4094 35 58.9896 35H72.0104C73.5906 35 74.875 33.7156 74.875 32.1354V12.8646C74.875 11.2844 73.5906 10 72.0104 10ZM70.7083 23.5792C70.7083 23.9708 70.6625 24.3552 70.5729 24.7219C70.0885 26.6646 68.2948 28.75 65.5 28.75C62.7052 28.75 60.9115 26.6646 60.4271 24.726C60.3375 24.3552 60.2917 23.9708 60.2917 23.5792V22.1135C60.2917 19.5146 62.7031 18.2552 65.0865 18.124L65.425 17.4437C65.5667 17.1542 65.4187 16.9302 65.3479 16.8479C65.2781 16.7656 65.0771 16.5865 64.7771 16.6906C64.399 16.8177 64.0031 16.6104 63.8781 16.2312C63.7542 15.851 63.9562 15.4406 64.3271 15.3146C65.0906 15.0552 65.8927 15.2771 66.4187 15.8969C66.9458 16.5156 67.051 17.3583 66.6937 18.0948L66.6406 18.2021C68.7635 18.5292 70.7083 19.7802 70.7083 22.1135V23.5792Z" fill="white"></path></g><defs><linearGradient id="paint0_linear_641_11896" x1="159" y1="34" x2="0.0468742" y2="32.6161" gradientUnits="userSpaceOnUse"><stop stop-color="#0461A5"></stop><stop offset="1" stop-color="#0E7AC9"></stop></linearGradient><clipPath id="clip0_641_11896"><rect width="25" height="25" fill="white" transform="translate(53 10)"></rect></clipPath></defs></svg>