<svg xmlns="http://www.w3.org/2000/svg" width="140" height="71" viewBox="0 0 140 71" fill="none"><path d="M133.794 6.93044C135.278 5.39745 137.738 6.55529 137.002 8.55781C134.258 16.0152 128.59 26.5547 117.399 32.5905C116.731 32.9511 116.293 33.6435 116.293 34.4031V49.2188C116.293 54.6998 114.176 59.6698 110.711 63.3944C108.662 65.6246 106.115 67.402 103.25 68.558C101.46 69.2934 99.5536 69.7738 97.5501 69.9679C97.4251 69.9801 97.3004 70.0039 97.1748 70.0069C97.1449 70.0076 97.1161 70.0076 97.0909 70.0076C96.8987 70.0181 96.6946 70.0419 96.4905 70.0419C96.1508 70.0643 95.7888 70.0762 95.4372 70.0762H20.8678C18.8297 70.0762 16.8602 69.7812 14.9905 69.2374C14.323 69.0333 13.666 68.8069 13.0209 68.5476C5.39013 65.4548 0 57.9596 0 49.2188V22.5885C0 11.0618 9.35302 1.70881 20.8678 1.70881H95.4372C104.597 1.70881 112.367 7.63107 115.169 15.8513C115.534 16.9231 116.646 17.6032 117.72 17.2441C122.284 15.7183 128.171 12.7394 133.794 6.93044Z" fill="url(#paint0_linear_616_2543)"></path><path d="M22.936 53V44.54H26.692C27.62 44.54 28.328 44.764 28.816 45.212C29.304 45.66 29.548 46.276 29.548 47.06C29.548 47.836 29.304 48.452 28.816 48.908C28.328 49.364 27.62 49.592 26.692 49.592H24.484V53H22.936ZM24.484 48.368H26.512C27.024 48.368 27.408 48.256 27.664 48.032C27.92 47.8 28.048 47.476 28.048 47.06C28.048 46.644 27.92 46.324 27.664 46.1C27.408 45.868 27.024 45.752 26.512 45.752H24.484V48.368ZM33.5932 53.12C32.5772 53.12 31.7812 52.84 31.2052 52.28C30.6292 51.72 30.3412 50.952 30.3412 49.976C30.3412 49.344 30.4652 48.792 30.7132 48.32C30.9612 47.848 31.3052 47.48 31.7452 47.216C32.1932 46.952 32.7132 46.82 33.3052 46.82C33.8892 46.82 34.3772 46.944 34.7692 47.192C35.1612 47.44 35.4572 47.788 35.6572 48.236C35.8652 48.684 35.9692 49.208 35.9692 49.808V50.204H31.5532V49.412H34.9012L34.6972 49.58C34.6972 49.02 34.5772 48.592 34.3372 48.296C34.1052 48 33.7652 47.852 33.3172 47.852C32.8212 47.852 32.4372 48.028 32.1652 48.38C31.9012 48.732 31.7692 49.224 31.7692 49.856V50.012C31.7692 50.668 31.9292 51.16 32.2492 51.488C32.5772 51.808 33.0372 51.968 33.6292 51.968C33.9732 51.968 34.2932 51.924 34.5892 51.836C34.8932 51.74 35.1812 51.588 35.4532 51.38L35.8972 52.388C35.6092 52.62 35.2652 52.8 34.8652 52.928C34.4652 53.056 34.0412 53.12 33.5932 53.12ZM39.5494 53.12C39.0294 53.12 38.5494 53.06 38.1094 52.94C37.6774 52.812 37.3134 52.636 37.0174 52.412L37.4374 51.404C37.7414 51.612 38.0774 51.772 38.4454 51.884C38.8134 51.996 39.1854 52.052 39.5614 52.052C39.9614 52.052 40.2574 51.984 40.4494 51.848C40.6494 51.712 40.7494 51.528 40.7494 51.296C40.7494 51.112 40.6854 50.968 40.5574 50.864C40.4374 50.752 40.2414 50.668 39.9694 50.612L38.7694 50.384C38.2574 50.272 37.8654 50.08 37.5934 49.808C37.3294 49.536 37.1974 49.18 37.1974 48.74C37.1974 48.364 37.2974 48.032 37.4974 47.744C37.7054 47.456 37.9974 47.232 38.3734 47.072C38.7574 46.904 39.2054 46.82 39.7174 46.82C40.1654 46.82 40.5854 46.88 40.9774 47C41.3774 47.12 41.7134 47.3 41.9854 47.54L41.5534 48.512C41.3054 48.312 41.0214 48.156 40.7014 48.044C40.3814 47.932 40.0694 47.876 39.7654 47.876C39.3494 47.876 39.0454 47.952 38.8534 48.104C38.6614 48.248 38.5654 48.436 38.5654 48.668C38.5654 48.844 38.6214 48.992 38.7334 49.112C38.8534 49.224 39.0374 49.308 39.2854 49.364L40.4854 49.592C41.0214 49.696 41.4254 49.88 41.6974 50.144C41.9774 50.4 42.1174 50.752 42.1174 51.2C42.1174 51.6 42.0094 51.944 41.7934 52.232C41.5774 52.52 41.2774 52.74 40.8934 52.892C40.5094 53.044 40.0614 53.12 39.5494 53.12ZM46.0846 53.12C45.3646 53.12 44.8206 52.932 44.4526 52.556C44.0846 52.18 43.9006 51.616 43.9006 50.864V48.068H42.7366V46.94H43.9006V45.392L45.4006 45.008V46.94H47.0206V48.068H45.4006V50.768C45.4006 51.184 45.4806 51.476 45.6406 51.644C45.8006 51.812 46.0206 51.896 46.3006 51.896C46.4526 51.896 46.5806 51.884 46.6846 51.86C46.7966 51.836 46.9046 51.804 47.0086 51.764V52.952C46.8726 53.008 46.7206 53.048 46.5526 53.072C46.3926 53.104 46.2366 53.12 46.0846 53.12ZM55.6884 53.12C54.8084 53.12 54.0524 52.944 53.4204 52.592C52.7964 52.232 52.3164 51.728 51.9804 51.08C51.6444 50.424 51.4764 49.652 51.4764 48.764C51.4764 47.876 51.6444 47.108 51.9804 46.46C52.3164 45.812 52.7964 45.312 53.4204 44.96C54.0524 44.6 54.8084 44.42 55.6884 44.42C56.2804 44.42 56.8124 44.504 57.2844 44.672C57.7644 44.84 58.1764 45.088 58.5204 45.416L58.0164 46.64C57.6404 46.336 57.2764 46.12 56.9244 45.992C56.5804 45.856 56.1844 45.788 55.7364 45.788C54.8804 45.788 54.2244 46.048 53.7684 46.568C53.3204 47.08 53.0964 47.812 53.0964 48.764C53.0964 49.716 53.3204 50.452 53.7684 50.972C54.2244 51.492 54.8804 51.752 55.7364 51.752C56.1844 51.752 56.5804 51.688 56.9244 51.56C57.2764 51.424 57.6404 51.2 58.0164 50.888L58.5204 52.112C58.1764 52.432 57.7644 52.68 57.2844 52.856C56.8124 53.032 56.2804 53.12 55.6884 53.12ZM62.3114 53.12C61.6874 53.12 61.1474 52.992 60.6914 52.736C60.2354 52.48 59.8794 52.116 59.6234 51.644C59.3754 51.172 59.2514 50.612 59.2514 49.964C59.2514 49.316 59.3754 48.76 59.6234 48.296C59.8794 47.824 60.2354 47.46 60.6914 47.204C61.1474 46.948 61.6874 46.82 62.3114 46.82C62.9354 46.82 63.4754 46.948 63.9314 47.204C64.3954 47.46 64.7514 47.824 64.9994 48.296C65.2554 48.76 65.3834 49.316 65.3834 49.964C65.3834 50.612 65.2554 51.172 64.9994 51.644C64.7514 52.116 64.3954 52.48 63.9314 52.736C63.4754 52.992 62.9354 53.12 62.3114 53.12ZM62.3114 51.968C62.7834 51.968 63.1594 51.804 63.4394 51.476C63.7194 51.14 63.8594 50.636 63.8594 49.964C63.8594 49.292 63.7194 48.792 63.4394 48.464C63.1594 48.136 62.7834 47.972 62.3114 47.972C61.8394 47.972 61.4634 48.136 61.1834 48.464C60.9034 48.792 60.7634 49.292 60.7634 49.964C60.7634 50.636 60.9034 51.14 61.1834 51.476C61.4634 51.804 61.8394 51.968 62.3114 51.968ZM66.8269 53V48.452C66.8269 48.204 66.8189 47.952 66.8029 47.696C66.7869 47.44 66.7629 47.188 66.7309 46.94H68.1829L68.3029 48.14H68.1589C68.3509 47.716 68.6349 47.392 69.0109 47.168C69.3869 46.936 69.8229 46.82 70.3189 46.82C71.0309 46.82 71.5669 47.02 71.9269 47.42C72.2869 47.82 72.4669 48.444 72.4669 49.292V53H70.9669V49.364C70.9669 48.876 70.8709 48.528 70.6789 48.32C70.4949 48.104 70.2149 47.996 69.8389 47.996C69.3749 47.996 69.0069 48.14 68.7349 48.428C68.4629 48.716 68.3269 49.1 68.3269 49.58V53H66.8269ZM76.7994 53.12C76.0794 53.12 75.5354 52.932 75.1674 52.556C74.7994 52.18 74.6154 51.616 74.6154 50.864V48.068H73.4514V46.94H74.6154V45.392L76.1154 45.008V46.94H77.7354V48.068H76.1154V50.768C76.1154 51.184 76.1954 51.476 76.3554 51.644C76.5154 51.812 76.7354 51.896 77.0154 51.896C77.1674 51.896 77.2954 51.884 77.3994 51.86C77.5114 51.836 77.6194 51.804 77.7234 51.764V52.952C77.5874 53.008 77.4354 53.048 77.2674 53.072C77.1074 53.104 76.9514 53.12 76.7994 53.12ZM78.8923 53V48.488C78.8923 48.232 78.8843 47.972 78.8683 47.708C78.8603 47.444 78.8403 47.188 78.8083 46.94H80.2603L80.4283 48.596H80.1883C80.2683 48.196 80.4003 47.864 80.5843 47.6C80.7763 47.336 81.0083 47.14 81.2803 47.012C81.5523 46.884 81.8483 46.82 82.1683 46.82C82.3123 46.82 82.4283 46.828 82.5163 46.844C82.6043 46.852 82.6923 46.872 82.7803 46.904L82.7683 48.224C82.6163 48.16 82.4843 48.12 82.3723 48.104C82.2683 48.088 82.1363 48.08 81.9763 48.08C81.6323 48.08 81.3403 48.152 81.1003 48.296C80.8683 48.44 80.6923 48.64 80.5723 48.896C80.4603 49.152 80.4043 49.444 80.4043 49.772V53H78.8923ZM86.4075 53.12C85.7835 53.12 85.2435 52.992 84.7875 52.736C84.3315 52.48 83.9755 52.116 83.7195 51.644C83.4715 51.172 83.3475 50.612 83.3475 49.964C83.3475 49.316 83.4715 48.76 83.7195 48.296C83.9755 47.824 84.3315 47.46 84.7875 47.204C85.2435 46.948 85.7835 46.82 86.4075 46.82C87.0315 46.82 87.5715 46.948 88.0275 47.204C88.4915 47.46 88.8475 47.824 89.0955 48.296C89.3515 48.76 89.4795 49.316 89.4795 49.964C89.4795 50.612 89.3515 51.172 89.0955 51.644C88.8475 52.116 88.4915 52.48 88.0275 52.736C87.5715 52.992 87.0315 53.12 86.4075 53.12ZM86.4075 51.968C86.8795 51.968 87.2555 51.804 87.5355 51.476C87.8155 51.14 87.9555 50.636 87.9555 49.964C87.9555 49.292 87.8155 48.792 87.5355 48.464C87.2555 48.136 86.8795 47.972 86.4075 47.972C85.9355 47.972 85.5595 48.136 85.2795 48.464C84.9995 48.792 84.8595 49.292 84.8595 49.964C84.8595 50.636 84.9995 51.14 85.2795 51.476C85.5595 51.804 85.9355 51.968 86.4075 51.968ZM90.923 53V44.168H92.423V53H90.923Z" fill="white"></path><g clip-path="url(#clip0_616_2543)"><path d="M46 33.0469C46 34.1255 46.8745 35 47.9531 35H59.1836C60.2623 35 61.1367 34.1255 61.1367 33.0469V32.8027H46V33.0469Z" fill="white"></path><path d="M61.1367 18.6426C61.1367 17.5639 60.2623 16.6895 59.1836 16.6895H47.9531C46.8745 16.6895 46 17.5639 46 18.6426V18.8867H61.1367V18.6426Z" fill="white"></path><path d="M66.3613 23.5254C67.3052 23.5254 68.0703 22.7603 68.0703 21.8164V17.9102H69.291C69.6955 17.9102 70.0234 17.5822 70.0234 17.1777C70.0234 16.7732 69.6955 16.4453 69.291 16.4453H68.0703C68.0703 15.7636 67.6711 15.1753 67.0938 14.901V12.6855C67.0938 12.0125 67.6414 11.4648 68.3145 11.4648H69.291C69.6955 11.4648 70.0234 11.1369 70.0234 10.7324C70.0234 10.3279 69.6955 10 69.291 10H68.3145C66.8336 10 65.6289 11.2047 65.6289 12.6855V14.901C65.0516 15.1753 64.6523 15.7636 64.6523 16.4453V21.8164C64.6523 22.7603 65.4175 23.5254 66.3613 23.5254Z" fill="white"></path><path d="M52.6221 27.8272C52.9089 27.9647 53.23 28.0419 53.5688 28.0419C54.7804 28.0419 55.7661 27.0563 55.7661 25.8447C55.7661 25.5059 55.6889 25.1848 55.5513 24.8979L52.6221 27.8272Z" fill="white"></path><path d="M53.5684 23.6475C52.3568 23.6475 51.3711 24.6332 51.3711 25.8447C51.3711 26.1835 51.4483 26.5046 51.5858 26.7915L54.5151 23.8622C54.2282 23.7247 53.9072 23.6475 53.5684 23.6475Z" fill="white"></path><path d="M56.498 13.0273H54.3008V11.4648H56.0098C56.4143 11.4648 56.7422 11.1369 56.7422 10.7324C56.7422 10.3279 56.4143 10 56.0098 10H51.127C50.7225 10 50.3945 10.3279 50.3945 10.7324C50.3945 11.1369 50.7225 11.4648 51.127 11.4648H52.8359V13.0273H50.6387C49.4271 13.0273 48.4414 14.013 48.4414 15.2246H58.6953C58.6953 14.013 57.7096 13.0273 56.498 13.0273Z" fill="white"></path><path d="M68.8027 30.6055H67.8262C67.4223 30.6055 67.0938 30.2769 67.0938 29.873V24.904C66.8584 24.9598 66.6134 24.9902 66.3613 24.9902C66.1092 24.9902 65.8642 24.9598 65.6289 24.904V29.873C65.6289 31.0846 66.6146 32.0703 67.8262 32.0703H68.8027C69.2066 32.0703 69.5352 32.3989 69.5352 32.8027C69.5352 33.2066 69.2066 33.5352 68.8027 33.5352H64.8965C64.4926 33.5352 64.1641 33.2066 64.1641 32.8027V29.873C64.1641 28.6615 63.1784 27.6758 61.9668 27.6758H61.1367V20.3516H46V31.3379H61.1367V29.1406H61.9668C62.3707 29.1406 62.6992 29.4692 62.6992 29.873V32.8027C62.6992 34.0143 63.6849 35 64.8965 35H68.8027C70.0143 35 71 34.0143 71 32.8027C71 31.5912 70.0143 30.6055 68.8027 30.6055ZM53.5684 29.5068C51.5491 29.5068 49.9062 27.864 49.9062 25.8447C49.9062 23.8254 51.5491 22.1826 53.5684 22.1826C55.5876 22.1826 57.2305 23.8254 57.2305 25.8447C57.2305 27.864 55.5876 29.5068 53.5684 29.5068Z" fill="white"></path></g><defs><linearGradient id="paint0_linear_616_2543" x1="139.357" y1="34.037" x2="0.0386175" y2="32.975" gradientUnits="userSpaceOnUse"><stop stop-color="#0461A5"></stop><stop offset="1" stop-color="#0E7AC9"></stop></linearGradient><clipPath id="clip0_616_2543"><rect width="25" height="25" fill="white" transform="translate(46 10)"></rect></clipPath></defs></svg>