<svg xmlns="http://www.w3.org/2000/svg" width="126" height="85" viewBox="0 0 126 85" fill="none"><path d="M0 19.8002V45.0797C0 56.0169 10.1189 64.8799 22.6024 64.8799H30.8145C31.4138 64.8799 31.8798 65.4066 31.7836 65.9982C30.697 72.6841 27.3047 77.3485 24.0895 80.3843C23.2321 81.1938 24.2093 83.4188 25.3344 83.066C28.7558 81.9932 31.8079 80.7087 34.5209 79.3111C37.6414 77.7121 40.3105 75.9485 42.563 74.1955C46.8146 70.8957 49.629 67.6064 51.3093 65.3003C51.5005 65.0378 51.804 64.8799 52.1288 64.8799H103.398C115.881 64.8799 126 56.0155 126 45.0797V19.8002C126 8.8644 115.881 0 103.398 0H22.6024C10.1189 0 0 8.8644 0 19.8002Z" fill="url(#paint0_linear_641_12076)"></path><path d="M19.0069 52V44.812H16.2109V43.54H23.3509V44.812H20.5549V52H19.0069ZM26.2731 52.12C25.6491 52.12 25.1091 51.992 24.6531 51.736C24.1971 51.48 23.8411 51.116 23.5851 50.644C23.3371 50.172 23.2131 49.612 23.2131 48.964C23.2131 48.316 23.3371 47.76 23.5851 47.296C23.8411 46.824 24.1971 46.46 24.6531 46.204C25.1091 45.948 25.6491 45.82 26.2731 45.82C26.8971 45.82 27.4371 45.948 27.8931 46.204C28.3571 46.46 28.7131 46.824 28.9611 47.296C29.2171 47.76 29.3451 48.316 29.3451 48.964C29.3451 49.612 29.2171 50.172 28.9611 50.644C28.7131 51.116 28.3571 51.48 27.8931 51.736C27.4371 51.992 26.8971 52.12 26.2731 52.12ZM26.2731 50.968C26.7451 50.968 27.1211 50.804 27.4011 50.476C27.6811 50.14 27.8211 49.636 27.8211 48.964C27.8211 48.292 27.6811 47.792 27.4011 47.464C27.1211 47.136 26.7451 46.972 26.2731 46.972C25.8011 46.972 25.4251 47.136 25.1451 47.464C24.8651 47.792 24.7251 48.292 24.7251 48.964C24.7251 49.636 24.8651 50.14 25.1451 50.476C25.4251 50.804 25.8011 50.968 26.2731 50.968ZM32.3515 52L29.9875 45.94H31.5355L33.2395 50.656H32.9275L34.6555 45.94H35.7235L37.4395 50.656H37.1635L38.8555 45.94H40.3195L37.9555 52H36.6355L34.8235 47.176H35.4595L33.6835 52H32.3515ZM41.4152 52V45.94H42.9152V52H41.4152ZM41.3312 44.8V43.336H42.9992V44.8H41.3312ZM44.6941 52V47.452C44.6941 47.204 44.6861 46.952 44.6701 46.696C44.6541 46.44 44.6301 46.188 44.5981 45.94H46.0501L46.1701 47.14H46.0261C46.2181 46.716 46.5021 46.392 46.8781 46.168C47.2541 45.936 47.6901 45.82 48.1861 45.82C48.8981 45.82 49.4341 46.02 49.7941 46.42C50.1541 46.82 50.3341 47.444 50.3341 48.292V52H48.8341V48.364C48.8341 47.876 48.7381 47.528 48.5461 47.32C48.3621 47.104 48.0821 46.996 47.7061 46.996C47.2421 46.996 46.8741 47.14 46.6021 47.428C46.3301 47.716 46.1941 48.1 46.1941 48.58V52H44.6941ZM54.8826 54.688C54.3226 54.688 53.8146 54.628 53.3586 54.508C52.9106 54.388 52.5106 54.204 52.1586 53.956L52.4826 52.876C52.7146 53.028 52.9546 53.152 53.2026 53.248C53.4506 53.344 53.7066 53.416 53.9706 53.464C54.2346 53.512 54.5026 53.536 54.7746 53.536C55.3346 53.536 55.7506 53.396 56.0226 53.116C56.3026 52.844 56.4426 52.452 56.4426 51.94V50.488H56.5626C56.4346 50.904 56.1746 51.236 55.7826 51.484C55.3986 51.732 54.9546 51.856 54.4506 51.856C53.9066 51.856 53.4306 51.736 53.0226 51.496C52.6226 51.248 52.3106 50.896 52.0866 50.44C51.8626 49.984 51.7506 49.448 51.7506 48.832C51.7506 48.216 51.8626 47.684 52.0866 47.236C52.3106 46.78 52.6226 46.432 53.0226 46.192C53.4306 45.944 53.9066 45.82 54.4506 45.82C54.9626 45.82 55.4066 45.944 55.7826 46.192C56.1666 46.432 56.4226 46.76 56.5506 47.176L56.4426 47.104L56.5626 45.94H58.0146C57.9826 46.188 57.9586 46.44 57.9426 46.696C57.9266 46.952 57.9186 47.204 57.9186 47.452V51.76C57.9186 52.712 57.6586 53.436 57.1386 53.932C56.6266 54.436 55.8746 54.688 54.8826 54.688ZM54.8586 50.704C55.3386 50.704 55.7186 50.544 55.9986 50.224C56.2866 49.896 56.4306 49.432 56.4306 48.832C56.4306 48.232 56.2866 47.772 55.9986 47.452C55.7186 47.132 55.3386 46.972 54.8586 46.972C54.3706 46.972 53.9826 47.132 53.6946 47.452C53.4066 47.772 53.2626 48.232 53.2626 48.832C53.2626 49.432 53.4066 49.896 53.6946 50.224C53.9826 50.544 54.3706 50.704 54.8586 50.704ZM66.2044 52.12C65.5244 52.12 64.8964 52.036 64.3204 51.868C63.7524 51.692 63.2644 51.452 62.8564 51.148L63.3364 49.936C63.6084 50.128 63.8924 50.292 64.1884 50.428C64.4844 50.556 64.8004 50.656 65.1364 50.728C65.4724 50.792 65.8284 50.824 66.2044 50.824C66.8364 50.824 67.2924 50.72 67.5724 50.512C67.8524 50.304 67.9924 50.032 67.9924 49.696C67.9924 49.4 67.8964 49.176 67.7044 49.024C67.5124 48.864 67.1684 48.732 66.6724 48.628L65.3164 48.352C64.5404 48.192 63.9604 47.924 63.5764 47.548C63.1924 47.172 63.0004 46.668 63.0004 46.036C63.0004 45.508 63.1404 45.048 63.4204 44.656C63.7004 44.264 64.0924 43.96 64.5964 43.744C65.1004 43.528 65.6884 43.42 66.3604 43.42C66.9604 43.42 67.5164 43.508 68.0284 43.684C68.5404 43.852 68.9684 44.096 69.3124 44.416L68.8324 45.568C68.4884 45.28 68.1124 45.068 67.7044 44.932C67.2964 44.788 66.8404 44.716 66.3364 44.716C65.7684 44.716 65.3244 44.828 65.0044 45.052C64.6924 45.268 64.5364 45.568 64.5364 45.952C64.5364 46.248 64.6324 46.484 64.8244 46.66C65.0244 46.836 65.3604 46.972 65.8324 47.068L67.1764 47.332C67.9764 47.492 68.5684 47.756 68.9524 48.124C69.3364 48.484 69.5284 48.972 69.5284 49.588C69.5284 50.092 69.3924 50.536 69.1204 50.92C68.8484 51.296 68.4644 51.592 67.9684 51.808C67.4724 52.016 66.8844 52.12 66.2044 52.12ZM73.9448 52.12C72.9288 52.12 72.1328 51.84 71.5568 51.28C70.9808 50.72 70.6928 49.952 70.6928 48.976C70.6928 48.344 70.8168 47.792 71.0648 47.32C71.3128 46.848 71.6568 46.48 72.0968 46.216C72.5448 45.952 73.0648 45.82 73.6568 45.82C74.2408 45.82 74.7288 45.944 75.1208 46.192C75.5128 46.44 75.8088 46.788 76.0088 47.236C76.2168 47.684 76.3208 48.208 76.3208 48.808V49.204H71.9048V48.412H75.2528L75.0488 48.58C75.0488 48.02 74.9288 47.592 74.6888 47.296C74.4568 47 74.1168 46.852 73.6688 46.852C73.1728 46.852 72.7888 47.028 72.5168 47.38C72.2528 47.732 72.1208 48.224 72.1208 48.856V49.012C72.1208 49.668 72.2808 50.16 72.6008 50.488C72.9288 50.808 73.3888 50.968 73.9808 50.968C74.3248 50.968 74.6448 50.924 74.9408 50.836C75.2448 50.74 75.5328 50.588 75.8048 50.38L76.2488 51.388C75.9608 51.62 75.6168 51.8 75.2168 51.928C74.8168 52.056 74.3928 52.12 73.9448 52.12ZM77.729 52V47.488C77.729 47.232 77.721 46.972 77.705 46.708C77.697 46.444 77.677 46.188 77.645 45.94H79.097L79.265 47.596H79.025C79.105 47.196 79.237 46.864 79.421 46.6C79.613 46.336 79.845 46.14 80.117 46.012C80.389 45.884 80.685 45.82 81.005 45.82C81.149 45.82 81.265 45.828 81.353 45.844C81.441 45.852 81.529 45.872 81.617 45.904L81.605 47.224C81.453 47.16 81.321 47.12 81.209 47.104C81.105 47.088 80.973 47.08 80.813 47.08C80.469 47.08 80.177 47.152 79.937 47.296C79.705 47.44 79.529 47.64 79.409 47.896C79.297 48.152 79.241 48.444 79.241 48.772V52H77.729ZM84.7412 52L82.1252 45.94H83.7212L85.6172 50.68H85.2452L87.1892 45.94H88.6892L86.0612 52H84.7412ZM89.6426 52V45.94H91.1426V52H89.6426ZM89.5586 44.8V43.336H91.2266V44.8H89.5586ZM95.7055 52.12C95.0815 52.12 94.5335 51.992 94.0615 51.736C93.5975 51.48 93.2375 51.116 92.9815 50.644C92.7255 50.164 92.5975 49.596 92.5975 48.94C92.5975 48.284 92.7255 47.724 92.9815 47.26C93.2455 46.796 93.6095 46.44 94.0735 46.192C94.5375 45.944 95.0815 45.82 95.7055 45.82C96.1055 45.82 96.4935 45.884 96.8695 46.012C97.2535 46.132 97.5655 46.308 97.8055 46.54L97.3495 47.584C97.1335 47.384 96.8895 47.236 96.6175 47.14C96.3535 47.036 96.0935 46.984 95.8375 46.984C95.3015 46.984 94.8815 47.152 94.5775 47.488C94.2815 47.824 94.1335 48.312 94.1335 48.952C94.1335 49.592 94.2815 50.084 94.5775 50.428C94.8815 50.772 95.3015 50.944 95.8375 50.944C96.0855 50.944 96.3415 50.896 96.6055 50.8C96.8775 50.704 97.1255 50.556 97.3495 50.356L97.8055 51.388C97.5575 51.62 97.2415 51.8 96.8575 51.928C96.4815 52.056 96.0975 52.12 95.7055 52.12ZM101.929 52.12C100.913 52.12 100.117 51.84 99.5412 51.28C98.9652 50.72 98.6772 49.952 98.6772 48.976C98.6772 48.344 98.8012 47.792 99.0492 47.32C99.2972 46.848 99.6412 46.48 100.081 46.216C100.529 45.952 101.049 45.82 101.641 45.82C102.225 45.82 102.713 45.944 103.105 46.192C103.497 46.44 103.793 46.788 103.993 47.236C104.201 47.684 104.305 48.208 104.305 48.808V49.204H99.8892V48.412H103.237L103.033 48.58C103.033 48.02 102.913 47.592 102.673 47.296C102.441 47 102.101 46.852 101.653 46.852C101.157 46.852 100.773 47.028 100.501 47.38C100.237 47.732 100.105 48.224 100.105 48.856V49.012C100.105 49.668 100.265 50.16 100.585 50.488C100.913 50.808 101.373 50.968 101.965 50.968C102.309 50.968 102.629 50.924 102.925 50.836C103.229 50.74 103.517 50.588 103.789 50.38L104.233 51.388C103.945 51.62 103.601 51.8 103.201 51.928C102.801 52.056 102.377 52.12 101.929 52.12ZM107.885 52.12C107.365 52.12 106.885 52.06 106.445 51.94C106.013 51.812 105.649 51.636 105.353 51.412L105.773 50.404C106.077 50.612 106.413 50.772 106.781 50.884C107.149 50.996 107.521 51.052 107.897 51.052C108.297 51.052 108.593 50.984 108.785 50.848C108.985 50.712 109.085 50.528 109.085 50.296C109.085 50.112 109.021 49.968 108.893 49.864C108.773 49.752 108.577 49.668 108.305 49.612L107.105 49.384C106.593 49.272 106.201 49.08 105.929 48.808C105.665 48.536 105.533 48.18 105.533 47.74C105.533 47.364 105.633 47.032 105.833 46.744C106.041 46.456 106.333 46.232 106.709 46.072C107.093 45.904 107.541 45.82 108.053 45.82C108.501 45.82 108.921 45.88 109.313 46C109.713 46.12 110.049 46.3 110.321 46.54L109.889 47.512C109.641 47.312 109.357 47.156 109.037 47.044C108.717 46.932 108.405 46.876 108.101 46.876C107.685 46.876 107.381 46.952 107.189 47.104C106.997 47.248 106.901 47.436 106.901 47.668C106.901 47.844 106.957 47.992 107.069 48.112C107.189 48.224 107.373 48.308 107.621 48.364L108.821 48.592C109.357 48.696 109.761 48.88 110.033 49.144C110.313 49.4 110.453 49.752 110.453 50.2C110.453 50.6 110.345 50.944 110.129 51.232C109.913 51.52 109.613 51.74 109.229 51.892C108.845 52.044 108.397 52.12 107.885 52.12Z" fill="white"></path><g clip-path="url(#clip0_641_12076)"><path d="M74.2501 23.5999L73.2501 23.3999C73.1001 23.3499 73.0001 23.2499 73.0001 23.1499L72.4501 21.0999C72.3001 20.4999 71.7501 20.0999 71.1501 20.0999H67.7001C67.2001 20.0999 66.7501 20.3499 66.5001 20.7999L65.1001 23.2999C65.0501 23.3999 65.0001 23.4499 64.9001 23.4499L62.7001 24.0999C62.1001 24.2499 61.7501 24.7999 61.7501 25.3999V26.4999C61.7501 27.2499 62.3501 27.8499 63.1001 27.8499H63.8501C63.9501 28.1999 64.1501 28.4999 64.4001 28.7499H60.8001V20.2499L70.1001 13.3999C70.3501 13.6499 70.7001 13.8499 71.0501 13.8999V15.0499C71.0501 15.7999 71.4001 16.5499 71.9501 16.9499C72.1501 17.0999 72.2501 17.3499 72.2001 17.6499C72.1501 17.8499 71.9501 18.0499 71.7501 18.0999C71.5001 18.1499 71.3001 18.0499 71.2001 17.9999C71.0501 17.8499 70.9501 17.6999 70.9501 17.4999C70.9501 17.2499 70.7001 16.9999 70.4501 16.9999C70.1501 16.9999 69.9501 17.2499 69.9501 17.4999C69.9501 17.9999 70.2001 18.4999 70.6001 18.7999C70.9001 19.0499 71.2501 19.1499 71.6001 19.1499C71.7501 19.1499 71.9001 19.1499 72.0501 19.0999C72.6001 18.9499 73.0501 18.4999 73.2001 17.9499C73.3501 17.2999 73.1501 16.5999 72.6001 16.1999C72.3001 15.9999 72.1001 15.5499 72.1001 15.0999V13.6499C72.5001 13.3999 72.7501 12.8999 72.7501 12.3999C72.7501 11.5499 72.1001 10.8999 71.2501 10.8999C70.4001 10.8999 69.7501 11.5499 69.7501 12.3999L60.7001 18.9999C60.5001 18.3999 59.9501 17.9999 59.3001 17.9999H56.3001C55.7501 17.9999 55.2501 18.2999 55.0001 18.7999L53.2501 22.3499C53.1501 22.5499 53.1001 22.7999 53.1001 22.9999V25.3499H53.9501C54.3001 25.3499 54.5501 25.5999 54.5501 25.9499V26.4999C54.5501 26.8499 54.3001 27.0999 53.9501 27.0999H53.0501V28.6999C52.4001 28.6999 51.8501 29.2499 51.8501 29.8999V30.8499C51.8501 31.4999 52.4001 32.0999 53.0501 32.0999H54.5001C54.5001 32.6499 54.7501 33.1499 55.1001 33.5499C55.5001 33.8999 56.0001 34.1499 56.5501 34.1499C57.7001 34.1499 58.6001 33.2499 58.6001 32.0999H64.0001C64.0001 32.6499 64.2501 33.1499 64.6001 33.5499C64.9501 33.8999 65.5001 34.1499 66.0501 34.1499C67.2001 34.1499 68.1001 33.2499 68.1001 32.0999H69.0001C69.0001 32.6499 69.2501 33.1499 69.6001 33.5499C70.0001 33.8999 70.5001 34.1499 71.0501 34.1499C72.2001 34.1499 73.1001 33.2499 73.1001 32.0999H73.5501C74.2501 32.0999 74.8001 31.5499 74.8001 30.8499V29.8999C74.8001 29.1999 74.2501 28.6999 73.5501 28.6999H72.6501C72.9001 28.4499 73.1001 28.1499 73.2001 27.7999H73.9001C74.6501 27.7999 75.2501 27.1999 75.2501 26.4499V24.9499C75.3001 24.2499 74.8501 23.6999 74.2501 23.5999ZM56.5501 33.0999C55.9501 33.0999 55.5001 32.6499 55.5001 32.0499C55.5001 31.4499 56.0001 30.9999 56.5501 30.9999C57.1501 30.9999 57.6001 31.4999 57.6001 32.0499C57.6001 32.6499 57.1001 33.0999 56.5501 33.0999ZM55.0001 22.9999L56.5501 19.8999H58.8001V22.9999H55.0001ZM59.0501 25.5499H58.6001C58.3501 25.5499 58.1001 25.3499 58.1001 25.0499C58.1001 24.7999 58.3501 24.5499 58.6001 24.5499H59.0501C59.3001 24.5499 59.5501 24.7999 59.5501 25.0499C59.5501 25.2999 59.3001 25.5499 59.0501 25.5499ZM69.5501 21.0499H71.1001C71.2501 21.0499 71.4001 21.1499 71.4501 21.2999L71.9001 22.9499H69.5501V21.0499ZM69.1001 24.9499C69.1001 25.2499 68.9001 25.4499 68.6001 25.4499H68.5501C68.2501 25.4499 68.0501 25.2499 68.0501 24.9499C68.0501 24.6999 68.2501 24.4499 68.5501 24.4499C68.8501 24.4499 69.1001 24.6999 69.1001 24.9499ZM67.3501 21.1999C67.4001 21.0999 67.5501 20.9999 67.6501 20.9999H68.5501V22.8999H66.3501L67.3501 21.1999ZM64.7001 27.2999C64.7001 27.1499 64.7501 26.9999 64.8001 26.8499C64.8501 26.6999 64.9501 26.5999 65.1001 26.5499C65.2501 26.4499 65.4001 26.3999 65.6001 26.3999H65.8001C66.2001 26.4999 66.5001 26.8499 66.5001 27.2999C66.5001 27.7999 66.1001 28.1999 65.6001 28.1999C65.1001 28.1999 64.7001 27.7999 64.7001 27.2999ZM66.0501 33.0999C65.4501 33.0999 65.0001 32.6499 65.0001 32.0499C65.0001 31.4999 65.5001 30.9999 66.0501 30.9999C66.6501 30.9999 67.1001 31.4999 67.1001 32.0499C67.1001 32.6499 66.6501 33.0999 66.0501 33.0999ZM66.8501 28.6999C67.1001 28.4499 67.3001 28.1499 67.4001 27.7999H69.5501C69.6501 28.1499 69.8501 28.4499 70.1001 28.6999H66.8501ZM71.1001 33.0999C70.5001 33.0999 70.0501 32.6499 70.0501 32.0499C70.0501 31.4499 70.5501 30.9999 71.1001 30.9999C71.7001 30.9999 72.1501 31.4999 72.1501 32.0499C72.1501 32.6499 71.6501 33.0999 71.1001 33.0999ZM71.4001 28.1999C70.9001 28.1999 70.5001 27.7999 70.5001 27.2999C70.5001 27.2499 70.5001 27.2499 70.5001 27.1999C70.5501 26.8499 70.7501 26.5499 71.1001 26.4499C71.2001 26.3999 71.3001 26.3999 71.4001 26.3999H71.6001C72.0001 26.4999 72.3001 26.8499 72.3001 27.2499C72.3001 27.7999 71.9001 28.1999 71.4001 28.1999Z" fill="white"></path></g><defs><linearGradient id="paint0_linear_641_12076" x1="126" y1="41.2857" x2="0.0316638" y2="40.57" gradientUnits="userSpaceOnUse"><stop stop-color="#0461A5"></stop><stop offset="1" stop-color="#0E7AC9"></stop></linearGradient><clipPath id="clip0_641_12076"><rect width="25" height="25" fill="white" transform="translate(51 10)"></rect></clipPath></defs></svg>