<svg xmlns="http://www.w3.org/2000/svg" width="1440" height="380" viewBox="0 0 1440 380" fill="none"><path d="M0 20C0 8.9543 8.95431 0 20 0L1420 0C1431.05 0 1440 8.95431 1440 20V360C1440 371.046 1431.05 380 1420 380H20C8.95432 380 0 371.046 0 360V20Z" fill="#E4F5FF"></path><g clip-path="url(#clip0_1106_860)"><path d="M20 37.6744C20 26.6287 28.9543 17.6744 40 17.6744L1400 17.6744C1411.05 17.6744 1420 26.6287 1420 37.6744V447.674C1420 458.72 1411.05 467.674 1400 467.674H40C28.9543 467.674 20 458.72 20 447.674V37.6744Z" fill="url(#paint0_linear_1106_860)"></path><path d="M184.606 128.561C49.0376 122.245 21.4708 201.515 -22.4137 183.206C-24.3908 95.694 -48.9813 -76.4518 -45.6642 -81.7253C-42.3471 -86.9989 429.981 -76.9307 692.562 -76.4841L693.128 8.84945C637.611 61.733 681.899 75.5917 480.305 72.9596C337.886 71.1001 336.355 135.632 184.606 128.561Z" fill="white" fill-opacity="0.04"></path><path d="M232.41 145.353C82.4978 138.367 52.0143 226.024 3.48671 205.779C1.30043 109.008 -25.8919 -81.3519 -22.2238 -87.1834C-18.5558 -93.0149 503.746 -81.8815 794.109 -81.3876L794.735 12.9745C733.344 71.4533 782.318 86.7783 559.394 83.8678C401.908 81.8115 400.214 153.171 232.41 145.353Z" fill="white" fill-opacity="0.04"></path><path d="M1228.04 294.852C1403.44 303.025 1439.11 200.463 1495.89 224.151C1498.45 337.377 1530.26 560.105 1525.97 566.928C1521.68 573.751 910.569 560.725 570.833 560.147L570.101 449.739C641.93 381.317 584.629 363.386 845.458 366.792C1029.72 369.198 1031.7 285.704 1228.04 294.852Z" fill="white" fill-opacity="0.04"></path><path d="M1166.19 273.128C1360.15 282.165 1399.59 168.752 1462.38 194.946C1465.21 320.152 1500.39 566.445 1495.64 573.99C1490.9 581.535 815.128 567.13 439.447 566.491L438.637 444.402C518.066 368.741 454.703 348.913 743.128 352.679C946.889 355.339 949.081 263.012 1166.19 273.128Z" fill="white" fill-opacity="0.04"></path></g><defs><linearGradient id="paint0_linear_1106_860" x1="95.5765" y1="475.206" x2="654.46" y2="-573.95" gradientUnits="userSpaceOnUse"><stop stop-color="#006EBE"></stop><stop offset="1" stop-color="#05497A"></stop></linearGradient><clipPath id="clip0_1106_860"><rect x="20" y="17.6744" width="1400" height="344.651" rx="20" fill="white"></rect></clipPath></defs></svg>