<svg xmlns="http://www.w3.org/2000/svg" width="132" height="97" viewBox="0 0 132 97" fill="none"><path d="M0.000843749 20.7905C0.000377759 20.7905 0 20.7909 0 20.7913V47.3282C0 56.0335 6.1113 63.4951 14.7794 66.5779C17.5324 67.565 20.539 68.1068 23.6859 68.1068H77.2218C78.0665 68.1068 78.8174 68.6386 79.1183 69.4279C80.215 72.3041 81.4223 74.8782 82.7038 77.1832C88.5586 87.7906 95.9021 92.7634 101.018 95.0673C102.816 95.8768 103.973 93.8085 102.801 92.2236C100.193 88.6984 98.2716 84.6184 96.8643 80.5496C95.632 77.0396 94.7749 73.5372 94.1866 70.4117C93.9594 69.2043 94.8994 68.1068 96.128 68.1068H108.314C108.722 68.1068 109.129 68.0949 109.521 68.0696C109.746 68.0696 109.971 68.0444 110.196 68.0325C110.24 68.0325 110.286 68.0325 110.333 68.0303C110.449 68.0248 110.564 68.0029 110.679 67.9931C116.593 67.4908 121.866 65.0612 125.664 61.4467C129.597 57.736 132 52.7785 132 47.3282V20.7905C132 9.30948 121.394 0 108.314 0H23.6876C10.608 0 0.00220967 9.30902 0.00168752 20.7896C0.0016875 20.7901 0.00130974 20.7905 0.000843749 20.7905Z" fill="url(#paint0_linear_616_2530)"></path><path d="M19.0411 54.12C18.1611 54.12 17.4051 53.944 16.7731 53.592C16.1491 53.232 15.6691 52.728 15.3331 52.08C14.9971 51.424 14.8291 50.652 14.8291 49.764C14.8291 48.876 14.9971 48.108 15.3331 47.46C15.6691 46.812 16.1491 46.312 16.7731 45.96C17.4051 45.6 18.1611 45.42 19.0411 45.42C19.6331 45.42 20.1651 45.504 20.6371 45.672C21.1171 45.84 21.5291 46.088 21.8731 46.416L21.3691 47.64C20.9931 47.336 20.6291 47.12 20.2771 46.992C19.9331 46.856 19.5371 46.788 19.0891 46.788C18.2331 46.788 17.5771 47.048 17.1211 47.568C16.6731 48.08 16.4491 48.812 16.4491 49.764C16.4491 50.716 16.6731 51.452 17.1211 51.972C17.5771 52.492 18.2331 52.752 19.0891 52.752C19.5371 52.752 19.9331 52.688 20.2771 52.56C20.6291 52.424 20.9931 52.2 21.3691 51.888L21.8731 53.112C21.5291 53.432 21.1171 53.68 20.6371 53.856C20.1651 54.032 19.6331 54.12 19.0411 54.12ZM23.35 54V45.168H24.85V54H23.35ZM29.5569 54.12C28.5409 54.12 27.7449 53.84 27.1689 53.28C26.5929 52.72 26.3049 51.952 26.3049 50.976C26.3049 50.344 26.4289 49.792 26.6769 49.32C26.9249 48.848 27.2689 48.48 27.7089 48.216C28.1569 47.952 28.6769 47.82 29.2689 47.82C29.8529 47.82 30.3409 47.944 30.7329 48.192C31.1249 48.44 31.4209 48.788 31.6209 49.236C31.8289 49.684 31.9329 50.208 31.9329 50.808V51.204H27.5169V50.412H30.8649L30.6609 50.58C30.6609 50.02 30.5409 49.592 30.3009 49.296C30.0689 49 29.7289 48.852 29.2809 48.852C28.7849 48.852 28.4009 49.028 28.1289 49.38C27.8649 49.732 27.7329 50.224 27.7329 50.856V51.012C27.7329 51.668 27.8929 52.16 28.2129 52.488C28.5409 52.808 29.0009 52.968 29.5929 52.968C29.9369 52.968 30.2569 52.924 30.5529 52.836C30.8569 52.74 31.1449 52.588 31.4169 52.38L31.8609 53.388C31.5729 53.62 31.2289 53.8 30.8289 53.928C30.4289 54.056 30.0049 54.12 29.5569 54.12ZM35.6931 54.12C35.1651 54.12 34.7011 53.996 34.3011 53.748C33.9011 53.492 33.5891 53.128 33.3651 52.656C33.1411 52.184 33.0291 51.62 33.0291 50.964C33.0291 50.308 33.1411 49.748 33.3651 49.284C33.5891 48.812 33.9011 48.452 34.3011 48.204C34.7011 47.948 35.1651 47.82 35.6931 47.82C36.2051 47.82 36.6531 47.948 37.0371 48.204C37.4291 48.452 37.6891 48.788 37.8171 49.212H37.6851L37.8171 47.94H39.2571C39.2331 48.188 39.2091 48.44 39.1851 48.696C39.1691 48.952 39.1611 49.204 39.1611 49.452V54H37.6731L37.6611 52.752H37.8051C37.6771 53.168 37.4171 53.5 37.0251 53.748C36.6331 53.996 36.1891 54.12 35.6931 54.12ZM36.1131 52.968C36.5851 52.968 36.9651 52.804 37.2531 52.476C37.5411 52.14 37.6851 51.636 37.6851 50.964C37.6851 50.292 37.5411 49.792 37.2531 49.464C36.9651 49.136 36.5851 48.972 36.1131 48.972C35.6411 48.972 35.2611 49.136 34.9731 49.464C34.6851 49.792 34.5411 50.292 34.5411 50.964C34.5411 51.636 34.6811 52.14 34.9611 52.476C35.2491 52.804 35.6331 52.968 36.1131 52.968ZM40.9445 54V49.452C40.9445 49.204 40.9365 48.952 40.9205 48.696C40.9045 48.44 40.8805 48.188 40.8485 47.94H42.3005L42.4205 49.14H42.2765C42.4685 48.716 42.7525 48.392 43.1285 48.168C43.5045 47.936 43.9405 47.82 44.4365 47.82C45.1485 47.82 45.6845 48.02 46.0445 48.42C46.4045 48.82 46.5845 49.444 46.5845 50.292V54H45.0845V50.364C45.0845 49.876 44.9885 49.528 44.7965 49.32C44.6125 49.104 44.3325 48.996 43.9565 48.996C43.4925 48.996 43.1245 49.14 42.8525 49.428C42.5805 49.716 42.4445 50.1 42.4445 50.58V54H40.9445ZM48.325 54V47.94H49.825V54H48.325ZM48.241 46.8V45.336H49.909V46.8H48.241ZM51.6039 54V49.452C51.6039 49.204 51.5959 48.952 51.5799 48.696C51.5639 48.44 51.5399 48.188 51.5079 47.94H52.9599L53.0799 49.14H52.9359C53.1279 48.716 53.4119 48.392 53.7879 48.168C54.1639 47.936 54.5999 47.82 55.0959 47.82C55.8079 47.82 56.3439 48.02 56.7039 48.42C57.0639 48.82 57.2439 49.444 57.2439 50.292V54H55.7439V50.364C55.7439 49.876 55.6479 49.528 55.4559 49.32C55.2719 49.104 54.9919 48.996 54.6159 48.996C54.1519 48.996 53.7839 49.14 53.5119 49.428C53.2399 49.716 53.1039 50.1 53.1039 50.58V54H51.6039ZM61.7924 56.688C61.2324 56.688 60.7244 56.628 60.2684 56.508C59.8204 56.388 59.4204 56.204 59.0684 55.956L59.3924 54.876C59.6244 55.028 59.8644 55.152 60.1124 55.248C60.3604 55.344 60.6164 55.416 60.8804 55.464C61.1444 55.512 61.4124 55.536 61.6844 55.536C62.2444 55.536 62.6604 55.396 62.9324 55.116C63.2124 54.844 63.3524 54.452 63.3524 53.94V52.488H63.4724C63.3444 52.904 63.0844 53.236 62.6924 53.484C62.3084 53.732 61.8644 53.856 61.3604 53.856C60.8164 53.856 60.3404 53.736 59.9324 53.496C59.5324 53.248 59.2204 52.896 58.9964 52.44C58.7724 51.984 58.6604 51.448 58.6604 50.832C58.6604 50.216 58.7724 49.684 58.9964 49.236C59.2204 48.78 59.5324 48.432 59.9324 48.192C60.3404 47.944 60.8164 47.82 61.3604 47.82C61.8724 47.82 62.3164 47.944 62.6924 48.192C63.0764 48.432 63.3324 48.76 63.4604 49.176L63.3524 49.104L63.4724 47.94H64.9244C64.8924 48.188 64.8684 48.44 64.8524 48.696C64.8364 48.952 64.8284 49.204 64.8284 49.452V53.76C64.8284 54.712 64.5684 55.436 64.0484 55.932C63.5364 56.436 62.7844 56.688 61.7924 56.688ZM61.7684 52.704C62.2484 52.704 62.6284 52.544 62.9084 52.224C63.1964 51.896 63.3404 51.432 63.3404 50.832C63.3404 50.232 63.1964 49.772 62.9084 49.452C62.6284 49.132 62.2484 48.972 61.7684 48.972C61.2804 48.972 60.8924 49.132 60.6044 49.452C60.3164 49.772 60.1724 50.232 60.1724 50.832C60.1724 51.432 60.3164 51.896 60.6044 52.224C60.8924 52.544 61.2804 52.704 61.7684 52.704ZM73.1142 54.12C72.4342 54.12 71.8062 54.036 71.2302 53.868C70.6622 53.692 70.1742 53.452 69.7662 53.148L70.2462 51.936C70.5182 52.128 70.8022 52.292 71.0982 52.428C71.3942 52.556 71.7102 52.656 72.0462 52.728C72.3822 52.792 72.7382 52.824 73.1142 52.824C73.7462 52.824 74.2022 52.72 74.4822 52.512C74.7622 52.304 74.9022 52.032 74.9022 51.696C74.9022 51.4 74.8062 51.176 74.6142 51.024C74.4222 50.864 74.0782 50.732 73.5822 50.628L72.2262 50.352C71.4502 50.192 70.8702 49.924 70.4862 49.548C70.1022 49.172 69.9102 48.668 69.9102 48.036C69.9102 47.508 70.0502 47.048 70.3302 46.656C70.6102 46.264 71.0022 45.96 71.5062 45.744C72.0102 45.528 72.5982 45.42 73.2702 45.42C73.8702 45.42 74.4262 45.508 74.9382 45.684C75.4502 45.852 75.8782 46.096 76.2222 46.416L75.7422 47.568C75.3982 47.28 75.0222 47.068 74.6142 46.932C74.2062 46.788 73.7502 46.716 73.2462 46.716C72.6782 46.716 72.2342 46.828 71.9142 47.052C71.6022 47.268 71.4462 47.568 71.4462 47.952C71.4462 48.248 71.5422 48.484 71.7342 48.66C71.9342 48.836 72.2702 48.972 72.7422 49.068L74.0862 49.332C74.8862 49.492 75.4782 49.756 75.8622 50.124C76.2462 50.484 76.4382 50.972 76.4382 51.588C76.4382 52.092 76.3022 52.536 76.0302 52.92C75.7582 53.296 75.3742 53.592 74.8782 53.808C74.3822 54.016 73.7942 54.12 73.1142 54.12ZM80.8545 54.12C79.8385 54.12 79.0425 53.84 78.4665 53.28C77.8905 52.72 77.6025 51.952 77.6025 50.976C77.6025 50.344 77.7265 49.792 77.9745 49.32C78.2225 48.848 78.5665 48.48 79.0065 48.216C79.4545 47.952 79.9745 47.82 80.5665 47.82C81.1505 47.82 81.6385 47.944 82.0305 48.192C82.4225 48.44 82.7185 48.788 82.9185 49.236C83.1265 49.684 83.2305 50.208 83.2305 50.808V51.204H78.8145V50.412H82.1625L81.9585 50.58C81.9585 50.02 81.8385 49.592 81.5985 49.296C81.3665 49 81.0265 48.852 80.5785 48.852C80.0825 48.852 79.6985 49.028 79.4265 49.38C79.1625 49.732 79.0305 50.224 79.0305 50.856V51.012C79.0305 51.668 79.1905 52.16 79.5105 52.488C79.8385 52.808 80.2985 52.968 80.8905 52.968C81.2345 52.968 81.5545 52.924 81.8505 52.836C82.1545 52.74 82.4425 52.588 82.7145 52.38L83.1585 53.388C82.8705 53.62 82.5265 53.8 82.1265 53.928C81.7265 54.056 81.3025 54.12 80.8545 54.12ZM84.6388 54V49.488C84.6388 49.232 84.6308 48.972 84.6148 48.708C84.6068 48.444 84.5868 48.188 84.5548 47.94H86.0068L86.1748 49.596H85.9348C86.0148 49.196 86.1468 48.864 86.3308 48.6C86.5228 48.336 86.7548 48.14 87.0268 48.012C87.2988 47.884 87.5948 47.82 87.9148 47.82C88.0588 47.82 88.1748 47.828 88.2628 47.844C88.3508 47.852 88.4388 47.872 88.5268 47.904L88.5148 49.224C88.3628 49.16 88.2308 49.12 88.1188 49.104C88.0148 49.088 87.8828 49.08 87.7228 49.08C87.3788 49.08 87.0868 49.152 86.8468 49.296C86.6148 49.44 86.4388 49.64 86.3188 49.896C86.2068 50.152 86.1508 50.444 86.1508 50.772V54H84.6388ZM91.651 54L89.035 47.94H90.631L92.527 52.68H92.155L94.099 47.94H95.599L92.971 54H91.651ZM96.5523 54V47.94H98.0523V54H96.5523ZM96.4683 46.8V45.336H98.1363V46.8H96.4683ZM102.615 54.12C101.991 54.12 101.443 53.992 100.971 53.736C100.507 53.48 100.147 53.116 99.8912 52.644C99.6352 52.164 99.5072 51.596 99.5072 50.94C99.5072 50.284 99.6352 49.724 99.8912 49.26C100.155 48.796 100.519 48.44 100.983 48.192C101.447 47.944 101.991 47.82 102.615 47.82C103.015 47.82 103.403 47.884 103.779 48.012C104.163 48.132 104.475 48.308 104.715 48.54L104.259 49.584C104.043 49.384 103.799 49.236 103.527 49.14C103.263 49.036 103.003 48.984 102.747 48.984C102.211 48.984 101.791 49.152 101.487 49.488C101.191 49.824 101.043 50.312 101.043 50.952C101.043 51.592 101.191 52.084 101.487 52.428C101.791 52.772 102.211 52.944 102.747 52.944C102.995 52.944 103.251 52.896 103.515 52.8C103.787 52.704 104.035 52.556 104.259 52.356L104.715 53.388C104.467 53.62 104.151 53.8 103.767 53.928C103.391 54.056 103.007 54.12 102.615 54.12ZM108.839 54.12C107.823 54.12 107.027 53.84 106.451 53.28C105.875 52.72 105.587 51.952 105.587 50.976C105.587 50.344 105.711 49.792 105.959 49.32C106.207 48.848 106.551 48.48 106.991 48.216C107.439 47.952 107.959 47.82 108.551 47.82C109.135 47.82 109.623 47.944 110.015 48.192C110.407 48.44 110.703 48.788 110.903 49.236C111.111 49.684 111.215 50.208 111.215 50.808V51.204H106.799V50.412H110.147L109.943 50.58C109.943 50.02 109.823 49.592 109.583 49.296C109.351 49 109.011 48.852 108.563 48.852C108.067 48.852 107.683 49.028 107.411 49.38C107.147 49.732 107.015 50.224 107.015 50.856V51.012C107.015 51.668 107.175 52.16 107.495 52.488C107.823 52.808 108.283 52.968 108.875 52.968C109.219 52.968 109.539 52.924 109.835 52.836C110.139 52.74 110.427 52.588 110.699 52.38L111.143 53.388C110.855 53.62 110.511 53.8 110.111 53.928C109.711 54.056 109.287 54.12 108.839 54.12ZM114.795 54.12C114.275 54.12 113.795 54.06 113.355 53.94C112.923 53.812 112.559 53.636 112.263 53.412L112.683 52.404C112.987 52.612 113.323 52.772 113.691 52.884C114.059 52.996 114.431 53.052 114.807 53.052C115.207 53.052 115.503 52.984 115.695 52.848C115.895 52.712 115.995 52.528 115.995 52.296C115.995 52.112 115.931 51.968 115.803 51.864C115.683 51.752 115.487 51.668 115.215 51.612L114.015 51.384C113.503 51.272 113.111 51.08 112.839 50.808C112.575 50.536 112.443 50.18 112.443 49.74C112.443 49.364 112.543 49.032 112.743 48.744C112.951 48.456 113.243 48.232 113.619 48.072C114.003 47.904 114.451 47.82 114.963 47.82C115.411 47.82 115.831 47.88 116.223 48C116.623 48.12 116.959 48.3 117.231 48.54L116.799 49.512C116.551 49.312 116.267 49.156 115.947 49.044C115.627 48.932 115.315 48.876 115.011 48.876C114.595 48.876 114.291 48.952 114.099 49.104C113.907 49.248 113.811 49.436 113.811 49.668C113.811 49.844 113.867 49.992 113.979 50.112C114.099 50.224 114.283 50.308 114.531 50.364L115.731 50.592C116.267 50.696 116.671 50.88 116.943 51.144C117.223 51.4 117.363 51.752 117.363 52.2C117.363 52.6 117.255 52.944 117.039 53.232C116.823 53.52 116.523 53.74 116.139 53.892C115.755 54.044 115.307 54.12 114.795 54.12Z" fill="white"></path><g clip-path="url(#clip0_616_2530)"><path d="M54.8903 19.4879C55.2617 19.6119 55.9159 19.888 56.5389 20.511C57.1619 21.134 57.438 21.7882 57.562 22.1596C57.6513 22.4309 57.9111 22.6621 58.2576 22.6622C58.6042 22.6621 58.8639 22.4309 58.9532 22.1596C59.0772 21.7882 59.3534 21.134 59.9764 20.511C60.5994 19.888 61.2536 19.6119 61.625 19.4879C61.8962 19.3986 62.1274 19.1388 62.1275 18.7923C62.1274 18.4458 61.8962 18.186 61.625 18.0967C61.2536 17.9727 60.5994 17.6965 59.9764 17.0735C59.3534 16.4505 59.0772 15.7964 58.9532 15.425C58.8639 15.1537 58.6042 14.9225 58.2576 14.9224C57.9111 14.9225 57.6513 15.1537 57.562 15.425C57.438 15.7963 57.1619 16.4505 56.5389 17.0735C55.9159 17.6965 55.2616 17.9727 54.8903 18.0967C54.619 18.186 54.3878 18.4458 54.3877 18.7923C54.3878 19.1388 54.619 19.3985 54.8903 19.4879Z" fill="white"></path><path d="M66.1641 18.7931C66.1641 19.1976 66.492 19.5255 66.8965 19.5255H67.7331V20.3621C67.7331 20.7666 68.061 21.0945 68.4655 21.0945C68.87 21.0945 69.1979 20.7666 69.1979 20.3621V19.5255H70.0345C70.439 19.5255 70.7669 19.1976 70.7669 18.7931C70.7669 18.3886 70.439 18.0607 70.0345 18.0607H69.1979V17.2241C69.1979 16.8196 68.87 16.4917 68.4655 16.4917C68.061 16.4917 67.7331 16.8196 67.7331 17.2241V18.0607H66.8965C66.492 18.0607 66.1641 18.3886 66.1641 18.7931Z" fill="white"></path><path d="M62.9736 14.0338H63.8102V14.8704C63.8102 15.2749 64.1381 15.6028 64.5426 15.6028C64.9471 15.6028 65.275 15.2749 65.275 14.8704V14.0338H66.1117C66.5162 14.0338 66.8441 13.7059 66.8441 13.3014C66.8441 12.8969 66.5162 12.569 66.1117 12.569H65.275V11.7324C65.275 11.3279 64.9471 11 64.5426 11C64.1381 11 63.8102 11.3279 63.8102 11.7324V12.569H62.9736C62.5691 12.569 62.2412 12.8969 62.2412 13.3014C62.2412 13.7059 62.5691 14.0338 62.9736 14.0338Z" fill="white"></path><path d="M66.6675 33.0821C66.6936 33.0788 67.4344 32.9819 68.1283 32.5143C68.1546 32.4965 68.1792 32.4775 68.2047 32.4592L69.5363 25.8013H70.0342C70.4387 25.8013 70.7666 25.4733 70.7666 25.0688C70.7666 24.6644 70.4387 24.3364 70.0342 24.3364H55.9131C55.5086 24.3364 55.1807 24.6644 55.1807 25.0688C55.1807 25.4733 55.5086 25.8013 55.9131 25.8013H56.411L57.7259 32.3761C57.8018 32.3283 57.8732 32.2714 57.9387 32.206L62.4558 27.689C62.7418 27.4029 63.2056 27.4029 63.4916 27.689C63.7776 27.975 63.7776 28.4387 63.4916 28.7248L58.9745 33.2418C58.7419 33.4745 58.4143 33.7028 58.0215 33.854L58.3329 35.4111C58.4014 35.7534 58.702 35.9999 59.0511 35.9999H64.8239C64.7548 35.8038 64.7125 35.5948 64.7016 35.3769C64.6433 34.2095 65.5062 33.2035 66.6675 33.0821Z" fill="white"></path><path d="M56.6127 32.4701C56.1563 32.2811 55.8614 31.8397 55.8614 31.3451C55.8614 31.1975 55.889 31.0542 55.9413 30.9208L55.5732 29.0806L55.1657 29.4881C54.6697 29.9841 54.3965 30.6436 54.3965 31.3457C54.3965 32.4343 55.0464 33.4069 56.0521 33.8234C56.7833 34.1264 57.4675 34.0674 58.0218 33.8542L57.7262 32.3764C57.397 32.5841 56.9836 32.6237 56.6127 32.4701Z" fill="white"></path><path d="M75.4736 24.4913V11.7324C75.4736 11.3279 75.1457 11 74.7412 11C74.3367 11 74.0088 11.3279 74.0088 11.7324V24.4913C74.2483 24.4582 74.4927 24.4408 74.7412 24.4408C74.9896 24.4408 75.2341 24.4582 75.4736 24.4913Z" fill="white"></path><path d="M74.7416 25.9058C72.6074 25.9058 70.8711 27.642 70.8711 29.7762C70.8711 34.0869 66.9266 34.5279 66.8236 34.539C66.4353 34.5778 66.1455 34.9144 66.165 35.3042C66.1845 35.6941 66.5062 36.0001 66.8965 36.0001H72.388C77.9036 36.0001 78.612 31.8479 78.612 29.7762C78.612 27.642 76.8758 25.9058 74.7416 25.9058Z" fill="white"></path></g><defs><linearGradient id="paint0_linear_616_2530" x1="132" y1="47.1143" x2="0.0325017" y2="46.4259" gradientUnits="userSpaceOnUse"><stop stop-color="#0461A5"></stop><stop offset="1" stop-color="#0E7AC9"></stop></linearGradient><clipPath id="clip0_616_2530"><rect width="25" height="25" fill="white" transform="translate(54 11)"></rect></clipPath></defs></svg>