<svg xmlns="http://www.w3.org/2000/svg" width="132" height="97" viewBox="0 0 132 97" fill="none"><path d="M0.000843749 20.7905C0.000377759 20.7905 0 20.7909 0 20.7913V47.3282C0 56.0335 6.1113 63.4951 14.7794 66.5779C17.5324 67.565 20.539 68.1068 23.6859 68.1068H77.9259C78.3483 68.1068 78.7244 68.3724 78.8708 68.7686C80.0323 71.9123 81.3252 74.7034 82.7038 77.1832C89.8593 90.1471 99.2384 94.6948 104.058 96.2402C104.996 96.5411 105.54 95.4639 104.873 94.7386C101.18 90.7257 98.6211 85.6289 96.8643 80.5496C95.4783 76.6018 94.5669 72.6637 93.9789 69.2605C93.8743 68.6552 94.3438 68.1068 94.9582 68.1068H108.314C108.722 68.1068 109.129 68.0949 109.521 68.0696C109.746 68.0696 109.971 68.0444 110.196 68.0325C110.267 68.0325 110.345 68.0325 110.42 68.0231C110.478 68.016 110.535 68.0051 110.593 68.0004C116.542 67.5146 121.847 65.0789 125.664 61.4467C129.597 57.736 132 52.7785 132 47.3282V20.7905C132 9.30948 121.394 0 108.314 0H23.6876C10.608 0 0.00220967 9.30902 0.00168752 20.7896C0.0016875 20.7901 0.00130974 20.7905 0.000843749 20.7905Z" fill="url(#paint0_linear_641_12168)"></path><path d="M27.1708 54.12C26.4908 54.12 25.8628 54.036 25.2868 53.868C24.7188 53.692 24.2308 53.452 23.8228 53.148L24.3028 51.936C24.5748 52.128 24.8588 52.292 25.1548 52.428C25.4508 52.556 25.7668 52.656 26.1028 52.728C26.4388 52.792 26.7948 52.824 27.1708 52.824C27.8028 52.824 28.2588 52.72 28.5388 52.512C28.8188 52.304 28.9588 52.032 28.9588 51.696C28.9588 51.4 28.8628 51.176 28.6708 51.024C28.4788 50.864 28.1348 50.732 27.6388 50.628L26.2828 50.352C25.5068 50.192 24.9268 49.924 24.5428 49.548C24.1588 49.172 23.9668 48.668 23.9668 48.036C23.9668 47.508 24.1068 47.048 24.3868 46.656C24.6668 46.264 25.0588 45.96 25.5628 45.744C26.0668 45.528 26.6548 45.42 27.3268 45.42C27.9268 45.42 28.4828 45.508 28.9948 45.684C29.5068 45.852 29.9348 46.096 30.2788 46.416L29.7988 47.568C29.4548 47.28 29.0788 47.068 28.6708 46.932C28.2628 46.788 27.8068 46.716 27.3028 46.716C26.7348 46.716 26.2908 46.828 25.9708 47.052C25.6588 47.268 25.5028 47.568 25.5028 47.952C25.5028 48.248 25.5988 48.484 25.7908 48.66C25.9908 48.836 26.3268 48.972 26.7988 49.068L28.1428 49.332C28.9428 49.492 29.5348 49.756 29.9188 50.124C30.3028 50.484 30.4948 50.972 30.4948 51.588C30.4948 52.092 30.3588 52.536 30.0868 52.92C29.8148 53.296 29.4308 53.592 28.9348 53.808C28.4388 54.016 27.8508 54.12 27.1708 54.12ZM34.3232 54.12C33.7952 54.12 33.3312 53.996 32.9312 53.748C32.5312 53.492 32.2192 53.128 31.9952 52.656C31.7712 52.184 31.6592 51.62 31.6592 50.964C31.6592 50.308 31.7712 49.748 31.9952 49.284C32.2192 48.812 32.5312 48.452 32.9312 48.204C33.3312 47.948 33.7952 47.82 34.3232 47.82C34.8352 47.82 35.2832 47.948 35.6672 48.204C36.0592 48.452 36.3192 48.788 36.4472 49.212H36.3152L36.4472 47.94H37.8872C37.8632 48.188 37.8392 48.44 37.8152 48.696C37.7992 48.952 37.7912 49.204 37.7912 49.452V54H36.3032L36.2912 52.752H36.4352C36.3072 53.168 36.0472 53.5 35.6552 53.748C35.2632 53.996 34.8192 54.12 34.3232 54.12ZM34.7432 52.968C35.2152 52.968 35.5952 52.804 35.8832 52.476C36.1712 52.14 36.3152 51.636 36.3152 50.964C36.3152 50.292 36.1712 49.792 35.8832 49.464C35.5952 49.136 35.2152 48.972 34.7432 48.972C34.2712 48.972 33.8912 49.136 33.6032 49.464C33.3152 49.792 33.1712 50.292 33.1712 50.964C33.1712 51.636 33.3112 52.14 33.5912 52.476C33.8792 52.804 34.2632 52.968 34.7432 52.968ZM39.5746 54V45.168H41.0746V54H39.5746ZM45.5895 54.12C44.9655 54.12 44.4255 53.992 43.9695 53.736C43.5135 53.48 43.1575 53.116 42.9015 52.644C42.6535 52.172 42.5295 51.612 42.5295 50.964C42.5295 50.316 42.6535 49.76 42.9015 49.296C43.1575 48.824 43.5135 48.46 43.9695 48.204C44.4255 47.948 44.9655 47.82 45.5895 47.82C46.2135 47.82 46.7535 47.948 47.2095 48.204C47.6735 48.46 48.0295 48.824 48.2775 49.296C48.5335 49.76 48.6615 50.316 48.6615 50.964C48.6615 51.612 48.5335 52.172 48.2775 52.644C48.0295 53.116 47.6735 53.48 47.2095 53.736C46.7535 53.992 46.2135 54.12 45.5895 54.12ZM45.5895 52.968C46.0615 52.968 46.4375 52.804 46.7175 52.476C46.9975 52.14 47.1375 51.636 47.1375 50.964C47.1375 50.292 46.9975 49.792 46.7175 49.464C46.4375 49.136 46.0615 48.972 45.5895 48.972C45.1175 48.972 44.7415 49.136 44.4615 49.464C44.1815 49.792 44.0415 50.292 44.0415 50.964C44.0415 51.636 44.1815 52.14 44.4615 52.476C44.7415 52.804 45.1175 52.968 45.5895 52.968ZM50.1051 54V49.452C50.1051 49.204 50.0971 48.952 50.0811 48.696C50.0651 48.44 50.0411 48.188 50.0091 47.94H51.4611L51.5811 49.14H51.4371C51.6291 48.716 51.9131 48.392 52.2891 48.168C52.6651 47.936 53.1011 47.82 53.5971 47.82C54.3091 47.82 54.8451 48.02 55.2051 48.42C55.5651 48.82 55.7451 49.444 55.7451 50.292V54H54.2451V50.364C54.2451 49.876 54.1491 49.528 53.9571 49.32C53.7731 49.104 53.4931 48.996 53.1171 48.996C52.6531 48.996 52.2851 49.14 52.0131 49.428C51.7411 49.716 51.6051 50.1 51.6051 50.58V54H50.1051ZM64.0005 54.12C63.3205 54.12 62.6925 54.036 62.1165 53.868C61.5485 53.692 61.0605 53.452 60.6525 53.148L61.1325 51.936C61.4045 52.128 61.6885 52.292 61.9845 52.428C62.2805 52.556 62.5965 52.656 62.9325 52.728C63.2685 52.792 63.6245 52.824 64.0005 52.824C64.6325 52.824 65.0885 52.72 65.3685 52.512C65.6485 52.304 65.7885 52.032 65.7885 51.696C65.7885 51.4 65.6925 51.176 65.5005 51.024C65.3085 50.864 64.9645 50.732 64.4685 50.628L63.1125 50.352C62.3365 50.192 61.7565 49.924 61.3725 49.548C60.9885 49.172 60.7965 48.668 60.7965 48.036C60.7965 47.508 60.9365 47.048 61.2165 46.656C61.4965 46.264 61.8885 45.96 62.3925 45.744C62.8965 45.528 63.4845 45.42 64.1565 45.42C64.7565 45.42 65.3125 45.508 65.8245 45.684C66.3365 45.852 66.7645 46.096 67.1085 46.416L66.6285 47.568C66.2845 47.28 65.9085 47.068 65.5005 46.932C65.0925 46.788 64.6365 46.716 64.1325 46.716C63.5645 46.716 63.1205 46.828 62.8005 47.052C62.4885 47.268 62.3325 47.568 62.3325 47.952C62.3325 48.248 62.4285 48.484 62.6205 48.66C62.8205 48.836 63.1565 48.972 63.6285 49.068L64.9725 49.332C65.7725 49.492 66.3645 49.756 66.7485 50.124C67.1325 50.484 67.3245 50.972 67.3245 51.588C67.3245 52.092 67.1885 52.536 66.9165 52.92C66.6445 53.296 66.2605 53.592 65.7645 53.808C65.2685 54.016 64.6805 54.12 64.0005 54.12ZM71.7409 54.12C70.7249 54.12 69.9289 53.84 69.3529 53.28C68.7769 52.72 68.4889 51.952 68.4889 50.976C68.4889 50.344 68.6129 49.792 68.8609 49.32C69.1089 48.848 69.4529 48.48 69.8929 48.216C70.3409 47.952 70.8609 47.82 71.4529 47.82C72.0369 47.82 72.5249 47.944 72.9169 48.192C73.3089 48.44 73.6049 48.788 73.8049 49.236C74.0129 49.684 74.1169 50.208 74.1169 50.808V51.204H69.7009V50.412H73.0489L72.8449 50.58C72.8449 50.02 72.7249 49.592 72.4849 49.296C72.2529 49 71.9129 48.852 71.4649 48.852C70.9689 48.852 70.5849 49.028 70.3129 49.38C70.0489 49.732 69.9169 50.224 69.9169 50.856V51.012C69.9169 51.668 70.0769 52.16 70.3969 52.488C70.7249 52.808 71.1849 52.968 71.7769 52.968C72.1209 52.968 72.4409 52.924 72.7369 52.836C73.0409 52.74 73.3289 52.588 73.6009 52.38L74.0449 53.388C73.7569 53.62 73.4129 53.8 73.0129 53.928C72.6129 54.056 72.1889 54.12 71.7409 54.12ZM75.5251 54V49.488C75.5251 49.232 75.5171 48.972 75.5011 48.708C75.4931 48.444 75.4731 48.188 75.4411 47.94H76.8931L77.0611 49.596H76.8211C76.9011 49.196 77.0331 48.864 77.2171 48.6C77.4091 48.336 77.6411 48.14 77.9131 48.012C78.1851 47.884 78.4811 47.82 78.8011 47.82C78.9451 47.82 79.0611 47.828 79.1491 47.844C79.2371 47.852 79.3251 47.872 79.4131 47.904L79.4011 49.224C79.2491 49.16 79.1171 49.12 79.0051 49.104C78.9011 49.088 78.7691 49.08 78.6091 49.08C78.2651 49.08 77.9731 49.152 77.7331 49.296C77.5011 49.44 77.3251 49.64 77.2051 49.896C77.0931 50.152 77.0371 50.444 77.0371 50.772V54H75.5251ZM82.5373 54L79.9213 47.94H81.5173L83.4133 52.68H83.0413L84.9853 47.94H86.4853L83.8573 54H82.5373ZM87.4387 54V47.94H88.9387V54H87.4387ZM87.3547 46.8V45.336H89.0227V46.8H87.3547ZM93.5016 54.12C92.8776 54.12 92.3296 53.992 91.8576 53.736C91.3936 53.48 91.0336 53.116 90.7776 52.644C90.5216 52.164 90.3936 51.596 90.3936 50.94C90.3936 50.284 90.5216 49.724 90.7776 49.26C91.0416 48.796 91.4056 48.44 91.8696 48.192C92.3336 47.944 92.8776 47.82 93.5016 47.82C93.9016 47.82 94.2896 47.884 94.6656 48.012C95.0496 48.132 95.3616 48.308 95.6016 48.54L95.1456 49.584C94.9296 49.384 94.6856 49.236 94.4136 49.14C94.1496 49.036 93.8896 48.984 93.6336 48.984C93.0976 48.984 92.6776 49.152 92.3736 49.488C92.0776 49.824 91.9296 50.312 91.9296 50.952C91.9296 51.592 92.0776 52.084 92.3736 52.428C92.6776 52.772 93.0976 52.944 93.6336 52.944C93.8816 52.944 94.1376 52.896 94.4016 52.8C94.6736 52.704 94.9216 52.556 95.1456 52.356L95.6016 53.388C95.3536 53.62 95.0376 53.8 94.6536 53.928C94.2776 54.056 93.8936 54.12 93.5016 54.12ZM99.7253 54.12C98.7093 54.12 97.9133 53.84 97.3373 53.28C96.7613 52.72 96.4733 51.952 96.4733 50.976C96.4733 50.344 96.5973 49.792 96.8453 49.32C97.0933 48.848 97.4373 48.48 97.8773 48.216C98.3253 47.952 98.8453 47.82 99.4373 47.82C100.021 47.82 100.509 47.944 100.901 48.192C101.293 48.44 101.589 48.788 101.789 49.236C101.997 49.684 102.101 50.208 102.101 50.808V51.204H97.6853V50.412H101.033L100.829 50.58C100.829 50.02 100.709 49.592 100.469 49.296C100.237 49 99.8973 48.852 99.4493 48.852C98.9533 48.852 98.5693 49.028 98.2973 49.38C98.0333 49.732 97.9013 50.224 97.9013 50.856V51.012C97.9013 51.668 98.0613 52.16 98.3813 52.488C98.7093 52.808 99.1693 52.968 99.7613 52.968C100.105 52.968 100.425 52.924 100.721 52.836C101.025 52.74 101.313 52.588 101.585 52.38L102.029 53.388C101.741 53.62 101.397 53.8 100.997 53.928C100.597 54.056 100.173 54.12 99.7253 54.12ZM105.681 54.12C105.161 54.12 104.681 54.06 104.241 53.94C103.809 53.812 103.445 53.636 103.149 53.412L103.569 52.404C103.873 52.612 104.209 52.772 104.577 52.884C104.945 52.996 105.317 53.052 105.693 53.052C106.093 53.052 106.389 52.984 106.581 52.848C106.781 52.712 106.881 52.528 106.881 52.296C106.881 52.112 106.817 51.968 106.689 51.864C106.569 51.752 106.373 51.668 106.101 51.612L104.901 51.384C104.389 51.272 103.997 51.08 103.725 50.808C103.461 50.536 103.329 50.18 103.329 49.74C103.329 49.364 103.429 49.032 103.629 48.744C103.837 48.456 104.129 48.232 104.505 48.072C104.889 47.904 105.337 47.82 105.849 47.82C106.297 47.82 106.717 47.88 107.109 48C107.509 48.12 107.845 48.3 108.117 48.54L107.685 49.512C107.437 49.312 107.153 49.156 106.833 49.044C106.513 48.932 106.201 48.876 105.897 48.876C105.481 48.876 105.177 48.952 104.985 49.104C104.793 49.248 104.697 49.436 104.697 49.668C104.697 49.844 104.753 49.992 104.865 50.112C104.985 50.224 105.169 50.308 105.417 50.364L106.617 50.592C107.153 50.696 107.557 50.88 107.829 51.144C108.109 51.4 108.249 51.752 108.249 52.2C108.249 52.6 108.141 52.944 107.925 53.232C107.709 53.52 107.409 53.74 107.025 53.892C106.641 54.044 106.193 54.12 105.681 54.12Z" fill="white"></path><g clip-path="url(#clip0_641_12168)"><path d="M67.5701 21.8317C67.1712 20.6696 66.6204 19.6735 65.9331 18.8709L66.3354 18.5264C67.0664 19.3799 67.6504 20.4342 68.0711 21.6597L67.5701 21.8317Z" fill="white"></path><path d="M65.4366 18.3471C65.3039 18.2208 65.1652 18.0989 65.0244 17.9851L65.3575 17.5732C65.5094 17.6961 65.6588 17.8274 65.8019 17.9635L65.4366 18.3471Z" fill="white"></path><path d="M64.5488 17.6473C64.3964 17.5461 64.2388 17.4501 64.0801 17.3624L64.3365 16.8989C64.5077 16.9936 64.6777 17.097 64.8419 17.2062L64.5488 17.6473Z" fill="white"></path><path d="M64.2117 30.0713C64.6451 29.5151 64.8061 28.6603 64.6896 27.5297C64.4649 25.3488 63.1616 23.3414 61.2034 22.1598C60.0055 21.437 59.3015 20.5513 59.1111 19.5275C58.9924 18.8896 59.0964 18.2975 59.2528 17.8301C59.0796 17.8556 58.9037 17.8854 58.7248 17.9202C58.5505 18.2045 58.0275 19.1746 58.2526 20.2551C58.4312 21.1123 59.0378 21.8584 60.0557 22.4726C62.1555 23.7396 63.5534 25.8963 63.7951 28.2416C63.8925 29.187 63.8103 29.9685 63.5505 30.5807C63.7813 30.4232 64.0017 30.2528 64.2117 30.0713Z" fill="white"></path><path d="M64.9132 21.6062C65.0558 21.391 65.215 21.3779 65.3909 21.5669L66.6977 23.8386C66.6585 23.4649 66.5898 23.094 66.4918 22.7288C65.6454 19.5755 63.8323 17.905 61.0881 17.7384C61.0689 17.8787 61.06 18.0166 61.0626 18.1497L60.533 18.1599C60.5303 18.018 60.5389 17.8722 60.5566 17.7246C60.325 17.7265 60.0875 17.7382 59.8438 17.7598C59.3787 18.8713 59.3308 20.4113 61.4769 21.7062C63.5767 22.9733 64.9746 25.13 65.2162 27.4753C65.2766 28.0612 65.2664 28.5849 65.1878 29.0457C65.5761 28.549 65.9021 28.0006 66.1548 27.409L65.2094 25.6918C64.5192 24.4381 64.4112 22.949 64.9132 21.6062ZM60.5964 18.7098L61.1141 18.5983C61.1427 18.7308 61.1836 18.8626 61.2358 18.9901L60.7456 19.1908C60.6817 19.0345 60.6314 18.8727 60.5964 18.7098ZM63.1387 21.5138C62.9914 21.4099 62.8384 21.3099 62.6838 21.2167C61.8878 20.7364 61.3053 20.1935 60.9525 19.6031L61.4071 19.3314C61.715 19.8465 62.2365 20.3282 62.9574 20.7631C63.1227 20.8629 63.2865 20.9698 63.4441 21.0811L63.1387 21.5138ZM63.921 22.1479C63.7993 22.0349 63.6721 21.9245 63.5429 21.8197L63.8767 21.4084C64.0149 21.5206 64.151 21.6388 64.2813 21.7597L63.921 22.1479Z" fill="white"></path><path d="M60.8303 27.86C60.9764 27.8647 61.0646 27.9527 61.0951 28.124C61.1002 29.9074 60.4834 31.6907 59.3716 33.0863L64.0222 33.082C64.355 32.6332 64.8636 32.3706 65.4277 32.3558L65.744 31.8059C65.4744 31.1618 65.3065 30.4902 65.2423 29.8007C64.5015 30.6182 63.5906 31.2771 62.5752 31.7256C62.4485 31.7814 62.3001 31.7305 62.2347 31.6082C62.1694 31.4862 62.2092 31.3343 62.3259 31.2599C63.1029 30.7651 63.4199 29.7679 63.2683 28.296C63.0435 26.1151 61.7403 24.1077 59.7821 22.9261C58.4444 22.1189 57.9165 21.1805 57.7418 20.3896C57.4328 20.8557 57.2439 21.3863 57.1785 21.9738C57.0778 22.8784 56.6811 23.7414 56.0606 24.4074C55.9869 24.5239 55.9696 24.7005 56.1133 24.783L56.982 25.2823C57.1311 25.3947 57.1541 25.5287 57.0511 25.6844C56.7992 25.9779 56.7438 26.1659 56.7759 26.2438C56.8157 26.3403 57.0356 26.4045 57.1476 26.4134C57.3778 26.4791 57.4414 26.6201 57.3386 26.8362C57.2116 27.0056 57.1989 27.1022 57.21 27.1296C57.2268 27.1713 57.3303 27.2184 57.4083 27.231C57.6092 27.2967 57.6721 27.4283 57.5971 27.6257C57.1264 28.3912 57.8815 29.3835 58.7499 29.076C59.645 28.7591 60.4365 28.1141 60.6578 27.924C60.7066 27.8819 60.7681 27.86 60.8303 27.86Z" fill="white"></path><path d="M58.0157 18.1353C56.6358 18.6675 55.6357 19.7117 55.0377 21.2475C53.6823 24.7283 55.1078 28.6205 58.2929 30.4999C58.1695 30.2367 58.0805 29.9403 58.0266 29.6114C57.6152 29.4976 57.266 29.2081 57.0692 28.8086C56.8853 28.4354 56.8643 28.0219 57.0037 27.6405C56.8925 27.5768 56.7813 27.4795 56.7205 27.3322C56.6596 27.1847 56.6618 27.0232 56.7267 26.8493C56.5557 26.7793 56.3735 26.6574 56.2862 26.4459C56.1854 26.2014 56.2428 25.9149 56.4568 25.5916L55.8492 25.2424C55.4569 25.0168 55.3321 24.4058 55.6543 24.0665C56.2085 23.4805 56.5628 22.7166 56.652 21.9153C56.7487 21.0466 57.0996 20.2562 57.6685 19.6225C57.6831 19.0291 57.8506 18.5089 58.0157 18.1353Z" fill="white"></path><path d="M72.3765 26.896L72.6792 26.3458L73.1431 26.6011L72.8404 27.1513L72.3765 26.896Z" fill="white"></path><path d="M71.7471 28.0386L72.0189 27.5446L72.4828 27.7999L72.211 28.2938L71.7471 28.0386Z" fill="white"></path><path d="M70.2476 30.7627L71.3834 28.6984L71.8473 28.9537L70.7115 31.018L70.2476 30.7627Z" fill="white"></path><path d="M68.8184 27.5241L69.5255 28.7534L71.3518 25.4362C71.8707 24.4935 72.0206 23.4015 71.7867 22.3643L68.8184 27.5241Z" fill="white"></path><path d="M65.6493 33.9194C65.1671 33.9164 65.1793 34.6593 65.6556 34.661C65.8805 34.6408 66.0031 34.5183 66.0232 34.2934C66.0225 34.0879 65.8548 33.9201 65.6493 33.9194Z" fill="white"></path><path d="M71.4134 33.9194C71.4129 33.9194 71.4125 33.9194 71.412 33.9194C71.2066 33.9202 71.0388 34.0879 71.0381 34.2934C71.0374 34.4766 71.2193 34.661 71.4057 34.661C71.6111 34.6602 71.7789 34.4925 71.7796 34.287C71.7595 34.0627 71.6375 33.9401 71.4134 33.9194Z" fill="white"></path><path d="M75.7827 19.7393H76.4604V20.2689H75.7827V19.7393Z" fill="white"></path><path d="M70.2725 19.7393H70.9501V20.2689H70.2725V19.7393Z" fill="white"></path><path d="M78.4767 16.1545L77.9641 16.021C78.0768 15.588 78.134 15.151 78.134 14.7221C78.134 14.0265 77.9728 13.359 77.6548 12.7381L78.1262 12.4966C78.4828 13.1929 78.6636 13.9417 78.6636 14.7221C78.6637 15.1961 78.6008 15.6779 78.4767 16.1545Z" fill="white"></path><path d="M78.1331 17.1382L77.6479 16.9255C77.7139 16.7751 77.7739 16.6228 77.8264 16.4727L78.3264 16.6474C78.2695 16.8103 78.2044 16.9754 78.1331 17.1382Z" fill="white"></path><path d="M77.7172 17.9505L77.2603 17.6826C77.3271 17.5686 77.3909 17.4533 77.4498 17.3398L77.9198 17.5839C77.8568 17.7054 77.7886 17.8288 77.7172 17.9505Z" fill="white"></path><path d="M73.4592 13.6406C72.7755 13.6406 72.2192 14.1793 72.2192 14.8415C72.2192 15.5037 72.7755 16.0424 73.4592 16.0424C74.1429 16.0424 74.6992 15.5037 74.6992 14.8415C74.6992 14.1793 74.1429 13.6406 73.4592 13.6406Z" fill="white"></path><path d="M77.1098 14.722C77.1098 12.8156 75.4721 11.2646 73.4592 11.2646C71.4463 11.2646 69.8086 12.8156 69.8086 14.722C69.8086 16.9776 71.8416 18.935 72.8096 19.7392H71.6529V20.2689H75.1189V19.7392H74.1281C75.1066 18.9514 77.1098 17.0538 77.1098 14.722ZM71.6895 14.8418C71.6895 13.8875 72.4834 13.1112 73.4592 13.1112C74.4349 13.1112 75.2288 13.8875 75.2288 14.8418C75.2288 15.796 74.4349 16.5723 73.4592 16.5723C72.4834 16.5723 71.6895 15.796 71.6895 14.8418Z" fill="white"></path><path d="M78.4517 35.2056H78.9999V35.7352H78.4517V35.2056Z" fill="white"></path><path d="M77.9224 22.0171H78.6824V22.5468H77.9224V22.0171Z" fill="white"></path><path d="M78.0811 27.832H78.6632V28.3617H78.0811V27.832Z" fill="white"></path><path d="M75.821 22.5466H77.5515V22.0169H75.821V21.9893C75.1808 22.1133 74.6959 22.678 74.6959 23.3539V35.1726C74.6959 35.1837 74.6968 35.1946 74.6974 35.2055H72.5164C72.726 34.9481 72.8531 34.6167 72.8531 34.2548C72.8531 33.8568 72.6975 33.4821 72.4262 33.2265C72.1708 32.9859 71.8284 32.8656 71.4617 32.8875C71.3613 32.8938 71.2664 32.8423 71.2164 32.7552L65.239 22.3645C65.005 23.4018 65.1549 24.4938 65.6739 25.4365L70.1135 33.5005C70.1563 33.5781 70.1574 33.672 70.1163 33.7507C70.0083 33.9576 69.9862 34.1019 69.9862 34.2548C69.9862 34.6167 70.1133 34.9482 70.323 35.2055H66.7027C66.9124 34.9481 67.0394 34.6167 67.0394 34.2548C67.0394 34.1019 67.0174 33.9577 66.9094 33.7507C66.8684 33.6721 66.8694 33.5781 66.9122 33.5005L68.2105 31.1422L67.49 29.8335L65.8093 32.7551C65.7137 32.8596 65.6043 32.8733 65.479 32.8849C64.7265 32.9544 64.1724 33.5236 64.1724 34.2547C64.1724 34.6167 64.2995 34.9481 64.5092 35.2055H56.2607V35.7351H77.9222V35.2055H75.8195C75.8201 35.1945 75.821 35.1836 75.821 35.1726V31.2838H78.6505V30.7541H75.821V29.8226H78.6569V29.293H75.821V28.3615H77.4985V27.8318H75.821V26.9003H78.6696V26.3707H75.821V25.4392H78.6759V24.9095H75.821V23.9781H78.6823V23.4484H75.821V22.5466ZM68.5353 29.5201C68.4039 29.5201 68.2972 29.4112 68.2972 29.2769C68.2972 29.1426 68.4038 29.0337 68.5353 29.0337C68.6668 29.0337 68.7734 29.1426 68.7734 29.2769C68.7734 29.4112 68.6668 29.5201 68.5353 29.5201ZM66.2909 34.9285C66.1349 35.0845 65.8779 35.2155 65.654 35.1906C64.355 35.0465 64.4987 33.3898 65.6514 33.3898C66.1468 33.3915 66.5513 33.796 66.5531 34.2915C66.5539 34.5324 66.4608 34.7586 66.2909 34.9285ZM71.4076 35.1907C70.9278 35.1907 70.5068 34.7729 70.5085 34.2915C70.5102 33.7961 70.9147 33.3916 71.4102 33.3898C71.89 33.3898 72.311 33.8077 72.3093 34.289C72.3076 34.7844 71.9031 35.1889 71.4076 35.1907Z" fill="white"></path><path d="M55.063 35.2056H55.6781V35.7352H55.063V35.2056Z" fill="white"></path><path d="M54 35.2056H54.5333V35.7352H54V35.2056Z" fill="white"></path><path d="M62.0708 13.2944H62.6005V14.0449H62.0708V13.2944Z" fill="white"></path><path d="M62.0708 15.0425H62.6005V15.793H62.0708V15.0425Z" fill="white"></path><path d="M62.8345 14.2788H63.5849V14.8085H62.8345V14.2788Z" fill="white"></path><path d="M61.0864 14.2788H61.8369V14.8085H61.0864V14.2788Z" fill="white"></path><path d="M57.3037 11.2646H57.8334V12.0152H57.3037V11.2646Z" fill="white"></path><path d="M57.3037 13.0127H57.8334V13.7632H57.3037V13.0127Z" fill="white"></path><path d="M58.0674 12.249H58.8179V12.7787H58.0674V12.249Z" fill="white"></path><path d="M56.3193 12.249H57.0698V12.7787H56.3193V12.249Z" fill="white"></path><path d="M54.9844 14.9722H55.514V15.7227H54.9844V14.9722Z" fill="white"></path><path d="M54.9844 16.7202H55.514V17.4707H54.9844V16.7202Z" fill="white"></path><path d="M55.748 15.9565H56.4985V16.4862H55.748V15.9565Z" fill="white"></path><path d="M54 15.9565H54.7505V16.4862H54V15.9565Z" fill="white"></path></g><defs><linearGradient id="paint0_linear_641_12168" x1="132" y1="47.1143" x2="0.0325017" y2="46.4259" gradientUnits="userSpaceOnUse"><stop stop-color="#0461A5"></stop><stop offset="1" stop-color="#0E7AC9"></stop></linearGradient><clipPath id="clip0_641_12168"><rect width="25" height="25" fill="white" transform="translate(54 11)"></rect></clipPath></defs></svg>