<svg xmlns="http://www.w3.org/2000/svg" width="1350" height="280" viewBox="0 0 1350 280" fill="none"><g clip-path="url(#clip0_616_7116)"><path d="M0 20C0 8.9543 8.9543 0 20 0L1330 0C1341.05 0 1350 8.95431 1350 20V430C1350 441.046 1341.05 450 1330 450H20C8.95428 450 0 441.046 0 430V20Z" fill="url(#paint0_linear_616_7116)"></path><path d="M164.606 110.887C29.0376 104.57 1.47076 183.84 -42.4137 165.532C-44.3908 78.0197 -68.9813 -94.1261 -65.6642 -99.3996C-62.3471 -104.673 409.981 -94.605 672.562 -94.1584L673.128 -8.82487C617.611 44.0586 661.899 57.9174 460.305 55.2853C317.886 53.4258 316.355 117.958 164.606 110.887Z" fill="white" fill-opacity="0.04"></path><path d="M212.41 127.678C62.4978 120.693 32.0143 208.35 -16.5133 188.105C-18.6996 91.3331 -45.8919 -99.0263 -42.2238 -104.858C-38.5558 -110.689 483.746 -99.5559 774.109 -99.0621L774.735 -4.69991C713.344 53.7789 762.318 69.1039 539.394 66.1933C381.908 64.1371 380.214 135.497 212.41 127.678Z" fill="white" fill-opacity="0.04"></path><path d="M1161.04 228.178C1336.44 236.351 1372.11 133.789 1428.89 157.476C1431.45 270.703 1463.26 493.43 1458.97 500.254C1454.68 507.077 843.569 494.05 503.833 493.472L503.101 383.065C574.93 314.643 517.629 296.712 778.458 300.117C962.723 302.523 964.705 219.03 1161.04 228.178Z" fill="white" fill-opacity="0.04"></path><path d="M1099.19 206.453C1293.15 215.491 1332.59 102.078 1395.38 128.271C1398.21 253.477 1433.39 499.771 1428.64 507.316C1423.9 514.86 748.128 500.456 372.447 499.817L371.637 377.728C451.066 302.066 387.703 282.238 676.128 286.004C879.889 288.665 882.081 196.337 1099.19 206.453Z" fill="white" fill-opacity="0.04"></path></g><defs><linearGradient id="paint0_linear_616_7116" x1="72.8773" y1="457.531" x2="642.953" y2="-574.415" gradientUnits="userSpaceOnUse"><stop stop-color="#006EBE"></stop><stop offset="1" stop-color="#05497A"></stop></linearGradient><clipPath id="clip0_616_7116"><rect width="1350" height="280" rx="20" fill="white"></rect></clipPath></defs></svg>