<svg xmlns="http://www.w3.org/2000/svg" width="20" height="20" viewBox="0 0 20 20" fill="none"><g clip-path="url(#clip0_4288_2247)"><path d="M10.0004 20.0001C15.523 20.0001 20 15.5232 20 10.0006C20 4.47794 15.523 0.000976562 10.0004 0.000976562C4.47782 0.000976562 0.000854492 4.47794 0.000854492 10.0006C0.000854492 15.5232 4.47782 20.0001 10.0004 20.0001Z" fill="white"></path><path d="M19.4286 6.66602H13.2672C13.5349 8.80218 13.5364 11.1559 13.2724 13.2948H19.4417C19.8019 12.263 19.9999 11.1548 19.9999 10.0003C20 8.8306 19.7974 7.70891 19.4286 6.66602Z" fill="#EFECEC"></path><path d="M13.2672 6.66587H19.4285C19.4275 6.6627 19.4266 6.66004 19.4253 6.65717C18.1457 3.04845 14.8536 0.393448 10.8983 0.0410156C12.4288 0.880105 12.8759 3.5384 13.2672 6.66587Z" fill="#C42B27"></path><path d="M10.8983 19.9589C14.8609 19.6058 18.1576 16.9417 19.4324 13.3233C19.4358 13.3137 19.4386 13.3043 19.4421 13.2949H13.2726C12.8843 16.4392 12.4353 19.1164 10.8983 19.9589Z" fill="#0B0B0B"></path><path d="M0 10.0003C0 11.155 0.19832 12.263 0.558141 13.2948H13.7871C14.0514 11.1558 14.0495 8.80218 13.7822 6.66602H0.571441C0.202584 7.70891 0 8.8306 0 10.0003Z" fill="#EFEFEF"></path><path d="M0.574578 6.6572C0.573649 6.66002 0.572678 6.66273 0.571411 6.66589H13.7822C13.3907 3.53846 12.4287 0.88013 10.8981 0.0410826C10.6021 0.0148624 10.3027 0 9.99984 0C5.64969 0 1.95036 2.77833 0.574578 6.6572Z" fill="#CC3434"></path><path d="M13.7872 13.2949H0.558228C0.561563 13.3043 0.564688 13.3137 0.567854 13.3233C1.9381 17.2121 5.6428 20.0002 9.99992 20.0002C10.3028 20.0002 10.6021 19.9854 10.8982 19.9589C12.4353 19.1164 13.399 16.4392 13.7872 13.2949Z" fill="#151515"></path><path d="M11.9517 12.3258C11.8307 12.2934 11.6514 12.32 11.5067 12.3113C11.4793 12.3273 11.4828 12.3747 11.4704 12.4063C11.4847 12.4357 11.5142 12.4196 11.5435 12.4426C11.5892 12.4864 11.6202 12.5455 11.6894 12.5666C11.6299 12.6289 11.6315 12.7519 11.5435 12.7856C11.5584 12.929 11.4652 12.9542 11.3245 12.9823C10.6512 13.1166 9.60424 13.1301 8.88848 13.0332C8.7996 13.0215 8.53875 12.9826 8.47242 12.9241C8.4462 12.9004 8.43041 12.8652 8.43611 12.7998C8.35162 12.7578 8.35069 12.6323 8.28309 12.5737C8.3775 12.5417 8.39566 12.4337 8.5021 12.4133C8.50527 12.3686 8.48602 12.3463 8.47985 12.3113C8.32971 12.3194 8.14718 12.2944 8.02039 12.3258C8.03208 12.1627 8.03584 11.9774 8.04977 11.7861C8.06827 11.5305 8.06556 11.231 8.08608 10.9766C8.09681 10.8468 8.09254 10.7126 8.10095 10.5828C8.1161 10.3363 8.10521 10.0916 8.1229 9.86057C8.14169 9.61142 8.13299 9.3452 8.15195 9.1096C8.17137 8.86534 8.23863 8.67019 8.52381 8.69354C8.86184 8.72166 9.07422 9.00476 9.44274 9.00713C9.61391 8.90132 9.73847 8.49032 9.69063 8.18307C9.66867 8.04095 9.51819 7.83553 9.36995 7.91322C9.34799 7.67353 9.57633 7.70574 9.72711 7.78187C9.77305 7.75312 9.78664 7.71271 9.83655 7.70165C9.96018 7.67416 10.119 7.7304 10.1795 7.76735C10.2943 7.8376 10.3475 7.99345 10.3473 8.1905C10.347 8.29251 10.3243 8.39401 10.3325 8.49666C10.3506 8.7144 10.4247 8.89139 10.515 9.00003C10.8573 9.03145 11.109 8.72656 11.441 8.69354C11.5824 8.67965 11.7002 8.73268 11.7621 8.82489C11.8565 9.17526 11.8265 9.56227 11.8568 9.95545C11.875 10.191 11.8642 10.4372 11.8788 10.6777C11.9117 11.2213 11.928 11.7671 11.9517 12.3258ZM10.3105 8.51118C10.2956 8.3132 10.3506 8.10099 10.2814 7.92032C10.2491 7.88954 10.2303 7.84499 10.1864 7.82557C10.1501 7.82557 10.1136 7.82557 10.0773 7.82557C10.0227 7.85496 10.0026 7.91559 9.94595 7.92758C9.81109 7.95633 9.80036 7.82827 9.69806 7.78909C9.67154 7.77866 9.63553 7.78453 9.60302 7.77423C9.50527 7.74438 9.44734 7.7095 9.39887 7.84731C9.57743 7.83689 9.7369 7.89452 9.77815 8.04437C9.67614 8.01595 9.70473 8.10753 9.71246 8.168C9.75003 8.46862 9.68307 8.71085 9.5811 8.87569C9.53263 8.95431 9.47044 9.01574 9.43522 9.08727C9.54133 9.06755 9.63717 9.07367 9.69054 9.00675C9.76207 8.9177 9.74661 8.72711 9.79255 8.62037C9.78829 8.84681 9.72403 9.01384 9.61775 9.1381C9.87763 9.10145 9.92281 8.88468 9.94586 8.62037C9.96495 8.75143 9.93007 8.89178 9.8873 8.98496C9.92095 9.02697 9.94004 9.08334 9.98961 9.10922C10.0306 9.07498 10.0611 9.02997 10.0844 8.97787C10.0465 8.89182 10.0015 8.73551 10.0406 8.62041C10.0373 8.90098 10.114 9.10154 10.3545 9.13814C10.2577 9.01578 10.1642 8.81303 10.1938 8.61298C10.2021 8.76992 10.24 8.89735 10.2885 9.01418C10.3555 9.05682 10.4399 9.08178 10.5441 9.08727C10.4277 8.9454 10.3293 8.75671 10.3105 8.51118ZM9.85133 7.84753C9.85133 7.85715 9.85133 7.86695 9.85133 7.87658C9.86885 7.87375 9.86712 7.89017 9.88747 7.88401C9.89393 7.87565 9.89743 7.86458 9.8949 7.84769C9.88544 7.83777 9.86049 7.83777 9.85133 7.84753ZM8.44354 8.71533C8.28233 8.72795 8.19531 8.86281 8.19565 9.02182C8.26625 8.9975 8.33351 8.93151 8.40723 8.93421C8.36775 10.0317 8.31962 11.0303 8.27587 12.1144C8.21241 12.1742 8.13126 12.2173 8.08625 12.2966C8.21761 12.2966 8.349 12.2966 8.48006 12.2966C8.50075 12.1226 8.69624 12.0869 8.85935 12.1359C8.9367 11.8682 9.01536 11.6017 9.08579 11.3263C9.01333 11.3707 8.97635 11.4503 8.90326 11.4942C8.92948 10.7923 8.96499 10.1093 8.99087 9.39368C9.10344 9.48129 9.2863 9.48652 9.46486 9.45937C9.67864 9.42669 9.86357 9.30826 9.99712 9.22584C10.1372 9.3501 10.3938 9.45401 10.6536 9.47373C10.8155 9.48606 10.8902 9.43332 10.9892 9.40803C11.0043 10.1232 11.0555 10.8226 11.0694 11.5014C11.0099 11.4465 10.9608 11.3814 10.8946 11.3334C10.959 11.6094 11.0429 11.866 11.1133 12.1359C11.2832 12.0822 11.4707 12.1288 11.5 12.2966C11.6285 12.2917 11.7769 12.3062 11.8934 12.2892C11.8475 12.2077 11.7342 12.1843 11.7041 12.0996C11.6699 12.004 11.6948 11.8585 11.6896 11.7347C11.6495 10.8527 11.5934 9.81088 11.5727 8.92712C11.6553 8.94654 11.7077 8.99628 11.7843 9.02186C11.7679 8.84613 11.6949 8.72643 11.529 8.71537C11.1515 8.69012 10.9337 9.03732 10.5518 9.02896C10.5518 9.07523 10.6262 9.08566 10.6175 9.11657C10.5444 9.11137 10.4362 9.10584 10.3622 9.08026C10.3551 9.12066 10.4285 9.13916 10.435 9.18936C10.29 9.16474 10.1812 9.10361 10.0923 9.02182C10.0584 9.07029 10.0279 9.12273 9.98289 9.16031C9.94438 9.11657 9.92053 9.05703 9.87345 9.02182C9.79673 9.1104 9.68999 9.16897 9.53825 9.18222C9.55957 9.14528 9.60361 9.13105 9.61104 9.08021C9.54378 9.10356 9.43184 9.11906 9.35572 9.1096C9.37831 9.08309 9.41681 9.07329 9.42142 9.02908C9.05872 9.03917 8.80623 8.68738 8.44354 8.71533ZM9.15094 9.50341C9.16546 10.303 9.47035 10.876 9.99678 11.1882C10.4986 10.8582 10.817 10.3065 10.8211 9.50341C10.5639 9.50008 10.3827 9.46267 10.2232 9.39397C10.1335 9.35546 10.0471 9.28453 9.97529 9.26262C9.77697 9.41909 9.50557 9.50307 9.15094 9.50341ZM9.16546 10.0357C9.15866 10.39 9.102 10.8226 9.12915 11.1881C9.2035 10.9911 9.18282 10.7413 9.19485 10.4808C9.20291 10.3063 9.23859 10.1298 9.17289 10.0139C9.17319 10.0238 9.16939 10.0297 9.16546 10.0357ZM10.7848 10.6922C10.7848 10.8883 10.7945 11.0795 10.8576 11.1952C10.865 10.8073 10.8162 10.4039 10.8142 10.0208C10.8046 10.0205 10.8041 10.0118 10.7923 10.0137C10.7415 10.2062 10.7848 10.4544 10.7848 10.6922ZM9.28229 11.1079C9.34512 11.037 9.41525 10.9734 9.47191 10.896C9.46229 10.7381 9.42408 10.6086 9.34056 10.5243C9.3178 10.7116 9.13764 10.9533 9.28229 11.1079ZM10.5075 10.9035C10.5761 10.9666 10.6346 11.0778 10.7117 11.108C10.8205 10.9306 10.6635 10.7404 10.6463 10.5389C10.6367 10.5386 10.6359 10.5293 10.6241 10.5318C10.5516 10.6216 10.5092 10.7421 10.5075 10.9035ZM9.53018 11.2319C9.59744 11.1604 9.65571 11.0798 9.71237 10.9983C9.62172 10.9262 9.55573 10.8294 9.47191 10.7501C9.4907 10.9114 9.5013 11.0805 9.53018 11.2319ZM10.2669 11.0054C10.3307 11.0801 10.3757 11.1737 10.4565 11.2319C10.4714 11.074 10.4834 10.9136 10.5074 10.765C10.5067 10.756 10.5052 10.7478 10.4929 10.7501C10.4255 10.8433 10.3451 10.9235 10.2669 11.0054ZM9.26034 11.1514C9.25134 11.1045 9.22669 11.0734 9.21659 11.0277C9.15377 11.1116 9.14634 11.2371 9.11458 11.3484C9.10289 11.3892 9.07481 11.4225 9.07827 11.4652C9.16179 11.4294 9.19607 11.3446 9.28242 11.3119C9.29787 11.3841 9.33389 11.4353 9.35521 11.5016C9.42281 11.4692 9.41964 11.3666 9.47947 11.3265C9.51249 11.4439 9.54707 11.5602 9.58857 11.6694C9.66626 11.6037 9.75485 11.5484 9.7782 11.4286C9.73445 11.3289 9.69434 11.2257 9.65423 11.1224C9.59504 11.1628 9.55746 11.2639 9.50835 11.2903C9.49509 11.1696 9.50316 11.0282 9.45718 10.9402C9.3971 11.016 9.33532 11.0899 9.26034 11.1514ZM10.4711 11.2972C10.418 11.2432 10.3814 11.1733 10.3252 11.1224C10.3042 11.1703 10.2795 11.2175 10.2595 11.2683C10.2394 11.3192 10.2034 11.3819 10.2012 11.4287C10.1957 11.5432 10.3219 11.5967 10.3908 11.6695C10.4229 11.5557 10.4371 11.424 10.4856 11.3266C10.5309 11.3836 10.5513 11.4654 10.6169 11.5017C10.6506 11.4406 10.6739 11.3691 10.7046 11.3046C10.7669 11.3593 10.8246 11.4185 10.8942 11.4654C10.8624 11.3337 10.8227 11.148 10.7628 11.0204C10.748 11.0686 10.7285 11.1123 10.7046 11.1515C10.6367 11.0858 10.5852 11.0034 10.5075 10.9473C10.4856 11.0542 10.4768 11.1742 10.4711 11.2972ZM9.72706 11.0203C9.60897 11.1045 9.74003 11.2753 9.78563 11.3707C9.80632 11.2865 9.8254 11.2011 9.8439 11.115C9.80383 11.0847 9.76528 11.0527 9.72706 11.0203ZM10.1356 11.1223C10.1575 11.2049 10.1586 11.3083 10.2013 11.3705C10.242 11.2845 10.2722 11.1883 10.3104 11.1004C10.2897 11.0703 10.2764 11.0322 10.2376 11.0202C10.2202 11.0705 10.1559 11.0746 10.1356 11.1223ZM9.25307 11.341C9.19578 11.4005 9.14051 11.4619 9.06345 11.5017C9.01262 11.6489 9.11775 11.7738 9.16546 11.8881C9.23179 11.8399 9.26021 11.7539 9.3262 11.7059C9.35272 11.7913 9.37088 11.8848 9.41382 11.9538C9.48534 11.9036 9.52638 11.7849 9.59571 11.757C9.6118 11.836 9.61087 11.9315 9.65427 11.9831C9.68016 11.8437 9.71347 11.7117 9.74159 11.5745C9.68269 11.5865 9.63975 11.6765 9.58119 11.7133C9.54078 11.6078 9.51456 11.4885 9.47208 11.3849C9.41479 11.425 9.40672 11.5143 9.35525 11.56C9.32557 11.4826 9.30454 11.3969 9.25307 11.341ZM10.6096 11.56C10.5679 11.4995 10.5432 11.4225 10.4782 11.3849C10.452 11.4946 10.4221 11.6011 10.3983 11.7133C10.3375 11.6784 10.2968 11.5862 10.2376 11.5745C10.267 11.7176 10.2835 11.8737 10.3396 11.9902C10.3516 11.9051 10.3661 11.8222 10.3908 11.7498C10.4565 11.8129 10.4907 11.9074 10.573 11.9539C10.5958 11.8672 10.627 11.7893 10.6532 11.706C10.7149 11.7588 10.7441 11.8436 10.8139 11.8882C10.8543 11.7711 10.957 11.6618 10.9158 11.5093C10.84 11.4611 10.7834 11.3937 10.7116 11.3413C10.6691 11.4054 10.6538 11.4968 10.6096 11.56ZM9.81489 12.136C9.77731 12.157 9.75079 12.1891 9.71258 12.2091C9.69713 12.1909 9.65212 12.1314 9.63979 12.1579C9.6297 12.187 9.62843 12.2245 9.61784 12.2529C9.68746 12.2594 9.82515 12.2326 9.85829 12.2967C9.95697 12.2831 10.0366 12.3152 10.1136 12.2967C10.1424 12.2896 10.1648 12.2585 10.1938 12.2529C10.2481 12.2422 10.3009 12.2626 10.3546 12.2529C10.3446 12.2212 10.3524 12.1724 10.3323 12.1509C10.2845 12.149 10.2928 12.2034 10.245 12.2018C10.2201 12.1685 10.175 12.1549 10.15 12.1216C10.1222 11.9187 10.1047 11.7049 10.0627 11.5162C10.0461 11.7178 10.0923 11.919 10.0843 12.1361C10.0451 12.1697 10.0263 12.224 9.98226 12.2529C9.96567 12.2041 9.89938 12.1792 9.88722 12.1144C9.85546 11.9362 9.95355 11.6598 9.90947 11.5162C9.86855 11.7133 9.85956 11.9427 9.81489 12.136ZM8.88109 12.1434C8.91221 12.1631 8.94835 12.1783 9.00506 12.1725C9.0529 12.1161 9.08558 12.0441 9.14355 11.9977C9.16943 12.0763 9.19662 12.154 9.2315 12.2238C9.24809 12.2238 9.26545 12.2238 9.28233 12.2238C9.32181 12.1759 9.34377 12.1102 9.38434 12.0634C9.40993 12.1204 9.42222 12.1908 9.4497 12.2456C9.48302 12.2588 9.53702 12.2508 9.58106 12.253C9.65478 12.1281 9.62607 11.9298 9.57397 11.801C9.507 11.8605 9.46752 11.9472 9.39887 12.0051C9.36919 11.9206 9.35846 11.817 9.30383 11.7572C9.25299 11.8151 9.20735 11.8789 9.15824 11.9394C9.10643 11.8478 9.09191 11.7187 9.01946 11.6476C8.9804 11.8196 8.93083 11.9816 8.88109 12.1434ZM10.814 11.9392C10.7635 11.8778 10.727 11.802 10.6607 11.757C10.618 11.8283 10.6113 11.9362 10.5657 12.0049C10.5096 11.9418 10.459 11.835 10.3909 11.8079C10.3572 11.9568 10.3132 12.1286 10.3983 12.2528C10.44 12.2509 10.4912 12.2584 10.5223 12.2454C10.5559 12.1942 10.5614 12.1147 10.5951 12.0632C10.6259 12.1175 10.6589 12.1693 10.6898 12.2236C10.7095 12.2236 10.729 12.2236 10.7481 12.2236C10.7808 12.1469 10.8034 12.0599 10.8431 11.9901C10.8826 12.06 10.9298 12.1221 10.9816 12.1797C11.0224 12.1693 11.0738 12.1697 11.0911 12.1359C11.0416 11.9787 11.0004 11.8134 10.9526 11.6548C10.9451 11.6548 10.9381 11.6548 10.9306 11.6548C10.8961 11.7539 10.8554 11.847 10.814 11.9392ZM9.02697 12.1873C9.08841 12.1944 9.13498 12.2154 9.20207 12.2163C9.17902 12.1543 9.16783 12.0804 9.12185 12.0415C9.09723 12.0969 9.04576 12.1259 9.02697 12.1873ZM10.7774 12.2162C10.8191 12.2198 10.8893 12.1932 10.9452 12.1872C10.9397 12.1431 10.8829 12.0898 10.8505 12.0487C10.8045 12.0829 10.7949 12.154 10.7774 12.2162ZM9.31134 12.231C9.33532 12.2459 9.3854 12.235 9.42078 12.2385C9.40689 12.1962 9.40942 12.1379 9.36995 12.1216C9.34829 12.156 9.3227 12.186 9.31134 12.231ZM10.5587 12.2385C10.5927 12.2385 10.627 12.2385 10.6607 12.2385C10.6511 12.1845 10.633 12.1395 10.5876 12.1216C10.5859 12.165 10.5483 12.2061 10.5587 12.2385ZM11.2662 12.136C11.0957 12.1733 10.874 12.2378 10.6609 12.2603C10.4968 12.2771 10.35 12.2822 10.194 12.2748C10.1512 12.3211 10.1733 12.3741 10.2014 12.4207C10.3496 12.4429 10.5162 12.4326 10.6609 12.4132C10.6528 12.2585 10.8366 12.2201 10.8576 12.3842C11.0152 12.3496 11.1916 12.3336 11.3171 12.2673C11.3184 12.2058 11.3181 12.145 11.2662 12.136ZM9.18028 12.2456C9.05509 12.2277 8.88646 12.1685 8.77165 12.1435C8.70659 12.1293 8.68716 12.141 8.66255 12.1726C8.66255 12.2068 8.66255 12.2411 8.66255 12.2749C8.79677 12.3302 8.96178 12.3548 9.12202 12.3843C9.13561 12.2197 9.32063 12.2505 9.31134 12.4134C9.46989 12.4325 9.60867 12.4431 9.77115 12.4208C9.80353 12.3697 9.82481 12.3319 9.78567 12.2749C9.59064 12.2792 9.41618 12.2797 9.18028 12.2456ZM8.51667 12.333C8.56721 12.3201 8.60635 12.2964 8.64064 12.2673C8.6373 12.2318 8.64807 12.1819 8.6332 12.1579C8.55138 12.1693 8.49311 12.2412 8.51667 12.333ZM11.339 12.2748C11.3757 12.2988 11.4128 12.323 11.463 12.333C11.4802 12.247 11.4281 12.1693 11.3465 12.1579C11.3313 12.1842 11.3424 12.2369 11.339 12.2748ZM9.21659 12.4715C9.23239 12.4534 9.25481 12.4419 9.27486 12.4278C9.28005 12.3692 9.27267 12.3232 9.24581 12.2967C9.11762 12.2789 9.12248 12.4573 9.21659 12.4715ZM10.6972 12.4207C10.7076 12.4459 10.7413 12.4514 10.77 12.4715C10.7999 12.4551 10.814 12.423 10.8357 12.3987C10.832 12.2388 10.6486 12.3042 10.6972 12.4207ZM9.1072 12.4061C8.91297 12.3997 8.71735 12.2634 8.54555 12.3479C8.54002 12.3834 8.5138 12.3984 8.52359 12.4497C8.44135 12.441 8.3466 12.5506 8.34136 12.5885C8.33 12.6714 8.41259 12.7315 8.4579 12.7855C8.4527 12.8367 8.46246 12.8732 8.47985 12.9017C9.09723 13.1062 10.1174 13.1105 10.8794 13.026C11.1033 13.001 11.4601 12.9782 11.5214 12.8509C11.5214 12.8219 11.5214 12.7926 11.5214 12.7633C11.6023 12.742 11.6152 12.6532 11.6379 12.5737C11.5732 12.5314 11.5513 12.4466 11.4483 12.4426C11.4687 12.4132 11.4341 12.3865 11.4338 12.355C11.3428 12.2776 11.2342 12.3343 11.1057 12.3621C10.929 12.4006 10.8132 12.4009 10.7698 12.5301C10.7517 12.4851 10.7081 12.4654 10.6751 12.4351C10.5357 12.4554 10.3522 12.4703 10.2085 12.4425C10.1706 12.5017 10.0872 12.5156 10.0771 12.6029C10.0564 12.5483 10.0219 12.5074 10.026 12.4278C10.002 12.4278 9.97715 12.4278 9.95317 12.4278C9.94274 12.4957 9.92792 12.5582 9.8946 12.6029C9.88878 12.514 9.80209 12.5061 9.77098 12.4425C9.63 12.4752 9.42804 12.4457 9.30378 12.4425C9.25388 12.4579 9.23255 12.502 9.19468 12.5301C9.18915 12.4654 9.13641 12.4475 9.1072 12.4061ZM9.9022 12.3184C9.9112 12.3559 9.93615 12.3769 9.95338 12.4063C10.0423 12.4245 10.0502 12.3623 10.0773 12.3184C10.0345 12.3065 9.94498 12.3065 9.9022 12.3184ZM9.80003 12.4426C9.83114 12.4744 9.86209 12.507 9.90947 12.5228C9.93788 12.4472 9.91816 12.3351 9.83638 12.3258C9.84297 12.3834 9.79386 12.3851 9.80003 12.4426ZM10.1138 12.3258C10.0685 12.3585 10.0115 12.4797 10.0844 12.5228C10.1122 12.487 10.1617 12.4737 10.1794 12.4278C10.1488 12.4025 10.1556 12.3395 10.1138 12.3258Z" fill="#EEBC31"></path><path d="M8.56747 11.8157C8.48885 11.885 8.39693 11.9804 8.31958 12.027C8.35416 11.0315 8.41762 10.0086 8.45093 8.97852C8.52626 9.01276 8.60885 9.10214 8.67704 9.16814C8.64545 10.0588 8.60408 10.8751 8.56747 11.8157Z" fill="#EEBC31"></path><path d="M11.6601 12.019C11.6184 12.0271 11.5778 11.9589 11.5361 11.924C11.4889 11.8849 11.4335 11.8521 11.4048 11.8075C11.3588 11.0562 11.3699 10.2634 11.3097 9.5467C11.3007 9.4354 11.2783 9.24165 11.2952 9.17455C11.3181 9.08568 11.4689 9.05185 11.5142 8.9707C11.5699 9.88558 11.608 11.0335 11.6601 12.019Z" fill="#EEBC31"></path><path d="M8.74254 9.21875C8.81251 9.25789 8.86317 9.3165 8.92473 9.36463C8.90721 9.95089 8.87044 10.6528 8.84451 11.2387C8.84088 11.3244 8.8655 11.4594 8.83708 11.5379C8.8063 11.6227 8.68723 11.6683 8.63293 11.7421C8.66485 10.8926 8.71442 10.051 8.74254 9.21875Z" fill="#EEBC31"></path><path d="M11.3391 11.7275C11.3294 11.7376 11.3092 11.712 11.2953 11.6981C11.2522 11.6555 11.192 11.5898 11.1494 11.5451C11.1125 10.8317 11.0844 10.0874 11.0547 9.3789C11.0957 9.3129 11.1657 9.27596 11.2225 9.22559C11.265 9.99319 11.3023 10.9046 11.3391 11.7275Z" fill="#EEBC31"></path><path d="M10.7554 9.53958C10.7443 10.2868 10.4519 10.8163 9.98959 11.1367C9.51716 10.8119 9.24086 10.2908 9.19458 9.53958C9.52789 9.53738 9.81133 9.44644 9.98959 9.31348C10.1695 9.46425 10.4369 9.52725 10.7554 9.53958ZM9.72701 9.48841C9.71404 9.787 9.71991 10.1891 9.71991 10.5169C9.71991 10.6366 9.6953 10.7772 9.71991 10.867C9.73288 10.9139 9.80533 10.9573 9.84388 10.991C9.89379 11.0347 9.93453 11.0742 9.98237 11.1004C10.0536 11.0445 10.2273 10.9591 10.2525 10.8669C10.2762 10.7786 10.2525 10.643 10.2525 10.5243C10.2525 10.1829 10.2525 9.79731 10.2525 9.48828C10.1578 9.44171 10.0687 9.3899 9.97523 9.3424C9.90827 9.40725 9.79887 9.42887 9.72701 9.48841Z" fill="#EEBC31"></path><path d="M8.72083 12.1797C8.76647 12.1948 8.83863 12.1833 8.84479 12.2383C8.80628 12.2525 8.77517 12.2024 8.72083 12.2089C8.72083 12.1991 8.72083 12.1894 8.72083 12.1797Z" fill="#EEBC31"></path><path d="M11.2589 12.1942C11.2271 12.2207 11.1763 12.2278 11.1349 12.245C11.1337 12.1942 11.2326 12.1696 11.2589 12.1942Z" fill="#EEBC31"></path><path d="M8.9397 12.2529C9.00113 12.2597 9.05969 12.269 9.09271 12.3038C9.04487 12.3057 8.94932 12.2938 8.9397 12.2529Z" fill="#EEBC31"></path><path d="M11.0401 12.2605C11.0188 12.2864 10.9298 12.3107 10.8794 12.3039C10.9133 12.2751 10.9871 12.2465 11.0401 12.2605Z" fill="#EEBC31"></path><path d="M10.6389 12.3547C10.6007 12.3667 10.5165 12.3667 10.4781 12.3547C10.4908 12.3054 10.6225 12.3097 10.6389 12.3547Z" fill="#EEBC31"></path><path d="M9.5158 12.3333C9.50157 12.3873 9.39897 12.3527 9.3407 12.3623C9.34526 12.297 9.46699 12.3333 9.5158 12.3333Z" fill="#EEBC31"></path><path d="M9.73437 12.3474C9.69886 12.3662 9.6221 12.3792 9.58105 12.369C9.59575 12.3296 9.69223 12.3341 9.73437 12.3474Z" fill="#EEBC31"></path><path d="M10.391 12.3769C10.3351 12.3741 10.2887 12.3624 10.2377 12.3549C10.2652 12.329 10.391 12.3268 10.391 12.3769Z" fill="#EEBC31"></path><path d="M11.3976 12.6543C11.4306 12.6533 11.4127 12.6012 11.4484 12.6031C11.4432 12.6253 11.4558 12.6296 11.4555 12.6468C11.4132 12.6694 11.3769 12.6805 11.3244 12.6614C11.2671 12.6918 11.1961 12.797 11.1203 12.7196C11.0679 12.7283 11.0756 12.7963 11.0326 12.8147C10.9744 12.7687 10.9243 12.7913 10.8356 12.7998C10.8094 12.8297 10.8072 12.883 10.7554 12.8874C10.7585 12.8541 10.7985 12.8577 10.7991 12.8221C10.791 12.7984 10.7495 12.8085 10.7334 12.7927C10.7198 12.7328 10.7664 12.7331 10.7846 12.705C10.8179 12.7131 10.8207 12.7513 10.8283 12.7855C10.8555 12.7858 10.8743 12.7781 10.894 12.7707C10.9002 12.7284 10.9218 12.7013 10.9449 12.6759C10.9436 12.6355 10.9186 12.5805 10.9229 12.5591C10.9646 12.5687 10.9445 12.64 10.9666 12.6685C11.0227 12.6633 11.056 12.6815 11.0687 12.7194C11.1254 12.6978 11.1424 12.6318 11.2145 12.6321C11.2463 12.6321 11.2633 12.6598 11.2948 12.654C11.3035 12.5572 11.2782 12.3583 11.1563 12.435C11.1618 12.3968 11.2158 12.4066 11.2583 12.406C11.3349 12.4586 11.2615 12.6611 11.3976 12.6543ZM11.1421 12.7125C11.1758 12.7427 11.2602 12.7264 11.2516 12.6688C11.231 12.632 11.1277 12.6478 11.1421 12.7125ZM10.9964 12.7488C11.013 12.7437 11.0333 12.7424 11.0472 12.7343C11.0472 12.6511 10.9307 12.6925 10.9964 12.7488ZM10.9307 12.7708C10.9488 12.7721 10.9533 12.7594 10.967 12.7559C10.9667 12.7323 10.9701 12.7048 10.945 12.7051C10.9318 12.7181 10.911 12.7473 10.9307 12.7708ZM10.7554 12.7857C10.778 12.7958 10.7884 12.7888 10.8066 12.7782C10.8066 12.761 10.794 12.7566 10.7991 12.7345C10.769 12.7359 10.7499 12.7479 10.7554 12.7857ZM11.0035 12.7857C11.0265 12.8051 11.0568 12.7847 11.0546 12.756C11.032 12.7605 11.0032 12.7579 11.0035 12.7857Z" fill="#EEBC31"></path><path d="M8.74969 12.4423C8.74969 12.4543 8.74969 12.4666 8.74969 12.4786C8.73926 12.49 8.7124 12.4851 8.69142 12.4861C8.68526 12.4602 8.69049 12.4679 8.68433 12.4423C8.70438 12.4246 8.72697 12.4291 8.74969 12.4423Z" fill="#EEBC31"></path><path d="M8.73513 12.5298C8.73606 12.5427 8.72614 12.5452 8.7277 12.5588C8.69802 12.5595 8.6707 12.5579 8.66943 12.5298C8.68147 12.5187 8.72344 12.5187 8.73513 12.5298Z" fill="#EEBC31"></path><path d="M10.267 12.5889C10.2766 12.5889 10.2864 12.5889 10.296 12.5889C10.3067 12.5993 10.3067 12.6367 10.296 12.6471C10.2864 12.6471 10.2766 12.6471 10.267 12.6471C10.2562 12.6365 10.2562 12.5993 10.267 12.5889Z" fill="#EEBC31"></path><path d="M9.46449 12.6025C9.48708 12.6976 9.50333 12.9025 9.42074 12.9161C9.3385 12.9294 9.36218 12.8051 9.28225 12.7993C9.23345 12.8172 9.17315 12.8378 9.12185 12.8142C9.08554 12.8167 9.09137 12.8614 9.05615 12.8653C9.10306 12.8169 9.0833 12.7553 9.07811 12.6973C9.11725 12.7019 9.12278 12.7401 9.12185 12.7853C9.14284 12.8293 9.23066 12.7998 9.26034 12.7853C9.24455 12.7545 9.22483 12.728 9.20917 12.6973C9.25384 12.6856 9.25384 12.6443 9.29678 12.6465C9.36801 12.6498 9.38536 12.76 9.3113 12.7924C9.35914 12.8102 9.36497 12.8701 9.40635 12.8944C9.50257 12.8737 9.43214 12.6872 9.46449 12.6025ZM9.24599 12.7192C9.24472 12.747 9.26997 12.763 9.29682 12.7778C9.41982 12.7225 9.25055 12.6022 9.24599 12.7192Z" fill="#EEBC31"></path><path d="M9.55955 12.6025C9.58323 12.6527 9.55119 12.7678 9.54468 12.8361C9.5237 12.7882 9.54912 12.6668 9.55955 12.6025Z" fill="#EEBC31"></path><path d="M10.3691 12.6025C10.418 12.651 10.3605 12.8058 10.42 12.843C10.4699 12.8281 10.5035 12.8349 10.515 12.7922C10.5251 12.7543 10.4727 12.7317 10.5005 12.7045C10.5656 12.7077 10.5225 12.7993 10.515 12.8359C10.4389 12.8563 10.3611 12.8634 10.296 12.8504C10.3 12.8131 10.3391 12.8109 10.3691 12.7993C10.3966 12.7364 10.3534 12.6535 10.3691 12.6025Z" fill="#EEBC31"></path><path d="M10.3254 12.6905C10.3299 12.7332 10.2371 12.7087 10.2671 12.6831C10.2775 12.6734 10.3247 12.6683 10.3254 12.6905Z" fill="#EEBC31"></path><path d="M10.5952 12.9315C10.6052 12.8923 10.6292 12.8683 10.6464 12.8364C10.626 12.7957 10.5458 12.7575 10.6024 12.7051C10.7144 12.7218 10.6617 12.9048 10.5952 12.9315ZM10.6023 12.7416C10.6059 12.7697 10.6175 12.79 10.6463 12.7927C10.6639 12.7712 10.6309 12.7172 10.6023 12.7416Z" fill="#EEBC31"></path><path d="M11.4047 12.734C11.4044 12.7766 11.3526 12.7624 11.3319 12.7485C11.3433 12.7078 11.3805 12.7199 11.4047 12.734Z" fill="#EEBC31"></path><path d="M9.76371 12.7266C9.83034 12.7731 9.9527 12.7984 10.0406 12.7629C10.062 12.7832 10.0597 12.8267 10.0773 12.8505C10.086 12.8421 10.1029 12.8421 10.121 12.8431C10.1059 12.7564 10.2265 12.735 10.223 12.8285C10.2008 12.8699 10.1354 12.8674 10.0697 12.8652C10.0399 12.8816 10.0399 12.9275 10.0115 12.9451C9.97909 12.9337 9.95228 12.9166 9.94577 12.8797C9.84457 12.8587 9.83131 12.8713 9.71224 12.8652C9.68285 12.8998 9.65461 12.9713 9.61023 12.9672C9.63155 12.9299 9.67306 12.9135 9.68332 12.8652C9.66972 12.8374 9.61889 12.8156 9.64667 12.7701C9.71663 12.7588 9.68251 12.8513 9.74142 12.8504C9.80348 12.8253 9.75598 12.7671 9.76371 12.7266ZM9.78566 12.8505C9.82514 12.8508 9.89211 12.8518 9.94607 12.858C9.96895 12.8765 9.97165 12.915 10.0043 12.9237C10.0283 12.8919 10.0697 12.8321 10.0337 12.7852C9.95333 12.8516 9.77794 12.6988 9.78566 12.8505ZM10.1501 12.8431C10.188 12.8496 10.2019 12.8317 10.2013 12.7994C10.1736 12.7622 10.1242 12.8052 10.1501 12.8431Z" fill="#EEBC31"></path><path d="M8.69881 12.763C8.72187 12.7569 8.7214 12.7744 8.73513 12.7779C8.73605 12.8001 8.72613 12.8128 8.7206 12.8287C8.67846 12.8229 8.67846 12.7861 8.69881 12.763Z" fill="#EEBC31"></path><path d="M8.82278 12.7926C8.85356 12.8431 8.77937 12.8703 8.75708 12.8289C8.75991 12.7978 8.78296 12.7866 8.82278 12.7926Z" fill="#EEBC31"></path><path d="M8.93227 12.8506C8.92517 12.8509 8.92644 12.8596 8.92484 12.8655C8.90795 12.8655 8.89089 12.8655 8.87366 12.8655C8.83929 12.8053 8.93514 12.784 8.93227 12.8506Z" fill="#EEBC31"></path><path d="M10.3617 12.8945C10.4005 12.8955 10.396 12.9577 10.3691 12.9676C10.3394 12.9637 10.3416 12.9075 10.3617 12.8945Z" fill="#EEBC31"></path><path d="M10.4638 12.968C10.4425 12.96 10.4207 12.9526 10.413 12.9317C10.4351 12.8619 10.5244 12.9243 10.4638 12.968Z" fill="#EEBC31"></path><path d="M8.78651 12.4424C8.79394 12.4424 8.80103 12.4424 8.80846 12.4424C8.81066 12.543 8.65832 12.7148 8.83042 12.7268C8.85854 12.7089 8.84304 12.6472 8.88125 12.6391C8.88552 12.6776 8.86639 12.6925 8.8593 12.7194C8.89261 12.8128 9.06061 12.7598 8.99065 12.654C9.07244 12.6553 9.00817 12.7426 8.99774 12.778C8.95054 12.8002 8.88265 12.7767 8.84473 12.7486C8.76358 12.7421 8.69205 12.726 8.68433 12.6466C8.75712 12.6172 8.77321 12.5311 8.78651 12.4424Z" fill="#EEBC31"></path></g><defs><clipPath id="clip0_4288_2247"><rect width="20" height="20" fill="white"></rect></clipPath></defs></svg>