<svg xmlns="http://www.w3.org/2000/svg" width="2160" height="580" viewBox="0 0 2160 580" fill="none"><g clip-path="url(#clip0_4206_40)"><path d="M1437.49 423.634L1442.52 422.736L1447.67 421.199L1442.79 422.267L1437.49 423.634ZM1403.48 432.469L1415.56 430.793C1419.93 429.484 1424.28 428.186 1428.64 426.883C1424.45 427.641 1420.18 428.424 1415.97 429.185C1411.85 430.258 1407.63 431.382 1403.48 432.469ZM1384.82 435.079L1390.08 434.34C1391.9 433.861 1393.75 433.368 1395.58 432.888L1390.49 433.813C1388.61 434.228 1386.7 434.66 1384.82 435.079ZM1373.99 440.272L1388.63 438.848C1394.25 437.149 1399.8 435.501 1405.36 433.847C1400.39 434.535 1395.37 435.241 1390.37 435.939C1384.89 437.393 1379.43 438.842 1373.99 440.272ZM1352.11 442.41L1363.97 441.251L1376.9 437.833L1365.24 439.47C1360.85 440.452 1356.48 441.433 1352.11 442.41ZM1332.71 444.304L1338.98 443.691L1345.37 442.258L1339.03 443.15L1332.71 444.304ZM1345.56 447.797L1361.94 446.914C1368.14 445.03 1374.38 443.124 1380.54 441.264L1364.22 442.856L1345.56 447.797ZM1322.51 449.043L1337.61 448.226C1343.16 446.757 1348.68 445.299 1354.21 443.836L1339.22 445.3C1333.65 446.546 1328.1 447.787 1322.51 449.043ZM1300.74 450.221L1312.75 449.572C1317.22 448.564 1321.64 447.575 1326.08 446.583L1313.96 447.774L1300.74 450.221ZM1281.93 451.233L1288.19 450.897L1294.97 449.643L1288.97 450.233L1281.93 451.233ZM1317.9 455.118L1335.75 454.954C1342.3 452.951 1348.94 450.904 1355.53 448.882L1337.86 449.835C1331.22 451.591 1324.58 453.338 1317.9 455.118ZM1294.43 455.338L1311.35 455.179C1317.58 453.518 1323.74 451.894 1329.91 450.266L1312.97 451.182C1306.82 452.556 1300.68 453.921 1294.43 455.338ZM1271.97 455.542C1276.95 455.501 1281.84 455.451 1286.81 455.404C1292.31 454.158 1297.77 452.929 1303.21 451.709L1288.38 452.509L1271.97 455.542ZM1250.27 455.744C1254.42 455.71 1258.46 455.666 1262.61 455.632L1275.83 453.184L1263.64 453.838L1250.27 455.744ZM1231.53 455.9C1233.65 455.885 1235.86 455.876 1237.97 455.857L1245.16 454.836L1238.88 455.173L1231.53 455.9ZM1290.21 462.447C1296.4 462.679 1302.81 462.962 1308.94 463.18C1316.05 461.001 1323.19 458.805 1330.3 456.626L1311.55 456.798C1304.45 458.673 1297.4 460.52 1290.21 462.447ZM1267.29 461.543C1273.08 461.766 1278.96 462.009 1284.74 462.228C1291.57 460.4 1298.26 458.64 1305 456.859L1286.99 457.025C1280.44 458.526 1273.81 460.057 1267.29 461.543ZM1244.43 460.638C1249.99 460.86 1255.55 461.08 1261.1 461.296C1267.18 459.911 1273.32 458.499 1279.44 457.094C1273.85 457.145 1268.35 457.202 1262.75 457.25C1256.66 458.377 1250.58 459.496 1244.43 460.638ZM1222.12 459.762C1227.12 459.959 1232.1 460.153 1237.09 460.35C1242.57 459.33 1247.97 458.337 1253.38 457.34C1248.24 457.381 1243.26 457.438 1238.1 457.477C1232.79 458.233 1227.47 458.992 1222.12 459.762ZM1200.98 458.928C1205.08 459.091 1209.12 459.245 1213.21 459.41C1217.47 458.798 1221.8 458.167 1226.06 457.556C1222.11 457.586 1217.99 457.605 1214.02 457.633L1200.98 458.928ZM1182.55 458.199C1184.79 458.293 1187 458.375 1189.24 458.465L1196.47 457.744L1190.31 457.783L1182.55 458.199ZM1263.41 469.69L1282.56 471.28C1289.82 469.043 1297.03 466.836 1304.26 464.618C1297.9 464.382 1291.32 464.102 1284.91 463.858C1277.78 465.78 1270.52 467.774 1263.41 469.69ZM1240.17 467.756C1246.38 468.285 1252.51 468.783 1258.68 469.297C1265.58 467.437 1272.59 465.522 1279.52 463.645C1273.46 463.41 1267.34 463.164 1261.25 462.925C1254.24 464.533 1247.19 466.149 1240.17 467.756ZM1217.14 465.729C1222.99 466.241 1229.03 466.815 1234.84 467.316L1255.07 462.681L1237.21 461.975C1230.55 463.218 1223.84 464.478 1217.14 465.729ZM1194.84 463.702C1200.26 464.183 1205.85 464.722 1211.25 465.195C1217.42 464.039 1223.7 462.844 1229.87 461.686C1224.34 461.469 1218.85 461.256 1213.31 461.033L1194.84 463.702ZM1173 461.716C1177.94 462.157 1182.95 462.628 1187.88 463.069L1204.4 460.682C1199.34 460.477 1194.38 460.294 1189.32 460.089L1173 461.716ZM1152.26 459.828C1156.31 460.197 1160.39 460.571 1164.44 460.933L1177.59 459.627C1173.4 459.456 1169.33 459.309 1165.14 459.136L1152.26 459.828ZM1133.77 458.143L1141.06 458.808L1147.73 458.45C1145.08 458.34 1142.4 458.219 1139.76 458.106L1133.77 458.143ZM1236.74 476.918C1243.11 477.787 1249.44 478.631 1255.8 479.491C1263.4 477.14 1270.86 474.87 1278.38 472.559L1258.82 470.932C1251.48 472.919 1244.08 474.935 1236.74 476.918ZM1213.72 473.817C1220.04 474.676 1226.3 475.507 1232.61 476.364C1239.76 474.429 1246.94 472.473 1254.09 470.539C1247.71 470.008 1241.39 469.498 1234.96 468.948C1227.89 470.566 1220.82 472.186 1213.72 473.817ZM1190.71 470.715C1196.9 471.564 1202.98 472.359 1209.15 473.199C1216.02 471.62 1222.85 470.061 1229.67 468.498C1223.67 467.979 1217.36 467.359 1211.32 466.827C1204.46 468.118 1197.56 469.426 1190.71 470.715ZM1167.79 467.608C1173.8 468.45 1179.64 469.203 1185.62 470.026L1205.43 466.291C1199.66 465.781 1193.72 465.216 1187.93 464.7L1167.79 467.608ZM1145.83 464.421C1151.21 465.184 1156.77 466.035 1162.14 466.785L1180.97 464.067C1175.5 463.576 1169.95 463.062 1164.46 462.563L1145.83 464.421ZM1124.45 461.32C1129.33 462.017 1134.31 462.763 1139.18 463.458L1155.9 461.787L1141.01 460.432L1124.45 461.32ZM1103.89 458.335C1108.02 458.93 1112.17 459.543 1116.29 460.133L1129.8 459.409C1125.53 459.02 1121.32 458.645 1117.04 458.252C1112.67 458.279 1108.31 458.309 1103.89 458.335ZM1085.71 455.696L1093.19 456.781L1100.39 456.735C1097.6 456.476 1094.88 456.24 1092.09 455.978L1085.71 455.696ZM1209.89 484.201C1216.28 485.421 1222.59 486.591 1228.96 487.802C1236.71 485.392 1244.41 483.008 1252.1 480.628C1245.63 479.753 1239.19 478.892 1232.71 478.011C1225.12 480.068 1217.51 482.133 1209.89 484.201ZM1187.15 479.904C1193.55 481.131 1199.86 482.292 1206.25 483.513C1213.72 481.481 1221.15 479.467 1228.58 477.455C1222.12 476.579 1215.71 475.73 1209.23 474.846C1201.88 476.53 1194.57 478.194 1187.15 479.904ZM1164.58 475.641C1170.82 476.839 1176.94 477.963 1183.17 479.153C1190.4 477.483 1197.5 475.868 1204.66 474.231C1198.3 473.362 1192.04 472.548 1185.65 471.667C1178.64 472.989 1171.62 474.31 1164.58 475.641ZM1141.88 471.352C1148.04 472.546 1154.06 473.633 1160.21 474.815C1167.01 473.532 1173.79 472.258 1180.56 470.98C1174.43 470.134 1168.31 469.291 1162.14 468.423C1155.4 469.399 1148.68 470.365 1141.88 471.352ZM1119.27 467.083C1125.25 468.252 1131.01 469.269 1136.96 470.422C1143.52 469.471 1149.99 468.54 1156.48 467.605C1150.77 466.801 1144.88 465.903 1139.16 465.091L1119.27 467.083ZM1097.68 462.752C1103.01 463.807 1108.48 464.957 1113.79 465.999L1132.5 464.124C1127.11 463.354 1121.62 462.536 1116.21 461.757L1097.68 462.752ZM1076.64 458.508C1081.52 459.483 1086.46 460.505 1091.33 461.47L1108.05 460.576C1103.07 459.86 1098.07 459.129 1093.08 458.404C1087.63 458.442 1082.19 458.477 1076.64 458.508ZM1056.17 454.377C1060.39 455.228 1064.63 456.091 1068.85 456.936C1073.42 456.912 1077.89 456.881 1082.38 456.849C1078.05 456.218 1073.75 455.606 1069.41 454.969L1056.17 454.377ZM1038.72 450.859L1045.85 452.295L1053.29 452.626C1050.87 452.272 1048.51 451.944 1046.09 451.586C1043.64 451.346 1041.16 451.095 1038.72 450.859ZM1182.94 491.508C1189.34 493.07 1195.82 494.699 1202.19 496.232C1209.97 493.797 1217.89 491.278 1225.68 488.837C1219.2 487.606 1212.79 486.415 1206.3 485.177C1198.52 487.285 1190.78 489.37 1182.94 491.508ZM1160.63 486.038C1166.99 487.601 1173.35 489.166 1179.7 490.716C1187.41 488.607 1195 486.562 1202.66 484.489C1196.14 483.246 1189.71 482.062 1183.19 480.813C1175.69 482.542 1168.16 484.288 1160.63 486.038ZM1138.38 480.58C1144.66 482.13 1150.89 483.645 1157.16 485.186C1164.51 483.481 1171.89 481.755 1179.22 480.059C1172.84 478.842 1166.58 477.693 1160.19 476.468C1152.93 477.835 1145.7 479.191 1138.38 480.58ZM1116.1 475.113C1122.29 476.653 1128.4 478.12 1134.58 479.646C1141.71 478.294 1148.75 476.975 1155.83 475.64C1149.48 474.42 1143.28 473.303 1136.91 472.069C1130 473.076 1123.01 474.105 1116.1 475.113ZM1093.78 469.637C1099.88 471.167 1105.83 472.574 1111.91 474.087C1118.59 473.116 1125.33 472.121 1132.02 471.145C1125.88 469.952 1119.87 468.852 1113.71 467.639L1093.78 469.637ZM1071.48 464.155C1077.41 465.659 1083.15 466.996 1089.06 468.48L1108.3 466.55C1102.65 465.438 1096.86 464.222 1091.19 463.1L1071.48 464.155ZM1050.37 458.648C1055.64 460.003 1061.06 461.471 1066.32 462.808L1084.84 461.819C1079.48 460.751 1074.05 459.635 1068.68 458.56C1062.62 458.593 1056.47 458.619 1050.37 458.648ZM1029.41 453.183C1034.34 454.458 1039.33 455.788 1044.24 457.051C1049.72 457.023 1055.39 457.011 1060.88 456.985C1055.8 455.967 1050.71 454.938 1045.62 453.908C1040.23 453.669 1034.85 453.432 1029.41 453.183ZM1009.44 447.977C1013.6 449.059 1017.77 450.152 1021.92 451.228C1026.41 451.432 1030.85 451.629 1035.3 451.825C1031.08 450.97 1026.9 450.141 1022.67 449.277C1018.25 448.836 1013.84 448.406 1009.44 447.977ZM992.528 443.564C994.828 444.167 997.112 444.76 999.411 445.358L1006.89 446.097C1004.7 445.648 1002.56 445.231 1000.36 444.779C997.772 444.385 995.118 443.958 992.528 443.564ZM1155.94 498.836C1162.45 500.766 1169.03 502.767 1175.49 504.634C1183.38 502.155 1191.32 499.643 1199.19 497.175C1192.73 495.611 1186.18 493.983 1179.69 492.392C1171.77 494.545 1163.94 496.643 1155.94 498.836ZM1134.19 492.228C1140.45 494.105 1146.82 496.111 1153.05 497.962C1160.92 495.799 1168.65 493.716 1176.45 491.594C1170.01 490.019 1163.58 488.449 1157.13 486.859C1149.51 488.635 1141.81 490.451 1134.19 492.228ZM1112.21 485.544C1118.5 487.449 1124.83 489.401 1131.1 491.288C1138.59 489.54 1146.17 487.755 1153.66 486.004C1147.26 484.43 1140.92 482.895 1134.51 481.309C1127.09 482.715 1119.67 484.121 1112.21 485.544ZM1090.32 478.888C1096.52 480.782 1102.7 482.655 1108.89 484.534C1116.17 483.144 1123.46 481.757 1130.71 480.379C1124.39 478.81 1118.15 477.323 1111.81 475.742L1090.32 478.888ZM1068.33 472.199C1074.48 474.093 1080.56 475.907 1086.69 477.783L1107.63 474.715C1101.35 473.15 1095.22 471.712 1088.92 470.127L1068.33 472.199ZM1046.3 465.501C1052.36 467.385 1058.27 469.116 1064.3 470.978L1084.19 468.97C1078.16 467.447 1072.19 465.984 1066.13 464.441L1046.3 465.501ZM1024.55 458.743C1030.3 460.552 1036.03 462.337 1041.77 464.125L1060.97 463.095C1055.37 461.667 1049.63 460.117 1044 458.672C1037.52 458.694 1030.97 458.713 1024.55 458.743ZM1003.76 452.04C1009 453.703 1014.36 455.494 1019.58 457.139C1025.62 457.116 1031.77 457.094 1037.87 457.074C1032.49 455.682 1027.04 454.237 1021.63 452.838C1015.69 452.577 1009.78 452.32 1003.76 452.04ZM983.113 445.383C988.034 446.96 993.016 448.595 997.927 450.16C1003.39 450.413 1008.75 450.644 1014.13 450.885C1009.12 449.581 1004.1 448.27 999.075 446.954L983.113 445.383ZM963.537 439.071C967.639 440.393 971.747 441.726 975.84 443.039C980.251 443.474 984.644 443.906 989.041 444.336C984.888 443.248 980.783 442.199 976.624 441.099C972.247 440.415 967.881 439.74 963.537 439.071ZM946.863 433.694C949.164 434.441 951.45 435.174 953.751 435.917L961.133 437.061C958.902 436.471 956.725 435.926 954.495 435.331C951.973 434.803 949.384 434.226 946.863 433.694ZM1129.23 506.251C1135.83 508.561 1142.36 510.773 1148.9 513.005C1156.85 510.498 1164.75 508.012 1172.66 505.528C1166.18 503.643 1159.54 501.589 1153.01 499.649C1145.13 501.824 1137.1 504.083 1129.23 506.251ZM1107.71 498.426C1113.94 500.651 1120.37 503.134 1126.57 505.311C1134.37 503.157 1142.31 500.928 1150.12 498.775C1143.81 496.894 1137.37 494.876 1131.03 492.969C1123.28 494.779 1115.49 496.603 1107.71 498.426ZM1086.15 490.549C1092.38 492.802 1098.72 495.186 1104.94 497.414C1112.61 495.614 1120.29 493.813 1127.94 492.028C1121.57 490.109 1115.16 488.144 1108.78 486.202C1101.26 487.642 1093.67 489.109 1086.15 490.549ZM1064.56 482.659C1070.76 484.923 1077 487.227 1083.19 489.466C1090.59 488.049 1098.05 486.606 1105.45 485.191C1099.15 483.275 1092.86 481.374 1086.54 479.442C1079.22 480.512 1071.92 481.581 1064.56 482.659ZM1042.94 474.765C1049.09 477.023 1055.22 479.253 1061.36 481.49C1068.57 480.429 1075.73 479.386 1082.9 478.336C1076.62 476.413 1070.42 474.567 1064.12 472.625L1042.94 474.765ZM1021.25 466.84C1027.35 469.102 1033.36 471.247 1039.44 473.485L1060.09 471.401C1053.87 469.476 1047.78 467.706 1041.53 465.756L1021.25 466.84ZM999.342 458.839C1005.42 461.114 1011.33 463.18 1017.38 465.426L1037 464.38C1031.14 462.547 1025.19 460.617 1019.31 458.764C1012.67 458.789 1005.96 458.809 999.342 458.839ZM978.696 450.923C984.083 452.961 989.636 455.212 995.01 457.232L1014.34 457.16C1008.81 455.412 1003.15 453.532 997.61 451.767C991.318 451.49 985.096 451.225 978.696 450.923ZM957.967 442.909C963.256 444.927 968.644 447.072 973.916 449.073C979.938 449.36 985.843 449.619 991.77 449.883C986.368 448.16 980.9 446.372 975.481 444.633C969.652 444.06 963.835 443.493 957.967 442.909ZM937.69 435.066C942.556 436.939 947.46 438.861 952.315 440.722C957.645 441.254 962.92 441.771 968.205 442.288C963.25 440.691 958.297 439.099 953.329 437.491L937.69 435.066ZM918.378 427.596C922.463 429.182 926.54 430.756 930.617 432.331L943.538 434.332C939.37 432.978 935.257 431.68 931.082 430.316C926.834 429.401 922.6 428.493 918.378 427.596ZM901.614 421.115C904.008 422.051 906.371 422.948 908.761 423.88L915.756 425.377C913.153 424.522 910.619 423.738 908.011 422.879C905.89 422.299 903.73 421.689 901.614 421.115ZM1102.81 513.583C1109.29 516.227 1115.74 518.816 1122.19 521.415C1130.28 518.848 1138.24 516.364 1146.27 513.835C1139.69 511.591 1133.12 509.35 1126.47 507.017C1118.61 509.19 1110.68 511.404 1102.81 513.583ZM1081.21 504.628C1087.59 507.288 1094.01 510.003 1100.35 512.589C1108.17 510.423 1116.05 508.223 1123.86 506.065C1117.59 503.851 1111.11 501.359 1104.81 499.104C1096.95 500.943 1089.12 502.771 1081.21 504.628ZM1060.07 495.553C1066.24 498.16 1072.56 500.986 1078.7 503.551C1086.52 501.711 1094.26 499.913 1102.03 498.091C1095.74 495.833 1089.34 493.433 1083.02 491.147C1075.39 492.611 1067.73 494.083 1060.07 495.553ZM1038.83 486.442C1045.01 489.073 1051.25 491.81 1057.41 494.416C1064.97 492.962 1072.53 491.508 1080.06 490.068C1073.78 487.789 1067.45 485.458 1061.15 483.157C1053.73 484.25 1046.3 485.336 1038.83 486.442ZM1017.59 477.323C1023.73 479.964 1029.87 482.611 1035.99 485.223C1043.33 484.138 1050.65 483.063 1057.95 481.99C1051.7 479.704 1045.47 477.446 1039.2 475.143L1017.59 477.323ZM996.271 468.175C1002.38 470.82 1008.43 473.386 1014.52 476.005L1035.7 473.862C1029.48 471.569 1023.34 469.382 1017.09 467.063L996.271 468.175ZM974.722 458.93C980.836 461.605 986.82 464.09 992.911 466.736L1013.22 465.648C1007 463.337 1000.92 461.201 994.684 458.852L974.722 458.93ZM953.699 449.697C959.465 452.249 965.23 454.799 970.978 457.319L990.53 457.249C984.93 455.137 979.155 452.808 973.537 450.677C966.952 450.356 960.241 450.006 953.699 449.697ZM933.41 440.488C938.802 442.898 944.314 445.493 949.688 447.877C955.971 448.179 962.39 448.507 968.729 448.819C963.158 446.699 957.484 444.449 951.895 442.31C945.748 441.708 939.634 441.116 933.41 440.488ZM913.043 431.246C918.287 433.609 923.599 436.068 928.826 438.411C934.695 439.002 940.452 439.558 946.244 440.123C940.894 438.068 935.503 435.967 930.138 433.897C924.448 433.016 918.768 432.14 913.043 431.246ZM893.063 422.179C897.895 424.374 902.737 426.58 907.559 428.757C912.753 429.572 917.903 430.365 923.063 431.159C918.118 429.246 913.197 427.358 908.24 425.429L893.063 422.179ZM873.842 413.456C877.957 415.335 882.032 417.168 886.136 419.036C890.306 419.934 894.46 420.815 898.62 421.709C894.336 420.032 890.124 418.448 885.829 416.763C881.826 415.652 877.827 414.548 873.842 413.456ZM856.691 405.674C859.264 406.857 861.793 407.973 864.365 409.153L870.615 410.878C867.268 409.556 864.016 408.355 860.662 407.024C859.342 406.577 858.005 406.115 856.691 405.674ZM1076.3 520.945C1082.68 523.927 1089.05 526.902 1095.42 529.876C1103.59 527.273 1111.61 524.761 1119.71 522.196C1113.22 519.581 1106.73 516.98 1100.19 514.312C1092.24 516.514 1084.28 518.723 1076.3 520.945ZM1054.69 510.838C1061.19 513.948 1067.59 516.873 1074.04 519.891C1081.96 517.687 1089.84 515.502 1097.73 513.316C1091.38 510.712 1084.91 507.93 1078.51 505.262C1070.56 507.126 1062.71 508.944 1054.69 510.838ZM1033.97 500.562C1040.07 503.525 1046.34 506.796 1052.41 509.707C1060.36 507.83 1068.13 506.03 1076 504.185C1069.79 501.588 1063.42 498.746 1057.18 496.11C1049.45 497.591 1041.75 499.063 1033.97 500.562ZM1013.16 490.247C1019.27 493.247 1025.48 496.409 1031.57 499.374C1039.27 497.891 1046.87 496.437 1054.52 494.969C1048.29 492.328 1041.98 489.568 1035.72 486.9C1028.23 488.01 1020.67 489.139 1013.16 490.247ZM992.283 479.894C998.391 482.918 1004.53 485.993 1010.62 488.988C1018.03 487.89 1025.49 486.78 1032.89 485.685C1026.67 483.03 1020.44 480.351 1014.21 477.67L992.283 479.894ZM971.331 469.507C977.42 472.546 983.48 475.533 989.551 478.544L1011.14 476.349C1004.93 473.677 998.775 471.077 992.552 468.375L971.331 469.507ZM950.173 459.018C956.279 462.092 962.289 465.003 968.374 468.042L989.194 466.93C982.958 464.221 976.838 461.69 970.574 458.942L950.173 459.018ZM928.971 448.471C935.009 451.549 940.912 454.374 946.926 457.41L966.832 457.336C961.002 454.773 955.081 452.068 949.233 449.473C942.496 449.144 935.682 448.796 928.971 448.471ZM909.12 438.072C914.556 440.866 920.132 443.917 925.554 446.681C932.072 446.999 938.683 447.333 945.228 447.655C939.645 445.172 933.933 442.494 928.335 439.989C921.942 439.358 915.586 438.731 909.12 438.072ZM888.968 427.515C894.364 430.315 899.843 433.261 905.226 436.034C911.425 436.668 917.596 437.291 923.75 437.906C918.195 435.416 912.572 432.823 907.005 430.31C901.005 429.386 895.032 428.473 888.968 427.515ZM868.914 417.01C874.113 419.728 879.34 422.49 884.524 425.186C890.245 426.094 895.868 426.949 901.519 427.821C896.197 425.412 890.87 422.998 885.532 420.567C880.004 419.386 874.481 418.211 868.914 417.01ZM849.116 406.639C853.939 409.181 858.742 411.679 863.552 414.2C868.601 415.293 873.596 416.357 878.605 417.423C873.625 415.15 868.695 412.954 863.701 410.659C858.84 409.318 853.984 407.984 849.116 406.639ZM829.835 396.537C834.019 398.757 838.14 400.867 842.312 403.074C846.291 404.179 850.253 405.265 854.222 406.359C849.716 404.283 845.31 402.359 840.796 400.266C837.134 399.016 833.483 397.773 829.835 396.537ZM812.008 387.197C814.862 388.724 817.642 390.123 820.491 391.642L826.533 393.698C823.814 392.428 821.007 391.029 818.281 389.754C816.19 388.898 814.091 388.042 812.008 387.197ZM1049.35 528.424C1055.76 531.868 1062.12 535.198 1068.48 538.561C1076.63 535.951 1084.95 533.236 1093.1 530.626C1086.68 527.629 1080.26 524.642 1073.83 521.629C1065.67 523.894 1057.57 526.128 1049.35 528.424ZM1028.65 517.039C1034.83 520.419 1041.12 524.002 1047.27 527.324C1055.43 525.041 1063.47 522.828 1071.58 520.576C1065.12 517.545 1058.68 514.549 1052.17 511.431C1044.37 513.279 1036.45 515.189 1028.65 517.039ZM1008 505.559C1014.17 508.967 1020.4 512.508 1026.55 515.875C1034.28 514.038 1042.16 512.132 1049.88 510.3C1043.76 507.358 1037.44 504.072 1031.28 501.079C1023.52 502.574 1015.82 504.046 1008 505.559ZM987.349 494.077C993.505 497.505 999.666 500.946 1005.8 504.338C1013.55 502.836 1021.2 501.372 1028.89 499.89C1022.73 496.891 1016.47 493.706 1010.3 490.674L987.349 494.077ZM966.545 482.512C972.728 485.989 978.857 489.346 985.02 492.784L1007.75 489.41C1001.58 486.379 995.374 483.273 989.191 480.209L966.545 482.512ZM945.705 470.875C951.867 474.38 957.925 477.677 964.062 481.131L986.463 478.856C980.293 475.799 974.15 472.777 967.966 469.687L945.705 470.875ZM925.475 459.108C931.338 462.477 937.308 466.06 943.151 469.39L965.015 468.223C958.816 465.122 952.695 462.176 946.474 459.032C939.479 459.057 932.524 459.087 925.475 459.108ZM905.16 447.291C911 450.676 916.88 454.148 922.707 457.496C929.598 457.476 936.388 457.446 943.228 457.423C937.157 454.354 931.142 451.385 925.05 448.277C918.435 447.953 911.773 447.617 905.16 447.291ZM884.913 435.516C890.655 438.874 896.382 442.198 902.111 445.522L921.635 446.485C916.038 443.627 910.288 440.496 904.677 437.604C898.106 436.916 891.436 436.191 884.913 435.516ZM864.688 423.752C870.318 427.07 875.876 430.239 881.491 433.525C887.863 434.184 894.368 434.888 900.784 435.562C895.199 432.682 889.528 429.64 883.929 426.734C877.522 425.745 871.182 424.786 864.688 423.752ZM844.21 411.723C849.772 415.032 855.279 418.231 860.822 421.504C867.117 422.509 873.271 423.445 879.484 424.404C873.975 421.538 868.438 418.619 862.912 415.726C856.689 414.397 850.501 413.094 844.21 411.723ZM824.771 399.921C829.818 402.955 834.948 406.15 839.981 409.153C845.892 410.446 851.704 411.668 857.551 412.914C852.234 410.125 846.947 407.385 841.617 404.569C836.013 403.028 830.417 401.497 824.771 399.921ZM805.604 388.291C810.287 391.125 814.999 394.021 819.672 396.83C824.749 398.248 829.776 399.622 834.813 401.004C829.753 398.324 824.776 395.793 819.701 393.09C815.003 391.494 810.316 389.905 805.604 388.291ZM787.02 377.014C791.076 379.485 795.119 381.93 799.167 384.385C802.911 385.671 806.631 386.926 810.356 388.192C805.947 385.834 801.565 383.518 797.149 381.14C793.769 379.759 790.396 378.393 787.02 377.014ZM769.987 366.678C772.735 368.364 775.447 369.978 778.193 371.657C780.436 372.576 782.672 373.482 784.913 374.394C782.277 372.968 779.579 371.433 776.938 369.998C774.617 368.889 772.3 367.779 769.987 366.678ZM1022.91 535.773C1029.19 539.617 1035.43 543.376 1041.69 547.201C1049.88 544.57 1058.13 541.888 1066.3 539.265C1059.89 535.883 1053.5 532.534 1047.04 529.063C1038.98 531.31 1031.04 533.492 1022.91 535.773ZM1002.42 523.306C1008.64 527.14 1014.81 530.82 1021.02 534.625C1029.08 532.363 1036.97 530.189 1044.96 527.962C1038.8 524.632 1032.48 520.995 1026.29 517.602C1018.37 519.489 1010.35 521.417 1002.42 523.306ZM981.746 510.69C988.029 514.608 994.197 518.26 1000.45 522.109C1008.34 520.23 1016.31 518.315 1024.19 516.438C1018 513.042 1011.72 509.484 1005.5 506.049C997.623 507.579 989.625 509.156 981.746 510.69ZM961.6 497.897C967.637 501.704 973.742 505.666 979.758 509.427C987.572 507.904 995.499 506.347 1003.31 504.827C997.11 501.396 990.898 497.938 984.683 494.473C976.986 495.618 969.345 496.741 961.6 497.897ZM941.408 485.075C947.441 488.911 953.489 492.771 959.505 496.571C967.177 495.425 974.736 494.311 982.356 493.181C976.123 489.706 969.941 486.32 963.688 482.801L941.408 485.075ZM921.109 472.187C927.157 476.069 933.162 479.833 939.192 483.671L961.208 481.421C955.039 477.946 948.915 474.561 942.723 471.035L921.109 472.187ZM900.659 459.201C906.733 463.135 912.699 466.806 918.755 470.694L940.172 469.549C934.239 466.166 928.193 462.543 922.241 459.121C915.039 459.145 907.935 459.181 900.659 459.201ZM880.653 446.081C886.459 449.876 892.33 453.835 898.117 457.587C905.32 457.569 912.344 457.536 919.471 457.509C913.538 454.095 907.549 450.569 901.601 447.117L880.653 446.081ZM860.83 432.972C866.547 436.744 872.302 440.596 878 444.329L898.554 445.345C892.682 441.937 886.82 438.542 880.931 435.098C874.248 434.394 867.491 433.669 860.83 432.972ZM841.047 419.893C846.674 423.636 852.283 427.327 857.899 431.034C864.401 431.714 870.987 432.422 877.509 433.104C871.726 429.715 866.009 426.47 860.206 423.042C853.855 422.011 847.367 420.912 841.047 419.893ZM821.26 406.81C826.784 410.517 832.234 414.039 837.746 417.711C843.861 418.696 850.109 419.746 856.274 420.755C850.644 417.426 844.997 414.046 839.351 410.681C833.326 409.394 827.367 408.154 821.26 406.81ZM801.376 393.471C806.756 397.111 812.113 400.704 817.476 404.307C823.417 405.616 829.25 406.854 835.118 408.112C829.78 404.923 824.355 401.552 819.001 398.331C813.139 396.722 807.307 395.138 801.376 393.471ZM782.298 380.365C787.276 383.757 792.306 387.285 797.275 390.651C802.871 392.228 808.371 393.717 813.898 395.236C808.759 392.138 803.589 388.978 798.435 385.853C793.068 384.037 787.714 382.232 782.298 380.365ZM763.439 367.405C768.078 370.596 772.719 373.799 777.35 376.963C782.27 378.664 787.129 380.298 791.998 381.946C787.134 378.99 782.298 376.086 777.426 373.106C772.77 371.213 768.122 369.332 763.439 367.405ZM745.012 354.743C749.072 357.555 753.094 360.289 757.142 363.079C760.982 364.662 764.786 366.2 768.598 367.746C764.098 364.983 759.67 362.375 755.162 359.593C751.781 357.977 748.407 356.374 745.012 354.743ZM727.726 342.867C730.611 344.88 733.449 346.778 736.33 348.781C738.309 349.734 740.273 350.661 742.243 351.605C739.22 349.726 736.131 347.717 733.101 345.829C731.307 344.836 729.521 343.859 727.726 342.867ZM996.283 543.33C1002.4 547.504 1008.56 551.8 1014.66 555.92C1023 553.222 1031.32 550.54 1039.64 547.864C1033.34 544.021 1027.06 540.246 1020.76 536.381C1012.66 538.669 1004.38 541.044 996.283 543.33ZM976.202 529.572C982.323 533.779 988.437 537.972 994.546 542.14C1002.6 539.868 1010.82 537.51 1018.87 535.238C1012.62 531.408 1006.42 527.712 1000.15 523.851C992.183 525.748 984.2 527.66 976.202 529.572ZM955.983 515.723C962.148 520 968.252 524.114 974.397 528.34C982.343 526.435 990.269 524.54 998.184 522.651C991.918 518.79 985.71 515.073 979.414 511.143C971.627 512.664 963.792 514.197 955.983 515.723ZM935.878 501.749C941.972 506.026 948.038 510.22 954.109 514.439C961.882 512.922 969.676 511.395 977.425 509.883C971.361 506.091 965.21 502.102 959.124 498.262C951.409 499.416 943.619 500.59 935.878 501.749ZM916.114 487.661C922.057 491.876 928.054 496.23 933.98 500.394C941.647 499.245 949.382 498.081 957.035 496.936C950.963 493.105 944.866 489.218 938.779 485.345L916.114 487.661ZM896.265 473.512C902.222 477.777 908.175 482.019 914.115 486.236L936.563 483.942C930.469 480.061 924.403 476.263 918.29 472.341L896.265 473.512ZM876.306 459.291C882.281 463.605 888.191 467.74 894.146 472.005L915.935 470.845C909.803 466.905 903.768 463.202 897.617 459.213C890.496 459.237 883.513 459.272 876.306 459.291ZM856.394 444.882C862.289 449.178 868.161 453.421 874.036 457.671C881.148 457.653 888.085 457.625 895.117 457.6C889.271 453.804 883.319 449.76 877.454 445.924C870.436 445.577 863.456 445.236 856.394 444.882ZM836.894 430.444C842.599 434.645 848.353 438.986 854.048 443.14C861.009 443.492 867.887 443.83 874.804 444.169C868.991 440.358 863.138 436.449 857.307 432.6C850.516 431.887 843.686 431.161 836.894 430.444ZM817.37 416C823.028 420.199 828.681 424.387 834.324 428.546C840.997 429.247 847.707 429.962 854.375 430.661C848.617 426.858 842.875 423.088 837.1 419.246C830.543 418.173 823.908 417.061 817.37 416ZM797.82 401.529C803.41 405.718 808.945 409.744 814.523 413.888C820.912 414.926 827.388 416.01 833.798 417.061C828.114 413.266 822.497 409.65 816.795 405.816C810.492 404.4 804.086 402.918 797.82 401.529ZM778.54 387.098C783.903 391.149 789.234 395.121 794.585 399.131C800.658 400.485 806.853 401.91 812.969 403.291C807.521 399.624 802.033 395.848 796.57 392.144C790.577 390.478 784.59 388.813 778.54 387.098ZM759.769 372.7C764.827 376.555 769.943 380.552 774.992 384.377C780.821 386.03 786.663 387.697 792.464 389.324C787.196 385.751 781.875 382.032 776.595 378.423C770.998 376.525 765.437 374.668 759.769 372.7ZM740.883 358.214C745.839 362.02 750.802 365.841 755.746 369.613C761.103 371.479 766.356 373.235 771.643 375.021C766.554 371.537 761.458 368.037 756.354 364.52C751.21 362.432 746.086 360.372 740.883 358.214ZM722.075 343.784C726.728 347.386 731.345 350.884 735.988 354.459C740.722 356.427 745.382 358.299 750.057 360.193C745.21 356.839 740.404 353.601 735.547 350.22C731.066 348.094 726.594 345.975 722.075 343.784ZM703.417 329.466C707.569 332.705 711.648 335.75 715.792 338.965C719.509 340.77 723.18 342.508 726.861 344.255C722.578 341.268 718.318 338.323 714.027 335.314C710.495 333.374 706.971 331.449 703.417 329.466ZM688.724 317.801C691.033 319.615 693.375 321.52 695.679 323.326C697.933 324.585 700.158 325.795 702.393 327.026C699.975 325.32 697.531 323.543 695.109 321.835C692.977 320.483 690.852 319.153 688.724 317.801ZM969.622 550.897C975.639 555.437 981.712 560.148 987.707 564.612C996.096 561.89 1004.36 559.244 1012.7 556.554C1006.57 552.405 1000.38 548.108 994.237 543.911C986.069 546.217 977.807 548.579 969.622 550.897ZM949.885 535.864C955.926 540.462 961.988 545.122 968.011 549.672C976.16 547.363 984.375 545.02 992.504 542.723C986.357 538.523 980.211 534.319 974.055 530.085C965.993 532.013 957.992 533.914 949.885 535.864ZM930.087 520.782C936.148 525.437 942.177 529.993 948.221 534.593C956.283 532.657 964.237 530.767 972.253 528.85C966.068 524.596 959.932 520.472 953.731 516.164C945.857 517.7 938.001 519.228 930.087 520.782ZM910.296 505.593C916.341 510.295 922.342 514.836 928.366 519.471C936.229 517.926 944.032 516.409 951.857 514.88C945.764 510.643 939.669 506.393 933.555 502.097L910.296 505.593ZM890.887 490.246C896.762 494.859 902.695 499.655 908.551 504.217C916.248 503.06 923.979 501.894 931.657 500.742C925.682 496.539 919.645 492.165 913.654 487.913L890.887 490.246ZM871.407 474.838C877.297 479.511 883.188 484.184 889.063 488.803L911.653 486.487C905.658 482.228 899.658 477.957 893.645 473.651L871.407 474.838ZM851.78 459.322C857.705 464.065 863.578 468.631 869.484 473.32L891.527 472.143C885.503 467.829 879.534 463.66 873.494 459.292C866.309 459.306 858.932 459.306 851.78 459.322ZM832.357 443.691C838.156 448.379 843.954 453.067 849.733 457.7C856.814 457.686 864.109 457.688 871.222 457.676C865.316 453.396 859.388 449.064 853.461 444.734C846.419 444.386 839.459 444.051 832.357 443.691ZM813.136 427.935C818.833 432.588 824.57 437.364 830.253 441.962C837.277 442.322 844.151 442.652 851.111 442.997C845.33 438.769 839.491 434.378 833.692 430.105C826.849 429.386 820.003 428.667 813.136 427.935ZM793.849 412.132C799.527 416.808 805.191 421.439 810.853 426.065C817.63 426.786 824.374 427.494 831.126 428.207C825.371 423.961 819.613 419.71 813.844 415.421C807.195 414.33 800.498 413.217 793.849 412.132ZM774.473 396.253C780.124 400.951 785.711 405.432 791.345 410.078C797.882 411.149 804.46 412.238 810.996 413.308C805.274 409.051 799.606 404.94 793.865 400.636C787.418 399.185 780.902 397.691 774.473 396.253ZM755.642 380.452C760.977 384.923 766.351 389.527 771.67 393.955C777.959 395.363 784.323 396.822 790.629 398.241C785.177 394.144 779.704 389.987 774.239 385.848C768.054 384.063 761.795 382.209 755.642 380.452ZM737.107 364.734C742.27 369.099 747.458 373.552 752.606 377.877C758.591 379.59 764.673 381.386 770.69 383.128C765.469 379.167 760.195 375.057 754.959 371.065C749.04 368.986 743.025 366.805 737.107 364.734ZM718.607 349.049C723.614 353.315 728.6 357.526 733.594 361.755C739.303 363.76 745.148 365.904 750.882 367.935C745.653 363.935 740.416 359.924 735.174 355.887C729.671 353.631 724.162 351.372 718.607 349.049ZM699.911 333.196C704.767 337.366 709.557 341.344 714.399 345.48C719.689 347.694 725.01 349.944 730.276 352.13C725.163 348.184 720.095 344.368 714.968 340.389C709.966 338.018 704.984 335.672 699.911 333.196ZM682.017 317.668C686.289 321.368 690.621 325.258 694.882 328.932C699.523 331.201 704.103 333.385 708.682 335.57C704.085 331.987 699.465 328.358 694.857 324.745C690.593 322.411 686.336 320.095 682.017 317.668ZM665.247 302.973C668.905 306.168 672.586 309.432 676.24 312.607C679.903 314.671 683.508 316.631 687.119 318.604C683.402 315.681 679.644 312.653 675.918 309.717C672.366 307.478 668.82 305.26 665.247 302.973ZM650.463 290.024C652.759 292.043 655.052 294.047 657.348 296.054C659.582 297.487 661.789 298.863 664.007 300.261C661.596 298.347 659.187 296.436 656.772 294.519C654.668 293.011 652.573 291.542 650.463 290.024ZM1494.71 409.24L1499.69 407.584C1497.67 408.103 1495.63 408.63 1493.59 409.156L1489.53 410.374L1494.71 409.24ZM1467.41 418.306C1471.66 416.88 1475.85 415.497 1480.05 414.106L1468.79 416.574C1464.69 417.8 1460.6 419.018 1456.48 420.25C1460.12 419.604 1463.75 418.963 1467.41 418.306ZM1440.17 427.386C1445.74 425.51 1451.24 423.673 1456.73 421.852C1452.09 422.685 1447.52 423.486 1442.89 424.316C1437.3 425.981 1431.72 427.645 1426.09 429.337L1440.17 427.386ZM1413.76 436.405C1419.83 434.35 1425.99 432.237 1432.11 430.139L1415.89 432.387C1409.61 434.256 1403.35 436.116 1396.99 438.033L1413.76 436.405ZM1386.98 445.556C1393.67 443.279 1400.39 440.973 1407.1 438.685L1388.92 440.45C1382.19 442.461 1375.46 444.474 1368.63 446.55L1386.98 445.556ZM1360.13 454.726C1367.22 452.299 1374.28 449.895 1381.33 447.484L1362.22 448.518C1355.29 450.642 1348.33 452.792 1341.43 454.9C1347.68 454.844 1353.95 454.79 1360.13 454.726ZM1332.99 463.999C1340.47 461.422 1347.84 458.922 1355.26 456.395C1348.87 456.456 1342.42 456.511 1335.98 456.571C1328.63 458.827 1321.26 461.094 1313.9 463.351C1320.27 463.569 1326.56 463.769 1332.99 463.999ZM1305.97 473.23C1313.64 470.576 1321.11 468.056 1328.68 465.474C1322.09 465.237 1315.71 465.041 1309.15 464.81C1301.74 467.081 1294.35 469.343 1286.9 471.64L1305.97 473.23ZM1279.12 482.635C1286.75 479.981 1294.55 477.208 1302.19 474.539L1282.72 472.922C1275.03 475.282 1267.4 477.602 1259.64 480.008C1266.15 480.892 1272.67 481.784 1279.12 482.635ZM1251.99 492.153C1259.89 489.394 1267.86 486.573 1275.75 483.817C1269.19 482.945 1262.55 482.043 1255.93 481.145C1248.07 483.57 1240.26 485.968 1232.33 488.439C1238.91 489.694 1245.51 490.966 1251.99 492.153ZM1225.03 501.613C1233.01 498.811 1240.98 496.011 1248.93 493.23C1242.38 492.029 1235.7 490.739 1229.04 489.473C1221.14 491.949 1213.12 494.499 1205.22 496.974C1211.87 498.558 1218.41 500.052 1225.03 501.613ZM1198.07 511.073C1206.14 508.223 1214.12 505.439 1222.14 502.627C1215.5 501.062 1208.9 499.518 1202.22 497.917C1194.28 500.409 1186.28 502.936 1178.32 505.439C1184.91 507.328 1191.44 509.15 1198.07 511.073ZM1170.97 520.582C1179.2 517.661 1187.24 514.877 1195.4 512.01C1188.71 510.067 1182.14 508.244 1175.49 506.332C1167.5 508.848 1159.51 511.352 1151.48 513.89C1157.97 516.1 1164.45 518.319 1170.97 520.582ZM1143.97 530.21C1152.12 527.304 1160.35 524.344 1168.47 521.457C1161.9 519.174 1155.37 516.946 1148.85 514.719C1140.74 517.275 1132.72 519.775 1124.55 522.367C1131.02 524.972 1137.49 527.577 1143.97 530.21ZM1116.96 539.93C1125.14 537.001 1133.45 533.974 1141.64 531.05C1135.1 528.393 1128.59 525.769 1122.07 523.149C1113.89 525.738 1105.83 528.248 1097.58 530.883L1116.96 539.93ZM1089.63 549.765C1097.99 546.755 1106.39 543.721 1114.74 540.728C1108.24 537.695 1101.75 534.659 1095.25 531.632C1087.05 534.26 1078.68 536.99 1070.48 539.621C1076.85 542.989 1083.24 546.38 1089.63 549.765ZM1062.16 559.652C1070.65 556.583 1079.08 553.559 1087.53 550.519C1081.12 547.111 1074.7 543.709 1068.29 540.326C1060.07 542.966 1051.76 545.659 1043.52 548.314C1049.75 552.12 1055.98 555.967 1062.16 559.652ZM1034.97 569.436C1043.45 566.36 1051.76 563.4 1060.18 560.363C1053.98 556.658 1047.71 552.797 1041.46 548.978C1033.11 551.669 1024.74 554.366 1016.35 557.079C1022.58 561.269 1028.75 565.301 1034.97 569.436ZM1007.75 579.288C1016.24 576.195 1024.6 573.187 1033.04 570.132C1026.82 565.987 1020.62 561.915 1014.38 557.71C1006.02 560.407 997.733 563.063 989.321 565.792C995.482 570.353 1001.59 574.749 1007.75 579.288ZM-1065.87 1420.41C-933.173 1372.32 -800.323 1319.28 -667.683 1260.59C-42.1697 983.834 512.528 759.95 1005.91 579.967C999.723 575.401 993.59 570.998 987.4 566.412C502.127 723.986 -42.537 919.42 -656.127 1160.86C-800.539 1218.25 -945.643 1269.53 -1090.91 1315.49L-1091.29 1313.9C-946.094 1267.97 -801.061 1216.72 -656.722 1159.35C-43.5755 918.089 500.858 722.693 985.786 565.228C979.779 560.753 973.691 556 967.664 551.452C490.724 686.557 -43.8479 853.609 -645.228 1059.63L-645.227 1059.64C-801.416 1114.37 -958.989 1162.66 -1117.17 1205.44L-1117.55 1203.86C-959.417 1161.1 -801.9 1112.82 -645.765 1058.1L-645.759 1058.1C-44.8402 852.24 489.329 685.311 966.053 550.228C959.999 545.65 953.911 540.976 947.838 536.354C479.238 649.04 -45.3149 787.8 -634.334 958.414C-802.371 1009.05 -972.731 1053.11 -1144.31 1091.71L-1144.69 1090.13C-973.135 1051.54 -802.804 1007.49 -634.798 956.861L-634.79 956.859C-46.2921 786.395 477.86 647.729 946.173 535.085C940.097 530.453 934.041 525.89 927.947 521.201C467.619 611.506 -46.729 721.909 -623.443 857.188C-803.366 902.156 -986.849 940.719 -1172.36 974.14L-1172.74 972.562C-987.229 939.145 -803.747 900.583 -623.829 855.616L-623.823 855.615C-47.6797 720.472 466.254 610.137 926.222 519.89C920.181 515.237 914.158 510.644 908.095 505.923C456.091 573.846 -48.1413 655.962 -612.565 755.969C-804.369 793.572 -1001.34 825.302 -1201.37 852.585L-1201.75 851C-1001.69 823.717 -804.688 791.985 -612.86 754.375L-612.847 754.371C-49.0354 654.469 454.719 572.423 906.352 504.546C900.449 499.948 894.484 495.136 888.569 490.486C444.8 536.051 -49.4692 589.931 -601.679 654.74C-805.32 683.161 -1016.16 706.707 -1231.35 726.952L-1231.73 725.36C-1016.47 705.112 -805.57 681.561 -601.889 653.134L-601.871 653.13C-50.3341 588.401 443.395 534.573 886.743 489.041C880.823 484.382 874.885 479.684 868.948 474.973L691.453 484.43C302.655 505.14 -123.4 527.833 -590.791 553.513C-806.171 570.798 -1031.29 584.782 -1262.33 597.147L-1262.71 595.544C-1031.56 583.177 -806.338 569.189 -590.907 551.899L-590.89 551.897C-122.794 526.179 302.9 503.504 691.368 482.812L867.025 473.454C861.06 468.718 855.14 464.118 849.157 459.323C422.017 460.23 -51.9843 457.7 -579.897 452.282C-732.576 455.019 -892.19 457.306 -1056.13 459.658C-1134.58 460.786 -1214.04 461.928 -1294.3 463.138L-1294.69 461.524C-1214.31 460.311 -1134.72 459.17 -1056.15 458.04C-892.92 455.698 -733.998 453.419 -579.931 450.658L-579.909 450.661C-52.8195 456.069 420.493 458.597 847.111 457.704C841.304 453.044 835.459 448.272 829.63 443.554C410.63 422.15 -53.272 391.492 -569.047 351.044C-807.288 339.675 -1062.27 330.436 -1327.29 324.92L-1327.68 323.293C-1062.48 328.809 -807.332 338.054 -568.945 349.43L-568.923 349.428C-54.0651 389.803 409.137 420.431 827.527 441.829C821.769 437.164 815.965 432.342 810.192 427.626C399.436 383.964 -54.3953 325.248 -558.153 249.808C-807.408 220.674 -1078.01 197.815 -1361.26 182.543L-1361.65 180.898C-1078.19 196.172 -807.388 219.043 -557.964 248.196L-557.935 248.201C-55.1908 323.485 397.824 382.12 807.909 425.754C802.153 421.048 796.405 416.359 790.639 411.602C388.094 345.658 -55.6739 258.918 -547.286 148.564C-807.151 99.2162 -1093.86 61.4579 -1396.21 36.0906L-1396.61 34.4323C-1093.99 59.8084 -807.047 97.5864 -546.976 146.973L-546.944 146.981C-56.4772 257.077 386.344 343.664 788.132 409.549C782.382 404.804 776.693 400.249 770.925 395.45C376.621 307.22 -57.0321 192.496 -536.402 47.3224C-806.426 -24.7968 -1109.7 -78.7211 -1432.11 -114.358L-1432.51 -116.031C-1109.8 -80.3826 -806.245 -26.4274 -535.984 45.7534L-535.961 45.7598C-57.8887 190.541 374.68 305.018 768.122 393.152C762.721 388.653 757.243 383.887 751.828 379.344C365.684 268.864 -58.1621 126.069 -525.536 -53.9345C-805.123 -151.449 -1125.53 -222.582 -1468.89 -268.475L-1469.29 -270.157C-1125.58 -224.253 -804.848 -153.069 -524.996 -55.4619L-524.974 -55.4565C-59.0281 124 363.63 266.453 748.793 376.769C743.466 372.29 738.104 367.704 732.763 363.182C354.821 230.513 -59.2586 59.5941 -514.655 -155.186C-737.661 -252.294 -990.289 -327.729 -1262.18 -382.837L-1258.45 -383.727C-987.74 -328.657 -736.183 -253.416 -514.014 -156.674L-513.99 -156.659C-60.2468 57.3426 352.444 227.765 729.249 360.202C724.011 355.757 718.787 351.362 713.533 346.875C343.806 192.034 -60.4187 -6.969 -503.778 -256.446C-648.011 -332.532 -806.367 -397.226 -975.553 -451.234L-972.517 -451.959C-804.196 -398.09 -646.616 -333.624 -503.025 -257.881L-503.006 -257.867C-61.6045 -9.49155 340.954 188.79 709.322 343.307C704.199 338.923 699.139 334.744 694.004 330.317C332.553 153.327 -61.6939 -73.6822 -492.917 -357.72C-577.446 -410.594 -667.529 -458.62 -762.277 -502.128L-759.724 -502.737C-665.593 -459.425 -576.074 -411.646 -492.043 -359.084L-492.027 -359.074C-63.0643 -76.5255 329.247 149.494 689.114 326.041C684.559 322.107 679.944 317.972 675.378 314.006C321.942 114.812 -62.5462 -140.182 -482.018 -458.974C-520.818 -487.301 -560.965 -514.378 -602.298 -540.304L-600.073 -540.835C-559.188 -515.149 -519.472 -488.325 -481.064 -460.283L-481.053 -460.275C-64.3158 -143.56 317.897 110.195 669.405 308.774C665.085 305.01 660.747 301.188 656.418 297.399C311.045 75.959 -63.5313 -206.82 -471.132 -560.241C-474.666 -563.216 -478.3 -566.094 -481.855 -569.045L-479.877 -569.517C-476.634 -566.823 -473.317 -564.197 -470.092 -561.485L-470.082 -561.475C-66.009 -211.107 305.657 69.9402 648.513 290.473C644.757 287.173 641.017 283.934 637.257 280.612C320.584 51.8084 -20.2314 -235.976 -388.193 -591.396L-386.326 -591.841C-24.0901 -241.999 311.844 42.3 624.293 269.257C621.981 267.201 619.682 265.206 617.366 263.145C329.101 30.2503 21.1299 -258.409 -308.731 -610.358L-306.907 -610.793C12.7466 -269.821 311.768 11.5215 592.281 240.47C331.001 5.44026 53.9045 -281.326 -240.66 -626.601L-238.904 -627.02C64.8285 -270.998 350.011 22.9374 618.358 261.859C631.553 272.52 644.602 282.762 657.716 293.19C670.501 302.359 683.265 311.472 695.976 320.454C708.572 328.413 721.239 336.521 733.754 344.315C748.416 352.404 763.173 360.661 777.73 368.561C791.479 375.093 805.433 381.934 819.088 388.321C833.091 393.972 847.397 400.006 861.301 405.524C877.053 410.812 892.887 416.18 908.513 421.329C924.096 425.552 939.556 429.672 955.008 433.78C970.384 437.004 985.525 440.066 1000.77 443.203C1016.05 445.514 1031.15 447.736 1046.3 449.979C1061.64 451.45 1077.05 452.943 1092.26 454.366C1108.01 455.059 1124.11 455.823 1139.73 456.484C1156.61 456.378 1173.57 456.281 1190.32 456.164L1238.66 453.562C1255.45 451.905 1272.18 450.252 1288.81 448.616C1305.56 446.239 1322.23 443.88 1338.83 441.542C1356.09 438.383 1373.09 435.318 1390.15 432.225C1407.72 428.319 1425.11 424.492 1442.48 420.677C1459.46 416.272 1476.28 411.948 1493.15 407.601C1511.43 402.201 1529.4 396.993 1547.49 391.706C1771.34 317.933 1980.7 254.318 2176.77 199.729L2177.13 201.249C1993.72 252.311 1798.73 311.242 1591.07 379.041C1800.58 318.438 1997.08 265.913 2181.73 220.51L2182.1 222.081C1984.7 270.62 1773.72 327.318 1547.82 393.3C1546.67 393.678 1545.51 394.069 1544.37 394.446C1773.67 336.172 1987.47 286.255 2187.24 243.592L2187.61 245.164C1981.46 289.189 1760.3 340.974 1522.63 401.666L1509.73 405.95C1754.68 352.809 1981.96 307.641 2193.36 269.271L2193.75 270.877C1978.02 310.024 1745.76 356.26 1495.08 410.817C1489.54 412.654 1484.02 414.477 1478.43 416.347C1738.1 370.043 1977.97 330.829 2200.11 297.54L2200.49 299.12C1975.2 332.881 1731.68 372.726 1467.76 419.891C1461.46 421.972 1455.18 424.038 1448.78 426.196C1722.89 388.278 1974.98 356.062 2207.48 328.427L2207.86 330.016C1972.92 357.939 1717.98 390.542 1440.51 428.977C1433.94 431.214 1427.27 433.521 1420.74 435.732C1709.02 407.782 1973.03 383.532 2215.5 362.028L2215.88 363.623C1971.44 385.304 1705.09 409.772 1414.07 438.011C1407.02 440.413 1399.94 442.843 1392.91 445.239C1695.68 428.828 1971.68 413.451 2224.18 398.397L2224.56 400C1970.39 415.153 1692.4 430.631 1387.27 447.164C1379.95 449.662 1372.62 452.165 1365.27 454.682C1682.78 451.505 1970.92 445.871 2233.5 437.484L2233.89 439.09C1969.85 447.526 1679.97 453.178 1360.39 456.347C1352.78 458.943 1345.2 461.517 1337.53 464.158C1670.2 476.036 1970.71 481.004 2243.5 479.378L2243.89 481.005C1969.82 482.642 1667.75 477.626 1333.22 465.629C1325.48 468.275 1317.83 470.856 1309.99 473.565C1658.03 502.456 1971.06 518.855 2254.14 523.962L2254.53 525.589C1970.3 520.472 1655.88 503.967 1306.16 474.872C1298.37 477.582 1290.42 480.403 1282.64 483.111C1646.36 531.123 1972.03 559.719 2265.44 571.308L2265.83 572.945C1971.4 561.323 1644.49 532.584 1279.27 484.294C1271.27 487.091 1263.16 489.956 1255.16 492.755C1634.95 562.172 1973.49 603.663 2277.37 621.295L2277.76 622.935C1972.95 605.27 1633.27 563.596 1252.1 493.827C1244.08 496.635 1236.02 499.467 1227.98 502.292C1623.95 595.481 1975.41 650.46 2289.82 673.468L2290.23 675.185C1974.94 652.138 1622.39 596.929 1225.09 503.305C1216.98 506.146 1208.92 508.961 1200.76 511.838C1613.14 631.375 1977.7 700.363 2302.8 727.862L2303.21 729.574C1977.27 702.026 1611.72 632.815 1198.09 512.779C1189.86 515.671 1181.74 518.484 1173.43 521.427C1602.5 670.087 1980.26 753.348 2316.22 784.092L2316.63 785.82C1979.9 755.049 1601.19 671.537 1170.94 522.303C1162.73 525.219 1154.45 528.181 1146.22 531.118C1566.73 701.54 1938.59 798.205 2270.61 835.865L2265.63 837.052C1934.23 798.905 1563.23 702.067 1143.88 531.955C1135.65 534.903 1127.27 537.952 1119.03 540.901C1488.19 713.062 1820.3 819.197 2121.39 871.472L2117.14 872.487C1816.56 819.851 1485.1 713.608 1116.81 541.699C1108.42 544.707 1099.97 547.763 1091.55 550.79C1418.83 724.253 1717.44 838.123 1991.56 902.455L1987.92 903.324C1714.2 838.727 1416.1 724.802 1089.47 551.543C1080.96 554.599 1072.48 557.643 1063.93 560.733C1356.51 735.221 1626.58 855.377 1877.11 929.766L1873.91 930.53C1623.7 855.944 1354.04 735.756 1061.95 561.443C1053.5 564.487 1045.16 567.458 1036.65 570.547C1300.02 745.777 1545.54 871.209 1775.31 954.056L1772.26 954.784C1542.79 871.754 1297.63 746.277 1034.72 571.24C1026.24 574.314 1017.85 577.321 1009.31 580.437C1247.7 756.203 1471.8 885.94 1683.19 976.04L1680.45 976.694C1469.31 886.471 1245.51 756.712 1007.47 581.115C513.883 761.144 -41.1191 985.141 -667.029 1262.08C-799.762 1320.81 -932.706 1373.88 -1065.49 1422L-1065.87 1420.41Z" fill="url(#paint0_radial_4206_40)"></path></g><g opacity="0.1"><g clip-path="url(#clip1_4206_40)"><path d="M739.985 135.466L765.34 142.26C766.551 142.585 767.836 142.496 768.991 142.007C770.145 141.518 771.103 140.657 771.712 139.561L781.657 121.863C781.796 121.614 781.877 121.337 781.893 121.052C781.909 120.766 781.859 120.482 781.748 120.218C781.632 119.948 781.454 119.709 781.228 119.52C781.002 119.331 780.734 119.199 780.447 119.132L742.414 108.941L742.524 103.749C742.562 102.483 742.171 101.241 741.414 100.224C740.658 99.2076 739.581 98.4762 738.357 98.1484L735.785 97.4593C735.305 97.3306 734.793 97.398 734.362 97.6467C733.932 97.8953 733.617 98.3048 733.489 98.7852C733.36 99.2655 733.427 99.7773 733.676 100.208C733.925 100.639 734.334 100.953 734.814 101.082L737.386 101.771C737.805 101.871 738.177 102.113 738.439 102.455C738.701 102.798 738.837 103.22 738.824 103.651L737.886 132.361L735.153 133.939C734.191 134.495 733.415 135.325 732.923 136.322C732.432 137.319 732.247 138.44 732.392 139.542C732.537 140.644 733.005 141.679 733.738 142.515C734.47 143.351 735.434 143.952 736.508 144.241C736.037 144.915 735.719 145.685 735.578 146.496C735.436 147.306 735.474 148.138 735.69 148.933C735.905 149.727 736.292 150.465 736.823 151.093C737.354 151.722 738.017 152.226 738.764 152.571C739.511 152.915 740.325 153.092 741.148 153.087C741.971 153.083 742.783 152.898 743.527 152.546C744.271 152.193 744.928 151.682 745.453 151.048C745.977 150.414 746.357 149.673 746.563 148.876C746.727 148.256 746.775 147.61 746.705 146.973L753.388 148.763C752.87 149.504 752.538 150.359 752.421 151.255C752.303 152.151 752.404 153.063 752.713 153.912C753.023 154.761 753.532 155.523 754.199 156.134C754.866 156.744 755.669 157.185 756.542 157.419C757.415 157.653 758.332 157.673 759.214 157.478C760.097 157.282 760.919 156.877 761.612 156.296C762.305 155.716 762.847 154.977 763.194 154.142C763.54 153.307 763.68 152.401 763.602 151.5L767.605 152.573C768.085 152.702 768.597 152.634 769.028 152.386C769.458 152.137 769.773 151.727 769.901 151.247C770.03 150.767 769.963 150.255 769.714 149.824C769.465 149.394 769.056 149.079 768.575 148.951L737.479 140.618C737.118 140.524 736.794 140.325 736.548 140.045C736.301 139.766 736.144 139.42 736.095 139.051C736.046 138.681 736.108 138.306 736.273 137.972C736.438 137.639 736.699 137.362 737.023 137.177L739.985 135.466ZM742.996 147.92C742.9 148.278 742.7 148.6 742.421 148.844C742.142 149.089 741.797 149.245 741.429 149.294C741.062 149.342 740.688 149.28 740.355 149.116C740.023 148.952 739.746 148.693 739.561 148.372C739.375 148.051 739.289 147.682 739.313 147.312C739.338 146.942 739.471 146.587 739.697 146.293C739.923 145.999 740.231 145.778 740.582 145.659C740.933 145.54 741.312 145.528 741.67 145.624C742.15 145.752 742.56 146.067 742.808 146.497C743.057 146.928 743.124 147.44 742.996 147.92ZM759.875 152.443C759.779 152.801 759.579 153.123 759.3 153.367C759.021 153.612 758.676 153.768 758.309 153.817C757.941 153.865 757.567 153.803 757.235 153.639C756.902 153.475 756.626 153.216 756.44 152.895C756.255 152.574 756.169 152.205 756.193 151.835C756.217 151.465 756.351 151.11 756.576 150.816C756.802 150.522 757.11 150.301 757.461 150.182C757.812 150.063 758.191 150.05 758.549 150.146C759.03 150.275 759.439 150.589 759.688 151.02C759.936 151.451 760.004 151.962 759.875 152.443ZM777.159 122.133L768.491 137.747C768.284 138.122 767.955 138.415 767.558 138.578C767.162 138.74 766.722 138.761 766.311 138.638L741.644 132.029L742.24 112.777L777.159 122.133Z" fill="url(#paint1_linear_4206_40)"></path><path d="M748.428 129.964C748.908 130.093 749.42 130.025 749.851 129.777C750.281 129.528 750.596 129.119 750.724 128.638L752.666 121.394C752.794 120.914 752.727 120.402 752.478 119.971C752.23 119.54 751.82 119.226 751.34 119.097C750.859 118.969 750.348 119.036 749.917 119.285C749.486 119.533 749.172 119.943 749.043 120.423L747.102 127.668C746.973 128.148 747.041 128.66 747.289 129.091C747.538 129.521 747.948 129.835 748.428 129.964Z" fill="url(#paint2_linear_4206_40)"></path><path d="M755.672 131.905C756.153 132.034 756.665 131.967 757.095 131.718C757.526 131.469 757.84 131.06 757.969 130.579L759.91 123.335C760.039 122.855 759.971 122.343 759.723 121.912C759.474 121.482 759.064 121.167 758.584 121.039C758.104 120.91 757.592 120.977 757.161 121.226C756.731 121.475 756.416 121.884 756.288 122.364L754.347 129.609C754.218 130.089 754.285 130.601 754.534 131.032C754.783 131.462 755.192 131.777 755.672 131.905Z" fill="url(#paint3_linear_4206_40)"></path><path d="M762.917 133.846C763.397 133.975 763.909 133.908 764.34 133.659C764.77 133.41 765.085 133.001 765.213 132.521L767.154 125.276C767.283 124.796 767.216 124.284 766.967 123.853C766.718 123.423 766.309 123.108 765.829 122.98C765.348 122.851 764.836 122.918 764.406 123.167C763.975 123.416 763.661 123.825 763.532 124.306L761.591 131.55C761.462 132.03 761.53 132.542 761.778 132.973C762.027 133.403 762.437 133.718 762.917 133.846Z" fill="url(#paint4_linear_4206_40)"></path></g><g clip-path="url(#clip2_4206_40)"><path d="M650.088 273.913L644.464 275.429L643.88 273.215C643.793 272.894 643.583 272.62 643.295 272.453C643.007 272.287 642.664 272.242 642.342 272.328C642.021 272.414 641.747 272.624 641.58 272.913C641.414 273.201 641.369 273.544 641.455 273.865L642.37 277.28C642.412 277.44 642.485 277.589 642.585 277.721C642.686 277.852 642.811 277.962 642.954 278.044C643.097 278.127 643.254 278.18 643.418 278.201C643.582 278.222 643.748 278.211 643.907 278.168L650.737 276.338C650.896 276.295 651.046 276.221 651.176 276.121C651.307 276.021 651.417 275.896 651.499 275.753C651.582 275.61 651.635 275.452 651.657 275.289C651.678 275.126 651.667 274.96 651.625 274.8C651.582 274.641 651.509 274.492 651.408 274.361C651.308 274.23 651.183 274.121 651.04 274.038C650.897 273.956 650.74 273.902 650.576 273.881C650.413 273.859 650.247 273.87 650.088 273.913Z" fill="url(#paint5_linear_4206_40)"></path><path d="M650.915 266.755C649.202 265.766 647.234 265.307 645.261 265.437C643.287 265.566 641.396 266.278 639.827 267.482C638.258 268.686 637.081 270.328 636.446 272.201C635.81 274.074 635.744 276.093 636.256 278.003C636.767 279.914 637.834 281.63 639.321 282.934C640.808 284.238 642.649 285.072 644.61 285.33C646.57 285.588 648.564 285.259 650.338 284.384C652.112 283.509 653.586 282.128 654.575 280.415C655.901 278.118 656.261 275.389 655.574 272.827C654.888 270.265 653.212 268.081 650.915 266.755ZM642.165 281.91C640.88 281.169 639.844 280.063 639.188 278.732C638.532 277.402 638.285 275.907 638.479 274.436C638.673 272.966 639.298 271.585 640.276 270.47C641.254 269.355 642.541 268.555 643.974 268.171C645.406 267.787 646.921 267.836 648.326 268.313C649.73 268.79 650.962 269.673 651.865 270.85C652.768 272.026 653.302 273.445 653.399 274.925C653.496 276.405 653.152 277.881 652.41 279.165C651.415 280.888 649.777 282.145 647.856 282.66C645.935 283.175 643.887 282.905 642.165 281.91Z" fill="url(#paint6_linear_4206_40)"></path><path d="M662.745 256.265L641.094 243.765C639.946 243.102 638.581 242.922 637.3 243.265C636.019 243.608 634.927 244.446 634.264 245.595L621.764 267.245C621.101 268.394 620.921 269.759 621.265 271.04C621.608 272.32 622.446 273.412 623.594 274.076L632.255 279.076C632.542 279.241 632.883 279.286 633.203 279.2C633.523 279.115 633.796 278.905 633.962 278.618C634.128 278.331 634.173 277.99 634.087 277.669C634.001 277.349 633.792 277.076 633.505 276.91L624.844 271.91C624.27 271.579 623.851 271.033 623.68 270.392C623.508 269.752 623.598 269.07 623.929 268.495L636.429 246.845C636.761 246.271 637.307 245.852 637.947 245.68C638.588 245.508 639.27 245.598 639.844 245.93L645.257 249.055L640.882 256.632C640.76 256.847 640.704 257.093 640.721 257.339C640.738 257.585 640.827 257.821 640.978 258.016C641.127 258.213 641.332 258.361 641.565 258.441C641.798 258.522 642.05 258.532 642.289 258.47L644.498 257.869L645.082 260.082C645.124 260.242 645.198 260.392 645.298 260.523C645.398 260.654 645.523 260.764 645.666 260.846C645.809 260.929 645.967 260.982 646.13 261.003C646.294 261.025 646.46 261.013 646.619 260.97L648.828 260.369L649.412 262.582C649.456 262.741 649.53 262.89 649.631 263.02C649.731 263.15 649.857 263.259 650 263.34C650.14 263.426 650.298 263.477 650.461 263.491C650.706 263.524 650.955 263.484 651.176 263.375C651.398 263.267 651.583 263.096 651.707 262.882L656.082 255.305L661.495 258.43C662.069 258.761 662.488 259.307 662.66 259.948C662.831 260.588 662.742 261.271 662.41 261.845L657.41 270.505C657.244 270.792 657.199 271.133 657.285 271.454C657.371 271.774 657.58 272.047 657.868 272.213C658.155 272.378 658.496 272.423 658.816 272.337C659.136 272.252 659.409 272.042 659.575 271.755L664.575 263.095C665.238 261.946 665.418 260.582 665.075 259.301C664.731 258.02 663.893 256.928 662.745 256.265ZM651.048 259.024L650.922 258.518C650.88 258.358 650.807 258.208 650.707 258.077C650.606 257.946 650.481 257.836 650.338 257.754C650.195 257.671 650.038 257.618 649.874 257.596C649.71 257.575 649.544 257.587 649.385 257.63L647.176 258.231L646.592 256.018C646.55 255.858 646.477 255.708 646.376 255.577C646.276 255.446 646.151 255.336 646.008 255.254C645.865 255.171 645.707 255.118 645.544 255.096C645.38 255.075 645.214 255.087 645.055 255.13L644.553 255.274L647.422 250.305L653.917 254.055L651.048 259.024Z" fill="url(#paint7_linear_4206_40)"></path></g><path d="M1577.38 300.056L1578.99 299.119C1579.66 298.767 1580.25 298.283 1580.73 297.696C1581.21 297.109 1581.57 296.43 1581.78 295.702C1581.99 294.973 1582.06 294.209 1581.96 293.456C1581.87 292.703 1581.63 291.976 1581.25 291.32C1580.87 290.663 1580.36 290.09 1579.75 289.634C1579.15 289.179 1578.46 288.852 1577.72 288.671C1576.98 288.491 1576.22 288.461 1575.47 288.584C1574.72 288.707 1574 288.981 1573.36 289.388L1571.75 290.325L1566.13 280.5C1565.94 280.178 1565.66 279.919 1565.33 279.756C1564.99 279.592 1564.62 279.531 1564.25 279.581C1563.88 279.628 1563.53 279.783 1563.25 280.026C1562.97 280.27 1562.77 280.592 1562.68 280.95C1562.68 280.95 1560.05 290.494 1552.7 294.75L1547.08 298.031C1544.83 299.225 1543.11 301.204 1542.24 303.59C1541.37 305.976 1541.41 308.599 1542.36 310.955C1543.31 313.312 1545.09 315.235 1547.37 316.356C1549.65 317.476 1552.26 317.714 1554.71 317.025L1559.6 325.5C1559.96 326.145 1560.45 326.711 1561.04 327.162C1561.62 327.613 1562.3 327.941 1563.01 328.125C1563.49 328.258 1563.98 328.327 1564.48 328.331C1565.46 328.331 1566.44 328.069 1567.29 327.573C1568.15 327.078 1568.86 326.365 1569.35 325.508C1569.84 324.65 1570.1 323.678 1570.1 322.689C1570.09 321.7 1569.83 320.73 1569.33 319.875L1564.72 311.85C1569.6 310.057 1574.9 309.738 1579.96 310.931C1580.32 311.031 1580.7 311.022 1581.06 310.903C1581.41 310.785 1581.72 310.564 1581.95 310.267C1582.18 309.971 1582.31 309.614 1582.34 309.241C1582.36 308.868 1582.27 308.497 1582.08 308.175L1577.38 300.056ZM1573.63 293.625L1575.24 292.688C1575.45 292.552 1575.69 292.461 1575.94 292.42C1576.19 292.379 1576.44 292.389 1576.69 292.449C1576.94 292.509 1577.17 292.618 1577.37 292.77C1577.57 292.922 1577.74 293.113 1577.87 293.332C1577.99 293.55 1578.07 293.793 1578.1 294.044C1578.14 294.295 1578.11 294.549 1578.04 294.792C1577.97 295.035 1577.85 295.261 1577.69 295.457C1577.53 295.653 1577.34 295.814 1577.11 295.931L1575.5 296.869L1573.63 293.625ZM1550.49 313.369C1548.81 312.912 1547.39 311.813 1546.52 310.311C1545.64 308.809 1545.4 307.024 1545.84 305.344C1546.29 303.658 1547.4 302.222 1548.91 301.35L1553 299.006L1559.56 310.369L1555.48 312.713C1554.73 313.146 1553.9 313.426 1553.05 313.539C1552.19 313.652 1551.32 313.594 1550.49 313.369ZM1566.28 323.156C1566.21 323.396 1566.1 323.62 1565.95 323.816C1565.8 324.013 1565.61 324.177 1565.39 324.3C1564.97 324.546 1564.46 324.613 1563.98 324.487C1563.5 324.36 1563.09 324.051 1562.84 323.625L1558.16 315.488L1561.4 313.613L1566.13 321.75C1566.36 322.181 1566.41 322.686 1566.28 323.156ZM1562.83 308.625L1556.15 297.038C1559.98 294.152 1562.99 290.312 1564.87 285.9L1576.83 306.619C1572.07 306.059 1567.24 306.751 1562.83 308.625Z" fill="url(#paint8_linear_4206_40)"></path><path d="M1589.19 286.744C1588.93 286.328 1588.52 286.03 1588.04 285.914C1587.56 285.798 1587.06 285.874 1586.64 286.125L1583.38 288C1582.95 288.25 1582.64 288.659 1582.51 289.136C1582.39 289.614 1582.45 290.122 1582.7 290.55C1582.86 290.833 1583.1 291.069 1583.38 291.234C1583.66 291.398 1583.99 291.486 1584.31 291.488C1584.64 291.49 1584.96 291.406 1585.25 291.244L1588.51 289.369C1588.73 289.245 1588.93 289.077 1589.08 288.877C1589.24 288.676 1589.35 288.446 1589.41 288.201C1589.47 287.955 1589.49 287.7 1589.45 287.449C1589.41 287.199 1589.32 286.959 1589.19 286.744Z" fill="url(#paint9_linear_4206_40)"></path><path d="M1579.53 284.644C1579.74 284.78 1579.97 284.874 1580.21 284.921C1580.46 284.967 1580.71 284.965 1580.95 284.915C1581.19 284.864 1581.42 284.766 1581.62 284.626C1581.83 284.487 1582 284.308 1582.14 284.1L1584.44 280.613C1584.62 280.409 1584.75 280.169 1584.83 279.91C1584.9 279.652 1584.92 279.379 1584.88 279.113C1584.84 278.846 1584.75 278.591 1584.6 278.364C1584.45 278.138 1584.26 277.946 1584.03 277.802C1583.8 277.657 1583.55 277.563 1583.28 277.527C1583.01 277.49 1582.74 277.512 1582.48 277.59C1582.23 277.668 1581.99 277.801 1581.78 277.98C1581.58 278.158 1581.42 278.378 1581.31 278.625L1579.01 282.038C1578.87 282.243 1578.77 282.473 1578.73 282.716C1578.68 282.958 1578.68 283.208 1578.73 283.45C1578.78 283.692 1578.87 283.922 1579.01 284.127C1579.15 284.332 1579.33 284.508 1579.53 284.644Z" fill="url(#paint10_linear_4206_40)"></path><path d="M1592.15 293.944L1587.95 294.188C1587.45 294.202 1586.98 294.414 1586.64 294.776C1586.3 295.139 1586.12 295.621 1586.13 296.119C1586.15 296.616 1586.36 297.087 1586.72 297.428C1587.08 297.769 1587.57 297.952 1588.06 297.938H1588.18L1592.38 297.675C1592.87 297.645 1593.34 297.419 1593.67 297.046C1594 296.674 1594.17 296.185 1594.14 295.688C1594.11 295.19 1593.88 294.725 1593.51 294.395C1593.14 294.064 1592.65 293.895 1592.15 293.925V293.944Z" fill="url(#paint11_linear_4206_40)"></path><g clip-path="url(#clip3_4206_40)"><path d="M1432.42 418.022L1427.47 399.564C1427.15 398.363 1426.36 397.339 1425.29 396.717C1424.21 396.096 1422.93 395.927 1421.73 396.249L1403.62 401.102C1402.42 401.424 1401.39 402.209 1400.77 403.286C1400.15 404.363 1399.98 405.642 1400.3 406.843L1403.54 418.917L1402.03 419.321C1401.92 418.921 1401.66 418.58 1401.3 418.373C1400.94 418.166 1400.52 418.109 1400.12 418.217L1392.57 420.239C1392.17 420.346 1391.83 420.608 1391.62 420.967C1391.41 421.326 1391.36 421.752 1391.47 422.152L1396.32 440.263C1396.43 440.664 1396.69 441.005 1397.05 441.212C1397.41 441.419 1397.83 441.476 1398.23 441.368L1405.78 439.346C1406.18 439.239 1406.52 438.977 1406.73 438.618C1406.93 438.259 1406.99 437.833 1406.88 437.433L1420.74 433.72L1433.96 427.475C1434.95 427.02 1435.76 426.254 1436.27 425.294C1436.78 424.334 1436.96 423.233 1436.79 422.16C1436.61 421.087 1436.09 420.101 1435.3 419.354C1434.51 418.606 1433.5 418.138 1432.42 418.022ZM1410.47 402.503L1416.5 400.885L1418.17 407.119L1415.58 406.196C1415.29 406.099 1414.98 406.09 1414.68 406.169C1414.39 406.248 1414.12 406.412 1413.92 406.641L1412.14 408.736L1410.47 402.503ZM1403.32 406.034C1403.22 405.634 1403.27 405.207 1403.48 404.849C1403.69 404.49 1404.03 404.228 1404.43 404.121L1407.45 403.312L1409.87 412.367C1409.95 412.64 1410.09 412.888 1410.3 413.084C1410.5 413.28 1410.75 413.417 1411.03 413.481C1411.3 413.539 1411.58 413.525 1411.84 413.441C1412.1 413.357 1412.33 413.205 1412.52 413.001L1415.59 409.542L1419.94 411.012C1420.21 411.1 1420.5 411.115 1420.77 411.055C1421.05 410.994 1421.3 410.861 1421.5 410.668C1421.71 410.476 1421.86 410.231 1421.94 409.961C1422.02 409.691 1422.02 409.404 1421.95 409.132L1419.52 400.076L1422.54 399.268C1422.94 399.16 1423.37 399.217 1423.72 399.424C1424.08 399.631 1424.35 399.972 1424.45 400.373L1429.31 418.484L1419.98 420.983C1420.04 420.236 1419.92 419.487 1419.62 418.797C1419.33 418.107 1418.88 417.496 1418.31 417.017C1417.73 416.537 1417.05 416.203 1416.32 416.041C1415.59 415.879 1414.83 415.894 1414.1 416.086L1406.56 418.108L1403.32 406.034ZM1398.93 437.945L1394.89 422.853L1399.42 421.64L1403.46 436.732L1398.93 437.945ZM1432.57 424.629L1419.52 430.811L1406.07 434.414L1402.84 422.34L1414.91 419.105C1415.31 418.998 1415.74 419.054 1416.1 419.261C1416.46 419.468 1416.72 419.809 1416.83 420.21C1416.93 420.61 1416.88 421.036 1416.67 421.395C1416.46 421.754 1416.12 422.016 1415.72 422.123L1409.69 423.741C1409.29 423.848 1408.94 424.11 1408.74 424.469C1408.53 424.828 1408.47 425.254 1408.58 425.655C1408.69 426.055 1408.95 426.396 1409.31 426.603C1409.67 426.811 1410.09 426.867 1410.49 426.759L1431.35 421.171C1431.8 421.065 1432.26 421.128 1432.66 421.346C1433.06 421.564 1433.37 421.922 1433.52 422.352C1433.67 422.782 1433.66 423.252 1433.48 423.672C1433.31 424.093 1432.98 424.434 1432.57 424.629Z" fill="url(#paint12_linear_4206_40)"></path></g><g clip-path="url(#clip4_4206_40)"><path d="M829.81 396.491L828.457 397.272L825.332 391.859C824.71 390.783 823.686 389.997 822.485 389.675C821.285 389.354 820.005 389.522 818.928 390.144L815.424 392.167L804.752 389.308C803.389 388.976 801.951 389.182 800.736 389.884C799.521 390.585 798.624 391.727 798.229 393.073L795.37 403.745L791.865 405.769C790.789 406.39 790.003 407.414 789.681 408.615C789.359 409.816 789.528 411.095 790.149 412.172L802.649 433.823C803.271 434.899 804.295 435.685 805.496 436.007C806.697 436.328 807.976 436.16 809.053 435.538L836.116 419.913C837.193 419.292 837.978 418.268 838.3 417.067C838.622 415.866 838.453 414.587 837.832 413.51L834.707 408.097L836.06 407.316C836.419 407.109 836.681 406.768 836.788 406.367C836.895 405.967 836.839 405.541 836.632 405.182L831.944 397.063C831.737 396.704 831.396 396.442 830.996 396.335C830.595 396.228 830.169 396.284 829.81 396.491ZM801.239 393.88C801.413 393.328 801.787 392.861 802.288 392.572C802.789 392.283 803.381 392.192 803.945 392.317L811.608 394.37L799.186 401.542L801.239 393.88ZM835.125 415.073C835.333 415.431 835.389 415.858 835.282 416.258C835.174 416.659 834.912 417 834.553 417.207L807.49 432.832C807.131 433.039 806.705 433.095 806.305 432.988C805.904 432.881 805.563 432.619 805.356 432.26L792.856 410.609C792.649 410.251 792.592 409.824 792.7 409.424C792.807 409.024 793.069 408.682 793.428 408.475L820.491 392.85C820.85 392.643 821.276 392.587 821.677 392.694C822.077 392.801 822.418 393.063 822.625 393.422L825.75 398.835L821.691 401.178C820.255 402.007 819.208 403.372 818.779 404.973C818.35 406.575 818.574 408.28 819.403 409.716C820.232 411.152 821.597 412.199 823.198 412.628C824.799 413.057 826.505 412.832 827.941 412.004L832 409.66L835.125 415.073ZM833.144 405.391L826.378 409.297C825.661 409.712 824.808 409.824 824.007 409.61C823.207 409.395 822.524 408.871 822.11 408.154C821.695 407.436 821.583 406.583 821.797 405.782C822.012 404.982 822.536 404.299 823.253 403.885L830.019 399.978L833.144 405.391Z" fill="url(#paint13_linear_4206_40)"></path></g><g clip-path="url(#clip5_4206_40)"><path d="M1478.23 120.91C1469.77 122.865 1461.19 118.847 1461.1 118.804C1460.78 118.654 1460.42 118.615 1460.08 118.694C1459.74 118.773 1459.43 118.965 1459.21 119.24C1459.15 119.318 1453.23 126.682 1444.74 128.643C1444.33 128.736 1443.98 128.986 1443.76 129.338C1443.54 129.689 1443.47 130.113 1443.57 130.517L1446.73 144.219C1449.09 154.435 1454.37 158.491 1469.26 161.323C1469.48 161.366 1469.7 161.362 1469.92 161.313C1470.14 161.263 1470.34 161.168 1470.51 161.035C1482.66 151.961 1485.63 145.999 1483.27 135.784L1480.11 122.081C1480.01 121.678 1479.76 121.327 1479.41 121.108C1479.06 120.888 1478.64 120.817 1478.23 120.91ZM1480.22 136.487C1482.05 144.373 1480.91 149.158 1469.18 158.119C1454.72 155.204 1451.6 151.403 1449.78 143.516L1446.96 131.337C1452.32 129.511 1457.11 126.327 1460.87 122.097C1466.1 124.252 1471.8 125.013 1477.41 124.307L1480.22 136.487Z" fill="url(#paint14_linear_4206_40)"></path><path d="M1461.26 139.725C1461.09 139.616 1460.89 139.542 1460.69 139.508C1460.49 139.474 1460.28 139.481 1460.08 139.527C1459.88 139.573 1459.69 139.659 1459.52 139.779C1459.35 139.898 1459.21 140.05 1459.1 140.224C1458.99 140.399 1458.92 140.594 1458.89 140.797C1458.85 141 1458.86 141.208 1458.9 141.409C1458.95 141.61 1459.04 141.799 1459.16 141.967C1459.28 142.135 1459.43 142.277 1459.6 142.386L1463.35 144.728C1463.52 144.838 1463.72 144.913 1463.92 144.947C1464.12 144.982 1464.33 144.975 1464.53 144.929C1464.74 144.883 1464.92 144.797 1465.09 144.677C1465.26 144.557 1465.4 144.405 1465.51 144.229L1470.19 136.733C1470.3 136.559 1470.38 136.364 1470.41 136.161C1470.45 135.958 1470.44 135.75 1470.39 135.549C1470.35 135.348 1470.26 135.159 1470.14 134.991C1470.02 134.823 1469.87 134.681 1469.7 134.572C1469.52 134.462 1469.33 134.389 1469.12 134.355C1468.92 134.321 1468.71 134.327 1468.51 134.373C1468.31 134.42 1468.12 134.505 1467.95 134.625C1467.79 134.744 1467.64 134.896 1467.53 135.071L1463.68 141.251L1461.26 139.725Z" fill="url(#paint15_linear_4206_40)"></path><path d="M1452.82 142.813C1453.38 145.222 1454.63 147.412 1456.44 149.106C1458.24 150.8 1460.5 151.922 1462.94 152.33C1465.38 152.738 1467.88 152.414 1470.13 151.398C1472.39 150.383 1474.29 148.722 1475.6 146.625C1476.91 144.529 1477.57 142.091 1477.49 139.62C1477.42 137.149 1476.61 134.755 1475.18 132.743C1473.74 130.73 1471.74 129.188 1469.43 128.312C1467.12 127.436 1464.6 127.266 1462.19 127.822C1458.96 128.568 1456.16 130.566 1454.4 133.377C1452.64 136.189 1452.07 139.583 1452.82 142.813ZM1474.13 137.892C1474.55 139.699 1474.42 141.589 1473.77 143.323C1473.11 145.057 1471.95 146.557 1470.44 147.634C1468.93 148.71 1467.14 149.315 1465.29 149.372C1463.43 149.429 1461.6 148.934 1460.03 147.952C1458.46 146.969 1457.21 145.542 1456.45 143.852C1455.69 142.161 1455.45 140.283 1455.75 138.454C1456.06 136.625 1456.9 134.928 1458.17 133.578C1459.44 132.227 1461.08 131.284 1462.89 130.867C1465.31 130.307 1467.86 130.733 1469.97 132.051C1472.08 133.369 1473.58 135.47 1474.13 137.892Z" fill="url(#paint16_linear_4206_40)"></path></g></g><defs><radialGradient id="paint0_radial_4206_40" cx="0" cy="0" r="1" gradientUnits="userSpaceOnUse" gradientTransform="translate(1056.52 302.205) rotate(-2.0865) scale(1128.83 1934.89)"><stop stop-color="#00924D" stop-opacity="0"></stop><stop offset="1" stop-color="#00924D" stop-opacity="0.1"></stop></radialGradient><linearGradient id="paint1_linear_4206_40" x1="765.829" y1="122.98" x2="762.917" y2="133.847" gradientUnits="userSpaceOnUse"><stop stop-color="#919191"></stop><stop offset="1" stop-color="#BFBFBF"></stop></linearGradient><linearGradient id="paint2_linear_4206_40" x1="765.829" y1="122.98" x2="762.917" y2="133.847" gradientUnits="userSpaceOnUse"><stop stop-color="#919191"></stop><stop offset="1" stop-color="#BFBFBF"></stop></linearGradient><linearGradient id="paint3_linear_4206_40" x1="765.829" y1="122.98" x2="762.917" y2="133.847" gradientUnits="userSpaceOnUse"><stop stop-color="#919191"></stop><stop offset="1" stop-color="#BFBFBF"></stop></linearGradient><linearGradient id="paint4_linear_4206_40" x1="765.829" y1="122.98" x2="762.917" y2="133.847" gradientUnits="userSpaceOnUse"><stop stop-color="#919191"></stop><stop offset="1" stop-color="#BFBFBF"></stop></linearGradient><linearGradient id="paint5_linear_4206_40" x1="649.811" y1="265.969" x2="645.351" y2="270.848" gradientUnits="userSpaceOnUse"><stop stop-color="#696969"></stop><stop offset="1" stop-color="#979797"></stop></linearGradient><linearGradient id="paint6_linear_4206_40" x1="649.811" y1="265.969" x2="645.351" y2="270.848" gradientUnits="userSpaceOnUse"><stop stop-color="#696969"></stop><stop offset="1" stop-color="#979797"></stop></linearGradient><linearGradient id="paint7_linear_4206_40" x1="649.811" y1="265.969" x2="645.351" y2="270.848" gradientUnits="userSpaceOnUse"><stop stop-color="#696969"></stop><stop offset="1" stop-color="#979797"></stop></linearGradient><linearGradient id="paint8_linear_4206_40" x1="1577.11" y1="299.103" x2="1575.1" y2="308.505" gradientUnits="userSpaceOnUse"><stop stop-color="#696969"></stop><stop offset="1" stop-color="#979797"></stop></linearGradient><linearGradient id="paint9_linear_4206_40" x1="1577.11" y1="299.103" x2="1575.1" y2="308.505" gradientUnits="userSpaceOnUse"><stop stop-color="#696969"></stop><stop offset="1" stop-color="#979797"></stop></linearGradient><linearGradient id="paint10_linear_4206_40" x1="1577.11" y1="299.103" x2="1575.1" y2="308.505" gradientUnits="userSpaceOnUse"><stop stop-color="#696969"></stop><stop offset="1" stop-color="#979797"></stop></linearGradient><linearGradient id="paint11_linear_4206_40" x1="1577.11" y1="299.103" x2="1575.1" y2="308.505" gradientUnits="userSpaceOnUse"><stop stop-color="#696969"></stop><stop offset="1" stop-color="#979797"></stop></linearGradient><linearGradient id="paint12_linear_4206_40" x1="1419.73" y1="413.28" x2="1420.27" y2="420.387" gradientUnits="userSpaceOnUse"><stop stop-color="#696969"></stop><stop offset="1" stop-color="#979797"></stop></linearGradient><linearGradient id="paint13_linear_4206_40" x1="818.031" y1="401.336" x2="820.524" y2="409.205" gradientUnits="userSpaceOnUse"><stop stop-color="#696969"></stop><stop offset="1" stop-color="#979797"></stop></linearGradient><linearGradient id="paint14_linear_4206_40" x1="1470.68" y1="135.319" x2="1470.48" y2="143.51" gradientUnits="userSpaceOnUse"><stop stop-color="#696969"></stop><stop offset="1" stop-color="#979797"></stop></linearGradient><linearGradient id="paint15_linear_4206_40" x1="1470.68" y1="135.319" x2="1470.48" y2="143.51" gradientUnits="userSpaceOnUse"><stop stop-color="#696969"></stop><stop offset="1" stop-color="#979797"></stop></linearGradient><linearGradient id="paint16_linear_4206_40" x1="1470.68" y1="135.319" x2="1470.48" y2="143.51" gradientUnits="userSpaceOnUse"><stop stop-color="#696969"></stop><stop offset="1" stop-color="#979797"></stop></linearGradient><clipPath id="clip0_4206_40"><rect width="2160" height="505" fill="white"></rect></clipPath><clipPath id="clip1_4206_40"><rect width="60" height="60" fill="white" transform="translate(731.322 92.3818) rotate(15)"></rect></clipPath><clipPath id="clip2_4206_40"><rect width="40" height="40" fill="white" transform="translate(635.849 237.85) rotate(30)"></rect></clipPath><clipPath id="clip3_4206_40"><rect width="50" height="50" fill="white" transform="translate(1382.38 400.322) rotate(-15)"></rect></clipPath><clipPath id="clip4_4206_40"><rect width="50" height="50" fill="white" transform="translate(778.849 398.85) rotate(-30)"></rect></clipPath><clipPath id="clip5_4206_40"><rect width="50" height="50" fill="white" transform="translate(1435.02 121.266) rotate(-13)"></rect></clipPath></defs></svg>