<svg xmlns="http://www.w3.org/2000/svg" width="20" height="20" viewBox="0 0 20 20" fill="none"><g clip-path="url(#clip0_4288_2229)"><path d="M0 10.0002C0 11.2234 0.220039 12.3951 0.621992 13.4784L10 14.348L19.378 13.4784C19.78 12.3951 20 11.2234 20 10.0002C20 8.77695 19.78 7.60523 19.378 6.52191L10 5.65234L0.621992 6.52191C0.220039 7.60523 0 8.77695 0 10.0002Z" fill="#FFDA44"></path><path d="M19.378 6.52176C17.965 2.71379 14.2996 0 9.99996 0C5.70031 0 2.03488 2.71379 0.621948 6.52176H19.378Z" fill="#D80027"></path><path d="M0.621948 13.4785C2.03488 17.2865 5.70031 20.0003 9.99996 20.0003C14.2996 20.0003 17.965 17.2865 19.378 13.4785H0.621948Z" fill="#D80027"></path></g><defs><clipPath id="clip0_4288_2229"><rect width="20" height="20" fill="white"></rect></clipPath></defs></svg>