<?xml version="1.0" encoding="UTF-8"?><svg xmlns="http://www.w3.org/2000/svg" xmlns:xlink="http://www.w3.org/1999/xlink" viewBox="0 0 512 478.66"><defs><style>.g{fill:#fff;}.h{fill:url(#f);}.i{fill:url(#d);}.j{fill:url(#e);}</style><linearGradient id="d" x1="469.21" y1="-21.56" x2="-50.68" y2="394.05" gradientTransform="matrix(1, 0, 0, 1, 0, 0)" gradientUnits="userSpaceOnUse"><stop offset="0" stop-color="#ff9e28"/><stop offset=".16" stop-color="#fe9122"/><stop offset="1" stop-color="#fb5607"/></linearGradient><linearGradient id="e" x1="118.15" y1="349.26" x2="598.96" y2="349.26" xlink:href="#d"/><linearGradient id="f" x1="258.99" y1="69.25" x2="512" y2="69.25" xlink:href="#d"/></defs><g id="a"/><g id="b"><g id="c"><g><g><path class="i" d="M28.07,478.66c-15.5,0-28.07-12.57-28.07-28.07V125.34H176.56l48.92,38.38h197.41v56.14C282.23,341.12,191.13,478.66,28.07,478.66Z"/><path class="j" d="M320.8,219.86H123.39L59.28,456.46c-3.55,13.1-15.44,22.2-29.01,22.2H417.95c13.57,0,25.46-9.1,29.01-22.2l64.12-236.6h-190.27Z"/><path class="g" d="M264.2,402.63h-97.75c-3.61,0-6.77,2.41-7.72,5.89l-3.84,14.06c-1.39,5.09,2.44,10.11,7.72,10.11h191.13c3.61,0,6.77-2.41,7.72-5.89l3.84-14.06c1.39-5.09-2.44-10.11-7.72-10.11h-93.38Z"/></g><path class="h" d="M493.56,71.67l-23.3,18.1C462.31,38.98,418.25,0,365.27,0c-58.6,0-106.28,47.68-106.28,106.28h30.06c0-42.03,34.19-76.22,76.22-76.22,35.3,0,65.06,24.12,73.69,56.75l-19.49-15.14-18.44,23.74,55.48,43.1,55.48-43.1-18.44-23.74Z"/></g></g></g></svg>