<svg xmlns="http://www.w3.org/2000/svg" width="111" height="85" viewBox="0 0 111 85" fill="none"><path d="M0 19.8002V45.0797C0 56.0169 8.91427 64.8799 19.9116 64.8799H28.1387C26.6414 79.0908 16.043 84.6576 15.3771 85C21.3529 83.7646 26.3198 81.7037 30.4113 79.3111C33.1603 77.7121 35.5116 75.9485 37.496 74.1955C41.4754 70.6896 44.0255 67.1956 45.4668 64.8799H91.0884C102.086 64.8799 111 56.0155 111 45.0797V19.8002C111 8.8644 102.086 0 91.0884 0H19.9116C8.91427 0 0 8.8644 0 19.8002Z" fill="url(#paint0_linear_1427_6249)"></path><path d="M18.7699 53V43.2H24.9439V44.656H20.2819V51.544H24.9439V53H18.7699ZM19.4559 48.702V47.246H24.1739V48.702H19.4559ZM27.3135 53V42.64H28.7555V53H27.3135ZM34.3724 53.14C33.6164 53.14 32.9444 52.9813 32.3564 52.664C31.7777 52.3373 31.3204 51.894 30.9844 51.334C30.6577 50.774 30.4944 50.13 30.4944 49.402C30.4944 48.8233 30.5877 48.296 30.7744 47.82C30.9611 47.344 31.2177 46.9333 31.5444 46.588C31.8804 46.2333 32.2771 45.9627 32.7344 45.776C33.2011 45.58 33.7051 45.482 34.2464 45.482C34.7224 45.482 35.1657 45.5753 35.5764 45.762C35.9871 45.9393 36.3417 46.1867 36.6404 46.504C36.9484 46.8213 37.1817 47.1993 37.3404 47.638C37.5084 48.0673 37.5877 48.5387 37.5784 49.052L37.5644 49.668H31.5584L31.2364 48.52H36.3184L36.1084 48.758V48.422C36.0804 48.114 35.9777 47.8387 35.8004 47.596C35.6231 47.3533 35.3991 47.162 35.1284 47.022C34.8577 46.882 34.5637 46.812 34.2464 46.812C33.7424 46.812 33.3177 46.91 32.9724 47.106C32.6271 47.2927 32.3657 47.5727 32.1884 47.946C32.0111 48.31 31.9224 48.7627 31.9224 49.304C31.9224 49.8173 32.0297 50.2653 32.2444 50.648C32.4591 51.0213 32.7624 51.3107 33.1544 51.516C33.5464 51.7213 33.9991 51.824 34.5124 51.824C34.8764 51.824 35.2124 51.7633 35.5204 51.642C35.8377 51.5207 36.1784 51.3013 36.5424 50.984L37.2704 52.006C37.0464 52.23 36.7711 52.426 36.4444 52.594C36.1271 52.762 35.7864 52.8973 35.4224 53C35.0677 53.0933 34.7177 53.14 34.3724 53.14ZM42.5475 53.14C41.8662 53.14 41.2549 52.972 40.7135 52.636C40.1815 52.3 39.7569 51.8427 39.4395 51.264C39.1315 50.6853 38.9775 50.0367 38.9775 49.318C38.9775 48.5993 39.1315 47.9507 39.4395 47.372C39.7569 46.7933 40.1815 46.336 40.7135 46C41.2549 45.664 41.8662 45.496 42.5475 45.496C43.2009 45.496 43.7935 45.6313 44.3255 45.902C44.8669 46.1633 45.2775 46.5227 45.5575 46.98L44.7595 47.96C44.6102 47.7453 44.4189 47.5493 44.1855 47.372C43.9522 47.1947 43.7049 47.0547 43.4435 46.952C43.1822 46.8493 42.9302 46.798 42.6875 46.798C42.2395 46.798 41.8382 46.91 41.4835 47.134C41.1382 47.3487 40.8629 47.6473 40.6575 48.03C40.4522 48.4127 40.3495 48.842 40.3495 49.318C40.3495 49.794 40.4569 50.2233 40.6715 50.606C40.8862 50.9793 41.1709 51.278 41.5255 51.502C41.8802 51.726 42.2722 51.838 42.7015 51.838C42.9535 51.838 43.1962 51.796 43.4295 51.712C43.6722 51.628 43.9055 51.502 44.1295 51.334C44.3535 51.166 44.5635 50.9607 44.7595 50.718L45.5575 51.698C45.2589 52.118 44.8295 52.4633 44.2695 52.734C43.7189 53.0047 43.1449 53.14 42.5475 53.14ZM48.1077 53V43.774H49.5497V53H48.1077ZM46.5817 47.05V45.65H51.2577V47.05H46.5817ZM52.8508 53V45.65H54.3068V47.96L54.1668 47.4C54.2694 47.0453 54.4421 46.7233 54.6848 46.434C54.9368 46.1447 55.2214 45.916 55.5388 45.748C55.8654 45.58 56.2014 45.496 56.5468 45.496C56.7054 45.496 56.8548 45.51 56.9948 45.538C57.1441 45.566 57.2608 45.5987 57.3448 45.636L56.9668 47.204C56.8548 47.1573 56.7288 47.12 56.5888 47.092C56.4581 47.0547 56.3274 47.036 56.1968 47.036C55.9448 47.036 55.7021 47.0873 55.4688 47.19C55.2448 47.2833 55.0441 47.4187 54.8668 47.596C54.6988 47.764 54.5634 47.9647 54.4608 48.198C54.3581 48.422 54.3068 48.6693 54.3068 48.94V53H52.8508ZM61.7668 53.14C61.0481 53.14 60.4041 52.9767 59.8348 52.65C59.2748 52.314 58.8315 51.8613 58.5048 51.292C58.1781 50.7133 58.0148 50.0553 58.0148 49.318C58.0148 48.5807 58.1781 47.9273 58.5048 47.358C58.8315 46.7793 59.2748 46.3267 59.8348 46C60.4041 45.664 61.0481 45.496 61.7668 45.496C62.4761 45.496 63.1108 45.664 63.6708 46C64.2401 46.3267 64.6881 46.7793 65.0148 47.358C65.3415 47.9273 65.5048 48.5807 65.5048 49.318C65.5048 50.0553 65.3415 50.7133 65.0148 51.292C64.6881 51.8613 64.2401 52.314 63.6708 52.65C63.1108 52.9767 62.4761 53.14 61.7668 53.14ZM61.7668 51.824C62.2055 51.824 62.5975 51.7167 62.9428 51.502C63.2881 51.278 63.5588 50.9793 63.7548 50.606C63.9508 50.2233 64.0441 49.794 64.0348 49.318C64.0441 48.8327 63.9508 48.4033 63.7548 48.03C63.5588 47.6473 63.2881 47.3487 62.9428 47.134C62.5975 46.9193 62.2055 46.812 61.7668 46.812C61.3281 46.812 60.9315 46.924 60.5768 47.148C60.2315 47.3627 59.9608 47.6613 59.7648 48.044C59.5688 48.4173 59.4755 48.842 59.4848 49.318C59.4755 49.794 59.5688 50.2233 59.7648 50.606C59.9608 50.9793 60.2315 51.278 60.5768 51.502C60.9315 51.7167 61.3281 51.824 61.7668 51.824ZM67.3561 53V45.65H68.7981V47.162L68.5461 47.33C68.6394 47.0033 68.8214 46.7047 69.0921 46.434C69.3628 46.154 69.6848 45.93 70.0581 45.762C70.4314 45.5847 70.8141 45.496 71.2061 45.496C71.7661 45.496 72.2328 45.608 72.6061 45.832C72.9794 46.0467 73.2594 46.378 73.4461 46.826C73.6328 47.274 73.7261 47.8387 73.7261 48.52V53H72.2841V48.618C72.2841 48.198 72.2281 47.8527 72.1161 47.582C72.0041 47.302 71.8314 47.1013 71.5981 46.98C71.3648 46.8493 71.0754 46.7933 70.7301 46.812C70.4501 46.812 70.1934 46.8587 69.9601 46.952C69.7268 47.036 69.5214 47.1573 69.3441 47.316C69.1761 47.4747 69.0408 47.6613 68.9381 47.876C68.8448 48.0813 68.7981 48.3053 68.7981 48.548V53H68.0841C67.9628 53 67.8414 53 67.7201 53C67.5988 53 67.4774 53 67.3561 53ZM76.2003 53V45.65H77.6423V53H76.2003ZM76.9003 44.026C76.5923 44.026 76.3543 43.9467 76.1863 43.788C76.0183 43.6293 75.9343 43.4053 75.9343 43.116C75.9343 42.8453 76.0183 42.626 76.1863 42.458C76.3636 42.29 76.6016 42.206 76.9003 42.206C77.2083 42.206 77.4463 42.2853 77.6143 42.444C77.7823 42.6027 77.8663 42.8267 77.8663 43.116C77.8663 43.3867 77.7776 43.606 77.6003 43.774C77.4323 43.942 77.1989 44.026 76.9003 44.026ZM83.2607 53.14C82.5794 53.14 81.9681 52.972 81.4267 52.636C80.8947 52.3 80.4701 51.8427 80.1527 51.264C79.8447 50.6853 79.6907 50.0367 79.6907 49.318C79.6907 48.5993 79.8447 47.9507 80.1527 47.372C80.4701 46.7933 80.8947 46.336 81.4267 46C81.9681 45.664 82.5794 45.496 83.2607 45.496C83.9141 45.496 84.5067 45.6313 85.0387 45.902C85.5801 46.1633 85.9907 46.5227 86.2707 46.98L85.4727 47.96C85.3234 47.7453 85.1321 47.5493 84.8987 47.372C84.6654 47.1947 84.4181 47.0547 84.1567 46.952C83.8954 46.8493 83.6434 46.798 83.4007 46.798C82.9527 46.798 82.5514 46.91 82.1967 47.134C81.8514 47.3487 81.5761 47.6473 81.3707 48.03C81.1654 48.4127 81.0627 48.842 81.0627 49.318C81.0627 49.794 81.1701 50.2233 81.3847 50.606C81.5994 50.9793 81.8841 51.278 82.2387 51.502C82.5934 51.726 82.9854 51.838 83.4147 51.838C83.6667 51.838 83.9094 51.796 84.1427 51.712C84.3854 51.628 84.6187 51.502 84.8427 51.334C85.0667 51.166 85.2767 50.9607 85.4727 50.718L86.2707 51.698C85.9721 52.118 85.5427 52.4633 84.9827 52.734C84.4321 53.0047 83.8581 53.14 83.2607 53.14ZM90.3609 53.14C89.7449 53.14 89.1896 53.0327 88.6949 52.818C88.2003 52.6033 87.7896 52.286 87.4629 51.866L88.4429 51.026C88.7229 51.3527 89.0263 51.5907 89.3529 51.74C89.6889 51.88 90.0669 51.95 90.4869 51.95C90.6549 51.95 90.8089 51.9313 90.9489 51.894C91.0983 51.8473 91.2243 51.782 91.3269 51.698C91.4389 51.614 91.5229 51.516 91.5789 51.404C91.6349 51.2827 91.6629 51.152 91.6629 51.012C91.6629 50.7693 91.5743 50.5733 91.3969 50.424C91.3036 50.3587 91.1543 50.2887 90.9489 50.214C90.7529 50.13 90.4963 50.046 90.1789 49.962C89.6376 49.822 89.1943 49.6633 88.8489 49.486C88.5036 49.3087 88.2376 49.108 88.0509 48.884C87.9109 48.7067 87.8083 48.5153 87.7429 48.31C87.6776 48.0953 87.6449 47.862 87.6449 47.61C87.6449 47.1993 87.7616 46.8353 87.9949 46.518C88.2283 46.2007 88.5409 45.9533 88.9329 45.776C89.3343 45.5893 89.7823 45.496 90.2769 45.496C90.6223 45.496 90.9629 45.5427 91.2989 45.636C91.6443 45.7293 91.9616 45.8647 92.2509 46.042C92.5403 46.2193 92.7829 46.4293 92.9789 46.672L92.1529 47.582C91.9756 47.4047 91.7796 47.2507 91.5649 47.12C91.3596 46.98 91.1496 46.8727 90.9349 46.798C90.7203 46.7233 90.5243 46.686 90.3469 46.686C90.1509 46.686 89.9736 46.7047 89.8149 46.742C89.6563 46.7793 89.5209 46.8353 89.4089 46.91C89.3063 46.9847 89.2269 47.078 89.1709 47.19C89.1149 47.302 89.0869 47.428 89.0869 47.568C89.0963 47.6893 89.1243 47.806 89.1709 47.918C89.2269 48.0207 89.3016 48.1093 89.3949 48.184C89.4976 48.2587 89.6516 48.338 89.8569 48.422C90.0623 48.506 90.3236 48.5853 90.6409 48.66C91.1076 48.7813 91.4903 48.9167 91.7889 49.066C92.0969 49.206 92.3396 49.3693 92.5169 49.556C92.7036 49.7333 92.8343 49.9387 92.9089 50.172C92.9836 50.4053 93.0209 50.6667 93.0209 50.956C93.0209 51.376 92.8996 51.754 92.6569 52.09C92.4236 52.4167 92.1063 52.6733 91.7049 52.86C91.3036 53.0467 90.8556 53.14 90.3609 53.14Z" fill="white"></path><path d="M57.4866 17.9554V17.1518H46.2366V33.2232H53.4687V18.3572C53.4687 18.1352 53.6486 17.9554 53.8705 17.9554H57.4866ZM47.8437 20.3661C47.8437 20.588 47.6639 20.7679 47.4419 20.7679C47.22 20.7679 47.0401 20.588 47.0401 20.3661V17.9554C47.0401 17.7334 47.22 17.5536 47.4419 17.5536C47.6639 17.5536 47.8437 17.7334 47.8437 17.9554V20.3661Z" fill="white"></path><path d="M65.5223 21.1696H54.2723V33.2232H65.5223V21.1696ZM59.8973 32.0178C57.4563 32.0178 55.4777 30.039 55.4777 27.5982C55.4777 25.1573 57.4563 23.1785 59.8973 23.1785C62.3382 23.1785 64.317 25.1573 64.317 27.5982C64.314 30.0379 62.3371 32.0148 59.8973 32.0178Z" fill="white"></path><path d="M59.8973 23.9821C57.9002 23.9821 56.2812 25.601 56.2812 27.5982C56.2812 29.5953 57.9002 31.2143 59.8973 31.2143C61.8945 31.2143 63.5134 29.5953 63.5134 27.5982C63.5112 25.602 61.8935 23.9843 59.8973 23.9821ZM59.8973 25.3212C58.6403 25.3226 57.6217 26.3412 57.6203 27.5982C57.6203 27.8201 57.4405 28 57.2185 28C56.9968 28 56.8168 27.8201 56.8168 27.5982C56.8186 25.8977 58.1968 24.5195 59.8973 24.5176C60.1192 24.5176 60.2991 24.6976 60.2991 24.9194C60.2991 25.1413 60.1192 25.3212 59.8973 25.3212Z" fill="white"></path><path d="M57.4866 10.7233H46.2366V16.3483H57.4866V10.7233ZM47.8437 15.5447C47.8437 15.7666 47.6639 15.9465 47.4419 15.9465C47.22 15.9465 47.0401 15.7666 47.0401 15.5447V13.134C47.0401 12.9121 47.22 12.7322 47.4419 12.7322C47.6639 12.7322 47.8437 12.9121 47.8437 13.134V15.5447Z" fill="white"></path><path d="M65.5223 18.7589H56.2812V20.3661H65.5223V18.7589ZM58.2902 19.9643H57.4866C57.2647 19.9643 57.0848 19.7844 57.0848 19.5625C57.0848 19.3406 57.2647 19.1607 57.4866 19.1607H58.2902C58.5121 19.1607 58.692 19.3406 58.692 19.5625C58.692 19.7844 58.5121 19.9643 58.2902 19.9643ZM60.2991 19.9643H59.4955C59.2736 19.9643 59.0938 19.7844 59.0938 19.5625C59.0938 19.3406 59.2736 19.1607 59.4955 19.1607H60.2991C60.521 19.1607 60.7009 19.3406 60.7009 19.5625C60.7009 19.7844 60.521 19.9643 60.2991 19.9643Z" fill="white"></path><path d="M54.2723 18.7589H55.4777V20.3661H54.2723V18.7589Z" fill="white"></path><defs><linearGradient id="paint0_linear_1427_6249" x1="-29.7682" y1="-46.5" x2="84.0583" y2="89.0162" gradientUnits="userSpaceOnUse"><stop stop-color="#FD5900"></stop><stop offset="1" stop-color="#FF9900"></stop></linearGradient></defs></svg>