<svg xmlns="http://www.w3.org/2000/svg" width="140" height="71" viewBox="0 0 140 71" fill="none"><path d="M139.357 0C139.357 0 135.903 23.4258 116.293 33.1632V49.2188C116.293 54.6998 114.176 59.6698 110.711 63.3944C108.662 65.6246 106.115 67.402 103.25 68.558C101.404 69.3164 99.4344 69.8035 97.362 69.9853C97.2831 70.0076 97.1698 70.0076 97.0909 70.0076C96.8987 70.0181 96.6946 70.0419 96.4905 70.0419C96.1508 70.0643 95.7888 70.0762 95.4372 70.0762H20.8678C18.8297 70.0762 16.8602 69.7812 14.9905 69.2374C14.323 69.0333 13.666 68.8069 13.0209 68.5476C5.39013 65.4548 0 57.9596 0 49.2188V22.5885C0 11.0618 9.35302 1.70881 20.8678 1.70881H95.4372C105.322 1.70881 113.588 8.60513 115.739 17.8434C121.887 16.1793 131.511 11.7516 139.357 0Z" fill="url(#paint0_linear_1427_6313)"></path><path d="M32.7537 56V46.2H34.2657V56H32.7537ZM33.4257 51.828V50.372H38.4797V51.828H33.4257ZM33.4257 47.656V46.2H39.1097V47.656H33.4257ZM45.2405 56V51.212C45.2405 50.8013 45.0911 50.47 44.7925 50.218C44.5031 49.9567 44.1345 49.826 43.6865 49.826C43.2758 49.826 42.9025 49.91 42.5665 50.078C42.2398 50.246 41.9411 50.5027 41.6705 50.848L40.7325 49.91C41.1711 49.434 41.6425 49.0793 42.1465 48.846C42.6598 48.6127 43.2105 48.496 43.7985 48.496C44.3585 48.496 44.8438 48.5893 45.2545 48.776C45.6651 48.9627 45.9825 49.238 46.2065 49.602C46.4305 49.9567 46.5425 50.3907 46.5425 50.904V56H45.2405ZM43.0425 56.14C42.5665 56.14 42.1418 56.0467 41.7685 55.86C41.3951 55.6733 41.0965 55.4167 40.8725 55.09C40.6578 54.754 40.5505 54.362 40.5505 53.914C40.5505 53.522 40.6205 53.1767 40.7605 52.878C40.9005 52.5793 41.1058 52.332 41.3765 52.136C41.6565 51.94 42.0018 51.7907 42.4125 51.688C42.8325 51.5853 43.3131 51.534 43.8545 51.534H45.8985L45.7725 52.682H43.6725C43.3925 52.682 43.1405 52.71 42.9165 52.766C42.7018 52.8127 42.5151 52.892 42.3565 53.004C42.2071 53.1067 42.0951 53.2327 42.0205 53.382C41.9458 53.522 41.9085 53.69 41.9085 53.886C41.9085 54.0913 41.9598 54.2733 42.0625 54.432C42.1651 54.5813 42.3051 54.698 42.4825 54.782C42.6598 54.866 42.8651 54.908 43.0985 54.908C43.4345 54.908 43.7518 54.852 44.0505 54.74C44.3585 54.6187 44.6291 54.4553 44.8625 54.25C45.1051 54.0447 45.2918 53.816 45.4225 53.564L45.7585 54.502C45.5625 54.8287 45.3198 55.1133 45.0305 55.356C44.7411 55.5987 44.4285 55.79 44.0925 55.93C43.7565 56.07 43.4065 56.14 43.0425 56.14ZM51.095 56.14C50.479 56.14 49.9237 56.0327 49.429 55.818C48.9343 55.6033 48.5237 55.286 48.197 54.866L49.177 54.026C49.457 54.3527 49.7603 54.5907 50.087 54.74C50.423 54.88 50.801 54.95 51.221 54.95C51.389 54.95 51.543 54.9313 51.683 54.894C51.8323 54.8473 51.9583 54.782 52.061 54.698C52.173 54.614 52.257 54.516 52.313 54.404C52.369 54.2827 52.397 54.152 52.397 54.012C52.397 53.7693 52.3083 53.5733 52.131 53.424C52.0377 53.3587 51.8883 53.2887 51.683 53.214C51.487 53.13 51.2303 53.046 50.913 52.962C50.3717 52.822 49.9283 52.6633 49.583 52.486C49.2377 52.3087 48.9717 52.108 48.785 51.884C48.645 51.7067 48.5423 51.5153 48.477 51.31C48.4117 51.0953 48.379 50.862 48.379 50.61C48.379 50.1993 48.4957 49.8353 48.729 49.518C48.9623 49.2007 49.275 48.9533 49.667 48.776C50.0683 48.5893 50.5163 48.496 51.011 48.496C51.3563 48.496 51.697 48.5427 52.033 48.636C52.3783 48.7293 52.6957 48.8647 52.985 49.042C53.2743 49.2193 53.517 49.4293 53.713 49.672L52.887 50.582C52.7097 50.4047 52.5137 50.2507 52.299 50.12C52.0937 49.98 51.8837 49.8727 51.669 49.798C51.4543 49.7233 51.2583 49.686 51.081 49.686C50.885 49.686 50.7077 49.7047 50.549 49.742C50.3903 49.7793 50.255 49.8353 50.143 49.91C50.0403 49.9847 49.961 50.078 49.905 50.19C49.849 50.302 49.821 50.428 49.821 50.568C49.8303 50.6893 49.8583 50.806 49.905 50.918C49.961 51.0207 50.0357 51.1093 50.129 51.184C50.2317 51.2587 50.3857 51.338 50.591 51.422C50.7963 51.506 51.0577 51.5853 51.375 51.66C51.8417 51.7813 52.2243 51.9167 52.523 52.066C52.831 52.206 53.0737 52.3693 53.251 52.556C53.4377 52.7333 53.5683 52.9387 53.643 53.172C53.7177 53.4053 53.755 53.6667 53.755 53.956C53.755 54.376 53.6337 54.754 53.391 55.09C53.1577 55.4167 52.8403 55.6733 52.439 55.86C52.0377 56.0467 51.5897 56.14 51.095 56.14ZM55.6242 56V45.64H57.0662V50.162L56.8142 50.33C56.9075 50.0033 57.0895 49.7047 57.3602 49.434C57.6309 49.154 57.9529 48.93 58.3262 48.762C58.6995 48.5847 59.0822 48.496 59.4742 48.496C60.0342 48.496 60.5009 48.608 60.8742 48.832C61.2475 49.0467 61.5275 49.378 61.7142 49.826C61.9009 50.274 61.9942 50.8387 61.9942 51.52V56H60.5522V51.618C60.5522 51.198 60.4962 50.8527 60.3842 50.582C60.2722 50.302 60.0995 50.1013 59.8662 49.98C59.6329 49.8493 59.3435 49.7933 58.9982 49.812C58.7182 49.812 58.4615 49.8587 58.2282 49.952C57.9949 50.036 57.7895 50.1573 57.6122 50.316C57.4442 50.4747 57.3089 50.6613 57.2062 50.876C57.1129 51.0813 57.0662 51.3053 57.0662 51.548V56H56.3522C56.2309 56 56.1095 56 55.9882 56C55.8669 56 55.7455 56 55.6242 56ZM64.4684 56V48.65H65.9104V56H64.4684ZM65.1684 47.026C64.8604 47.026 64.6224 46.9467 64.4544 46.788C64.2864 46.6293 64.2024 46.4053 64.2024 46.116C64.2024 45.8453 64.2864 45.626 64.4544 45.458C64.6317 45.29 64.8697 45.206 65.1684 45.206C65.4764 45.206 65.7144 45.2853 65.8824 45.444C66.0504 45.6027 66.1344 45.8267 66.1344 46.116C66.1344 46.3867 66.0457 46.606 65.8684 46.774C65.7004 46.942 65.467 47.026 65.1684 47.026ZM71.7109 56.14C70.9922 56.14 70.3482 55.9767 69.7789 55.65C69.2189 55.314 68.7755 54.8613 68.4489 54.292C68.1222 53.7133 67.9589 53.0553 67.9589 52.318C67.9589 51.5807 68.1222 50.9273 68.4489 50.358C68.7755 49.7793 69.2189 49.3267 69.7789 49C70.3482 48.664 70.9922 48.496 71.7109 48.496C72.4202 48.496 73.0549 48.664 73.6149 49C74.1842 49.3267 74.6322 49.7793 74.9589 50.358C75.2855 50.9273 75.4489 51.5807 75.4489 52.318C75.4489 53.0553 75.2855 53.7133 74.9589 54.292C74.6322 54.8613 74.1842 55.314 73.6149 55.65C73.0549 55.9767 72.4202 56.14 71.7109 56.14ZM71.7109 54.824C72.1495 54.824 72.5415 54.7167 72.8869 54.502C73.2322 54.278 73.5029 53.9793 73.6989 53.606C73.8949 53.2233 73.9882 52.794 73.9789 52.318C73.9882 51.8327 73.8949 51.4033 73.6989 51.03C73.5029 50.6473 73.2322 50.3487 72.8869 50.134C72.5415 49.9193 72.1495 49.812 71.7109 49.812C71.2722 49.812 70.8755 49.924 70.5209 50.148C70.1755 50.3627 69.9049 50.6613 69.7089 51.044C69.5129 51.4173 69.4195 51.842 69.4289 52.318C69.4195 52.794 69.5129 53.2233 69.7089 53.606C69.9049 53.9793 70.1755 54.278 70.5209 54.502C70.8755 54.7167 71.2722 54.824 71.7109 54.824ZM77.3001 56V48.65H78.7421V50.162L78.4901 50.33C78.5835 50.0033 78.7655 49.7047 79.0361 49.434C79.3068 49.154 79.6288 48.93 80.0021 48.762C80.3755 48.5847 80.7581 48.496 81.1501 48.496C81.7101 48.496 82.1768 48.608 82.5501 48.832C82.9235 49.0467 83.2035 49.378 83.3901 49.826C83.5768 50.274 83.6701 50.8387 83.6701 51.52V56H82.2281V51.618C82.2281 51.198 82.1721 50.8527 82.0601 50.582C81.9481 50.302 81.7755 50.1013 81.5421 49.98C81.3088 49.8493 81.0195 49.7933 80.6741 49.812C80.3941 49.812 80.1375 49.8587 79.9041 49.952C79.6708 50.036 79.4655 50.1573 79.2881 50.316C79.1201 50.4747 78.9848 50.6613 78.8821 50.876C78.7888 51.0813 78.7421 51.3053 78.7421 51.548V56H78.0281C77.9068 56 77.7855 56 77.6641 56C77.5428 56 77.4215 56 77.3001 56Z" fill="white"></path><g clip-path="url(#clip0_1427_6313)"><path d="M63.5235 25.4648H59.3985C58.7575 25.4648 58.1696 25.1809 57.7763 24.7077L56.8618 26.2533H58.7354C60.0657 26.2533 61.0637 27.4657 60.8116 28.7697L60.7091 29.2989C60.9586 29.3153 61.2096 29.3233 61.461 29.3233C63.14 29.3233 65.539 28.6424 67.0578 27.9403L65.1457 24.7077C64.7524 25.1809 64.1645 25.4648 63.5235 25.4648Z" fill="white"></path><path d="M60.4394 30.6931L60.1367 32.2556C60.5733 32.3054 61.015 32.3308 61.461 32.3308C63.663 32.3308 66.6367 31.2406 68.3665 30.1527L67.7787 29.1588C66.14 29.9398 63.4516 30.7331 61.461 30.7331C61.1189 30.7331 60.7782 30.7194 60.4394 30.6931Z" fill="white"></path><path d="M69.8948 32.7364L69.0841 31.3661C67.1396 32.5785 63.9319 33.7406 61.461 33.7406C60.9248 33.7406 60.3933 33.7082 59.8684 33.6434C59.2568 36.8022 59.3022 36.5767 59.2805 36.6593C63.3885 37.3613 67.4929 35.9631 69.79 33.61C70.0127 33.3926 70.0754 33.0264 69.8948 32.7364Z" fill="white"></path><path d="M56.286 17.4478C56.3029 17.5822 56.1557 17.1837 58.7447 23.6132C58.8518 23.8802 59.1108 24.055 59.3984 24.055H63.5234C63.811 24.055 64.0699 23.8802 64.177 23.6132C66.5787 17.649 66.5911 17.619 66.5929 17.6142C66.6574 17.4485 66.6555 17.2745 66.6037 17.1278C66.4846 16.7591 65.8623 16.2428 65.4656 16.0249V13.8627C65.4656 13.4736 65.1503 13.1578 64.7607 13.1578C64.3716 13.1578 64.0558 13.4736 64.0558 13.8627V15.6353C63.0157 15.5988 62.0629 16.0641 61.4609 16.8167C60.8542 16.0584 59.8988 15.5991 58.8659 15.6353V13.8627C58.8659 13.4736 58.5501 13.1578 58.161 13.1578C57.7715 13.1578 57.4562 13.4736 57.4562 13.8627V16.0249C57.0246 16.2619 56.4293 16.7836 56.318 17.1278C56.2812 17.232 56.272 17.3493 56.286 17.4478Z" fill="white"></path><path d="M46.013 28.5019L47.5168 36.2712C47.5812 36.6025 47.8711 36.8422 48.209 36.8422H49.4247C49.4187 35.3994 49.3915 38.685 49.4256 27.6631H46.7052C46.2627 27.6631 45.929 28.0668 46.013 28.5019Z" fill="white"></path><path d="M50.8349 36.8421H54.6061L54.6193 33.8346H50.8218L50.8349 36.8421Z" fill="white"></path><path d="M50.8208 32.4249H54.6197L54.6047 27.6631H50.8358L50.8208 32.4249Z" fill="white"></path><path d="M58.7353 27.6631H56.0149C56.0499 38.9656 56.0226 35.2157 56.0158 36.8422H57.2315C57.5694 36.8422 57.8594 36.6025 57.9237 36.2712L59.4275 28.5019C59.5114 28.0675 59.1785 27.6631 58.7353 27.6631Z" fill="white"></path><path d="M55.0615 24.3716C52.9793 22.2915 49.4087 23.7833 49.4087 26.7138L49.4256 27.663H50.8359L50.8185 26.7138C50.8185 25.6652 51.6716 24.812 52.7203 24.812C53.7713 24.812 54.6221 25.6624 54.6221 26.7138L54.6047 27.663H56.0149C56.0306 26.7856 56.2068 25.5169 55.0615 24.3716Z" fill="white"></path></g><defs><linearGradient id="paint0_linear_1427_6313" x1="-32.3543" y1="-53.2622" x2="31.6623" y2="81.0377" gradientUnits="userSpaceOnUse"><stop stop-color="#0005FF"></stop><stop offset="0.846565" stop-color="#00C0FF"></stop></linearGradient><clipPath id="clip0_1427_6313"><rect width="24" height="24" fill="white" transform="translate(46 13)"></rect></clipPath></defs></svg>