<svg xmlns="http://www.w3.org/2000/svg" width="110" height="85" viewBox="0 0 110 85" fill="none"><path d="M0 19.8002V45.0797C0 56.0169 8.83396 64.8799 19.7323 64.8799H27.8852C26.4014 79.0908 15.8985 84.6576 15.2386 85C21.1605 83.7646 26.0827 81.7037 30.1373 79.3111C32.8615 77.7121 35.1917 75.9485 37.1582 74.1955C41.1017 70.6896 43.6289 67.1956 45.0572 64.8799H90.2677C101.166 64.8799 110 56.0155 110 45.0797V19.8002C110 8.8644 101.166 0 90.2677 0H19.7323C8.83396 0 0 8.8644 0 19.8002Z" fill="url(#paint0_linear_1427_5899)"></path><path d="M32.8615 53V43.2H36.9495C37.5748 43.2 38.1021 43.2933 38.5315 43.48C38.9608 43.6667 39.2828 43.9467 39.4975 44.32C39.7215 44.684 39.8335 45.132 39.8335 45.664C39.8335 46.196 39.6841 46.6487 39.3855 47.022C39.0961 47.3953 38.6901 47.652 38.1675 47.792V47.512C38.6061 47.6053 38.9888 47.7733 39.3155 48.016C39.6421 48.2493 39.8941 48.5433 40.0715 48.898C40.2581 49.2527 40.3515 49.6587 40.3515 50.116C40.3515 50.5827 40.2768 50.998 40.1275 51.362C39.9875 51.7167 39.7728 52.0153 39.4835 52.258C39.2035 52.5007 38.8628 52.6873 38.4615 52.818C38.0601 52.9393 37.6028 53 37.0895 53H32.8615ZM34.3735 51.544H37.0055C37.5748 51.544 38.0181 51.418 38.3355 51.166C38.6528 50.914 38.8115 50.5547 38.8115 50.088C38.8115 49.7987 38.7321 49.5513 38.5735 49.346C38.4241 49.1407 38.2095 48.9867 37.9295 48.884C37.6495 48.772 37.3181 48.716 36.9355 48.716H34.3735V51.544ZM34.3735 47.26H36.8655C37.1455 47.26 37.3928 47.204 37.6075 47.092C37.8315 46.98 38.0041 46.826 38.1255 46.63C38.2561 46.434 38.3215 46.21 38.3215 45.958C38.3215 45.538 38.1815 45.216 37.9015 44.992C37.6215 44.768 37.2201 44.656 36.6975 44.656H34.3735V47.26ZM46.6471 53V48.212C46.6471 47.8013 46.4977 47.47 46.1991 47.218C45.9097 46.9567 45.5411 46.826 45.0931 46.826C44.6824 46.826 44.3091 46.91 43.9731 47.078C43.6464 47.246 43.3477 47.5027 43.0771 47.848L42.1391 46.91C42.5777 46.434 43.0491 46.0793 43.5531 45.846C44.0664 45.6127 44.6171 45.496 45.2051 45.496C45.7651 45.496 46.2504 45.5893 46.6611 45.776C47.0717 45.9627 47.3891 46.238 47.6131 46.602C47.8371 46.9567 47.9491 47.3907 47.9491 47.904V53H46.6471ZM44.4491 53.14C43.9731 53.14 43.5484 53.0467 43.1751 52.86C42.8017 52.6733 42.5031 52.4167 42.2791 52.09C42.0644 51.754 41.9571 51.362 41.9571 50.914C41.9571 50.522 42.0271 50.1767 42.1671 49.878C42.3071 49.5793 42.5124 49.332 42.7831 49.136C43.0631 48.94 43.4084 48.7907 43.8191 48.688C44.2391 48.5853 44.7197 48.534 45.2611 48.534H47.3051L47.1791 49.682H45.0791C44.7991 49.682 44.5471 49.71 44.3231 49.766C44.1084 49.8127 43.9217 49.892 43.7631 50.004C43.6137 50.1067 43.5017 50.2327 43.4271 50.382C43.3524 50.522 43.3151 50.69 43.3151 50.886C43.3151 51.0913 43.3664 51.2733 43.4691 51.432C43.5717 51.5813 43.7117 51.698 43.8891 51.782C44.0664 51.866 44.2717 51.908 44.5051 51.908C44.8411 51.908 45.1584 51.852 45.4571 51.74C45.7651 51.6187 46.0357 51.4553 46.2691 51.25C46.5117 51.0447 46.6984 50.816 46.8291 50.564L47.1651 51.502C46.9691 51.8287 46.7264 52.1133 46.4371 52.356C46.1477 52.5987 45.8351 52.79 45.4991 52.93C45.1631 53.07 44.8131 53.14 44.4491 53.14ZM51.3676 50.704L51.2976 49.136L54.8116 45.65H56.7576L51.3676 50.704ZM50.0516 53V42.64H51.4936V53H50.0516ZM55.0076 53L52.2356 49.766L53.2576 48.828L56.8556 53H55.0076ZM61.4042 53.14C60.6482 53.14 59.9762 52.9813 59.3882 52.664C58.8095 52.3373 58.3522 51.894 58.0162 51.334C57.6895 50.774 57.5262 50.13 57.5262 49.402C57.5262 48.8233 57.6195 48.296 57.8062 47.82C57.9928 47.344 58.2495 46.9333 58.5762 46.588C58.9122 46.2333 59.3088 45.9627 59.7662 45.776C60.2328 45.58 60.7368 45.482 61.2782 45.482C61.7542 45.482 62.1975 45.5753 62.6082 45.762C63.0188 45.9393 63.3735 46.1867 63.6722 46.504C63.9802 46.8213 64.2135 47.1993 64.3722 47.638C64.5402 48.0673 64.6195 48.5387 64.6102 49.052L64.5962 49.668H58.5902L58.2682 48.52H63.3502L63.1402 48.758V48.422C63.1122 48.114 63.0095 47.8387 62.8322 47.596C62.6548 47.3533 62.4308 47.162 62.1602 47.022C61.8895 46.882 61.5955 46.812 61.2782 46.812C60.7742 46.812 60.3495 46.91 60.0042 47.106C59.6588 47.2927 59.3975 47.5727 59.2202 47.946C59.0428 48.31 58.9542 48.7627 58.9542 49.304C58.9542 49.8173 59.0615 50.2653 59.2762 50.648C59.4908 51.0213 59.7942 51.3107 60.1862 51.516C60.5782 51.7213 61.0308 51.824 61.5442 51.824C61.9082 51.824 62.2442 51.7633 62.5522 51.642C62.8695 51.5207 63.2102 51.3013 63.5742 50.984L64.3022 52.006C64.0782 52.23 63.8028 52.426 63.4762 52.594C63.1588 52.762 62.8182 52.8973 62.4542 53C62.0995 53.0933 61.7495 53.14 61.4042 53.14ZM66.4573 53V45.65H67.9133V47.96L67.7733 47.4C67.876 47.0453 68.0486 46.7233 68.2913 46.434C68.5433 46.1447 68.828 45.916 69.1453 45.748C69.472 45.58 69.808 45.496 70.1533 45.496C70.312 45.496 70.4613 45.51 70.6013 45.538C70.7506 45.566 70.8673 45.5987 70.9513 45.636L70.5733 47.204C70.4613 47.1573 70.3353 47.12 70.1953 47.092C70.0646 47.0547 69.934 47.036 69.8033 47.036C69.5513 47.036 69.3086 47.0873 69.0753 47.19C68.8513 47.2833 68.6506 47.4187 68.4733 47.596C68.3053 47.764 68.17 47.9647 68.0673 48.198C67.9646 48.422 67.9133 48.6693 67.9133 48.94V53H66.4573ZM73.6158 56.22L75.0998 52.79L75.1138 53.938L71.4458 45.65H73.1258L75.4218 51.054C75.4684 51.1473 75.5244 51.292 75.5898 51.488C75.6551 51.6747 75.7111 51.8613 75.7578 52.048L75.3938 52.132C75.4684 51.936 75.5384 51.74 75.6038 51.544C75.6784 51.348 75.7484 51.152 75.8138 50.956L77.7318 45.65H79.4398L76.4158 53L75.1698 56.22H73.6158Z" fill="white"></path><g clip-path="url(#clip0_1427_5899)"><path d="M58.9263 10C54.6355 10 51.2287 11.2511 50.1914 13.0511C51.2251 12.8942 52.2927 12.8125 53.3459 12.8125C58.3855 12.8125 63.8093 14.5731 63.8093 18.4375C63.8093 19.2265 63.5532 20.3677 62.3808 21.4471L62.4028 28.2812H64.4902C65.6551 28.2812 66.5995 27.3369 66.5995 26.1719V16.872C66.5995 16.6667 66.6826 16.4758 66.8223 16.3611C67.791 15.5667 67.9946 14.7578 67.9946 14.2188C67.9946 11.8135 64.0961 10 58.9263 10Z" fill="white"></path><path d="M53.1462 14.3125C47.9353 14.3125 44.0056 16.126 44.0056 18.5312C44.0056 19.0703 44.2109 19.8791 45.1873 20.6736C45.3281 20.7882 45.4118 20.9792 45.4118 21.1844V31.8906C45.4118 33.0538 46.3581 34 47.5212 34H58.7712C59.9344 34 60.8806 33.0538 60.8806 31.8906V21.1845C60.8806 20.9792 60.9644 20.7883 61.1051 20.6736C62.0815 19.8792 62.2868 19.0703 62.2868 18.5313C62.2868 16.126 58.3572 14.3125 53.1462 14.3125ZM49.8366 22.956L52.6491 20.1435C52.9237 19.8689 53.3687 19.8689 53.6433 20.1435C53.918 20.4182 53.918 20.8631 53.6433 21.1378L50.8308 23.9503C50.6935 24.0876 50.5136 24.1563 50.3337 24.1563C50.1539 24.1563 49.9739 24.0876 49.8366 23.9503C49.5619 23.6756 49.5619 23.2307 49.8366 22.956ZM56.4558 26.7627L53.6433 29.5752C53.3686 29.8499 52.9237 29.8499 52.6491 29.5752C52.3744 29.3006 52.3744 28.8556 52.6491 28.581L55.4616 25.7685C55.7362 25.4938 56.1812 25.4938 56.4558 25.7685C56.7305 26.0431 56.7305 26.4881 56.4558 26.7627ZM56.4558 22.544L50.8308 28.169C50.5561 28.4437 50.1112 28.4437 49.8366 28.169C49.5619 27.8943 49.5619 27.4494 49.8366 27.1747L55.4616 21.5497C55.7362 21.2751 56.1812 21.2751 56.4558 21.5497C56.7305 21.8244 56.7305 22.2693 56.4558 22.544Z" fill="white"></path></g><defs><linearGradient id="paint0_linear_1427_5899" x1="-29.5" y1="-46.5" x2="84.5" y2="88" gradientUnits="userSpaceOnUse"><stop stop-color="#FD5900"></stop><stop offset="1" stop-color="#FF9900"></stop></linearGradient><clipPath id="clip0_1427_5899"><rect width="24" height="24" fill="white" transform="translate(44 10)"></rect></clipPath></defs></svg>