<svg xmlns="http://www.w3.org/2000/svg" width="122" height="61" viewBox="0 0 122 61" fill="none"><path d="M121.726 19.8937V42.5866C121.726 47.2559 119.931 51.4924 116.979 54.6662C114.093 57.7918 110.09 59.8764 105.604 60.2724C105.527 60.3016 105.44 60.3016 105.363 60.3016H105.334C105.18 60.3118 105.015 60.3207 104.861 60.3207C104.562 60.3499 104.253 60.3588 103.955 60.3588H40.4199C39.1174 60.3588 37.844 60.214 36.6278 59.9436C35.6249 59.7316 34.6601 59.432 33.7333 59.0562C27.2206 56.422 22.6287 50.0349 22.6287 42.5866V37.2698C3.62129 29.8507 0.378906 7.85225 0.378906 7.85225C8.05957 19.3529 17.727 22.6245 22.6287 23.55V19.8937C22.6287 10.0714 30.5975 2.10254 40.4199 2.10254H103.955C113.777 2.10254 121.727 10.0714 121.727 19.8937H121.726Z" fill="#E90000"></path><path d="M29.8578 46.3359V38.6359H31.0458V45.1919H34.6538V46.3359H29.8578ZM38.4008 46.4459C37.9901 46.4459 37.6308 46.3506 37.3228 46.1599C37.0221 45.9693 36.7875 45.7016 36.6188 45.3569C36.4575 45.0123 36.3768 44.6016 36.3768 44.1249V40.5609H37.5098V43.8169C37.5098 44.3229 37.6271 44.7226 37.8618 45.0159C38.1038 45.3093 38.4375 45.4559 38.8628 45.4559C39.0755 45.4559 39.2698 45.4229 39.4458 45.3569C39.6218 45.2836 39.7721 45.1846 39.8968 45.0599C40.0288 44.9353 40.1315 44.7849 40.2048 44.6089C40.2781 44.4329 40.3148 44.2423 40.3148 44.0369V40.5609H41.4478V46.3359H40.3148V45.1259L40.5128 44.9939C40.4248 45.2653 40.2745 45.5109 40.0618 45.7309C39.8565 45.9509 39.6108 46.1269 39.3248 46.2589C39.0388 46.3836 38.7308 46.4459 38.4008 46.4459ZM47.0959 46.3359L45.2259 43.9049L45.0609 43.6959L42.6299 40.5609H44.0599L45.8969 42.9589L46.0839 43.2009L48.4819 46.3359H47.0959ZM42.6409 46.3359L44.9179 43.3659L45.5889 44.1689L43.9829 46.3359H42.6409ZM46.1499 43.5419L45.5229 42.7499L46.9419 40.5609H48.2839L46.1499 43.5419ZM51.624 46.4459C51.2133 46.4459 50.854 46.3506 50.546 46.1599C50.2453 45.9693 50.0107 45.7016 49.842 45.3569C49.6807 45.0123 49.6 44.6016 49.6 44.1249V40.5609H50.733V43.8169C50.733 44.3229 50.8503 44.7226 51.085 45.0159C51.327 45.3093 51.6607 45.4559 52.086 45.4559C52.2987 45.4559 52.493 45.4229 52.669 45.3569C52.845 45.2836 52.9953 45.1846 53.12 45.0599C53.252 44.9353 53.3547 44.7849 53.428 44.6089C53.5013 44.4329 53.538 44.2423 53.538 44.0369V40.5609H54.671V46.3359H53.538V45.1259L53.736 44.9939C53.648 45.2653 53.4977 45.5109 53.285 45.7309C53.0797 45.9509 52.834 46.1269 52.548 46.2589C52.262 46.3836 51.954 46.4459 51.624 46.4459ZM56.4801 46.3359V40.5609H57.6241V42.3759L57.5141 41.9359C57.5948 41.6573 57.7305 41.4043 57.9211 41.1769C58.1191 40.9496 58.3428 40.7699 58.5921 40.6379C58.8488 40.5059 59.1128 40.4399 59.3841 40.4399C59.5088 40.4399 59.6261 40.4509 59.7361 40.4729C59.8535 40.4949 59.9451 40.5206 60.0111 40.5499L59.7141 41.7819C59.6261 41.7453 59.5271 41.7159 59.4171 41.6939C59.3145 41.6646 59.2118 41.6499 59.1091 41.6499C58.9111 41.6499 58.7205 41.6903 58.5371 41.7709C58.3611 41.8443 58.2035 41.9506 58.0641 42.0899C57.9321 42.2219 57.8258 42.3796 57.7451 42.5629C57.6645 42.7389 57.6241 42.9333 57.6241 43.1459V46.3359H56.4801ZM62.1047 48.8659L63.2707 46.1709L63.2817 47.0729L60.3997 40.5609H61.7197L63.5237 44.8069C63.5603 44.8803 63.6043 44.9939 63.6557 45.1479C63.707 45.2946 63.751 45.4413 63.7877 45.5879L63.5017 45.6539C63.5603 45.4999 63.6153 45.3459 63.6667 45.1919C63.7253 45.0379 63.7803 44.8839 63.8317 44.7299L65.3387 40.5609H66.6807L64.3047 46.3359L63.3257 48.8659H62.1047ZM73.6033 46.3359L70.5233 38.6359H71.8763L73.7133 43.3109C73.8013 43.5383 73.8783 43.7436 73.9443 43.9269C74.0176 44.1103 74.0799 44.2789 74.1313 44.4329C74.1826 44.5796 74.2303 44.7189 74.2743 44.8509C74.3183 44.9829 74.3623 45.1149 74.4063 45.2469L74.1203 45.2579C74.1716 45.0819 74.2266 44.8986 74.2853 44.7079C74.3439 44.5173 74.4099 44.3083 74.4833 44.0809C74.5639 43.8536 74.6593 43.5969 74.7693 43.3109L76.4743 38.6359H77.8603L74.7583 46.3359H73.6033ZM81.1743 46.4459C80.5803 46.4459 80.0523 46.3213 79.5903 46.0719C79.1356 45.8153 78.7763 45.4669 78.5123 45.0269C78.2556 44.5869 78.1273 44.0809 78.1273 43.5089C78.1273 43.0543 78.2006 42.6399 78.3473 42.2659C78.4939 41.8919 78.6956 41.5693 78.9523 41.2979C79.2163 41.0193 79.5279 40.8066 79.8873 40.6599C80.2539 40.5059 80.6499 40.4289 81.0753 40.4289C81.4493 40.4289 81.7976 40.5023 82.1203 40.6489C82.4429 40.7883 82.7216 40.9826 82.9563 41.2319C83.1983 41.4813 83.3816 41.7783 83.5063 42.1229C83.6383 42.4603 83.7006 42.8306 83.6933 43.2339L83.6823 43.7179H78.9633L78.7103 42.8159H82.7033L82.5383 43.0029V42.7389C82.5163 42.4969 82.4356 42.2806 82.2963 42.0899C82.1569 41.8993 81.9809 41.7489 81.7683 41.6389C81.5556 41.5289 81.3246 41.4739 81.0753 41.4739C80.6793 41.4739 80.3456 41.5509 80.0743 41.7049C79.8029 41.8516 79.5976 42.0716 79.4583 42.3649C79.3189 42.6509 79.2493 43.0066 79.2493 43.4319C79.2493 43.8353 79.3336 44.1873 79.5023 44.4879C79.6709 44.7813 79.9093 45.0086 80.2173 45.1699C80.5253 45.3313 80.8809 45.4119 81.2843 45.4119C81.5703 45.4119 81.8343 45.3643 82.0763 45.2689C82.3256 45.1736 82.5933 45.0013 82.8793 44.7519L83.4513 45.5549C83.2753 45.7309 83.0589 45.8849 82.8023 46.0169C82.5529 46.1489 82.2853 46.2553 81.9993 46.3359C81.7206 46.4093 81.4456 46.4459 81.1743 46.4459ZM85.1446 46.3359V38.1959H86.2776V41.7489L86.0796 41.8809C86.1529 41.6243 86.2959 41.3896 86.5086 41.1769C86.7213 40.9569 86.9743 40.7809 87.2676 40.6489C87.5609 40.5096 87.8616 40.4399 88.1696 40.4399C88.6096 40.4399 88.9763 40.5279 89.2696 40.7039C89.5629 40.8726 89.7829 41.1329 89.9296 41.4849C90.0763 41.8369 90.1496 42.2806 90.1496 42.8159V46.3359H89.0166V42.8929C89.0166 42.5629 88.9726 42.2916 88.8846 42.0789C88.7966 41.8589 88.6609 41.7013 88.4776 41.6059C88.2943 41.5033 88.0669 41.4593 87.7956 41.4739C87.5756 41.4739 87.3739 41.5106 87.1906 41.5839C87.0073 41.6499 86.8459 41.7453 86.7066 41.8699C86.5746 41.9946 86.4683 42.1413 86.3876 42.3099C86.3143 42.4713 86.2776 42.6473 86.2776 42.8379V46.3359H85.7166C85.6213 46.3359 85.5259 46.3359 85.4306 46.3359C85.3353 46.3359 85.2399 46.3359 85.1446 46.3359ZM92.0936 46.3359V40.5609H93.2266V46.3359H92.0936ZM92.6436 39.2849C92.4016 39.2849 92.2146 39.2226 92.0826 39.0979C91.9506 38.9733 91.8846 38.7973 91.8846 38.5699C91.8846 38.3573 91.9506 38.1849 92.0826 38.0529C92.2219 37.9209 92.4089 37.8549 92.6436 37.8549C92.8856 37.8549 93.0726 37.9173 93.2046 38.0419C93.3366 38.1666 93.4026 38.3426 93.4026 38.5699C93.4026 38.7826 93.3329 38.9549 93.1936 39.0869C93.0616 39.2189 92.8783 39.2849 92.6436 39.2849ZM97.6411 46.4459C97.1058 46.4459 96.6254 46.3139 96.2001 46.0499C95.7821 45.7859 95.4484 45.4266 95.1991 44.9719C94.9571 44.5173 94.8361 44.0076 94.8361 43.4429C94.8361 42.8783 94.9571 42.3686 95.1991 41.9139C95.4484 41.4593 95.7821 41.0999 96.2001 40.8359C96.6254 40.5719 97.1058 40.4399 97.6411 40.4399C98.1544 40.4399 98.6201 40.5463 99.0381 40.7589C99.4634 40.9643 99.7861 41.2466 100.006 41.6059L99.3791 42.3759C99.2618 42.2073 99.1114 42.0533 98.9281 41.9139C98.7448 41.7746 98.5504 41.6646 98.3451 41.5839C98.1398 41.5033 97.9418 41.4629 97.7511 41.4629C97.3991 41.4629 97.0838 41.5509 96.8051 41.7269C96.5338 41.8956 96.3174 42.1303 96.1561 42.4309C95.9948 42.7316 95.9141 43.0689 95.9141 43.4429C95.9141 43.8169 95.9984 44.1543 96.1671 44.4549C96.3358 44.7483 96.5594 44.9829 96.8381 45.1589C97.1168 45.3349 97.4248 45.4229 97.7621 45.4229C97.9601 45.4229 98.1508 45.3899 98.3341 45.3239C98.5248 45.2579 98.7081 45.1589 98.8841 45.0269C99.0601 44.8949 99.2251 44.7336 99.3791 44.5429L100.006 45.3129C99.7714 45.6429 99.4341 45.9143 98.9941 46.1269C98.5614 46.3396 98.1104 46.4459 97.6411 46.4459ZM101.317 46.3359V38.1959H102.45V46.3359H101.317ZM106.863 46.4459C106.269 46.4459 105.741 46.3213 105.279 46.0719C104.824 45.8153 104.465 45.4669 104.201 45.0269C103.944 44.5869 103.816 44.0809 103.816 43.5089C103.816 43.0543 103.889 42.6399 104.036 42.2659C104.183 41.8919 104.384 41.5693 104.641 41.2979C104.905 41.0193 105.217 40.8066 105.576 40.6599C105.943 40.5059 106.339 40.4289 106.764 40.4289C107.138 40.4289 107.486 40.5023 107.809 40.6489C108.132 40.7883 108.41 40.9826 108.645 41.2319C108.887 41.4813 109.07 41.7783 109.195 42.1229C109.327 42.4603 109.389 42.8306 109.382 43.2339L109.371 43.7179H104.652L104.399 42.8159H108.392L108.227 43.0029V42.7389C108.205 42.4969 108.124 42.2806 107.985 42.0899C107.846 41.8993 107.67 41.7489 107.457 41.6389C107.244 41.5289 107.013 41.4739 106.764 41.4739C106.368 41.4739 106.034 41.5509 105.763 41.7049C105.492 41.8516 105.286 42.0716 105.147 42.3649C105.008 42.6509 104.938 43.0066 104.938 43.4319C104.938 43.8353 105.022 44.1873 105.191 44.4879C105.36 44.7813 105.598 45.0086 105.906 45.1699C106.214 45.3313 106.57 45.4119 106.973 45.4119C107.259 45.4119 107.523 45.3643 107.765 45.2689C108.014 45.1736 108.282 45.0013 108.568 44.7519L109.14 45.5549C108.964 45.7309 108.748 45.8849 108.491 46.0169C108.242 46.1489 107.974 46.2553 107.688 46.3359C107.409 46.4093 107.134 46.4459 106.863 46.4459ZM112.758 46.4459C112.274 46.4459 111.838 46.3616 111.449 46.1929C111.061 46.0243 110.738 45.7749 110.481 45.4449L111.251 44.7849C111.471 45.0416 111.71 45.2286 111.966 45.3459C112.23 45.4559 112.527 45.5109 112.857 45.5109C112.989 45.5109 113.11 45.4963 113.22 45.4669C113.338 45.4303 113.437 45.3789 113.517 45.3129C113.605 45.2469 113.671 45.1699 113.715 45.0819C113.759 44.9866 113.781 44.8839 113.781 44.7739C113.781 44.5833 113.712 44.4293 113.572 44.3119C113.499 44.2606 113.382 44.2056 113.22 44.1469C113.066 44.0809 112.865 44.0149 112.615 43.9489C112.19 43.8389 111.842 43.7143 111.57 43.5749C111.299 43.4356 111.09 43.2779 110.943 43.1019C110.833 42.9626 110.753 42.8123 110.701 42.6509C110.65 42.4823 110.624 42.2989 110.624 42.1009C110.624 41.7783 110.716 41.4923 110.899 41.2429C111.083 40.9936 111.328 40.7993 111.636 40.6599C111.952 40.5133 112.304 40.4399 112.692 40.4399C112.964 40.4399 113.231 40.4766 113.495 40.5499C113.767 40.6233 114.016 40.7296 114.243 40.8689C114.471 41.0083 114.661 41.1733 114.815 41.3639L114.166 42.0789C114.027 41.9396 113.873 41.8186 113.704 41.7159C113.543 41.6059 113.378 41.5216 113.209 41.4629C113.041 41.4043 112.887 41.3749 112.747 41.3749C112.593 41.3749 112.454 41.3896 112.329 41.4189C112.205 41.4483 112.098 41.4923 112.01 41.5509C111.93 41.6096 111.867 41.6829 111.823 41.7709C111.779 41.8589 111.757 41.9579 111.757 42.0679C111.765 42.1633 111.787 42.2549 111.823 42.3429C111.867 42.4236 111.926 42.4933 111.999 42.5519C112.08 42.6106 112.201 42.6729 112.362 42.7389C112.524 42.8049 112.729 42.8673 112.978 42.9259C113.345 43.0213 113.646 43.1276 113.88 43.2449C114.122 43.3549 114.313 43.4833 114.452 43.6299C114.599 43.7693 114.702 43.9306 114.76 44.1139C114.819 44.2973 114.848 44.5026 114.848 44.7299C114.848 45.0599 114.753 45.3569 114.562 45.6209C114.379 45.8776 114.13 46.0793 113.814 46.2259C113.499 46.3726 113.147 46.4459 112.758 46.4459Z" fill="white"></path><g clip-path="url(#clip0_6201_96)"><path d="M83.0879 20.4056C82.7859 19.9876 80.7269 19.4331 78.8284 19.1531L77.6794 21.7866C79.5954 21.6906 81.0679 21.5736 81.3689 21.4536C82.4719 21.0111 83.0334 20.6001 83.0879 20.4056Z" fill="white"></path><path d="M63.211 22.6156C61.9925 23.2416 62.432 27.0956 62.7365 28.7186C64.252 28.8526 68.191 28.8551 77.356 28.4091C77.361 28.4061 77.366 28.4051 77.3715 28.4016C77.455 28.3476 77.6585 28.1441 77.7345 27.4226C77.868 26.1556 79.833 23.2261 80.6335 22.0781C78.251 22.3421 72.199 22.5166 68.914 22.5166C68.4395 22.5166 68.0135 22.5126 67.655 22.5056C66.1915 22.4741 65.015 22.5421 64.2055 22.5881C63.843 22.6086 63.563 22.6241 63.379 22.6241C63.3295 22.6241 63.2705 22.6216 63.211 22.6156ZM75.185 23.0751H77.289V23.5751H75.185V23.0751Z" fill="white"></path><path d="M77.9812 28.8797C77.8007 28.8887 77.6317 28.8967 77.4547 28.9057C77.3817 28.9277 77.3112 28.9397 77.2507 28.9397C77.1902 28.9397 77.1397 28.9312 77.0992 28.9227C63.1957 29.5952 61.7442 29.2232 61.5017 28.8182C61.3562 28.5762 61.2507 28.2142 61.1172 27.7562C60.6347 26.1007 59.9052 23.5997 56.4912 23.3497C54.6502 23.2142 53.1822 23.7572 52.1267 24.9632C50.6427 26.6567 50.3272 29.2962 50.5647 30.7662C50.6192 30.7692 50.6777 30.7737 50.7257 30.7737C51.0342 30.7737 51.1232 30.7547 51.1232 30.3277V30.2747C51.1207 27.8597 51.6617 26.0922 52.7317 25.0207C53.5047 24.2472 54.5382 23.8547 55.8042 23.8547C55.9607 23.8547 56.1222 23.8607 56.2897 23.8732C60.7882 24.2042 60.7092 27.8292 60.6667 29.7767C60.6567 30.2182 60.6442 30.8167 60.7292 30.9537C61.1362 30.9127 63.0782 30.8962 65.7587 30.8737C70.7017 30.8322 79.9022 30.7557 80.5647 30.3962C80.7527 30.2892 80.8587 29.6092 80.9517 29.0092C81.0007 28.6962 81.0567 28.3467 81.1317 27.9832C80.6852 28.4147 80.0747 28.7867 79.2717 28.8187C79.0422 28.8267 78.5917 28.8492 77.9812 28.8797Z" fill="white"></path><path d="M95.9719 27.738C95.6749 27.198 95.6674 26.4515 95.6609 25.851C95.6584 25.587 95.6544 25.234 95.6104 25.107C95.5469 25.101 95.4909 25.0795 95.4354 25.0555C95.4074 25.188 95.3639 25.3145 95.2829 25.42C95.1719 25.5645 94.9639 25.7245 94.5864 25.7245C94.5329 25.7245 94.4749 25.721 94.4144 25.714C93.5809 25.6175 93.3809 24.7065 93.1689 23.7425C93.0964 23.4135 93.0214 23.0725 92.9199 22.747C92.8074 22.386 92.8499 22.126 93.0464 21.9735C93.3614 21.7295 93.9704 21.9465 94.4499 22.1865C94.2844 21.629 93.9924 21.4345 93.2109 21.4345C93.0939 21.4345 92.9669 21.439 92.8299 21.4475C92.7029 21.456 92.5699 21.4595 92.4329 21.4595C90.7944 21.46 88.6904 20.879 86.9424 19.944C85.4699 19.1565 78.7904 17.8535 73.9554 17.8535C72.3319 17.8535 71.1064 18.0015 70.3129 18.294C68.7874 18.856 67.1509 19.5445 65.7069 20.152C63.6354 21.023 61.9994 21.711 61.2284 21.826C60.8714 21.8785 59.8729 21.9595 58.6089 22.0615C55.8374 22.2845 50.0684 22.75 49.5844 23.1725C49.2864 23.5205 49.0104 23.977 48.7134 24.54C48.9029 24.517 49.1689 24.463 49.5314 24.3375C50.3899 24.0405 50.9099 24.0335 51.0774 24.315C51.2699 24.6385 50.8769 24.997 50.7089 25.1505C50.0654 25.738 49.0249 26.375 48.3724 26.375C48.2294 26.375 48.1049 26.344 48.0074 26.276C47.9659 26.2465 47.9314 26.2165 47.8979 26.186C47.7169 26.5595 47.5639 26.84 47.4424 27.062C47.1579 27.582 47.0894 27.712 47.1834 28.0195C47.5339 27.7605 48.0784 27.429 48.4734 27.5305C48.6469 27.574 48.7799 27.6945 48.8484 27.8705C49.0509 28.3915 48.6384 29.001 48.2749 29.5385C48.0919 29.809 47.9029 30.0885 47.8599 30.267C47.8379 30.3595 47.8589 30.405 47.8799 30.4345C47.9654 30.5545 48.2174 30.617 48.3189 30.627L48.3174 30.6415C48.4174 30.6455 48.5204 30.6485 48.6389 30.6485C49.2094 30.6485 49.6734 30.69 50.0524 30.7255C49.8369 29.129 50.2014 26.4015 51.7499 24.633C52.9144 23.303 54.5209 22.702 56.5274 22.8505C60.2879 23.126 61.1074 25.9365 61.5969 27.6155C61.7154 28.022 61.8179 28.374 61.9304 28.561C61.9749 28.5925 62.0659 28.624 62.2164 28.6525C61.9919 27.394 61.3774 23.1955 62.8939 22.2335C62.9519 22.077 63.1634 21.982 63.3864 21.8835C63.7814 21.7085 64.4104 21.406 65.1379 21.056C66.6674 20.319 68.5704 19.403 69.7149 18.9895C71.0219 18.5175 72.9524 18.457 74.4874 18.457C74.9244 18.457 75.3519 18.462 75.7584 18.467C76.1229 18.4715 76.4699 18.4755 76.7899 18.4755C78.7574 18.4755 82.8839 19.281 83.4804 20.073C83.5854 20.212 83.6159 20.374 83.5694 20.5405C83.4504 20.9675 82.7724 21.4305 81.5549 21.9185C81.5009 21.94 81.4194 21.9615 81.3144 21.9825C80.4484 23.189 78.3544 26.3155 78.2319 27.476C78.1934 27.8475 78.1154 28.146 78.0039 28.3785C78.5914 28.3495 79.0284 28.328 79.2534 28.319C80.8709 28.2555 81.6169 26.416 81.6239 26.3975L81.6309 26.4005C82.2214 25.1105 83.3474 24.004 85.7064 24.004C87.0149 24.004 88.1709 24.5265 89.0494 25.5145C90.2359 26.8495 90.6429 28.712 90.5434 29.5495C90.4964 29.947 90.5294 30.0405 90.5399 30.06C90.6589 30.0405 90.9014 29.9595 91.2084 29.8565C91.5499 29.742 91.9739 29.6 92.5189 29.4675C93.7174 29.175 94.3534 29.1705 94.8179 29.1675C95.1174 29.1655 95.3339 29.164 95.6009 29.0895C95.7589 29.0455 95.9764 28.886 96.0799 28.639C96.1894 28.3765 96.1524 28.0655 95.9719 27.738Z" fill="white"></path><path d="M47.8605 29.2584C48.141 28.8444 48.4895 28.3284 48.3825 28.0519C48.1875 27.9789 47.731 28.2279 47.3655 28.5109C47.52 28.9114 47.6015 29.2149 47.347 29.8079C47.256 30.0204 47.143 30.2849 47.213 30.3914C47.231 30.4189 47.2755 30.4594 47.3725 30.4999C47.3455 30.3909 47.3435 30.2739 47.373 30.1509C47.4375 29.8834 47.643 29.5799 47.8605 29.2584Z" fill="white"></path><path d="M93.3547 22.3679C93.3597 22.3729 93.3482 22.4369 93.3987 22.5974C93.5067 22.9439 93.5837 23.2954 93.6587 23.6349C93.8677 24.5844 94.0267 25.1654 94.4732 25.2164C94.6802 25.2404 94.8177 25.2059 94.8872 25.1154C95.0097 24.9564 94.9812 24.6249 94.9172 24.3374C94.8767 24.2219 94.8397 24.0944 94.8047 23.9569C94.8047 23.9559 94.8042 23.9544 94.8037 23.9534L94.8042 23.9529C94.7227 23.6284 94.6532 23.2489 94.5852 22.8279C94.0662 22.5249 93.4882 22.3089 93.3547 22.3679Z" fill="white"></path><path d="M48.2954 25.8666C48.4729 25.9736 49.4964 25.5811 50.3724 24.7811C50.4509 24.7096 50.5054 24.6531 50.5434 24.6086C50.3809 24.6191 50.0984 24.6706 49.6954 24.8096C49.0734 25.0246 48.6719 25.0601 48.4494 25.0551C48.3504 25.2541 48.2474 25.4646 48.1399 25.6866C48.1399 25.6976 48.1619 25.7731 48.2954 25.8666Z" fill="white"></path><path d="M75.7521 18.9665C75.3481 18.9615 74.9226 18.9565 74.4876 18.9565C72.9931 18.9565 71.1191 19.0135 69.8851 19.4595C68.7646 19.8645 66.8741 20.7745 65.3546 21.506C64.8971 21.726 64.4781 21.928 64.1311 22.0915C64.1461 22.0905 64.1616 22.0895 64.1766 22.089C64.9936 22.0425 66.1846 21.975 67.6651 22.0055C68.0206 22.0135 68.4431 22.0165 68.9136 22.0165C70.8421 22.0165 73.5071 21.9575 75.8826 21.8655L77.1096 18.982C77.0006 18.978 76.8916 18.974 76.7906 18.974C76.4681 18.9745 76.1191 18.9705 75.7521 18.9665Z" fill="white"></path><path d="M76.4343 21.8435C76.6683 21.8335 76.8968 21.8235 77.1223 21.813L78.3133 19.0835C78.0828 19.055 77.8558 19.0305 77.6393 19.0125L76.4343 21.8435Z" fill="white"></path><path d="M85.7783 32.1464C87.6875 32.1464 89.2353 30.5987 89.2353 28.6894C89.2353 26.7802 87.6875 25.2324 85.7783 25.2324C83.869 25.2324 82.3213 26.7802 82.3213 28.6894C82.3213 30.5987 83.869 32.1464 85.7783 32.1464Z" fill="white"></path><path d="M55.959 32.1464C57.8682 32.1464 59.416 30.5987 59.416 28.6894C59.416 26.7802 57.8682 25.2324 55.959 25.2324C54.0497 25.2324 52.502 26.7802 52.502 28.6894C52.502 30.5987 54.0497 32.1464 55.959 32.1464Z" fill="white"></path></g><defs><clipPath id="clip0_6201_96"><rect width="50" height="50" fill="white" transform="translate(46.6426)"></rect></clipPath></defs></svg>