<svg xmlns="http://www.w3.org/2000/svg" width="122" height="59" viewBox="0 0 122 59" fill="none"><path d="M121.726 17.8935V40.5864C121.726 45.2557 119.931 49.4921 116.979 52.666C114.093 55.7916 110.09 57.8761 105.604 58.2722C105.527 58.3014 105.44 58.3014 105.363 58.3014H105.334C105.18 58.3116 105.015 58.3205 104.861 58.3205C104.562 58.3497 104.253 58.3585 103.955 58.3585H40.4199C39.1174 58.3585 37.844 58.2138 36.6278 57.9434C35.6249 57.7314 34.6601 57.4318 33.7333 57.056C27.2206 54.4217 22.6287 48.0347 22.6287 40.5864V35.2696C3.62129 27.8504 0.378906 5.85201 0.378906 5.85201C8.05957 17.3527 17.727 20.6243 22.6287 21.5497V17.8935C22.6287 8.07113 30.5975 0.102295 40.4199 0.102295H103.955C113.777 0.102295 121.727 8.07113 121.727 17.8935H121.726Z" fill="#FD5900"></path><path d="M49.4137 45.3359V36.9849H50.5709L55.6769 43.8208L55.4861 43.9282C55.4304 43.6021 55.3827 43.2243 55.3429 42.7948C55.3111 42.3654 55.2872 41.8921 55.2713 41.3752C55.2554 40.8582 55.2475 40.3094 55.2475 39.7288V36.9849H56.5359V45.3359H55.3548L50.3323 38.7506L50.4635 38.5836C50.5192 39.188 50.5629 39.6851 50.5948 40.0748C50.6266 40.4566 50.6504 40.7628 50.6663 40.9934C50.6822 41.2241 50.6902 41.407 50.6902 41.5422C50.6982 41.6694 50.7021 41.7768 50.7021 41.8643V45.3359H49.4137ZM61.6177 45.4552C61.0053 45.4552 60.4565 45.3161 59.9714 45.0377C59.4942 44.7514 59.1164 44.3656 58.838 43.8805C58.5597 43.3874 58.4205 42.8267 58.4205 42.1983C58.4205 41.57 58.5597 41.0133 58.838 40.5281C59.1164 40.035 59.4942 39.6493 59.9714 39.3709C60.4565 39.0846 61.0053 38.9415 61.6177 38.9415C62.2222 38.9415 62.763 39.0846 63.2402 39.3709C63.7253 39.6493 64.1071 40.035 64.3855 40.5281C64.6638 41.0133 64.803 41.57 64.803 42.1983C64.803 42.8267 64.6638 43.3874 64.3855 43.8805C64.1071 44.3656 63.7253 44.7514 63.2402 45.0377C62.763 45.3161 62.2222 45.4552 61.6177 45.4552ZM61.6177 44.3338C61.9915 44.3338 62.3256 44.2424 62.6198 44.0594C62.9141 43.8685 63.1448 43.614 63.3118 43.2959C63.4788 42.9698 63.5583 42.604 63.5504 42.1983C63.5583 41.7848 63.4788 41.4189 63.3118 41.1008C63.1448 40.7747 62.9141 40.5202 62.6198 40.3373C62.3256 40.1543 61.9915 40.0629 61.6177 40.0629C61.2439 40.0629 60.9059 40.1583 60.6037 40.3492C60.3094 40.5321 60.0787 40.7866 59.9117 41.1127C59.7447 41.4308 59.6652 41.7927 59.6731 42.1983C59.6652 42.604 59.7447 42.9698 59.9117 43.2959C60.0787 43.614 60.3094 43.8685 60.6037 44.0594C60.9059 44.2424 61.2439 44.3338 61.6177 44.3338ZM69.1961 45.4552C68.5837 45.4552 68.0349 45.3161 67.5497 45.0377C67.0725 44.7514 66.6947 44.3656 66.4164 43.8805C66.138 43.3874 65.9988 42.8267 65.9988 42.1983C65.9988 41.57 66.138 41.0133 66.4164 40.5281C66.6947 40.035 67.0725 39.6493 67.5497 39.3709C68.0349 39.0846 68.5837 38.9415 69.1961 38.9415C69.8005 38.9415 70.3413 39.0846 70.8185 39.3709C71.3037 39.6493 71.6855 40.035 71.9638 40.5281C72.2422 41.0133 72.3814 41.57 72.3814 42.1983C72.3814 42.8267 72.2422 43.3874 71.9638 43.8805C71.6855 44.3656 71.3037 44.7514 70.8185 45.0377C70.3413 45.3161 69.8005 45.4552 69.1961 45.4552ZM69.1961 44.3338C69.5699 44.3338 69.9039 44.2424 70.1982 44.0594C70.4925 43.8685 70.7231 43.614 70.8901 43.2959C71.0571 42.9698 71.1367 42.604 71.1287 42.1983C71.1367 41.7848 71.0571 41.4189 70.8901 41.1008C70.7231 40.7747 70.4925 40.5202 70.1982 40.3373C69.9039 40.1543 69.5699 40.0629 69.1961 40.0629C68.8223 40.0629 68.4842 40.1583 68.182 40.3492C67.8877 40.5321 67.6571 40.7866 67.4901 41.1127C67.323 41.4308 67.2435 41.7927 67.2515 42.1983C67.2435 42.604 67.323 42.9698 67.4901 43.2959C67.6571 43.614 67.8877 43.8685 68.182 44.0594C68.4842 44.2424 68.8223 44.3338 69.1961 44.3338ZM76.5716 45.4552C75.999 45.4552 75.486 45.3161 75.0326 45.0377C74.5872 44.7514 74.2333 44.3656 73.9709 43.8805C73.7084 43.3874 73.5772 42.8267 73.5772 42.1983C73.5772 41.57 73.7044 41.0133 73.9589 40.5281C74.2214 40.035 74.5753 39.6493 75.0207 39.3709C75.4661 39.0846 75.9711 38.9415 76.5358 38.9415C76.846 38.9415 77.1442 38.9932 77.4306 39.0965C77.7248 39.192 77.9873 39.3272 78.2179 39.5022C78.4486 39.6692 78.6275 39.8561 78.7548 40.0629C78.89 40.2617 78.9576 40.4645 78.9576 40.6713L78.5997 40.6952V36.5077H79.8285V45.3359H78.5997V43.8447H78.8383C78.8383 44.0356 78.7747 44.2264 78.6474 44.4173C78.5202 44.6003 78.3492 44.7713 78.1344 44.9303C77.9276 45.0894 77.6851 45.2166 77.4067 45.3121C77.1363 45.4075 76.8579 45.4552 76.5716 45.4552ZM76.7386 44.3935C77.1124 44.3935 77.4425 44.298 77.7288 44.1071C78.0151 43.9163 78.2378 43.6578 78.3969 43.3317C78.5639 42.9977 78.6474 42.6199 78.6474 42.1983C78.6474 41.7768 78.5639 41.403 78.3969 41.0769C78.2378 40.7429 78.0151 40.4804 77.7288 40.2895C77.4425 40.0987 77.1124 40.0032 76.7386 40.0032C76.3648 40.0032 76.0347 40.0987 75.7484 40.2895C75.4621 40.4804 75.2354 40.7429 75.0684 41.0769C74.9094 41.403 74.8298 41.7768 74.8298 42.1983C74.8298 42.6199 74.9094 42.9977 75.0684 43.3317C75.2354 43.6578 75.4621 43.9163 75.7484 44.1071C76.0347 44.298 76.3648 44.3935 76.7386 44.3935ZM81.7825 45.3359V36.5077H83.0113V45.3359H81.7825ZM87.7977 45.4552C87.1535 45.4552 86.5809 45.32 86.0798 45.0496C85.5867 44.7713 85.197 44.3935 84.9107 43.9163C84.6323 43.4391 84.4931 42.8903 84.4931 42.2699C84.4931 41.7768 84.5727 41.3275 84.7317 40.9218C84.8908 40.5162 85.1095 40.1663 85.3879 39.872C85.6742 39.5698 86.0122 39.3391 86.4019 39.1801C86.7996 39.013 87.2291 38.9295 87.6904 38.9295C88.096 38.9295 88.4738 39.0091 88.8237 39.1681C89.1737 39.3192 89.4759 39.53 89.7304 39.8004C89.9929 40.0708 90.1917 40.3929 90.3269 40.7667C90.4701 41.1326 90.5377 41.5342 90.5297 41.9717L90.5178 42.4966H85.3998L85.1254 41.5183H89.456L89.2771 41.7211V41.4348C89.2532 41.1724 89.1657 40.9377 89.0146 40.731C88.8635 40.5242 88.6726 40.3611 88.442 40.2418C88.2113 40.1225 87.9608 40.0629 87.6904 40.0629C87.2609 40.0629 86.899 40.1464 86.6047 40.3134C86.3105 40.4725 86.0878 40.7111 85.9367 41.0292C85.7855 41.3394 85.71 41.7251 85.71 42.1864C85.71 42.6238 85.8014 43.0056 85.9844 43.3317C86.1673 43.6498 86.4258 43.8964 86.7598 44.0714C87.0939 44.2463 87.4796 44.3338 87.917 44.3338C88.2272 44.3338 88.5135 44.2821 88.776 44.1787C89.0464 44.0753 89.3367 43.8884 89.6469 43.618L90.2672 44.4889C90.0764 44.6798 89.8417 44.8468 89.5634 44.99C89.293 45.1331 89.0027 45.2485 88.6925 45.3359C88.3903 45.4155 88.092 45.4552 87.7977 45.4552ZM94.1915 45.4552C93.6665 45.4552 93.1933 45.3638 92.7718 45.1808C92.3503 44.9979 92.0003 44.7275 91.722 44.3696L92.5571 43.6538C92.7957 43.9322 93.0541 44.135 93.3325 44.2622C93.6188 44.3815 93.9409 44.4412 94.2988 44.4412C94.442 44.4412 94.5732 44.4253 94.6925 44.3935C94.8198 44.3537 94.9272 44.298 95.0146 44.2264C95.1101 44.1549 95.1817 44.0714 95.2294 43.9759C95.2771 43.8725 95.301 43.7612 95.301 43.6419C95.301 43.4351 95.2254 43.2681 95.0743 43.1408C94.9948 43.0851 94.8675 43.0255 94.6925 42.9619C94.5255 42.8903 94.3068 42.8187 94.0364 42.7471C93.5751 42.6278 93.1973 42.4926 92.903 42.3415C92.6088 42.1904 92.3821 42.0194 92.223 41.8285C92.1037 41.6774 92.0162 41.5144 91.9606 41.3394C91.9049 41.1565 91.877 40.9576 91.877 40.7429C91.877 40.3929 91.9765 40.0828 92.1753 39.8123C92.3741 39.5419 92.6406 39.3312 92.9746 39.1801C93.3166 39.021 93.6984 38.9415 94.1199 38.9415C94.4142 38.9415 94.7045 38.9812 94.9908 39.0608C95.2851 39.1403 95.5555 39.2556 95.802 39.4067C96.0486 39.5578 96.2554 39.7368 96.4224 39.9436L95.7185 40.719C95.5674 40.5679 95.4004 40.4367 95.2175 40.3253C95.0425 40.206 94.8635 40.1146 94.6806 40.0509C94.4977 39.9873 94.3307 39.9555 94.1795 39.9555C94.0125 39.9555 93.8614 39.9714 93.7262 40.0032C93.591 40.035 93.4757 40.0828 93.3802 40.1464C93.2927 40.21 93.2251 40.2895 93.1774 40.385C93.1297 40.4804 93.1058 40.5878 93.1058 40.7071C93.1138 40.8105 93.1377 40.9099 93.1774 41.0053C93.2251 41.0928 93.2888 41.1684 93.3683 41.232C93.4558 41.2956 93.587 41.3632 93.762 41.4348C93.937 41.5064 94.1597 41.574 94.4301 41.6376C94.8277 41.741 95.1538 41.8564 95.4083 41.9836C95.6708 42.1029 95.8776 42.2421 96.0287 42.4012C96.1878 42.5523 96.2991 42.7272 96.3627 42.9261C96.4264 43.1249 96.4582 43.3476 96.4582 43.5942C96.4582 43.9521 96.3548 44.2742 96.148 44.5605C95.9492 44.8389 95.6787 45.0576 95.3368 45.2166C94.9948 45.3757 94.613 45.4552 94.1915 45.4552Z" fill="white"></path><g clip-path="url(#clip0_6201_210)"><path d="M69.1637 16.6126L69.0206 16.4695C66.2941 16.8229 64.8223 17.6202 64.8223 18.2104C64.828 18.3041 64.8603 18.3942 64.9153 18.4702C65.7122 17.9813 67.1815 17.5962 69.017 17.3984L69.1637 17.2517C69.2484 17.167 69.296 17.052 69.296 16.9322C69.296 16.8124 69.2484 16.6974 69.1637 16.6126Z" fill="white"></path><path d="M78.2845 18.9157C77.4664 18.485 75.9725 18.1472 74.1565 17.989C74.1152 18.0557 74.092 18.1321 74.0894 18.2105C74.0897 18.3302 74.1372 18.445 74.2217 18.53L74.4089 18.7173C74.5106 18.8183 74.5912 18.9385 74.646 19.0709C74.7009 19.2034 74.7289 19.3454 74.7285 19.4887V19.9479C76.394 19.7271 77.6124 19.3308 78.2845 18.9157Z" fill="white"></path><path d="M64.8223 19.2812V19.8082C64.8223 21.6727 65.5629 23.4609 66.8814 24.7793C68.1998 26.0977 69.9879 26.8384 71.8524 26.8384C73.717 26.8384 75.5051 26.0977 76.8235 24.7793C78.142 23.4609 78.8826 21.6727 78.8826 19.8082V19.2812C77.6172 20.2524 74.6687 20.7669 71.8524 20.7669C69.0362 20.7669 66.0877 20.2524 64.8223 19.2812Z" fill="white"></path><path d="M74.6178 16.4612C74.6897 16.6055 74.7276 16.7644 74.7287 16.9256C74.7297 17.0868 74.6939 17.2462 74.6239 17.3914C76.4958 17.587 77.9792 17.9704 78.7902 18.4696C78.845 18.3937 78.8771 18.3038 78.8829 18.2104C78.8829 17.5831 77.3014 16.7996 74.6178 16.4612Z" fill="white"></path><path d="M65.4214 18.9166C66.1356 19.3572 67.4697 19.7762 69.296 19.9851V19.4886C69.2956 19.3688 69.2481 19.254 69.1637 19.169L68.9764 18.9817C68.8748 18.8807 68.7942 18.7605 68.7393 18.6281C68.6845 18.4957 68.6564 18.3537 68.6569 18.2103C68.6584 18.1675 68.6626 18.1248 68.6693 18.0825C67.549 18.1847 66.4524 18.4664 65.4214 18.9166Z" fill="white"></path><path d="M69.6156 27.1438V28.1165H74.0894V27.1438C72.6313 27.5886 71.0737 27.5886 69.6156 27.1438Z" fill="white"></path><path d="M65.4614 15.1129C65.4614 15.1832 65.4752 15.2527 65.5021 15.3175C65.529 15.3824 65.5683 15.4413 65.618 15.491L65.6244 15.4974C65.6913 15.5642 65.7748 15.6122 65.8664 15.6362C65.9579 15.6603 66.0541 15.6597 66.1453 15.6344C66.2365 15.6091 66.3194 15.5601 66.3854 15.4924C66.4515 15.4246 66.4984 15.3406 66.5214 15.2488L66.7396 14.3757L65.8666 14.594C65.7509 14.6229 65.6481 14.6897 65.5747 14.7837C65.5013 14.8778 65.4614 14.9936 65.4614 15.1129Z" fill="white"></path><path d="M65.7808 13.0977L65.5625 12.2247C65.5396 12.1329 65.4927 12.0488 65.4266 11.9811C65.3605 11.9133 65.2777 11.8643 65.1865 11.839C65.0953 11.8137 64.999 11.8131 64.9075 11.8372C64.816 11.8613 64.7325 11.9092 64.6656 11.9761L64.6592 11.9824C64.5923 12.0494 64.5444 12.1329 64.5203 12.2244C64.4962 12.3159 64.4968 12.4122 64.5221 12.5034C64.5474 12.5946 64.5964 12.6774 64.6642 12.7435C64.7319 12.8096 64.816 12.8565 64.9078 12.8794L65.7808 13.0977Z" fill="white"></path><path d="M77.7183 15.6539C77.7885 15.654 77.858 15.6402 77.9229 15.6133C77.9878 15.5865 78.0467 15.5471 78.0963 15.4974L78.1027 15.491C78.1696 15.424 78.2175 15.3406 78.2416 15.2491C78.2657 15.1576 78.2651 15.0613 78.2399 14.9702C78.2146 14.879 78.1656 14.7961 78.0979 14.73C78.0302 14.6639 77.9462 14.617 77.8544 14.594L76.9811 14.3757L77.1993 15.2488C77.2283 15.3645 77.2951 15.4672 77.3891 15.5406C77.4832 15.614 77.599 15.6539 77.7183 15.6539Z" fill="white"></path><path d="M79.0392 11.9761C78.9722 11.9092 78.8888 11.8613 78.7972 11.8372C78.7057 11.8131 78.6095 11.8137 78.5183 11.839C78.4271 11.8643 78.3442 11.9133 78.2782 11.9811C78.2121 12.0488 78.1652 12.1329 78.1422 12.2247L77.924 13.0977L78.797 12.8794C78.8888 12.8565 78.9728 12.8096 79.0406 12.7435C79.1083 12.6774 79.1574 12.5946 79.1826 12.5034C79.2079 12.4122 79.2085 12.3159 79.1845 12.2244C79.1604 12.1329 79.1125 12.0494 79.0456 11.9824L79.0392 11.9761Z" fill="white"></path><path d="M81.439 9.58247V8.94336H67.3787V9.58247H69.7478L69.4283 9.90202C69.3439 9.98699 69.2963 10.1018 69.296 10.2216H67.3787V10.8607H69.4283L69.6155 11.0479C69.8201 11.2525 69.9351 11.53 69.9351 11.8193C69.9351 12.1087 69.8201 12.3862 69.6155 12.5907L69.4283 12.778C69.3436 12.8628 69.296 12.9777 69.296 13.0976C69.296 13.2174 69.3436 13.3323 69.4283 13.4171L69.6155 13.6044C69.8201 13.809 69.9351 14.0864 69.9351 14.3758C69.9351 14.6651 69.8201 14.9426 69.6155 15.1472L69.4283 15.3344C69.3436 15.4192 69.296 15.5342 69.296 15.654C69.296 15.7738 69.3436 15.8888 69.4283 15.9735L69.6155 16.1608C69.8201 16.3654 69.9351 16.6429 69.9351 16.9322C69.9351 17.2215 69.8201 17.499 69.6155 17.7036L69.4283 17.8909C69.3436 17.9756 69.296 18.0906 69.296 18.2104C69.296 18.3303 69.3436 18.4452 69.4283 18.53L69.6155 18.7172C69.7172 18.8183 69.7978 18.9385 69.8526 19.0709C69.9075 19.2033 69.9355 19.3453 69.9351 19.4886V20.0482C70.2435 20.0737 70.5617 20.0942 70.8938 20.107V19.4886C70.8934 19.3689 70.8459 19.2541 70.7615 19.1691L70.5742 18.9818C70.3696 18.7772 70.2547 18.4997 70.2547 18.2104C70.2547 17.9211 70.3696 17.6436 70.5742 17.439L70.7615 17.2518C70.8461 17.167 70.8937 17.052 70.8937 16.9322C70.8937 16.8124 70.8461 16.6974 70.7615 16.6126L70.5742 16.4254C70.3696 16.2208 70.2547 15.9433 70.2547 15.654C70.2547 15.3647 70.3696 15.0872 70.5742 14.8826L70.7615 14.6953C70.8461 14.6105 70.8937 14.4956 70.8937 14.3758C70.8937 14.2559 70.8461 14.141 70.7615 14.0562L70.5742 13.869C70.3696 13.6644 70.2547 13.3869 70.2547 13.0976C70.2547 12.8082 70.3696 12.5307 70.5742 12.3262L70.7615 12.1389C70.8461 12.0541 70.8937 11.9392 70.8937 11.8193C70.8937 11.6995 70.8461 11.5846 70.7615 11.4998L70.5742 11.3125C70.4495 11.1861 70.3578 11.0309 70.3074 10.8607H71.026L71.2133 11.0479C71.4179 11.2525 71.5328 11.53 71.5328 11.8193C71.5328 12.1087 71.4179 12.3862 71.2133 12.5907L71.026 12.778C70.9414 12.8628 70.8938 12.9777 70.8938 13.0976C70.8938 13.2174 70.9414 13.3323 71.026 13.4171L71.2133 13.6044C71.4179 13.809 71.5328 14.0864 71.5328 14.3758C71.5328 14.6651 71.4179 14.9426 71.2133 15.1472L71.026 15.3344C70.9414 15.4192 70.8938 15.5342 70.8938 15.654C70.8938 15.7738 70.9414 15.8888 71.026 15.9735L71.2133 16.1608C71.4179 16.3654 71.5328 16.6429 71.5328 16.9322C71.5328 17.2215 71.4179 17.499 71.2133 17.7036L71.026 17.8909C70.9414 17.9756 70.8938 18.0906 70.8938 18.2104C70.8938 18.3303 70.9414 18.4452 71.026 18.53L71.2133 18.7172C71.315 18.8183 71.3956 18.9385 71.4504 19.0709C71.5053 19.2033 71.5333 19.3453 71.5329 19.4886V20.1226C71.6399 20.1226 71.7431 20.1277 71.8524 20.1277C72.0707 20.1277 72.2819 20.1229 72.4915 20.1175V19.4886C72.4912 19.3689 72.4436 19.2541 72.3592 19.1691L72.172 18.9818C71.9674 18.7772 71.8525 18.4997 71.8525 18.2104C71.8525 17.9211 71.9674 17.6436 72.172 17.439L72.3592 17.2518C72.4439 17.167 72.4915 17.052 72.4915 16.9322C72.4915 16.8124 72.4439 16.6974 72.3592 16.6126L72.172 16.4254C71.9674 16.2208 71.8525 15.9433 71.8525 15.654C71.8525 15.3647 71.9674 15.0872 72.172 14.8826L72.3592 14.6953C72.4439 14.6105 72.4915 14.4956 72.4915 14.3758C72.4915 14.2559 72.4439 14.141 72.3592 14.0562L72.172 13.869C71.9674 13.6644 71.8525 13.3869 71.8525 13.0976C71.8525 12.8082 71.9674 12.5307 72.172 12.3262L72.3592 12.1389C72.4439 12.0541 72.4915 11.9392 72.4915 11.8193C72.4915 11.6995 72.4439 11.5846 72.3592 11.4998L72.172 11.3125C72.0472 11.1861 71.9556 11.0309 71.9051 10.8607H72.6238L72.8111 11.0479C73.0157 11.2525 73.1306 11.53 73.1306 11.8193C73.1306 12.1087 73.0157 12.3862 72.8111 12.5907L72.6238 12.778C72.5391 12.8628 72.4916 12.9777 72.4916 13.0976C72.4916 13.2174 72.5391 13.3323 72.6238 13.4171L72.8111 13.6044C73.0157 13.809 73.1306 14.0864 73.1306 14.3758C73.1306 14.6651 73.0157 14.9426 72.8111 15.1472L72.6238 15.3344C72.5391 15.4192 72.4916 15.5342 72.4916 15.654C72.4916 15.7738 72.5391 15.8888 72.6238 15.9735L72.8111 16.1608C73.0157 16.3654 73.1306 16.6429 73.1306 16.9322C73.1306 17.2215 73.0157 17.499 72.8111 17.7036L72.6238 17.8909C72.5391 17.9756 72.4916 18.0906 72.4916 18.2104C72.4916 18.3303 72.5391 18.4452 72.6238 18.53L72.8111 18.7172C72.9127 18.8183 72.9933 18.9385 73.0482 19.0709C73.103 19.2033 73.1311 19.3453 73.1306 19.4886V20.0916C73.4614 20.0741 73.7835 20.052 74.0893 20.022V19.4886C74.0889 19.3689 74.0414 19.2541 73.957 19.1691L73.7697 18.9818C73.5652 18.7772 73.4502 18.4997 73.4502 18.2104C73.4502 17.9211 73.5652 17.6436 73.7697 17.439L73.957 17.2518C74.0417 17.167 74.0893 17.052 74.0893 16.9322C74.0893 16.8124 74.0417 16.6974 73.957 16.6126L73.7697 16.4254C73.5652 16.2208 73.4502 15.9433 73.4502 15.654C73.4502 15.3647 73.5652 15.0872 73.7697 14.8826L73.957 14.6953C74.0417 14.6105 74.0893 14.4956 74.0893 14.3758C74.0893 14.2559 74.0417 14.141 73.957 14.0562L73.7697 13.869C73.5652 13.6644 73.4502 13.3869 73.4502 13.0976C73.4502 12.8082 73.5652 12.5307 73.7697 12.3262L73.957 12.1389C74.0417 12.0541 74.0893 11.9392 74.0893 11.8193C74.0893 11.6995 74.0417 11.5846 73.957 11.4998L73.7697 11.3125C73.645 11.1861 73.5534 11.0309 73.5029 10.8607H81.439V10.2216H73.4502C73.4506 9.99155 73.5243 9.76765 73.6608 9.58247H81.439ZM70.2546 10.2216C70.255 9.99155 70.3288 9.76765 70.4652 9.58247H71.3456L71.026 9.90202C70.9416 9.98699 70.8941 10.1018 70.8938 10.2216H70.2546ZM72.6238 9.90202C72.5394 9.98699 72.4919 10.1018 72.4915 10.2216H71.8524C71.8528 9.99155 71.9266 9.76765 72.063 9.58247H72.9434L72.6238 9.90202Z" fill="white"></path></g><defs><clipPath id="clip0_6201_210"><rect width="20.4514" height="20.4514" fill="white" transform="translate(62.5854 8.62378)"></rect></clipPath></defs></svg>