<svg xmlns="http://www.w3.org/2000/svg" width="96" height="73" viewBox="0 0 96 73" fill="none"><path d="M0.677734 16.8726V38.4144C0.677734 47.7344 8.27397 55.287 17.6453 55.287H24.6559C23.38 67.3967 14.3487 72.1404 13.7812 72.4322C18.8734 71.3794 23.106 69.6233 26.5925 67.5844C28.935 66.2218 30.9387 64.719 32.6297 63.2252C36.0207 60.2376 38.1938 57.2602 39.4219 55.287H78.2981C87.6694 55.287 95.2656 47.7333 95.2656 38.4144V16.8726C95.2656 7.55374 87.6694 0 78.2981 0H17.6453C8.27397 0 0.677734 7.55374 0.677734 16.8726Z" fill="#FD5900"></path><path d="M16.3647 45.2336V36.8826H21.6258V38.1234H17.6532V43.9929H21.6258V45.2336H16.3647ZM16.9493 41.5711V40.3304H20.9697V41.5711H16.9493ZM23.6451 45.2336V36.4054H24.8739V45.2336H23.6451ZM29.6603 45.3529C29.0161 45.3529 28.4435 45.2177 27.9424 44.9473C27.4493 44.669 27.0596 44.2912 26.7733 43.814C26.4949 43.3368 26.3557 42.788 26.3557 42.1676C26.3557 41.6745 26.4353 41.2252 26.5943 40.8195C26.7534 40.4139 26.9721 40.064 27.2505 39.7697C27.5368 39.4675 27.8748 39.2368 28.2645 39.0778C28.6622 38.9107 29.0917 38.8272 29.553 38.8272C29.9586 38.8272 30.3364 38.9068 30.6863 39.0658C31.0363 39.2169 31.3385 39.4277 31.593 39.6981C31.8555 39.9685 32.0543 40.2906 32.1895 40.6645C32.3327 41.0303 32.4003 41.4319 32.3923 41.8694L32.3804 42.3943H27.2624L26.988 41.416H31.3186L31.1397 41.6189V41.3325C31.1158 41.0701 31.0283 40.8354 30.8772 40.6287C30.7261 40.4219 30.5352 40.2588 30.3046 40.1395C30.0739 40.0202 29.8234 39.9606 29.553 39.9606C29.1235 39.9606 28.7616 40.0441 28.4673 40.2111C28.1731 40.3702 27.9504 40.6088 27.7993 40.9269C27.6481 41.2371 27.5726 41.6228 27.5726 42.0841C27.5726 42.5216 27.664 42.9033 27.847 43.2294C28.0299 43.5475 28.2884 43.7941 28.6224 43.9691C28.9565 44.144 29.3422 44.2315 29.7796 44.2315C30.0898 44.2315 30.3761 44.1798 30.6386 44.0764C30.909 43.973 31.1993 43.7861 31.5095 43.5157L32.1298 44.3866C31.939 44.5775 31.7043 44.7445 31.426 44.8877C31.1556 45.0308 30.8653 45.1462 30.5551 45.2336C30.2529 45.3132 29.9546 45.3529 29.6603 45.3529ZM36.6267 45.3529C36.0461 45.3529 35.5252 45.2098 35.0639 44.9235C34.6105 44.6371 34.2487 44.2474 33.9782 43.7543C33.7158 43.2612 33.5846 42.7085 33.5846 42.0961C33.5846 41.4836 33.7158 40.9309 33.9782 40.4378C34.2487 39.9447 34.6105 39.555 35.0639 39.2686C35.5252 38.9823 36.0461 38.8392 36.6267 38.8392C37.1834 38.8392 37.6885 38.9545 38.1418 39.1851C38.6031 39.4078 38.9531 39.714 39.1917 40.1037L38.5117 40.9388C38.3844 40.7559 38.2214 40.5889 38.0225 40.4378C37.8237 40.2867 37.6129 40.1674 37.3902 40.0799C37.1675 39.9924 36.9528 39.9487 36.746 39.9487C36.3643 39.9487 36.0223 40.0441 35.72 40.235C35.4258 40.4179 35.1911 40.6724 35.0162 40.9985C34.8412 41.3246 34.7537 41.6904 34.7537 42.0961C34.7537 42.5017 34.8452 42.8675 35.0281 43.1936C35.211 43.5117 35.4536 43.7663 35.7558 43.9571C36.058 44.148 36.3921 44.2435 36.7579 44.2435C36.9727 44.2435 37.1795 44.2077 37.3783 44.1361C37.5851 44.0645 37.7839 43.9571 37.9748 43.814C38.1657 43.6708 38.3446 43.4958 38.5117 43.2891L39.1917 44.1242C38.9372 44.4821 38.5713 44.7763 38.0941 45.007C37.6249 45.2376 37.1357 45.3529 36.6267 45.3529ZM41.3648 45.2336V37.3718H42.5936V45.2336H41.3648ZM40.0644 40.1634V38.9704H44.049V40.1634H40.0644ZM45.4065 45.2336V38.9704H46.6473V40.9388L46.528 40.4616C46.6155 40.1594 46.7626 39.885 46.9694 39.6385C47.1841 39.3919 47.4267 39.1971 47.6971 39.0539C47.9755 38.9107 48.2618 38.8392 48.5561 38.8392C48.6913 38.8392 48.8185 38.8511 48.9378 38.8749C49.0651 38.8988 49.1645 38.9266 49.2361 38.9585L48.914 40.2946C48.8185 40.2549 48.7112 40.223 48.5919 40.1992C48.4805 40.1674 48.3692 40.1515 48.2578 40.1515C48.0431 40.1515 47.8363 40.1952 47.6375 40.2827C47.4466 40.3622 47.2756 40.4775 47.1245 40.6287C46.9813 40.7718 46.866 40.9428 46.7785 41.1417C46.691 41.3325 46.6473 41.5433 46.6473 41.7739V45.2336H45.4065ZM53.0043 45.3529C52.3919 45.3529 51.8431 45.2138 51.3579 44.9354C50.8807 44.6491 50.503 44.2633 50.2246 43.7782C49.9462 43.2851 49.807 42.7244 49.807 42.0961C49.807 41.4677 49.9462 40.911 50.2246 40.4259C50.503 39.9327 50.8807 39.547 51.3579 39.2686C51.8431 38.9823 52.3919 38.8392 53.0043 38.8392C53.6087 38.8392 54.1496 38.9823 54.6268 39.2686C55.1119 39.547 55.4937 39.9327 55.772 40.4259C56.0504 40.911 56.1896 41.4677 56.1896 42.0961C56.1896 42.7244 56.0504 43.2851 55.772 43.7782C55.4937 44.2633 55.1119 44.6491 54.6268 44.9354C54.1496 45.2138 53.6087 45.3529 53.0043 45.3529ZM53.0043 44.2315C53.3781 44.2315 53.7121 44.1401 54.0064 43.9571C54.3007 43.7663 54.5313 43.5117 54.6983 43.1936C54.8654 42.8675 54.9449 42.5017 54.9369 42.0961C54.9449 41.6825 54.8654 41.3166 54.6983 40.9985C54.5313 40.6724 54.3007 40.4179 54.0064 40.235C53.7121 40.052 53.3781 39.9606 53.0043 39.9606C52.6305 39.9606 52.2925 40.056 51.9902 40.2469C51.696 40.4298 51.4653 40.6843 51.2983 41.0104C51.1313 41.3286 51.0517 41.6904 51.0597 42.0961C51.0517 42.5017 51.1313 42.8675 51.2983 43.1936C51.4653 43.5117 51.696 43.7663 51.9902 43.9571C52.2925 44.1401 52.6305 44.2315 53.0043 44.2315ZM57.7671 45.2336V38.9704H58.9959V40.2588L58.7812 40.402C58.8607 40.1236 59.0158 39.8691 59.2465 39.6385C59.4771 39.3999 59.7515 39.209 60.0696 39.0658C60.3878 38.9147 60.7139 38.8392 61.0479 38.8392C61.5251 38.8392 61.9228 38.9346 62.2409 39.1255C62.559 39.3084 62.7976 39.5907 62.9567 39.9725C63.1158 40.3543 63.1953 40.8354 63.1953 41.416V45.2336H61.9665V41.4996C61.9665 41.1417 61.9188 40.8474 61.8234 40.6167C61.7279 40.3781 61.5808 40.2071 61.3819 40.1037C61.1831 39.9924 60.9366 39.9447 60.6423 39.9606C60.4037 39.9606 60.185 40.0003 59.9861 40.0799C59.7873 40.1515 59.6123 40.2549 59.4612 40.3901C59.318 40.5253 59.2027 40.6843 59.1152 40.8673C59.0357 41.0422 58.9959 41.2331 58.9959 41.4399V45.2336H58.3875C58.2841 45.2336 58.1807 45.2336 58.0773 45.2336C57.9739 45.2336 57.8705 45.2336 57.7671 45.2336ZM65.3036 45.2336V38.9704H66.5324V45.2336H65.3036ZM65.9001 37.5865C65.6377 37.5865 65.4349 37.5189 65.2917 37.3837C65.1486 37.2485 65.077 37.0576 65.077 36.8111C65.077 36.5804 65.1486 36.3935 65.2917 36.2503C65.4428 36.1072 65.6456 36.0356 65.9001 36.0356C66.1626 36.0356 66.3654 36.1032 66.5086 36.2384C66.6517 36.3736 66.7233 36.5645 66.7233 36.8111C66.7233 37.0417 66.6478 37.2286 66.4966 37.3718C66.3535 37.5149 66.1547 37.5865 65.9001 37.5865ZM71.3202 45.3529C70.7396 45.3529 70.2187 45.2098 69.7574 44.9235C69.304 44.6371 68.9421 44.2474 68.6717 43.7543C68.4093 43.2612 68.278 42.7085 68.278 42.0961C68.278 41.4836 68.4093 40.9309 68.6717 40.4378C68.9421 39.9447 69.304 39.555 69.7574 39.2686C70.2187 38.9823 70.7396 38.8392 71.3202 38.8392C71.8769 38.8392 72.382 38.9545 72.8353 39.1851C73.2966 39.4078 73.6465 39.714 73.8851 40.1037L73.2051 40.9388C73.0779 40.7559 72.9148 40.5889 72.716 40.4378C72.5172 40.2867 72.3064 40.1674 72.0837 40.0799C71.861 39.9924 71.6463 39.9487 71.4395 39.9487C71.0577 39.9487 70.7157 40.0441 70.4135 40.235C70.1192 40.4179 69.8846 40.6724 69.7096 40.9985C69.5347 41.3246 69.4472 41.6904 69.4472 42.0961C69.4472 42.5017 69.5386 42.8675 69.7216 43.1936C69.9045 43.5117 70.1471 43.7663 70.4493 43.9571C70.7515 44.148 71.0856 44.2435 71.4514 44.2435C71.6662 44.2435 71.8729 44.2077 72.0718 44.1361C72.2786 44.0645 72.4774 43.9571 72.6683 43.814C72.8592 43.6708 73.0381 43.4958 73.2051 43.2891L73.8851 44.1242C73.6306 44.4821 73.2648 44.7763 72.7876 45.007C72.3183 45.2376 71.8292 45.3529 71.3202 45.3529ZM77.3706 45.3529C76.8456 45.3529 76.3724 45.2615 75.9509 45.0786C75.5294 44.8956 75.1794 44.6252 74.9011 44.2673L75.7362 43.5515C75.9748 43.8299 76.2332 44.0327 76.5116 44.1599C76.7979 44.2792 77.12 44.3389 77.4779 44.3389C77.6211 44.3389 77.7523 44.323 77.8716 44.2912C77.9989 44.2514 78.1062 44.1957 78.1937 44.1242C78.2892 44.0526 78.3608 43.9691 78.4085 43.8736C78.4562 43.7702 78.4801 43.6589 78.4801 43.5396C78.4801 43.3328 78.4045 43.1658 78.2534 43.0385C78.1739 42.9828 78.0466 42.9232 77.8716 42.8596C77.7046 42.788 77.4859 42.7164 77.2155 42.6448C76.7542 42.5255 76.3764 42.3903 76.0821 42.2392C75.7879 42.0881 75.5612 41.9171 75.4021 41.7262C75.2828 41.5751 75.1953 41.4121 75.1397 41.2371C75.084 41.0542 75.0561 40.8553 75.0561 40.6406C75.0561 40.2906 75.1556 39.9805 75.3544 39.71C75.5532 39.4396 75.8197 39.2289 76.1537 39.0778C76.4957 38.9187 76.8775 38.8392 77.299 38.8392C77.5933 38.8392 77.8836 38.8789 78.1699 38.9585C78.4642 39.038 78.7346 39.1533 78.9811 39.3044C79.2277 39.4555 79.4345 39.6345 79.6015 39.8413L78.8976 40.6167C78.7465 40.4656 78.5795 40.3344 78.3965 40.223C78.2216 40.1037 78.0426 40.0123 77.8597 39.9487C77.6768 39.885 77.5097 39.8532 77.3586 39.8532C77.1916 39.8532 77.0405 39.8691 76.9053 39.9009C76.7701 39.9327 76.6548 39.9805 76.5593 40.0441C76.4718 40.1077 76.4042 40.1873 76.3565 40.2827C76.3088 40.3781 76.2849 40.4855 76.2849 40.6048C76.2929 40.7082 76.3167 40.8076 76.3565 40.9031C76.4042 40.9905 76.4679 41.0661 76.5474 41.1297C76.6349 41.1933 76.7661 41.261 76.9411 41.3325C77.1161 41.4041 77.3388 41.4717 77.6092 41.5353C78.0068 41.6387 78.3329 41.7541 78.5874 41.8813C78.8499 42.0006 79.0567 42.1398 79.2078 42.2989C79.3669 42.45 79.4782 42.6249 79.5418 42.8238C79.6055 43.0226 79.6373 43.2453 79.6373 43.4919C79.6373 43.8498 79.5339 44.1719 79.3271 44.4582C79.1283 44.7366 78.8578 44.9553 78.5158 45.1143C78.1739 45.2734 77.7921 45.3529 77.3706 45.3529Z" fill="white"></path><g clip-path="url(#clip0_6201_111)"><path fill-rule="evenodd" clip-rule="evenodd" d="M41.8004 20.0155C41.5582 20.0381 41.3254 20.1203 41.1226 20.2547C40.5848 19.9021 39.8892 19.933 39.4575 20.364C39.2038 20.6178 39.0613 20.962 39.0613 21.3208C39.0613 21.6797 39.2038 22.0238 39.4575 22.2776L40.8755 23.6943C40.9079 23.727 40.9464 23.7529 40.9888 23.7706C41.0313 23.7883 41.0768 23.7974 41.1228 23.7974C41.1688 23.7974 41.2143 23.7883 41.2568 23.7706C41.2992 23.7529 41.3377 23.727 41.3701 23.6943L42.7867 22.2776C42.9124 22.1546 43.0123 22.0077 43.0804 21.8455C43.1486 21.6833 43.1837 21.5091 43.1836 21.3332C43.1847 21.1536 43.1503 20.9755 43.0825 20.8092C43.0146 20.6428 42.9146 20.4916 42.7881 20.364C42.6595 20.2364 42.5043 20.139 42.3335 20.0787C42.1627 20.0185 41.9806 19.9969 41.8004 20.0155ZM42.2967 21.7786C42.2956 21.7807 42.2946 21.7807 42.2936 21.7826L41.1228 22.9519L39.952 21.7827C39.8295 21.6602 39.7607 21.494 39.7607 21.3208C39.7607 21.1476 39.8295 20.9814 39.952 20.8589C40.0006 20.8103 40.0585 20.7721 40.1223 20.7466C40.1861 20.721 40.2545 20.7087 40.3232 20.7104C40.5315 20.7165 40.7294 20.803 40.8755 20.9517C40.9412 21.0171 41.0301 21.0538 41.1228 21.0538C41.2155 21.0538 41.3044 21.0171 41.3701 20.9517C41.5021 20.8177 41.6762 20.7333 41.8632 20.7125C41.9413 20.7033 42.0205 20.7117 42.095 20.737C42.1694 20.7623 42.2373 20.804 42.2936 20.8589C42.3548 20.9209 42.4031 20.9943 42.4358 21.075C42.4685 21.1557 42.4849 21.2421 42.4841 21.3291C42.4846 21.4128 42.4682 21.4957 42.436 21.5729C42.4038 21.6501 42.3564 21.7201 42.2967 21.7787V21.7786ZM40.6575 9.97705H55.3065C55.3685 9.97705 55.4299 9.98927 55.4871 10.013C55.5444 10.0368 55.5964 10.0716 55.6401 10.1154C55.6839 10.1593 55.7186 10.2113 55.7423 10.2686C55.7659 10.3259 55.778 10.3873 55.7779 10.4493V15.5901H53.0332C52.7811 15.5904 52.5395 15.6907 52.3612 15.8689C52.183 16.0471 52.0827 16.2887 52.0823 16.5408V20.1165H44.4227V19.6814C44.4228 19.5129 44.3833 19.3467 44.3074 19.1962C44.2314 19.0458 44.1212 18.9152 43.9856 18.8152L43.1895 15.953C43.1612 15.8483 43.099 15.7559 43.0126 15.6903C42.9263 15.6246 42.8206 15.5894 42.7122 15.5901H40.1861V10.4493C40.186 10.3873 40.1981 10.3259 40.2218 10.2686C40.2454 10.2113 40.2801 10.1593 40.3239 10.1154C40.3677 10.0716 40.4197 10.0368 40.4769 10.013C40.5341 9.98927 40.5956 9.97705 40.6575 9.97705ZM46.2286 20.8156H49.7357V21.1559H46.2286V20.8156ZM38.9005 24.5048C38.8 24.5044 38.7037 24.4643 38.6327 24.3932C38.5617 24.3221 38.5218 24.2258 38.5216 24.1253V19.6814C38.5218 19.5809 38.5617 19.4846 38.6327 19.4135C38.7037 19.3424 38.8 19.3023 38.9005 19.3019H43.3447C43.4451 19.3023 43.5414 19.3424 43.6123 19.4135C43.6833 19.4846 43.7232 19.581 43.7234 19.6814V24.1253C43.7232 24.2258 43.6833 24.3221 43.6123 24.3932C43.5414 24.4643 43.4451 24.5044 43.3447 24.5048L38.9005 24.5048ZM39.6878 16.2892L39.0442 18.6029H43.2009L42.5574 16.2892H39.6878ZM38.4522 22.7026H38.5216V21.1063H38.4522C38.3786 21.1067 38.3081 21.1359 38.2558 21.1876C38.2034 21.2392 38.1733 21.3093 38.1719 21.3828V22.4222C38.1731 22.4961 38.2031 22.5667 38.2554 22.619C38.3076 22.6714 38.3782 22.7013 38.4522 22.7027V22.7026ZM42.5572 27.5175H39.6878L39.0442 25.2038H43.2009L42.5573 27.5175H42.5572ZM44.4226 22.3457H52.0823V20.8156H50.4351V21.294C50.4348 21.4428 50.3756 21.5855 50.2703 21.6906C50.1649 21.7958 50.0222 21.8549 49.8734 21.8549H46.0907C45.9419 21.8549 45.7992 21.7958 45.6939 21.6906C45.5886 21.5855 45.5293 21.4429 45.529 21.294V20.8156H44.4227V22.3457H44.4226ZM58.6233 27.2659V16.5409C58.6232 16.4743 58.5967 16.4104 58.5496 16.3632C58.5025 16.3161 58.4386 16.2895 58.3719 16.2893H53.0332C52.9665 16.2894 52.9026 16.316 52.8554 16.3631C52.8082 16.4103 52.7817 16.4742 52.7816 16.5409V27.2659C52.7817 27.3326 52.8082 27.3966 52.8554 27.4437C52.9026 27.4909 52.9665 27.5175 53.0332 27.5176H58.3719C58.4386 27.5174 58.5025 27.4908 58.5496 27.4437C58.5967 27.3965 58.6232 27.3326 58.6233 27.2659ZM55.7026 25.5503C55.8736 25.5502 56.0409 25.6009 56.1831 25.6959C56.3254 25.7909 56.4363 25.9259 56.5018 26.0839C56.5674 26.2419 56.5846 26.4158 56.5513 26.5836C56.5181 26.7514 56.4358 26.9055 56.3149 27.0266C56.1941 27.1476 56.04 27.2301 55.8723 27.2636C55.7045 27.2972 55.5306 27.2802 55.3725 27.2149C55.2144 27.1496 55.0792 27.0388 54.984 26.8967C54.8888 26.7546 54.8379 26.5874 54.8377 26.4163C54.8377 26.1868 54.9287 25.9667 55.0909 25.8043C55.2531 25.6419 55.4731 25.5505 55.7026 25.5503ZM55.7026 26.5813C55.6699 26.5812 55.6381 26.5715 55.611 26.5533C55.5839 26.5352 55.5628 26.5094 55.5504 26.4792C55.5379 26.4491 55.5347 26.4159 55.5411 26.384C55.5475 26.352 55.5632 26.3226 55.5863 26.2996C55.6094 26.2765 55.6388 26.2608 55.6708 26.2545C55.7028 26.2482 55.736 26.2515 55.7661 26.264C55.7962 26.2764 55.8219 26.2976 55.8401 26.3247C55.8582 26.3518 55.8678 26.3837 55.8678 26.4163C55.8677 26.4601 55.8503 26.502 55.8193 26.533C55.7883 26.5639 55.7463 26.5813 55.7026 26.5813ZM55.3528 17.0522C55.3529 17.1214 55.3735 17.189 55.412 17.2465C55.4505 17.304 55.5052 17.3488 55.5692 17.3752C55.6331 17.4016 55.7034 17.4085 55.7713 17.395C55.8392 17.3814 55.9015 17.3481 55.9504 17.2991C55.9993 17.2502 56.0326 17.1879 56.0461 17.12C56.0596 17.0521 56.0527 16.9818 56.0263 16.9179C55.9998 16.8539 55.955 16.7993 55.8975 16.7608C55.84 16.7223 55.7724 16.7017 55.7032 16.7017H55.7019C55.6559 16.7017 55.6104 16.7108 55.568 16.7285C55.5256 16.7461 55.487 16.772 55.4546 16.8045C55.4222 16.8371 55.3965 16.8757 55.379 16.9182C55.3616 16.9607 55.3527 17.0063 55.3528 17.0522Z" fill="white"></path></g><defs><clipPath id="clip0_6201_111"><rect width="20.4514" height="20.4514" fill="white" transform="translate(38.1719 8.52148)"></rect></clipPath></defs></svg>