<svg xmlns="http://www.w3.org/2000/svg" width="122" height="59" viewBox="0 0 122 59" fill="none"><path d="M121.725 17.8935V40.5864C121.725 45.2557 119.93 49.4921 116.979 52.666C114.093 55.7916 110.09 57.8761 105.604 58.2722C105.526 58.3014 105.44 58.3014 105.363 58.3014H105.333C105.18 58.3116 105.015 58.3205 104.861 58.3205C104.561 58.3497 104.253 58.3585 103.955 58.3585H40.4197C39.1171 58.3585 37.8438 58.2138 36.6276 57.9434C35.6247 57.7314 34.6598 57.4318 33.733 57.056C27.2204 54.4217 22.6285 48.0347 22.6285 40.5864V35.2696C3.62105 27.8504 0.378662 5.85201 0.378662 5.85201C8.05932 17.3527 17.7268 20.6243 22.6285 21.5497V17.8935C22.6285 8.07113 30.5973 0.102295 40.4197 0.102295H103.955C113.777 0.102295 121.727 8.07113 121.727 17.8935H121.725Z" fill="#FD5900"></path><path d="M52.2712 45.4552C51.6668 45.4552 51.1021 45.3479 50.5772 45.1331C50.0522 44.9104 49.5909 44.6042 49.1933 44.2145C48.7956 43.8248 48.4854 43.3715 48.2627 42.8545C48.048 42.3296 47.9406 41.7649 47.9406 41.1604C47.9406 40.5639 48.048 40.0072 48.2627 39.4902C48.4854 38.9733 48.7916 38.5239 49.1813 38.1421C49.579 37.7524 50.0403 37.4502 50.5652 37.2355C51.0901 37.0207 51.6548 36.9134 52.2593 36.9134C52.6808 36.9134 53.0904 36.973 53.4881 37.0923C53.8937 37.2116 54.2596 37.3786 54.5856 37.5934C54.9117 37.8081 55.1782 38.0547 55.3849 38.333L54.5498 39.2039C54.1919 38.8619 53.8181 38.6034 53.4284 38.4285C53.0467 38.2535 52.657 38.166 52.2593 38.166C51.8298 38.166 51.4321 38.2416 51.0663 38.3927C50.7084 38.5438 50.3903 38.7546 50.1119 39.025C49.8415 39.2954 49.6307 39.6135 49.4796 39.9794C49.3285 40.3373 49.2529 40.731 49.2529 41.1604C49.2529 41.574 49.3325 41.9677 49.4915 42.3415C49.6506 42.7074 49.8693 43.0295 50.1477 43.3078C50.434 43.5862 50.7601 43.8049 51.1259 43.964C51.4997 44.1231 51.8934 44.2026 52.307 44.2026C52.6172 44.2026 52.9115 44.1588 53.1898 44.0714C53.4682 43.9759 53.7147 43.8447 53.9295 43.6777C54.1442 43.5106 54.3112 43.3198 54.4305 43.105C54.5498 42.8823 54.6095 42.6477 54.6095 42.4012V42.1626L54.7884 42.3296H52.2354V41.0531H55.9337C55.9496 41.1406 55.9616 41.228 55.9695 41.3155C55.9775 41.3951 55.9814 41.4746 55.9814 41.5541C55.9894 41.6257 55.9934 41.6973 55.9934 41.7689C55.9934 42.3176 55.8979 42.8187 55.7071 43.272C55.5162 43.7174 55.2497 44.1032 54.9077 44.4293C54.5737 44.7553 54.18 45.0099 53.7267 45.1928C53.2813 45.3678 52.7961 45.4552 52.2712 45.4552ZM61.3097 45.3359V41.2559C61.3097 40.9059 61.1824 40.6236 60.9279 40.4088C60.6814 40.1862 60.3672 40.0748 59.9855 40.0748C59.6355 40.0748 59.3174 40.1464 59.0311 40.2895C58.7527 40.4327 58.4982 40.6514 58.2675 40.9457L57.4682 40.1464C57.842 39.7408 58.2437 39.4385 58.6732 39.2397C59.1106 39.0409 59.5798 38.9415 60.0809 38.9415C60.5581 38.9415 60.9717 39.021 61.3216 39.1801C61.6716 39.3391 61.942 39.5737 62.1329 39.8839C62.3237 40.1862 62.4192 40.556 62.4192 40.9934V45.3359H61.3097ZM59.4367 45.4552C59.0311 45.4552 58.6692 45.3757 58.351 45.2166C58.0329 45.0576 57.7784 44.8389 57.5875 44.5605C57.4046 44.2742 57.3131 43.9401 57.3131 43.5584C57.3131 43.2243 57.3728 42.9301 57.4921 42.6755C57.6114 42.421 57.7864 42.2103 58.017 42.0433C58.2556 41.8762 58.5499 41.749 58.8998 41.6615C59.2577 41.574 59.6673 41.5303 60.1286 41.5303H61.8704L61.763 42.5085H59.9735C59.7349 42.5085 59.5202 42.5324 59.3293 42.5801C59.1464 42.6199 58.9873 42.6875 58.8521 42.7829C58.7249 42.8704 58.6294 42.9778 58.5658 43.105C58.5022 43.2243 58.4703 43.3675 58.4703 43.5345C58.4703 43.7095 58.5141 43.8646 58.6016 43.9998C58.6891 44.127 58.8084 44.2264 58.9595 44.298C59.1106 44.3696 59.2856 44.4054 59.4844 44.4054C59.7707 44.4054 60.0411 44.3577 60.2956 44.2622C60.5581 44.1588 60.7887 44.0197 60.9876 43.8447C61.1944 43.6697 61.3534 43.4749 61.4648 43.2601L61.7511 44.0594C61.5841 44.3378 61.3773 44.5804 61.1307 44.7872C60.8842 44.9939 60.6177 45.157 60.3314 45.2763C60.0451 45.3956 59.7469 45.4552 59.4367 45.4552ZM66.8235 45.4552C66.2509 45.4552 65.7379 45.3161 65.2845 45.0377C64.8391 44.7514 64.4852 44.3656 64.2228 43.8805C63.9603 43.3874 63.8291 42.8267 63.8291 42.1983C63.8291 41.57 63.9563 41.0133 64.2108 40.5281C64.4733 40.035 64.8272 39.6493 65.2726 39.3709C65.718 39.0846 66.223 38.9415 66.7877 38.9415C67.0979 38.9415 67.3961 38.9932 67.6825 39.0965C67.9767 39.192 68.2392 39.3272 68.4698 39.5022C68.7005 39.6692 68.8794 39.8561 69.0067 40.0629C69.1419 40.2617 69.2095 40.4645 69.2095 40.6713L68.8516 40.6952V36.5077H70.0804V45.3359H68.8516V43.8447H69.0902C69.0902 44.0356 69.0266 44.2264 68.8993 44.4173C68.7721 44.6003 68.6011 44.7713 68.3863 44.9303C68.1795 45.0894 67.937 45.2166 67.6586 45.3121C67.3882 45.4075 67.1098 45.4552 66.8235 45.4552ZM66.9905 44.3935C67.3643 44.3935 67.6944 44.298 67.9807 44.1071C68.267 43.9163 68.4897 43.6578 68.6488 43.3317C68.8158 42.9977 68.8993 42.6199 68.8993 42.1983C68.8993 41.7768 68.8158 41.403 68.6488 41.0769C68.4897 40.7429 68.267 40.4804 67.9807 40.2895C67.6944 40.0987 67.3643 40.0032 66.9905 40.0032C66.6167 40.0032 66.2866 40.0987 66.0003 40.2895C65.714 40.4804 65.4873 40.7429 65.3203 41.0769C65.1612 41.403 65.0817 41.7768 65.0817 42.1983C65.0817 42.6199 65.1612 42.9977 65.3203 43.3317C65.4873 43.6578 65.714 43.9163 66.0003 44.1071C66.2866 44.298 66.6167 44.3935 66.9905 44.3935ZM74.8141 48.0798C74.3687 48.0798 73.9233 48.0083 73.4779 47.8651C73.0405 47.7299 72.6866 47.5509 72.4161 47.3282L72.8695 46.3738C73.1081 46.5568 73.4024 46.7039 73.7523 46.8153C74.1102 46.9266 74.4641 46.9823 74.8141 46.9823C75.2515 46.9823 75.6174 46.9107 75.9116 46.7675C76.2059 46.6244 76.4286 46.4136 76.5797 46.1352C76.7308 45.8569 76.8064 45.5109 76.8064 45.0973V43.8924L76.9376 43.9759C76.8979 44.2225 76.7666 44.4611 76.5439 44.6917C76.3292 44.9144 76.0588 45.0973 75.7327 45.2405C75.4066 45.3837 75.0726 45.4552 74.7306 45.4552C74.1341 45.4552 73.6012 45.3161 73.1319 45.0377C72.6707 44.7514 72.3048 44.3656 72.0344 43.8805C71.764 43.3874 71.6288 42.8267 71.6288 42.1983C71.6288 41.57 71.76 41.0133 72.0225 40.5281C72.2929 40.035 72.6587 39.6493 73.12 39.3709C73.5893 39.0846 74.1142 38.9415 74.6948 38.9415C74.9334 38.9415 75.164 38.9733 75.3867 39.0369C75.6094 39.0926 75.8162 39.1761 76.0071 39.2874C76.198 39.3908 76.369 39.5061 76.5201 39.6334C76.6712 39.7606 76.7945 39.8959 76.8899 40.039C76.9853 40.1822 77.045 40.3174 77.0688 40.4446L76.8064 40.5401V39.0727H78.0352V44.9542C78.0352 45.4552 77.9596 45.8966 77.8085 46.2784C77.6653 46.6681 77.4546 46.9942 77.1762 47.2567C76.8979 47.5271 76.5598 47.7299 76.1622 47.8651C75.7645 48.0083 75.3151 48.0798 74.8141 48.0798ZM74.8618 44.3219C75.2515 44.3219 75.5975 44.2304 75.8997 44.0475C76.2019 43.8646 76.4366 43.614 76.6036 43.2959C76.7706 42.9778 76.8541 42.6119 76.8541 42.1983C76.8541 41.7848 76.7666 41.4189 76.5916 41.1008C76.4246 40.7747 76.19 40.5202 75.8878 40.3373C75.5935 40.1543 75.2515 40.0629 74.8618 40.0629C74.48 40.0629 74.138 40.1583 73.8358 40.3492C73.5415 40.5321 73.3069 40.7866 73.1319 41.1127C72.9649 41.4308 72.8814 41.7927 72.8814 42.1983C72.8814 42.604 72.9649 42.9698 73.1319 43.2959C73.3069 43.614 73.5415 43.8646 73.8358 44.0475C74.138 44.2304 74.48 44.3219 74.8618 44.3219ZM82.9195 45.4552C82.2753 45.4552 81.7026 45.32 81.2016 45.0496C80.7085 44.7713 80.3187 44.3935 80.0324 43.9163C79.7541 43.4391 79.6149 42.8903 79.6149 42.2699C79.6149 41.7768 79.6944 41.3275 79.8535 40.9218C80.0125 40.5162 80.2313 40.1663 80.5096 39.872C80.7959 39.5698 81.134 39.3391 81.5237 39.1801C81.9213 39.013 82.3508 38.9295 82.8121 38.9295C83.2177 38.9295 83.5955 39.0091 83.9455 39.1681C84.2954 39.3192 84.5976 39.53 84.8522 39.8004C85.1146 40.0708 85.3134 40.3929 85.4487 40.7667C85.5918 41.1326 85.6594 41.5342 85.6515 41.9717L85.6395 42.4966H80.5216L80.2472 41.5183H84.5778L84.3988 41.7211V41.4348C84.375 41.1724 84.2875 40.9377 84.1364 40.731C83.9852 40.5242 83.7944 40.3611 83.5637 40.2418C83.3331 40.1225 83.0825 40.0629 82.8121 40.0629C82.3826 40.0629 82.0208 40.1464 81.7265 40.3134C81.4322 40.4725 81.2095 40.7111 81.0584 41.0292C80.9073 41.3394 80.8317 41.7251 80.8317 42.1864C80.8317 42.6238 80.9232 43.0056 81.1061 43.3317C81.2891 43.6498 81.5475 43.8964 81.8816 44.0714C82.2156 44.2463 82.6014 44.3338 83.0388 44.3338C83.349 44.3338 83.6353 44.2821 83.8978 44.1787C84.1682 44.0753 84.4585 43.8884 84.7686 43.618L85.389 44.4889C85.1981 44.6798 84.9635 44.8468 84.6851 44.99C84.4147 45.1331 84.1244 45.2485 83.8142 45.3359C83.512 45.4155 83.2138 45.4552 82.9195 45.4552ZM88.0009 45.3359V37.4741H89.2297V45.3359H88.0009ZM86.7006 40.2657V39.0727H90.6852V40.2657H86.7006ZM94.3634 45.4552C93.8385 45.4552 93.3653 45.3638 92.9438 45.1808C92.5222 44.9979 92.1723 44.7275 91.8939 44.3696L92.729 43.6538C92.9676 43.9322 93.2261 44.135 93.5045 44.2622C93.7908 44.3815 94.1129 44.4412 94.4708 44.4412C94.614 44.4412 94.7452 44.4253 94.8645 44.3935C94.9918 44.3537 95.0991 44.298 95.1866 44.2264C95.2821 44.1549 95.3536 44.0714 95.4014 43.9759C95.4491 43.8725 95.4729 43.7612 95.4729 43.6419C95.4729 43.4351 95.3974 43.2681 95.2463 43.1408C95.1667 43.0851 95.0395 43.0255 94.8645 42.9619C94.6975 42.8903 94.4788 42.8187 94.2084 42.7471C93.7471 42.6278 93.3693 42.4926 93.075 42.3415C92.7807 42.1904 92.5541 42.0194 92.395 41.8285C92.2757 41.6774 92.1882 41.5144 92.1325 41.3394C92.0769 41.1565 92.049 40.9576 92.049 40.7429C92.049 40.3929 92.1484 40.0828 92.3473 39.8123C92.5461 39.5419 92.8125 39.3312 93.1466 39.1801C93.4886 39.021 93.8703 38.9415 94.2919 38.9415C94.5861 38.9415 94.8764 38.9812 95.1628 39.0608C95.457 39.1403 95.7274 39.2556 95.974 39.4067C96.2205 39.5578 96.4273 39.7368 96.5944 39.9436L95.8905 40.719C95.7394 40.5679 95.5723 40.4367 95.3894 40.3253C95.2144 40.206 95.0355 40.1146 94.8526 40.0509C94.6696 39.9873 94.5026 39.9555 94.3515 39.9555C94.1845 39.9555 94.0334 39.9714 93.8982 40.0032C93.763 40.035 93.6476 40.0828 93.5522 40.1464C93.4647 40.21 93.3971 40.2895 93.3494 40.385C93.3017 40.4804 93.2778 40.5878 93.2778 40.7071C93.2858 40.8105 93.3096 40.9099 93.3494 41.0053C93.3971 41.0928 93.4607 41.1684 93.5403 41.232C93.6278 41.2956 93.759 41.3632 93.934 41.4348C94.1089 41.5064 94.3316 41.574 94.602 41.6376C94.9997 41.741 95.3258 41.8564 95.5803 41.9836C95.8428 42.1029 96.0495 42.2421 96.2007 42.4012C96.3597 42.5523 96.4711 42.7272 96.5347 42.9261C96.5983 43.1249 96.6301 43.3476 96.6301 43.5942C96.6301 43.9521 96.5267 44.2742 96.32 44.5605C96.1211 44.8389 95.8507 45.0576 95.5087 45.2166C95.1667 45.3757 94.785 45.4552 94.3634 45.4552Z" fill="white"></path><g clip-path="url(#clip0_6201_286)"><path d="M80.3015 14.3997H75.1674C74.1258 14.3997 73.2847 15.2427 73.2847 16.2824V27.1925C73.2847 28.234 74.1276 29.0752 75.1674 29.0752H80.3015C81.3431 29.0752 82.1842 28.2322 82.1842 27.1924V16.2824C82.1842 15.2408 81.3411 14.3997 80.3015 14.3997ZM78.3762 16.9667H77.0927C76.7618 16.9667 76.4935 16.6984 76.4935 16.3675C76.4935 16.0367 76.7618 15.7684 77.0927 15.7684H78.3762C78.7071 15.7684 78.9754 16.0367 78.9754 16.3675C78.9754 16.6984 78.7071 16.9667 78.3762 16.9667Z" fill="white"></path><path d="M68.1507 25.3099H66.8245C66.4936 25.3099 66.2253 25.5782 66.2253 25.9091C66.2253 26.24 66.4936 26.5083 66.8245 26.5083H72.0865V23.856H68.1506V25.3099H68.1507Z" fill="white"></path><path d="M80.3016 13.2014C80.5066 13.2014 80.7069 13.222 80.9008 13.2603V10.5065C80.9008 9.46836 80.0562 8.62378 79.0181 8.62378H63.6156C62.5775 8.62378 61.7329 9.4684 61.7329 10.5065V20.7748C61.7329 21.8129 62.5775 22.6575 63.6156 22.6575H72.0865V16.2824C72.0865 14.5835 73.4686 13.2013 75.1675 13.2013L80.3016 13.2014Z" fill="white"></path></g><defs><clipPath id="clip0_6201_286"><rect width="20.4514" height="20.4514" fill="white" transform="translate(61.7329 8.62378)"></rect></clipPath></defs></svg>