<svg xmlns="http://www.w3.org/2000/svg" width="100" height="84" viewBox="0 0 100 84" fill="none"><path d="M0.599121 17.9889V40.6868C0.599121 48.1326 5.18721 54.5145 11.6948 57.1514C13.7616 57.9956 16.0188 58.459 18.3814 58.459H59.631C60.5489 61.3802 61.5823 63.9535 62.6893 66.2222C70.2418 81.8107 81.0937 83.1717 81.0937 83.1717C77.3499 79.5434 74.9022 74.3116 73.3204 69.1014C72.16 65.336 71.4428 61.5808 71.0111 58.459H81.9164C82.2224 58.459 82.5283 58.4488 82.8228 58.4272C82.9917 58.4272 83.1605 58.4057 83.3294 58.3955C83.403 58.3955 83.4881 58.3955 83.5617 58.3739C88.0546 57.9727 92.0625 55.8844 94.9418 52.7626C97.8947 49.5888 99.6987 45.3485 99.6987 40.6868V17.9889C99.6987 8.16904 91.7362 0.206543 81.9164 0.206543H18.3827C8.56289 0.206543 0.600388 8.16904 0.600388 17.9889H0.599121Z" fill="#FD3A84"></path><path d="M10.3057 45.4402V37.0892H13.7057C14.159 37.0892 14.5686 37.2045 14.9345 37.4352C15.3083 37.6578 15.6066 37.964 15.8292 38.3538C16.0519 38.7435 16.1633 39.1769 16.1633 39.6541C16.1633 40.1313 16.0519 40.5648 15.8292 40.9545C15.6066 41.3442 15.3083 41.6584 14.9345 41.897C14.5686 42.1276 14.159 42.2429 13.7057 42.2429H11.5941V45.4402H10.3057ZM11.5941 41.0022H13.6818C13.8966 41.0022 14.0914 40.9426 14.2664 40.8233C14.4414 40.696 14.5806 40.533 14.684 40.3341C14.7953 40.1274 14.851 39.9007 14.851 39.6541C14.851 39.4076 14.7953 39.1849 14.684 38.9861C14.5806 38.7872 14.4414 38.6282 14.2664 38.5089C14.0914 38.3896 13.8966 38.3299 13.6818 38.3299H11.5941V41.0022ZM20.6015 45.5595C19.9573 45.5595 19.3847 45.4243 18.8836 45.1539C18.3905 44.8755 18.0008 44.4977 17.7145 44.0205C17.4361 43.5433 17.2969 42.9945 17.2969 42.3742C17.2969 41.8811 17.3765 41.4317 17.5355 41.0261C17.6946 40.6205 17.9133 40.2705 18.1917 39.9762C18.478 39.674 18.816 39.4434 19.2057 39.2843C19.6034 39.1173 20.0329 39.0338 20.4942 39.0338C20.8998 39.0338 21.2776 39.1133 21.6275 39.2724C21.9775 39.4235 22.2797 39.6342 22.5342 39.9047C22.7967 40.1751 22.9955 40.4972 23.1307 40.871C23.2739 41.2368 23.3415 41.6385 23.3335 42.0759L23.3216 42.6008H18.2036L17.9292 41.6226H22.2598L22.0809 41.8254V41.5391C22.057 41.2766 21.9695 41.042 21.8184 40.8352C21.6673 40.6284 21.4764 40.4654 21.2458 40.3461C21.0151 40.2268 20.7646 40.1671 20.4942 40.1671C20.0647 40.1671 19.7028 40.2506 19.4085 40.4177C19.1143 40.5767 18.8916 40.8153 18.7404 41.1335C18.5893 41.4436 18.5138 41.8294 18.5138 42.2907C18.5138 42.7281 18.6052 43.1099 18.7882 43.4359C18.9711 43.7541 19.2296 44.0006 19.5636 44.1756C19.8977 44.3506 20.2834 44.4381 20.7208 44.4381C21.031 44.4381 21.3173 44.3864 21.5798 44.283C21.8502 44.1796 22.1405 43.9927 22.4507 43.7223L23.071 44.5932C22.8802 44.784 22.6455 44.9511 22.3672 45.0942C22.0968 45.2374 21.8065 45.3527 21.4963 45.4402C21.1941 45.5197 20.8958 45.5595 20.6015 45.5595ZM24.9075 45.4402V39.1769H26.1482V41.1454L26.0289 40.6682C26.1164 40.366 26.2636 40.0916 26.4703 39.845C26.6851 39.5985 26.9277 39.4036 27.1981 39.2604C27.4764 39.1173 27.7628 39.0457 28.057 39.0457C28.1922 39.0457 28.3195 39.0576 28.4388 39.0815C28.5661 39.1054 28.6655 39.1332 28.737 39.165L28.4149 40.5012C28.3195 40.4614 28.2121 40.4296 28.0928 40.4057C27.9815 40.3739 27.8701 40.358 27.7588 40.358C27.544 40.358 27.3373 40.4017 27.1384 40.4892C26.9475 40.5688 26.7765 40.6841 26.6254 40.8352C26.4823 40.9784 26.367 41.1494 26.2795 41.3482C26.192 41.5391 26.1482 41.7498 26.1482 41.9805V45.4402H24.9075ZM32.0455 45.5595C31.5206 45.5595 31.0473 45.468 30.6258 45.2851C30.2043 45.1022 29.8543 44.8318 29.576 44.4739L30.4111 43.7581C30.6497 44.0364 30.9082 44.2392 31.1865 44.3665C31.4728 44.4858 31.7949 44.5454 32.1528 44.5454C32.296 44.5454 32.4272 44.5295 32.5465 44.4977C32.6738 44.4579 32.7812 44.4023 32.8686 44.3307C32.9641 44.2591 33.0357 44.1756 33.0834 44.0802C33.1311 43.9768 33.155 43.8654 33.155 43.7461C33.155 43.5393 33.0794 43.3723 32.9283 43.2451C32.8488 43.1894 32.7215 43.1297 32.5465 43.0661C32.3795 42.9945 32.1608 42.923 31.8904 42.8514C31.4291 42.7321 31.0513 42.5969 30.757 42.4458C30.4628 42.2946 30.2361 42.1236 30.077 41.9328C29.9577 41.7817 29.8702 41.6186 29.8146 41.4436C29.7589 41.2607 29.7311 41.0619 29.7311 40.8471C29.7311 40.4972 29.8305 40.187 30.0293 39.9166C30.2281 39.6462 30.4946 39.4354 30.8286 39.2843C31.1706 39.1252 31.5524 39.0457 31.9739 39.0457C32.2682 39.0457 32.5585 39.0855 32.8448 39.165C33.1391 39.2445 33.4095 39.3599 33.656 39.511C33.9026 39.6621 34.1094 39.841 34.2764 40.0478L33.5725 40.8233C33.4214 40.6722 33.2544 40.5409 33.0715 40.4296C32.8965 40.3103 32.7175 40.2188 32.5346 40.1552C32.3517 40.0916 32.1847 40.0598 32.0335 40.0598C31.8665 40.0598 31.7154 40.0757 31.5802 40.1075C31.445 40.1393 31.3297 40.187 31.2342 40.2506C31.1468 40.3143 31.0791 40.3938 31.0314 40.4892C30.9837 40.5847 30.9598 40.692 30.9598 40.8113C30.9678 40.9147 30.9917 41.0142 31.0314 41.1096C31.0791 41.1971 31.1428 41.2726 31.2223 41.3363C31.3098 41.3999 31.441 41.4675 31.616 41.5391C31.791 41.6107 32.0137 41.6783 32.2841 41.7419C32.6817 41.8453 33.0078 41.9606 33.2623 42.0879C33.5248 42.2072 33.7316 42.3463 33.8827 42.5054C34.0418 42.6565 34.1531 42.8315 34.2167 43.0303C34.2804 43.2292 34.3122 43.4519 34.3122 43.6984C34.3122 44.0563 34.2088 44.3784 34.002 44.6647C33.8032 44.9431 33.5328 45.1618 33.1908 45.3209C32.8488 45.48 32.467 45.5595 32.0455 45.5595ZM38.7205 45.5595C38.1081 45.5595 37.5593 45.4203 37.0742 45.1419C36.597 44.8556 36.2192 44.4699 35.9408 43.9847C35.6624 43.4916 35.5233 42.9309 35.5233 42.3026C35.5233 41.6743 35.6624 41.1175 35.9408 40.6324C36.2192 40.1393 36.597 39.7535 37.0742 39.4752C37.5593 39.1889 38.1081 39.0457 38.7205 39.0457C39.325 39.0457 39.8658 39.1889 40.343 39.4752C40.8281 39.7535 41.2099 40.1393 41.4883 40.6324C41.7666 41.1175 41.9058 41.6743 41.9058 42.3026C41.9058 42.9309 41.7666 43.4916 41.4883 43.9847C41.2099 44.4699 40.8281 44.8556 40.343 45.1419C39.8658 45.4203 39.325 45.5595 38.7205 45.5595ZM38.7205 44.4381C39.0943 44.4381 39.4284 44.3466 39.7226 44.1637C40.0169 43.9728 40.2475 43.7183 40.4146 43.4002C40.5816 43.0741 40.6611 42.7082 40.6532 42.3026C40.6611 41.889 40.5816 41.5232 40.4146 41.205C40.2475 40.8789 40.0169 40.6244 39.7226 40.4415C39.4284 40.2586 39.0943 40.1671 38.7205 40.1671C38.3467 40.1671 38.0087 40.2626 37.7065 40.4534C37.4122 40.6364 37.1815 40.8909 37.0145 41.217C36.8475 41.5351 36.768 41.897 36.7759 42.3026C36.768 42.7082 36.8475 43.0741 37.0145 43.4002C37.1815 43.7183 37.4122 43.9728 37.7065 44.1637C38.0087 44.3466 38.3467 44.4381 38.7205 44.4381ZM43.4834 45.4402V39.1769H44.7122V40.4654L44.4974 40.6085C44.577 40.3302 44.732 40.0757 44.9627 39.845C45.1933 39.6064 45.4677 39.4155 45.7859 39.2724C46.104 39.1213 46.4301 39.0457 46.7641 39.0457C47.2413 39.0457 47.639 39.1411 47.9571 39.332C48.2753 39.5149 48.5139 39.7973 48.6729 40.1791C48.832 40.5608 48.9115 41.042 48.9115 41.6226V45.4402H47.6827V41.7061C47.6827 41.3482 47.635 41.0539 47.5396 40.8233C47.4441 40.5847 47.297 40.4137 47.0982 40.3103C46.8993 40.1989 46.6528 40.1512 46.3585 40.1671C46.1199 40.1671 45.9012 40.2069 45.7024 40.2864C45.5035 40.358 45.3285 40.4614 45.1774 40.5966C45.0343 40.7318 44.919 40.8909 44.8315 41.0738C44.7519 41.2488 44.7122 41.4397 44.7122 41.6464V45.4402H44.1037C44.0003 45.4402 43.8969 45.4402 43.7936 45.4402C43.6902 45.4402 43.5868 45.4402 43.4834 45.4402ZM54.5273 45.4402V41.3601C54.5273 41.0102 54.4 40.7278 54.1455 40.5131C53.899 40.2904 53.5848 40.1791 53.2031 40.1791C52.8531 40.1791 52.535 40.2506 52.2487 40.3938C51.9703 40.537 51.7158 40.7557 51.4851 41.0499L50.6858 40.2506C51.0596 39.845 51.4613 39.5428 51.8908 39.344C52.3282 39.1451 52.7974 39.0457 53.2985 39.0457C53.7757 39.0457 54.1893 39.1252 54.5392 39.2843C54.8892 39.4434 55.1596 39.678 55.3505 39.9882C55.5413 40.2904 55.6368 40.6602 55.6368 41.0977V45.4402H54.5273ZM52.6543 45.5595C52.2487 45.5595 51.8868 45.48 51.5687 45.3209C51.2505 45.1618 50.996 44.9431 50.8051 44.6647C50.6222 44.3784 50.5307 44.0444 50.5307 43.6626C50.5307 43.3286 50.5904 43.0343 50.7097 42.7798C50.829 42.5253 51.004 42.3145 51.2346 42.1475C51.4732 41.9805 51.7675 41.8532 52.1174 41.7657C52.4753 41.6783 52.8849 41.6345 53.3462 41.6345H55.088L54.9806 42.6128H53.1911C52.9525 42.6128 52.7378 42.6366 52.5469 42.6844C52.364 42.7241 52.2049 42.7917 52.0697 42.8872C51.9425 42.9747 51.847 43.082 51.7834 43.2093C51.7198 43.3286 51.688 43.4717 51.688 43.6388C51.688 43.8137 51.7317 43.9688 51.8192 44.104C51.9067 44.2313 52.026 44.3307 52.1771 44.4023C52.3282 44.4739 52.5032 44.5096 52.702 44.5096C52.9883 44.5096 53.2587 44.4619 53.5132 44.3665C53.7757 44.2631 54.0064 44.1239 54.2052 43.9489C54.412 43.774 54.571 43.5791 54.6824 43.3644L54.9687 44.1637C54.8017 44.442 54.5949 44.6846 54.3483 44.8914C54.1018 45.0982 53.8354 45.2612 53.549 45.3805C53.2627 45.4998 52.9645 45.5595 52.6543 45.5595ZM57.4523 45.4402V36.612H58.6811V45.4402H57.4523ZM67.9417 45.5595C67.3612 45.5595 66.8283 45.4561 66.3431 45.2493C65.858 45.0425 65.4364 44.7482 65.0785 44.3665C64.7206 43.9768 64.4423 43.5195 64.2434 42.9945C64.0526 42.4696 63.9571 41.893 63.9571 41.2647C63.9571 40.6682 64.0605 40.1154 64.2673 39.6064C64.482 39.0894 64.7763 38.6361 65.1501 38.2464C65.5239 37.8567 65.9574 37.5545 66.4505 37.3397C66.9436 37.125 67.4765 37.0176 68.0491 37.0176C68.4547 37.0176 68.8484 37.0812 69.2302 37.2085C69.6199 37.3278 69.9698 37.4988 70.28 37.7215C70.5982 37.9362 70.8566 38.1828 71.0555 38.4611L70.1965 39.3559C69.8545 39.0059 69.5046 38.7435 69.1467 38.5685C68.7888 38.3935 68.4229 38.306 68.0491 38.306C67.6594 38.306 67.2935 38.3816 66.9516 38.5327C66.6175 38.6759 66.3232 38.8787 66.0687 39.1411C65.8222 39.4036 65.6273 39.7178 65.4842 40.0836C65.341 40.4415 65.2694 40.8352 65.2694 41.2647C65.2694 41.718 65.337 42.1316 65.4722 42.5054C65.6154 42.8713 65.8142 43.1854 66.0687 43.4479C66.3232 43.7103 66.6255 43.9131 66.9754 44.0563C67.3333 44.1915 67.727 44.2591 68.1565 44.2591C68.4189 44.2591 68.6774 44.2233 68.9319 44.1517C69.1864 44.0802 69.425 43.9768 69.6477 43.8416C69.8704 43.7064 70.0732 43.5473 70.2562 43.3644L70.9004 44.4142C70.7175 44.6289 70.4669 44.8238 70.1488 44.9988C69.8386 45.1737 69.4887 45.3129 69.099 45.4163C68.7172 45.5118 68.3315 45.5595 67.9417 45.5595ZM76.2893 45.4402V41.3601C76.2893 41.0102 76.162 40.7278 75.9075 40.5131C75.661 40.2904 75.3468 40.1791 74.9651 40.1791C74.6151 40.1791 74.297 40.2506 74.0107 40.3938C73.7323 40.537 73.4778 40.7557 73.2471 41.0499L72.4478 40.2506C72.8216 39.845 73.2233 39.5428 73.6528 39.344C74.0902 39.1451 74.5594 39.0457 75.0605 39.0457C75.5377 39.0457 75.9513 39.1252 76.3012 39.2843C76.6512 39.4434 76.9216 39.678 77.1125 39.9882C77.3034 40.2904 77.3988 40.6602 77.3988 41.0977V45.4402H76.2893ZM74.4163 45.5595C74.0107 45.5595 73.6488 45.48 73.3307 45.3209C73.0125 45.1618 72.758 44.9431 72.5671 44.6647C72.3842 44.3784 72.2927 44.0444 72.2927 43.6626C72.2927 43.3286 72.3524 43.0343 72.4717 42.7798C72.591 42.5253 72.766 42.3145 72.9966 42.1475C73.2352 41.9805 73.5295 41.8532 73.8794 41.7657C74.2373 41.6783 74.6469 41.6345 75.1082 41.6345H76.85L76.7426 42.6128H74.9531C74.7145 42.6128 74.4998 42.6366 74.3089 42.6844C74.126 42.7241 73.9669 42.7917 73.8317 42.8872C73.7045 42.9747 73.609 43.082 73.5454 43.2093C73.4818 43.3286 73.45 43.4717 73.45 43.6388C73.45 43.8137 73.4937 43.9688 73.5812 44.104C73.6687 44.2313 73.788 44.3307 73.9391 44.4023C74.0902 44.4739 74.2652 44.5096 74.464 44.5096C74.7503 44.5096 75.0207 44.4619 75.2752 44.3665C75.5377 44.2631 75.7684 44.1239 75.9672 43.9489C76.174 43.774 76.333 43.5791 76.4444 43.3644L76.7307 44.1637C76.5637 44.442 76.3569 44.6846 76.1103 44.8914C75.8638 45.0982 75.5974 45.2612 75.311 45.3805C75.0247 45.4998 74.7265 45.5595 74.4163 45.5595ZM79.1904 45.4402V39.1769H80.4311V41.1454L80.3118 40.6682C80.3993 40.366 80.5465 40.0916 80.7533 39.845C80.968 39.5985 81.2106 39.4036 81.481 39.2604C81.7594 39.1173 82.0457 39.0457 82.3399 39.0457C82.4752 39.0457 82.6024 39.0576 82.7217 39.0815C82.849 39.1054 82.9484 39.1332 83.02 39.165L82.6978 40.5012C82.6024 40.4614 82.495 40.4296 82.3757 40.4057C82.2644 40.3739 82.153 40.358 82.0417 40.358C81.827 40.358 81.6202 40.4017 81.4213 40.4892C81.2305 40.5688 81.0595 40.6841 80.9083 40.8352C80.7652 40.9784 80.6499 41.1494 80.5624 41.3482C80.4749 41.5391 80.4311 41.7498 80.4311 41.9805V45.4402H79.1904ZM86.8955 45.5595C86.2513 45.5595 85.6787 45.4243 85.1776 45.1539C84.6845 44.8755 84.2948 44.4977 84.0085 44.0205C83.7301 43.5433 83.5909 42.9945 83.5909 42.3742C83.5909 41.8811 83.6705 41.4317 83.8295 41.0261C83.9886 40.6205 84.2073 40.2705 84.4857 39.9762C84.772 39.674 85.11 39.4434 85.4997 39.2843C85.8974 39.1173 86.3269 39.0338 86.7882 39.0338C87.1938 39.0338 87.5716 39.1133 87.9215 39.2724C88.2715 39.4235 88.5737 39.6342 88.8282 39.9047C89.0907 40.1751 89.2895 40.4972 89.4247 40.871C89.5679 41.2368 89.6355 41.6385 89.6275 42.0759L89.6156 42.6008H84.4976L84.2232 41.6226H88.5538L88.3749 41.8254V41.5391C88.351 41.2766 88.2635 41.042 88.1124 40.8352C87.9613 40.6284 87.7704 40.4654 87.5398 40.3461C87.3091 40.2268 87.0586 40.1671 86.7882 40.1671C86.3587 40.1671 85.9968 40.2506 85.7025 40.4177C85.4083 40.5767 85.1856 40.8153 85.0345 41.1335C84.8833 41.4436 84.8078 41.8294 84.8078 42.2907C84.8078 42.7281 84.8992 43.1099 85.0822 43.4359C85.2651 43.7541 85.5236 44.0006 85.8576 44.1756C86.1917 44.3506 86.5774 44.4381 87.0148 44.4381C87.325 44.4381 87.6113 44.3864 87.8738 44.283C88.1442 44.1796 88.4345 43.9927 88.7447 43.7223L89.365 44.5932C89.1742 44.784 88.9395 44.9511 88.6612 45.0942C88.3908 45.2374 88.1005 45.3527 87.7903 45.4402C87.4881 45.5197 87.1898 45.5595 86.8955 45.5595Z" fill="white"></path><g clip-path="url(#clip0_6201_255)"><path d="M52.5388 25.6042H58.2505V28.5799C58.2505 28.9106 57.9821 29.1791 57.6514 29.1791H52.5388V25.6042Z" fill="white"></path><path d="M59.8715 12.3635L58.3393 24.406H52.5389V21.3904C52.5389 20.7685 52.2214 20.2197 51.7401 19.897V18.9727C51.7401 17.9818 50.9337 17.1753 49.9427 17.1753H49.6515L48.9685 12.3635H59.8715Z" fill="white"></path><path d="M60.2429 9.44333L60.024 11.1652H48.8083L48.5894 9.44333C48.5375 9.09663 48.8331 8.76032 49.1838 8.76871H59.6486C59.9993 8.76028 60.2948 9.09659 60.2429 9.44333Z" fill="white"></path><path d="M46.0284 9.6674H45.6889V9.32789C45.6889 8.99701 45.4206 8.72876 45.0898 8.72876C44.7589 8.72876 44.4906 8.99701 44.4906 9.32789V9.6674H44.1511C43.8203 9.6674 43.552 9.93565 43.552 10.2665C43.552 10.5974 43.8203 10.8657 44.1511 10.8657H44.4906V11.2052C44.4906 11.536 44.7589 11.8043 45.0898 11.8043C45.4206 11.8043 45.6889 11.536 45.6889 11.2052V10.8657H46.0284C46.3593 10.8657 46.6275 10.5974 46.6275 10.2665C46.6275 9.93565 46.3593 9.6674 46.0284 9.6674Z" fill="white"></path><path d="M40.9957 10.8657C41.3266 10.8657 41.5949 10.5975 41.5949 10.2666C41.5949 9.93572 41.3266 9.66748 40.9957 9.66748C40.6648 9.66748 40.3966 9.93572 40.3966 10.2666C40.3966 10.5975 40.6648 10.8657 40.9957 10.8657Z" fill="white"></path><path d="M42.7931 14.041C43.124 14.041 43.3922 13.7728 43.3922 13.4419C43.3922 13.111 43.124 12.8428 42.7931 12.8428C42.4622 12.8428 42.194 13.111 42.194 13.4419C42.194 13.7728 42.4622 14.041 42.7931 14.041Z" fill="white"></path><path d="M46.6476 16.023C46.2514 15.7326 45.8572 15.5037 45.5692 15.3504C45.3116 15.2134 45.1386 15.1367 45.1238 15.1303C44.7947 14.9721 44.3712 15.1787 44.3002 15.5373C44.2815 15.6072 44.057 16.3845 43.1499 17.1753H47.8255C47.5503 16.7814 47.1573 16.3964 46.6476 16.023Z" fill="white"></path><path d="M50.542 18.9727V20.3918H40.5964V18.9727C40.5964 18.6419 40.8648 18.3735 41.1956 18.3735H49.9429C50.2736 18.3735 50.542 18.6419 50.542 18.9727Z" fill="white"></path><path d="M42.993 24.7854H48.1456V25.9837H42.993V24.7854Z" fill="white"></path><path d="M50.7417 21.5901H40.3967C40.066 21.5901 39.7976 21.8585 39.7976 22.1892V28.5799C39.7976 28.9106 40.066 29.1791 40.3967 29.1791H51.3408V22.1892C51.3408 21.8585 51.0724 21.5901 50.7417 21.5901ZM49.3437 26.5828C49.3437 26.9136 49.0753 27.182 48.7446 27.182H42.3938C42.0631 27.182 41.7947 26.9136 41.7947 26.5828V24.1863C41.7947 23.8556 42.0631 23.5872 42.3938 23.5872H48.7446C49.0753 23.5872 49.3437 23.8556 49.3437 24.1863V26.5828Z" fill="white"></path></g><defs><clipPath id="clip0_6201_255"><rect width="20.4514" height="20.4514" fill="white" transform="translate(39.7975 8.72803)"></rect></clipPath></defs></svg>