<svg xmlns="http://www.w3.org/2000/svg" width="96" height="73" viewBox="0 0 96 73" fill="none"><path d="M0.677734 16.8726V38.4144C0.677734 47.7344 8.27397 55.287 17.6453 55.287H24.6559C23.38 67.3967 14.3487 72.1404 13.7812 72.4322C18.8734 71.3794 23.106 69.6233 26.5925 67.5844C28.935 66.2218 30.9387 64.719 32.6297 63.2252C36.0207 60.2376 38.1938 57.2602 39.4219 55.287H78.2981C87.6694 55.287 95.2656 47.7333 95.2656 38.4144V16.8726C95.2656 7.55374 87.6694 0 78.2981 0H17.6453C8.27397 0 0.677734 7.55374 0.677734 16.8726Z" fill="#CB9125"></path><path d="M15.5753 45.2336V36.8826H16.8399L19.882 41.8336L19.2736 41.8217L22.3515 36.8826H23.5445V45.2336H22.2561V41.8097C22.2561 41.0939 22.272 40.4497 22.3038 39.8771C22.3436 39.3044 22.4072 38.7358 22.4947 38.1711L22.6617 38.6125L19.9297 42.8357H19.1424L16.4939 38.6602L16.6251 38.1711C16.7126 38.704 16.7723 39.2527 16.8041 39.8174C16.8438 40.3742 16.8637 41.0383 16.8637 41.8097V45.2336H15.5753ZM28.6298 45.3529C28.0174 45.3529 27.4686 45.2138 26.9834 44.9354C26.5062 44.6491 26.1285 44.2633 25.8501 43.7782C25.5717 43.2851 25.4325 42.7244 25.4325 42.0961C25.4325 41.4677 25.5717 40.911 25.8501 40.4259C26.1285 39.9327 26.5062 39.547 26.9834 39.2686C27.4686 38.9823 28.0174 38.8392 28.6298 38.8392C29.2342 38.8392 29.7751 38.9823 30.2523 39.2686C30.7374 39.547 31.1192 39.9327 31.3975 40.4259C31.6759 40.911 31.8151 41.4677 31.8151 42.0961C31.8151 42.7244 31.6759 43.2851 31.3975 43.7782C31.1192 44.2633 30.7374 44.6491 30.2523 44.9354C29.7751 45.2138 29.2342 45.3529 28.6298 45.3529ZM28.6298 44.2315C29.0036 44.2315 29.3376 44.1401 29.6319 43.9571C29.9262 43.7663 30.1568 43.5117 30.3238 43.1936C30.4909 42.8675 30.5704 42.5017 30.5624 42.0961C30.5704 41.6825 30.4909 41.3166 30.3238 40.9985C30.1568 40.6724 29.9262 40.4179 29.6319 40.235C29.3376 40.052 29.0036 39.9606 28.6298 39.9606C28.256 39.9606 27.918 40.056 27.6157 40.2469C27.3215 40.4298 27.0908 40.6843 26.9238 41.0104C26.7568 41.3286 26.6772 41.6904 26.6852 42.0961C26.6772 42.5017 26.7568 42.8675 26.9238 43.1936C27.0908 43.5117 27.3215 43.7663 27.6157 43.9571C27.918 44.1401 28.256 44.2315 28.6298 44.2315ZM34.1681 45.2336V37.3718H35.3969V45.2336H34.1681ZM32.8677 40.1634V38.9704H36.8524V40.1634H32.8677ZM40.9671 45.3529C40.3547 45.3529 39.8059 45.2138 39.3207 44.9354C38.8435 44.6491 38.4658 44.2633 38.1874 43.7782C37.909 43.2851 37.7698 42.7244 37.7698 42.0961C37.7698 41.4677 37.909 40.911 38.1874 40.4259C38.4658 39.9327 38.8435 39.547 39.3207 39.2686C39.8059 38.9823 40.3547 38.8392 40.9671 38.8392C41.5715 38.8392 42.1124 38.9823 42.5896 39.2686C43.0747 39.547 43.4565 39.9327 43.7348 40.4259C44.0132 40.911 44.1524 41.4677 44.1524 42.0961C44.1524 42.7244 44.0132 43.2851 43.7348 43.7782C43.4565 44.2633 43.0747 44.6491 42.5896 44.9354C42.1124 45.2138 41.5715 45.3529 40.9671 45.3529ZM40.9671 44.2315C41.3409 44.2315 41.6749 44.1401 41.9692 43.9571C42.2635 43.7663 42.4941 43.5117 42.6611 43.1936C42.8282 42.8675 42.9077 42.5017 42.8997 42.0961C42.9077 41.6825 42.8282 41.3166 42.6611 40.9985C42.4941 40.6724 42.2635 40.4179 41.9692 40.235C41.6749 40.052 41.3409 39.9606 40.9671 39.9606C40.5933 39.9606 40.2553 40.056 39.953 40.2469C39.6588 40.4298 39.4281 40.6843 39.2611 41.0104C39.0941 41.3286 39.0145 41.6904 39.0225 42.0961C39.0145 42.5017 39.0941 42.8675 39.2611 43.1936C39.4281 43.5117 39.6588 43.7663 39.953 43.9571C40.2553 44.1401 40.5933 44.2315 40.9671 44.2315ZM45.73 45.2336V38.9704H46.9707V40.9388L46.8514 40.4616C46.9389 40.1594 47.086 39.885 47.2928 39.6385C47.5075 39.3919 47.7501 39.1971 48.0205 39.0539C48.2989 38.9107 48.5852 38.8392 48.8795 38.8392C49.0147 38.8392 49.1419 38.8511 49.2612 38.8749C49.3885 38.8988 49.4879 38.9266 49.5595 38.9585L49.2374 40.2946C49.1419 40.2549 49.0346 40.223 48.9153 40.1992C48.8039 40.1674 48.6926 40.1515 48.5812 40.1515C48.3665 40.1515 48.1597 40.1952 47.9609 40.2827C47.77 40.3622 47.599 40.4775 47.4479 40.6287C47.3047 40.7718 47.1894 40.9428 47.1019 41.1417C47.0144 41.3325 46.9707 41.5433 46.9707 41.7739V45.2336H45.73ZM54.0729 45.3529C53.8024 45.3529 53.532 45.3092 53.2616 45.2217C52.9992 45.1342 52.7566 45.0189 52.5339 44.8757C52.3191 44.7246 52.1362 44.5616 51.9851 44.3866C51.8419 44.2037 51.7465 44.0208 51.6988 43.8378L52.009 43.6708V45.1979H50.7802V36.4054H52.009V40.402L51.8181 40.2946C51.8578 40.1117 51.9453 39.9367 52.0805 39.7697C52.2157 39.5947 52.3867 39.4396 52.5935 39.3044C52.8083 39.1613 53.0389 39.0499 53.2855 38.9704C53.532 38.8829 53.7826 38.8392 54.0371 38.8392C54.6018 38.8392 55.1028 38.9783 55.5402 39.2567C55.9777 39.5351 56.3236 39.9208 56.5782 40.4139C56.8327 40.8991 56.9599 41.4558 56.9599 42.0841C56.9599 42.7124 56.8327 43.2731 56.5782 43.7663C56.3316 44.2594 55.9896 44.6491 55.5522 44.9354C55.1147 45.2138 54.6216 45.3529 54.0729 45.3529ZM53.87 44.2315C54.2359 44.2315 54.562 44.1401 54.8483 43.9571C55.1346 43.7663 55.3613 43.5117 55.5283 43.1936C55.6953 42.8675 55.7788 42.4977 55.7788 42.0841C55.7788 41.6785 55.6953 41.3166 55.5283 40.9985C55.3692 40.6724 55.1466 40.4179 54.8602 40.235C54.5739 40.052 54.2439 39.9606 53.87 39.9606C53.4962 39.9606 53.1662 40.052 52.8799 40.235C52.5935 40.4179 52.3669 40.6724 52.1998 40.9985C52.0328 41.3166 51.9493 41.6785 51.9493 42.0841C51.9493 42.4977 52.0328 42.8675 52.1998 43.1936C52.3669 43.5117 52.5935 43.7663 52.8799 43.9571C53.1662 44.1401 53.4962 44.2315 53.87 44.2315ZM58.7361 45.2336V38.9704H59.9649V45.2336H58.7361ZM59.3326 37.5865C59.0701 37.5865 58.8673 37.5189 58.7242 37.3837C58.581 37.2485 58.5094 37.0576 58.5094 36.8111C58.5094 36.5804 58.581 36.3935 58.7242 36.2503C58.8753 36.1072 59.0781 36.0356 59.3326 36.0356C59.595 36.0356 59.7979 36.1032 59.941 36.2384C60.0842 36.3736 60.1558 36.5645 60.1558 36.8111C60.1558 37.0417 60.0802 37.2286 59.9291 37.3718C59.7859 37.5149 59.5871 37.5865 59.3326 37.5865ZM63.2137 43.2771L63.154 41.941L66.1484 38.9704H67.8067L63.2137 43.2771ZM62.0922 45.2336V36.4054H63.321V45.2336H62.0922ZM66.3155 45.2336L63.9533 42.4778L64.8242 41.6785L67.8902 45.2336H66.3155ZM71.7663 45.3529C71.122 45.3529 70.5494 45.2177 70.0483 44.9473C69.5552 44.669 69.1655 44.2912 68.8792 43.814C68.6008 43.3368 68.4617 42.788 68.4617 42.1676C68.4617 41.6745 68.5412 41.2252 68.7003 40.8195C68.8593 40.4139 69.078 40.064 69.3564 39.7697C69.6427 39.4675 69.9807 39.2368 70.3705 39.0778C70.7681 38.9107 71.1976 38.8272 71.6589 38.8272C72.0645 38.8272 72.4423 38.9068 72.7922 39.0658C73.1422 39.2169 73.4444 39.4277 73.6989 39.6981C73.9614 39.9685 74.1602 40.2906 74.2954 40.6645C74.4386 41.0303 74.5062 41.4319 74.4982 41.8694L74.4863 42.3943H69.3683L69.0939 41.416H73.4245L73.2456 41.6189V41.3325C73.2217 41.0701 73.1342 40.8354 72.9831 40.6287C72.832 40.4219 72.6411 40.2588 72.4105 40.1395C72.1798 40.0202 71.9293 39.9606 71.6589 39.9606C71.2294 39.9606 70.8675 40.0441 70.5733 40.2111C70.279 40.3702 70.0563 40.6088 69.9052 40.9269C69.7541 41.2371 69.6785 41.6228 69.6785 42.0841C69.6785 42.5216 69.77 42.9033 69.9529 43.2294C70.1358 43.5475 70.3943 43.7941 70.7284 43.9691C71.0624 44.144 71.4481 44.2315 71.8856 44.2315C72.1957 44.2315 72.4821 44.1798 72.7445 44.0764C73.0149 43.973 73.3052 43.7861 73.6154 43.5157L74.2358 44.3866C74.0449 44.5775 73.8103 44.7445 73.5319 44.8877C73.2615 45.0308 72.9712 45.1462 72.661 45.2336C72.3588 45.3132 72.0605 45.3529 71.7663 45.3529ZM78.16 45.3529C77.6351 45.3529 77.1619 45.2615 76.7403 45.0786C76.3188 44.8956 75.9689 44.6252 75.6905 44.2673L76.5256 43.5515C76.7642 43.8299 77.0227 44.0327 77.301 44.1599C77.5874 44.2792 77.9095 44.3389 78.2674 44.3389C78.4105 44.3389 78.5418 44.323 78.6611 44.2912C78.7883 44.2514 78.8957 44.1957 78.9832 44.1242C79.0786 44.0526 79.1502 43.9691 79.1979 43.8736C79.2456 43.7702 79.2695 43.6589 79.2695 43.5396C79.2695 43.3328 79.1939 43.1658 79.0428 43.0385C78.9633 42.9828 78.836 42.9232 78.6611 42.8596C78.494 42.788 78.2753 42.7164 78.0049 42.6448C77.5436 42.5255 77.1658 42.3903 76.8716 42.2392C76.5773 42.0881 76.3506 41.9171 76.1915 41.7262C76.0722 41.5751 75.9848 41.4121 75.9291 41.2371C75.8734 41.0542 75.8456 40.8553 75.8456 40.6406C75.8456 40.2906 75.945 39.9805 76.1438 39.71C76.3427 39.4396 76.6091 39.2289 76.9431 39.0778C77.2851 38.9187 77.6669 38.8392 78.0884 38.8392C78.3827 38.8392 78.673 38.8789 78.9593 38.9585C79.2536 39.038 79.524 39.1533 79.7705 39.3044C80.0171 39.4555 80.2239 39.6345 80.3909 39.8413L79.687 40.6167C79.5359 40.4656 79.3689 40.3344 79.186 40.223C79.011 40.1037 78.8321 40.0123 78.6491 39.9487C78.4662 39.885 78.2992 39.8532 78.1481 39.8532C77.981 39.8532 77.8299 39.8691 77.6947 39.9009C77.5595 39.9327 77.4442 39.9805 77.3488 40.0441C77.2613 40.1077 77.1937 40.1873 77.1459 40.2827C77.0982 40.3781 77.0744 40.4855 77.0744 40.6048C77.0823 40.7082 77.1062 40.8076 77.1459 40.9031C77.1937 40.9905 77.2573 41.0661 77.3368 41.1297C77.4243 41.1933 77.5555 41.261 77.7305 41.3325C77.9055 41.4041 78.1282 41.4717 78.3986 41.5353C78.7963 41.6387 79.1224 41.7541 79.3769 41.8813C79.6393 42.0006 79.8461 42.1398 79.9972 42.2989C80.1563 42.45 80.2676 42.6249 80.3313 42.8238C80.3949 43.0226 80.4267 43.2453 80.4267 43.4919C80.4267 43.8498 80.3233 44.1719 80.1165 44.4582C79.9177 44.7366 79.6473 44.9553 79.3053 45.1143C78.9633 45.2734 78.5815 45.3529 78.16 45.3529Z" fill="white"></path><path fill-rule="evenodd" clip-rule="evenodd" d="M49.7882 12.5762C48.7345 12.5289 48.7345 14.1352 49.7882 14.0866H50.9145L51.7545 16.2272H48.1525C47.0589 16.2272 46.2049 17.0062 45.9322 18.0219C45.7549 18.6832 45.2655 18.6589 44.5209 18.6589H43.2159C42.4745 18.6589 42.1065 18.3362 41.5022 17.9769C40.9692 17.6609 40.6242 17.5309 39.8235 17.5309H36.5059C35.7922 17.5309 35.2162 18.1056 35.2162 18.8209V19.9262C35.2162 20.3516 35.4312 20.7249 35.7335 20.9576C35.5162 21.1016 35.3045 21.2579 35.1015 21.4246C34.8862 21.6032 34.6849 21.7996 34.4869 21.9972C33.5425 22.9416 34.8619 24.1656 35.5772 23.3862C36.6589 22.2096 38.1135 21.5219 39.7105 21.5219C41.1705 21.5219 42.5729 22.1016 43.6062 23.1349C44.2915 23.8219 44.7639 24.6759 45.0225 25.5966C45.0852 25.8189 45.1265 26.0806 45.1629 26.2869L40.1202 26.3252C39.2162 26.3322 39.2162 27.7992 40.1079 27.7992H41.8232C41.5072 28.6602 40.6825 29.2782 39.7105 29.2782C38.4692 29.2782 37.4605 28.2712 37.4605 27.0282C37.4605 25.7869 38.4692 24.7786 39.7105 24.7786C40.2715 24.7786 40.7799 24.9882 41.1739 25.3289H43.7539C43.5365 24.8099 43.2205 24.3306 42.8145 23.9246C41.9919 23.1016 40.8755 22.6382 39.7105 22.6382C37.2872 22.6382 35.3219 24.6052 35.3219 27.0282C35.3219 29.4519 37.2872 31.4169 39.7105 31.4169C41.8702 31.4169 43.6632 29.8546 44.0299 27.7992H48.0395C50.3382 27.7992 50.6975 27.2266 51.3605 25.6102L53.4435 20.5326L56.0599 27.1949C56.4295 28.1346 57.8375 27.5802 57.4679 26.6412L56.7335 24.7786C57.9749 24.7802 58.9795 25.7869 58.9795 27.0282C58.9795 28.2712 57.9712 29.2782 56.7299 29.2782C55.4869 29.2782 54.4799 28.2712 54.4799 27.0282C54.4799 26.7559 54.5285 26.4972 54.6169 26.2559L53.6809 23.8792C52.8565 24.6759 52.3409 25.7906 52.3409 27.0282C52.3409 29.4519 54.3062 31.4169 56.7295 31.4169C59.1529 31.4169 61.1199 29.4519 61.1199 27.0282C61.1199 25.8656 60.6565 24.7489 59.8335 23.9246C59.0092 23.1016 57.8929 22.6382 56.7295 22.6382C56.4535 22.6382 56.1825 22.6679 55.9202 22.7166L54.7399 19.7169H55.3079C55.8839 19.7169 56.2275 19.5502 56.2275 19.0066V16.9366C56.2275 16.3936 55.8835 16.2269 55.3079 16.2269H54.9585C54.4192 16.2269 53.9412 16.4729 53.6235 16.8572L52.1325 13.0536C51.9922 12.6956 51.7105 12.5762 51.4279 12.5762H49.7882Z" fill="white"></path></svg>