<svg xmlns="http://www.w3.org/2000/svg" width="119" height="60" viewBox="0 0 119 60" fill="none"><path d="M118.752 0.234375C118.752 0.234375 115.809 20.1965 99.0983 28.4941V42.1759C99.0983 46.8465 97.2943 51.0816 94.3414 54.2554C92.5958 56.1559 90.4249 57.6705 87.9836 58.6556C86.4106 59.3018 84.7323 59.717 82.9664 59.8719C82.8991 59.8909 82.8026 59.8909 82.7353 59.8909C82.5716 59.8998 82.3976 59.9201 82.2237 59.9201C81.9343 59.9392 81.6258 59.9493 81.3262 59.9493H17.7823C16.0456 59.9493 14.3673 59.6979 12.774 59.2346C12.2053 59.0606 11.6454 58.8677 11.0957 58.6468C4.59316 56.0112 0 49.6242 0 42.1759V19.483C0 9.66064 7.97012 1.69052 17.7823 1.69052H81.3262C89.7495 1.69052 96.7929 7.56717 98.6261 15.4395C103.865 14.0215 112.067 10.2484 118.752 0.234375Z" fill="#02A8DF"></path><path d="M27.9033 48.0244V39.6734H29.1917V48.0244H27.9033ZM28.4759 44.4693V43.2286H32.7826V44.4693H28.4759ZM28.4759 40.9141V39.6734H33.3195V40.9141H28.4759ZM38.5438 48.0244V43.9444C38.5438 43.5944 38.4166 43.3121 38.162 43.0973C37.9155 42.8746 37.6013 42.7633 37.2196 42.7633C36.8696 42.7633 36.5515 42.8349 36.2652 42.978C35.9868 43.1212 35.7323 43.3399 35.5017 43.6342L34.7023 42.8349C35.0762 42.4292 35.4778 42.127 35.9073 41.9282C36.3447 41.7293 36.814 41.6299 37.315 41.6299C37.7922 41.6299 38.2058 41.7095 38.5557 41.8685C38.9057 42.0276 39.1761 42.2622 39.367 42.5724C39.5579 42.8746 39.6533 43.2445 39.6533 43.6819V48.0244H38.5438ZM36.6708 48.1437C36.2652 48.1437 35.9033 48.0642 35.5852 47.9051C35.267 47.746 35.0125 47.5273 34.8216 47.249C34.6387 46.9626 34.5473 46.6286 34.5473 46.2468C34.5473 45.9128 34.6069 45.6185 34.7262 45.364C34.8455 45.1095 35.0205 44.8988 35.2511 44.7317C35.4897 44.5647 35.784 44.4375 36.1339 44.35C36.4918 44.2625 36.9014 44.2187 37.3627 44.2187H39.1045L38.9971 45.197H37.2076C36.969 45.197 36.7543 45.2209 36.5634 45.2686C36.3805 45.3083 36.2214 45.376 36.0862 45.4714C35.959 45.5589 35.8635 45.6662 35.7999 45.7935C35.7363 45.9128 35.7045 46.056 35.7045 46.223C35.7045 46.398 35.7482 46.553 35.8357 46.6883C35.9232 46.8155 36.0425 46.9149 36.1936 46.9865C36.3447 47.0581 36.5197 47.0939 36.7185 47.0939C37.0048 47.0939 37.2753 47.0462 37.5298 46.9507C37.7922 46.8473 38.0229 46.7081 38.2217 46.5332C38.4285 46.3582 38.5876 46.1633 38.6989 45.9486L38.9852 46.7479C38.8182 47.0263 38.6114 47.2688 38.3649 47.4756C38.1183 47.6824 37.8519 47.8455 37.5655 47.9648C37.2792 48.0841 36.981 48.1437 36.6708 48.1437ZM43.5327 48.1437C43.0078 48.1437 42.5345 48.0523 42.113 47.8693C41.6915 47.6864 41.3415 47.416 41.0632 47.0581L41.8983 46.3423C42.1369 46.6207 42.3954 46.8235 42.6737 46.9507C42.9601 47.07 43.2822 47.1297 43.6401 47.1297C43.7832 47.1297 43.9145 47.1138 44.0338 47.0819C44.161 47.0422 44.2684 46.9865 44.3559 46.9149C44.4513 46.8433 44.5229 46.7598 44.5706 46.6644C44.6183 46.561 44.6422 46.4497 44.6422 46.3304C44.6422 46.1236 44.5666 45.9565 44.4155 45.8293C44.336 45.7736 44.2087 45.714 44.0338 45.6503C43.8667 45.5788 43.648 45.5072 43.3776 45.4356C42.9163 45.3163 42.5385 45.1811 42.2443 45.03C41.95 44.8789 41.7233 44.7079 41.5642 44.517C41.4449 44.3659 41.3575 44.2028 41.3018 44.0279C41.2461 43.8449 41.2183 43.6461 41.2183 43.4314C41.2183 43.0814 41.3177 42.7712 41.5165 42.5008C41.7154 42.2304 41.9818 42.0196 42.3158 41.8685C42.6578 41.7095 43.0396 41.6299 43.4611 41.6299C43.7554 41.6299 44.0457 41.6697 44.332 41.7492C44.6263 41.8288 44.8967 41.9441 45.1432 42.0952C45.3898 42.2463 45.5966 42.4253 45.7636 42.6321L45.0597 43.4075C44.9086 43.2564 44.7416 43.1252 44.5587 43.0138C44.3837 42.8945 44.2048 42.803 44.0218 42.7394C43.8389 42.6758 43.6719 42.644 43.5208 42.644C43.3537 42.644 43.2026 42.6599 43.0674 42.6917C42.9322 42.7235 42.8169 42.7712 42.7215 42.8349C42.634 42.8985 42.5664 42.978 42.5186 43.0735C42.4709 43.1689 42.4471 43.2763 42.4471 43.3956C42.455 43.499 42.4789 43.5984 42.5186 43.6938C42.5664 43.7813 42.63 43.8569 42.7095 43.9205C42.797 43.9841 42.9282 44.0517 43.1032 44.1233C43.2782 44.1949 43.5009 44.2625 43.7713 44.3261C44.169 44.4295 44.495 44.5448 44.7496 44.6721C45.012 44.7914 45.2188 44.9306 45.3699 45.0896C45.529 45.2407 45.6403 45.4157 45.704 45.6146C45.7676 45.8134 45.7994 46.0361 45.7994 46.2826C45.7994 46.6405 45.696 46.9626 45.4892 47.249C45.2904 47.5273 45.02 47.746 44.678 47.9051C44.336 48.0642 43.9542 48.1437 43.5327 48.1437ZM47.3922 48.0244V39.1962H48.621V43.0496L48.4063 43.1928C48.4858 42.9144 48.6409 42.6599 48.8716 42.4292C49.1022 42.1906 49.3766 41.9998 49.6947 41.8566C50.0129 41.7055 50.3389 41.6299 50.673 41.6299C51.1502 41.6299 51.5479 41.7254 51.866 41.9163C52.1841 42.0992 52.4227 42.3815 52.5818 42.7633C52.7409 43.145 52.8204 43.6262 52.8204 44.2068V48.0244H51.5916V44.2903C51.5916 43.9324 51.5439 43.6381 51.4484 43.4075C51.353 43.1689 51.2059 42.9979 51.007 42.8945C50.8082 42.7832 50.5616 42.7354 50.2674 42.7514C50.0288 42.7514 49.8101 42.7911 49.6112 42.8707C49.4124 42.9422 49.2374 43.0456 49.0863 43.1808C48.9431 43.316 48.8278 43.4751 48.7403 43.658C48.6608 43.833 48.621 44.0239 48.621 44.2307V48.0244H48.0126C47.9092 48.0244 47.8058 48.0244 47.7024 48.0244C47.599 48.0244 47.4956 48.0244 47.3922 48.0244ZM54.9287 48.0244V41.7612H56.1575V48.0244H54.9287ZM55.5252 40.3773C55.2628 40.3773 55.06 40.3097 54.9168 40.1745C54.7736 40.0393 54.7021 39.8484 54.7021 39.6018C54.7021 39.3712 54.7736 39.1843 54.9168 39.0411C55.0679 38.898 55.2707 38.8264 55.5252 38.8264C55.7877 38.8264 55.9905 38.894 56.1337 39.0292C56.2768 39.1644 56.3484 39.3553 56.3484 39.6018C56.3484 39.8325 56.2729 40.0194 56.1217 40.1625C55.9786 40.3057 55.7797 40.3773 55.5252 40.3773ZM61.1004 48.1437C60.488 48.1437 59.9392 48.0045 59.454 47.7262C58.9768 47.4398 58.599 47.0541 58.3207 46.569C58.0423 46.0758 57.9031 45.5151 57.9031 44.8868C57.9031 44.2585 58.0423 43.7018 58.3207 43.2166C58.599 42.7235 58.9768 42.3378 59.454 42.0594C59.9392 41.7731 60.488 41.6299 61.1004 41.6299C61.7048 41.6299 62.2457 41.7731 62.7229 42.0594C63.208 42.3378 63.5898 42.7235 63.8681 43.2166C64.1465 43.7018 64.2857 44.2585 64.2857 44.8868C64.2857 45.5151 64.1465 46.0758 63.8681 46.569C63.5898 47.0541 63.208 47.4398 62.7229 47.7262C62.2457 48.0045 61.7048 48.1437 61.1004 48.1437ZM61.1004 47.0223C61.4742 47.0223 61.8082 46.9308 62.1025 46.7479C62.3968 46.557 62.6274 46.3025 62.7944 45.9844C62.9615 45.6583 63.041 45.2924 63.033 44.8868C63.041 44.4732 62.9615 44.1074 62.7944 43.7893C62.6274 43.4632 62.3968 43.2087 62.1025 43.0257C61.8082 42.8428 61.4742 42.7514 61.1004 42.7514C60.7266 42.7514 60.3885 42.8468 60.0863 43.0377C59.792 43.2206 59.5614 43.4751 59.3944 43.8012C59.2274 44.1193 59.1478 44.4812 59.1558 44.8868C59.1478 45.2924 59.2274 45.6583 59.3944 45.9844C59.5614 46.3025 59.792 46.557 60.0863 46.7479C60.3885 46.9308 60.7266 47.0223 61.1004 47.0223ZM65.8632 48.0244V41.7612H67.092V43.0496L66.8773 43.1928C66.9568 42.9144 67.1119 42.6599 67.3426 42.4292C67.5732 42.1906 67.8476 41.9998 68.1657 41.8566C68.4839 41.7055 68.81 41.6299 69.144 41.6299C69.6212 41.6299 70.0189 41.7254 70.337 41.9163C70.6551 42.0992 70.8937 42.3815 71.0528 42.7633C71.2119 43.145 71.2914 43.6262 71.2914 44.2068V48.0244H70.0626V44.2903C70.0626 43.9324 70.0149 43.6381 69.9194 43.4075C69.824 43.1689 69.6769 42.9979 69.478 42.8945C69.2792 42.7832 69.0326 42.7354 68.7384 42.7514C68.4998 42.7514 68.2811 42.7911 68.0822 42.8707C67.8834 42.9422 67.7084 43.0456 67.5573 43.1808C67.4141 43.316 67.2988 43.4751 67.2113 43.658C67.1318 43.833 67.092 44.0239 67.092 44.2307V48.0244H66.4836C66.3802 48.0244 66.2768 48.0244 66.1734 48.0244C66.07 48.0244 65.9666 48.0244 65.8632 48.0244Z" fill="white"></path><g clip-path="url(#clip0_6201_272)"><path d="M54.1308 21.9342H50.6157C50.0695 21.9342 49.5685 21.6923 49.2334 21.2891L48.4541 22.6061H50.0507C51.1843 22.6061 52.0347 23.6393 51.8198 24.7505L51.7325 25.2014C51.9452 25.2154 52.159 25.2222 52.3733 25.2222C53.804 25.2222 55.8483 24.642 57.1426 24.0437L55.5131 21.2891C55.178 21.6923 54.677 21.9342 54.1308 21.9342Z" fill="white"></path><path d="M51.5028 26.3895L51.2449 27.721C51.6169 27.7634 51.9933 27.785 52.3733 27.785C54.2498 27.785 56.7838 26.856 58.2579 25.929L57.7569 25.082C56.3606 25.7476 54.0696 26.4235 52.3733 26.4235C52.0818 26.4235 51.7915 26.4119 51.5028 26.3895Z" fill="white"></path><path d="M59.5599 28.1306L58.8691 26.9629C57.2121 27.996 54.4786 28.9863 52.3731 28.9863C51.9162 28.9863 51.4633 28.9587 51.016 28.9034C50.4948 31.5952 50.5335 31.4031 50.515 31.4735C54.0156 32.0716 57.5131 30.8802 59.4706 28.875C59.6604 28.6898 59.7138 28.3777 59.5599 28.1306Z" fill="white"></path><path d="M47.9636 15.1024C47.9779 15.217 47.8525 14.8773 50.0587 20.3563C50.15 20.5837 50.3707 20.7327 50.6157 20.7327H54.1308C54.3759 20.7327 54.5965 20.5837 54.6878 20.3563C56.7344 15.2739 56.745 15.2483 56.7465 15.2442C56.8014 15.103 56.7999 14.9548 56.7557 14.8297C56.6542 14.5156 56.124 14.0756 55.7859 13.8899V12.0474C55.7859 11.7159 55.5172 11.4468 55.1852 11.4468C54.8536 11.4468 54.5845 11.7159 54.5845 12.0474V13.5579C53.6982 13.5268 52.8863 13.9234 52.3733 14.5646C51.8563 13.9184 51.0422 13.5271 50.162 13.5579V12.0474C50.162 11.7159 49.8929 11.4468 49.5614 11.4468C49.2294 11.4468 48.9607 11.7159 48.9607 12.0474V13.8899C48.593 14.0919 48.0856 14.5364 47.9908 14.8297C47.9595 14.9186 47.9516 15.0185 47.9636 15.1024Z" fill="white"></path><path d="M39.2093 24.5222L40.4908 31.1427C40.5456 31.425 40.7927 31.6293 41.0806 31.6293H42.1166C42.1114 30.3999 42.0883 33.1996 42.1174 23.8074H39.7992C39.4221 23.8074 39.1377 24.1514 39.2093 24.5222Z" fill="white"></path><path d="M43.3185 31.6293H46.532L46.5432 29.0664H43.3073L43.3185 31.6293Z" fill="white"></path><path d="M43.3063 27.8651H46.5435L46.5307 23.8074H43.3191L43.3063 27.8651Z" fill="white"></path><path d="M50.0507 23.8074H47.7325C47.7624 33.4387 47.7391 30.2432 47.7333 31.6293H48.7693C49.0572 31.6293 49.3043 31.425 49.3592 31.1427L50.6406 24.5222C50.7121 24.152 50.4284 23.8074 50.0507 23.8074Z" fill="white"></path><path d="M46.92 21.0027C45.1457 19.2301 42.103 20.5014 42.103 22.9986L42.1174 23.8075H43.3192L43.3044 22.9986C43.3044 22.105 44.0313 21.378 44.925 21.378C45.8206 21.378 46.5456 22.1026 46.5456 22.9986L46.5307 23.8075H47.7325C47.7458 23.0598 47.896 21.9787 46.92 21.0027Z" fill="white"></path></g><defs><clipPath id="clip0_6201_272"><rect width="20.4514" height="20.4514" fill="white" transform="translate(39.1987 11.3123)"></rect></clipPath></defs></svg>