<svg xmlns="http://www.w3.org/2000/svg" width="119" height="60" viewBox="0 0 119 60" fill="none"><path d="M118.752 0.234375C118.752 0.234375 115.809 20.1965 99.0983 28.4941V42.1759C99.0983 46.8465 97.2943 51.0816 94.3414 54.2554C92.5958 56.1559 90.4249 57.6705 87.9836 58.6556C86.4106 59.3018 84.7323 59.717 82.9664 59.8719C82.8991 59.8909 82.8026 59.8909 82.7353 59.8909C82.5716 59.8998 82.3976 59.9201 82.2237 59.9201C81.9343 59.9392 81.6258 59.9493 81.3262 59.9493H17.7823C16.0456 59.9493 14.3673 59.6979 12.774 59.2346C12.2053 59.0606 11.6454 58.8677 11.0957 58.6468C4.59316 56.0112 0 49.6242 0 42.1759V19.483C0 9.66064 7.97012 1.69052 17.7823 1.69052H81.3262C89.7495 1.69052 96.7929 7.56717 98.6261 15.4395C103.865 14.0215 112.067 10.2484 118.752 0.234375Z" fill="#FD5900"></path><path d="M21.8336 48.0244V39.6734H25.2337C25.687 39.6734 26.0966 39.7887 26.4624 40.0194C26.8363 40.2421 27.1345 40.5483 27.3572 40.938C27.5799 41.3277 27.6912 41.7612 27.6912 42.2384C27.6912 42.7156 27.5799 43.149 27.3572 43.5387C27.1345 43.9284 26.8363 44.2426 26.4624 44.4812C26.0966 44.7118 25.687 44.8272 25.2337 44.8272H23.122V48.0244H21.8336ZM23.122 43.5865H25.2098C25.4245 43.5865 25.6194 43.5268 25.7944 43.4075C25.9693 43.2802 26.1085 43.1172 26.2119 42.9184C26.3233 42.7116 26.3789 42.4849 26.3789 42.2384C26.3789 41.9918 26.3233 41.7691 26.2119 41.5703C26.1085 41.3714 25.9693 41.2124 25.7944 41.0931C25.6194 40.9738 25.4245 40.9141 25.2098 40.9141H23.122V43.5865ZM32.9169 48.0244V43.9444C32.9169 43.5944 32.7896 43.3121 32.5351 43.0973C32.2885 42.8746 31.9744 42.7633 31.5926 42.7633C31.2427 42.7633 30.9245 42.8349 30.6382 42.978C30.3599 43.1212 30.1054 43.3399 29.8747 43.6342L29.0754 42.8349C29.4492 42.4292 29.8508 42.127 30.2803 41.9282C30.7178 41.7293 31.187 41.6299 31.6881 41.6299C32.1653 41.6299 32.5788 41.7095 32.9288 41.8685C33.2787 42.0276 33.5492 42.2622 33.74 42.5724C33.9309 42.8746 34.0264 43.2445 34.0264 43.6819V48.0244H32.9169ZM31.0438 48.1437C30.6382 48.1437 30.2764 48.0642 29.9582 47.9051C29.6401 47.746 29.3856 47.5273 29.1947 47.249C29.0118 46.9626 28.9203 46.6286 28.9203 46.2468C28.9203 45.9128 28.98 45.6185 29.0993 45.364C29.2186 45.1095 29.3935 44.8988 29.6242 44.7317C29.8628 44.5647 30.1571 44.4375 30.507 44.35C30.8649 44.2625 31.2745 44.2187 31.7358 44.2187H33.4776L33.3702 45.197H31.5807C31.3421 45.197 31.1274 45.2209 30.9365 45.2686C30.7536 45.3083 30.5945 45.376 30.4593 45.4714C30.332 45.5589 30.2366 45.6662 30.173 45.7935C30.1093 45.9128 30.0775 46.056 30.0775 46.223C30.0775 46.398 30.1213 46.553 30.2087 46.6883C30.2962 46.8155 30.4155 46.9149 30.5666 46.9865C30.7178 47.0581 30.8927 47.0939 31.0916 47.0939C31.3779 47.0939 31.6483 47.0462 31.9028 46.9507C32.1653 46.8473 32.3959 46.7081 32.5948 46.5332C32.8015 46.3582 32.9606 46.1633 33.072 45.9486L33.3583 46.7479C33.1913 47.0263 32.9845 47.2688 32.7379 47.4756C32.4914 47.6824 32.2249 47.8455 31.9386 47.9648C31.6523 48.0841 31.354 48.1437 31.0438 48.1437ZM37.9057 48.1437C37.3808 48.1437 36.9076 48.0523 36.4861 47.8693C36.0645 47.6864 35.7146 47.416 35.4362 47.0581L36.2713 46.3423C36.5099 46.6207 36.7684 46.8235 37.0468 46.9507C37.3331 47.07 37.6552 47.1297 38.0131 47.1297C38.1563 47.1297 38.2875 47.1138 38.4068 47.0819C38.5341 47.0422 38.6414 46.9865 38.7289 46.9149C38.8244 46.8433 38.8959 46.7598 38.9437 46.6644C38.9914 46.561 39.0152 46.4497 39.0152 46.3304C39.0152 46.1236 38.9397 45.9565 38.7886 45.8293C38.709 45.7736 38.5818 45.714 38.4068 45.6503C38.2398 45.5788 38.0211 45.5072 37.7507 45.4356C37.2894 45.3163 36.9116 45.1811 36.6173 45.03C36.323 44.8789 36.0964 44.7079 35.9373 44.517C35.818 44.3659 35.7305 44.2028 35.6748 44.0279C35.6192 43.8449 35.5913 43.6461 35.5913 43.4314C35.5913 43.0814 35.6907 42.7712 35.8896 42.5008C36.0884 42.2304 36.3548 42.0196 36.6889 41.8685C37.0309 41.7095 37.4126 41.6299 37.8342 41.6299C38.1284 41.6299 38.4187 41.6697 38.7051 41.7492C38.9993 41.8288 39.2697 41.9441 39.5163 42.0952C39.7629 42.2463 39.9696 42.4253 40.1367 42.6321L39.4328 43.4075C39.2817 43.2564 39.1147 43.1252 38.9317 43.0138C38.7568 42.8945 38.5778 42.803 38.3949 42.7394C38.2119 42.6758 38.0449 42.644 37.8938 42.644C37.7268 42.644 37.5757 42.6599 37.4405 42.6917C37.3053 42.7235 37.1899 42.7712 37.0945 42.8349C37.007 42.8985 36.9394 42.978 36.8917 43.0735C36.844 43.1689 36.8201 43.2763 36.8201 43.3956C36.8281 43.499 36.8519 43.5984 36.8917 43.6938C36.9394 43.7813 37.003 43.8569 37.0826 43.9205C37.1701 43.9841 37.3013 44.0517 37.4763 44.1233C37.6512 44.1949 37.8739 44.2625 38.1443 44.3261C38.542 44.4295 38.8681 44.5448 39.1226 44.6721C39.3851 44.7914 39.5919 44.9306 39.743 45.0896C39.902 45.2407 40.0134 45.4157 40.077 45.6146C40.1406 45.8134 40.1724 46.0361 40.1724 46.2826C40.1724 46.6405 40.0691 46.9626 39.8623 47.249C39.6634 47.5273 39.393 47.746 39.051 47.9051C38.709 48.0642 38.3273 48.1437 37.9057 48.1437ZM43.853 48.1437C43.3281 48.1437 42.8549 48.0523 42.4334 47.8693C42.0118 47.6864 41.6619 47.416 41.3835 47.0581L42.2186 46.3423C42.4572 46.6207 42.7157 46.8235 42.9941 46.9507C43.2804 47.07 43.6025 47.1297 43.9604 47.1297C44.1036 47.1297 44.2348 47.1138 44.3541 47.0819C44.4814 47.0422 44.5887 46.9865 44.6762 46.9149C44.7716 46.8433 44.8432 46.7598 44.891 46.6644C44.9387 46.561 44.9625 46.4497 44.9625 46.3304C44.9625 46.1236 44.887 45.9565 44.7359 45.8293C44.6563 45.7736 44.5291 45.714 44.3541 45.6503C44.1871 45.5788 43.9684 45.5072 43.6979 45.4356C43.2367 45.3163 42.8589 45.1811 42.5646 45.03C42.2703 44.8789 42.0437 44.7079 41.8846 44.517C41.7653 44.3659 41.6778 44.2028 41.6221 44.0279C41.5665 43.8449 41.5386 43.6461 41.5386 43.4314C41.5386 43.0814 41.638 42.7712 41.8369 42.5008C42.0357 42.2304 42.3021 42.0196 42.6362 41.8685C42.9782 41.7095 43.3599 41.6299 43.7815 41.6299C44.0757 41.6299 44.366 41.6697 44.6523 41.7492C44.9466 41.8288 45.217 41.9441 45.4636 42.0952C45.7101 42.2463 45.9169 42.4253 46.084 42.6321L45.3801 43.4075C45.229 43.2564 45.0619 43.1252 44.879 43.0138C44.704 42.8945 44.5251 42.803 44.3422 42.7394C44.1592 42.6758 43.9922 42.644 43.8411 42.644C43.6741 42.644 43.523 42.6599 43.3878 42.6917C43.2526 42.7235 43.1372 42.7712 43.0418 42.8349C42.9543 42.8985 42.8867 42.978 42.839 43.0735C42.7913 43.1689 42.7674 43.2763 42.7674 43.3956C42.7754 43.499 42.7992 43.5984 42.839 43.6938C42.8867 43.7813 42.9503 43.8569 43.0299 43.9205C43.1174 43.9841 43.2486 44.0517 43.4236 44.1233C43.5985 44.1949 43.8212 44.2625 44.0916 44.3261C44.4893 44.4295 44.8154 44.5448 45.0699 44.6721C45.3324 44.7914 45.5391 44.9306 45.6903 45.0896C45.8493 45.2407 45.9607 45.4157 46.0243 45.6146C46.0879 45.8134 46.1197 46.0361 46.1197 46.2826C46.1197 46.6405 46.0163 46.9626 45.8096 47.249C45.6107 47.5273 45.3403 47.746 44.9983 47.9051C44.6563 48.0642 44.2746 48.1437 43.853 48.1437ZM47.7126 50.649V41.7612H48.9533V43.1928L48.7624 43.0854C48.8101 42.8468 48.9454 42.6201 49.168 42.4054C49.3907 42.1827 49.6612 42.0037 49.9793 41.8685C50.3054 41.7254 50.6394 41.6538 50.9814 41.6538C51.5461 41.6538 52.0472 41.793 52.4846 42.0713C52.922 42.3497 53.268 42.7315 53.5225 43.2166C53.777 43.7018 53.9043 44.2585 53.9043 44.8868C53.9043 45.5072 53.777 46.0639 53.5225 46.557C53.2759 47.0422 52.9339 47.4279 52.4965 47.7142C52.0591 47.9926 51.566 48.1318 51.0172 48.1318C50.6513 48.1318 50.2974 48.0602 49.9554 47.917C49.6134 47.7659 49.3231 47.5751 49.0845 47.3444C48.8459 47.1138 48.6988 46.8752 48.6431 46.6286L48.9533 46.4616V50.649H47.7126ZM50.8144 46.9984C51.1802 46.9984 51.5063 46.907 51.7926 46.724C52.079 46.5411 52.3056 46.2906 52.4727 45.9725C52.6397 45.6543 52.7232 45.2924 52.7232 44.8868C52.7232 44.4812 52.6397 44.1233 52.4727 43.8131C52.3136 43.495 52.0909 43.2445 51.8046 43.0615C51.5183 42.8786 51.1882 42.7871 50.8144 42.7871C50.4406 42.7871 50.1105 42.8786 49.8242 43.0615C49.5379 43.2365 49.3112 43.4831 49.1442 43.8012C48.9772 44.1193 48.8937 44.4812 48.8937 44.8868C48.8937 45.2924 48.9772 45.6543 49.1442 45.9725C49.3112 46.2906 49.5379 46.5411 49.8242 46.724C50.1105 46.907 50.4406 46.9984 50.8144 46.9984ZM58.2928 48.1437C57.6804 48.1437 57.1316 48.0045 56.6465 47.7262C56.1693 47.4398 55.7915 47.0541 55.5131 46.569C55.2348 46.0758 55.0956 45.5151 55.0956 44.8868C55.0956 44.2585 55.2348 43.7018 55.5131 43.2166C55.7915 42.7235 56.1693 42.3378 56.6465 42.0594C57.1316 41.7731 57.6804 41.6299 58.2928 41.6299C58.8973 41.6299 59.4381 41.7731 59.9153 42.0594C60.4005 42.3378 60.7822 42.7235 61.0606 43.2166C61.3389 43.7018 61.4781 44.2585 61.4781 44.8868C61.4781 45.5151 61.3389 46.0758 61.0606 46.569C60.7822 47.0541 60.4005 47.4398 59.9153 47.7262C59.4381 48.0045 58.8973 48.1437 58.2928 48.1437ZM58.2928 47.0223C58.6666 47.0223 59.0007 46.9308 59.2949 46.7479C59.5892 46.557 59.8199 46.3025 59.9869 45.9844C60.1539 45.6583 60.2334 45.2924 60.2255 44.8868C60.2334 44.4732 60.1539 44.1074 59.9869 43.7893C59.8199 43.4632 59.5892 43.2087 59.2949 43.0257C59.0007 42.8428 58.6666 42.7514 58.2928 42.7514C57.919 42.7514 57.581 42.8468 57.2788 43.0377C56.9845 43.2206 56.7538 43.4751 56.5868 43.8012C56.4198 44.1193 56.3403 44.4812 56.3482 44.8868C56.3403 45.2924 56.4198 45.6583 56.5868 45.9844C56.7538 46.3025 56.9845 46.557 57.2788 46.7479C57.581 46.9308 57.919 47.0223 58.2928 47.0223ZM63.0557 48.0244V41.7612H64.2964V43.7296L64.1771 43.2524C64.2646 42.9502 64.4117 42.6758 64.6185 42.4292C64.8333 42.1827 65.0758 41.9878 65.3463 41.8447C65.6246 41.7015 65.9109 41.6299 66.2052 41.6299C66.3404 41.6299 66.4677 41.6419 66.587 41.6657C66.7142 41.6896 66.8136 41.7174 66.8852 41.7492L66.5631 43.0854C66.4677 43.0456 66.3603 43.0138 66.241 42.99C66.1297 42.9581 66.0183 42.9422 65.907 42.9422C65.6922 42.9422 65.4854 42.986 65.2866 43.0735C65.0957 43.153 64.9247 43.2683 64.7736 43.4194C64.6305 43.5626 64.5151 43.7336 64.4276 43.9324C64.3402 44.1233 64.2964 44.3341 64.2964 44.5647V48.0244H63.0557ZM69.1144 48.0244V40.1625H70.3432V48.0244H69.1144ZM67.814 42.9542V41.7612H71.7986V42.9542H67.814ZM75.4769 48.1437C74.952 48.1437 74.4787 48.0523 74.0572 47.8693C73.6357 47.6864 73.2857 47.416 73.0074 47.0581L73.8425 46.3423C74.0811 46.6207 74.3396 46.8235 74.6179 46.9507C74.9042 47.07 75.2263 47.1297 75.5842 47.1297C75.7274 47.1297 75.8586 47.1138 75.9779 47.0819C76.1052 47.0422 76.2126 46.9865 76.3 46.9149C76.3955 46.8433 76.4671 46.7598 76.5148 46.6644C76.5625 46.561 76.5864 46.4497 76.5864 46.3304C76.5864 46.1236 76.5108 45.9565 76.3597 45.8293C76.2802 45.7736 76.1529 45.714 75.9779 45.6503C75.8109 45.5788 75.5922 45.5072 75.3218 45.4356C74.8605 45.3163 74.4827 45.1811 74.1884 45.03C73.8942 44.8789 73.6675 44.7079 73.5084 44.517C73.3891 44.3659 73.3016 44.2028 73.246 44.0279C73.1903 43.8449 73.1625 43.6461 73.1625 43.4314C73.1625 43.0814 73.2619 42.7712 73.4607 42.5008C73.6595 42.2304 73.926 42.0196 74.26 41.8685C74.602 41.7095 74.9838 41.6299 75.4053 41.6299C75.6996 41.6299 75.9899 41.6697 76.2762 41.7492C76.5705 41.8288 76.8409 41.9441 77.0874 42.0952C77.334 42.2463 77.5408 42.4253 77.7078 42.6321L77.0039 43.4075C76.8528 43.2564 76.6858 43.1252 76.5029 43.0138C76.3279 42.8945 76.1489 42.803 75.966 42.7394C75.7831 42.6758 75.6161 42.644 75.4649 42.644C75.2979 42.644 75.1468 42.6599 75.0116 42.6917C74.8764 42.7235 74.7611 42.7712 74.6656 42.8349C74.5782 42.8985 74.5105 42.978 74.4628 43.0735C74.4151 43.1689 74.3912 43.2763 74.3912 43.3956C74.3992 43.499 74.4231 43.5984 74.4628 43.6938C74.5105 43.7813 74.5742 43.8569 74.6537 43.9205C74.7412 43.9841 74.8724 44.0517 75.0474 44.1233C75.2224 44.1949 75.4451 44.2625 75.7155 44.3261C76.1131 44.4295 76.4392 44.5448 76.6937 44.6721C76.9562 44.7914 77.163 44.9306 77.3141 45.0896C77.4732 45.2407 77.5845 45.4157 77.6481 45.6146C77.7118 45.8134 77.7436 46.0361 77.7436 46.2826C77.7436 46.6405 77.6402 46.9626 77.4334 47.249C77.2346 47.5273 76.9642 47.746 76.6222 47.9051C76.2802 48.0642 75.8984 48.1437 75.4769 48.1437Z" fill="white"></path><path d="M46.577 24.6248H53.1311C53.299 24.6249 53.4652 24.5919 53.6203 24.5276C53.7754 24.4634 53.9163 24.3693 54.035 24.2506C54.1537 24.1319 54.2479 23.9909 54.3121 23.8358C54.3763 23.6807 54.4094 23.5145 54.4093 23.3466V13.7089C54.4094 13.541 54.3763 13.3748 54.3121 13.2197C54.2479 13.0646 54.1537 12.9236 54.035 12.8049C53.9163 12.6862 53.7754 12.5921 53.6203 12.5279C53.4652 12.4636 53.299 12.4306 53.1311 12.4307H46.577C46.4092 12.4306 46.2429 12.4636 46.0878 12.5279C45.9327 12.5921 45.7918 12.6862 45.6731 12.8049C45.5544 12.9236 45.4602 13.0646 45.396 13.2197C45.3318 13.3748 45.2988 13.541 45.2988 13.7089V23.3466C45.2988 23.5145 45.3318 23.6807 45.396 23.8358C45.4602 23.9909 45.5544 24.1319 45.6731 24.2506C45.7918 24.3693 45.9327 24.4634 46.0878 24.5276C46.2429 24.5919 46.4092 24.6249 46.577 24.6248ZM49.8525 13.6897C50.6705 13.6901 51.455 14.015 52.0337 14.5931C52.6124 15.1712 52.9381 15.9554 52.9394 16.7734C52.7714 20.8671 46.9369 20.8692 46.7688 16.7734C46.7698 15.9558 47.095 15.1721 47.6731 14.594C48.2512 14.016 49.0349 13.6907 49.8525 13.6897ZM52.8627 21.7648C52.8624 21.8495 52.8287 21.9306 52.7688 21.9905C52.7089 22.0504 52.6278 22.0841 52.5431 22.0844H47.165C47.0803 22.0844 46.999 22.0507 46.9391 21.9908C46.8791 21.9309 46.8455 21.8496 46.8455 21.7648C46.8455 21.6801 46.8791 21.5988 46.9391 21.5389C46.999 21.4789 47.0803 21.4453 47.165 21.4453H52.5431C52.5851 21.4451 52.6267 21.4533 52.6656 21.4693C52.7044 21.4853 52.7397 21.5088 52.7694 21.5385C52.7991 21.5682 52.8226 21.6035 52.8386 21.6424C52.8546 21.6812 52.8628 21.7228 52.8627 21.7648Z" fill="white"></path><path d="M57.4005 16.115C57.3192 15.9927 57.2143 15.8878 57.092 15.8066C56.9696 15.7254 56.8322 15.6694 56.6879 15.6421L55.0486 15.3162V23.3465C55.0484 23.855 54.8464 24.3426 54.4868 24.7022C54.1273 25.0617 53.6397 25.2637 53.1312 25.2639H46.6794C46.6986 25.5067 46.7967 25.7366 46.9589 25.9184C47.1211 26.1002 47.3383 26.2238 47.5774 26.2705L54.3296 27.603C54.6192 27.6585 54.919 27.5977 55.1642 27.4339C55.4093 27.27 55.5802 27.0162 55.6397 26.7274L57.5666 16.9491C57.6237 16.66 57.564 16.3601 57.4005 16.115Z" fill="white"></path><path d="M47.4525 26.9001C47.0552 26.8204 46.6976 26.6062 46.4397 26.2936C46.1819 25.9811 46.0396 25.5893 46.0368 25.1841C45.6397 25.0675 45.2909 24.8256 45.0427 24.4944C44.7944 24.1632 44.66 23.7606 44.6596 23.3467C44.6587 22.9581 44.6601 18.3726 44.6596 18.1379L42.0872 18.8314C41.9459 18.8693 41.8135 18.9346 41.6975 19.0238C41.5816 19.1129 41.4843 19.224 41.4113 19.3507C41.3383 19.4774 41.291 19.6173 41.272 19.7623C41.2531 19.9073 41.263 20.0547 41.301 20.1959L43.8926 29.8208C43.9699 30.105 44.1564 30.347 44.4113 30.4943C44.6663 30.6415 44.9692 30.682 45.2539 30.6069L51.9038 28.8174C52.1082 28.7629 52.2928 28.6513 52.436 28.4957C52.5791 28.34 52.675 28.1468 52.7123 27.9387C52.5514 27.908 47.7945 26.9664 47.4525 26.9001Z" fill="white"></path><path d="M52.1533 17.6074C51.7738 17.7521 51.3777 17.8487 50.9741 17.895C50.9269 18.2987 50.8292 18.6948 50.6833 19.0742C51.021 18.9525 51.3277 18.758 51.5817 18.5045C51.8358 18.2511 52.0309 17.9448 52.1533 17.6074Z" fill="white"></path><path d="M52.153 15.9394C52.0307 15.6029 51.8359 15.2974 51.5825 15.0445C51.329 14.7915 51.0231 14.5974 50.6863 14.4758C50.8306 14.8543 50.9272 15.2494 50.9739 15.6518C51.3774 15.6981 51.7735 15.7947 52.153 15.9394Z" fill="white"></path><path d="M49.0214 14.4758C48.6847 14.5974 48.3787 14.7915 48.1253 15.0445C47.8718 15.2974 47.677 15.6029 47.5547 15.9394C47.9344 15.7954 48.3305 15.6988 48.7338 15.6518C48.7805 15.2494 48.8771 14.8543 49.0214 14.4758Z" fill="white"></path><path d="M49.0246 19.0742C48.8788 18.6948 48.7811 18.2987 48.7338 17.895C48.3305 17.848 47.9344 17.7514 47.5547 17.6074C47.6771 17.9448 47.8722 18.2511 48.1263 18.5045C48.3803 18.758 48.687 18.9525 49.0246 19.0742Z" fill="white"></path><path d="M49.3826 17.9558C49.5104 18.7643 49.7469 19.1861 49.8619 19.2212C49.9642 19.1861 50.1974 18.7643 50.3221 17.9558C50.0091 17.9734 49.6955 17.9734 49.3826 17.9558Z" fill="white"></path><path d="M50.3221 15.5911C50.1901 14.7896 49.9755 14.3665 49.8395 14.3289C49.7341 14.38 49.5072 14.7986 49.3826 15.5911C49.6955 15.5735 50.0091 15.5735 50.3221 15.5911Z" fill="white"></path><path d="M49.8523 17.3294C50.4238 17.3533 50.43 17.3424 50.4082 16.7733C50.4307 16.2059 50.4204 16.1945 49.8522 16.2174C49.2867 16.1955 49.2753 16.2034 49.2995 16.7734C49.2769 17.3435 49.2819 17.3532 49.8523 17.3294Z" fill="white"></path><path d="M51.0472 16.7735C51.0472 16.93 51.044 17.0898 51.0344 17.2464C51.8345 17.113 52.2597 16.8944 52.2999 16.7639C52.2518 16.6525 51.8312 16.4304 51.0344 16.3037C51.044 16.4603 51.0472 16.6169 51.0472 16.7735Z" fill="white"></path><path d="M48.6604 16.7735C48.6604 16.6169 48.6636 16.4603 48.6732 16.3037C47.876 16.4338 47.4626 16.6517 47.4045 16.783C47.4589 16.8994 47.8709 17.1181 48.6732 17.2464C48.6636 17.0898 48.6604 16.93 48.6604 16.7735Z" fill="white"></path></svg>