<svg xmlns="http://www.w3.org/2000/svg" width="122" height="59" viewBox="0 0 122 59" fill="none"><path d="M121.726 17.8935V40.5864C121.726 45.2557 119.931 49.4921 116.979 52.666C114.093 55.7916 110.09 57.8761 105.604 58.2722C105.527 58.3014 105.44 58.3014 105.363 58.3014H105.334C105.18 58.3116 105.015 58.3205 104.861 58.3205C104.562 58.3497 104.253 58.3585 103.955 58.3585H40.4199C39.1174 58.3585 37.844 58.2138 36.6278 57.9434C35.6249 57.7314 34.6601 57.4318 33.7333 57.056C27.2206 54.4217 22.6287 48.0347 22.6287 40.5864V35.2696C3.62129 27.8504 0.378906 5.85201 0.378906 5.85201C8.05957 17.3527 17.727 20.6243 22.6287 21.5497V17.8935C22.6287 8.07113 30.5975 0.102295 40.4199 0.102295H103.955C113.777 0.102295 121.727 8.07113 121.727 17.8935H121.726Z" fill="#00AFE9"></path><path d="M50.1891 45.4552C49.6085 45.4552 49.0756 45.3518 48.5905 45.1451C48.1053 44.9383 47.6838 44.644 47.3259 44.2622C46.968 43.8725 46.6896 43.4152 46.4908 42.8903C46.2999 42.3654 46.2045 41.7887 46.2045 41.1604C46.2045 40.5639 46.3079 40.0112 46.5147 39.5022C46.7294 38.9852 47.0237 38.5319 47.3975 38.1421C47.7713 37.7524 48.2047 37.4502 48.6978 37.2355C49.191 37.0207 49.7238 36.9134 50.2965 36.9134C50.7021 36.9134 51.0958 36.977 51.4775 37.1042C51.8673 37.2235 52.2172 37.3945 52.5274 37.6172C52.8455 37.832 53.104 38.0785 53.3028 38.3569L52.4439 39.2516C52.1019 38.9017 51.7519 38.6392 51.394 38.4643C51.0361 38.2893 50.6703 38.2018 50.2965 38.2018C49.9068 38.2018 49.5409 38.2774 49.1989 38.4285C48.8649 38.5716 48.5706 38.7744 48.3161 39.0369C48.0695 39.2994 47.8747 39.6135 47.7315 39.9794C47.5884 40.3373 47.5168 40.731 47.5168 41.1604C47.5168 41.6138 47.5844 42.0273 47.7196 42.4012C47.8627 42.767 48.0616 43.0812 48.3161 43.3436C48.5706 43.6061 48.8728 43.8089 49.2228 43.9521C49.5807 44.0873 49.9744 44.1549 50.4038 44.1549C50.6663 44.1549 50.9248 44.1191 51.1793 44.0475C51.4338 43.9759 51.6724 43.8725 51.8951 43.7373C52.1178 43.6021 52.3206 43.443 52.5035 43.2601L53.1477 44.31C52.9648 44.5247 52.7143 44.7196 52.3962 44.8945C52.086 45.0695 51.736 45.2087 51.3463 45.3121C50.9646 45.4075 50.5788 45.4552 50.1891 45.4552ZM54.8503 45.3359V36.5077H56.0791V45.3359H54.8503ZM60.7582 45.4552C60.1457 45.4552 59.597 45.3161 59.1118 45.0377C58.6346 44.7514 58.2568 44.3656 57.9785 43.8805C57.7001 43.3874 57.5609 42.8267 57.5609 42.1983C57.5609 41.57 57.7001 41.0133 57.9785 40.5281C58.2568 40.035 58.6346 39.6493 59.1118 39.3709C59.597 39.0846 60.1457 38.9415 60.7582 38.9415C61.3626 38.9415 61.9034 39.0846 62.3806 39.3709C62.8658 39.6493 63.2475 40.035 63.5259 40.5281C63.8043 41.0133 63.9435 41.57 63.9435 42.1983C63.9435 42.8267 63.8043 43.3874 63.5259 43.8805C63.2475 44.3656 62.8658 44.7514 62.3806 45.0377C61.9034 45.3161 61.3626 45.4552 60.7582 45.4552ZM60.7582 44.3338C61.132 44.3338 61.466 44.2424 61.7603 44.0594C62.0545 43.8685 62.2852 43.614 62.4522 43.2959C62.6192 42.9698 62.6988 42.604 62.6908 42.1983C62.6988 41.7848 62.6192 41.4189 62.4522 41.1008C62.2852 40.7747 62.0545 40.5202 61.7603 40.3373C61.466 40.1543 61.132 40.0629 60.7582 40.0629C60.3843 40.0629 60.0463 40.1583 59.7441 40.3492C59.4498 40.5321 59.2192 40.7866 59.0522 41.1127C58.8851 41.4308 58.8056 41.7927 58.8136 42.1983C58.8056 42.604 58.8851 42.9698 59.0522 43.2959C59.2192 43.614 59.4498 43.8685 59.7441 44.0594C60.0463 44.2424 60.3843 44.3338 60.7582 44.3338ZM66.2965 45.3359V37.4741H67.5253V45.3359H66.2965ZM64.9961 40.2657V39.0727H68.9807V40.2657H64.9961ZM70.3382 45.3359V36.5077H71.567V40.3611L71.3523 40.5043C71.4318 40.2259 71.5869 39.9714 71.8175 39.7408C72.0482 39.5022 72.3226 39.3113 72.6407 39.1681C72.9589 39.017 73.2849 38.9415 73.619 38.9415C74.0962 38.9415 74.4938 39.0369 74.812 39.2278C75.1301 39.4107 75.3687 39.693 75.5278 40.0748C75.6868 40.4566 75.7664 40.9377 75.7664 41.5183V45.3359H74.5376V41.6018C74.5376 41.2439 74.4899 40.9497 74.3944 40.719C74.299 40.4804 74.1519 40.3094 73.953 40.206C73.7542 40.0947 73.5076 40.047 73.2134 40.0629C72.9748 40.0629 72.756 40.1026 72.5572 40.1822C72.3584 40.2538 72.1834 40.3571 72.0323 40.4924C71.8891 40.6276 71.7738 40.7866 71.6863 40.9696C71.6068 41.1445 71.567 41.3354 71.567 41.5422V45.3359H70.9586C70.8552 45.3359 70.7518 45.3359 70.6484 45.3359C70.545 45.3359 70.4416 45.3359 70.3382 45.3359ZM77.8747 45.3359V39.0727H79.1035V45.3359H77.8747ZM78.4712 37.6888C78.2088 37.6888 78.006 37.6212 77.8628 37.486C77.7196 37.3508 77.6481 37.1599 77.6481 36.9134C77.6481 36.6827 77.7196 36.4958 77.8628 36.3526C78.0139 36.2095 78.2167 36.1379 78.4712 36.1379C78.7337 36.1379 78.9365 36.2055 79.0797 36.3407C79.2228 36.4759 79.2944 36.6668 79.2944 36.9134C79.2944 37.144 79.2188 37.3309 79.0677 37.4741C78.9246 37.6172 78.7257 37.6888 78.4712 37.6888ZM81.2309 45.3359V39.0727H82.4597V40.3611L82.2449 40.5043C82.3245 40.2259 82.4796 39.9714 82.7102 39.7408C82.9408 39.5022 83.2152 39.3113 83.5334 39.1681C83.8515 39.017 84.1776 38.9415 84.5116 38.9415C84.9888 38.9415 85.3865 39.0369 85.7046 39.2278C86.0228 39.4107 86.2614 39.693 86.4204 40.0748C86.5795 40.4566 86.659 40.9377 86.659 41.5183V45.3359H85.4302V41.6018C85.4302 41.2439 85.3825 40.9497 85.2871 40.719C85.1916 40.4804 85.0445 40.3094 84.8457 40.206C84.6468 40.0947 84.4003 40.047 84.106 40.0629C83.8674 40.0629 83.6487 40.1026 83.4499 40.1822C83.251 40.2538 83.0761 40.3571 82.9249 40.4924C82.7818 40.6276 82.6665 40.7866 82.579 40.9696C82.4994 41.1445 82.4597 41.3354 82.4597 41.5422V45.3359H81.8512C81.7478 45.3359 81.6445 45.3359 81.5411 45.3359C81.4377 45.3359 81.3343 45.3359 81.2309 45.3359ZM91.3681 48.0798C90.9227 48.0798 90.4774 48.0083 90.032 47.8651C89.5945 47.7299 89.2406 47.5509 88.9702 47.3282L89.4235 46.3738C89.6621 46.5568 89.9564 46.7039 90.3064 46.8153C90.6643 46.9266 91.0182 46.9823 91.3681 46.9823C91.8056 46.9823 92.1714 46.9107 92.4657 46.7675C92.76 46.6244 92.9827 46.4136 93.1338 46.1352C93.2849 45.8569 93.3604 45.5109 93.3604 45.0973V43.8924L93.4917 43.9759C93.4519 44.2225 93.3207 44.4611 93.098 44.6917C92.8832 44.9144 92.6128 45.0973 92.2867 45.2405C91.9606 45.3837 91.6266 45.4552 91.2846 45.4552C90.6881 45.4552 90.1552 45.3161 89.686 45.0377C89.2247 44.7514 88.8588 44.3656 88.5884 43.8805C88.318 43.3874 88.1828 42.8267 88.1828 42.1983C88.1828 41.57 88.314 41.0133 88.5765 40.5281C88.8469 40.035 89.2128 39.6493 89.6741 39.3709C90.1433 39.0846 90.6682 38.9415 91.2488 38.9415C91.4874 38.9415 91.7181 38.9733 91.9408 39.0369C92.1635 39.0926 92.3702 39.1761 92.5611 39.2874C92.752 39.3908 92.923 39.5061 93.0741 39.6334C93.2252 39.7606 93.3485 39.8959 93.4439 40.039C93.5394 40.1822 93.599 40.3174 93.6229 40.4446L93.3604 40.5401V39.0727H94.5892V44.9542C94.5892 45.4552 94.5137 45.8966 94.3626 46.2784C94.2194 46.6681 94.0086 46.9942 93.7303 47.2567C93.4519 47.5271 93.1139 47.7299 92.7162 47.8651C92.3185 48.0083 91.8692 48.0798 91.3681 48.0798ZM91.4158 44.3219C91.8056 44.3219 92.1515 44.2304 92.4538 44.0475C92.756 43.8646 92.9906 43.614 93.1576 43.2959C93.3246 42.9778 93.4082 42.6119 93.4082 42.1983C93.4082 41.7848 93.3207 41.4189 93.1457 41.1008C92.9787 40.7747 92.7441 40.5202 92.4418 40.3373C92.1476 40.1543 91.8056 40.0629 91.4158 40.0629C91.0341 40.0629 90.6921 40.1583 90.3899 40.3492C90.0956 40.5321 89.861 40.7866 89.686 41.1127C89.519 41.4308 89.4355 41.7927 89.4355 42.1983C89.4355 42.604 89.519 42.9698 89.686 43.2959C89.861 43.614 90.0956 43.8646 90.3899 44.0475C90.6921 44.2304 91.0341 44.3219 91.4158 44.3219Z" fill="white"></path><g clip-path="url(#clip0_6201_154)"><path d="M71.4062 27.2776H62.4188C61.9224 27.2776 61.52 27.68 61.52 28.1763C61.52 28.6727 61.9224 29.0751 62.4188 29.0751H71.4062C71.9026 29.0751 72.305 28.6727 72.305 28.1763C72.305 27.68 71.9026 27.2776 71.4062 27.2776Z" fill="white"></path><path d="M77.9455 14.6554H74.7016V15.2222L73.5033 14.8228V13.3411C74.5361 13.0748 75.3008 12.1351 75.3008 11.0204C75.3008 9.69868 74.2259 8.62378 72.9041 8.62378C71.5824 8.62378 70.5075 9.69868 70.5075 11.0204H71.7058C71.7058 10.3598 72.2435 9.82211 72.9041 9.82211C73.5648 9.82211 74.1024 10.3598 74.1024 11.0204C74.1024 11.6811 73.5648 12.2188 72.9041 12.2188H72.3049V14.8228L71.1066 15.2222V14.6554H67.8627L65.115 17.4031V21.8453H67.5116V23.0836H71.4062C72.5624 23.0836 73.5033 24.0245 73.5033 25.1807C73.5033 25.7676 73.2592 26.2975 72.8692 26.6786C73.2592 27.0596 73.5033 27.5895 73.5033 28.1765C73.5033 28.4993 73.4239 28.8017 73.2929 29.0752H78.2966V21.8453H80.6932V17.4031L77.9455 14.6554ZM72.9041 18.2503C71.9235 18.2503 71.1268 17.4605 71.1097 16.4839L72.9041 15.8858L74.6985 16.4839C74.6815 17.4605 73.8848 18.2503 72.9041 18.2503Z" fill="white"></path><path d="M71.4062 24.282H62.4188C61.9224 24.282 61.52 24.6844 61.52 25.1807C61.52 25.6771 61.9224 26.0795 62.4188 26.0795H71.4062C71.9026 26.0795 72.305 25.6771 72.305 25.1807C72.305 24.6844 71.9026 24.282 71.4062 24.282Z" fill="white"></path></g><defs><clipPath id="clip0_6201_154"><rect width="20.4514" height="20.4514" fill="white" transform="translate(60.8811 8.62378)"></rect></clipPath></defs></svg>