<svg xmlns="http://www.w3.org/2000/svg" width="100" height="84" viewBox="0 0 100 84" fill="none"><path d="M0.54126 18.0598V40.778C0.54126 48.2304 5.13342 54.618 11.6468 57.2571C13.7155 58.1021 15.9747 58.5659 18.3394 58.5659H59.6256C60.5443 61.4897 61.5786 64.0653 62.6867 66.336C70.2458 81.9384 81.1074 83.3006 81.1074 83.3006C77.3602 79.669 74.9104 74.4326 73.3271 69.2178C72.1658 65.4491 71.4479 61.6905 71.0158 58.5659H81.9308C82.237 58.5659 82.5433 58.5557 82.838 58.5341C83.007 58.5341 83.176 58.5125 83.345 58.5024C83.4187 58.5024 83.5039 58.5024 83.5776 58.4808C88.0744 58.0792 92.0859 55.989 94.9678 52.8645C97.9233 49.6878 99.7289 45.4438 99.7289 40.778V18.0598C99.7289 8.23129 91.7593 0.261719 81.9308 0.261719H18.3407C8.5121 0.261719 0.542528 8.23129 0.542528 18.0598H0.54126Z" fill="#7678E0"></path><path d="M31.9678 46.1858C31.3401 46.1858 30.7943 46.0664 30.3303 45.8276C29.8731 45.5888 29.4808 45.2408 29.1533 44.7837L30.013 43.8011C30.3473 44.2719 30.6714 44.596 30.9853 44.7734C31.306 44.944 31.6676 45.0293 32.0702 45.0293C32.3022 45.0293 32.5137 44.9952 32.7047 44.927C32.8958 44.8587 33.0459 44.7632 33.1551 44.6404C33.2643 44.5107 33.3188 44.3606 33.3188 44.1901C33.3188 44.0741 33.295 43.9683 33.2472 43.8728C33.2063 43.7704 33.1414 43.6817 33.0527 43.6067C32.9709 43.5248 32.8651 43.4497 32.7355 43.3815C32.6126 43.3133 32.4659 43.2553 32.2954 43.2075C32.1316 43.1529 31.9508 43.1086 31.7529 43.0745C31.3708 42.9994 31.0399 42.9005 30.7601 42.7777C30.4872 42.648 30.2552 42.4911 30.0642 42.3069C29.8799 42.1158 29.7401 41.9043 29.6445 41.6723C29.5558 41.4335 29.5115 41.164 29.5115 40.8637C29.5115 40.4612 29.6241 40.1064 29.8492 39.7993C30.0812 39.4855 30.3883 39.2398 30.7704 39.0624C31.1593 38.885 31.5857 38.7963 32.0497 38.7963C32.6502 38.7963 33.1585 38.9055 33.5747 39.1238C33.9977 39.3422 34.3287 39.6526 34.5675 40.0552L33.6873 40.9149C33.4826 40.6011 33.2404 40.3622 32.9606 40.1985C32.6809 40.0347 32.3772 39.9528 32.0497 39.9528C31.8041 39.9528 31.5892 39.9904 31.4049 40.0654C31.2275 40.1337 31.0877 40.2326 30.9853 40.3622C30.883 40.4851 30.8318 40.6352 30.8318 40.8126C30.8318 40.9422 30.8591 41.0616 30.9137 41.1708C30.9751 41.28 31.0638 41.3755 31.1798 41.4574C31.2958 41.5392 31.4425 41.6109 31.6199 41.6723C31.7973 41.7337 32.002 41.7883 32.2339 41.8361C32.6092 41.9179 32.9436 42.0203 33.237 42.1431C33.5372 42.2659 33.7896 42.416 33.9943 42.5934C34.2059 42.764 34.3662 42.9619 34.4754 43.187C34.5845 43.4054 34.6391 43.651 34.6391 43.924C34.6391 44.3879 34.53 44.7905 34.3116 45.1317C34.0933 45.4728 33.7828 45.7355 33.3802 45.9197C32.9777 46.0971 32.5069 46.1858 31.9678 46.1858ZM38.5532 46.1858C37.9869 46.1858 37.4854 46.0698 37.0487 45.8379C36.6188 45.599 36.2811 45.2749 36.0355 44.8656C35.7966 44.4493 35.6772 43.9717 35.6772 43.4327C35.6772 43.0096 35.7455 42.6241 35.8819 42.2761C36.0184 41.9282 36.2095 41.6279 36.4551 41.3755C36.7007 41.1162 36.9907 40.9183 37.325 40.7819C37.6662 40.6386 38.0347 40.5669 38.4304 40.5669C38.792 40.5669 39.123 40.6352 39.4232 40.7716C39.7302 40.9081 39.9963 41.0957 40.2215 41.3345C40.4467 41.5665 40.6172 41.8463 40.7332 42.1738C40.8561 42.4945 40.9141 42.8459 40.9072 43.228L40.897 43.6783H36.537L36.2913 42.8084H39.8428L39.6893 42.9823V42.7469C39.6688 42.5423 39.6006 42.3614 39.4846 42.2045C39.3686 42.0407 39.2185 41.9145 39.0343 41.8258C38.8569 41.7303 38.659 41.6825 38.4406 41.6825C38.1063 41.6825 37.8231 41.7473 37.5911 41.877C37.3592 41.9998 37.1818 42.184 37.0589 42.4297C36.9429 42.6753 36.8849 42.9789 36.8849 43.3406C36.8849 43.6886 36.9566 43.9922 37.0999 44.2515C37.25 44.5107 37.4615 44.712 37.7344 44.8553C38.0074 44.9986 38.3246 45.0703 38.6863 45.0703C38.9387 45.0703 39.1707 45.0293 39.3822 44.9474C39.6006 44.8656 39.8326 44.7189 40.0782 44.5073L40.6923 45.3671C40.5081 45.5376 40.2966 45.6843 40.0577 45.8072C39.8257 45.9232 39.5801 46.0153 39.3208 46.0835C39.0616 46.1517 38.8057 46.1858 38.5532 46.1858ZM45.2308 46.0835V42.6344C45.2308 42.341 45.1319 42.1124 44.934 41.9486C44.7429 41.7781 44.4939 41.6928 44.1868 41.6928C43.9003 41.6928 43.641 41.7508 43.409 41.8668C43.177 41.9759 42.9621 42.1533 42.7642 42.399L41.9864 41.6211C42.307 41.28 42.6619 41.0207 43.0508 40.8433C43.4397 40.6659 43.8593 40.5772 44.3097 40.5772C44.7395 40.5772 45.108 40.6454 45.415 40.7819C45.7289 40.9183 45.9711 41.123 46.1417 41.396C46.3123 41.6621 46.3976 41.9896 46.3976 42.3785V46.0835H45.2308ZM43.6956 46.1858C43.3476 46.1858 43.0371 46.1176 42.7642 45.9811C42.4913 45.8447 42.2729 45.657 42.1092 45.4182C41.9522 45.1726 41.8738 44.886 41.8738 44.5585C41.8738 44.2719 41.925 44.0229 42.0273 43.8114C42.1296 43.593 42.2798 43.4122 42.4776 43.2689C42.6823 43.1256 42.9348 43.0199 43.235 42.9516C43.542 42.8766 43.8934 42.8391 44.2892 42.8391H45.8346L45.7425 43.7397H44.2175C44.0333 43.7397 43.8696 43.7568 43.7263 43.7909C43.583 43.825 43.4602 43.8762 43.3578 43.9444C43.2555 44.0127 43.1804 44.0945 43.1327 44.1901C43.0849 44.2788 43.061 44.3879 43.061 44.5176C43.061 44.654 43.0951 44.7734 43.1634 44.8758C43.2316 44.9713 43.3237 45.0464 43.4397 45.101C43.5557 45.1555 43.6922 45.1828 43.8491 45.1828C44.0743 45.1828 44.2858 45.1453 44.4837 45.0703C44.6883 44.9952 44.8692 44.8894 45.0261 44.753C45.183 44.6165 45.3058 44.463 45.3945 44.2924L45.6504 44.9884C45.5071 45.2272 45.3297 45.4353 45.1182 45.6127C44.9135 45.7901 44.6883 45.93 44.4427 46.0323C44.2039 46.1347 43.9549 46.1858 43.6956 46.1858ZM48.3567 46.0835V40.1985C48.3567 39.8778 48.4284 39.5912 48.5717 39.3388C48.7149 39.0795 48.9128 38.8782 49.1653 38.7349C49.4177 38.5848 49.7077 38.5097 50.0352 38.5097C50.2672 38.5097 50.4822 38.5507 50.68 38.6326C50.8847 38.7144 51.0519 38.8236 51.1815 38.9601L50.7926 39.8914C50.7039 39.8232 50.6084 39.7686 50.506 39.7277C50.4105 39.6799 50.3184 39.656 50.2297 39.656C50.0932 39.656 49.9772 39.6799 49.8817 39.7277C49.793 39.7686 49.7248 39.8334 49.677 39.9221C49.6361 40.0108 49.6156 40.12 49.6156 40.2497V46.0835H48.981C48.8651 46.0835 48.7525 46.0835 48.6433 46.0835C48.541 46.0835 48.4454 46.0835 48.3567 46.0835ZM47.5175 41.9077V40.8023H50.8335V41.9077H47.5175ZM54.2676 46.1858C53.7285 46.1858 53.2475 46.0664 52.8245 45.8276C52.4014 45.582 52.0671 45.2477 51.8214 44.8246C51.5826 44.4016 51.4632 43.9205 51.4632 43.3815C51.4632 42.8425 51.5826 42.3614 51.8214 41.9384C52.0671 41.5154 52.4014 41.1844 52.8245 40.9456C53.2475 40.7 53.7285 40.5772 54.2676 40.5772C54.7998 40.5772 55.2774 40.7 55.7004 40.9456C56.1235 41.1844 56.4544 41.5154 56.6932 41.9384C56.9389 42.3614 57.0617 42.8425 57.0617 43.3815C57.0617 43.9205 56.9389 44.4016 56.6932 44.8246C56.4544 45.2477 56.1235 45.582 55.7004 45.8276C55.2774 46.0664 54.7998 46.1858 54.2676 46.1858ZM54.2676 45.0703C54.561 45.0703 54.8237 44.9986 55.0556 44.8553C55.2876 44.7052 55.4685 44.5039 55.5981 44.2515C55.7346 43.9922 55.7994 43.7022 55.7926 43.3815C55.7994 43.054 55.7346 42.764 55.5981 42.5115C55.4685 42.2523 55.2876 42.051 55.0556 41.9077C54.8237 41.7644 54.561 41.6928 54.2676 41.6928C53.9742 41.6928 53.7081 41.7678 53.4693 41.9179C53.2373 42.0612 53.0564 42.2625 52.9268 42.5218C52.7972 42.7742 52.7323 43.0608 52.7323 43.3815C52.7323 43.7022 52.7972 43.9922 52.9268 44.2515C53.0564 44.5039 53.2373 44.7052 53.4693 44.8553C53.7081 44.9986 53.9742 45.0703 54.2676 45.0703ZM60.7723 46.1858C60.2332 46.1858 59.7522 46.0664 59.3292 45.8276C58.9061 45.582 58.5718 45.2477 58.3261 44.8246C58.0873 44.4016 57.9679 43.9205 57.9679 43.3815C57.9679 42.8425 58.0873 42.3614 58.3261 41.9384C58.5718 41.5154 58.9061 41.1844 59.3292 40.9456C59.7522 40.7 60.2332 40.5772 60.7723 40.5772C61.3045 40.5772 61.7821 40.7 62.2051 40.9456C62.6282 41.1844 62.9591 41.5154 63.1979 41.9384C63.4436 42.3614 63.5664 42.8425 63.5664 43.3815C63.5664 43.9205 63.4436 44.4016 63.1979 44.8246C62.9591 45.2477 62.6282 45.582 62.2051 45.8276C61.7821 46.0664 61.3045 46.1858 60.7723 46.1858ZM60.7723 45.0703C61.0657 45.0703 61.3284 44.9986 61.5603 44.8553C61.7923 44.7052 61.9731 44.5039 62.1028 44.2515C62.2393 43.9922 62.3041 43.7022 62.2973 43.3815C62.3041 43.054 62.2393 42.764 62.1028 42.5115C61.9731 42.2523 61.7923 42.051 61.5603 41.9077C61.3284 41.7644 61.0657 41.6928 60.7723 41.6928C60.4789 41.6928 60.2128 41.7678 59.974 41.9179C59.742 42.0612 59.5611 42.2625 59.4315 42.5218C59.3019 42.7742 59.237 43.0608 59.237 43.3815C59.237 43.7022 59.3019 43.9922 59.4315 44.2515C59.5611 44.5039 59.742 44.7052 59.974 44.8553C60.2128 44.9986 60.4789 45.0703 60.7723 45.0703ZM67.0006 46.1858C66.5162 46.1858 66.0829 46.0664 65.7008 45.8276C65.3255 45.582 65.0253 45.2511 64.8001 44.8348C64.5818 44.4118 64.4726 43.9274 64.4726 43.3815C64.4726 42.8425 64.5818 42.3614 64.8001 41.9384C65.0185 41.5154 65.3153 41.1844 65.6906 40.9456C66.0727 40.7 66.5025 40.5772 66.9802 40.5772C67.2394 40.5772 67.4885 40.6181 67.7273 40.7C67.9729 40.7819 68.1913 40.8944 68.3823 41.0377C68.5802 41.1742 68.7337 41.3277 68.8429 41.4983C68.9589 41.6689 69.0203 41.8463 69.0271 42.0305L68.6894 42.0715V38.5097H69.9482V46.0835H68.7303L68.6996 44.8246L68.9452 44.8451C68.9384 45.0088 68.8804 45.1692 68.7712 45.3261C68.6621 45.4831 68.5154 45.6263 68.3311 45.756C68.1537 45.8856 67.949 45.9914 67.7171 46.0733C67.4851 46.1483 67.2463 46.1858 67.0006 46.1858ZM67.236 45.1214C67.5294 45.1214 67.7887 45.0498 68.0139 44.9065C68.239 44.7564 68.413 44.5517 68.5358 44.2924C68.6655 44.0263 68.7303 43.7227 68.7303 43.3815C68.7303 43.0403 68.6655 42.7401 68.5358 42.4808C68.413 42.2216 68.239 42.0169 68.0139 41.8668C67.7887 41.7166 67.5294 41.6416 67.236 41.6416C66.9358 41.6416 66.6731 41.7166 66.4479 41.8668C66.2296 42.0169 66.0556 42.2216 65.926 42.4808C65.7963 42.7401 65.7315 43.0403 65.7315 43.3815C65.7315 43.7227 65.7963 44.0263 65.926 44.2924C66.0556 44.5517 66.2296 44.7564 66.4479 44.9065C66.6731 45.0498 66.9358 45.1214 67.236 45.1214Z" fill="white"></path><g clip-path="url(#clip0_6201_405)"><path d="M57.8649 18.3682C57.8116 18.3606 57.7609 18.3401 57.7172 18.3086C57.6735 18.2771 57.6381 18.2355 57.614 18.1873L56.6462 16.2493C56.5194 16.7539 56.5775 17.2873 56.8101 17.7528L56.8787 17.8894C56.8984 17.9289 56.9101 17.9718 56.913 18.0157C56.916 18.0597 56.9102 18.1038 56.896 18.1455C56.8818 18.1872 56.8595 18.2257 56.8304 18.2587C56.8012 18.2917 56.7658 18.3186 56.7261 18.3379L54.2004 19.5626L54.5806 18.0384C53.6862 18.5761 52.9861 19.3845 52.5816 20.3465L52.0888 20.5854C50.9294 21.1479 49.8603 21.8802 48.9168 22.758V21.0368L48.3084 21.4933C47.9692 21.7476 47.7299 22.1129 47.6325 22.5256C47.5351 22.9382 47.5857 23.3719 47.7754 23.7511L47.842 23.8864C46.4041 25.5874 45.4298 27.6309 45.0134 29.819L46.7859 29.0598C46.8275 29.0418 46.8724 29.0326 46.9178 29.0328C46.9837 29.0328 47.0481 29.0523 47.1029 29.089C47.1576 29.1256 47.2003 29.1776 47.2255 29.2385C47.2507 29.2993 47.2573 29.3663 47.2445 29.4309C47.2316 29.4955 47.1999 29.5549 47.1533 29.6015L46.2338 30.521C47.3949 30.2685 48.5169 29.8611 49.5694 29.3096C49.5062 28.2886 49.0718 27.326 48.3481 26.603L48.8192 26.1319C49.5817 26.8927 50.0696 27.8854 50.2061 28.9538C50.9958 28.4817 51.734 27.9284 52.4087 27.303C53.4083 27.1574 54.3512 26.7485 55.1406 26.1183L55.2469 26.0343H53.6074C54.2944 25.2085 54.8785 24.3023 55.3468 23.3357C56.276 22.9266 57.0558 22.24 57.5791 21.37L56.1008 21.7395L57.2792 19.2294C57.306 19.1724 57.3483 19.1242 57.4014 19.0903C57.4545 19.0564 57.5161 19.0382 57.5791 19.0379H57.8316C58.3956 19.0394 58.949 18.885 59.4308 18.5917L57.8649 18.3682ZM46.9178 28.3665C46.786 28.3665 46.6572 28.3274 46.5476 28.2542C46.438 28.1809 46.3526 28.0769 46.3022 27.9551C46.2518 27.8334 46.2386 27.6994 46.2643 27.5701C46.29 27.4409 46.3534 27.3221 46.4466 27.229C46.5398 27.1358 46.6585 27.0723 46.7878 27.0466C46.9171 27.0209 47.051 27.0341 47.1728 27.0845C47.2945 27.1349 47.3986 27.2204 47.4718 27.3299C47.545 27.4395 47.5841 27.5683 47.5841 27.7001C47.5841 27.8768 47.5139 28.0463 47.389 28.1713C47.264 28.2963 47.0945 28.3665 46.9178 28.3665Z" fill="white"></path><path d="M43.2578 21.6366C43.2751 22.241 43.4262 22.834 43.7002 23.373L42.5951 23.5429C41.9516 22.7329 41.5223 21.7739 41.3468 20.7544L43.2578 21.6366ZM45.0762 25.4113C44.3529 25.1136 43.6931 24.6805 43.1322 24.1353L44.08 23.9897L45.0762 25.4113ZM43.2994 20.9219L41.2645 19.9827C41.2605 19.8918 41.2542 19.8015 41.2542 19.7099C41.2556 18.6265 41.578 17.5678 42.1807 16.6674L44.0644 19.0662C43.6611 19.6127 43.3984 20.25 43.2994 20.9219ZM45.2501 17.9841C44.9835 18.1465 44.7364 18.3391 44.5138 18.5581L42.5975 16.1197C42.9897 15.6664 43.4539 15.2809 43.9714 14.9786C44.3446 14.761 44.7322 14.5692 45.1315 14.4046L45.1149 14.5045C44.9847 15.2863 44.9192 16.0775 44.919 16.87C44.9176 17.2645 45.0684 17.6443 45.3401 17.9305L45.2501 17.9841ZM48.3086 17.6453C47.9805 17.8995 47.5775 18.0377 47.1625 18.0384C46.9173 18.039 46.6744 17.991 46.4479 17.8972C46.2214 17.8034 46.0157 17.6655 45.8428 17.4917C45.7609 17.4102 45.6959 17.3132 45.6517 17.2065C45.6075 17.0997 45.5849 16.9852 45.5853 16.8697C45.5854 16.1137 45.6479 15.3591 45.7722 14.6135L45.8518 14.1404C45.9851 14.0977 46.1183 14.0581 46.2536 14.0211L47.2025 13.7622C48.6573 13.3669 50.1775 13.2722 51.6702 13.484L52.3389 13.5793L51.1551 14.3686C51.0808 14.2416 50.9665 14.1428 50.8301 14.0877C50.6937 14.0325 50.5429 14.024 50.4011 14.0635C50.2594 14.103 50.1347 14.1884 50.0466 14.3062C49.9585 14.424 49.9118 14.5677 49.9139 14.7148C49.916 14.8619 49.9667 15.0042 50.0581 15.1195C50.1496 15.2347 50.2766 15.3165 50.4194 15.352C50.5622 15.3875 50.7127 15.3747 50.8475 15.3157C50.9823 15.2566 51.0937 15.1546 51.1645 15.0256C51.2042 15.0369 51.2456 15.0408 51.2867 15.0369L52.4884 14.9037C51.0239 15.704 49.6261 16.6209 48.3086 17.6453Z" fill="white"></path><path d="M52.3973 12.916L52.4073 12.909C52.6163 12.7594 52.7724 12.5474 52.8532 12.3035C52.9339 12.0595 52.9352 11.7963 52.8567 11.5516C52.7782 11.3069 52.6241 11.0934 52.4165 10.9419C52.2089 10.7905 51.9586 10.7088 51.7017 10.7087C47.6311 10.7126 43.6229 11.7081 40.0236 13.6093L39.7654 13.7459L40.0772 14.3349L40.3351 14.1983C43.8383 12.3477 47.7397 11.3787 51.7017 11.3751C51.8174 11.3752 51.9302 11.4121 52.0237 11.4804C52.1172 11.5487 52.1866 11.6449 52.2219 11.7552C52.2573 11.8654 52.2567 11.9841 52.2203 12.094C52.184 12.2039 52.1136 12.2995 52.0195 12.3669L51.4318 12.7867C51.5424 12.799 51.6533 12.8093 51.7633 12.8253L52.3973 12.916Z" fill="white"></path><path d="M45.1699 18.8603L46.3283 20.2509C46.3656 20.2955 46.4139 20.3296 46.4684 20.3497C46.523 20.3699 46.5818 20.3755 46.6392 20.3658L48.6382 20.0327L48.5289 19.3757L46.7181 19.6772L45.7186 18.4778L45.5914 18.5541C45.4433 18.6452 45.3024 18.7476 45.1699 18.8603Z" fill="white"></path><path d="M44.5945 19.4689L45.2868 20.8532C45.3083 20.8963 45.3389 20.9341 45.3765 20.9642C45.414 20.9943 45.4577 21.0159 45.5044 21.0275L47.7632 21.5939L47.9245 20.9478L45.8142 20.4201L45.0776 18.9465C44.8989 19.1035 44.737 19.2786 44.5945 19.4689Z" fill="white"></path><path d="M44.9693 22.2125C44.9993 22.2604 45.0409 22.2999 45.0904 22.3273C45.1398 22.3547 45.1954 22.369 45.2519 22.369H47.2508V21.7027H45.4368L44.319 19.9153C44.1886 20.1626 44.0887 20.4248 44.0215 20.6962L44.9693 22.2125Z" fill="white"></path><path d="M44.0017 22.2561L44.9856 23.5681C45.0166 23.6094 45.0568 23.643 45.1031 23.6662C45.1494 23.6893 45.2004 23.7013 45.2521 23.7013C45.2659 23.7013 45.2797 23.7004 45.2934 23.6987L47.3634 23.4401L47.2807 22.7788L45.4027 23.012L43.9481 21.073C43.8965 21.4669 43.9147 21.8668 44.0017 22.2544V22.2561Z" fill="white"></path></g><defs><clipPath id="clip0_6201_405"><rect width="21.3225" height="21.3225" fill="white" transform="translate(38.9219 9.64355)"></rect></clipPath></defs></svg>