<svg xmlns="http://www.w3.org/2000/svg" width="100" height="84" viewBox="0 0 100 84" fill="none"><path d="M100 18.2186V40.9166C100 48.5947 95.1277 55.1442 88.3027 57.6236C86.4048 58.3092 84.3583 58.6888 82.228 58.6888H40.609C40.4719 59.1102 40.3347 59.5216 40.1875 59.9228C39.1008 62.9607 37.7513 65.6598 36.2634 68.0541C35.673 69.0139 35.0611 69.9216 34.4289 70.776C28.2793 79.2133 20.9185 83.0104 20.6012 83.1691C23.7864 77.8422 25.8634 72.7272 27.171 68.0554C28.1307 64.6695 28.6792 61.516 28.9851 58.69H18.6804C15.7274 58.69 12.9434 57.9727 10.4957 56.6969C4.79932 53.7325 0.908203 47.7848 0.908203 40.9179V18.2199C0.908203 8.4001 8.87197 0.447754 18.6804 0.447754H82.2268C92.0466 0.447754 99.9989 8.4001 99.9989 18.2199L100 18.2186Z" fill="#D63AFD"></path><path d="M39.618 45.6814L36.2776 37.3304H37.745L39.7373 42.4006C39.8328 42.6472 39.9163 42.8699 39.9879 43.0687C40.0674 43.2676 40.135 43.4505 40.1907 43.6175C40.2463 43.7766 40.298 43.9277 40.3458 44.0708C40.3935 44.214 40.4412 44.3572 40.4889 44.5003L40.1787 44.5123C40.2344 44.3214 40.2941 44.1225 40.3577 43.9158C40.4213 43.709 40.4929 43.4823 40.5724 43.2357C40.6599 42.9892 40.7633 42.7108 40.8826 42.4006L42.7318 37.3304H44.2349L40.8707 45.6814H39.618ZM48.6165 45.6814V41.6013C48.6165 41.2514 48.4893 40.969 48.2348 40.7543C47.9882 40.5316 47.674 40.4203 47.2923 40.4203C46.9423 40.4203 46.6242 40.4918 46.3379 40.635C46.0595 40.7782 45.805 40.9969 45.5744 41.2912L44.7751 40.4918C45.1489 40.0862 45.5505 39.784 45.98 39.5852C46.4174 39.3863 46.8867 39.2869 47.3877 39.2869C47.8649 39.2869 48.2785 39.3664 48.6284 39.5255C48.9784 39.6846 49.2488 39.9192 49.4397 40.2294C49.6306 40.5316 49.726 40.9014 49.726 41.3389V45.6814H48.6165ZM46.7435 45.8007C46.3379 45.8007 45.976 45.7212 45.6579 45.5621C45.3397 45.403 45.0852 45.1843 44.8944 44.9059C44.7114 44.6196 44.62 44.2856 44.62 43.9038C44.62 43.5698 44.6796 43.2755 44.7989 43.021C44.9182 42.7665 45.0932 42.5557 45.3238 42.3887C45.5624 42.2217 45.8567 42.0944 46.2067 42.007C46.5646 41.9195 46.9742 41.8757 47.4354 41.8757H49.1772L49.0699 42.854H47.2804C47.0418 42.854 46.827 42.8778 46.6361 42.9256C46.4532 42.9653 46.2941 43.0329 46.1589 43.1284C46.0317 43.2159 45.9362 43.3232 45.8726 43.4505C45.809 43.5698 45.7772 43.7129 45.7772 43.88C45.7772 44.0549 45.8209 44.21 45.9084 44.3452C45.9959 44.4725 46.1152 44.5719 46.2663 44.6435C46.4174 44.7151 46.5924 44.7509 46.7912 44.7509C47.0775 44.7509 47.348 44.7031 47.6025 44.6077C47.8649 44.5043 48.0956 44.3651 48.2944 44.1901C48.5012 44.0152 48.6603 43.8203 48.7716 43.6056L49.0579 44.4049C48.8909 44.6833 48.6841 44.9258 48.4376 45.1326C48.191 45.3394 47.9246 45.5024 47.6383 45.6217C47.3519 45.741 47.0537 45.8007 46.7435 45.8007ZM51.5177 45.6814V39.4181H52.7464V40.7066L52.5317 40.8497C52.6112 40.5714 52.7663 40.3169 52.997 40.0862C53.2276 39.8476 53.502 39.6567 53.8201 39.5136C54.1383 39.3625 54.4644 39.2869 54.7984 39.2869C55.2756 39.2869 55.6733 39.3824 55.9914 39.5732C56.3095 39.7562 56.5481 40.0385 56.7072 40.4203C56.8663 40.802 56.9458 41.2832 56.9458 41.8638V45.6814H55.717V41.9473C55.717 41.5894 55.6693 41.2951 55.5739 41.0645C55.4784 40.8259 55.3313 40.6549 55.1324 40.5515C54.9336 40.4401 54.6871 40.3924 54.3928 40.4083C54.1542 40.4083 53.9355 40.4481 53.7366 40.5276C53.5378 40.5992 53.3628 40.7026 53.2117 40.8378C53.0686 40.973 52.9532 41.1321 52.8657 41.315C52.7862 41.49 52.7464 41.6809 52.7464 41.8877V45.6814H52.138C52.0346 45.6814 51.9312 45.6814 51.8278 45.6814C51.7244 45.6814 51.621 45.6814 51.5177 45.6814ZM60.9391 45.8007C60.4142 45.8007 59.9409 45.7092 59.5194 45.5263C59.0979 45.3434 58.7479 45.073 58.4696 44.7151L59.3047 43.9993C59.5433 44.2776 59.8018 44.4804 60.0801 44.6077C60.3665 44.727 60.6886 44.7866 61.0465 44.7866C61.1896 44.7866 61.3209 44.7707 61.4402 44.7389C61.5674 44.6992 61.6748 44.6435 61.7623 44.5719C61.8577 44.5003 61.9293 44.4168 61.977 44.3214C62.0247 44.218 62.0486 44.1066 62.0486 43.9873C62.0486 43.7805 61.973 43.6135 61.8219 43.4863C61.7424 43.4306 61.6151 43.371 61.4402 43.3073C61.2731 43.2357 61.0544 43.1642 60.784 43.0926C60.3227 42.9733 59.9449 42.8381 59.6507 42.687C59.3564 42.5359 59.1297 42.3649 58.9706 42.174C58.8513 42.0229 58.7639 41.8598 58.7082 41.6848C58.6525 41.5019 58.6247 41.3031 58.6247 41.0883C58.6247 40.7384 58.7241 40.4282 58.9229 40.1578C59.1218 39.8874 59.3882 39.6766 59.7222 39.5255C60.0642 39.3664 60.446 39.2869 60.8675 39.2869C61.1618 39.2869 61.4521 39.3267 61.7384 39.4062C62.0327 39.4857 62.3031 39.6011 62.5496 39.7522C62.7962 39.9033 63.003 40.0822 63.17 40.289L62.4661 41.0645C62.315 40.9134 62.148 40.7821 61.9651 40.6708C61.7901 40.5515 61.6112 40.46 61.4282 40.3964C61.2453 40.3328 61.0783 40.301 60.9272 40.301C60.7601 40.301 60.609 40.3169 60.4738 40.3487C60.3386 40.3805 60.2233 40.4282 60.1279 40.4918C60.0404 40.5555 59.9728 40.635 59.925 40.7304C59.8773 40.8259 59.8535 40.9333 59.8535 41.0526C59.8614 41.1559 59.8853 41.2554 59.925 41.3508C59.9728 41.4383 60.0364 41.5138 60.1159 41.5775C60.2034 41.6411 60.3346 41.7087 60.5096 41.7803C60.6846 41.8519 60.9073 41.9195 61.1777 41.9831C61.5754 42.0865 61.9014 42.2018 62.156 42.3291C62.4184 42.4484 62.6252 42.5875 62.7763 42.7466C62.9354 42.8977 63.0467 43.0727 63.1104 43.2715C63.174 43.4704 63.2058 43.6931 63.2058 43.9396C63.2058 44.2975 63.1024 44.6196 62.8956 44.9059C62.6968 45.1843 62.4264 45.403 62.0844 45.5621C61.7424 45.7212 61.3606 45.8007 60.9391 45.8007Z" fill="white"></path><g clip-path="url(#clip0_6201_57)"><path fill-rule="evenodd" clip-rule="evenodd" d="M37.2897 29.735C37.2897 28.0294 38.6723 26.6467 40.3779 26.6467C42.0835 26.6467 43.4662 28.0294 43.4662 29.735C43.4662 31.4406 42.0835 32.8232 40.3779 32.8232C38.6723 32.8232 37.2897 31.4406 37.2897 29.735ZM41.7015 29.735C41.7015 29.004 41.1089 28.4115 40.378 28.4115C39.647 28.4115 39.0545 29.004 39.0545 29.735C39.0545 30.4659 39.647 31.0585 40.378 31.0585C41.1089 31.0585 41.7015 30.4659 41.7015 29.735ZM55.8191 29.735C55.8191 28.0294 57.2018 26.6467 58.9074 26.6467C60.613 26.6467 61.9956 28.0294 61.9956 29.735C61.9956 31.4406 60.613 32.8232 58.9074 32.8232C57.2018 32.8232 55.8191 31.4406 55.8191 29.735ZM60.2309 29.735C60.2309 29.004 59.6383 28.4115 58.9074 28.4115C58.1764 28.4115 57.5838 29.004 57.5838 29.735C57.5838 30.4659 58.1764 31.0585 58.9074 31.0585C59.6383 31.0585 60.2309 30.4659 60.2309 29.735Z" fill="white"></path><path fill-rule="evenodd" clip-rule="evenodd" d="M62.4366 15.1763H48.7601C48.321 15.1763 47.9487 15.4991 47.8866 15.9338L47.2536 20.3652C47.1781 20.8936 46.6485 21.3528 46.1134 21.3528H38.6131C38.432 21.3528 38.2554 21.4084 38.107 21.5122C37.9344 21.6331 37.7035 21.7989 37.4008 22.0188C37.1895 22.1725 36.9651 22.3368 36.7418 22.5012C36.6078 22.5998 36.5039 22.6766 36.4634 22.7069C35.4296 23.4305 34.6425 24.9437 34.6425 26.2067V28.8528C34.6425 29.3401 35.0375 29.7351 35.5248 29.7351H36.4072C36.4072 27.5422 38.1849 25.7645 40.3778 25.7645C42.5707 25.7645 44.3484 27.5422 44.3484 29.7351H54.9366C54.9366 27.5422 56.7143 25.7645 58.9072 25.7645C61.1002 25.7645 62.8779 27.5422 62.8779 29.7351H63.7602C64.2475 29.7351 64.6426 29.3401 64.6426 28.8528V24.441C64.6426 24.3949 64.6389 24.3489 64.6318 24.3034L63.4674 16.9286C63.8841 16.858 64.2014 16.4954 64.2014 16.0586C64.2014 15.5713 63.8064 15.1763 63.3191 15.1763H62.4366Z" fill="white"></path><path fill-rule="evenodd" clip-rule="evenodd" d="M42.1425 16.941C42.8933 15.94 44.4201 15.1763 45.672 15.1763H48.7602C49.2475 15.1763 49.6426 15.5713 49.6426 16.0586C49.6426 16.546 49.2475 16.941 48.7602 16.941H45.672C44.9756 16.941 43.9719 17.4431 43.5543 17.9998L40.6426 21.8822C40.5826 21.9622 40.5094 22.0314 40.4261 22.0869L39.1026 22.9693C38.6971 23.2396 38.1493 23.13 37.879 22.7246C37.6087 22.3191 37.7183 21.7712 38.1237 21.5009L39.3192 20.7039L42.1425 16.941Z" fill="white"></path></g><defs><clipPath id="clip0_6201_57"><rect width="30" height="30" fill="white" transform="translate(34.6426 8.99976)"></rect></clipPath></defs></svg>