<svg xmlns="http://www.w3.org/2000/svg" width="95" height="73" viewBox="0 0 95 73" fill="none"><path d="M0.677246 16.8876V38.4485C0.677246 47.7768 8.21173 55.3361 17.5069 55.3361H24.4605C23.195 67.4566 14.2371 72.2045 13.6742 72.4965C18.7251 71.4428 22.9232 69.6851 26.3814 67.6445C28.7049 66.2807 30.6923 64.7765 32.3695 63.2814C35.7329 60.2912 37.8884 57.3111 39.1065 55.3361H77.6666C86.9618 55.3361 94.4963 47.7757 94.4963 38.4485V16.8876C94.4963 7.56045 86.9618 0 77.6666 0H17.5069C8.21173 0 0.677246 7.56045 0.677246 16.8876Z" fill="#53BB66"></path><path d="M30.6379 44.116V36.9516H33.6878C34.1586 36.9516 34.5544 37.0198 34.8751 37.1563C35.2026 37.2928 35.4482 37.4975 35.612 37.7704C35.7757 38.0365 35.8576 38.3606 35.8576 38.7427C35.8576 39.1384 35.7518 39.4728 35.5403 39.7457C35.3356 40.0186 35.0422 40.2063 34.6601 40.3086V40.1039C34.974 40.1722 35.2503 40.295 35.4892 40.4724C35.728 40.643 35.9122 40.8579 36.0418 41.1172C36.1715 41.3696 36.2363 41.6596 36.2363 41.9871C36.2363 42.3351 36.1783 42.6422 36.0623 42.9083C35.9531 43.1744 35.7894 43.3961 35.571 43.5735C35.3595 43.7509 35.1036 43.8874 34.8034 43.9829C34.51 44.0716 34.1757 44.116 33.8004 44.116H30.6379ZM31.9274 42.9185H33.7288C34.104 42.9185 34.394 42.8366 34.5987 42.6729C34.8102 42.5023 34.916 42.2601 34.916 41.9462C34.916 41.7551 34.8648 41.5914 34.7625 41.4549C34.6601 41.3185 34.5168 41.2161 34.3326 41.1479C34.1484 41.0728 33.93 41.0353 33.6776 41.0353H31.9274V42.9185ZM31.9274 39.889H33.5752C33.7663 39.889 33.9369 39.8515 34.087 39.7764C34.2371 39.7014 34.3531 39.599 34.435 39.4694C34.5168 39.3397 34.5578 39.1896 34.5578 39.019C34.5578 38.7393 34.4623 38.5244 34.2712 38.3742C34.087 38.2241 33.8175 38.1491 33.4627 38.1491H31.9274V39.889ZM40.6577 44.116V40.6668C40.6577 40.3734 40.5588 40.1449 40.3609 39.9811C40.1699 39.8105 39.9208 39.7252 39.6138 39.7252C39.3272 39.7252 39.0679 39.7832 38.8359 39.8992C38.6039 40.0084 38.389 40.1858 38.1911 40.4314L37.4133 39.6536C37.734 39.3124 38.0888 39.0531 38.4777 38.8757C38.8666 38.6983 39.2863 38.6096 39.7366 38.6096C40.1665 38.6096 40.5349 38.6779 40.842 38.8143C41.1558 38.9508 41.398 39.1555 41.5686 39.4284C41.7392 39.6945 41.8245 40.022 41.8245 40.411V44.116H40.6577ZM39.1225 44.2183C38.7745 44.2183 38.4641 44.1501 38.1911 44.0136C37.9182 43.8772 37.6999 43.6895 37.5361 43.4507C37.3792 43.2051 37.3007 42.9185 37.3007 42.591C37.3007 42.3044 37.3519 42.0554 37.4542 41.8438C37.5566 41.6255 37.7067 41.4447 37.9046 41.3014C38.1093 41.1581 38.3617 41.0523 38.6619 40.9841C38.969 40.9091 39.3204 40.8715 39.7161 40.8715H41.2616L41.1695 41.7722H39.6445C39.4603 41.7722 39.2965 41.7893 39.1532 41.8234C39.0099 41.8575 38.8871 41.9087 38.7848 41.9769C38.6824 42.0451 38.6074 42.127 38.5596 42.2225C38.5118 42.3112 38.4879 42.4204 38.4879 42.55C38.4879 42.6865 38.5221 42.8059 38.5903 42.9083C38.6585 43.0038 38.7506 43.0788 38.8666 43.1334C38.9826 43.188 39.1191 43.2153 39.276 43.2153C39.5012 43.2153 39.7127 43.1778 39.9106 43.1027C40.1153 43.0277 40.2961 42.9219 40.453 42.7854C40.61 42.649 40.7328 42.4955 40.8215 42.3249L41.0774 43.0208C40.9341 43.2597 40.7567 43.4678 40.5451 43.6452C40.3404 43.8226 40.1153 43.9624 39.8696 44.0648C39.6308 44.1671 39.3818 44.2183 39.1225 44.2183ZM44.4489 42.4682L44.2135 41.2809L46.7722 38.7222H48.4405L44.4489 42.4682ZM43.2822 44.116V36.5422H44.5308V44.116H43.2822ZM46.9155 44.116L44.9402 41.721L45.8204 40.9636L48.4712 44.116H46.9155ZM51.7252 44.2183C51.1588 44.2183 50.6573 44.1023 50.2206 43.8703C49.7908 43.6315 49.453 43.3074 49.2074 42.898C48.9686 42.4818 48.8492 42.0042 48.8492 41.4652C48.8492 41.0421 48.9174 40.6566 49.0539 40.3086C49.1903 39.9606 49.3814 39.6604 49.627 39.408C49.8727 39.1487 50.1626 38.9508 50.497 38.8143C50.8381 38.671 51.2066 38.5994 51.6023 38.5994C51.964 38.5994 52.2949 38.6676 52.5951 38.8041C52.9022 38.9406 53.1683 39.1282 53.3934 39.367C53.6186 39.599 53.7892 39.8788 53.9052 40.2063C54.028 40.527 54.086 40.8784 54.0792 41.2605L54.0689 41.7108H49.7089L49.4633 40.8408H53.0147L52.8612 41.0148V40.7794C52.8407 40.5747 52.7725 40.3939 52.6565 40.237C52.5405 40.0732 52.3904 39.947 52.2062 39.8583C52.0288 39.7628 51.8309 39.715 51.6126 39.715C51.2782 39.715 50.9951 39.7798 50.7631 39.9095C50.5311 40.0323 50.3537 40.2165 50.2309 40.4621C50.1149 40.7078 50.0569 41.0114 50.0569 41.373C50.0569 41.721 50.1285 42.0247 50.2718 42.2839C50.4219 42.5432 50.6334 42.7445 50.9064 42.8878C51.1793 43.0311 51.4966 43.1027 51.8582 43.1027C52.1107 43.1027 52.3427 43.0618 52.5542 42.9799C52.7725 42.898 53.0045 42.7513 53.2501 42.5398L53.8642 43.3995C53.68 43.5701 53.4685 43.7168 53.2297 43.8396C52.9977 43.9556 52.752 44.0477 52.4928 44.116C52.2335 44.1842 51.9776 44.2183 51.7252 44.2183ZM55.322 44.116V38.7222H56.5502L56.5707 40.4417L56.4069 40.0527C56.482 39.7798 56.6116 39.5342 56.7959 39.3158C56.9801 39.0975 57.1916 38.9269 57.4304 38.8041C57.6761 38.6745 57.9285 38.6096 58.1878 38.6096C58.3038 38.6096 58.413 38.6199 58.5153 38.6403C58.6245 38.6608 58.7132 38.6847 58.7814 38.712L58.4539 40.0835C58.372 40.0425 58.2765 40.0118 58.1673 39.9913C58.065 39.964 57.9592 39.9504 57.85 39.9504C57.6726 39.9504 57.5055 39.9845 57.3485 40.0527C57.1984 40.1142 57.0654 40.2029 56.9494 40.3189C56.8402 40.4348 56.7515 40.5713 56.6833 40.7282C56.615 40.8784 56.5809 41.0455 56.5809 41.2298V44.116H55.322ZM60.5868 46.47L61.7229 43.8294L61.7331 44.6789L59.0721 38.7222H60.5152L62.0095 42.2737C62.0572 42.3624 62.105 42.4818 62.1527 42.6319C62.2005 42.7752 62.2414 42.9151 62.2756 43.0515L62.0197 43.1437C62.0675 43.014 62.1152 42.8741 62.163 42.724C62.2176 42.5739 62.2721 42.4238 62.3267 42.2737L63.5958 38.7222H65.0492L62.8078 44.116L61.8969 46.47H60.5868Z" fill="white"></path><g clip-path="url(#clip0_6201_384)"><path d="M50.6132 8.52881C46.8011 8.52881 43.7744 9.64037 42.8528 11.2395C43.7712 11.1001 44.7196 11.0275 45.6553 11.0275C50.1327 11.0275 54.9514 12.5917 54.9514 16.025C54.9514 16.7259 54.7239 17.7398 53.6823 18.6988L53.7019 24.7706H55.5563C56.5914 24.7706 57.4304 23.9315 57.4304 22.8965V14.6341C57.4304 14.4517 57.5042 14.2821 57.6283 14.1803C58.4889 13.4745 58.6698 12.7558 58.6698 12.2769C58.6698 10.1399 55.2062 8.52881 50.6132 8.52881Z" fill="white"></path><path d="M45.4778 12.3604C40.8482 12.3604 37.3569 13.9715 37.3569 16.1084C37.3569 16.5873 37.5393 17.306 38.4068 18.0118C38.5319 18.1136 38.6063 18.2833 38.6063 18.4656V27.9774C38.6063 29.0108 39.447 29.8515 40.4803 29.8515H50.4753C51.5087 29.8515 52.3493 29.0108 52.3493 27.9774V18.4657C52.3493 18.2833 52.4237 18.1137 52.5488 18.0118C53.4163 17.306 53.5987 16.5874 53.5987 16.1085C53.5987 13.9715 50.1074 12.3604 45.4778 12.3604ZM42.5374 20.0396L45.0361 17.5408C45.2801 17.2968 45.6755 17.2968 45.9195 17.5408C46.1635 17.7848 46.1635 18.1802 45.9195 18.4242L43.4207 20.9229C43.2987 21.0449 43.1389 21.106 42.9791 21.106C42.8193 21.106 42.6594 21.0449 42.5374 20.9229C42.2934 20.6789 42.2934 20.2836 42.5374 20.0396ZM48.4182 23.4216L45.9195 25.9203C45.6754 26.1644 45.2802 26.1644 45.0361 25.9203C44.7921 25.6763 44.7921 25.281 45.0361 25.037L47.5349 22.5383C47.7789 22.2943 48.1742 22.2943 48.4182 22.5383C48.6622 22.7823 48.6622 23.1776 48.4182 23.4216ZM48.4182 19.6735L43.4207 24.671C43.1767 24.915 42.7814 24.915 42.5374 24.671C42.2934 24.427 42.2934 24.0316 42.5374 23.7876L47.5349 18.7902C47.7789 18.5462 48.1742 18.5462 48.4182 18.7902C48.6622 19.0342 48.6622 19.4295 48.4182 19.6735Z" fill="white"></path></g><defs><clipPath id="clip0_6201_384"><rect width="21.3225" height="21.3225" fill="white" transform="translate(37.3521 8.52905)"></rect></clipPath></defs></svg>