<svg xmlns="http://www.w3.org/2000/svg" width="101" height="84" viewBox="0 0 101 84" fill="none"><path d="M0.657227 18.2255V40.9906C0.657227 48.4585 5.25888 54.8593 11.7857 57.5039C13.8587 58.3506 16.1226 58.8154 18.4921 58.8154H59.8638C60.7843 61.7452 61.8208 64.3262 62.9311 66.6015C70.5059 82.2362 81.3899 83.6012 81.3899 83.6012C77.635 79.9621 75.1801 74.7149 73.5936 69.4893C72.4298 65.7128 71.7104 61.9464 71.2775 58.8154H82.215C82.5219 58.8154 82.8288 58.8052 83.1242 58.7835C83.2935 58.7835 83.4629 58.7619 83.6322 58.7517C83.7061 58.7517 83.7914 58.7517 83.8652 58.7301C88.3714 58.3277 92.3911 56.2331 95.279 53.1021C98.2406 49.9189 100.05 45.6661 100.05 40.9906V18.2255C100.05 8.37667 92.0639 0.390625 82.215 0.390625H18.4934C8.64455 0.390625 0.658497 8.37667 0.658497 18.2255H0.657227Z" fill="#FD5900"></path><path d="M28.6396 45.8423C28.0573 45.8423 27.5229 45.7386 27.0363 45.5312C26.5497 45.3238 26.1269 45.0287 25.768 44.6458C25.409 44.2549 25.1298 43.7962 24.9304 43.2698C24.739 42.7433 24.6432 42.165 24.6432 41.5348C24.6432 40.9365 24.7469 40.3821 24.9543 39.8716C25.1697 39.3531 25.4648 38.8984 25.8398 38.5076C26.2147 38.1167 26.6494 37.8136 27.144 37.5982C27.6385 37.3828 28.173 37.2752 28.7473 37.2752C29.1541 37.2752 29.549 37.339 29.9319 37.4666C30.3228 37.5863 30.6737 37.7578 30.9848 37.9811C31.3039 38.1965 31.5632 38.4438 31.7626 38.723L30.9011 39.6204C30.5581 39.2694 30.2071 39.0061 29.8481 38.8306C29.4892 38.6552 29.1222 38.5674 28.7473 38.5674C28.3565 38.5674 27.9895 38.6432 27.6465 38.7947C27.3115 38.9383 27.0163 39.1417 26.7611 39.405C26.5138 39.6682 26.3184 39.9833 26.1748 40.3502C26.0312 40.7092 25.9594 41.1041 25.9594 41.5348C25.9594 41.9895 26.0272 42.4043 26.1628 42.7792C26.3064 43.1461 26.5058 43.4612 26.7611 43.7245C27.0163 43.9877 27.3195 44.1911 27.6704 44.3347C28.0294 44.4703 28.4243 44.5381 28.855 44.5381C29.1183 44.5381 29.3775 44.5022 29.6328 44.4304C29.888 44.3586 30.1273 44.2549 30.3507 44.1193C30.574 43.9837 30.7774 43.8242 30.9609 43.6407L31.607 44.6936C31.4236 44.909 31.1723 45.1044 30.8532 45.2799C30.5421 45.4554 30.1911 45.595 29.8003 45.6987C29.4174 45.7944 29.0305 45.8423 28.6396 45.8423ZM37.0119 45.7227V41.6305C37.0119 41.2795 36.8843 40.9964 36.629 40.781C36.3817 40.5576 36.0666 40.446 35.6837 40.446C35.3328 40.446 35.0137 40.5178 34.7265 40.6613C34.4473 40.8049 34.1921 41.0243 33.9607 41.3194L33.1591 40.5178C33.534 40.1109 33.9368 39.8078 34.3676 39.6084C34.8063 39.409 35.2769 39.3093 35.7795 39.3093C36.2581 39.3093 36.6729 39.389 37.0239 39.5486C37.3748 39.7081 37.646 39.9434 37.8375 40.2545C38.0289 40.5576 38.1247 40.9286 38.1247 41.3673V45.7227H37.0119ZM35.1333 45.8423C34.7265 45.8423 34.3636 45.7625 34.0445 45.603C33.7254 45.4435 33.4702 45.2241 33.2787 44.9449C33.0952 44.6577 33.0035 44.3227 33.0035 43.9398C33.0035 43.6048 33.0633 43.3097 33.183 43.0544C33.3026 42.7991 33.4781 42.5877 33.7095 42.4202C33.9488 42.2527 34.2439 42.1251 34.5949 42.0373C34.9539 41.9496 35.3647 41.9057 35.8273 41.9057H37.5743L37.4666 42.8869H35.6718C35.4325 42.8869 35.2171 42.9108 35.0256 42.9587C34.8422 42.9986 34.6826 43.0664 34.547 43.1621C34.4194 43.2498 34.3237 43.3575 34.2599 43.4851C34.1961 43.6048 34.1641 43.7484 34.1641 43.9159C34.1641 44.0914 34.208 44.2469 34.2958 44.3825C34.3835 44.5102 34.5032 44.6099 34.6547 44.6817C34.8063 44.7535 34.9818 44.7894 35.1812 44.7894C35.4684 44.7894 35.7396 44.7415 35.9948 44.6458C36.2581 44.5421 36.4894 44.4025 36.6888 44.227C36.8962 44.0515 37.0558 43.8561 37.1674 43.6407L37.4546 44.4424C37.2871 44.7216 37.0797 44.9649 36.8324 45.1723C36.5851 45.3797 36.3179 45.5432 36.0307 45.6628C35.7436 45.7825 35.4444 45.8423 35.1333 45.8423ZM39.9216 48.355V39.4409H41.166V40.8767L40.9745 40.769C41.0224 40.5297 41.158 40.3024 41.3814 40.087C41.6047 39.8636 41.8759 39.6842 42.195 39.5486C42.5221 39.405 42.8571 39.3332 43.2001 39.3332C43.7665 39.3332 44.269 39.4728 44.7077 39.752C45.1464 40.0312 45.4934 40.4141 45.7487 40.9006C46.004 41.3872 46.1316 41.9456 46.1316 42.5758C46.1316 43.198 46.004 43.7564 45.7487 44.2509C45.5014 44.7375 45.1584 45.1244 44.7197 45.4116C44.281 45.6907 43.7864 45.8303 43.236 45.8303C42.8691 45.8303 42.5141 45.7586 42.1711 45.615C41.8281 45.4634 41.5369 45.272 41.2976 45.0406C41.0583 44.8093 40.9107 44.57 40.8549 44.3227L41.166 44.1552V48.355H39.9216ZM43.0326 44.6936C43.3995 44.6936 43.7266 44.6019 44.0137 44.4184C44.3009 44.235 44.5282 43.9837 44.6958 43.6646C44.8633 43.3456 44.947 42.9826 44.947 42.5758C44.947 42.169 44.8633 41.81 44.6958 41.4989C44.5362 41.1798 44.3129 40.9286 44.0257 40.7451C43.7385 40.5616 43.4075 40.4699 43.0326 40.4699C42.6577 40.4699 42.3266 40.5616 42.0395 40.7451C41.7523 40.9206 41.525 41.1679 41.3574 41.4869C41.1899 41.806 41.1062 42.169 41.1062 42.5758C41.1062 42.9826 41.1899 43.3456 41.3574 43.6646C41.525 43.9837 41.7523 44.235 42.0395 44.4184C42.3266 44.6019 42.6577 44.6936 43.0326 44.6936ZM49.8033 45.8423C49.2768 45.8423 48.8022 45.7506 48.3794 45.5671C47.9566 45.3836 47.6056 45.1124 47.3264 44.7535L48.164 44.0355C48.4033 44.3147 48.6626 44.5181 48.9418 44.6458C49.2289 44.7654 49.552 44.8253 49.9109 44.8253C50.0545 44.8253 50.1861 44.8093 50.3058 44.7774C50.4334 44.7375 50.5411 44.6817 50.6289 44.6099C50.7246 44.5381 50.7964 44.4543 50.8442 44.3586C50.8921 44.2549 50.916 44.1432 50.916 44.0236C50.916 43.8162 50.8402 43.6487 50.6887 43.521C50.6089 43.4652 50.4813 43.4054 50.3058 43.3416C50.1383 43.2698 49.9189 43.198 49.6477 43.1262C49.185 43.0065 48.8061 42.8709 48.511 42.7194C48.2159 42.5678 47.9885 42.3963 47.829 42.2049C47.7093 42.0533 47.6216 41.8898 47.5657 41.7143C47.5099 41.5308 47.482 41.3314 47.482 41.116C47.482 40.765 47.5817 40.4539 47.7811 40.1827C47.9805 39.9115 48.2478 39.7001 48.5828 39.5486C48.9258 39.389 49.3087 39.3093 49.7315 39.3093C50.0266 39.3093 50.3178 39.3491 50.6049 39.4289C50.9001 39.5087 51.1713 39.6243 51.4186 39.7759C51.6659 39.9275 51.8733 40.1069 52.0408 40.3143L51.3348 41.0921C51.1833 40.9405 51.0157 40.8089 50.8323 40.6972C50.6568 40.5776 50.4773 40.4858 50.2938 40.422C50.1104 40.3582 49.9429 40.3263 49.7913 40.3263C49.6238 40.3263 49.4722 40.3423 49.3366 40.3742C49.201 40.4061 49.0853 40.4539 48.9896 40.5178C48.9019 40.5816 48.8341 40.6613 48.7862 40.7571C48.7383 40.8528 48.7144 40.9605 48.7144 41.0801C48.7224 41.1838 48.7463 41.2835 48.7862 41.3793C48.8341 41.467 48.8979 41.5428 48.9777 41.6066C49.0654 41.6704 49.197 41.7382 49.3725 41.81C49.548 41.8818 49.7713 41.9496 50.0426 42.0134C50.4414 42.1171 50.7685 42.2328 51.0237 42.3604C51.287 42.4801 51.4944 42.6197 51.6459 42.7792C51.8054 42.9308 51.9171 43.1062 51.9809 43.3057C52.0448 43.5051 52.0767 43.7284 52.0767 43.9757C52.0767 44.3347 51.973 44.6577 51.7656 44.9449C51.5661 45.2241 51.2949 45.4435 50.9519 45.603C50.6089 45.7625 50.226 45.8423 49.8033 45.8423ZM55.8758 45.8423C55.4291 45.8423 55.0383 45.7386 54.7032 45.5312C54.3762 45.3238 54.1209 45.0327 53.9375 44.6577C53.762 44.2828 53.6742 43.8361 53.6742 43.3176V39.4409H54.9066V42.9826C54.9066 43.533 55.0343 43.9677 55.2895 44.2868C55.5528 44.6059 55.9157 44.7654 56.3784 44.7654C56.6097 44.7654 56.8211 44.7295 57.0125 44.6577C57.204 44.578 57.3675 44.4703 57.5031 44.3347C57.6467 44.1991 57.7584 44.0355 57.8381 43.8441C57.9179 43.6527 57.9578 43.4453 57.9578 43.2219V39.4409H59.1902V45.7227H57.9578V44.4065L58.1732 44.2629C58.0774 44.558 57.9139 44.8253 57.6826 45.0646C57.4592 45.3039 57.192 45.4953 56.8809 45.6389C56.5698 45.7745 56.2348 45.8423 55.8758 45.8423ZM61.1821 45.7227V36.8683H62.4145V45.7227H61.1821ZM67.2151 45.8423C66.569 45.8423 65.9946 45.7067 65.4921 45.4355C64.9975 45.1563 64.6067 44.7774 64.3195 44.2988C64.0403 43.8202 63.9007 43.2698 63.9007 42.6476C63.9007 42.153 63.9805 41.7023 64.14 41.2955C64.2996 40.8887 64.5189 40.5377 64.7981 40.2426C65.0853 39.9394 65.4243 39.7081 65.8152 39.5486C66.214 39.381 66.6447 39.2973 67.1074 39.2973C67.5142 39.2973 67.8931 39.3771 68.2441 39.5366C68.5951 39.6882 68.8982 39.8995 69.1535 40.1708C69.4167 40.442 69.6161 40.765 69.7517 41.1399C69.8953 41.5069 69.9631 41.9097 69.9551 42.3484L69.9432 42.8749H64.8101L64.5349 41.8938H68.8783L68.6988 42.0972V41.81C68.6749 41.5468 68.5871 41.3115 68.4356 41.1041C68.284 40.8967 68.0926 40.7331 67.8612 40.6135C67.6299 40.4938 67.3786 40.434 67.1074 40.434C66.6767 40.434 66.3137 40.5178 66.0186 40.6853C65.7234 40.8448 65.5001 41.0841 65.3485 41.4032C65.1969 41.7143 65.1212 42.1012 65.1212 42.5638C65.1212 43.0025 65.2129 43.3854 65.3964 43.7125C65.5798 44.0316 65.8391 44.2788 66.1741 44.4543C66.5091 44.6298 66.896 44.7176 67.3347 44.7176C67.6458 44.7176 67.933 44.6657 68.1962 44.562C68.4675 44.4583 68.7586 44.2709 69.0697 43.9997L69.6919 44.8731C69.5005 45.0646 69.2651 45.2321 68.986 45.3757C68.7147 45.5192 68.4236 45.6349 68.1125 45.7227C67.8094 45.8024 67.5102 45.8423 67.2151 45.8423ZM73.6277 45.8423C73.1013 45.8423 72.6266 45.7506 72.2039 45.5671C71.7811 45.3836 71.4301 45.1124 71.1509 44.7535L71.9885 44.0355C72.2278 44.3147 72.4871 44.5181 72.7662 44.6458C73.0534 44.7654 73.3765 44.8253 73.7354 44.8253C73.879 44.8253 74.0106 44.8093 74.1303 44.7774C74.2579 44.7375 74.3656 44.6817 74.4534 44.6099C74.5491 44.5381 74.6209 44.4543 74.6687 44.3586C74.7166 44.2549 74.7405 44.1432 74.7405 44.0236C74.7405 43.8162 74.6647 43.6487 74.5132 43.521C74.4334 43.4652 74.3058 43.4054 74.1303 43.3416C73.9628 43.2698 73.7434 43.198 73.4722 43.1262C73.0095 43.0065 72.6306 42.8709 72.3355 42.7194C72.0403 42.5678 71.813 42.3963 71.6535 42.2049C71.5338 42.0533 71.4461 41.8898 71.3902 41.7143C71.3344 41.5308 71.3065 41.3314 71.3065 41.116C71.3065 40.765 71.4062 40.4539 71.6056 40.1827C71.805 39.9115 72.0723 39.7001 72.4073 39.5486C72.7503 39.389 73.1332 39.3093 73.556 39.3093C73.8511 39.3093 74.1423 39.3491 74.4294 39.4289C74.7246 39.5087 74.9958 39.6243 75.2431 39.7759C75.4903 39.9275 75.6977 40.1069 75.8653 40.3143L75.1593 41.0921C75.0077 40.9405 74.8402 40.8089 74.6568 40.6972C74.4813 40.5776 74.3018 40.4858 74.1183 40.422C73.9349 40.3582 73.7673 40.3263 73.6158 40.3263C73.4483 40.3263 73.2967 40.3423 73.1611 40.3742C73.0255 40.4061 72.9098 40.4539 72.8141 40.5178C72.7264 40.5816 72.6586 40.6613 72.6107 40.7571C72.5628 40.8528 72.5389 40.9605 72.5389 41.0801C72.5469 41.1838 72.5708 41.2835 72.6107 41.3793C72.6586 41.467 72.7224 41.5428 72.8021 41.6066C72.8899 41.6704 73.0215 41.7382 73.197 41.81C73.3725 41.8818 73.5958 41.9496 73.8671 42.0134C74.2659 42.1171 74.5929 42.2328 74.8482 42.3604C75.1114 42.4801 75.3188 42.6197 75.4704 42.7792C75.6299 42.9308 75.7416 43.1062 75.8054 43.3057C75.8692 43.5051 75.9012 43.7284 75.9012 43.9757C75.9012 44.3347 75.7975 44.6577 75.5901 44.9449C75.3906 45.2241 75.1194 45.4435 74.7764 45.603C74.4334 45.7625 74.0505 45.8423 73.6277 45.8423Z" fill="white"></path><g clip-path="url(#clip0_6201_351)"><path d="M44.8078 13.1839H46.0118V11.9749H47.2207V10.771H46.0118V9.56201H44.8078V10.771H43.5989V11.9749H44.8078V13.1839Z" fill="white"></path><path d="M42.3899 15.6067H43.5938V16.8106H42.3899V15.6067Z" fill="white"></path><path d="M41.1807 13.189H42.3846V14.3929H41.1807V13.189Z" fill="white"></path><path d="M55.3823 28.8246C58.0156 28.8246 60.1857 26.8431 60.4838 24.2898H50.2808C50.5789 26.8431 52.749 28.8246 55.3823 28.8246Z" fill="white"></path><path d="M50.2808 23.0856H60.4838C60.1857 20.5323 58.0155 18.5508 55.3822 18.5508C52.749 18.5508 50.5789 20.5323 50.2808 23.0856Z" fill="white"></path><path d="M49.5265 21.2517L44.9032 16.6284L41.4762 20.0554C39.4702 22.0614 39.4702 25.3139 41.4762 27.3199C43.4823 29.326 46.7347 29.326 48.7407 27.3199L49.653 26.4076C49.261 25.5833 49.0414 24.6612 49.0414 23.6876C49.0414 22.8245 49.2141 22.0018 49.5265 21.2517Z" fill="white"></path><path d="M55.3823 17.347C56.1721 17.347 56.9279 17.4918 57.6254 17.7557C58.2852 15.9387 57.8868 13.824 56.4296 12.3668C54.4236 10.3608 51.1711 10.3608 49.1651 12.3668L45.7546 15.7773L50.1226 20.1452C51.2619 18.4571 53.1924 17.347 55.3823 17.347Z" fill="white"></path></g><defs><clipPath id="clip0_6201_351"><rect width="20.5119" height="20.5119" fill="white" transform="translate(39.9717 8.93726)"></rect></clipPath></defs></svg>