<svg xmlns="http://www.w3.org/2000/svg" width="119" height="60" viewBox="0 0 119 60" fill="none"><path d="M118.752 0.234375C118.752 0.234375 115.809 20.1965 99.0983 28.4941V42.1759C99.0983 46.8465 97.2943 51.0816 94.3414 54.2555C92.5958 56.1559 90.4249 57.6705 87.9836 58.6556C86.4106 59.3018 84.7323 59.717 82.9664 59.8719C82.8991 59.8909 82.8026 59.8909 82.7353 59.8909C82.5716 59.8998 82.3976 59.9201 82.2237 59.9201C81.9343 59.9392 81.6258 59.9493 81.3262 59.9493H17.7823C12.774 59.2346 14.3673 59.6979 12.774 59.2346C12.2053 59.0606 11.6454 58.8677 11.0957 58.6468C4.59316 56.0112 0 49.6242 0 42.1759V19.483C0 9.66064 7.97012 1.69052 17.7823 1.69052H81.3262C89.7495 1.69052 96.7929 7.56717 98.6261 15.4395C103.865 14.0215 112.067 10.2484 118.752 0.234375Z" fill="#44A23B"></path><path d="M5.80091 47.0244V39.3244H10.6519V40.4684H6.98891V45.8804H10.6519V47.0244H5.80091ZM6.33991 43.6474V42.5034H10.0469V43.6474H6.33991ZM12.5137 47.0244V38.8844H13.6467V47.0244H12.5137ZM18.0601 47.1344C17.4661 47.1344 16.9381 47.0097 16.4761 46.7604C16.0214 46.5037 15.6621 46.1554 15.3981 45.7154C15.1414 45.2754 15.0131 44.7694 15.0131 44.1974C15.0131 43.7427 15.0864 43.3284 15.2331 42.9544C15.3797 42.5804 15.5814 42.2577 15.8381 41.9864C16.1021 41.7077 16.4137 41.4951 16.7731 41.3484C17.1397 41.1944 17.5357 41.1174 17.9611 41.1174C18.3351 41.1174 18.6834 41.1907 19.0061 41.3374C19.3287 41.4767 19.6074 41.6711 19.8421 41.9204C20.0841 42.1697 20.2674 42.4667 20.3921 42.8114C20.5241 43.1487 20.5864 43.5191 20.5791 43.9224L20.5681 44.4064H15.8491L15.5961 43.5044H19.5891L19.4241 43.6914V43.4274C19.4021 43.1854 19.3214 42.9691 19.1821 42.7784C19.0427 42.5877 18.8667 42.4374 18.6541 42.3274C18.4414 42.2174 18.2104 42.1624 17.9611 42.1624C17.5651 42.1624 17.2314 42.2394 16.9601 42.3934C16.6887 42.5401 16.4834 42.7601 16.3441 43.0534C16.2047 43.3394 16.1351 43.6951 16.1351 44.1204C16.1351 44.5237 16.2194 44.8757 16.3881 45.1764C16.5567 45.4697 16.7951 45.6971 17.1031 45.8584C17.4111 46.0197 17.7667 46.1004 18.1701 46.1004C18.4561 46.1004 18.7201 46.0527 18.9621 45.9574C19.2114 45.8621 19.4791 45.6897 19.7651 45.4404L20.3371 46.2434C20.1611 46.4194 19.9447 46.5734 19.6881 46.7054C19.4387 46.8374 19.1711 46.9437 18.8851 47.0244C18.6064 47.0977 18.3314 47.1344 18.0601 47.1344ZM24.4834 47.1344C23.948 47.1344 23.4677 47.0024 23.0424 46.7384C22.6244 46.4744 22.2907 46.1151 22.0414 45.6604C21.7994 45.2057 21.6784 44.6961 21.6784 44.1314C21.6784 43.5667 21.7994 43.0571 22.0414 42.6024C22.2907 42.1477 22.6244 41.7884 23.0424 41.5244C23.4677 41.2604 23.948 41.1284 24.4834 41.1284C24.9967 41.1284 25.4624 41.2347 25.8804 41.4474C26.3057 41.6527 26.6284 41.9351 26.8484 42.2944L26.2214 43.0644C26.104 42.8957 25.9537 42.7417 25.7704 42.6024C25.587 42.4631 25.3927 42.3531 25.1874 42.2724C24.982 42.1917 24.784 42.1514 24.5934 42.1514C24.2414 42.1514 23.926 42.2394 23.6474 42.4154C23.376 42.5841 23.1597 42.8187 22.9984 43.1194C22.837 43.4201 22.7564 43.7574 22.7564 44.1314C22.7564 44.5054 22.8407 44.8427 23.0094 45.1434C23.178 45.4367 23.4017 45.6714 23.6804 45.8474C23.959 46.0234 24.267 46.1114 24.6044 46.1114C24.8024 46.1114 24.993 46.0784 25.1764 46.0124C25.367 45.9464 25.5504 45.8474 25.7264 45.7154C25.9024 45.5834 26.0674 45.4221 26.2214 45.2314L26.8484 46.0014C26.6137 46.3314 26.2764 46.6027 25.8364 46.8154C25.4037 47.0281 24.9527 47.1344 24.4834 47.1344ZM28.8521 47.0244V39.7754H29.9851V47.0244H28.8521ZM27.6531 42.3494V41.2494H31.3271V42.3494H27.6531ZM32.5788 47.0244V41.2494H33.7228V43.0644L33.6128 42.6244C33.6934 42.3457 33.8291 42.0927 34.0198 41.8654C34.2178 41.6381 34.4414 41.4584 34.6908 41.3264C34.9474 41.1944 35.2114 41.1284 35.4828 41.1284C35.6074 41.1284 35.7248 41.1394 35.8348 41.1614C35.9521 41.1834 36.0438 41.2091 36.1098 41.2384L35.8128 42.4704C35.7248 42.4337 35.6258 42.4044 35.5158 42.3824C35.4131 42.3531 35.3104 42.3384 35.2078 42.3384C35.0098 42.3384 34.8191 42.3787 34.6358 42.4594C34.4598 42.5327 34.3021 42.6391 34.1628 42.7784C34.0308 42.9104 33.9244 43.0681 33.8438 43.2514C33.7631 43.4274 33.7228 43.6217 33.7228 43.8344V47.0244H32.5788ZM37.4223 47.0244V41.2494H38.5553V47.0244H37.4223ZM37.9723 39.9734C37.7303 39.9734 37.5433 39.9111 37.4113 39.7864C37.2793 39.6617 37.2133 39.4857 37.2133 39.2584C37.2133 39.0457 37.2793 38.8734 37.4113 38.7414C37.5506 38.6094 37.7376 38.5434 37.9723 38.5434C38.2143 38.5434 38.4013 38.6057 38.5333 38.7304C38.6653 38.8551 38.7313 39.0311 38.7313 39.2584C38.7313 39.4711 38.6616 39.6434 38.5223 39.7754C38.3903 39.9074 38.207 39.9734 37.9723 39.9734ZM42.9698 47.1344C42.4345 47.1344 41.9542 47.0024 41.5288 46.7384C41.1108 46.4744 40.7772 46.1151 40.5278 45.6604C40.2858 45.2057 40.1648 44.6961 40.1648 44.1314C40.1648 43.5667 40.2858 43.0571 40.5278 42.6024C40.7772 42.1477 41.1108 41.7884 41.5288 41.5244C41.9542 41.2604 42.4345 41.1284 42.9698 41.1284C43.4832 41.1284 43.9488 41.2347 44.3668 41.4474C44.7922 41.6527 45.1148 41.9351 45.3348 42.2944L44.7078 43.0644C44.5905 42.8957 44.4402 42.7417 44.2568 42.6024C44.0735 42.4631 43.8792 42.3531 43.6738 42.2724C43.4685 42.1917 43.2705 42.1514 43.0798 42.1514C42.7278 42.1514 42.4125 42.2394 42.1338 42.4154C41.8625 42.5841 41.6462 42.8187 41.4848 43.1194C41.3235 43.4201 41.2428 43.7574 41.2428 44.1314C41.2428 44.5054 41.3272 44.8427 41.4958 45.1434C41.6645 45.4367 41.8882 45.6714 42.1668 45.8474C42.4455 46.0234 42.7535 46.1114 43.0908 46.1114C43.2888 46.1114 43.4795 46.0784 43.6628 46.0124C43.8535 45.9464 44.0368 45.8474 44.2128 45.7154C44.3888 45.5834 44.5538 45.4221 44.7078 45.2314L45.3348 46.0014C45.1002 46.3314 44.7628 46.6027 44.3228 46.8154C43.8902 47.0281 43.4392 47.1344 42.9698 47.1344ZM52.4786 47.0244L49.3986 39.3244H50.7516L52.5886 43.9994C52.6766 44.2267 52.7536 44.4321 52.8196 44.6154C52.8929 44.7987 52.9552 44.9674 53.0066 45.1214C53.0579 45.2681 53.1056 45.4074 53.1496 45.5394C53.1936 45.6714 53.2376 45.8034 53.2816 45.9354L52.9956 45.9464C53.0469 45.7704 53.1019 45.5871 53.1606 45.3964C53.2192 45.2057 53.2852 44.9967 53.3586 44.7694C53.4392 44.5421 53.5346 44.2854 53.6446 43.9994L55.3496 39.3244H56.7356L53.6336 47.0244H52.4786ZM60.0496 47.1344C59.4556 47.1344 58.9276 47.0097 58.4656 46.7604C58.0109 46.5037 57.6516 46.1554 57.3876 45.7154C57.1309 45.2754 57.0026 44.7694 57.0026 44.1974C57.0026 43.7427 57.0759 43.3284 57.2226 42.9544C57.3692 42.5804 57.5709 42.2577 57.8276 41.9864C58.0916 41.7077 58.4032 41.4951 58.7626 41.3484C59.1292 41.1944 59.5252 41.1174 59.9506 41.1174C60.3246 41.1174 60.6729 41.1907 60.9956 41.3374C61.3182 41.4767 61.5969 41.6711 61.8316 41.9204C62.0736 42.1697 62.2569 42.4667 62.3816 42.8114C62.5136 43.1487 62.5759 43.5191 62.5686 43.9224L62.5576 44.4064H57.8386L57.5856 43.5044H61.5786L61.4136 43.6914V43.4274C61.3916 43.1854 61.3109 42.9691 61.1716 42.7784C61.0322 42.5877 60.8562 42.4374 60.6436 42.3274C60.4309 42.2174 60.1999 42.1624 59.9506 42.1624C59.5546 42.1624 59.2209 42.2394 58.9496 42.3934C58.6782 42.5401 58.4729 42.7601 58.3336 43.0534C58.1942 43.3394 58.1246 43.6951 58.1246 44.1204C58.1246 44.5237 58.2089 44.8757 58.3776 45.1764C58.5462 45.4697 58.7846 45.6971 59.0926 45.8584C59.4006 46.0197 59.7562 46.1004 60.1596 46.1004C60.4456 46.1004 60.7096 46.0527 60.9516 45.9574C61.2009 45.8621 61.4686 45.6897 61.7546 45.4404L62.3266 46.2434C62.1506 46.4194 61.9342 46.5734 61.6776 46.7054C61.4282 46.8374 61.1606 46.9437 60.8746 47.0244C60.5959 47.0977 60.3209 47.1344 60.0496 47.1344ZM64.0199 47.0244V38.8844H65.1529V42.4374L64.9549 42.5694C65.0282 42.3127 65.1712 42.0781 65.3839 41.8654C65.5965 41.6454 65.8495 41.4694 66.1429 41.3374C66.4362 41.1981 66.7369 41.1284 67.0449 41.1284C67.4849 41.1284 67.8515 41.2164 68.1449 41.3924C68.4382 41.5611 68.6582 41.8214 68.8049 42.1734C68.9515 42.5254 69.0249 42.9691 69.0249 43.5044V47.0244H67.8919V43.5814C67.8919 43.2514 67.8479 42.9801 67.7599 42.7674C67.6719 42.5474 67.5362 42.3897 67.3529 42.2944C67.1695 42.1917 66.9422 42.1477 66.6709 42.1624C66.4509 42.1624 66.2492 42.1991 66.0659 42.2724C65.8825 42.3384 65.7212 42.4337 65.5819 42.5584C65.4499 42.6831 65.3435 42.8297 65.2629 42.9984C65.1895 43.1597 65.1529 43.3357 65.1529 43.5264V47.0244H64.5919C64.4965 47.0244 64.4012 47.0244 64.3059 47.0244C64.2105 47.0244 64.1152 47.0244 64.0199 47.0244ZM70.9689 47.0244V41.2494H72.1019V47.0244H70.9689ZM71.5189 39.9734C71.2769 39.9734 71.0899 39.9111 70.9579 39.7864C70.8259 39.6617 70.7599 39.4857 70.7599 39.2584C70.7599 39.0457 70.8259 38.8734 70.9579 38.7414C71.0972 38.6094 71.2842 38.5434 71.5189 38.5434C71.7609 38.5434 71.9479 38.6057 72.0799 38.7304C72.2119 38.8551 72.2779 39.0311 72.2779 39.2584C72.2779 39.4711 72.2082 39.6434 72.0689 39.7754C71.9369 39.9074 71.7535 39.9734 71.5189 39.9734ZM76.5164 47.1344C75.9811 47.1344 75.5007 47.0024 75.0754 46.7384C74.6574 46.4744 74.3237 46.1151 74.0744 45.6604C73.8324 45.2057 73.7114 44.6961 73.7114 44.1314C73.7114 43.5667 73.8324 43.0571 74.0744 42.6024C74.3237 42.1477 74.6574 41.7884 75.0754 41.5244C75.5007 41.2604 75.9811 41.1284 76.5164 41.1284C77.0297 41.1284 77.4954 41.2347 77.9134 41.4474C78.3387 41.6527 78.6614 41.9351 78.8814 42.2944L78.2544 43.0644C78.1371 42.8957 77.9867 42.7417 77.8034 42.6024C77.6201 42.4631 77.4257 42.3531 77.2204 42.2724C77.0151 42.1917 76.8171 42.1514 76.6264 42.1514C76.2744 42.1514 75.9591 42.2394 75.6804 42.4154C75.4091 42.5841 75.1927 42.8187 75.0314 43.1194C74.8701 43.4201 74.7894 43.7574 74.7894 44.1314C74.7894 44.5054 74.8737 44.8427 75.0424 45.1434C75.2111 45.4367 75.4347 45.6714 75.7134 45.8474C75.9921 46.0234 76.3001 46.1114 76.6374 46.1114C76.8354 46.1114 77.0261 46.0784 77.2094 46.0124C77.4001 45.9464 77.5834 45.8474 77.7594 45.7154C77.9354 45.5834 78.1004 45.4221 78.2544 45.2314L78.8814 46.0014C78.6467 46.3314 78.3094 46.6027 77.8694 46.8154C77.4367 47.0281 76.9857 47.1344 76.5164 47.1344ZM80.1921 47.0244V38.8844H81.3251V47.0244H80.1921ZM85.7384 47.1344C85.1444 47.1344 84.6164 47.0097 84.1544 46.7604C83.6998 46.5037 83.3404 46.1554 83.0764 45.7154C82.8198 45.2754 82.6914 44.7694 82.6914 44.1974C82.6914 43.7427 82.7648 43.3284 82.9114 42.9544C83.0581 42.5804 83.2598 42.2577 83.5164 41.9864C83.7804 41.7077 84.0921 41.4951 84.4514 41.3484C84.8181 41.1944 85.2141 41.1174 85.6394 41.1174C86.0134 41.1174 86.3618 41.1907 86.6844 41.3374C87.0071 41.4767 87.2858 41.6711 87.5204 41.9204C87.7624 42.1697 87.9458 42.4667 88.0704 42.8114C88.2024 43.1487 88.2648 43.5191 88.2574 43.9224L88.2464 44.4064H83.5274L83.2744 43.5044H87.2674L87.1024 43.6914V43.4274C87.0804 43.1854 86.9998 42.9691 86.8604 42.7784C86.7211 42.5877 86.5451 42.4374 86.3324 42.3274C86.1198 42.2174 85.8888 42.1624 85.6394 42.1624C85.2434 42.1624 84.9098 42.2394 84.6384 42.3934C84.3671 42.5401 84.1618 42.7601 84.0224 43.0534C83.8831 43.3394 83.8134 43.6951 83.8134 44.1204C83.8134 44.5237 83.8978 44.8757 84.0664 45.1764C84.2351 45.4697 84.4734 45.6971 84.7814 45.8584C85.0894 46.0197 85.4451 46.1004 85.8484 46.1004C86.1344 46.1004 86.3984 46.0527 86.6404 45.9574C86.8898 45.8621 87.1574 45.6897 87.4434 45.4404L88.0154 46.2434C87.8394 46.4194 87.6231 46.5734 87.3664 46.7054C87.1171 46.8374 86.8494 46.9437 86.5634 47.0244C86.2848 47.0977 86.0098 47.1344 85.7384 47.1344ZM91.6337 47.1344C91.1497 47.1344 90.7134 47.0501 90.3247 46.8814C89.9361 46.7127 89.6134 46.4634 89.3567 46.1334L90.1267 45.4734C90.3467 45.7301 90.5851 45.9171 90.8417 46.0344C91.1057 46.1444 91.4027 46.1994 91.7327 46.1994C91.8647 46.1994 91.9857 46.1847 92.0957 46.1554C92.2131 46.1187 92.3121 46.0674 92.3927 46.0014C92.4807 45.9354 92.5467 45.8584 92.5907 45.7704C92.6347 45.6751 92.6567 45.5724 92.6567 45.4624C92.6567 45.2717 92.5871 45.1177 92.4477 45.0004C92.3744 44.9491 92.2571 44.8941 92.0957 44.8354C91.9417 44.7694 91.7401 44.7034 91.4907 44.6374C91.0654 44.5274 90.7171 44.4027 90.4457 44.2634C90.1744 44.1241 89.9654 43.9664 89.8187 43.7904C89.7087 43.6511 89.6281 43.5007 89.5767 43.3394C89.5254 43.1707 89.4997 42.9874 89.4997 42.7894C89.4997 42.4667 89.5914 42.1807 89.7747 41.9314C89.9581 41.6821 90.2037 41.4877 90.5117 41.3484C90.8271 41.2017 91.1791 41.1284 91.5677 41.1284C91.8391 41.1284 92.1067 41.1651 92.3707 41.2384C92.6421 41.3117 92.8914 41.4181 93.1187 41.5574C93.3461 41.6967 93.5367 41.8617 93.6907 42.0524L93.0417 42.7674C92.9024 42.6281 92.7484 42.5071 92.5797 42.4044C92.4184 42.2944 92.2534 42.2101 92.0847 42.1514C91.9161 42.0927 91.7621 42.0634 91.6227 42.0634C91.4687 42.0634 91.3294 42.0781 91.2047 42.1074C91.0801 42.1367 90.9737 42.1807 90.8857 42.2394C90.8051 42.2981 90.7427 42.3714 90.6987 42.4594C90.6547 42.5474 90.6327 42.6464 90.6327 42.7564C90.6401 42.8517 90.6621 42.9434 90.6987 43.0314C90.7427 43.1121 90.8014 43.1817 90.8747 43.2404C90.9554 43.2991 91.0764 43.3614 91.2377 43.4274C91.3991 43.4934 91.6044 43.5557 91.8537 43.6144C92.2204 43.7097 92.5211 43.8161 92.7557 43.9334C92.9977 44.0434 93.1884 44.1717 93.3277 44.3184C93.4744 44.4577 93.5771 44.6191 93.6357 44.8024C93.6944 44.9857 93.7237 45.1911 93.7237 45.4184C93.7237 45.7484 93.6284 46.0454 93.4377 46.3094C93.2544 46.5661 93.0051 46.7677 92.6897 46.9144C92.3744 47.0611 92.0224 47.1344 91.6337 47.1344Z" fill="white"></path><path fill-rule="evenodd" clip-rule="evenodd" d="M38.9269 19.0932L40.5442 14.6456C40.9034 13.6577 41.8424 13 42.8936 13H48.6426H54.3915C55.4428 13 56.3817 13.6577 56.741 14.6456L58.3583 19.0932C58.5456 19.6081 58.8433 20.0758 59.2308 20.4633L59.6781 20.9105C60.6158 21.8482 61.1426 23.12 61.1426 24.4461V30.5V31.75C61.1426 32.4404 60.583 33 59.8926 33H58.6426C57.9522 33 57.3926 32.4404 57.3926 31.75V30.5C50.4022 30.7588 46.8048 30.6946 39.8926 30.5V31.75C39.8926 32.4404 39.3329 33 38.6426 33H37.3926C36.7022 33 36.1426 32.4404 36.1426 31.75V30.5V24.4461C36.1426 23.12 36.6694 21.8482 37.607 20.9105L38.0543 20.4633C38.4418 20.0758 38.7396 19.6081 38.9269 19.0932ZM40.5176 19.875L42.1077 15.1047C42.2778 14.5943 42.7555 14.25 43.2935 14.25H53.9916C54.5297 14.25 55.0073 14.5943 55.1775 15.1047L56.7676 19.875H40.5176ZM45.8814 25.8136L49.4831 21.215C49.6403 21.0142 49.9541 21.1779 49.8871 21.4257L49.022 24.6295L51.2085 24.4899C51.4091 24.4771 51.5293 24.7135 51.4038 24.8739L47.8021 29.4725C47.6448 29.6732 47.3311 29.5096 47.3981 29.2617L48.2632 26.058L46.0767 26.1976C45.8761 26.2104 45.7558 25.974 45.8814 25.8136Z" fill="white"></path></svg>