<svg xmlns="http://www.w3.org/2000/svg" width="119" height="60" viewBox="0 0 119 60" fill="none"><path d="M118.752 0.234375C118.752 0.234375 115.809 20.1965 99.0983 28.4941V42.1759C99.0983 46.8465 97.2943 51.0816 94.3414 54.2554C92.5958 56.1559 90.4249 57.6705 87.9836 58.6556C86.4106 59.3018 84.7323 59.717 82.9664 59.8719C82.8991 59.8909 82.8026 59.8909 82.7353 59.8909C82.5716 59.8998 82.3976 59.9201 82.2237 59.9201C81.9343 59.9392 81.6258 59.9493 81.3262 59.9493H17.7823C16.0456 59.9493 14.3673 59.6979 12.774 59.2346C12.2053 59.0606 11.6454 58.8677 11.0957 58.6468C4.59316 56.0112 0 49.6242 0 42.1759V19.483C0 9.66064 7.97012 1.69052 17.7823 1.69052H81.3262C89.7495 1.69052 96.7929 7.56717 98.6261 15.4395C103.865 14.0215 112.067 10.2484 118.752 0.234375Z" fill="#FD5900"></path><path d="M22.9399 48.0244V39.6734H26.4235C26.9563 39.6734 27.4057 39.7529 27.7716 39.912C28.1374 40.0711 28.4118 40.3097 28.5947 40.6278C28.7856 40.938 28.881 41.3198 28.881 41.7731C28.881 42.2264 28.7538 42.6122 28.4993 42.9303C28.2527 43.2484 27.9068 43.4672 27.4614 43.5865V43.3479C27.8352 43.4274 28.1613 43.5705 28.4396 43.7773C28.718 43.9762 28.9327 44.2267 29.0839 44.5289C29.2429 44.8311 29.3225 45.1771 29.3225 45.5668C29.3225 45.9645 29.2588 46.3184 29.1316 46.6286C29.0123 46.9308 28.8293 47.1853 28.5828 47.3921C28.3442 47.5989 28.0539 47.758 27.7119 47.8693C27.3699 47.9727 26.9802 48.0244 26.5428 48.0244H22.9399ZM24.2283 46.7837H26.4712C26.9563 46.7837 27.3341 46.6763 27.6045 46.4616C27.8749 46.2468 28.0102 45.9406 28.0102 45.543C28.0102 45.2964 27.9426 45.0857 27.8073 44.9107C27.6801 44.7357 27.4972 44.6045 27.2586 44.517C27.02 44.4216 26.7376 44.3738 26.4115 44.3738H24.2283V46.7837ZM24.2283 43.1331H26.3519C26.5905 43.1331 26.8012 43.0854 26.9842 42.99C27.1751 42.8945 27.3222 42.7633 27.4256 42.5963C27.5369 42.4292 27.5926 42.2384 27.5926 42.0236C27.5926 41.6657 27.4733 41.3913 27.2347 41.2005C26.9961 41.0096 26.6541 40.9141 26.2087 40.9141H24.2283V43.1331ZM34.6872 48.0244V43.9444C34.6872 43.5944 34.56 43.3121 34.3055 43.0973C34.0589 42.8746 33.7448 42.7633 33.363 42.7633C33.0131 42.7633 32.6949 42.8349 32.4086 42.978C32.1302 43.1212 31.8757 43.3399 31.6451 43.6342L30.8458 42.8349C31.2196 42.4292 31.6212 42.127 32.0507 41.9282C32.4881 41.7293 32.9574 41.6299 33.4584 41.6299C33.9356 41.6299 34.3492 41.7095 34.6992 41.8685C35.0491 42.0276 35.3195 42.2622 35.5104 42.5724C35.7013 42.8746 35.7967 43.2445 35.7967 43.6819V48.0244H34.6872ZM32.8142 48.1437C32.4086 48.1437 32.0467 48.0642 31.7286 47.9051C31.4105 47.746 31.1559 47.5273 30.9651 47.249C30.7821 46.9626 30.6907 46.6286 30.6907 46.2468C30.6907 45.9128 30.7503 45.6185 30.8696 45.364C30.9889 45.1095 31.1639 44.8988 31.3945 44.7317C31.6331 44.5647 31.9274 44.4375 32.2774 44.35C32.6353 44.2625 33.0449 44.2187 33.5062 44.2187H35.2479L35.1406 45.197H33.3511C33.1125 45.197 32.8977 45.2209 32.7068 45.2686C32.5239 45.3083 32.3649 45.376 32.2296 45.4714C32.1024 45.5589 32.007 45.6662 31.9433 45.7935C31.8797 45.9128 31.8479 46.056 31.8479 46.223C31.8479 46.398 31.8916 46.553 31.9791 46.6883C32.0666 46.8155 32.1859 46.9149 32.337 46.9865C32.4881 47.0581 32.6631 47.0939 32.8619 47.0939C33.1483 47.0939 33.4187 47.0462 33.6732 46.9507C33.9356 46.8473 34.1663 46.7081 34.3651 46.5332C34.5719 46.3582 34.731 46.1633 34.8423 45.9486L35.1286 46.7479C34.9616 47.0263 34.7548 47.2688 34.5083 47.4756C34.2617 47.6824 33.9953 47.8455 33.709 47.9648C33.4226 48.0841 33.1244 48.1437 32.8142 48.1437ZM37.5884 48.0244V41.7612H38.8291V43.7296L38.7098 43.2524C38.7973 42.9502 38.9444 42.6758 39.1512 42.4292C39.3659 42.1827 39.6085 41.9878 39.8789 41.8447C40.1573 41.7015 40.4436 41.6299 40.7379 41.6299C40.8731 41.6299 41.0003 41.6419 41.1196 41.6657C41.2469 41.6896 41.3463 41.7174 41.4179 41.7492L41.0958 43.0854C41.0003 43.0456 40.893 43.0138 40.7737 42.99C40.6623 42.9581 40.551 42.9422 40.4396 42.9422C40.2249 42.9422 40.0181 42.986 39.8193 43.0735C39.6284 43.153 39.4574 43.2683 39.3063 43.4194C39.1631 43.5626 39.0478 43.7336 38.9603 43.9324C38.8728 44.1233 38.8291 44.3341 38.8291 44.5647V48.0244H37.5884ZM45.9313 48.1437C45.6608 48.1437 45.3904 48.1 45.12 48.0125C44.8576 47.925 44.615 47.8097 44.3923 47.6665C44.1775 47.5154 43.9946 47.3524 43.8435 47.1774C43.7003 46.9945 43.6049 46.8115 43.5572 46.6286L43.8674 46.4616V47.9886H42.6386V39.1962H43.8674V43.1928L43.6765 43.0854C43.7163 42.9025 43.8037 42.7275 43.9389 42.5605C44.0742 42.3855 44.2452 42.2304 44.4519 42.0952C44.6667 41.952 44.8973 41.8407 45.1439 41.7612C45.3904 41.6737 45.641 41.6299 45.8955 41.6299C46.4602 41.6299 46.9612 41.7691 47.3986 42.0475C47.8361 42.3258 48.1821 42.7116 48.4366 43.2047C48.6911 43.6898 48.8183 44.2466 48.8183 44.8749C48.8183 45.5032 48.6911 46.0639 48.4366 46.557C48.19 47.0501 47.848 47.4398 47.4106 47.7262C46.9731 48.0045 46.48 48.1437 45.9313 48.1437ZM45.7284 47.0223C46.0943 47.0223 46.4204 46.9308 46.7067 46.7479C46.993 46.557 47.2197 46.3025 47.3867 45.9844C47.5537 45.6583 47.6373 45.2885 47.6373 44.8749C47.6373 44.4693 47.5537 44.1074 47.3867 43.7893C47.2277 43.4632 47.005 43.2087 46.7186 43.0257C46.4323 42.8428 46.1023 42.7514 45.7284 42.7514C45.3546 42.7514 45.0246 42.8428 44.7383 43.0257C44.4519 43.2087 44.2253 43.4632 44.0582 43.7893C43.8912 44.1074 43.8077 44.4693 43.8077 44.8749C43.8077 45.2885 43.8912 45.6583 44.0582 45.9844C44.2253 46.3025 44.4519 46.557 44.7383 46.7479C45.0246 46.9308 45.3546 47.0223 45.7284 47.0223ZM53.3145 48.1437C52.6703 48.1437 52.0977 48.0085 51.5966 47.7381C51.1035 47.4597 50.7138 47.0819 50.4275 46.6047C50.1491 46.1275 50.0099 45.5788 50.0099 44.9584C50.0099 44.4653 50.0895 44.0159 50.2485 43.6103C50.4076 43.2047 50.6263 42.8547 50.9047 42.5605C51.191 42.2582 51.529 42.0276 51.9187 41.8685C52.3164 41.7015 52.7459 41.618 53.2072 41.618C53.6128 41.618 53.9906 41.6975 54.3405 41.8566C54.6905 42.0077 54.9927 42.2185 55.2472 42.4889C55.5097 42.7593 55.7085 43.0814 55.8437 43.4552C55.9869 43.8211 56.0545 44.2227 56.0465 44.6602L56.0346 45.1851H50.9166L50.6422 44.2068H54.9728L54.7939 44.4096V44.1233C54.77 43.8608 54.6825 43.6262 54.5314 43.4194C54.3803 43.2126 54.1894 43.0496 53.9588 42.9303C53.7281 42.811 53.4776 42.7514 53.2072 42.7514C52.7777 42.7514 52.4158 42.8349 52.1215 43.0019C51.8273 43.1609 51.6046 43.3995 51.4535 43.7177C51.3023 44.0279 51.2268 44.4136 51.2268 44.8749C51.2268 45.3123 51.3182 45.6941 51.5012 46.0202C51.6841 46.3383 51.9426 46.5849 52.2766 46.7598C52.6107 46.9348 52.9964 47.0223 53.4338 47.0223C53.744 47.0223 54.0303 46.9706 54.2928 46.8672C54.5632 46.7638 54.8535 46.5769 55.1637 46.3065L55.784 47.1774C55.5932 47.3683 55.3585 47.5353 55.0802 47.6784C54.8098 47.8216 54.5195 47.9369 54.2093 48.0244C53.9071 48.1039 53.6088 48.1437 53.3145 48.1437ZM60.2809 48.1437C59.7003 48.1437 59.1794 48.0006 58.7181 47.7142C58.2647 47.4279 57.9029 47.0382 57.6324 46.5451C57.37 46.052 57.2388 45.4992 57.2388 44.8868C57.2388 44.2744 57.37 43.7217 57.6324 43.2286C57.9029 42.7354 58.2647 42.3457 58.7181 42.0594C59.1794 41.7731 59.7003 41.6299 60.2809 41.6299C60.8376 41.6299 61.3427 41.7453 61.796 41.9759C62.2573 42.1986 62.6073 42.5048 62.8459 42.8945L62.1659 43.7296C62.0386 43.5467 61.8756 43.3797 61.6767 43.2286C61.4779 43.0774 61.2671 42.9581 61.0444 42.8707C60.8217 42.7832 60.607 42.7394 60.4002 42.7394C60.0184 42.7394 59.6765 42.8349 59.3742 43.0257C59.08 43.2087 58.8453 43.4632 58.6704 43.7893C58.4954 44.1153 58.4079 44.4812 58.4079 44.8868C58.4079 45.2924 58.4994 45.6583 58.6823 45.9844C58.8652 46.3025 59.1078 46.557 59.41 46.7479C59.7122 46.9388 60.0463 47.0342 60.4121 47.0342C60.6269 47.0342 60.8337 46.9984 61.0325 46.9269C61.2393 46.8553 61.4381 46.7479 61.629 46.6047C61.8199 46.4616 61.9988 46.2866 62.1659 46.0798L62.8459 46.9149C62.5914 47.2728 62.2255 47.5671 61.7483 47.7977C61.2791 48.0284 60.7899 48.1437 60.2809 48.1437ZM66.4387 48.1437C65.9933 48.1437 65.6036 48.0403 65.2695 47.8335C64.9434 47.6267 64.6889 47.3365 64.506 46.9626C64.331 46.5888 64.2435 46.1434 64.2435 45.6265V41.7612H65.4723V45.2924C65.4723 45.8412 65.5996 46.2747 65.8541 46.5928C66.1165 46.9109 66.4784 47.07 66.9397 47.07C67.1704 47.07 67.3811 47.0342 67.572 46.9626C67.7629 46.8831 67.9259 46.7757 68.0611 46.6405C68.2043 46.5053 68.3156 46.3423 68.3952 46.1514C68.4747 45.9605 68.5145 45.7537 68.5145 45.531V41.7612H69.7433V48.0244H68.5145V46.7121L68.7292 46.569C68.6338 46.8632 68.4707 47.1297 68.2401 47.3683C68.0174 47.6069 67.751 47.7977 67.4408 47.9409C67.1306 48.0761 66.7966 48.1437 66.4387 48.1437ZM74.6282 48.1437C73.984 48.1437 73.4114 48.0085 72.9103 47.7381C72.4172 47.4597 72.0275 47.0819 71.7412 46.6047C71.4628 46.1275 71.3236 45.5788 71.3236 44.9584C71.3236 44.4653 71.4032 44.0159 71.5622 43.6103C71.7213 43.2047 71.94 42.8547 72.2184 42.5605C72.5047 42.2582 72.8427 42.0276 73.2324 41.8685C73.6301 41.7015 74.0596 41.618 74.5209 41.618C74.9265 41.618 75.3043 41.6975 75.6542 41.8566C76.0042 42.0077 76.3064 42.2185 76.5609 42.4889C76.8234 42.7593 77.0222 43.0814 77.1574 43.4552C77.3006 43.8211 77.3682 44.2227 77.3602 44.6602L77.3483 45.1851H72.2303L71.9559 44.2068H76.2865L76.1076 44.4096V44.1233C76.0837 43.8608 75.9962 43.6262 75.8451 43.4194C75.694 43.2126 75.5031 43.0496 75.2725 42.9303C75.0418 42.811 74.7913 42.7514 74.5209 42.7514C74.0914 42.7514 73.7295 42.8349 73.4352 43.0019C73.141 43.1609 72.9183 43.3995 72.7672 43.7177C72.616 44.0279 72.5405 44.4136 72.5405 44.8749C72.5405 45.3123 72.6319 45.6941 72.8149 46.0202C72.9978 46.3383 73.2563 46.5849 73.5903 46.7598C73.9244 46.9348 74.3101 47.0223 74.7475 47.0223C75.0577 47.0223 75.344 46.9706 75.6065 46.8672C75.8769 46.7638 76.1672 46.5769 76.4774 46.3065L77.0977 47.1774C76.9069 47.3683 76.6722 47.5353 76.3939 47.6784C76.1235 47.8216 75.8332 47.9369 75.523 48.0244C75.2208 48.1039 74.9225 48.1437 74.6282 48.1437Z" fill="white"></path><g clip-path="url(#clip0_6201_194)"><path d="M43.2989 30.6565C43.1444 31.1089 43.3938 31.5579 43.7988 31.7008C44.2199 31.8512 44.6905 31.6278 44.8453 31.1989L45.9216 28.1338H44.1859L43.2989 30.6565Z" fill="white"></path><path d="M54.2359 28.1338H52.5002L53.5765 31.1989C53.7335 31.6384 54.2161 31.8497 54.623 31.7008C55.0463 31.5509 55.2735 31.0837 55.1229 30.6586L54.2359 28.1338Z" fill="white"></path><path d="M48.3909 30.8945C48.3909 31.3454 48.7588 31.7134 49.2098 31.7134C49.6628 31.7134 50.0287 31.3454 50.0287 30.8945V28.1335H48.3909V30.8945Z" fill="white"></path><path d="M54.8209 26.0706H43.6006C43.1476 26.0706 42.7817 26.4385 42.7817 26.8895C42.7817 27.3404 43.1476 27.7083 43.6006 27.7083H54.8209C55.2739 27.7083 55.6398 27.3404 55.6398 26.8895C55.6398 26.4385 55.274 26.0706 54.8209 26.0706Z" fill="white"></path><path d="M48.678 12.6274C48.3025 11.8676 48.5446 11.4259 48.9333 11.3341C49.0481 11.3065 49.163 11.3767 49.1885 11.4916C49.2161 11.6064 49.146 11.7192 49.0311 11.7468C48.7795 11.8078 48.9455 12.2095 49.0587 12.436C49.4434 13.2054 49.1481 13.6535 48.7631 13.7186C48.6507 13.7411 48.5378 13.6626 48.5184 13.5463C48.4972 13.4293 48.5759 13.3187 48.6907 13.2996C48.9435 13.255 48.7905 12.8523 48.678 12.6274Z" fill="white"></path><path d="M50.384 12.6274C50.0083 11.8672 50.2502 11.4254 50.6392 11.3341C50.7519 11.3065 50.8689 11.3767 50.8945 11.4916C50.9221 11.6064 50.8519 11.7192 50.737 11.7468C50.4855 11.8078 50.6513 12.2093 50.7647 12.436C51.1502 13.2069 50.8533 13.6537 50.469 13.7186C50.3435 13.7395 50.2423 13.6537 50.2244 13.5463C50.2031 13.4293 50.2818 13.3187 50.3967 13.2996C50.6498 13.2549 50.4959 12.8513 50.384 12.6274Z" fill="white"></path><path d="M58.8474 15.618C58.8474 15.735 58.7538 15.8307 58.6347 15.8307H54.6975C54.5975 16.337 54.1487 16.722 53.6127 16.722H52.7512C52.2152 16.722 51.7685 16.337 51.6685 15.8307H50.9773C50.9539 16.3242 50.5476 16.722 50.0477 16.722C49.7542 16.722 49.4968 16.5837 49.3245 16.3731C49.1544 16.5837 48.8949 16.722 48.6035 16.722C48.3099 16.722 48.0526 16.5837 47.8803 16.3731C47.7101 16.5837 47.4506 16.722 47.1592 16.722C46.6593 16.722 46.251 16.3242 46.2275 15.8307H45.6192V16.1243C45.6192 16.454 45.3512 16.722 45.0236 16.722H44.3472C44.0175 16.722 43.7495 16.4539 43.7495 16.1243V15.8307H43.1263C43.0093 15.8307 42.9136 15.735 42.9136 15.618C42.9136 15.501 43.0093 15.4053 43.1263 15.4053H43.7495V15.1096C43.7495 14.7799 44.0175 14.512 44.3472 14.512H45.0236C45.3512 14.512 45.6192 14.78 45.6192 15.1096V15.4053H46.2275C46.2509 14.9097 46.6571 14.512 47.1592 14.512C47.4506 14.512 47.7101 14.6502 47.8802 14.8608C48.0525 14.6502 48.3099 14.512 48.6034 14.512C48.8948 14.512 49.1543 14.6502 49.3245 14.8608C49.4968 14.6502 49.7541 14.512 50.0477 14.512C50.5497 14.512 50.9559 14.9097 50.9772 15.4053H51.6685C51.7685 14.8969 52.2151 14.512 52.7512 14.512H53.6126C54.1508 14.512 54.5975 14.8969 54.6974 15.4053H58.6346C58.7538 15.4053 58.8474 15.501 58.8474 15.618Z" fill="white"></path><path d="M45.2685 12.6274C44.8773 11.8539 45.155 11.4207 45.5216 11.3341C45.6364 11.3065 45.7513 11.3767 45.779 11.4916C45.8066 11.6064 45.7343 11.7192 45.6215 11.7468C45.3714 11.8057 45.5342 12.212 45.6492 12.436C46.0295 13.2167 45.7321 13.6542 45.3535 13.7186C45.2282 13.7395 45.1269 13.6539 45.1068 13.5463C45.0876 13.4293 45.1642 13.3187 45.2812 13.2996C45.5297 13.2544 45.38 12.8505 45.2685 12.6274Z" fill="white"></path><path d="M58.418 18.5343C58.418 19.1529 57.6684 19.4707 57.2311 19.0405C57.1099 18.9257 56.9503 18.8427 56.7738 18.7959C56.3569 21.1677 54.8786 23.1288 52.86 24.2136L53.362 25.6451H51.6263L51.3392 24.8283C50.9159 24.9475 50.4777 25.0325 50.0289 25.0793V25.6452H48.391V25.0793C47.9422 25.0326 47.5041 24.9475 47.0829 24.8283L46.7957 25.6451H45.0601L45.5621 24.2136C43.5414 23.1309 42.0652 21.1677 41.6483 18.796C41.4717 18.8428 41.3122 18.9279 41.1889 19.0449C40.7531 19.4661 40.002 19.1566 40.002 18.5344C40.002 18.4174 40.0977 18.3217 40.2147 18.3217C40.3338 18.3217 40.4274 18.4174 40.4274 18.5344C40.4274 18.7773 40.7199 18.9046 40.8953 18.7364C41.0825 18.5599 41.3228 18.4344 41.5845 18.3727C41.576 18.3068 41.5696 18.2387 41.5632 18.1728C41.5398 17.9281 41.6207 17.6856 41.7844 17.507C41.9461 17.3283 42.1694 17.2305 42.4098 17.2305H56.0124C56.2527 17.2305 56.4739 17.3283 56.6377 17.507C56.8015 17.6857 56.8802 17.9282 56.8589 18.1728C56.8525 18.2387 56.8462 18.3068 56.8377 18.3727C57.1014 18.4323 57.3375 18.5556 57.5247 18.7343C57.7041 18.9065 57.9927 18.7764 57.9927 18.5344C57.9927 18.4174 58.0884 18.3217 58.2054 18.3217C58.3244 18.3216 58.418 18.4173 58.418 18.5343Z" fill="white"></path><path d="M46.9743 12.6274C46.5831 11.8539 46.8608 11.4207 47.2274 11.3341C47.3422 11.3065 47.4571 11.3767 47.4848 11.4916C47.5103 11.6064 47.4401 11.7192 47.3252 11.7468C47.0775 11.8069 47.2413 12.2127 47.3529 12.436C47.7384 13.207 47.4415 13.6537 47.0572 13.7186C46.9443 13.7412 46.8316 13.6602 46.8126 13.5463C46.7935 13.4293 46.87 13.3187 46.9849 13.2996C47.2381 13.2549 47.0836 12.8517 46.9743 12.6274Z" fill="white"></path></g><defs><clipPath id="clip0_6201_194"><rect width="20.4514" height="20.4514" fill="white" transform="translate(39.1987 11.3123)"></rect></clipPath></defs></svg>