<svg xmlns="http://www.w3.org/2000/svg" width="123" height="60" viewBox="0 0 123 60" fill="none"><path d="M122.118 18.8309V41.5909C122.118 46.274 120.318 50.523 117.357 53.7062C114.463 56.8411 110.448 58.9318 105.949 59.329C105.871 59.3583 105.784 59.3583 105.707 59.3583H105.677C105.523 59.3685 105.358 59.3774 105.204 59.3774C104.903 59.4067 104.594 59.4156 104.295 59.4156H40.5718C39.2654 59.4156 37.9883 59.2705 36.7685 58.9992C35.7626 58.7866 34.7949 58.4861 33.8654 58.1092C27.3334 55.4672 22.728 49.0613 22.728 41.5909V36.2584C3.66433 28.8173 0.412354 6.75378 0.412354 6.75378C8.11574 18.2885 17.8118 21.5697 22.728 22.498V18.8309C22.728 8.97947 30.7204 0.987061 40.5718 0.987061H104.295C114.146 0.987061 122.119 8.97947 122.119 18.8309H122.118Z" fill="#02A68F"></path><path d="M43.6613 47.1736V38.7979H48.938V40.0423H44.9535V45.9292H48.938V47.1736H43.6613ZM44.2476 43.5002V42.2558H48.2799V43.5002H44.2476ZM55.4635 49.8059V45.6779H55.7028C55.7028 45.8694 55.639 46.0608 55.5114 46.2523C55.3838 46.4357 55.2123 46.6072 54.9969 46.7668C54.7815 46.9263 54.5422 47.0539 54.279 47.1497C54.0157 47.2454 53.7445 47.2932 53.4653 47.2932C52.899 47.2932 52.3924 47.1536 51.9457 46.8745C51.499 46.5873 51.1441 46.2004 50.8808 45.7138C50.6256 45.2193 50.4979 44.6569 50.4979 44.0267C50.4979 43.3965 50.6256 42.8382 50.8808 42.3516C51.1361 41.857 51.4831 41.4701 51.9218 41.1909C52.3685 40.9038 52.8711 40.7602 53.4294 40.7602C53.7405 40.7602 54.0357 40.812 54.3149 40.9157C54.602 41.0194 54.8573 41.155 55.0806 41.3226C55.312 41.4901 55.4915 41.6775 55.6191 41.8849C55.7547 42.0843 55.8225 42.2878 55.8225 42.4952L55.4635 42.5191V40.8798H56.696V49.8059H55.4635ZM53.597 46.1565C53.9719 46.1565 54.3029 46.0648 54.5901 45.8813C54.8772 45.6979 55.1006 45.4466 55.2601 45.1275C55.4276 44.8084 55.5114 44.4415 55.5114 44.0267C55.5114 43.6119 55.4276 43.245 55.2601 42.9259C55.1006 42.5989 54.8772 42.3436 54.5901 42.1601C54.3029 41.9767 53.9719 41.8849 53.597 41.8849C53.222 41.8849 52.891 41.9806 52.6038 42.1721C52.3167 42.3556 52.0893 42.6108 51.9218 42.9379C51.7623 43.2569 51.6825 43.6199 51.6825 44.0267C51.6825 44.4335 51.7623 44.8005 51.9218 45.1275C52.0893 45.4466 52.3167 45.6979 52.6038 45.8813C52.891 46.0648 53.222 46.1565 53.597 46.1565ZM60.8585 47.2932C60.4118 47.2932 60.0209 47.1895 59.6859 46.9821C59.3588 46.7747 59.1036 46.4836 58.9201 46.1087C58.7446 45.7338 58.6569 45.2871 58.6569 44.7686V40.8918H59.8893V44.4335C59.8893 44.9839 60.0169 45.4187 60.2722 45.7377C60.5354 46.0568 60.8984 46.2164 61.361 46.2164C61.5924 46.2164 61.8037 46.1805 61.9952 46.1087C62.1866 46.0289 62.3502 45.9212 62.4858 45.7856C62.6293 45.65 62.741 45.4865 62.8208 45.295C62.9006 45.1036 62.9404 44.8962 62.9404 44.6728V40.8918H64.1729V47.1736H62.9404V45.8574L63.1558 45.7138C63.0601 46.009 62.8966 46.2762 62.6652 46.5155C62.4419 46.7548 62.1747 46.9462 61.8636 47.0898C61.5525 47.2254 61.2174 47.2932 60.8585 47.2932ZM66.3442 47.1736V40.8918H67.5766V47.1736H66.3442ZM66.9425 39.5038C66.6792 39.5038 66.4758 39.436 66.3322 39.3004C66.1886 39.1648 66.1169 38.9734 66.1169 38.7261C66.1169 38.4948 66.1886 38.3073 66.3322 38.1637C66.4838 38.0201 66.6872 37.9483 66.9425 37.9483C67.2057 37.9483 67.4091 38.0161 67.5527 38.1518C67.6963 38.2874 67.7681 38.4788 67.7681 38.7261C67.7681 38.9574 67.6923 39.1449 67.5407 39.2885C67.3971 39.432 67.1977 39.5038 66.9425 39.5038ZM69.7103 49.8059V40.8918H70.9547V42.3276L70.7632 42.22C70.8111 41.9806 70.9467 41.7533 71.17 41.5379C71.3934 41.3146 71.6646 41.1351 71.9837 40.9995C72.3107 40.8559 72.6458 40.7841 72.9888 40.7841C73.5551 40.7841 74.0577 40.9237 74.4964 41.2029C74.9351 41.4821 75.2821 41.865 75.5374 42.3516C75.7926 42.8382 75.9203 43.3965 75.9203 44.0267C75.9203 44.6489 75.7926 45.2073 75.5374 45.7019C75.2901 46.1884 74.9471 46.5753 74.5084 46.8625C74.0696 47.1417 73.5751 47.2813 73.0247 47.2813C72.6577 47.2813 72.3028 47.2095 71.9598 47.0659C71.6167 46.9143 71.3256 46.7229 71.0863 46.4916C70.847 46.2602 70.6994 46.0209 70.6436 45.7736L70.9547 45.6061V49.8059H69.7103ZM72.8213 46.1446C73.1882 46.1446 73.5152 46.0528 73.8024 45.8694C74.0896 45.6859 74.3169 45.4346 74.4844 45.1156C74.6519 44.7965 74.7357 44.4335 74.7357 44.0267C74.7357 43.6199 74.6519 43.2609 74.4844 42.9498C74.3249 42.6308 74.1015 42.3795 73.8144 42.196C73.5272 42.0126 73.1962 41.9208 72.8213 41.9208C72.4463 41.9208 72.1153 42.0126 71.8281 42.196C71.541 42.3715 71.3136 42.6188 71.1461 42.9379C70.9786 43.2569 70.8948 43.6199 70.8948 44.0267C70.8948 44.4335 70.9786 44.7965 71.1461 45.1156C71.3136 45.4346 71.541 45.6859 71.8281 45.8694C72.1153 46.0528 72.4463 46.1446 72.8213 46.1446ZM77.4741 47.1736V40.8918H78.7185V42.2319L78.4911 42.3755C78.5549 42.1681 78.6546 41.9687 78.7903 41.7772C78.9338 41.5858 79.1053 41.4183 79.3048 41.2747C79.5122 41.1231 79.7315 41.0035 79.9629 40.9157C80.2022 40.828 80.4455 40.7841 80.6927 40.7841C81.0517 40.7841 81.3668 40.8439 81.638 40.9636C81.9092 41.0832 82.1326 41.2627 82.3081 41.502C82.4835 41.7413 82.6112 42.0405 82.6909 42.3994L82.4995 42.3516L82.5833 42.1482C82.671 41.9647 82.7907 41.7932 82.9422 41.6337C83.1017 41.4661 83.2812 41.3186 83.4807 41.1909C83.6801 41.0633 83.8915 40.9636 84.1148 40.8918C84.3382 40.82 84.5575 40.7841 84.7729 40.7841C85.2435 40.7841 85.6304 40.8798 85.9335 41.0713C86.2446 41.2627 86.476 41.5539 86.6275 41.9447C86.7871 42.3356 86.8668 42.8222 86.8668 43.4045V47.1736H85.6224V43.4763C85.6224 42.9419 85.5187 42.551 85.3113 42.3037C85.1119 42.0484 84.7968 41.9208 84.3661 41.9208C84.1427 41.9208 83.9313 41.9607 83.7319 42.0405C83.5405 42.1123 83.373 42.216 83.2294 42.3516C83.0858 42.4872 82.9741 42.6467 82.8944 42.8302C82.8146 43.0057 82.7747 43.2011 82.7747 43.4165V47.1736H81.5303V43.4524C81.5303 42.9578 81.4226 42.5789 81.2072 42.3157C80.9998 42.0524 80.6967 41.9208 80.2979 41.9208C80.0745 41.9208 79.8671 41.9607 79.6757 42.0405C79.4842 42.1123 79.3167 42.216 79.1731 42.3516C79.0296 42.4792 78.9179 42.6347 78.8381 42.8182C78.7583 42.9937 78.7185 43.1852 78.7185 43.3926V47.1736H77.4741ZM91.6876 47.2932C91.0415 47.2932 90.4672 47.1576 89.9646 46.8864C89.4701 46.6072 89.0792 46.2283 88.792 45.7497C88.5128 45.2711 88.3732 44.7207 88.3732 44.0985C88.3732 43.6039 88.453 43.1532 88.6125 42.7464C88.7721 42.3396 88.9914 41.9886 89.2706 41.6935C89.5578 41.3904 89.8968 41.159 90.2877 40.9995C90.6865 40.832 91.1173 40.7482 91.5799 40.7482C91.9868 40.7482 92.3657 40.828 92.7166 40.9875C93.0676 41.1391 93.3707 41.3505 93.626 41.6217C93.8892 41.8929 94.0887 42.216 94.2243 42.5909C94.3679 42.9578 94.4357 43.3606 94.4277 43.7994L94.4157 44.3258H89.2826L89.0074 43.3447H93.3508L93.1713 43.5481V43.2609C93.1474 42.9977 93.0597 42.7624 92.9081 42.555C92.7565 42.3476 92.5651 42.1841 92.3338 42.0644C92.1024 41.9447 91.8512 41.8849 91.5799 41.8849C91.1492 41.8849 90.7862 41.9687 90.4911 42.1362C90.196 42.2957 89.9726 42.535 89.821 42.8541C89.6695 43.1652 89.5937 43.5521 89.5937 44.0147C89.5937 44.4535 89.6854 44.8364 89.8689 45.1634C90.0524 45.4825 90.3116 45.7298 90.6466 45.9053C90.9817 46.0808 91.3686 46.1685 91.8073 46.1685C92.1184 46.1685 92.4055 46.1166 92.6688 46.013C92.94 45.9093 93.2312 45.7218 93.5423 45.4506L94.1644 46.324C93.973 46.5155 93.7377 46.683 93.4585 46.8266C93.1873 46.9702 92.8961 47.0858 92.585 47.1736C92.2819 47.2534 91.9828 47.2932 91.6876 47.2932ZM96.0064 47.1736V40.8918H97.2388V42.1841L97.0234 42.3276C97.1032 42.0484 97.2587 41.7932 97.49 41.5619C97.7214 41.3226 97.9966 41.1311 98.3157 40.9875C98.6347 40.836 98.9618 40.7602 99.2968 40.7602C99.7754 40.7602 100.174 40.8559 100.493 41.0474C100.812 41.2308 101.052 41.514 101.211 41.8969C101.371 42.2798 101.451 42.7624 101.451 43.3447V47.1736H100.218V43.4284C100.218 43.0695 100.17 42.7743 100.075 42.543C99.9788 42.3037 99.8313 42.1322 99.6318 42.0285C99.4324 41.9168 99.1851 41.869 98.89 41.8849C98.6507 41.8849 98.4313 41.9248 98.2319 42.0046C98.0325 42.0764 97.857 42.1801 97.7054 42.3157C97.5618 42.4513 97.4462 42.6108 97.3584 42.7943C97.2787 42.9698 97.2388 43.1612 97.2388 43.3686V47.1736H96.6285C96.5248 47.1736 96.4211 47.1736 96.3175 47.1736C96.2138 47.1736 96.1101 47.1736 96.0064 47.1736ZM104.139 47.1736V39.2885H105.372V47.1736H104.139ZM102.835 42.0883V40.8918H106.832V42.0883H102.835Z" fill="white"></path><g clip-path="url(#clip0_6201_378)"><path d="M71.0823 23.5855V25.4519C71.0823 28.4342 73.5083 30.9004 76.4907 30.9004C79.4731 30.9004 81.8991 28.4342 81.8991 25.4519V24.7901C83.2689 24.5109 84.3028 23.2972 84.3028 21.8463C84.3028 20.1896 82.9549 18.8416 81.2982 18.8416C79.6415 18.8416 78.2935 20.1896 78.2935 21.8463C78.2935 23.2972 79.3275 24.5109 80.6972 24.7901V25.4519C80.6972 27.7711 78.8099 29.6985 76.4907 29.6985C74.1714 29.6985 72.2841 27.7711 72.2841 25.4519V23.5863C74.7367 23.1364 77.567 20.0911 78.057 17.1943C78.3783 15.2916 77.5844 13.7684 75.8898 13.0065V12.1912C75.8898 11.1971 75.0811 10.3884 74.0869 10.3884C73.0928 10.3884 72.2841 11.1971 72.2841 12.1912C72.2841 13.1853 73.0928 13.994 74.0869 13.994H75.1538C76.5366 14.506 77.1177 15.5393 76.8716 16.9942C76.4496 19.4912 73.6374 22.4472 71.6832 22.4472C69.4945 22.4472 66.4524 18.9715 66.434 16.3978C66.4257 15.2506 67.0268 14.428 68.1964 13.994H69.2795C70.2736 13.994 71.0823 13.1853 71.0823 12.1912C71.0823 11.1971 70.2736 10.3884 69.2795 10.3884C68.2853 10.3884 67.4767 11.1971 67.4767 12.1912V12.9999C66.0311 13.6472 65.23 14.8602 65.2332 16.3978C65.2393 19.411 68.3613 23.0815 71.0823 23.5855ZM80.6972 21.2453H81.8991V22.4472H80.6972V21.2453Z" fill="white"></path></g><defs><clipPath id="clip0_6201_378"><rect width="20.5119" height="20.5119" fill="white" transform="translate(64.512 10.3884)"></rect></clipPath></defs></svg>