<svg xmlns="http://www.w3.org/2000/svg" width="100" height="84" viewBox="0 0 100 84" fill="none"><path d="M99.9999 18.3404V41.0585C99.9999 48.7435 95.1231 55.2988 88.292 57.7804C86.3924 58.4665 84.3441 58.8465 82.2119 58.8465H40.5559C40.4186 59.2683 40.2814 59.68 40.134 60.0816C39.0463 63.1222 37.6956 65.8237 36.2064 68.2201C35.6156 69.1807 35.0031 70.0893 34.3703 70.9444C28.2152 79.3892 20.8479 83.1898 20.5303 83.3486C23.7184 78.0169 25.7972 72.8974 27.1059 68.2214C28.0666 64.8325 28.6155 61.6762 28.9217 58.8477H18.6078C15.6522 58.8477 12.8657 58.1298 10.4158 56.8528C4.7144 53.8858 0.819824 47.9328 0.819824 41.0598V18.3417C0.819824 8.51312 8.79067 0.553711 18.6078 0.553711H82.2106C92.0392 0.553711 99.9986 8.51312 99.9986 18.3417L99.9999 18.3404Z" fill="#F579A8"></path><path d="M38.4567 45.5227V38.3583H39.7053L42.3152 42.5956L41.5988 42.5853L44.2291 38.3583H45.4164V45.5227H44.1165V42.8412C44.1165 42.2203 44.1302 41.6642 44.1575 41.1729C44.1916 40.6748 44.2462 40.1835 44.3212 39.6991L44.485 40.129L42.264 43.5679H41.5783L39.4188 40.1699L39.5621 39.6991C39.6371 40.1563 39.6883 40.6271 39.7156 41.1115C39.7497 41.596 39.7668 42.1725 39.7668 42.8412V45.5227H38.4567ZM49.783 45.6251C49.2166 45.6251 48.7151 45.5091 48.2784 45.2771C47.8486 45.0383 47.5108 44.7142 47.2652 44.3048C47.0264 43.8885 46.907 43.4109 46.907 42.8719C46.907 42.4489 46.9752 42.0633 47.1117 41.7154C47.2481 41.3674 47.4392 41.0672 47.6848 40.8147C47.9305 40.5554 48.2204 40.3575 48.5548 40.2211C48.8959 40.0778 49.2644 40.0061 49.6601 40.0061C50.0218 40.0061 50.3527 40.0744 50.6529 40.2108C50.96 40.3473 51.2261 40.5349 51.4512 40.7738C51.6764 41.0057 51.847 41.2855 51.963 41.613C52.0858 41.9337 52.1438 42.2851 52.137 42.6672L52.1267 43.1175H47.7667L47.5211 42.2476H51.0725L50.919 42.4216V42.1862C50.8985 41.9815 50.8303 41.8006 50.7143 41.6437C50.5983 41.48 50.4482 41.3537 50.264 41.265C50.0866 41.1695 49.8887 41.1217 49.6704 41.1217C49.336 41.1217 49.0529 41.1866 48.8209 41.3162C48.5889 41.439 48.4115 41.6232 48.2887 41.8689C48.1727 42.1145 48.1147 42.4181 48.1147 42.7798C48.1147 43.1278 48.1863 43.4314 48.3296 43.6907C48.4797 43.95 48.6912 44.1512 48.9642 44.2945C49.2371 44.4378 49.5544 44.5095 49.916 44.5095C50.1685 44.5095 50.4005 44.4685 50.612 44.3866C50.8303 44.3048 51.0623 44.1581 51.3079 43.9465L51.922 44.8063C51.7378 44.9768 51.5263 45.1235 51.2875 45.2464C51.0555 45.3624 50.8098 45.4545 50.5506 45.5227C50.2913 45.5909 50.0354 45.6251 49.783 45.6251ZM56.4605 45.5227V42.0736C56.4605 41.7802 56.3616 41.5516 56.1637 41.3878C55.9727 41.2173 55.7236 41.132 55.4166 41.132C55.13 41.132 54.8707 41.19 54.6387 41.306C54.4067 41.4151 54.1918 41.5925 53.9939 41.8382L53.2161 41.0603C53.5368 40.7192 53.8916 40.4599 54.2805 40.2825C54.6694 40.1051 55.0891 40.0164 55.5394 40.0164C55.9693 40.0164 56.3377 40.0846 56.6448 40.2211C56.9586 40.3575 57.2008 40.5622 57.3714 40.8352C57.542 41.1013 57.6273 41.4288 57.6273 41.8177V45.5227H56.4605ZM54.9253 45.6251C54.5773 45.6251 54.2669 45.5568 53.9939 45.4204C53.721 45.2839 53.5027 45.0963 53.3389 44.8574C53.182 44.6118 53.1035 44.3252 53.1035 43.9977C53.1035 43.7111 53.1547 43.4621 53.257 43.2506C53.3594 43.0322 53.5095 42.8514 53.7074 42.7081C53.9121 42.5648 54.1645 42.4591 54.4647 42.3909C54.7718 42.3158 55.1232 42.2783 55.5189 42.2783H57.0644L56.9723 43.1789H55.4473C55.2631 43.1789 55.0993 43.196 54.956 43.2301C54.8127 43.2642 54.6899 43.3154 54.5876 43.3836C54.4852 43.4519 54.4102 43.5337 54.3624 43.6293C54.3146 43.718 54.2907 43.8271 54.2907 43.9568C54.2907 44.0932 54.3249 44.2126 54.3931 44.315C54.4613 44.4105 54.5534 44.4856 54.6694 44.5402C54.7854 44.5947 54.9219 44.622 55.0788 44.622C55.304 44.622 55.5155 44.5845 55.7134 44.5095C55.9181 44.4344 56.0989 44.3286 56.2558 44.1922C56.4128 44.0557 56.5356 43.9022 56.6243 43.7316L56.8802 44.4276C56.7369 44.6664 56.5595 44.8745 56.3479 45.0519C56.1432 45.2293 55.9181 45.3692 55.6724 45.4715C55.4336 45.5739 55.1846 45.6251 54.9253 45.6251ZM59.6786 45.5227V38.7575H60.9272V45.5227H59.6786ZM58.6142 41.2957V40.129H62.1042V41.2957H58.6142Z" fill="white"></path><g clip-path="url(#clip0_6201_395)"><path fill-rule="evenodd" clip-rule="evenodd" d="M45.1007 21.5796C45.0453 21.5796 44.9903 21.5613 44.9457 21.5259L43.6414 20.4964C43.5768 20.4452 43.5419 20.366 43.5469 20.284C43.7822 16.6542 44.5851 13.8427 45.934 11.9266C47.0597 10.3286 48.5364 9.44824 50.0923 9.44824C51.0326 9.44824 51.9501 9.78349 52.6772 10.3928C53.0808 10.6926 53.4206 11.0591 53.6871 11.4814C53.7238 11.5401 53.735 11.6109 53.7175 11.6779C53.7 11.7446 53.6559 11.8016 53.5951 11.8345C53.391 11.9457 53.2136 12.0952 53.0683 12.2793C52.4815 13.0227 52.6085 14.1055 53.3523 14.6922C53.5022 14.8109 53.6688 14.9026 53.8475 14.9654C53.9108 14.9875 53.9628 15.0346 53.9911 15.0954C54.0195 15.1562 54.0224 15.2257 53.9986 15.2886C53.5459 16.4997 52.6302 17.6324 51.2771 18.6552C49.7462 19.8126 47.6931 20.7929 45.1744 21.5688C45.1502 21.5763 45.1252 21.5796 45.1007 21.5796ZM47.7535 13.9889C47.7422 13.9889 47.7306 13.988 47.7193 13.9864C47.5823 13.9676 47.4869 13.8414 47.5057 13.7048C47.7431 11.9715 49.1773 11.5484 49.2386 11.5314C49.3714 11.4939 49.5092 11.5713 49.5467 11.7042C49.5838 11.8366 49.5072 11.9745 49.3747 12.0124C49.3235 12.0269 48.1924 12.3738 48.0008 13.7727C47.9834 13.8981 47.8763 13.9889 47.7535 13.9889ZM47.7885 17.8452C47.6889 17.8452 47.5952 17.7857 47.5561 17.6878C47.5048 17.5595 47.5677 17.4142 47.696 17.363L49.0882 16.8087C49.2165 16.7579 49.3618 16.8203 49.4126 16.9486C49.4639 17.0769 49.4014 17.2222 49.2731 17.273L47.8805 17.8273C47.8505 17.8394 47.8189 17.8452 47.7885 17.8452ZM47.489 19.1113C47.3895 19.1113 47.2958 19.0517 47.2566 18.9538C47.2054 18.8256 47.2683 18.6802 47.3962 18.629L48.7888 18.0747C48.917 18.0235 49.0624 18.0864 49.1132 18.2142C49.1644 18.3425 49.102 18.4878 48.9737 18.539L47.5811 19.0933C47.5511 19.1054 47.5194 19.1113 47.489 19.1113Z" fill="white"></path><path fill-rule="evenodd" clip-rule="evenodd" d="M43.1554 25.6106C43.0979 25.6106 43.0396 25.6064 42.9813 25.5972C42.4245 25.5127 41.9635 25.0417 41.6995 24.2967C40.9136 24.2125 40.3485 23.8735 40.1369 23.3517C39.9641 22.9257 40.0616 22.4526 40.3972 22.0865C40.9128 21.5247 41.8228 21.3602 42.8551 21.6355L43.4015 20.9434L44.5664 21.8629L44.02 22.555C44.5272 23.4954 44.5784 24.4191 44.1516 25.0504C43.9092 25.4094 43.5456 25.6106 43.1554 25.6106Z" fill="white"></path><path fill-rule="evenodd" clip-rule="evenodd" d="M50.0606 27.1256C49.0058 27.1256 48.01 26.8666 47.2575 26.3968C46.4687 25.9037 46.0339 25.2361 46.0339 24.5169C46.0339 23.7973 46.4687 23.1297 47.2575 22.6366C48.01 22.1669 49.0058 21.9078 50.0606 21.9078C52.6681 21.9078 53.2015 20.8696 53.7667 19.7702C54.3243 18.684 54.9015 17.5613 57.3494 17.5613C58.421 17.5613 59.4292 17.9444 60.1888 18.6399C60.9543 19.3412 61.3762 20.2749 61.3762 21.2698C61.3762 23.4275 58.9278 24.8563 56.8738 25.6747C54.3735 26.6717 51.5894 27.1256 50.0606 27.1256ZM51.7656 25.967C50.3088 25.967 49.1673 25.2128 49.1673 24.2504C49.1673 23.2875 50.3084 22.5338 51.7656 22.5338C53.329 22.5338 53.6334 21.9416 53.9857 21.2557C54.3289 20.5881 54.7179 19.831 56.2975 19.831C57.7301 19.831 58.8957 20.9079 58.8957 22.2314C58.8957 23.3354 57.9071 24.3129 56.0372 25.0583C54.4705 25.6826 52.7247 25.967 51.7656 25.967ZM56.2975 20.3307C55.0231 20.3307 54.7612 20.84 54.4301 21.4843C54.0569 22.2106 53.6342 23.0335 51.7656 23.0335C50.6283 23.0335 49.6671 23.5907 49.6671 24.2504C49.6671 24.91 50.6283 25.4673 51.7656 25.4673C52.7076 25.4673 54.4138 25.1674 55.8519 24.594C56.8018 24.2154 58.396 23.405 58.396 22.2314C58.396 21.1836 57.4544 20.3307 56.2975 20.3307ZM56.3687 23.0527C55.7948 23.0527 55.3276 22.5858 55.3276 22.0119C55.3276 21.4376 55.7948 20.9708 56.3687 20.9708C56.943 20.9708 57.4098 21.4376 57.4098 22.0119C57.4098 22.5858 56.943 23.0527 56.3687 23.0527ZM56.3687 21.4701C56.0701 21.4701 55.8273 21.7133 55.8273 22.0115C55.8273 22.3101 56.0701 22.5529 56.3687 22.5529C56.6673 22.5529 56.9101 22.3101 56.9101 22.0115C56.9101 21.7133 56.6673 21.4701 56.3687 21.4701Z" fill="white"></path><path fill-rule="evenodd" clip-rule="evenodd" d="M51.0893 30.0393C48.608 30.0393 47.422 29.46 46.8556 28.9291C46.2713 28.381 46.2696 27.8246 46.27 27.8009V26.2388C46.482 26.4603 46.7281 26.6552 46.993 26.8205C47.8934 27.3832 49.0078 27.6256 50.0606 27.6256C51.0251 27.6256 52.0546 27.4819 53.0008 27.3028C54.2314 27.07 55.462 26.7377 56.6369 26.3016C56.778 26.2492 56.9188 26.195 57.0591 26.1392C58.4909 25.5683 60.2825 24.6408 61.2258 23.2703C61.2537 24.0653 61.2479 24.9519 60.9534 25.5054C59.0581 29.0657 55.4271 29.7699 52.4752 29.9856C51.9734 30.0223 51.5124 30.0393 51.0893 30.0393Z" fill="white"></path></g><defs><clipPath id="clip0_6201_395"><rect width="21.3225" height="21.3225" fill="white" transform="translate(40.0532 9.08203)"></rect></clipPath></defs></svg>