<svg xmlns="http://www.w3.org/2000/svg" width="100" height="84" viewBox="0 0 100 84" fill="none"><path d="M100 18.2186V40.9166C100 48.5947 95.1277 55.1442 88.3027 57.6236C86.4048 58.3092 84.3583 58.6888 82.228 58.6888H40.609C40.4719 59.1102 40.3347 59.5216 40.1875 59.9228C39.1008 62.9607 37.7513 65.6598 36.2634 68.0541C35.673 69.0139 35.0611 69.9216 34.4289 70.776C28.2793 79.2133 20.9185 83.0104 20.6012 83.1691C23.7864 77.8422 25.8634 72.7272 27.171 68.0554C28.1307 64.6695 28.6792 61.516 28.9851 58.69H18.6804C15.7274 58.69 12.9434 57.9727 10.4957 56.6969C4.79932 53.7325 0.908203 47.7848 0.908203 40.9179V18.2199C0.908203 8.4001 8.87197 0.447754 18.6804 0.447754H82.2268C92.0466 0.447754 99.9989 8.4001 99.9989 18.2199L100 18.2186Z" fill="#00AFE9"></path><path d="M22.9503 45.6814V37.3304H24.2387V45.6814H22.9503ZM23.5229 42.1263V40.8855H27.8297V42.1263H23.5229ZM23.5229 38.5711V37.3304H28.3665V38.5711H23.5229ZM33.5908 45.6814V41.6013C33.5908 41.2514 33.4636 40.969 33.2091 40.7543C32.9625 40.5316 32.6484 40.4203 32.2666 40.4203C31.9167 40.4203 31.5985 40.4918 31.3122 40.635C31.0338 40.7782 30.7793 40.9969 30.5487 41.2912L29.7494 40.4918C30.1232 40.0862 30.5248 39.784 30.9543 39.5852C31.3917 39.3863 31.861 39.2869 32.3621 39.2869C32.8393 39.2869 33.2528 39.3664 33.6028 39.5255C33.9527 39.6846 34.2231 39.9192 34.414 40.2294C34.6049 40.5316 34.7003 40.9014 34.7003 41.3389V45.6814H33.5908ZM31.7178 45.8007C31.3122 45.8007 30.9503 45.7212 30.6322 45.5621C30.3141 45.403 30.0596 45.1843 29.8687 44.9059C29.6858 44.6196 29.5943 44.2856 29.5943 43.9038C29.5943 43.5698 29.6539 43.2755 29.7732 43.021C29.8925 42.7665 30.0675 42.5557 30.2982 42.3887C30.5368 42.2217 30.831 42.0944 31.181 42.007C31.5389 41.9195 31.9485 41.8757 32.4098 41.8757H34.1516L34.0442 42.854H32.2547C32.0161 42.854 31.8013 42.8778 31.6105 42.9256C31.4275 42.9653 31.2685 43.0329 31.1333 43.1284C31.006 43.2159 30.9106 43.3232 30.8469 43.4505C30.7833 43.5698 30.7515 43.7129 30.7515 43.88C30.7515 44.0549 30.7952 44.21 30.8827 44.3452C30.9702 44.4725 31.0895 44.5719 31.2406 44.6435C31.3917 44.7151 31.5667 44.7509 31.7656 44.7509C32.0519 44.7509 32.3223 44.7031 32.5768 44.6077C32.8393 44.5043 33.0699 44.3651 33.2687 44.1901C33.4755 44.0152 33.6346 43.8203 33.7459 43.6056L34.0323 44.4049C33.8652 44.6833 33.6584 44.9258 33.4119 45.1326C33.1653 45.3394 32.8989 45.5024 32.6126 45.6217C32.3263 45.741 32.028 45.8007 31.7178 45.8007ZM38.5797 45.8007C38.0548 45.8007 37.5816 45.7092 37.1601 45.5263C36.7385 45.3434 36.3886 45.073 36.1102 44.7151L36.9453 43.9993C37.1839 44.2776 37.4424 44.4804 37.7208 44.6077C38.0071 44.727 38.3292 44.7866 38.6871 44.7866C38.8303 44.7866 38.9615 44.7707 39.0808 44.7389C39.208 44.6992 39.3154 44.6435 39.4029 44.5719C39.4983 44.5003 39.5699 44.4168 39.6176 44.3214C39.6654 44.218 39.6892 44.1066 39.6892 43.9873C39.6892 43.7805 39.6137 43.6135 39.4626 43.4863C39.383 43.4306 39.2558 43.371 39.0808 43.3073C38.9138 43.2357 38.6951 43.1642 38.4246 43.0926C37.9633 42.9733 37.5856 42.8381 37.2913 42.687C36.997 42.5359 36.7703 42.3649 36.6113 42.174C36.492 42.0229 36.4045 41.8598 36.3488 41.6848C36.2931 41.5019 36.2653 41.3031 36.2653 41.0883C36.2653 40.7384 36.3647 40.4282 36.5636 40.1578C36.7624 39.8874 37.0288 39.6766 37.3629 39.5255C37.7049 39.3664 38.0866 39.2869 38.5081 39.2869C38.8024 39.2869 39.0927 39.3267 39.379 39.4062C39.6733 39.4857 39.9437 39.6011 40.1903 39.7522C40.4368 39.9033 40.6436 40.0822 40.8106 40.289L40.1068 41.0645C39.9557 40.9134 39.7886 40.7821 39.6057 40.6708C39.4307 40.5515 39.2518 40.46 39.0689 40.3964C38.8859 40.3328 38.7189 40.301 38.5678 40.301C38.4008 40.301 38.2497 40.3169 38.1145 40.3487C37.9793 40.3805 37.8639 40.4282 37.7685 40.4918C37.681 40.5555 37.6134 40.635 37.5657 40.7304C37.518 40.8259 37.4941 40.9333 37.4941 41.0526C37.5021 41.1559 37.5259 41.2554 37.5657 41.3508C37.6134 41.4383 37.677 41.5138 37.7566 41.5775C37.844 41.6411 37.9753 41.7087 38.1502 41.7803C38.3252 41.8519 38.5479 41.9195 38.8183 41.9831C39.216 42.0865 39.5421 42.2018 39.7966 42.3291C40.0591 42.4484 40.2658 42.5875 40.417 42.7466C40.576 42.8977 40.6874 43.0727 40.751 43.2715C40.8146 43.4704 40.8464 43.6931 40.8464 43.9396C40.8464 44.2975 40.743 44.6196 40.5363 44.9059C40.3374 45.1843 40.067 45.403 39.725 45.5621C39.383 45.7212 39.0013 45.8007 38.5797 45.8007ZM43.2147 45.6814V37.8195H44.4435V45.6814H43.2147ZM41.9144 40.6111V39.4181H45.899V40.6111H41.9144ZM51.1489 45.6814V37.3304H52.4374V45.6814H51.1489ZM51.7216 42.1263V40.8855H56.0283V42.1263H51.7216ZM51.7216 38.5711V37.3304H56.5651V38.5711H51.7216ZM60.8947 45.8007C60.2823 45.8007 59.7335 45.6615 59.2484 45.3831C58.7712 45.0968 58.3934 44.7111 58.115 44.2259C57.8367 43.7328 57.6975 43.1721 57.6975 42.5438C57.6975 41.9155 57.8367 41.3588 58.115 40.8736C58.3934 40.3805 58.7712 39.9948 59.2484 39.7164C59.7335 39.4301 60.2823 39.2869 60.8947 39.2869C61.4992 39.2869 62.04 39.4301 62.5172 39.7164C63.0023 39.9948 63.3841 40.3805 63.6625 40.8736C63.9408 41.3588 64.08 41.9155 64.08 42.5438C64.08 43.1721 63.9408 43.7328 63.6625 44.2259C63.3841 44.7111 63.0023 45.0968 62.5172 45.3831C62.04 45.6615 61.4992 45.8007 60.8947 45.8007ZM60.8947 44.6793C61.2685 44.6793 61.6026 44.5878 61.8968 44.4049C62.1911 44.214 62.4218 43.9595 62.5888 43.6414C62.7558 43.3153 62.8353 42.9494 62.8274 42.5438C62.8353 42.1302 62.7558 41.7644 62.5888 41.4462C62.4218 41.1202 62.1911 40.8657 61.8968 40.6827C61.6026 40.4998 61.2685 40.4083 60.8947 40.4083C60.5209 40.4083 60.1829 40.5038 59.8807 40.6947C59.5864 40.8776 59.3557 41.1321 59.1887 41.4582C59.0217 41.7763 58.9422 42.1382 58.9501 42.5438C58.9422 42.9494 59.0217 43.3153 59.1887 43.6414C59.3557 43.9595 59.5864 44.214 59.8807 44.4049C60.1829 44.5878 60.5209 44.6793 60.8947 44.6793ZM68.4731 45.8007C67.8607 45.8007 67.3119 45.6615 66.8267 45.3831C66.3495 45.0968 65.9717 44.7111 65.6934 44.2259C65.415 43.7328 65.2758 43.1721 65.2758 42.5438C65.2758 41.9155 65.415 41.3588 65.6934 40.8736C65.9717 40.3805 66.3495 39.9948 66.8267 39.7164C67.3119 39.4301 67.8607 39.2869 68.4731 39.2869C69.0775 39.2869 69.6183 39.4301 70.0955 39.7164C70.5807 39.9948 70.9625 40.3805 71.2408 40.8736C71.5192 41.3588 71.6584 41.9155 71.6584 42.5438C71.6584 43.1721 71.5192 43.7328 71.2408 44.2259C70.9625 44.7111 70.5807 45.0968 70.0955 45.3831C69.6183 45.6615 69.0775 45.8007 68.4731 45.8007ZM68.4731 44.6793C68.8469 44.6793 69.1809 44.5878 69.4752 44.4049C69.7695 44.214 70.0001 43.9595 70.1671 43.6414C70.3341 43.3153 70.4137 42.9494 70.4057 42.5438C70.4137 42.1302 70.3341 41.7644 70.1671 41.4462C70.0001 41.1202 69.7695 40.8657 69.4752 40.6827C69.1809 40.4998 68.8469 40.4083 68.4731 40.4083C68.0993 40.4083 67.7612 40.5038 67.459 40.6947C67.1647 40.8776 66.9341 41.1321 66.7671 41.4582C66.6001 41.7763 66.5205 42.1382 66.5285 42.5438C66.5205 42.9494 66.6001 43.3153 66.7671 43.6414C66.9341 43.9595 67.1647 44.214 67.459 44.4049C67.7612 44.5878 68.0993 44.6793 68.4731 44.6793ZM75.8486 45.8007C75.276 45.8007 74.763 45.6615 74.3096 45.3831C73.8642 45.0968 73.5103 44.7111 73.2479 44.2259C72.9854 43.7328 72.8542 43.1721 72.8542 42.5438C72.8542 41.9155 72.9814 41.3588 73.2359 40.8736C73.4984 40.3805 73.8523 39.9948 74.2977 39.7164C74.7431 39.4301 75.2481 39.2869 75.8128 39.2869C76.123 39.2869 76.4212 39.3386 76.7076 39.442C77.0018 39.5374 77.2643 39.6727 77.4949 39.8476C77.7256 40.0146 77.9045 40.2015 78.0318 40.4083C78.167 40.6072 78.2346 40.81 78.2346 41.0168L77.8767 41.0406V36.8532H79.1055V45.6814H77.8767V44.1901H78.1153C78.1153 44.381 78.0517 44.5719 77.9244 44.7628C77.7972 44.9457 77.6262 45.1167 77.4114 45.2758C77.2046 45.4348 76.9621 45.5621 76.6837 45.6575C76.4133 45.753 76.1349 45.8007 75.8486 45.8007ZM76.0156 44.7389C76.3894 44.7389 76.7195 44.6435 77.0058 44.4526C77.2921 44.2617 77.5148 44.0032 77.6739 43.6772C77.8409 43.3431 77.9244 42.9653 77.9244 42.5438C77.9244 42.1223 77.8409 41.7485 77.6739 41.4224C77.5148 41.0883 77.2921 40.8259 77.0058 40.635C76.7195 40.4441 76.3894 40.3487 76.0156 40.3487C75.6418 40.3487 75.3117 40.4441 75.0254 40.635C74.7391 40.8259 74.5124 41.0883 74.3454 41.4224C74.1864 41.7485 74.1068 42.1223 74.1068 42.5438C74.1068 42.9653 74.1864 43.3431 74.3454 43.6772C74.5124 44.0032 74.7391 44.2617 75.0254 44.4526C75.3117 44.6435 75.6418 44.7389 76.0156 44.7389Z" fill="white"></path><g clip-path="url(#clip0_6201_172)"><path d="M46.2856 23.1916C45.7448 22.8814 45.3794 22.2986 45.3794 21.6316C45.3794 18.8784 47.6192 16.6385 50.3724 16.6385H52.43L52.5269 15.0408H40.8682L41.7056 28.8577C41.7248 29.174 41.9868 29.4207 42.3037 29.4207H45.9801C45.6031 28.9197 45.3794 28.2971 45.3794 27.6232C45.3794 26.8463 45.8749 26.183 46.5665 25.9326C46.3213 25.5567 46.1782 25.1086 46.1782 24.6274C46.1782 24.1457 46.3216 23.6971 46.5672 23.3209C46.3719 23.2769 46.2634 23.2337 46.2856 23.1916Z" fill="white"></path><path d="M46.697 13.8426C46.6975 13.8426 46.6979 13.8424 46.6984 13.8424H52.6892C53.0202 13.8424 53.2884 13.5742 53.2884 13.2433C53.2884 12.9123 53.0202 12.6441 52.6892 12.6441H47.8037L49.4188 10.1676H51.4909C51.8219 10.1676 52.0901 9.89935 52.0901 9.5684C52.0901 9.23746 51.8219 8.96924 51.4909 8.96924H49.0943C48.8917 8.96924 48.7029 9.07144 48.5925 9.24105L46.3731 12.6441H40.706C40.375 12.6441 40.1068 12.9123 40.1068 13.2433C40.1068 13.5742 40.375 13.8424 40.706 13.8424H46.6948C46.6956 13.8424 46.6964 13.8426 46.697 13.8426Z" fill="white"></path><path d="M46.5776 21.6316C46.5776 21.9626 46.8459 22.2308 47.1768 22.2308H59.9589C60.2899 22.2308 60.5581 21.9626 60.5581 21.6316C60.5581 19.5392 58.8558 17.8369 56.7634 17.8369H50.3723C48.2799 17.8369 46.5776 19.5392 46.5776 21.6316Z" fill="white"></path><path d="M48.5749 23.4292C47.913 23.4292 47.3766 23.9656 47.3766 24.6275C47.3766 25.2894 47.913 25.8259 48.5749 25.8259H58.561C59.2229 25.8259 59.7593 25.2894 59.7593 24.6275C59.7593 23.9656 59.2229 23.4292 58.561 23.4292H48.5749Z" fill="white"></path><path d="M59.9589 27.0242H47.1768C46.8459 27.0242 46.5776 27.2924 46.5776 27.6233C46.5776 28.6144 47.384 29.4208 48.3751 29.4208H58.7606C59.7517 29.4208 60.5581 28.6144 60.5581 27.6233C60.5581 27.2924 60.2899 27.0242 59.9589 27.0242Z" fill="white"></path></g><defs><clipPath id="clip0_6201_172"><rect width="20.4514" height="20.4514" fill="white" transform="translate(40.1068 8.96924)"></rect></clipPath></defs></svg>