<svg xmlns="http://www.w3.org/2000/svg" width="96" height="73" viewBox="0 0 96 73" fill="none"><path d="M0.677734 16.8726V38.4144C0.677734 47.7344 8.27397 55.287 17.6453 55.287H24.6559C23.38 67.3967 14.3487 72.1404 13.7812 72.4322C18.8734 71.3794 23.106 69.6233 26.5925 67.5844C28.935 66.2218 30.9387 64.719 32.6297 63.2252C36.0207 60.2376 38.1938 57.2602 39.4219 55.287H78.2981C87.6694 55.287 95.2656 47.7333 95.2656 38.4144V16.8726C95.2656 7.55374 87.6694 0 78.2981 0H17.6453C8.27397 0 0.677734 7.55374 0.677734 16.8726Z" fill="#02A68F"></path><path d="M20.0792 45.2336L16.7388 36.8826H18.2062L20.1985 41.9529C20.2939 42.1994 20.3775 42.4221 20.449 42.621C20.5286 42.8198 20.5962 43.0027 20.6518 43.1698C20.7075 43.3288 20.7592 43.4799 20.8069 43.6231C20.8547 43.7663 20.9024 43.9094 20.9501 44.0526L20.6399 44.0645C20.6956 43.8736 20.7552 43.6748 20.8189 43.468C20.8825 43.2612 20.9541 43.0345 21.0336 42.788C21.1211 42.5414 21.2245 42.2631 21.3438 41.9529L23.1929 36.8826H24.6961L21.3319 45.2336H20.0792ZM28.2903 45.3529C27.6461 45.3529 27.0735 45.2177 26.5724 44.9473C26.0793 44.669 25.6896 44.2912 25.4032 43.814C25.1249 43.3368 24.9857 42.788 24.9857 42.1676C24.9857 41.6745 25.0652 41.2252 25.2243 40.8195C25.3834 40.4139 25.6021 40.064 25.8804 39.7697C26.1668 39.4675 26.5048 39.2368 26.8945 39.0778C27.2922 38.9107 27.7216 38.8272 28.1829 38.8272C28.5886 38.8272 28.9663 38.9068 29.3163 39.0658C29.6662 39.2169 29.9685 39.4277 30.223 39.6981C30.4854 39.9685 30.6843 40.2906 30.8195 40.6645C30.9626 41.0303 31.0302 41.4319 31.0223 41.8694L31.0104 42.3943H25.8924L25.618 41.416H29.9486L29.7696 41.6189V41.3325C29.7458 41.0701 29.6583 40.8354 29.5072 40.6287C29.3561 40.4219 29.1652 40.2588 28.9345 40.1395C28.7039 40.0202 28.4534 39.9606 28.1829 39.9606C27.7535 39.9606 27.3916 40.0441 27.0973 40.2111C26.803 40.3702 26.5803 40.6088 26.4292 40.9269C26.2781 41.2371 26.2026 41.6228 26.2026 42.0841C26.2026 42.5216 26.294 42.9033 26.477 43.2294C26.6599 43.5475 26.9184 43.7941 27.2524 43.9691C27.5864 44.144 27.9722 44.2315 28.4096 44.2315C28.7198 44.2315 29.0061 44.1798 29.2686 44.0764C29.539 43.973 29.8293 43.7861 30.1395 43.5157L30.7598 44.3866C30.5689 44.5775 30.3343 44.7445 30.056 44.8877C29.7855 45.0308 29.4952 45.1462 29.1851 45.2336C28.8828 45.3132 28.5846 45.3529 28.2903 45.3529ZM35.3416 47.9775C34.8962 47.9775 34.4508 47.906 34.0054 47.7628C33.568 47.6276 33.2141 47.4486 32.9437 47.226L33.397 46.2716C33.6356 46.4545 33.9299 46.6016 34.2798 46.713C34.6377 46.8243 34.9916 46.88 35.3416 46.88C35.779 46.88 36.1449 46.8084 36.4392 46.6652C36.7334 46.5221 36.9561 46.3113 37.1072 46.033C37.2584 45.7546 37.3339 45.4086 37.3339 44.995V43.7901L37.4651 43.8736C37.4254 44.1202 37.2941 44.3588 37.0714 44.5894C36.8567 44.8121 36.5863 44.995 36.2602 45.1382C35.9341 45.2814 35.6001 45.3529 35.2581 45.3529C34.6616 45.3529 34.1287 45.2138 33.6595 44.9354C33.1982 44.6491 32.8323 44.2633 32.5619 43.7782C32.2915 43.2851 32.1563 42.7244 32.1563 42.0961C32.1563 41.4677 32.2875 40.911 32.55 40.4259C32.8204 39.9327 33.1862 39.547 33.6475 39.2686C34.1168 38.9823 34.6417 38.8392 35.2223 38.8392C35.4609 38.8392 35.6915 38.871 35.9142 38.9346C36.1369 38.9903 36.3437 39.0738 36.5346 39.1851C36.7255 39.2885 36.8965 39.4038 37.0476 39.5311C37.1987 39.6584 37.322 39.7936 37.4174 39.9367C37.5129 40.0799 37.5725 40.2151 37.5964 40.3423L37.3339 40.4378V38.9704H38.5627V44.8519C38.5627 45.3529 38.4871 45.7944 38.336 46.1761C38.1929 46.5658 37.9821 46.8919 37.7037 47.1544C37.4254 47.4248 37.0874 47.6276 36.6897 47.7628C36.292 47.906 35.8427 47.9775 35.3416 47.9775ZM35.3893 44.2196C35.779 44.2196 36.125 44.1281 36.4272 43.9452C36.7295 43.7623 36.9641 43.5117 37.1311 43.1936C37.2981 42.8755 37.3816 42.5096 37.3816 42.0961C37.3816 41.6825 37.2941 41.3166 37.1192 40.9985C36.9521 40.6724 36.7175 40.4179 36.4153 40.235C36.121 40.052 35.779 39.9606 35.3893 39.9606C35.0076 39.9606 34.6656 40.056 34.3633 40.2469C34.0691 40.4298 33.8344 40.6843 33.6595 41.0104C33.4924 41.3286 33.4089 41.6904 33.4089 42.0961C33.4089 42.5017 33.4924 42.8675 33.6595 43.1936C33.8344 43.5117 34.0691 43.7623 34.3633 43.9452C34.6656 44.1281 35.0076 44.2196 35.3893 44.2196ZM43.447 45.3529C42.8028 45.3529 42.2302 45.2177 41.7291 44.9473C41.236 44.669 40.8463 44.2912 40.5599 43.814C40.2816 43.3368 40.1424 42.788 40.1424 42.1676C40.1424 41.6745 40.2219 41.2252 40.381 40.8195C40.5401 40.4139 40.7588 40.064 41.0371 39.7697C41.3235 39.4675 41.6615 39.2368 42.0512 39.0778C42.4489 38.9107 42.8783 38.8272 43.3396 38.8272C43.7453 38.8272 44.123 38.9068 44.473 39.0658C44.8229 39.2169 45.1252 39.4277 45.3797 39.6981C45.6421 39.9685 45.841 40.2906 45.9762 40.6645C46.1193 41.0303 46.1869 41.4319 46.179 41.8694L46.1671 42.3943H41.0491L40.7747 41.416H45.1053L44.9263 41.6189V41.3325C44.9025 41.0701 44.815 40.8354 44.6639 40.6287C44.5128 40.4219 44.3219 40.2588 44.0912 40.1395C43.8606 40.0202 43.6101 39.9606 43.3396 39.9606C42.9102 39.9606 42.5483 40.0441 42.254 40.2111C41.9597 40.3702 41.737 40.6088 41.5859 40.9269C41.4348 41.2371 41.3593 41.6228 41.3593 42.0841C41.3593 42.5216 41.4507 42.9033 41.6337 43.2294C41.8166 43.5475 42.0751 43.7941 42.4091 43.9691C42.7431 44.144 43.1289 44.2315 43.5663 44.2315C43.8765 44.2315 44.1628 44.1798 44.4253 44.0764C44.6957 43.973 44.986 43.7861 45.2962 43.5157L45.9165 44.3866C45.7256 44.5775 45.491 44.7445 45.2127 44.8877C44.9422 45.0308 44.6519 45.1462 44.3418 45.2336C44.0395 45.3132 43.7413 45.3529 43.447 45.3529ZM48.5284 45.2336V37.3718H49.7572V45.2336H48.5284ZM47.2281 40.1634V38.9704H51.2127V40.1634H47.2281ZM56.2222 45.2336V41.1536C56.2222 40.8036 56.0949 40.5213 55.8404 40.3066C55.5939 40.0839 55.2797 39.9725 54.8979 39.9725C54.548 39.9725 54.2299 40.0441 53.9435 40.1873C53.6652 40.3304 53.4107 40.5491 53.18 40.8434L52.3807 40.0441C52.7545 39.6385 53.1562 39.3362 53.5856 39.1374C54.0231 38.9386 54.4923 38.8392 54.9934 38.8392C55.4706 38.8392 55.8842 38.9187 56.2341 39.0778C56.5841 39.2368 56.8545 39.4714 57.0454 39.7816C57.2362 40.0839 57.3317 40.4537 57.3317 40.8911V45.2336H56.2222ZM54.3492 45.3529C53.9435 45.3529 53.5817 45.2734 53.2635 45.1143C52.9454 44.9553 52.6909 44.7366 52.5 44.4582C52.3171 44.1719 52.2256 43.8378 52.2256 43.4561C52.2256 43.122 52.2853 42.8278 52.4046 42.5733C52.5239 42.3187 52.6989 42.108 52.9295 41.941C53.1681 41.7739 53.4624 41.6467 53.8123 41.5592C54.1702 41.4717 54.5798 41.428 55.0411 41.428H56.7829L56.6755 42.4062H54.886C54.6474 42.4062 54.4327 42.4301 54.2418 42.4778C54.0589 42.5176 53.8998 42.5852 53.7646 42.6806C53.6373 42.7681 53.5419 42.8755 53.4783 43.0027C53.4147 43.122 53.3828 43.2652 53.3828 43.4322C53.3828 43.6072 53.4266 43.7623 53.5141 43.8975C53.6016 44.0247 53.7209 44.1242 53.872 44.1957C54.0231 44.2673 54.1981 44.3031 54.3969 44.3031C54.6832 44.3031 54.9536 44.2554 55.2081 44.1599C55.4706 44.0565 55.7012 43.9174 55.9001 43.7424C56.1069 43.5674 56.2659 43.3726 56.3773 43.1578L56.6636 43.9571C56.4966 44.2355 56.2898 44.4781 56.0432 44.6849C55.7967 44.8916 55.5302 45.0547 55.2439 45.174C54.9576 45.2933 54.6593 45.3529 54.3492 45.3529ZM59.1233 45.2336V38.9704H60.364V40.9388L60.2447 40.4616C60.3322 40.1594 60.4794 39.885 60.6861 39.6385C60.9009 39.3919 61.1435 39.1971 61.4139 39.0539C61.6922 38.9107 61.9786 38.8392 62.2728 38.8392C62.408 38.8392 62.5353 38.8511 62.6546 38.8749C62.7819 38.8988 62.8813 38.9266 62.9528 38.9585L62.6307 40.2946C62.5353 40.2549 62.4279 40.223 62.3086 40.1992C62.1973 40.1674 62.0859 40.1515 61.9746 40.1515C61.7598 40.1515 61.5531 40.1952 61.3542 40.2827C61.1633 40.3622 60.9923 40.4775 60.8412 40.6287C60.6981 40.7718 60.5828 40.9428 60.4953 41.1417C60.4078 41.3325 60.364 41.5433 60.364 41.7739V45.2336H59.1233ZM64.3763 45.2336V38.9704H65.6051V45.2336H64.3763ZM64.9728 37.5865C64.7104 37.5865 64.5076 37.5189 64.3644 37.3837C64.2212 37.2485 64.1497 37.0576 64.1497 36.8111C64.1497 36.5804 64.2212 36.3935 64.3644 36.2503C64.5155 36.1072 64.7183 36.0356 64.9728 36.0356C65.2353 36.0356 65.4381 36.1032 65.5813 36.2384C65.7244 36.3736 65.796 36.5645 65.796 36.8111C65.796 37.0417 65.7205 37.2286 65.5693 37.3718C65.4262 37.5149 65.2273 37.5865 64.9728 37.5865ZM71.4427 45.2336V41.1536C71.4427 40.8036 71.3155 40.5213 71.061 40.3066C70.8144 40.0839 70.5003 39.9725 70.1185 39.9725C69.7685 39.9725 69.4504 40.0441 69.1641 40.1873C68.8857 40.3304 68.6312 40.5491 68.4006 40.8434L67.6013 40.0441C67.9751 39.6385 68.3767 39.3362 68.8062 39.1374C69.2436 38.9386 69.7129 38.8392 70.2139 38.8392C70.6911 38.8392 71.1047 38.9187 71.4547 39.0778C71.8046 39.2368 72.075 39.4714 72.2659 39.7816C72.4568 40.0839 72.5522 40.4537 72.5522 40.8911V45.2336H71.4427ZM69.5697 45.3529C69.1641 45.3529 68.8022 45.2734 68.4841 45.1143C68.1659 44.9553 67.9114 44.7366 67.7206 44.4582C67.5376 44.1719 67.4462 43.8378 67.4462 43.4561C67.4462 43.122 67.5058 42.8278 67.6251 42.5733C67.7444 42.3187 67.9194 42.108 68.15 41.941C68.3886 41.7739 68.6829 41.6467 69.0329 41.5592C69.3908 41.4717 69.8004 41.428 70.2617 41.428H72.0034L71.8961 42.4062H70.1066C69.868 42.4062 69.6532 42.4301 69.4623 42.4778C69.2794 42.5176 69.1203 42.5852 68.9851 42.6806C68.8579 42.7681 68.7624 42.8755 68.6988 43.0027C68.6352 43.122 68.6034 43.2652 68.6034 43.4322C68.6034 43.6072 68.6471 43.7623 68.7346 43.8975C68.8221 44.0247 68.9414 44.1242 69.0925 44.1957C69.2436 44.2673 69.4186 44.3031 69.6174 44.3031C69.9038 44.3031 70.1742 44.2554 70.4287 44.1599C70.6911 44.0565 70.9218 43.9174 71.1206 43.7424C71.3274 43.5674 71.4865 43.3726 71.5978 43.1578L71.8841 43.9571C71.7171 44.2355 71.5103 44.4781 71.2638 44.6849C71.0172 44.8916 70.7508 45.0547 70.4645 45.174C70.1781 45.2933 69.8799 45.3529 69.5697 45.3529ZM74.3439 45.2336V38.9704H75.5726V40.2588L75.3579 40.402C75.4374 40.1236 75.5925 39.8691 75.8232 39.6385C76.0538 39.3999 76.3282 39.209 76.6463 39.0658C76.9645 38.9147 77.2906 38.8392 77.6246 38.8392C78.1018 38.8392 78.4995 38.9346 78.8176 39.1255C79.1357 39.3084 79.3743 39.5907 79.5334 39.9725C79.6925 40.3543 79.772 40.8354 79.772 41.416V45.2336H78.5432V41.4996C78.5432 41.1417 78.4955 40.8474 78.4001 40.6167C78.3046 40.3781 78.1575 40.2071 77.9586 40.1037C77.7598 39.9924 77.5133 39.9447 77.219 39.9606C76.9804 39.9606 76.7617 40.0003 76.5628 40.0799C76.364 40.1515 76.189 40.2549 76.0379 40.3901C75.8948 40.5253 75.7794 40.6843 75.6919 40.8673C75.6124 41.0422 75.5726 41.2331 75.5726 41.4399V45.2336H74.9642C74.8608 45.2336 74.7574 45.2336 74.654 45.2336C74.5506 45.2336 74.4473 45.2336 74.3439 45.2336Z" fill="white"></path><g clip-path="url(#clip0_6201_161)"><path d="M52.5983 10.9937C53.3448 11.0166 54.1133 11.269 55.0054 11.7841C55.5977 12.126 56.3852 12.6518 56.8939 13.4734L57.7442 13.1548C58.5275 12.8614 58.8598 11.9349 58.4416 11.2106C58.1535 10.7116 57.6048 10.4808 57.0799 10.5545C57.086 10.0845 56.8486 9.61963 56.4034 9.36263C55.9583 9.10563 55.437 9.13243 55.033 9.37278C54.8344 8.88126 54.3602 8.52148 53.784 8.52148C52.9476 8.52148 52.3114 9.27252 52.4489 10.0975L52.5983 10.9937Z" fill="white"></path><path d="M38.1721 19.3862V21.9826C38.1721 24.3125 39.9157 26.2426 42.1665 26.5371V28.3737C42.1665 28.7046 42.4348 28.9728 42.7657 28.9728H54.03C54.3609 28.9728 54.6291 28.7046 54.6291 28.3737V26.5371C56.88 26.2426 58.6236 24.3125 58.6236 21.9826V19.3862H38.1721Z" fill="white"></path><path d="M58.4223 15.2076C58.2361 15.0419 57.9668 15.009 57.7461 15.1246L57.3969 15.3076C57.3825 16.0778 57.1212 16.9069 56.6136 17.7861C56.5387 17.9159 56.4566 18.0501 56.3679 18.1879H57.6967L58.5838 15.8695C58.6729 15.6367 58.6086 15.3732 58.4223 15.2076Z" fill="white"></path><path d="M41.8394 14.8059C42.7358 13.9994 43.8869 13.7216 44.7149 13.6324C44.7792 13.6255 44.8444 13.622 44.9088 13.622C45.4174 13.622 45.9044 13.8395 46.2449 14.2187C46.5852 14.5976 46.749 15.1054 46.6945 15.612C46.615 16.3504 46.3855 17.3454 45.7649 18.188H47.2857C47.2857 18.0978 47.2958 18.0072 47.3165 17.9176C47.699 16.2659 48.3454 14.5319 49.0033 13.3923C49.3654 12.7652 49.7667 12.2603 50.205 11.8779C49.7469 11.2881 49.0814 10.8868 48.3405 10.7608C48.1976 10.211 47.9 9.71082 47.4759 9.31821C46.9209 8.80445 46.1986 8.52148 45.4419 8.52148C44.6852 8.52148 43.9629 8.80445 43.4079 9.31825C42.9839 9.71074 42.6863 10.2108 42.5433 10.7605C41.1295 10.9999 40.0494 12.2333 40.0494 13.7142C40.0494 13.7577 40.0507 13.8014 40.0526 13.8452C40.6558 14.0211 41.2946 14.3158 41.8394 14.8059Z" fill="white"></path><path d="M39.1444 17.7872C39.3012 17.944 39.474 18.0763 39.6549 18.188H44.0237C44.2047 18.0763 44.3775 17.944 44.5343 17.7872C45.2115 17.11 45.433 16.1346 45.5031 15.4837C45.544 15.1035 45.2235 14.7829 44.8433 14.8238C44.1923 14.8939 43.217 15.1154 42.5397 15.7927C42.2098 16.1226 41.9882 16.5232 41.8394 16.9226C41.6906 16.5232 41.4689 16.1226 41.139 15.7927C40.4618 15.1154 39.4864 14.8939 38.8355 14.8238C38.4553 14.7829 38.1347 15.1035 38.1757 15.4837C38.2457 16.1346 38.4672 17.11 39.1444 17.7872Z" fill="white"></path><path d="M49.7599 14.521L51.1253 15.3093C51.4119 15.4747 51.5101 15.8412 51.3446 16.1277C51.2336 16.3199 51.0322 16.4274 50.8251 16.4274C50.7235 16.4274 50.6205 16.4015 50.5261 16.347L49.277 15.6259C48.9667 16.4205 48.6866 17.3129 48.484 18.1879H54.9106C55.1713 17.8354 55.3973 17.4964 55.576 17.187C55.61 17.128 55.6422 17.07 55.6732 17.0125L54.2922 16.2151C54.0056 16.0497 53.9074 15.6832 54.0729 15.3967C54.2384 15.1101 54.6047 15.0118 54.8913 15.1774L56.1213 15.8875C56.4716 14.4108 55.6155 13.5199 54.4063 12.8218C52.8779 11.9394 51.3648 11.6988 50.0412 13.9914C49.9476 14.1536 49.8535 14.3311 49.7599 14.521Z" fill="white"></path></g><defs><clipPath id="clip0_6201_161"><rect width="20.4514" height="20.4514" fill="white" transform="translate(38.172 8.52148)"></rect></clipPath></defs></svg>