<svg xmlns="http://www.w3.org/2000/svg" width="100" height="84" viewBox="0 0 100 84" fill="none"><path d="M0.599121 17.9889V40.6868C0.599121 48.1326 5.18721 54.5145 11.6948 57.1514C13.7616 57.9956 16.0188 58.459 18.3814 58.459H59.631C60.5489 61.3802 61.5823 63.9535 62.6893 66.2222C70.2418 81.8107 81.0937 83.1717 81.0937 83.1717C77.3499 79.5434 74.9022 74.3116 73.3204 69.1014C72.16 65.336 71.4428 61.5808 71.0111 58.459H81.9164C82.2224 58.459 82.5283 58.4488 82.8228 58.4272C82.9917 58.4272 83.1605 58.4057 83.3294 58.3955C83.403 58.3955 83.4881 58.3955 83.5617 58.3739C88.0546 57.9727 92.0625 55.8844 94.9418 52.7626C97.8947 49.5888 99.6987 45.3485 99.6987 40.6868V17.9889C99.6987 8.16904 91.7362 0.206543 81.9164 0.206543H18.3827C8.56289 0.206543 0.600388 8.16904 0.600388 17.9889H0.599121Z" fill="#0C73D5"></path><path d="M41.6418 45.5595C41.0612 45.5595 40.5283 45.4561 40.0432 45.2493C39.558 45.0425 39.1365 44.7482 38.7786 44.3665C38.4207 43.9768 38.1423 43.5195 37.9435 42.9945C37.7526 42.4696 37.6572 41.893 37.6572 41.2647C37.6572 40.6682 37.7606 40.1154 37.9674 39.6064C38.1821 39.0894 38.4764 38.6361 38.8502 38.2464C39.224 37.8567 39.6575 37.5545 40.1506 37.3397C40.6437 37.125 41.1765 37.0176 41.7492 37.0176C42.1548 37.0176 42.5485 37.0812 42.9303 37.2085C43.32 37.3278 43.6699 37.4988 43.9801 37.7215C44.2982 37.9362 44.5567 38.1828 44.7555 38.4611L43.8966 39.3559C43.5546 39.0059 43.2046 38.7435 42.8467 38.5685C42.4888 38.3935 42.123 38.306 41.7492 38.306C41.3595 38.306 40.9936 38.3816 40.6516 38.5327C40.3176 38.6759 40.0233 38.8787 39.7688 39.1411C39.5222 39.4036 39.3274 39.7178 39.1842 40.0836C39.0411 40.4415 38.9695 40.8352 38.9695 41.2647C38.9695 41.718 39.0371 42.1316 39.1723 42.5054C39.3155 42.8713 39.5143 43.1854 39.7688 43.4479C40.0233 43.7103 40.3255 43.9131 40.6755 44.0563C41.0334 44.1915 41.4271 44.2591 41.8566 44.2591C42.119 44.2591 42.3775 44.2233 42.632 44.1517C42.8865 44.0802 43.1251 43.9768 43.3478 43.8416C43.5705 43.7064 43.7733 43.5473 43.9562 43.3644L44.6005 44.4142C44.4175 44.6289 44.167 44.8238 43.8489 44.9988C43.5387 45.1737 43.1887 45.3129 42.799 45.4163C42.4173 45.5118 42.0315 45.5595 41.6418 45.5595ZM49.9894 45.4402V41.3601C49.9894 41.0102 49.8621 40.7278 49.6076 40.5131C49.3611 40.2904 49.0469 40.1791 48.6651 40.1791C48.3152 40.1791 47.9971 40.2506 47.7107 40.3938C47.4324 40.537 47.1779 40.7557 46.9472 41.0499L46.1479 40.2506C46.5217 39.845 46.9234 39.5428 47.3528 39.344C47.7903 39.1451 48.2595 39.0457 48.7606 39.0457C49.2378 39.0457 49.6513 39.1252 50.0013 39.2843C50.3512 39.4434 50.6217 39.678 50.8125 39.9882C51.0034 40.2904 51.0989 40.6602 51.0989 41.0977V45.4402H49.9894ZM48.1164 45.5595C47.7107 45.5595 47.3489 45.48 47.0307 45.3209C46.7126 45.1618 46.4581 44.9431 46.2672 44.6647C46.0843 44.3784 45.9928 44.0444 45.9928 43.6626C45.9928 43.3286 46.0525 43.0343 46.1718 42.7798C46.2911 42.5253 46.466 42.3145 46.6967 42.1475C46.9353 41.9805 47.2296 41.8532 47.5795 41.7657C47.9374 41.6783 48.347 41.6345 48.8083 41.6345H50.5501L50.4427 42.6128H48.6532C48.4146 42.6128 48.1999 42.6366 48.009 42.6844C47.8261 42.7241 47.667 42.7917 47.5318 42.8872C47.4045 42.9747 47.3091 43.082 47.2455 43.2093C47.1818 43.3286 47.15 43.4717 47.15 43.6388C47.15 43.8137 47.1938 43.9688 47.2813 44.104C47.3687 44.2313 47.488 44.3307 47.6392 44.4023C47.7903 44.4739 47.9652 44.5096 48.1641 44.5096C48.4504 44.5096 48.7208 44.4619 48.9753 44.3665C49.2378 44.2631 49.4684 44.1239 49.6673 43.9489C49.874 43.774 50.0331 43.5791 50.1445 43.3644L50.4308 44.1637C50.2638 44.442 50.057 44.6846 49.8104 44.8914C49.5639 45.0982 49.2974 45.2612 49.0111 45.3805C48.7248 45.4998 48.4265 45.5595 48.1164 45.5595ZM52.8905 45.4402V39.1769H54.1312V41.1454L54.0119 40.6682C54.0994 40.366 54.2465 40.0916 54.4533 39.845C54.6681 39.5985 54.9106 39.4036 55.1811 39.2604C55.4594 39.1173 55.7458 39.0457 56.04 39.0457C56.1752 39.0457 56.3025 39.0576 56.4218 39.0815C56.549 39.1054 56.6485 39.1332 56.72 39.165L56.3979 40.5012C56.3025 40.4614 56.1951 40.4296 56.0758 40.4057C55.9645 40.3739 55.8531 40.358 55.7418 40.358C55.527 40.358 55.3202 40.4017 55.1214 40.4892C54.9305 40.5688 54.7595 40.6841 54.6084 40.8352C54.4653 40.9784 54.3499 41.1494 54.2625 41.3482C54.175 41.5391 54.1312 41.7498 54.1312 41.9805V45.4402H52.8905ZM60.0285 45.5595C59.5035 45.5595 59.0303 45.468 58.6088 45.2851C58.1873 45.1022 57.8373 44.8318 57.559 44.4739L58.3941 43.7581C58.6327 44.0364 58.8911 44.2392 59.1695 44.3665C59.4558 44.4858 59.7779 44.5454 60.1358 44.5454C60.279 44.5454 60.4102 44.5295 60.5295 44.4977C60.6568 44.4579 60.7642 44.4023 60.8516 44.3307C60.9471 44.2591 61.0187 44.1756 61.0664 44.0802C61.1141 43.9768 61.138 43.8654 61.138 43.7461C61.138 43.5393 61.0624 43.3723 60.9113 43.2451C60.8318 43.1894 60.7045 43.1297 60.5295 43.0661C60.3625 42.9945 60.1438 42.923 59.8734 42.8514C59.4121 42.7321 59.0343 42.5969 58.74 42.4458C58.4458 42.2946 58.2191 42.1236 58.06 41.9328C57.9407 41.7817 57.8532 41.6186 57.7976 41.4436C57.7419 41.2607 57.714 41.0619 57.714 40.8471C57.714 40.4972 57.8135 40.187 58.0123 39.9166C58.2111 39.6462 58.4776 39.4354 58.8116 39.2843C59.1536 39.1252 59.5354 39.0457 59.9569 39.0457C60.2512 39.0457 60.5415 39.0855 60.8278 39.165C61.1221 39.2445 61.3925 39.3599 61.639 39.511C61.8856 39.6621 62.0924 39.841 62.2594 40.0478L61.5555 40.8233C61.4044 40.6722 61.2374 40.5409 61.0544 40.4296C60.8795 40.3103 60.7005 40.2188 60.5176 40.1552C60.3347 40.0916 60.1677 40.0598 60.0165 40.0598C59.8495 40.0598 59.6984 40.0757 59.5632 40.1075C59.428 40.1393 59.3127 40.187 59.2172 40.2506C59.1297 40.3143 59.0621 40.3938 59.0144 40.4892C58.9667 40.5847 58.9428 40.692 58.9428 40.8113C58.9508 40.9147 58.9747 41.0142 59.0144 41.1096C59.0621 41.1971 59.1258 41.2726 59.2053 41.3363C59.2928 41.3999 59.424 41.4675 59.599 41.5391C59.774 41.6107 59.9967 41.6783 60.2671 41.7419C60.6647 41.8453 60.9908 41.9606 61.2453 42.0879C61.5078 42.2072 61.7146 42.3463 61.8657 42.5054C62.0248 42.6565 62.1361 42.8315 62.1997 43.0303C62.2634 43.2292 62.2952 43.4519 62.2952 43.6984C62.2952 44.0563 62.1918 44.3784 61.985 44.6647C61.7862 44.9431 61.5157 45.1618 61.1737 45.3209C60.8318 45.48 60.45 45.5595 60.0285 45.5595Z" fill="white"></path><g clip-path="url(#clip0_6201_67)"><path d="M42.1802 23.8281C41.5776 23.8281 40.9885 24.0068 40.4874 24.3416C39.9864 24.6764 39.5958 25.1523 39.3652 25.709C39.1346 26.2658 39.0743 26.8784 39.1918 27.4694C39.3094 28.0605 39.5996 28.6034 40.0257 29.0295C40.4518 29.4556 40.9947 29.7458 41.5858 29.8633C42.1768 29.9809 42.7894 29.9206 43.3462 29.6899C43.9029 29.4593 44.3788 29.0688 44.7136 28.5678C45.0484 28.0667 45.2271 27.4776 45.2271 26.875C45.2261 26.0672 44.9048 25.2927 44.3336 24.7215C43.7624 24.1503 42.988 23.829 42.1802 23.8281ZM42.1802 28.2813C41.902 28.2813 41.6302 28.1988 41.3989 28.0443C41.1676 27.8897 40.9874 27.6701 40.881 27.4131C40.7745 27.1562 40.7467 26.8734 40.8009 26.6007C40.8552 26.3279 40.9891 26.0773 41.1858 25.8806C41.3825 25.684 41.633 25.55 41.9058 25.4958C42.1786 25.4415 42.4614 25.4694 42.7183 25.5758C42.9753 25.6822 43.1949 25.8625 43.3494 26.0937C43.504 26.325 43.5864 26.5969 43.5864 26.875C43.5864 27.248 43.4383 27.6056 43.1745 27.8694C42.9108 28.1331 42.5531 28.2813 42.1802 28.2813Z" fill="white"></path><path d="M59.0552 23.8281C58.4526 23.8281 57.8635 24.0068 57.3624 24.3416C56.8614 24.6764 56.4708 25.1523 56.2402 25.709C56.0096 26.2658 55.9493 26.8784 56.0668 27.4694C56.1844 28.0605 56.4746 28.6034 56.9007 29.0295C57.3268 29.4556 57.8697 29.7458 58.4608 29.8633C59.0518 29.9809 59.6644 29.9206 60.2212 29.6899C60.7779 29.4593 61.2538 29.0688 61.5886 28.5678C61.9234 28.0667 62.1021 27.4776 62.1021 26.875C62.1011 26.0672 61.7798 25.2927 61.2086 24.7215C60.6374 24.1503 59.863 23.829 59.0552 23.8281ZM59.0552 28.2813C58.777 28.2813 58.5052 28.1988 58.2739 28.0443C58.0427 27.8897 57.8624 27.6701 57.756 27.4131C57.6495 27.1562 57.6217 26.8734 57.6759 26.6007C57.7302 26.3279 57.8641 26.0773 58.0608 25.8806C58.2575 25.684 58.508 25.55 58.7808 25.4958C59.0536 25.4415 59.3364 25.4694 59.5933 25.5758C59.8503 25.6822 60.0699 25.8625 60.2244 26.0937C60.379 26.325 60.4614 26.5969 60.4614 26.875C60.4614 27.248 60.3133 27.6056 60.0495 27.8694C59.7858 28.1331 59.4281 28.2813 59.0552 28.2813Z" fill="white"></path><path d="M63.1216 21.3109L57.6489 20.3125L52.9898 16.4468C52.5281 16.0675 51.9492 15.8599 51.3516 15.8594H44.4876C44.1008 15.8585 43.7188 15.945 43.3702 16.1126C43.0215 16.2802 42.7153 16.5244 42.4744 16.827L39.4985 20.3125H37.4927C36.9334 20.3131 36.3973 20.5356 36.0018 20.931C35.6064 21.3265 35.3839 21.8626 35.3833 22.4219V25C35.3841 25.6835 35.6559 26.3389 36.1393 26.8222C36.6226 27.3055 37.2779 27.5774 37.9614 27.5781H38.4973C38.3933 27.0357 38.4104 26.477 38.5473 25.942C38.6843 25.4069 38.9378 24.9087 39.2896 24.483C39.6415 24.0573 40.083 23.7145 40.5827 23.4792C41.0824 23.244 41.6279 23.122 42.1802 23.122C42.7325 23.122 43.278 23.244 43.7777 23.4792C44.2773 23.7145 44.7189 24.0573 45.0707 24.483C45.4226 24.9087 45.6761 25.4069 45.813 25.942C45.95 26.477 45.9671 27.0357 45.8631 27.5781H55.3723C55.2683 27.0357 55.2854 26.477 55.4223 25.942C55.5593 25.4069 55.8128 24.9087 56.1646 24.483C56.5165 24.0573 56.958 23.7145 57.4577 23.4792C57.9574 23.244 58.5029 23.122 59.0552 23.122C59.6075 23.122 60.153 23.244 60.6527 23.4792C61.1523 23.7145 61.5939 24.0573 61.9457 24.483C62.2976 24.9087 62.5511 25.4069 62.688 25.942C62.825 26.477 62.8421 27.0357 62.7381 27.5781H62.8052C63.3644 27.5775 63.9006 27.3551 64.296 26.9596C64.6915 26.5642 64.9139 26.028 64.9146 25.4688V23.3964C64.9171 22.8911 64.7371 22.4019 64.4077 22.0187C64.0782 21.6356 63.6215 21.3842 63.1216 21.3109ZM45.6958 19.6094C45.6958 19.7959 45.6217 19.9747 45.4899 20.1066C45.358 20.2384 45.1792 20.3125 44.9927 20.3125H41.9016C41.8343 20.3125 41.7685 20.2933 41.7119 20.2571C41.6553 20.2209 41.6102 20.1692 41.5821 20.1081C41.5539 20.0471 41.5439 19.9792 41.5531 19.9126C41.5624 19.8461 41.5905 19.7835 41.6342 19.7324L43.6801 17.3359C43.7461 17.2587 43.8281 17.1967 43.9204 17.1542C44.0127 17.1118 44.1132 17.0898 44.2148 17.0899H44.9927C45.1792 17.0899 45.358 17.1639 45.4899 17.2958C45.6217 17.4277 45.6958 17.6065 45.6958 17.793V19.6094ZM49.2114 22.8906H48.2739C48.0874 22.8906 47.9086 22.8166 47.7767 22.6847C47.6449 22.5528 47.5708 22.374 47.5708 22.1875C47.5708 22.001 47.6449 21.8222 47.7767 21.6903C47.9086 21.5585 48.0874 21.4844 48.2739 21.4844H49.2114C49.3979 21.4844 49.5767 21.5585 49.7086 21.6903C49.8405 21.8222 49.9146 22.001 49.9146 22.1875C49.9146 22.374 49.8405 22.5528 49.7086 22.6847C49.5767 22.8166 49.3979 22.8906 49.2114 22.8906ZM54.7473 20.3297L48.0379 20.3141C47.8517 20.3137 47.6733 20.2394 47.5418 20.1076C47.4103 19.9758 47.3364 19.7972 47.3364 19.611V17.793C47.3364 17.6065 47.4105 17.4277 47.5424 17.2958C47.6742 17.1639 47.8531 17.0899 48.0396 17.0899H51.4115C51.5695 17.0899 51.723 17.1431 51.847 17.241L54.9659 19.702C55.0234 19.7472 55.0653 19.8093 55.0858 19.8795C55.1063 19.9498 55.1044 20.0247 55.0804 20.0938C55.0563 20.1629 55.0113 20.2227 54.9516 20.265C54.8919 20.3073 54.8205 20.33 54.7473 20.3297Z" fill="white"></path></g><defs><clipPath id="clip0_6201_67"><rect width="30" height="30" fill="white" transform="translate(35.1489 10)"></rect></clipPath></defs></svg>