<svg xmlns="http://www.w3.org/2000/svg" width="123" height="59" viewBox="0 0 123 59" fill="none"><path d="M122.068 18.1742V40.8872C122.068 45.5607 120.272 49.8009 117.317 52.9776C114.429 56.1059 110.423 58.1923 105.932 58.5888C105.855 58.618 105.768 58.618 105.691 58.618H105.662C105.508 58.6282 105.343 58.6371 105.189 58.6371C104.889 58.6663 104.58 58.6752 104.282 58.6752H40.6903C39.3866 58.6752 38.1122 58.5303 36.8949 58.2597C35.8911 58.0475 34.9254 57.7476 33.9978 57.3715C27.4793 54.7349 22.8833 48.3422 22.8833 40.8872V35.5657C3.85903 28.14 0.61377 6.12201 0.61377 6.12201C8.30126 17.6329 17.9773 20.9074 22.8833 21.8337V18.1742C22.8833 8.3431 30.8593 0.367188 40.6903 0.367188H104.282C114.113 0.367188 122.07 8.3431 122.07 18.1742H122.068Z" fill="#F58B52"></path><path d="M62.1317 45.3362V38.1718H65.0077C65.5263 38.1718 65.9937 38.2571 66.4099 38.4277C66.8329 38.5983 67.1946 38.8439 67.4948 39.1646C67.795 39.4853 68.027 39.864 68.1908 40.3007C68.3545 40.7373 68.4364 41.2218 68.4364 41.754C68.4364 42.2862 68.3545 42.7741 68.1908 43.2176C68.027 43.6543 67.795 44.0329 67.4948 44.3536C67.2014 44.6675 66.8432 44.9097 66.4201 45.0803C65.9971 45.2509 65.5263 45.3362 65.0077 45.3362H62.1317ZM63.452 44.3025L63.3599 44.108H64.9566C65.2909 44.108 65.5911 44.0534 65.8572 43.9442C66.1233 43.8351 66.3451 43.6816 66.5225 43.4837C66.7067 43.279 66.8466 43.0299 66.9421 42.7365C67.0445 42.4431 67.0956 42.1156 67.0956 41.754C67.0956 41.3924 67.0445 41.0683 66.9421 40.7817C66.8466 40.4883 66.7067 40.2392 66.5225 40.0346C66.3383 39.8299 66.1131 39.6729 65.847 39.5638C65.5877 39.4546 65.2909 39.4 64.9566 39.4H63.3292L63.452 39.226V44.3025ZM72.8513 45.3362V41.8871C72.8513 41.5937 72.7523 41.3651 72.5545 41.2013C72.3634 41.0307 72.1144 40.9454 71.8073 40.9454C71.5207 40.9454 71.2615 41.0034 71.0295 41.1194C70.7975 41.2286 70.5826 41.406 70.3847 41.6517L69.6068 40.8738C69.9275 40.5326 70.2823 40.2734 70.6713 40.096C71.0602 39.9186 71.4798 39.8299 71.9301 39.8299C72.36 39.8299 72.7285 39.8981 73.0355 40.0346C73.3494 40.171 73.5916 40.3757 73.7622 40.6486C73.9327 40.9147 74.018 41.2423 74.018 41.6312V45.3362H72.8513ZM71.316 45.4385C70.9681 45.4385 70.6576 45.3703 70.3847 45.2338C70.1118 45.0974 69.8934 44.9097 69.7297 44.6709C69.5727 44.4253 69.4943 44.1387 69.4943 43.8112C69.4943 43.5246 69.5454 43.2756 69.6478 43.0641C69.7501 42.8457 69.9002 42.6649 70.0981 42.5216C70.3028 42.3783 70.5553 42.2726 70.8555 42.2043C71.1625 42.1293 71.5139 42.0917 71.9097 42.0917H73.4551L73.363 42.9924H71.838C71.6538 42.9924 71.49 43.0095 71.3468 43.0436C71.2035 43.0777 71.0806 43.1289 70.9783 43.1971C70.876 43.2653 70.8009 43.3472 70.7531 43.4427C70.7054 43.5314 70.6815 43.6406 70.6815 43.7703C70.6815 43.9067 70.7156 44.0261 70.7838 44.1285C70.8521 44.224 70.9442 44.2991 71.0602 44.3536C71.1762 44.4082 71.3126 44.4355 71.4696 44.4355C71.6947 44.4355 71.9063 44.398 72.1041 44.3229C72.3088 44.2479 72.4896 44.1421 72.6466 44.0057C72.8035 43.8692 72.9263 43.7157 73.015 43.5451L73.2709 44.2411C73.1276 44.4799 72.9502 44.688 72.7387 44.8654C72.534 45.0428 72.3088 45.1827 72.0632 45.285C71.8244 45.3874 71.5753 45.4385 71.316 45.4385ZM75.619 45.3362V39.9424H76.8676V45.3362H75.619ZM76.2331 38.7961C75.9806 38.7961 75.7827 38.7347 75.6395 38.6119C75.503 38.4823 75.4348 38.3015 75.4348 38.0695C75.4348 37.8511 75.5064 37.6771 75.6497 37.5475C75.793 37.411 75.9874 37.3428 76.2331 37.3428C76.4855 37.3428 76.68 37.4076 76.8165 37.5373C76.9597 37.6601 77.0314 37.8375 77.0314 38.0695C77.0314 38.281 76.9597 38.455 76.8165 38.5914C76.6732 38.7279 76.4787 38.7961 76.2331 38.7961ZM78.5921 45.3362V39.9424H79.8203L79.8408 41.6619L79.677 41.273C79.7521 41 79.8817 40.7544 80.0659 40.5361C80.2502 40.3177 80.4617 40.1471 80.7005 40.0243C80.9461 39.8947 81.1986 39.8299 81.4579 39.8299C81.5739 39.8299 81.683 39.8401 81.7854 39.8606C81.8945 39.881 81.9832 39.9049 82.0515 39.9322L81.724 41.3037C81.6421 41.2627 81.5466 41.232 81.4374 41.2116C81.335 41.1843 81.2293 41.1706 81.1201 41.1706C80.9427 41.1706 80.7755 41.2047 80.6186 41.273C80.4685 41.3344 80.3354 41.4231 80.2194 41.5391C80.1103 41.6551 80.0216 41.7915 79.9533 41.9485C79.8851 42.0986 79.851 42.2657 79.851 42.45V45.3362H78.5921ZM83.8569 47.6902L84.9929 45.0496L85.0032 45.8991L82.3421 39.9424H83.7852L85.2795 43.4939C85.3273 43.5826 85.375 43.702 85.4228 43.8521C85.4706 43.9954 85.5115 44.1353 85.5456 44.2718L85.2898 44.3639C85.3375 44.2342 85.3853 44.0944 85.433 43.9442C85.4876 43.7941 85.5422 43.644 85.5968 43.4939L86.8659 39.9424H88.3193L86.0778 45.3362L85.1669 47.6902H83.8569Z" fill="white"></path><path d="M72.0577 28.8866H66.3939C65.659 28.8866 65.0613 28.2889 65.0613 27.5539V18.8916C65.0613 17.3124 65.5004 16.5262 65.9648 15.6939C66.3406 15.0196 66.7664 14.258 67.0603 12.8281V12.5615H68.3929V12.8947C68.3929 12.9387 68.3889 12.982 68.3796 13.0253C68.0444 14.7018 67.536 15.612 67.1282 16.3429C66.9197 16.7161 66.7404 17.0399 66.6105 17.4157C68.7254 18.0034 69.9341 16.5208 71.9991 16.9946C71.8978 16.7807 71.7832 16.5708 71.6559 16.3423C71.2481 15.6113 70.7397 14.7011 70.4046 13.0246C70.3959 12.982 70.3919 12.9387 70.3919 12.8947V12.5615H71.7246V12.8281C72.0184 14.258 72.4442 15.0203 72.82 15.6939C73.2844 16.5262 73.7235 17.3124 73.7235 18.8916V21.9901L72.2196 22.8923C72.119 22.9522 72.0577 23.0609 72.0577 23.1781V28.8866Z" fill="white"></path><path d="M67.0601 9.56299H71.7244C72.0922 9.56299 72.3908 9.8615 72.3908 10.2293V10.8956C72.3908 11.2635 72.0922 11.562 71.7244 11.562H67.0601C66.6923 11.562 66.3938 11.2635 66.3938 10.8956V10.2293C66.3938 9.8615 66.6923 9.56299 67.0601 9.56299Z" fill="white"></path><path d="M79.7205 19.5579L73.1098 23.5245C73.0952 23.5332 73.1012 23.5558 73.1185 23.5558H83.7185C83.274 21.335 81.9414 20.0023 79.7205 19.5579ZM80.0537 22.2232C79.6858 22.2232 79.3873 21.9247 79.3873 21.5568C79.3873 21.189 79.6858 20.8905 80.0537 20.8905C80.4215 20.8905 80.72 21.189 80.72 21.5568C80.72 21.9247 80.4215 22.2232 80.0537 22.2232Z" fill="white"></path><path d="M73.0571 24.5554V28.5534C73.0571 28.7373 73.2064 28.8866 73.3903 28.8866H83.0521C83.4199 28.8866 83.7184 28.588 83.7184 28.2202V24.5554H73.0571ZM75.7224 27.5539C75.3546 27.5539 75.0561 27.2554 75.0561 26.8876C75.0561 26.5198 75.3546 26.2212 75.7224 26.2212C76.0903 26.2212 76.3888 26.5198 76.3888 26.8876C76.3888 27.2554 76.0903 27.5539 75.7224 27.5539ZM80.7199 27.5539C80.1682 27.5539 79.7204 27.1061 79.7204 26.5544C79.7204 26.0027 80.1682 25.5549 80.7199 25.5549C81.2716 25.5549 81.7194 26.0027 81.7194 26.5544C81.7194 27.1061 81.2716 27.5539 80.7199 27.5539Z" fill="white"></path></svg>