<svg xmlns="http://www.w3.org/2000/svg" width="100" height="84" viewBox="0 0 100 84" fill="none"><path d="M99.9999 18.2189V40.9168C99.9999 48.595 95.1275 55.1445 88.3025 57.6239C86.4045 58.3094 84.3581 58.689 82.2278 58.689H40.6087C40.4716 59.1105 40.3345 59.5218 40.1872 59.923C39.1005 62.961 37.751 65.66 36.2631 68.0543C35.6728 69.0141 35.0609 69.9218 34.4287 70.7762C28.2791 79.2135 20.9183 83.0107 20.6009 83.1694C23.7862 77.8424 25.8631 72.7275 27.1707 68.0556C28.1305 64.6698 28.6789 61.5162 28.9849 58.6903H18.6801C15.7272 58.6903 12.9431 57.973 10.4955 56.6971C4.79907 53.7328 0.907959 47.785 0.907959 40.9181V18.2202C0.907959 8.40034 8.87173 0.447998 18.6801 0.447998H82.2265C92.0463 0.447998 99.9987 8.40034 99.9987 18.2202L99.9999 18.2189Z" fill="#02A68F"></path><path d="M34.9447 45.8009C34.2607 45.8009 33.6563 45.6657 33.1314 45.3953C32.6144 45.1249 32.169 44.7193 31.7952 44.1785L32.678 43.1644C33.0677 43.7211 33.4415 44.1069 33.7994 44.3216C34.1573 44.5364 34.5828 44.6437 35.0759 44.6437C35.3782 44.6437 35.6526 44.596 35.8991 44.5006C36.1457 44.4051 36.3405 44.2739 36.4837 44.1069C36.6268 43.9399 36.6984 43.749 36.6984 43.5342C36.6984 43.3911 36.6746 43.2559 36.6268 43.1286C36.5791 43.0014 36.5036 42.886 36.4002 42.7826C36.3047 42.6793 36.1775 42.5838 36.0184 42.4963C35.8673 42.4088 35.6884 42.3333 35.4816 42.2697C35.2748 42.1981 35.0362 42.1384 34.7658 42.0907C34.3363 42.0032 33.9625 41.8879 33.6443 41.7447C33.3262 41.6016 33.0598 41.4226 32.845 41.2079C32.6303 40.9931 32.4712 40.7506 32.3678 40.4802C32.2644 40.2018 32.2127 39.8916 32.2127 39.5496C32.2127 39.0963 32.34 38.6946 32.5945 38.3447C32.849 37.9947 33.191 37.7204 33.6205 37.5215C34.0579 37.3147 34.547 37.2113 35.0879 37.2113C35.7321 37.2113 36.2928 37.3386 36.77 37.5931C37.2552 37.8397 37.6369 38.2015 37.9153 38.6787L37.0086 39.5735C36.77 39.1838 36.4837 38.8855 36.1496 38.6787C35.8236 38.4719 35.4577 38.3685 35.0521 38.3685C34.7419 38.3685 34.4715 38.4163 34.2408 38.5117C34.0102 38.6071 33.8273 38.7424 33.6921 38.9173C33.5648 39.0843 33.5012 39.2832 33.5012 39.5138C33.5012 39.6808 33.533 39.8359 33.5966 39.9791C33.6602 40.1143 33.7557 40.2376 33.8829 40.3489C34.0182 40.4523 34.1971 40.5478 34.4198 40.6352C34.6425 40.7148 34.9089 40.7864 35.2191 40.85C35.6565 40.9454 36.0463 41.0687 36.3882 41.2198C36.7302 41.363 37.0205 41.534 37.2591 41.7328C37.4977 41.9316 37.6767 42.1543 37.796 42.4009C37.9232 42.6474 37.9869 42.9139 37.9869 43.2002C37.9869 43.7331 37.8636 44.1944 37.617 44.5841C37.3705 44.9738 37.0205 45.276 36.5672 45.4908C36.1139 45.6975 35.573 45.8009 34.9447 45.8009ZM39.7409 48.3062V39.4184H40.9816V40.85L40.7907 40.7426C40.8384 40.504 40.9736 40.2773 41.1963 40.0626C41.419 39.8399 41.6894 39.661 42.0076 39.5258C42.3336 39.3826 42.6677 39.311 43.0097 39.311C43.5744 39.311 44.0754 39.4502 44.5129 39.7286C44.9503 40.0069 45.2963 40.3887 45.5508 40.8738C45.8053 41.359 45.9325 41.9157 45.9325 42.544C45.9325 43.1644 45.8053 43.7211 45.5508 44.2143C45.3042 44.6994 44.9622 45.0851 44.5248 45.3715C44.0874 45.6498 43.5942 45.789 43.0455 45.789C42.6796 45.789 42.3257 45.7174 41.9837 45.5743C41.6417 45.4232 41.3514 45.2323 41.1128 45.0016C40.8742 44.771 40.7271 44.5324 40.6714 44.2858L40.9816 44.1188V48.3062H39.7409ZM42.8427 44.6557C43.2085 44.6557 43.5346 44.5642 43.8209 44.3813C44.1072 44.1983 44.3339 43.9478 44.5009 43.6297C44.6679 43.3115 44.7515 42.9497 44.7515 42.544C44.7515 42.1384 44.6679 41.7805 44.5009 41.4703C44.3419 41.1522 44.1192 40.9017 43.8328 40.7188C43.5465 40.5358 43.2165 40.4444 42.8427 40.4444C42.4688 40.4444 42.1388 40.5358 41.8525 40.7188C41.5661 40.8937 41.3395 41.1403 41.1725 41.4584C41.0054 41.7766 40.9219 42.1384 40.9219 42.544C40.9219 42.9497 41.0054 43.3115 41.1725 43.6297C41.3395 43.9478 41.5661 44.1983 41.8525 44.3813C42.1388 44.5642 42.4688 44.6557 42.8427 44.6557ZM50.3211 45.8009C49.7087 45.8009 49.1599 45.6618 48.6748 45.3834C48.1975 45.0971 47.8198 44.7113 47.5414 44.2262C47.263 43.7331 47.1238 43.1724 47.1238 42.544C47.1238 41.9157 47.263 41.359 47.5414 40.8738C47.8198 40.3807 48.1975 39.995 48.6748 39.7166C49.1599 39.4303 49.7087 39.2872 50.3211 39.2872C50.9255 39.2872 51.4664 39.4303 51.9436 39.7166C52.4287 39.995 52.8105 40.3807 53.0889 40.8738C53.3672 41.359 53.5064 41.9157 53.5064 42.544C53.5064 43.1724 53.3672 43.7331 53.0889 44.2262C52.8105 44.7113 52.4287 45.0971 51.9436 45.3834C51.4664 45.6618 50.9255 45.8009 50.3211 45.8009ZM50.3211 44.6795C50.6949 44.6795 51.0289 44.5881 51.3232 44.4051C51.6175 44.2142 51.8481 43.9597 52.0152 43.6416C52.1822 43.3155 52.2617 42.9497 52.2538 42.544C52.2617 42.1305 52.1822 41.7646 52.0152 41.4465C51.8481 41.1204 51.6175 40.8659 51.3232 40.683C51.0289 40.5 50.6949 40.4086 50.3211 40.4086C49.9473 40.4086 49.6093 40.504 49.307 40.6949C49.0128 40.8778 48.7821 41.1323 48.6151 41.4584C48.4481 41.7766 48.3685 42.1384 48.3765 42.544C48.3685 42.9497 48.4481 43.3155 48.6151 43.6416C48.7821 43.9597 49.0128 44.2142 49.307 44.4051C49.6093 44.5881 49.9473 44.6795 50.3211 44.6795ZM55.084 45.6816V39.4184H56.3247V41.3868L56.2054 40.9096C56.2929 40.6074 56.44 40.333 56.6468 40.0865C56.8615 39.8399 57.1041 39.6451 57.3745 39.5019C57.6529 39.3587 57.9392 39.2872 58.2335 39.2872C58.3687 39.2872 58.4959 39.2991 58.6152 39.3229C58.7425 39.3468 58.8419 39.3746 58.9135 39.4065L58.5914 40.7426C58.4959 40.7029 58.3886 40.671 58.2693 40.6472C58.1579 40.6154 58.0466 40.5995 57.9352 40.5995C57.7205 40.5995 57.5137 40.6432 57.3149 40.7307C57.124 40.8102 56.953 40.9255 56.8019 41.0767C56.6587 41.2198 56.5434 41.3908 56.4559 41.5896C56.3684 41.7805 56.3247 41.9913 56.3247 42.2219V45.6816H55.084ZM61.1426 45.6816V37.8198H62.3714V45.6816H61.1426ZM59.8423 40.6114V39.4184H63.8269V40.6114H59.8423ZM67.5051 45.8009C66.9802 45.8009 66.507 45.7095 66.0855 45.5266C65.6639 45.3436 65.314 45.0732 65.0356 44.7153L65.8707 43.9995C66.1093 44.2779 66.3678 44.4807 66.6462 44.6079C66.9325 44.7272 67.2546 44.7869 67.6125 44.7869C67.7557 44.7869 67.8869 44.771 68.0062 44.7392C68.1335 44.6994 68.2408 44.6437 68.3283 44.5722C68.4238 44.5006 68.4953 44.4171 68.5431 44.3216C68.5908 44.2182 68.6146 44.1069 68.6146 43.9876C68.6146 43.7808 68.5391 43.6138 68.388 43.4865C68.3084 43.4308 68.1812 43.3712 68.0062 43.3076C67.8392 43.236 67.6205 43.1644 67.3501 43.0928C66.8888 42.9735 66.511 42.8383 66.2167 42.6872C65.9224 42.5361 65.6958 42.3651 65.5367 42.1742C65.4174 42.0231 65.3299 41.8601 65.2742 41.6851C65.2186 41.5022 65.1907 41.3033 65.1907 41.0886C65.1907 40.7386 65.2901 40.4285 65.489 40.158C65.6878 39.8876 65.9542 39.6769 66.2883 39.5258C66.6303 39.3667 67.012 39.2872 67.4336 39.2872C67.7278 39.2872 68.0181 39.3269 68.3045 39.4065C68.5987 39.486 68.8691 39.6013 69.1157 39.7524C69.3622 39.9035 69.569 40.0825 69.7361 40.2893L69.0322 41.0647C68.8811 40.9136 68.7141 40.7824 68.5311 40.671C68.3562 40.5517 68.1772 40.4603 67.9943 40.3966C67.8113 40.333 67.6443 40.3012 67.4932 40.3012C67.3262 40.3012 67.1751 40.3171 67.0399 40.3489C66.9047 40.3807 66.7893 40.4285 66.6939 40.4921C66.6064 40.5557 66.5388 40.6352 66.4911 40.7307C66.4434 40.8261 66.4195 40.9335 66.4195 41.0528C66.4275 41.1562 66.4513 41.2556 66.4911 41.351C66.5388 41.4385 66.6024 41.5141 66.682 41.5777C66.7695 41.6413 66.9007 41.7089 67.0757 41.7805C67.2506 41.8521 67.4733 41.9197 67.7437 41.9833C68.1414 42.0867 68.4675 42.2021 68.722 42.3293C68.9845 42.4486 69.1913 42.5878 69.3424 42.7469C69.5014 42.898 69.6128 43.0729 69.6764 43.2718C69.74 43.4706 69.7718 43.6933 69.7718 43.9399C69.7718 44.2978 69.6685 44.6199 69.4617 44.9062C69.2628 45.1846 68.9924 45.4033 68.6504 45.5623C68.3084 45.7214 67.9267 45.8009 67.5051 45.8009Z" fill="white"></path><path d="M44.2063 22.1987C44.9707 20.5104 45.5579 18.4782 45.4877 17.284C45.0198 17.283 42.0999 17.2847 41.7074 17.284C41.7501 18.2339 41.9951 19.1637 42.4261 20.0113C42.857 20.8588 43.464 21.6046 44.2063 22.1987Z" fill="white"></path><path d="M45.4366 16.645C45.1639 15.0044 44.6951 13.4027 44.0401 11.874C43.3452 12.4671 42.7796 13.1966 42.3783 14.0173C41.9771 14.838 41.7487 15.7323 41.7074 16.645C42.0876 16.6434 44.9834 16.646 45.4366 16.645Z" fill="white"></path><path d="M46.0788 16.645H48.1015C48.1015 16.645 48.0977 10.3391 48.0984 10.2571C46.8285 10.3109 45.6012 10.7303 44.5641 11.465C44.6408 11.6535 44.7239 11.858 44.8069 12.0753C45.4094 13.5431 45.8363 15.077 46.0788 16.645Z" fill="white"></path><path d="M50.7762 16.645C51.0405 14.7703 51.7439 13.0327 52.3803 11.5449C51.3227 10.7598 50.0534 10.3111 48.7374 10.2571C48.7397 10.3302 48.7406 16.645 48.7406 16.645H50.7762Z" fill="white"></path><path d="M55.1286 16.6449C55.0881 15.7544 54.8695 14.8811 54.4859 14.0765C54.1022 13.2719 53.5613 12.5523 52.8949 11.9602C52.815 12.1487 52.7256 12.3596 52.6329 12.5897C52.0738 13.8903 51.6663 15.251 51.4186 16.6449H55.1286Z" fill="white"></path><path d="M45.0083 21.9495C44.9973 21.958 44.9856 21.9655 44.9731 21.9718C44.9937 21.9998 45.0019 21.9676 45.0083 21.9495Z" fill="white"></path><path d="M58.5734 23.3331C57.8981 22.7511 57.1732 22.2293 56.4069 21.7737V26.6021C57.1732 26.1465 57.8981 25.6247 58.5734 25.0427C58.6956 24.9363 58.7936 24.805 58.8608 24.6575C58.9279 24.5101 58.9626 24.3499 58.9626 24.1879C58.9626 24.0259 58.9279 23.8657 58.8608 23.7183C58.7936 23.5708 58.6956 23.4395 58.5734 23.3331Z" fill="white"></path><path d="M44.8485 22.6557C44.5645 22.865 44.253 23.1178 44.0049 23.3331C43.8827 23.4395 43.7847 23.5708 43.7176 23.7183C43.6505 23.8658 43.6157 24.0259 43.6157 24.1879C43.6157 24.3499 43.6505 24.5101 43.7176 24.6575C43.7847 24.805 43.8827 24.9363 44.0049 25.0427C44.6802 25.6247 45.4052 26.1465 46.1715 26.6021C46.1701 26.2723 46.1715 21.7737 46.1715 21.7737C45.7143 22.0426 45.2726 22.337 44.8485 22.6557Z" fill="white"></path><path d="M53.3678 20.4957C51.1782 19.9089 48.7712 20.3658 46.8106 21.4192C46.8054 22.6029 46.8106 26.906 46.8106 26.906C46.8116 26.9222 46.8094 26.9385 46.8042 26.9539C48.1817 27.7039 49.7194 28.1116 51.2875 28.1426C52.8543 28.1119 54.3908 27.7053 55.7677 26.9571C55.7672 26.0999 55.7653 21.7348 55.7677 21.4192C55.0063 21.0192 54.201 20.7092 53.3678 20.4957ZM49.2296 21.6557C49.303 21.701 49.3558 21.7733 49.3766 21.857L49.5076 22.3811C49.9374 22.2914 50.3731 22.2337 50.8114 22.2085L50.7635 22.0104C50.7529 21.9695 50.7506 21.927 50.7566 21.8852C50.7626 21.8434 50.7768 21.8033 50.7984 21.767C50.82 21.7308 50.8486 21.6992 50.8825 21.674C50.9164 21.6489 50.955 21.6307 50.996 21.6206C51.0369 21.6105 51.0795 21.6086 51.1212 21.615C51.1629 21.6214 51.203 21.636 51.239 21.658C51.275 21.68 51.3063 21.7089 51.3311 21.743C51.3559 21.7772 51.3737 21.8159 51.3834 21.857C51.3884 21.8744 51.4733 22.2237 51.4761 22.2277C51.9359 22.1974 52.3977 22.234 52.847 22.3363L52.7671 22.0104C52.7475 21.9284 52.7611 21.8421 52.8049 21.7701C52.8487 21.6981 52.9191 21.6464 53.0009 21.6261C53.0827 21.6059 53.1692 21.6188 53.2415 21.6621C53.3138 21.7053 53.3661 21.7754 53.387 21.857L53.5468 22.4961C53.8644 22.6317 54.5716 22.6433 54.4416 23.1384C54.3064 23.4721 53.9704 23.3072 53.7257 23.2215L53.8024 23.5283C53.8209 23.6103 53.8065 23.6962 53.7623 23.7677C53.7181 23.8391 53.6476 23.8904 53.566 23.9105C53.4845 23.9305 53.3983 23.9178 53.3259 23.875C53.2536 23.8323 53.201 23.7628 53.1793 23.6817L53.0163 23.0234C52.5595 22.9201 52.0942 22.858 51.6263 22.838L51.7956 23.5283C51.8057 23.569 51.8077 23.6113 51.8015 23.6528C51.7952 23.6943 51.7808 23.7341 51.7592 23.77C51.7375 23.806 51.709 23.8373 51.6752 23.8622C51.6415 23.8871 51.6031 23.9051 51.5624 23.9152C51.5217 23.9252 51.4794 23.9272 51.4379 23.9209C51.3964 23.9146 51.3566 23.9002 51.3207 23.8785C51.2847 23.8569 51.2535 23.8283 51.2286 23.7945C51.2037 23.7607 51.1857 23.7224 51.1757 23.6817L50.968 22.8348C50.5284 22.8505 50.091 22.905 49.661 22.9978L49.792 23.5283C49.8118 23.6107 49.7982 23.6976 49.7541 23.7701C49.71 23.8425 49.6391 23.8945 49.5567 23.9148C49.4744 23.935 49.3874 23.9219 49.3147 23.8782C49.242 23.8345 49.1896 23.7639 49.1689 23.6817L49.0379 23.1544C48.8653 23.2023 48.696 23.2598 48.5266 23.3238C48.4476 23.3517 48.3608 23.3475 48.285 23.312C48.2091 23.2764 48.1503 23.2124 48.1213 23.1338C48.0923 23.0552 48.0955 22.9684 48.1301 22.8921C48.1646 22.8158 48.2279 22.7562 48.3061 22.7262C48.4978 22.6559 48.6928 22.592 48.8877 22.5376L48.7567 22.0104C48.6672 21.7168 49.0385 21.7349 49.2296 21.6557Z" fill="white"></path><path d="M48.744 17.2842L48.76 20.1218C49.4671 19.9149 50.1968 19.7947 50.933 19.7639C50.7813 18.9462 50.7096 18.1157 50.7189 17.2842H48.744Z" fill="white"></path><path d="M51.3579 17.2842C51.3482 18.1153 51.4242 18.9452 51.5848 19.7607C52.2816 19.7853 52.9732 19.8903 53.6459 20.0739C53.8568 20.1282 54.0677 20.1921 54.2722 20.2592C54.7899 19.3498 55.0824 18.3297 55.1254 17.2842C54.7508 17.2853 51.8076 17.2833 51.3579 17.2842Z" fill="white"></path><path d="M48.1048 17.2842H46.1267C46.1555 18.5304 45.7848 20.0643 45.0083 21.9465C45.9723 21.2729 47.0196 20.7273 48.1239 20.3231L48.1048 17.2842Z" fill="white"></path><path d="M51.623 22.8347C51.6222 22.836 51.6278 22.8423 51.6268 22.8347H51.623Z" fill="white"></path></svg>