<svg xmlns="http://www.w3.org/2000/svg" width="119" height="61" viewBox="0 0 119 61" fill="none"><path d="M118.857 0.458496C118.857 0.458496 115.912 20.4383 99.1864 28.7434V42.4373C99.1864 47.112 97.3808 51.3509 94.4252 54.5276C92.6781 56.4298 90.5052 57.9457 88.0618 58.9317C86.4874 59.5785 84.8076 59.994 83.0401 60.149C82.9728 60.168 82.8762 60.168 82.8089 60.168C82.645 60.1769 82.4709 60.1973 82.2968 60.1973C82.0071 60.2163 81.6983 60.2265 81.3984 60.2265H17.7981C16.0599 60.2265 14.3801 59.9749 12.7854 59.5111C12.2161 59.337 11.6558 59.1439 11.1056 58.9228C4.59725 56.2849 0 49.8922 0 42.4373V19.7242C0 9.89314 7.9772 1.91594 17.7981 1.91594H81.3984C89.8293 1.91594 96.8789 7.79781 98.7137 15.6772C103.958 14.2578 112.166 10.4815 118.857 0.458496Z" fill="#17BFA8"></path><path d="M25.2255 45.4275L22.3598 38.2631H23.8029L25.3995 42.3673C25.4814 42.5788 25.553 42.7699 25.6144 42.9404C25.6758 43.1042 25.7304 43.2577 25.7782 43.401C25.826 43.5375 25.8703 43.6705 25.9112 43.8002C25.9522 43.9298 25.9931 44.0663 26.0341 44.2095H25.7577C25.8055 44.0253 25.8567 43.8445 25.9112 43.6671C25.9658 43.4829 26.0272 43.2884 26.0955 43.0837C26.1705 42.8722 26.2592 42.6334 26.3616 42.3673L27.8559 38.2631H29.3092L26.4332 45.4275H25.2255ZM32.275 45.5298C31.7086 45.5298 31.2071 45.4138 30.7705 45.1819C30.3406 44.943 30.0028 44.6189 29.7572 44.2095C29.5184 43.7933 29.399 43.3157 29.399 42.7767C29.399 42.3536 29.4672 41.9681 29.6037 41.6201C29.7402 41.2722 29.9312 40.9719 30.1768 40.7195C30.4225 40.4602 30.7125 40.2623 31.0468 40.1259C31.388 39.9826 31.7564 39.9109 32.1522 39.9109C32.5138 39.9109 32.8447 39.9792 33.1449 40.1156C33.452 40.2521 33.7181 40.4397 33.9432 40.6785C34.1684 40.9105 34.339 41.1903 34.455 41.5178C34.5778 41.8385 34.6358 42.1899 34.629 42.572L34.6187 43.0223H30.2587L30.0131 42.1524H33.5646L33.411 42.3263V42.0909C33.3906 41.8862 33.3223 41.7054 33.2063 41.5485C33.0903 41.3847 32.9402 41.2585 32.756 41.1698C32.5786 41.0743 32.3807 41.0265 32.1624 41.0265C31.8281 41.0265 31.5449 41.0913 31.3129 41.221C31.0809 41.3438 30.9035 41.528 30.7807 41.7737C30.6647 42.0193 30.6067 42.3229 30.6067 42.6846C30.6067 43.0325 30.6783 43.3362 30.8216 43.5955C30.9717 43.8547 31.1833 44.056 31.4562 44.1993C31.7291 44.3426 32.0464 44.4142 32.408 44.4142C32.6605 44.4142 32.8925 44.3733 33.104 44.2914C33.3223 44.2095 33.5543 44.0628 33.8 43.8513L34.414 44.7111C34.2298 44.8816 34.0183 45.0283 33.7795 45.1512C33.5475 45.2671 33.3019 45.3593 33.0426 45.4275C32.7833 45.4957 32.5274 45.5298 32.275 45.5298ZM38.2475 47.7815C37.8518 47.7815 37.4526 47.7201 37.0501 47.5973C36.6543 47.4745 36.3336 47.3175 36.088 47.1265L36.5383 46.1849C36.743 46.3418 36.9921 46.4646 37.2855 46.5533C37.5857 46.6488 37.8859 46.6966 38.1861 46.6966C38.5478 46.6966 38.848 46.6386 39.0868 46.5226C39.3324 46.4066 39.5167 46.2326 39.6395 46.0006C39.7623 45.7755 39.8237 45.4957 39.8237 45.1614V44.1686L39.9977 44.2403C39.9636 44.4518 39.851 44.6531 39.6599 44.8441C39.4757 45.0352 39.2437 45.1887 38.964 45.3047C38.6842 45.4207 38.3977 45.4787 38.1043 45.4787C37.5993 45.4787 37.149 45.3627 36.7533 45.1307C36.3575 44.8919 36.0436 44.5644 35.8117 44.1481C35.5865 43.7319 35.4739 43.2543 35.4739 42.7153C35.4739 42.1762 35.5865 41.6986 35.8117 41.2824C36.0368 40.8594 36.3473 40.5284 36.743 40.2896C37.1388 40.044 37.5823 39.9212 38.0735 39.9212C38.2714 39.9212 38.4659 39.945 38.6569 39.9928C38.848 40.0406 39.0254 40.1088 39.1891 40.1975C39.3529 40.2862 39.4962 40.3851 39.619 40.4943C39.7486 40.6035 39.8544 40.7195 39.9363 40.8423C40.0182 40.9651 40.0693 41.0811 40.0898 41.1903L39.8339 41.2824L39.8544 40.0337H41.0723V45.059C41.0723 45.4957 41.0075 45.8812 40.8779 46.2156C40.7551 46.5499 40.5708 46.8331 40.3252 47.0651C40.0796 47.297 39.7828 47.4745 39.4348 47.5973C39.0868 47.7201 38.691 47.7815 38.2475 47.7815ZM38.2885 44.404C38.6023 44.404 38.8787 44.3324 39.1175 44.1891C39.3563 44.0458 39.5405 43.8479 39.6702 43.5955C39.7998 43.343 39.8646 43.053 39.8646 42.7255C39.8646 42.3912 39.7964 42.0978 39.6599 41.8453C39.5303 41.586 39.3461 41.3847 39.1073 41.2415C38.8753 41.0982 38.6023 41.0265 38.2885 41.0265C37.9883 41.0265 37.7187 41.1016 37.4799 41.2517C37.2479 41.395 37.0637 41.5963 36.9273 41.8555C36.7976 42.108 36.7328 42.398 36.7328 42.7255C36.7328 43.053 36.7976 43.343 36.9273 43.5955C37.0637 43.8479 37.2479 44.0458 37.4799 44.1891C37.7187 44.3324 37.9883 44.404 38.2885 44.404ZM45.1944 45.5298C44.6281 45.5298 44.1266 45.4138 43.6899 45.1819C43.26 44.943 42.9223 44.6189 42.6767 44.2095C42.4378 43.7933 42.3184 43.3157 42.3184 42.7767C42.3184 42.3536 42.3867 41.9681 42.5231 41.6201C42.6596 41.2722 42.8506 40.9719 43.0963 40.7195C43.3419 40.4602 43.6319 40.2623 43.9662 40.1259C44.3074 39.9826 44.6759 39.9109 45.0716 39.9109C45.4332 39.9109 45.7642 39.9792 46.0644 40.1156C46.3714 40.2521 46.6375 40.4397 46.8627 40.6785C47.0879 40.9105 47.2584 41.1903 47.3744 41.5178C47.4972 41.8385 47.5552 42.1899 47.5484 42.572L47.5382 43.0223H43.1782L42.9325 42.1524H46.484L46.3305 42.3263V42.0909C46.31 41.8862 46.2418 41.7054 46.1258 41.5485C46.0098 41.3847 45.8597 41.2585 45.6755 41.1698C45.498 41.0743 45.3002 41.0265 45.0818 41.0265C44.7475 41.0265 44.4643 41.0913 44.2323 41.221C44.0004 41.3438 43.823 41.528 43.7001 41.7737C43.5841 42.0193 43.5261 42.3229 43.5261 42.6846C43.5261 43.0325 43.5978 43.3362 43.7411 43.5955C43.8912 43.8547 44.1027 44.056 44.3756 44.1993C44.6486 44.3426 44.9658 44.4142 45.3275 44.4142C45.5799 44.4142 45.8119 44.3733 46.0234 44.2914C46.2418 44.2095 46.4738 44.0628 46.7194 43.8513L47.3335 44.7111C47.1493 44.8816 46.9377 45.0283 46.6989 45.1512C46.4669 45.2671 46.2213 45.3593 45.962 45.4275C45.7027 45.4957 45.4469 45.5298 45.1944 45.5298ZM49.3849 45.4275V38.6623H50.6336V45.4275H49.3849ZM48.3205 41.2005V40.0337H51.8106V41.2005H48.3205ZM55.9279 45.4275V41.9784C55.9279 41.685 55.829 41.4564 55.6311 41.2926C55.4401 41.122 55.191 41.0368 54.884 41.0368C54.5974 41.0368 54.3381 41.0948 54.1061 41.2107C53.8741 41.3199 53.6592 41.4973 53.4613 41.743L52.6835 40.9651C53.0042 40.624 53.359 40.3647 53.7479 40.1873C54.1368 40.0099 54.5565 39.9212 55.0068 39.9212C55.4367 39.9212 55.8051 39.9894 56.1122 40.1259C56.426 40.2623 56.6682 40.467 56.8388 40.7399C57.0094 41.0061 57.0947 41.3336 57.0947 41.7225V45.4275H55.9279ZM54.3927 45.5298C54.0447 45.5298 53.7343 45.4616 53.4613 45.3251C53.1884 45.1887 52.9701 45.001 52.8063 44.7622C52.6494 44.5166 52.5709 44.23 52.5709 43.9025C52.5709 43.6159 52.6221 43.3669 52.7244 43.1554C52.8268 42.937 52.9769 42.7562 53.1748 42.6129C53.3795 42.4696 53.6319 42.3639 53.9321 42.2956C54.2392 42.2206 54.5906 42.1831 54.9863 42.1831H56.5318L56.4397 43.0837H54.9147C54.7305 43.0837 54.5667 43.1008 54.4234 43.1349C54.2801 43.169 54.1573 43.2202 54.055 43.2884C53.9526 43.3566 53.8776 43.4385 53.8298 43.5341C53.782 43.6228 53.7581 43.7319 53.7581 43.8616C53.7581 43.998 53.7923 44.1174 53.8605 44.2198C53.9287 44.3153 54.0208 44.3904 54.1368 44.4449C54.2528 44.4995 54.3893 44.5268 54.5462 44.5268C54.7714 44.5268 54.9829 44.4893 55.1808 44.4142C55.3855 44.3392 55.5663 44.2334 55.7232 44.097C55.8802 43.9605 56.003 43.807 56.0917 43.6364L56.3476 44.3324C56.2043 44.5712 56.0269 44.7793 55.8153 44.9567C55.6106 45.1341 55.3855 45.274 55.1398 45.3763C54.901 45.4787 54.652 45.5298 54.3927 45.5298ZM61.5204 45.5298C61.2816 45.5298 61.0496 45.4957 60.8245 45.4275C60.5993 45.3524 60.3912 45.2535 60.2002 45.1307C60.0159 45.0079 59.8624 44.8714 59.7396 44.7213C59.6168 44.5644 59.5349 44.4074 59.494 44.2505L59.7908 44.1174L59.7601 45.3968H58.5524V37.8537H59.801V41.2722L59.5861 41.18C59.6202 41.0163 59.6952 40.8628 59.8112 40.7195C59.9272 40.5694 60.0739 40.4363 60.2513 40.3203C60.4287 40.1975 60.6232 40.102 60.8347 40.0337C61.0462 39.9587 61.2646 39.9212 61.4897 39.9212C61.9674 39.9212 62.3904 40.044 62.7589 40.2896C63.1341 40.5284 63.4275 40.8594 63.6391 41.2824C63.8574 41.6986 63.9666 42.1796 63.9666 42.7255C63.9666 43.2645 63.8608 43.7456 63.6493 44.1686C63.4378 44.5916 63.1444 44.926 62.7691 45.1716C62.4006 45.4104 61.9844 45.5298 61.5204 45.5298ZM61.2646 44.4245C61.5512 44.4245 61.807 44.3528 62.0322 44.2095C62.2574 44.0594 62.4348 43.8582 62.5644 43.6057C62.694 43.3464 62.7589 43.053 62.7589 42.7255C62.7589 42.3912 62.694 42.0978 62.5644 41.8453C62.4416 41.586 62.2676 41.3847 62.0424 41.2415C61.8173 41.0982 61.558 41.0265 61.2646 41.0265C60.9644 41.0265 60.7017 41.0982 60.4765 41.2415C60.2513 41.3847 60.0739 41.586 59.9443 41.8453C59.8146 42.0978 59.7498 42.3912 59.7498 42.7255C59.7498 43.053 59.8146 43.3464 59.9443 43.6057C60.0739 43.8582 60.2513 44.0594 60.4765 44.2095C60.7017 44.3528 60.9644 44.4245 61.2646 44.4245ZM65.2272 45.4275V37.8537H66.4759V45.4275H65.2272ZM70.5216 45.5298C69.9552 45.5298 69.4537 45.4138 69.017 45.1819C68.5872 44.943 68.2494 44.6189 68.0038 44.2095C67.765 43.7933 67.6456 43.3157 67.6456 42.7767C67.6456 42.3536 67.7138 41.9681 67.8503 41.6201C67.9867 41.2722 68.1778 40.9719 68.4234 40.7195C68.6691 40.4602 68.959 40.2623 69.2934 40.1259C69.6345 39.9826 70.003 39.9109 70.3987 39.9109C70.7604 39.9109 71.0913 39.9792 71.3915 40.1156C71.6986 40.2521 71.9647 40.4397 72.1898 40.6785C72.415 40.9105 72.5856 41.1903 72.7016 41.5178C72.8244 41.8385 72.8824 42.1899 72.8756 42.572L72.8653 43.0223H68.5053L68.2597 42.1524H71.8111L71.6576 42.3263V42.0909C71.6372 41.8862 71.5689 41.7054 71.4529 41.5485C71.3369 41.3847 71.1868 41.2585 71.0026 41.1698C70.8252 41.0743 70.6273 41.0265 70.409 41.0265C70.0746 41.0265 69.7915 41.0913 69.5595 41.221C69.3275 41.3438 69.1501 41.528 69.0273 41.7737C68.9113 42.0193 68.8533 42.3229 68.8533 42.6846C68.8533 43.0325 68.9249 43.3362 69.0682 43.5955C69.2183 43.8547 69.4299 44.056 69.7028 44.1993C69.9757 44.3426 70.293 44.4142 70.6546 44.4142C70.9071 44.4142 71.1391 44.3733 71.3506 44.2914C71.5689 44.2095 71.8009 44.0628 72.0465 43.8513L72.6606 44.7111C72.4764 44.8816 72.2649 45.0283 72.0261 45.1512C71.7941 45.2671 71.5485 45.3593 71.2892 45.4275C71.0299 45.4957 70.774 45.5298 70.5216 45.5298ZM75.9198 45.5298C75.449 45.5298 75.0225 45.4514 74.6404 45.2944C74.2652 45.1307 73.9581 44.8987 73.7193 44.5985L74.5278 43.9025C74.7325 44.1277 74.9611 44.2948 75.2136 44.404C75.466 44.5064 75.7321 44.5575 76.0119 44.5575C76.1279 44.5575 76.2302 44.5439 76.3189 44.5166C76.4145 44.4893 76.4963 44.4484 76.5646 44.3938C76.6328 44.3392 76.684 44.2744 76.7181 44.1993C76.759 44.1243 76.7795 44.0424 76.7795 43.9537C76.7795 43.7899 76.7181 43.6603 76.5953 43.5648C76.527 43.5238 76.4213 43.4761 76.278 43.4215C76.1347 43.3601 75.9471 43.3021 75.7151 43.2475C75.3466 43.152 75.0362 43.0428 74.7837 42.92C74.5381 42.7903 74.347 42.647 74.2106 42.4901C74.0946 42.3536 74.0093 42.2069 73.9547 42.05C73.9001 41.8862 73.8728 41.7054 73.8728 41.5076C73.8728 41.2005 73.9615 40.9276 74.1389 40.6888C74.3232 40.45 74.5654 40.2623 74.8656 40.1259C75.1658 39.9894 75.5002 39.9212 75.8686 39.9212C76.1415 39.9212 76.4042 39.9553 76.6567 40.0235C76.916 40.0917 77.1548 40.1907 77.3731 40.3203C77.5915 40.4431 77.7791 40.5932 77.936 40.7707L77.2401 41.5383C77.1173 41.4154 76.9774 41.3063 76.8204 41.2107C76.6703 41.1084 76.5168 41.0299 76.3599 40.9753C76.2029 40.9208 76.0562 40.8935 75.9198 40.8935C75.7901 40.8935 75.6741 40.9071 75.5718 40.9344C75.4695 40.9549 75.3842 40.989 75.3159 41.0368C75.2477 41.0845 75.1931 41.1459 75.1522 41.221C75.1181 41.2892 75.101 41.3677 75.101 41.4564C75.1078 41.5451 75.1283 41.627 75.1624 41.702C75.2033 41.7703 75.2579 41.8283 75.3262 41.876C75.3944 41.9238 75.5036 41.9784 75.6537 42.0398C75.8038 42.1012 75.9982 42.1592 76.2371 42.2138C76.5714 42.3025 76.8511 42.4014 77.0763 42.5106C77.3015 42.6197 77.4789 42.746 77.6085 42.8893C77.7382 43.0121 77.8303 43.1554 77.8849 43.3191C77.9395 43.4829 77.9667 43.6671 77.9667 43.8718C77.9667 44.1925 77.8746 44.4791 77.6904 44.7315C77.513 44.9772 77.2708 45.1716 76.9637 45.3149C76.6567 45.4582 76.3087 45.5298 75.9198 45.5298Z" fill="white"></path><g clip-path="url(#clip0_6201_418)"><path d="M45.4262 27.0313C44.7865 26.2339 44.4368 25.1464 44.4368 23.9652C44.4368 22.3958 45.0125 21.1933 45.8186 20.4725C45.6949 20.3062 45.5755 20.1484 45.4561 20.0077C45.0766 20.3019 44.5222 20.3403 44.0403 20.0077C43.7929 19.8328 43.4944 19.9992 43.0296 19.9607C42.9315 20.1314 42.8974 20.7028 42.9742 21.0354C43.1916 21.9523 41.8441 22.0546 41.4091 21.0524C40.6799 19.4063 39.8952 21.2998 39.7971 21.3424C39.2854 30.1785 44.3089 28.6518 44.3089 28.6518C45.1618 28.4471 45.7887 28.1357 46.2493 27.7818C45.9465 27.5857 45.6693 27.3341 45.4262 27.0313Z" fill="white"></path><path d="M40.7271 19.904C41.0242 19.807 41.3807 20.2207 41.5695 20.4695C41.6645 20.5947 41.7332 20.7356 41.7968 20.8792C41.9945 21.3255 42.6506 21.5279 42.5596 21.1323C42.4598 20.6991 42.4471 19.4707 43.0254 19.531C43.5032 19.5809 43.8604 19.3685 44.2786 19.6539C44.4199 19.7503 44.5819 19.8187 44.7528 19.8174C45.2744 19.8139 45.4125 19.365 45.4125 19.365C44.8929 19.4763 43.7547 18.0783 43.7547 18.0783C43.309 17.3152 42.1092 17.5339 42.1092 17.5339C41.8489 16.2418 40.6415 15.2728 40.1215 14.9082C39.9911 14.8168 39.8114 14.848 39.7179 14.9769L39.7134 14.9831C39.6145 15.1196 39.6578 15.3079 39.8018 15.3956C41.2756 16.2926 41.0329 17.8927 41.0329 17.8927C39.5359 18.7711 39.755 20.9364 39.755 20.9364C39.7644 20.2936 40.4188 20.0046 40.7271 19.904Z" fill="white"></path><path d="M59.9341 14.6045C59.7764 14.37 59.5503 14.1909 59.3243 14.016C59.1537 13.8795 58.9064 13.6365 58.7017 13.564C58.6079 13.4744 58.5141 13.3849 58.4032 13.3081C58.0876 13.0949 57.7166 12.9627 57.3413 12.9243C57.1281 12.903 56.9106 12.9115 56.7017 12.9542C55.9468 13.1077 55.2944 13.6748 55.0385 14.3999C55.0001 14.5149 54.9447 14.6557 54.821 14.677C54.7016 14.6941 54.6035 14.5832 54.4884 14.5534C54.3434 14.5192 54.1899 14.6258 54.1259 14.7581C54.0577 14.8946 54.0534 15.048 54.0534 15.1973C54.0406 15.9607 54.0321 16.724 54.0235 17.4831C53.8274 17.9906 53.5587 18.6814 53.4265 19.0268V19.0311C53.5033 19.0311 53.5758 19.0354 53.6483 19.0439C53.7591 18.7027 53.9383 18.1953 54.1259 17.7006C54.1259 17.7006 54.1259 17.7006 54.1259 17.6963C54.2666 17.6793 54.3903 17.5513 54.4841 17.4319C55.111 16.6259 55.8061 15.8199 56.7358 15.3935C56.9831 15.2783 57.2475 15.193 57.5076 15.1121C57.9512 14.967 58.3947 14.822 58.8339 14.6814C58.8765 14.6686 58.9149 14.6515 58.9576 14.6344C59.0386 14.8903 59.1367 15.1419 59.2774 15.3764C59.3329 15.466 59.3926 15.5598 59.4821 15.6281C59.5674 15.6963 59.6783 15.7347 59.7849 15.7176C59.9341 15.692 60.045 15.5556 60.0962 15.4106C60.1815 15.1376 60.0962 14.8391 59.9341 14.6045Z" fill="white"></path><path d="M46.2707 15.7176C46.4967 15.756 46.6631 15.5726 46.7825 15.3764C46.9189 15.1419 47.0213 14.8946 47.1023 14.6387C47.2771 14.7069 47.6396 14.8135 48.548 15.1121C48.8081 15.193 49.0725 15.2783 49.3198 15.3935C50.2495 15.8199 50.9446 16.6259 51.5715 17.4319C51.6653 17.5513 51.789 17.6793 51.9254 17.6963C51.9254 17.7006 51.9254 17.7006 51.9297 17.7006C52.1941 18.4171 52.3135 18.7496 52.4329 19.1207C52.5012 19.1036 52.5737 19.0908 52.6461 19.078C52.6419 19.0567 52.6334 19.0396 52.6291 19.0268C52.4969 18.6814 52.2282 17.9863 52.0321 17.4788C52.0235 16.7198 52.015 15.9607 52.0023 15.1973C52.0023 15.048 51.998 14.8945 51.934 14.7581C51.8658 14.6258 51.7123 14.5192 51.5673 14.5534C51.4521 14.5833 51.354 14.6941 51.2346 14.677C51.111 14.6557 51.0598 14.5149 51.0172 14.3999C50.7613 13.6748 50.1089 13.1077 49.354 12.9542C49.1451 12.9115 48.9276 12.903 48.7144 12.9243C48.3391 12.9627 47.9681 13.0949 47.6525 13.3081C47.5416 13.3849 47.4478 13.4744 47.354 13.564C47.1493 13.6365 46.902 13.8795 46.7314 14.016C46.5054 14.1909 46.2793 14.37 46.1215 14.6045C45.7461 15.1504 45.9722 15.6707 46.2707 15.7176Z" fill="white"></path><path d="M52.791 17.1674C52.7356 17.9094 52.727 18.6173 52.7356 19.0651C52.8379 19.0524 52.9403 19.0395 53.0469 19.0353C52.9957 18.4297 52.9829 17.7346 52.9829 17.1801C52.9872 16.822 53.017 16.2719 53.0511 15.7388C53.1663 15.6834 53.243 15.5341 53.2942 15.4019C53.6311 14.4808 54.0277 13.5511 54.7356 12.9199C54.9233 12.7494 55.1322 12.6086 55.3369 12.4637C55.6909 12.2206 56.0406 11.9732 56.3902 11.7302C56.4755 11.6705 56.5608 11.6108 56.6077 11.5169C56.6888 11.3591 56.6205 11.1459 56.4969 11.0094C56.3945 10.8985 55.6951 10.5617 55.6482 10.5403C54.3049 10.0414 53.0383 11.035 52.9786 12.3996C52.9488 13.1331 52.3816 12.293 52.2707 12.9626C52.2409 13.1588 52.2537 13.1417 52.9232 15.6322C52.8635 16.1397 52.8209 16.6556 52.791 17.1674Z" fill="white"></path><path d="M53.2773 19.4534C52.5907 19.4534 51.951 19.6538 51.4094 19.9992C52.4841 20.5664 53.2773 21.8458 53.4393 23.3809C53.9805 23.2078 54.3648 23.4402 54.7528 23.7861C55.3812 24.3246 55.3005 24.0119 56.8168 23.317C57.0378 21.5507 55.5103 19.4534 53.2773 19.4534Z" fill="white"></path><path d="M54.9404 24.426C54.4348 24.2447 54.1574 23.5163 53.4649 23.829C53.4691 23.8759 53.4691 23.9186 53.4691 23.9655C53.4691 25.1425 53.1024 26.2086 52.5054 26.9848C52.5395 27.0445 52.5651 27.1042 52.5864 27.1682C52.9276 28.2343 53.5587 28.6863 54.0406 28.8782C54.16 28.9251 54.2496 28.7674 54.1472 28.6906C53.1408 27.9102 53.4777 26.8484 54.2922 26.601C55.5502 26.213 56.5097 25.1341 56.7613 23.7949C56.2113 24.0038 55.5971 24.6691 54.9404 24.426Z" fill="white"></path><path d="M50.1615 20.1045C49.7297 20.1045 49.4411 20.2524 49.0641 20.2833C49.1965 19.844 49.5019 19.4898 50.0947 19.2113C50.3002 19.1157 50.5367 19.0323 50.7355 18.9956L50.5231 18.3218C50.2462 18.448 50.0308 18.5927 49.811 18.7638C49.1917 19.2584 48.9432 19.7615 48.9217 20.2901C48.7613 20.2892 48.5828 20.2652 48.3695 20.1985C46.6908 19.6898 44.865 21.3243 44.865 23.9635C44.865 26.6149 46.7069 28.2324 48.3695 27.7285C49.201 27.4687 49.4537 27.8226 50.1615 27.8226C51.7511 27.8226 53.0409 26.0934 53.0409 23.9635C53.0409 21.8337 51.7511 20.1045 50.1615 20.1045Z" fill="white"></path></g><defs><clipPath id="clip0_6201_418"><rect width="21.3225" height="21.3225" fill="white" transform="translate(39.2334 8.98755)"></rect></clipPath></defs></svg>