<svg xmlns="http://www.w3.org/2000/svg" width="96" height="73" viewBox="0 0 96 73" fill="none"><path d="M0.416504 16.9226V38.528C0.416504 47.8756 8.03521 55.4505 17.4343 55.4505H24.4656C23.1859 67.5961 14.1279 72.3538 13.5588 72.6464C18.666 71.5905 22.9111 69.8292 26.4079 67.7844C28.7574 66.4177 30.767 64.9104 32.463 63.4122C35.864 60.4158 38.0435 57.4296 39.2753 55.4505H78.2664C87.6655 55.4505 95.2842 47.8745 95.2842 38.528V16.9226C95.2842 7.57608 87.6655 0 78.2664 0H17.4343C8.03521 0 0.416504 7.57608 0.416504 16.9226Z" fill="#00C0FF"></path><path d="M25.5833 45.332L22.233 36.9563H23.7048L25.703 42.0416C25.7987 42.2889 25.8825 42.5122 25.9542 42.7116C26.034 42.9111 26.1018 43.0945 26.1577 43.262C26.2135 43.4216 26.2653 43.5731 26.3132 43.7167C26.3611 43.8603 26.4089 44.0039 26.4568 44.1475L26.1457 44.1594C26.2015 43.968 26.2614 43.7686 26.3252 43.5612C26.389 43.3538 26.4608 43.1264 26.5405 42.8791C26.6283 42.6319 26.732 42.3527 26.8516 42.0416L28.7063 36.9563H30.2139L26.8397 45.332H25.5833ZM31.8034 45.332V39.0503H33.0358V45.332H31.8034ZM32.4017 37.6623C32.1384 37.6623 31.935 37.5945 31.7914 37.4589C31.6479 37.3233 31.5761 37.1318 31.5761 36.8845C31.5761 36.6532 31.6479 36.4657 31.7914 36.3222C31.943 36.1786 32.1464 36.1068 32.4017 36.1068C32.6649 36.1068 32.8683 36.1746 33.0119 36.3102C33.1555 36.4458 33.2273 36.6372 33.2273 36.8845C33.2273 37.1159 33.1515 37.3033 32.9999 37.4469C32.8564 37.5905 32.6569 37.6623 32.4017 37.6623ZM35.9472 45.332V37.4469H37.1797V45.332H35.9472ZM34.643 40.2468V39.0503H38.6394V40.2468H34.643ZM43.6637 45.332V41.2399C43.6637 40.8889 43.5361 40.6057 43.2808 40.3904C43.0336 40.167 42.7185 40.0553 42.3356 40.0553C41.9846 40.0553 41.6655 40.1271 41.3784 40.2707C41.0992 40.4143 40.8439 40.6337 40.6126 40.9288L39.8109 40.1271C40.1858 39.7203 40.5886 39.4172 41.0194 39.2178C41.4581 39.0183 41.9288 38.9186 42.4313 38.9186C42.9099 38.9186 43.3247 38.9984 43.6757 39.1579C44.0267 39.3175 44.2979 39.5528 44.4893 39.8639C44.6808 40.167 44.7765 40.5379 44.7765 40.9767V45.332H43.6637ZM41.7852 45.4517C41.3784 45.4517 41.0154 45.3719 40.6963 45.2124C40.3773 45.0528 40.122 44.8335 39.9306 44.5543C39.7471 44.2671 39.6554 43.9321 39.6554 43.5492C39.6554 43.2142 39.7152 42.919 39.8348 42.6638C39.9545 42.4085 40.13 42.1971 40.3613 42.0296C40.6006 41.8621 40.8958 41.7345 41.2467 41.6467C41.6057 41.559 42.0165 41.5151 42.4792 41.5151H44.2261L44.1184 42.4963H42.3236C42.0843 42.4963 41.8689 42.5202 41.6775 42.568C41.494 42.6079 41.3345 42.6757 41.1989 42.7715C41.0712 42.8592 40.9755 42.9669 40.9117 43.0945C40.8479 43.2142 40.816 43.3578 40.816 43.5253C40.816 43.7008 40.8599 43.8563 40.9476 43.9919C41.0354 44.1195 41.155 44.2193 41.3066 44.2911C41.4581 44.3628 41.6336 44.3987 41.833 44.3987C42.1202 44.3987 42.3914 44.3509 42.6467 44.2552C42.9099 44.1515 43.1412 44.0119 43.3407 43.8364C43.5481 43.6609 43.7076 43.4654 43.8193 43.2501L44.1064 44.0517C43.9389 44.3309 43.7315 44.5742 43.4842 44.7816C43.237 44.989 42.9697 45.1526 42.6826 45.2722C42.3954 45.3919 42.0963 45.4517 41.7852 45.4517ZM46.5495 45.332V39.0503H47.7939V40.3904L47.5666 40.5339C47.6304 40.3265 47.7301 40.1271 47.8657 39.9357C48.0093 39.7442 48.1808 39.5767 48.3802 39.4331C48.5876 39.2816 48.807 39.1619 49.0383 39.0742C49.2776 38.9864 49.5209 38.9426 49.7682 38.9426C50.1271 38.9426 50.4422 39.0024 50.7134 39.122C50.9847 39.2417 51.208 39.4212 51.3835 39.6605C51.559 39.8998 51.6866 40.1989 51.7664 40.5579L51.5749 40.51L51.6587 40.3066C51.7464 40.1231 51.8661 39.9516 52.0177 39.7921C52.1772 39.6246 52.3567 39.477 52.5561 39.3494C52.7555 39.2218 52.9669 39.122 53.1903 39.0503C53.4136 38.9785 53.633 38.9426 53.8483 38.9426C54.319 38.9426 54.7059 39.0383 55.009 39.2297C55.3201 39.4212 55.5514 39.7123 55.703 40.1032C55.8625 40.4941 55.9423 40.9807 55.9423 41.563V45.332H54.6979V41.6348C54.6979 41.1003 54.5942 40.7094 54.3868 40.4622C54.1874 40.2069 53.8723 40.0793 53.4415 40.0793C53.2182 40.0793 53.0068 40.1192 52.8074 40.1989C52.6159 40.2707 52.4484 40.3744 52.3048 40.51C52.1612 40.6456 52.0496 40.8052 51.9698 40.9886C51.89 41.1641 51.8501 41.3596 51.8501 41.5749V45.332H50.6058V41.6108C50.6058 41.1163 50.4981 40.7374 50.2827 40.4741C50.0753 40.2109 49.7722 40.0793 49.3733 40.0793C49.15 40.0793 48.9426 40.1192 48.7511 40.1989C48.5597 40.2707 48.3922 40.3744 48.2486 40.51C48.105 40.6376 47.9933 40.7932 47.9136 40.9767C47.8338 41.1522 47.7939 41.3436 47.7939 41.551V45.332H46.5495ZM58.035 45.332V39.0503H59.2674V45.332H58.035ZM58.6332 37.6623C58.37 37.6623 58.1666 37.5945 58.023 37.4589C57.8794 37.3233 57.8076 37.1318 57.8076 36.8845C57.8076 36.6532 57.8794 36.4657 58.023 36.3222C58.1746 36.1786 58.378 36.1068 58.6332 36.1068C58.8965 36.1068 59.0999 36.1746 59.2435 36.3102C59.3871 36.4458 59.4589 36.6372 59.4589 36.8845C59.4589 37.1159 59.3831 37.3033 59.2315 37.4469C59.0879 37.5905 58.8885 37.6623 58.6332 37.6623ZM61.4011 45.332V39.0503H62.6335V40.3425L62.4181 40.4861C62.4979 40.2069 62.6534 39.9516 62.8848 39.7203C63.1161 39.481 63.3913 39.2896 63.7104 39.146C64.0294 38.9944 64.3565 38.9186 64.6915 38.9186C65.1701 38.9186 65.569 39.0144 65.8881 39.2058C66.2071 39.3893 66.4464 39.6724 66.606 40.0553C66.7655 40.4382 66.8453 40.9208 66.8453 41.5031V45.332H65.6129V41.5869C65.6129 41.2279 65.565 40.9328 65.4693 40.7015C65.3735 40.4622 65.226 40.2907 65.0266 40.187C64.8271 40.0753 64.5798 40.0274 64.2847 40.0434C64.0454 40.0434 63.826 40.0833 63.6266 40.163C63.4272 40.2348 63.2517 40.3385 63.1001 40.4741C62.9566 40.6097 62.8409 40.7693 62.7531 40.9527C62.6734 41.1282 62.6335 41.3197 62.6335 41.5271V45.332H62.0233C61.9196 45.332 61.8159 45.332 61.7122 45.332C61.6085 45.332 61.5048 45.332 61.4011 45.332ZM70.8504 45.4517C70.3239 45.4517 69.8493 45.36 69.4265 45.1765C69.0037 44.993 68.6528 44.7218 68.3736 44.3628L69.2111 43.6449C69.4504 43.9241 69.7097 44.1275 69.9889 44.2552C70.276 44.3748 70.5991 44.4346 70.9581 44.4346C71.1017 44.4346 71.2333 44.4187 71.3529 44.3868C71.4806 44.3469 71.5882 44.2911 71.676 44.2193C71.7717 44.1475 71.8435 44.0637 71.8914 43.968C71.9392 43.8643 71.9632 43.7526 71.9632 43.633C71.9632 43.4256 71.8874 43.258 71.7358 43.1304C71.656 43.0746 71.5284 43.0148 71.3529 42.9509C71.1854 42.8791 70.966 42.8074 70.6948 42.7356C70.2322 42.6159 69.8533 42.4803 69.5581 42.3287C69.263 42.1772 69.0356 42.0057 68.8761 41.8142C68.7565 41.6627 68.6687 41.4991 68.6129 41.3237C68.557 41.1402 68.5291 40.9408 68.5291 40.7254C68.5291 40.3744 68.6288 40.0633 68.8282 39.7921C69.0277 39.5209 69.2949 39.3095 69.6299 39.1579C69.9729 38.9984 70.3558 38.9186 70.7786 38.9186C71.0737 38.9186 71.3649 38.9585 71.6521 39.0383C71.9472 39.1181 72.2184 39.2337 72.4657 39.3853C72.713 39.5368 72.9204 39.7163 73.0879 39.9237L72.3819 40.7015C72.2304 40.5499 72.0629 40.4183 71.8794 40.3066C71.7039 40.187 71.5244 40.0952 71.341 40.0314C71.1575 39.9676 70.99 39.9357 70.8384 39.9357C70.6709 39.9357 70.5193 39.9516 70.3837 39.9835C70.2481 40.0155 70.1325 40.0633 70.0367 40.1271C69.949 40.1909 69.8812 40.2707 69.8333 40.3664C69.7855 40.4622 69.7615 40.5698 69.7615 40.6895C69.7695 40.7932 69.7934 40.8929 69.8333 40.9886C69.8812 41.0764 69.945 41.1522 70.0248 41.216C70.1125 41.2798 70.2441 41.3476 70.4196 41.4194C70.5951 41.4912 70.8185 41.559 71.0897 41.6228C71.4885 41.7265 71.8156 41.8422 72.0708 41.9698C72.3341 42.0894 72.5415 42.229 72.693 42.3886C72.8526 42.5401 72.9642 42.7156 73.0281 42.915C73.0919 43.1145 73.1238 43.3378 73.1238 43.5851C73.1238 43.9441 73.0201 44.2671 72.8127 44.5543C72.6133 44.8335 72.3421 45.0528 71.999 45.2124C71.656 45.3719 71.2732 45.4517 70.8504 45.4517Z" fill="white"></path><path d="M54.0467 11.1107V11.9653C54.0467 12.7858 53.3715 13.461 52.551 13.461H44.0044C43.1839 13.461 42.5087 12.7858 42.5087 11.9653V11.1107C42.5087 10.2902 43.1839 9.61499 44.0044 9.61499H52.551C53.3715 9.61499 54.0467 10.2902 54.0467 11.1107ZM54.9013 18.2984V24.7853C54.9013 26.5544 53.4655 27.9903 51.6964 27.9903H44.859C43.0899 27.9903 41.6541 26.5544 41.6541 24.7853V18.2984C41.6541 17.3497 42.0216 16.4523 42.6967 15.7857C42.9873 15.4951 43.1839 15.1361 43.2865 14.743H53.2775C53.38 15.1361 53.5681 15.4951 53.8672 15.7857C54.5424 16.4608 54.9099 17.3497 54.9099 18.2984H54.9013ZM50.628 20.512C50.628 20.1615 50.3374 19.871 49.987 19.871H48.9187V18.8026C48.9187 18.4522 48.6281 18.1616 48.2777 18.1616C47.9273 18.1616 47.6367 18.4522 47.6367 18.8026V19.871H46.5684C46.218 19.871 45.9274 20.1615 45.9274 20.512C45.9274 20.8624 46.218 21.153 46.5684 21.153H47.6367V22.2213C47.6367 22.5717 47.9273 22.8623 48.2777 22.8623C48.6281 22.8623 48.9187 22.5717 48.9187 22.2213V21.153H49.987C50.3374 21.153 50.628 20.8624 50.628 20.512Z" fill="white"></path></svg>