<svg xmlns="http://www.w3.org/2000/svg" width="100" height="84" viewBox="0 0 100 84" fill="none"><path d="M99.42 18.6218V41.3869C99.42 49.0877 94.5331 55.6566 87.6879 58.1433C85.7844 58.8309 83.7319 59.2116 81.5953 59.2116H39.8531C39.7156 59.6343 39.5781 60.0469 39.4304 60.4493C38.3405 63.4962 36.987 66.2032 35.4947 68.6047C34.9026 69.5673 34.2889 70.4777 33.6548 71.3346C27.487 79.7968 20.1044 83.6052 19.7861 83.7644C22.9808 78.4217 25.0639 73.2916 26.3754 68.6059C27.338 65.2101 27.888 62.0472 28.1949 59.2129H17.8596C14.898 59.2129 12.1057 58.4935 9.65077 57.2138C3.93754 54.2407 0.0349121 48.2754 0.0349121 41.3882V18.6231C0.0349121 8.7742 8.02224 0.79834 17.8596 0.79834H81.594C91.4429 0.79834 99.4187 8.7742 99.4187 18.6231L99.42 18.6218Z" fill="#E0A501"></path><path d="M20.7084 46.1304V44.9338H22.0605V38.9512H20.7084V37.7547H24.7048V38.9512H23.3527V44.9338H24.7048V46.1304H20.7084ZM26.6616 46.1304V39.8486H27.894V41.1408L27.6786 41.2844C27.7584 41.0052 27.914 40.75 28.1453 40.5186C28.3766 40.2793 28.6518 40.0879 28.9709 39.9443C29.29 39.7928 29.617 39.717 29.9521 39.717C30.4307 39.717 30.8295 39.8127 31.1486 40.0041C31.4677 40.1876 31.707 40.4708 31.8665 40.8537C32.026 41.2366 32.1058 41.7192 32.1058 42.3015V46.1304H30.8734V42.3852C30.8734 42.0263 30.8255 41.7311 30.7298 41.4998C30.6341 41.2605 30.4865 41.089 30.2871 40.9853C30.0877 40.8736 29.8404 40.8258 29.5452 40.8417C29.3059 40.8417 29.0866 40.8816 28.8871 40.9614C28.6877 41.0332 28.5122 41.1369 28.3607 41.2725C28.2171 41.4081 28.1014 41.5676 28.0137 41.7511C27.9339 41.9266 27.894 42.118 27.894 42.3254V46.1304H27.2838C27.1801 46.1304 27.0764 46.1304 26.9727 46.1304C26.869 46.1304 26.7653 46.1304 26.6616 46.1304ZM33.2632 48.4875L32.7965 47.5423C33.2592 47.5423 33.6062 47.4226 33.8375 47.1833C34.0688 46.944 34.1845 46.589 34.1845 46.1184V39.8486H35.4169V46.4175C35.4169 46.8244 35.3252 47.1833 35.1417 47.4944C34.9662 47.8055 34.715 48.0488 34.3879 48.2243C34.0688 48.3998 33.6939 48.4875 33.2632 48.4875ZM34.8306 38.4606C34.5674 38.4606 34.364 38.3928 34.2204 38.2572C34.0768 38.1216 34.005 37.9302 34.005 37.6829C34.005 37.4515 34.0768 37.2641 34.2204 37.1205C34.372 36.9769 34.5754 36.9051 34.8306 36.9051C35.0939 36.9051 35.2973 36.9729 35.4409 37.1085C35.5844 37.2441 35.6562 37.4356 35.6562 37.6829C35.6562 37.9142 35.5804 38.1017 35.4289 38.2452C35.2853 38.3888 35.0859 38.4606 34.8306 38.4606ZM40.3544 46.25C39.7083 46.25 39.1339 46.1144 38.6314 45.8432C38.1368 45.564 37.746 45.1851 37.4588 44.7065C37.1796 44.2279 37.04 43.6775 37.04 43.0553C37.04 42.5607 37.1198 42.11 37.2793 41.7032C37.4388 41.2964 37.6582 40.9454 37.9374 40.6503C38.2246 40.3471 38.5636 40.1158 38.9544 39.9563C39.3533 39.7888 39.784 39.705 40.2467 39.705C40.6535 39.705 41.0324 39.7848 41.3834 39.9443C41.7344 40.0959 42.0375 40.3073 42.2928 40.5785C42.556 40.8497 42.7554 41.1728 42.891 41.5477C43.0346 41.9146 43.1024 42.3174 43.0944 42.7562L43.0825 43.2826H37.9494L37.6742 42.3015H42.0176L41.8381 42.5049V42.2177C41.8142 41.9545 41.7264 41.7192 41.5748 41.5118C41.4233 41.3044 41.2318 41.1408 41.0005 41.0212C40.7692 40.9015 40.5179 40.8417 40.2467 40.8417C39.8159 40.8417 39.453 40.9255 39.1579 41.093C38.8627 41.2525 38.6394 41.4918 38.4878 41.8109C38.3362 42.122 38.2605 42.5089 38.2605 42.9715C38.2605 43.4103 38.3522 43.7931 38.5357 44.1202C38.7191 44.4393 38.9784 44.6866 39.3134 44.862C39.6484 45.0375 40.0353 45.1253 40.474 45.1253C40.7851 45.1253 41.0723 45.0734 41.3355 44.9697C41.6068 44.866 41.8979 44.6786 42.209 44.4074L42.8312 45.2808C42.6398 45.4723 42.4044 45.6398 42.1252 45.7834C41.854 45.927 41.5629 46.0426 41.2518 46.1304C40.9487 46.2101 40.6495 46.25 40.3544 46.25ZM47.3414 46.25C46.7591 46.25 46.2366 46.1064 45.7739 45.8193C45.3192 45.5321 44.9563 45.1412 44.6851 44.6467C44.4218 44.1521 44.2902 43.5977 44.2902 42.9835C44.2902 42.3693 44.4218 41.8149 44.6851 41.3203C44.9563 40.8258 45.3192 40.4349 45.7739 40.1477C46.2366 39.8606 46.7591 39.717 47.3414 39.717C47.8998 39.717 48.4063 39.8326 48.861 40.064C49.3236 40.2873 49.6746 40.5944 49.9139 40.9853L49.2319 41.8229C49.1043 41.6394 48.9407 41.4719 48.7413 41.3203C48.5419 41.1688 48.3305 41.0491 48.1071 40.9614C47.8838 40.8736 47.6684 40.8297 47.461 40.8297C47.0781 40.8297 46.7351 40.9255 46.432 41.1169C46.1369 41.3004 45.9015 41.5556 45.7261 41.8827C45.5506 42.2097 45.4628 42.5767 45.4628 42.9835C45.4628 43.3903 45.5546 43.7573 45.738 44.0843C45.9215 44.4034 46.1648 44.6586 46.4679 44.8501C46.771 45.0415 47.1061 45.1373 47.473 45.1373C47.6884 45.1373 47.8958 45.1014 48.0952 45.0296C48.3026 44.9578 48.502 44.8501 48.6934 44.7065C48.8849 44.5629 49.0644 44.3874 49.2319 44.18L49.9139 45.0176C49.6586 45.3766 49.2917 45.6717 48.8131 45.903C48.3425 46.1344 47.8519 46.25 47.3414 46.25ZM52.0935 46.1304V38.2452H53.3259V46.1304H52.0935ZM50.7892 41.0451V39.8486H54.7857V41.0451H50.7892ZM56.3506 46.1304V39.8486H57.583V46.1304H56.3506ZM56.9488 38.4606C56.6856 38.4606 56.4822 38.3928 56.3386 38.2572C56.195 38.1216 56.1232 37.9302 56.1232 37.6829C56.1232 37.4515 56.195 37.2641 56.3386 37.1205C56.4902 36.9769 56.6936 36.9051 56.9488 36.9051C57.2121 36.9051 57.4155 36.9729 57.5591 37.1085C57.7027 37.2441 57.7744 37.4356 57.7744 37.6829C57.7744 37.9142 57.6987 38.1017 57.5471 38.2452C57.4035 38.3888 57.2041 38.4606 56.9488 38.4606ZM62.5405 46.25C61.9263 46.25 61.3759 46.1104 60.8893 45.8312C60.4107 45.5441 60.0318 45.1572 59.7526 44.6706C59.4734 44.176 59.3338 43.6137 59.3338 42.9835C59.3338 42.3533 59.4734 41.7949 59.7526 41.3084C60.0318 40.8138 60.4107 40.4269 60.8893 40.1477C61.3759 39.8606 61.9263 39.717 62.5405 39.717C63.1467 39.717 63.6891 39.8606 64.1678 40.1477C64.6543 40.4269 65.0372 40.8138 65.3164 41.3084C65.5956 41.7949 65.7352 42.3533 65.7352 42.9835C65.7352 43.6137 65.5956 44.176 65.3164 44.6706C65.0372 45.1572 64.6543 45.5441 64.1678 45.8312C63.6891 46.1104 63.1467 46.25 62.5405 46.25ZM62.5405 45.1253C62.9154 45.1253 63.2504 45.0336 63.5456 44.8501C63.8407 44.6586 64.072 44.4034 64.2395 44.0843C64.4071 43.7573 64.4868 43.3903 64.4789 42.9835C64.4868 42.5687 64.4071 42.2018 64.2395 41.8827C64.072 41.5556 63.8407 41.3004 63.5456 41.1169C63.2504 40.9334 62.9154 40.8417 62.5405 40.8417C62.1656 40.8417 61.8265 40.9374 61.5234 41.1289C61.2283 41.3123 60.997 41.5676 60.8294 41.8947C60.6619 42.2137 60.5822 42.5767 60.5901 42.9835C60.5822 43.3903 60.6619 43.7573 60.8294 44.0843C60.997 44.4034 61.2283 44.6586 61.5234 44.8501C61.8265 45.0336 62.1656 45.1253 62.5405 45.1253ZM67.3174 46.1304V39.8486H68.5499V41.1408L68.3345 41.2844C68.4142 41.0052 68.5698 40.75 68.8011 40.5186C69.0325 40.2793 69.3077 40.0879 69.6267 39.9443C69.9458 39.7928 70.2729 39.717 70.6079 39.717C71.0865 39.717 71.4853 39.8127 71.8044 40.0041C72.1235 40.1876 72.3628 40.4708 72.5223 40.8537C72.6819 41.2366 72.7616 41.7192 72.7616 42.3015V46.1304H71.5292V42.3852C71.5292 42.0263 71.4813 41.7311 71.3856 41.4998C71.2899 41.2605 71.1423 41.089 70.9429 40.9853C70.7435 40.8736 70.4962 40.8258 70.2011 40.8417C69.9618 40.8417 69.7424 40.8816 69.543 40.9614C69.3435 41.0332 69.1681 41.1369 69.0165 41.2725C68.8729 41.4081 68.7573 41.5676 68.6695 41.7511C68.5897 41.9266 68.5499 42.118 68.5499 42.3254V46.1304H67.9396C67.8359 46.1304 67.7322 46.1304 67.6285 46.1304C67.5248 46.1304 67.4211 46.1304 67.3174 46.1304ZM76.7667 46.25C76.2403 46.25 75.7656 46.1583 75.3429 45.9748C74.9201 45.7914 74.5691 45.5201 74.2899 45.1612L75.1275 44.4433C75.3668 44.7225 75.6261 44.9259 75.9052 45.0535C76.1924 45.1731 76.5155 45.233 76.8744 45.233C77.018 45.233 77.1496 45.217 77.2693 45.1851C77.3969 45.1452 77.5046 45.0894 77.5924 45.0176C77.6881 44.9458 77.7599 44.862 77.8077 44.7663C77.8556 44.6626 77.8795 44.551 77.8795 44.4313C77.8795 44.2239 77.8037 44.0564 77.6522 43.9288C77.5724 43.8729 77.4448 43.8131 77.2693 43.7493C77.1018 43.6775 76.8824 43.6057 76.6112 43.5339C76.1485 43.4142 75.7696 43.2786 75.4745 43.1271C75.1793 42.9755 74.952 42.804 74.7925 42.6126C74.6728 42.461 74.5851 42.2975 74.5292 42.122C74.4734 41.9385 74.4455 41.7391 74.4455 41.5237C74.4455 41.1727 74.5452 40.8617 74.7446 40.5904C74.944 40.3192 75.2113 40.1078 75.5463 39.9563C75.8893 39.7967 76.2722 39.717 76.695 39.717C76.9901 39.717 77.2813 39.7569 77.5684 39.8366C77.8636 39.9164 78.1348 40.0321 78.3821 40.1836C78.6293 40.3352 78.8367 40.5147 79.0043 40.7221L78.2983 41.4998C78.1467 41.3482 77.9792 41.2166 77.7958 41.1049C77.6203 40.9853 77.4408 40.8936 77.2573 40.8297C77.0739 40.7659 76.9063 40.734 76.7548 40.734C76.5873 40.734 76.4357 40.75 76.3001 40.7819C76.1645 40.8138 76.0488 40.8617 75.9531 40.9255C75.8654 40.9893 75.7976 41.0691 75.7497 41.1648C75.7018 41.2605 75.6779 41.3682 75.6779 41.4878C75.6859 41.5915 75.7098 41.6912 75.7497 41.787C75.7976 41.8747 75.8614 41.9505 75.9411 42.0143C76.0289 42.0781 76.1605 42.1459 76.336 42.2177C76.5115 42.2895 76.7348 42.3573 77.0061 42.4211C77.4049 42.5248 77.7319 42.6405 77.9872 42.7681C78.2504 42.8878 78.4578 43.0274 78.6094 43.1869C78.7689 43.3385 78.8806 43.514 78.9444 43.7134C79.0082 43.9128 79.0402 44.1362 79.0402 44.3834C79.0402 44.7424 78.9365 45.0655 78.7291 45.3526C78.5296 45.6318 78.2584 45.8512 77.9154 46.0107C77.5724 46.1703 77.1895 46.25 76.7667 46.25Z" fill="white"></path><g clip-path="url(#clip0_6201_345)"><path d="M42.5689 29.1898C42.7026 29.3231 42.7026 29.5393 42.5689 29.6731C42.4353 29.8066 42.2187 29.8061 42.0856 29.6731C41.7766 29.364 39.7333 27.3208 39.4493 27.0368C39.316 26.9035 39.316 26.6868 39.4493 26.5535C39.5831 26.4202 39.7993 26.4202 39.933 26.5535L40.2954 26.9159L42.2721 24.9392C42.4055 24.8057 42.622 24.8057 42.7555 24.9392L44.3482 26.5319C44.4817 26.6654 44.4817 26.8818 44.3482 27.0153L42.3715 28.992L42.5689 29.1898ZM59.7587 9.52869C59.6249 9.39538 59.4087 9.39538 59.275 9.52869L53.8268 14.9773L53.702 14.8526C53.2551 14.4056 52.5309 14.4056 52.0839 14.8526L52.025 14.9115C51.8912 15.0453 51.8912 15.2619 52.0254 15.3952C52.4783 15.846 53.4414 16.8095 53.8917 17.2615C54.025 17.3957 54.2417 17.3961 54.3754 17.2624L54.4348 17.203C54.8779 16.7608 54.8856 16.0365 54.4348 15.5853L54.31 15.4606L59.7587 10.0119C59.892 9.87863 59.892 9.66243 59.7587 9.52869ZM53.5697 17.9056L51.3665 15.7024C50.9666 15.3025 50.3159 15.3025 49.9163 15.7024L42.6843 22.9345L42.2668 22.5171C42.1335 22.3833 41.9169 22.3833 41.7836 22.5171C41.6498 22.6504 41.6498 22.867 41.7836 23.0003L46.2871 27.5038C46.4212 27.638 46.6378 27.6363 46.7703 27.5038C46.9036 27.3701 46.9036 27.1539 46.7703 27.0205L46.3529 26.6031L48.2331 24.7229C48.3666 24.5894 48.3666 24.373 48.2331 24.2394L47.4538 23.4602C47.3203 23.3267 47.3203 23.1103 47.4538 22.9768C47.5873 22.8433 47.8038 22.8433 47.9372 22.9768L48.7165 23.7561C48.8499 23.8896 49.0664 23.8896 49.1999 23.7561L51.0574 21.8986C51.1909 21.7651 51.1909 21.5486 51.0574 21.4151L49.8508 20.2086C49.7149 20.0726 49.7174 19.8507 49.8584 19.7179C49.9946 19.5896 50.212 19.603 50.3444 19.7354L51.5408 20.9317C51.6742 21.0652 51.8907 21.0652 52.0242 20.9317L53.5849 19.371C53.9801 18.9758 53.9958 18.3317 53.5697 17.9056ZM59.4895 15.7605L58.467 14.4966C58.33 14.3272 58.0719 14.3279 57.9355 14.4966L56.913 15.7605C56.0309 16.8504 56.8198 18.4601 58.2012 18.4601C59.5844 18.4601 60.3701 16.8486 59.4895 15.7605Z" fill="white"></path></g><defs><clipPath id="clip0_6201_345"><rect width="20.5119" height="20.5119" fill="white" transform="translate(39.3494 9.34497)"></rect></clipPath></defs></svg>