<svg xmlns="http://www.w3.org/2000/svg" width="100" height="84" viewBox="0 0 100 84" fill="none"><path d="M0.599121 17.9889V40.6868C0.599121 48.1326 5.18721 54.5145 11.6948 57.1514C13.7616 57.9956 16.0188 58.459 18.3814 58.459H59.631C60.5489 61.3802 61.5823 63.9535 62.6893 66.2222C70.2418 81.8107 81.0937 83.1717 81.0937 83.1717C77.3499 79.5434 74.9022 74.3116 73.3204 69.1014C72.16 65.336 71.4428 61.5808 71.0111 58.459H81.9164C82.2224 58.459 82.5283 58.4488 82.8228 58.4272C82.9917 58.4272 83.1605 58.4057 83.3294 58.3955C83.403 58.3955 83.4881 58.3955 83.5617 58.3739C88.0546 57.9727 92.0625 55.8844 94.9418 52.7626C97.8947 49.5888 99.6987 45.3485 99.6987 40.6868V17.9889C99.6987 8.16904 91.7362 0.206543 81.9164 0.206543H18.3827C8.56289 0.206543 0.600388 8.16904 0.600388 17.9889H0.599121Z" fill="#02A68F"></path><path d="M17.4205 45.4402V37.0892H20.6893C21.2858 37.0892 21.8226 37.1886 22.2998 37.3874C22.785 37.5863 23.1986 37.8726 23.5405 38.2464C23.8825 38.6202 24.145 39.0616 24.3279 39.5706C24.5109 40.0796 24.6023 40.6443 24.6023 41.2647C24.6023 41.885 24.5109 42.4537 24.3279 42.9707C24.145 43.4797 23.8825 43.9211 23.5405 44.2949C23.2065 44.6608 22.7969 44.9431 22.3118 45.1419C21.8266 45.3408 21.2858 45.4402 20.6893 45.4402H17.4205ZM18.7089 44.3307L18.6731 44.1995H20.6296C21.0512 44.1995 21.425 44.1319 21.751 43.9967C22.0851 43.8614 22.3635 43.6706 22.5861 43.424C22.8168 43.1695 22.9918 42.8593 23.1111 42.4935C23.2304 42.1276 23.29 41.718 23.29 41.2647C23.29 40.8113 23.2304 40.4057 23.1111 40.0478C22.9918 39.682 22.8168 39.3718 22.5861 39.1173C22.3555 38.8628 22.0771 38.6679 21.751 38.5327C21.425 38.3975 21.0512 38.3299 20.6296 38.3299H18.6373L18.7089 38.2225V44.3307ZM29.0886 45.5595C28.4761 45.5595 27.9274 45.4203 27.4422 45.1419C26.965 44.8556 26.5872 44.4699 26.3089 43.9847C26.0305 43.4916 25.8913 42.9309 25.8913 42.3026C25.8913 41.6743 26.0305 41.1175 26.3089 40.6324C26.5872 40.1393 26.965 39.7535 27.4422 39.4752C27.9274 39.1889 28.4761 39.0457 29.0886 39.0457C29.693 39.0457 30.2338 39.1889 30.711 39.4752C31.1962 39.7535 31.578 40.1393 31.8563 40.6324C32.1347 41.1175 32.2739 41.6743 32.2739 42.3026C32.2739 42.9309 32.1347 43.4916 31.8563 43.9847C31.578 44.4699 31.1962 44.8556 30.711 45.1419C30.2338 45.4203 29.693 45.5595 29.0886 45.5595ZM29.0886 44.4381C29.4624 44.4381 29.7964 44.3466 30.0907 44.1637C30.385 43.9728 30.6156 43.7183 30.7826 43.4002C30.9496 43.0741 31.0292 42.7082 31.0212 42.3026C31.0292 41.889 30.9496 41.5232 30.7826 41.205C30.6156 40.8789 30.385 40.6244 30.0907 40.4415C29.7964 40.2586 29.4624 40.1671 29.0886 40.1671C28.7147 40.1671 28.3767 40.2626 28.0745 40.4534C27.7802 40.6364 27.5496 40.8909 27.3826 41.217C27.2155 41.5351 27.136 41.897 27.144 42.3026C27.136 42.7082 27.2155 43.0741 27.3826 43.4002C27.5496 43.7183 27.7802 43.9728 28.0745 44.1637C28.3767 44.3466 28.7147 44.4381 29.0886 44.4381ZM36.5118 45.5595C35.9312 45.5595 35.4103 45.4163 34.949 45.13C34.4956 44.8437 34.1338 44.454 33.8634 43.9609C33.6009 43.4678 33.4697 42.915 33.4697 42.3026C33.4697 41.6902 33.6009 41.1374 33.8634 40.6443C34.1338 40.1512 34.4956 39.7615 34.949 39.4752C35.4103 39.1889 35.9312 39.0457 36.5118 39.0457C37.0685 39.0457 37.5736 39.161 38.0269 39.3917C38.4882 39.6144 38.8382 39.9206 39.0768 40.3103L38.3968 41.1454C38.2695 40.9625 38.1065 40.7954 37.9076 40.6443C37.7088 40.4932 37.498 40.3739 37.2753 40.2864C37.0526 40.1989 36.8379 40.1552 36.6311 40.1552C36.2494 40.1552 35.9074 40.2506 35.6051 40.4415C35.3109 40.6244 35.0762 40.8789 34.9013 41.205C34.7263 41.5311 34.6388 41.897 34.6388 42.3026C34.6388 42.7082 34.7303 43.0741 34.9132 43.4002C35.0961 43.7183 35.3387 43.9728 35.6409 44.1637C35.9432 44.3546 36.2772 44.45 36.643 44.45C36.8578 44.45 37.0646 44.4142 37.2634 44.3426C37.4702 44.271 37.669 44.1637 37.8599 44.0205C38.0508 43.8774 38.2297 43.7024 38.3968 43.4956L39.0768 44.3307C38.8223 44.6886 38.4564 44.9829 37.9792 45.2135C37.51 45.4442 37.0208 45.5595 36.5118 45.5595ZM42.6696 45.5595C42.2242 45.5595 41.8345 45.4561 41.5004 45.2493C41.1743 45.0425 40.9198 44.7522 40.7369 44.3784C40.5619 44.0046 40.4744 43.5592 40.4744 43.0423V39.1769H41.7032V42.7082C41.7032 43.257 41.8305 43.6905 42.085 44.0086C42.3475 44.3267 42.7093 44.4858 43.1706 44.4858C43.4013 44.4858 43.612 44.45 43.8029 44.3784C43.9938 44.2989 44.1568 44.1915 44.292 44.0563C44.4352 43.9211 44.5466 43.7581 44.6261 43.5672C44.7056 43.3763 44.7454 43.1695 44.7454 42.9468V39.1769H45.9742V45.4402H44.7454V44.1279L44.9601 43.9847C44.8647 44.279 44.7016 44.5454 44.471 44.784C44.2483 45.0226 43.9819 45.2135 43.6717 45.3567C43.3615 45.4919 43.0275 45.5595 42.6696 45.5595ZM47.9124 45.4402V39.1769H49.1531V40.5131L48.9265 40.6563C48.9901 40.4495 49.0895 40.2506 49.2247 40.0598C49.3679 39.8689 49.5389 39.7019 49.7377 39.5587C49.9445 39.4076 50.1632 39.2883 50.3939 39.2008C50.6325 39.1133 50.875 39.0696 51.1216 39.0696C51.4795 39.0696 51.7937 39.1292 52.0641 39.2485C52.3345 39.3678 52.5572 39.5468 52.7321 39.7854C52.9071 40.024 53.0344 40.3222 53.1139 40.6801L52.923 40.6324L53.0065 40.4296C53.094 40.2467 53.2133 40.0757 53.3644 39.9166C53.5235 39.7496 53.7025 39.6024 53.9013 39.4752C54.1001 39.3479 54.3109 39.2485 54.5336 39.1769C54.7563 39.1054 54.975 39.0696 55.1897 39.0696C55.659 39.0696 56.0447 39.165 56.3469 39.3559C56.6571 39.5468 56.8878 39.8371 57.0389 40.2268C57.1979 40.6165 57.2775 41.1016 57.2775 41.6822V45.4402H56.0368V41.7538C56.0368 41.2209 55.9334 40.8312 55.7266 40.5847C55.5277 40.3302 55.2136 40.2029 54.7841 40.2029C54.5614 40.2029 54.3507 40.2427 54.1518 40.3222C53.9609 40.3938 53.7939 40.4972 53.6508 40.6324C53.5076 40.7676 53.3963 40.9267 53.3167 41.1096C53.2372 41.2846 53.1974 41.4794 53.1974 41.6942V45.4402H51.9567V41.73C51.9567 41.2368 51.8493 40.8591 51.6346 40.5966C51.4278 40.3341 51.1256 40.2029 50.7279 40.2029C50.5052 40.2029 50.2984 40.2427 50.1075 40.3222C49.9167 40.3938 49.7496 40.4972 49.6065 40.6324C49.4633 40.7596 49.352 40.9147 49.2724 41.0977C49.1929 41.2726 49.1531 41.4635 49.1531 41.6703V45.4402H47.9124ZM62.0841 45.5595C61.4398 45.5595 60.8672 45.4243 60.3661 45.1539C59.873 44.8755 59.4833 44.4977 59.197 44.0205C58.9186 43.5433 58.7795 42.9945 58.7795 42.3742C58.7795 41.8811 58.859 41.4317 59.0181 41.0261C59.1771 40.6205 59.3958 40.2705 59.6742 39.9762C59.9605 39.674 60.2985 39.4434 60.6883 39.2843C61.0859 39.1173 61.5154 39.0338 61.9767 39.0338C62.3823 39.0338 62.7601 39.1133 63.11 39.2724C63.46 39.4235 63.7622 39.6342 64.0167 39.9047C64.2792 40.1751 64.478 40.4972 64.6132 40.871C64.7564 41.2368 64.824 41.6385 64.816 42.0759L64.8041 42.6008H59.6861L59.4117 41.6226H63.7423L63.5634 41.8254V41.5391C63.5395 41.2766 63.452 41.042 63.3009 40.8352C63.1498 40.6284 62.9589 40.4654 62.7283 40.3461C62.4976 40.2268 62.2471 40.1671 61.9767 40.1671C61.5472 40.1671 61.1853 40.2506 60.8911 40.4177C60.5968 40.5767 60.3741 40.8153 60.223 41.1335C60.0719 41.4436 59.9963 41.8294 59.9963 42.2907C59.9963 42.7281 60.0878 43.1099 60.2707 43.4359C60.4536 43.7541 60.7121 44.0006 61.0462 44.1756C61.3802 44.3506 61.7659 44.4381 62.2034 44.4381C62.5135 44.4381 62.7999 44.3864 63.0623 44.283C63.3327 44.1796 63.623 43.9927 63.9332 43.7223L64.5536 44.5932C64.3627 44.784 64.1281 44.9511 63.8497 45.0942C63.5793 45.2374 63.289 45.3527 62.9788 45.4402C62.6766 45.5197 62.3783 45.5595 62.0841 45.5595ZM66.39 45.4402V39.1769H67.6188V40.4654L67.4041 40.6085C67.4836 40.3302 67.6387 40.0757 67.8694 39.845C68.1 39.6064 68.3744 39.4155 68.6925 39.2724C69.0107 39.1213 69.3368 39.0457 69.6708 39.0457C70.148 39.0457 70.5457 39.1411 70.8638 39.332C71.1819 39.5149 71.4205 39.7973 71.5796 40.1791C71.7387 40.5608 71.8182 41.042 71.8182 41.6226V45.4402H70.5894V41.7061C70.5894 41.3482 70.5417 41.0539 70.4462 40.8233C70.3508 40.5847 70.2037 40.4137 70.0048 40.3103C69.806 40.1989 69.5595 40.1512 69.2652 40.1671C69.0266 40.1671 68.8079 40.2069 68.609 40.2864C68.4102 40.358 68.2352 40.4614 68.0841 40.5966C67.9409 40.7318 67.8256 40.8909 67.7381 41.0738C67.6586 41.2488 67.6188 41.4397 67.6188 41.6464V45.4402H67.0104C66.907 45.4402 66.8036 45.4402 66.7002 45.4402C66.5968 45.4402 66.4934 45.4402 66.39 45.4402ZM74.4992 45.4402V37.5783H75.728V45.4402H74.4992ZM73.1988 40.3699V39.1769H77.1834V40.3699H73.1988ZM80.8617 45.5595C80.3368 45.5595 79.8636 45.468 79.442 45.2851C79.0205 45.1022 78.6706 44.8318 78.3922 44.4739L79.2273 43.7581C79.4659 44.0364 79.7244 44.2392 80.0027 44.3665C80.2891 44.4858 80.6112 44.5454 80.9691 44.5454C81.1122 44.5454 81.2435 44.5295 81.3628 44.4977C81.49 44.4579 81.5974 44.4023 81.6849 44.3307C81.7803 44.2591 81.8519 44.1756 81.8996 44.0802C81.9473 43.9768 81.9712 43.8654 81.9712 43.7461C81.9712 43.5393 81.8956 43.3723 81.7445 43.2451C81.665 43.1894 81.5377 43.1297 81.3628 43.0661C81.1957 42.9945 80.977 42.923 80.7066 42.8514C80.2453 42.7321 79.8675 42.5969 79.5733 42.4458C79.279 42.2946 79.0523 42.1236 78.8933 41.9328C78.774 41.7817 78.6865 41.6186 78.6308 41.4436C78.5751 41.2607 78.5473 41.0619 78.5473 40.8471C78.5473 40.4972 78.6467 40.187 78.8455 39.9166C79.0444 39.6462 79.3108 39.4354 79.6448 39.2843C79.9868 39.1252 80.3686 39.0457 80.7901 39.0457C81.0844 39.0457 81.3747 39.0855 81.661 39.165C81.9553 39.2445 82.2257 39.3599 82.4723 39.511C82.7188 39.6621 82.9256 39.841 83.0926 40.0478L82.3887 40.8233C82.2376 40.6722 82.0706 40.5409 81.8877 40.4296C81.7127 40.3103 81.5338 40.2188 81.3508 40.1552C81.1679 40.0916 81.0009 40.0598 80.8498 40.0598C80.6828 40.0598 80.5316 40.0757 80.3964 40.1075C80.2612 40.1393 80.1459 40.187 80.0505 40.2506C79.963 40.3143 79.8954 40.3938 79.8477 40.4892C79.7999 40.5847 79.7761 40.692 79.7761 40.8113C79.784 40.9147 79.8079 41.0142 79.8477 41.1096C79.8954 41.1971 79.959 41.2726 80.0385 41.3363C80.126 41.3999 80.2573 41.4675 80.4322 41.5391C80.6072 41.6107 80.8299 41.6783 81.1003 41.7419C81.498 41.8453 81.8241 41.9606 82.0786 42.0879C82.341 42.2072 82.5478 42.3463 82.6989 42.5054C82.858 42.6565 82.9693 42.8315 83.033 43.0303C83.0966 43.2292 83.1284 43.4519 83.1284 43.6984C83.1284 44.0563 83.025 44.3784 82.8182 44.6647C82.6194 44.9431 82.349 45.1618 82.007 45.3209C81.665 45.48 81.2832 45.5595 80.8617 45.5595Z" fill="white"></path><g clip-path="url(#clip0_6201_131)"><path d="M44.6538 17.1616C44.2564 17.2804 43.9079 17.5242 43.66 17.8568C43.4121 18.1895 43.278 18.5931 43.2777 19.0079V19.5156L39.8969 16.5911C39.8685 16.5665 39.8451 16.5365 39.8282 16.5029C39.8114 16.4693 39.8013 16.4327 39.7986 16.3951C39.7959 16.3576 39.8006 16.3199 39.8125 16.2842C39.8244 16.2485 39.8432 16.2155 39.8679 16.1871L45.6398 9.51169C45.6644 9.48322 45.6944 9.45987 45.728 9.443C45.7616 9.42612 45.7982 9.41604 45.8357 9.41334C45.8733 9.41063 45.911 9.41536 45.9467 9.42724C45.9824 9.43911 46.0154 9.45792 46.0438 9.48257L47.6353 10.8586L43.5711 12.7109C43.3636 12.8063 43.2023 12.98 43.1225 13.194C43.0427 13.408 43.0508 13.6449 43.1452 13.8529L44.6538 17.1616ZM43.6689 13.6143L45.2499 17.0814H47.4642C47.5554 17.0817 47.6465 17.0891 47.7366 17.1035V12.4803C47.7366 12.2515 47.8276 12.0321 47.9893 11.8703C48.1511 11.7085 48.3706 11.6176 48.5994 11.6175H53.0873L52.2187 9.7154C52.2031 9.68114 52.1809 9.65029 52.1534 9.62461C52.1259 9.59892 52.0936 9.57892 52.0584 9.56573C52.0231 9.55254 51.9856 9.54643 51.948 9.54774C51.9104 9.54906 51.8734 9.55778 51.8392 9.5734L43.8098 13.2347C43.7756 13.2504 43.7448 13.2726 43.7192 13.3001C43.6936 13.3277 43.6737 13.36 43.6606 13.3953C43.6475 13.4305 43.6415 13.468 43.6429 13.5056C43.6444 13.5432 43.6532 13.5801 43.6689 13.6143ZM55.6449 14.4863H57.5437L55.4179 12.3616V14.2592C55.4183 14.3193 55.4423 14.3768 55.4848 14.4193C55.5273 14.4618 55.5848 14.4858 55.6449 14.4863ZM54.8439 12.1928V14.2592C54.8438 14.3645 54.8644 14.4688 54.9046 14.5661C54.9447 14.6634 55.0037 14.7519 55.0781 14.8264C55.1525 14.9009 55.2408 14.96 55.3381 15.0003C55.4354 15.0406 55.5396 15.0613 55.6449 15.0613H57.7113V18.9602C57.2753 19.0201 56.8603 19.1847 56.5017 19.4399H50.6622C50.6521 19.4355 50.6424 19.4305 50.6331 19.4247C50.5382 19.3561 50.4501 19.2785 50.37 19.193L50.1087 18.9381H56.0139C56.0902 18.9381 56.1634 18.9078 56.2173 18.8538C56.2712 18.7999 56.3015 18.7268 56.3015 18.6505C56.3015 18.5742 56.2712 18.5011 56.2173 18.4471C56.1634 18.3932 56.0902 18.3629 56.0139 18.3629H50.0091C49.9467 18.363 49.8861 18.3834 49.8363 18.421C49.7865 18.4585 49.7502 18.5112 49.7329 18.5712L48.9625 17.8193C48.7953 17.6472 48.6099 17.4938 48.4095 17.3618C48.3769 17.3418 48.3443 17.3234 48.3117 17.3048V12.4803C48.3118 12.4041 48.3422 12.331 48.3961 12.2771C48.45 12.2232 48.5231 12.1929 48.5993 12.1927L54.8439 12.1928ZM49.7215 14.4548C49.7215 14.5311 49.7518 14.6043 49.8058 14.6582C49.8597 14.7121 49.9329 14.7424 50.0091 14.7424H53.8125C53.8888 14.7424 53.9619 14.7121 54.0159 14.6582C54.0698 14.6043 54.1001 14.5311 54.1001 14.4548C54.1001 14.3785 54.0698 14.3054 54.0159 14.2515C53.9619 14.1975 53.8888 14.1672 53.8125 14.1672H50.0091C49.9329 14.1674 49.8598 14.1977 49.8059 14.2516C49.752 14.3055 49.7217 14.3786 49.7215 14.4548ZM56.3015 17.2524C56.3015 17.1761 56.2712 17.1029 56.2173 17.049C56.1633 16.9951 56.0902 16.9648 56.0139 16.9648H50.0091C49.9328 16.9648 49.8597 16.9951 49.8057 17.049C49.7518 17.1029 49.7215 17.1761 49.7215 17.2524C49.7215 17.3286 49.7518 17.4018 49.8057 17.4557C49.8597 17.5097 49.9328 17.54 50.0091 17.54H56.0139C56.0902 17.5399 56.1634 17.5096 56.2173 17.4557C56.2712 17.4018 56.3015 17.3286 56.3015 17.2524ZM50.0091 15.5667C49.9328 15.5667 49.8597 15.597 49.8057 15.6509C49.7518 15.7049 49.7215 15.778 49.7215 15.8543C49.7215 15.9306 49.7518 16.0037 49.8057 16.0577C49.8597 16.1116 49.9328 16.1419 50.0091 16.1419H56.0139C56.0902 16.1419 56.1634 16.1116 56.2173 16.0577C56.2712 16.0037 56.3015 15.9306 56.3015 15.8543C56.3015 15.778 56.2712 15.7049 56.2173 15.6509C56.1634 15.597 56.0902 15.5667 56.0139 15.5667H50.0091ZM60.2493 21.6728C60.2491 22.173 60.0754 22.6577 59.758 23.0442C59.4405 23.4308 58.9988 23.6953 58.5082 23.7927C58.0175 23.8901 57.5083 23.8145 57.0672 23.5785C56.6261 23.3426 56.2805 22.9611 56.0892 22.4989C55.8978 22.0367 55.8727 21.5225 56.018 21.0439C56.1632 20.5652 56.47 20.1518 56.8859 19.8739C57.3018 19.596 57.8013 19.471 58.2991 19.52C58.7969 19.5691 59.2622 19.7892 59.616 20.1429C59.8171 20.3437 59.9765 20.5821 60.0852 20.8447C60.1939 21.1072 60.2497 21.3886 60.2493 21.6728ZM59.5508 20.5866C59.5242 20.5597 59.4925 20.5384 59.4577 20.5239C59.4228 20.5094 59.3854 20.5019 59.3476 20.5019C59.3098 20.5019 59.2724 20.5094 59.2376 20.5239C59.2027 20.5384 59.171 20.5597 59.1444 20.5866L57.5798 22.1501L57.0291 21.5983C56.9751 21.5444 56.9019 21.5142 56.8256 21.5143C56.7493 21.5144 56.6761 21.5448 56.6223 21.5988C56.5684 21.6529 56.5382 21.7261 56.5383 21.8024C56.5384 21.8787 56.5688 21.9518 56.6228 22.0057L57.3773 22.7601C57.4312 22.8138 57.5043 22.8439 57.5804 22.8439C57.6565 22.8439 57.7296 22.8138 57.7836 22.7601L59.5508 20.9929C59.6045 20.9389 59.6346 20.8659 59.6346 20.7897C59.6346 20.7136 59.6044 20.6406 59.5508 20.5866ZM58.0862 24.411C58.4028 24.4111 58.7171 24.3568 59.0152 24.2503V26.9139C59.014 27.333 58.8468 27.7346 58.5504 28.0308C58.2539 28.3271 57.8523 28.4939 57.4332 28.4949H45.435C45.0159 28.4939 44.6142 28.3271 44.3177 28.0309C44.0213 27.7346 43.8541 27.3331 43.8528 26.9139V19.0079C43.8533 18.6498 43.9957 18.3065 44.2489 18.0532C44.502 17.7998 44.8452 17.6571 45.2033 17.6563H47.4642C47.6914 17.6574 47.9135 17.7246 48.1033 17.8496C48.2694 17.9592 48.4228 18.0869 48.5608 18.2303L49.9683 19.6052C50.0775 19.7191 50.198 19.8217 50.3278 19.9114C50.4275 19.9778 50.5444 20.0138 50.6643 20.015H55.908C55.599 20.4208 55.4096 20.9049 55.3611 21.4127C55.3125 21.9205 55.4068 22.4317 55.6333 22.8888C55.8597 23.3458 56.2094 23.7305 56.6428 23.9995C57.0762 24.2684 57.5761 24.4109 58.0862 24.411ZM45.6795 24.4482C45.6795 24.5245 45.7098 24.5976 45.7638 24.6515C45.8177 24.7055 45.8909 24.7358 45.9671 24.7358H48.7705C48.8468 24.7358 48.9199 24.7055 48.9739 24.6515C49.0278 24.5976 49.0581 24.5245 49.0581 24.4482C49.0581 24.3719 49.0278 24.2988 48.9739 24.2448C48.9199 24.1909 48.8468 24.1606 48.7705 24.1606H45.967C45.9292 24.1605 45.8918 24.1678 45.8568 24.1822C45.8219 24.1967 45.7901 24.2178 45.7634 24.2446C45.7367 24.2713 45.7155 24.303 45.7011 24.338C45.6867 24.3729 45.6793 24.4104 45.6795 24.4482H45.6795ZM57.1887 26.4134C57.1887 26.3372 57.1584 26.264 57.1045 26.2101C57.0505 26.1561 56.9774 26.1258 56.9011 26.1258H45.967C45.8909 26.1258 45.8179 26.1561 45.7641 26.2099C45.7103 26.2637 45.6801 26.3367 45.6801 26.4128C45.6801 26.4889 45.7103 26.5619 45.7641 26.6157C45.8179 26.6695 45.8909 26.6998 45.967 26.6998H56.9011C56.9772 26.6999 57.0502 26.6697 57.1041 26.616C57.158 26.5623 57.1884 26.4894 57.1886 26.4133L57.1887 26.4134Z" fill="white"></path></g><defs><clipPath id="clip0_6201_131"><rect width="20.4514" height="20.4514" fill="white" transform="translate(39.7976 8.72803)"></rect></clipPath></defs></svg>