<svg xmlns="http://www.w3.org/2000/svg" width="100" height="84" viewBox="0 0 100 84" fill="none"><path d="M100 18.2186V40.9166C100 48.5947 95.1277 55.1442 88.3027 57.6236C86.4048 58.3092 84.3583 58.6888 82.228 58.6888H40.609C40.4719 59.1102 40.3347 59.5216 40.1875 59.9228C39.1008 62.9607 37.7513 65.6598 36.2634 68.0541C35.673 69.0139 35.0611 69.9216 34.4289 70.776C28.2793 79.2133 20.9185 83.0104 20.6012 83.1691C23.7864 77.8422 25.8634 72.7272 27.171 68.0554C28.1307 64.6695 28.6792 61.516 28.9851 58.69H18.6804C15.7274 58.69 12.9434 57.9727 10.4957 56.6969C4.79932 53.7325 0.908203 47.7848 0.908203 40.9179V18.2199C0.908203 8.4001 8.87197 0.447754 18.6804 0.447754H82.2268C92.0466 0.447754 99.9989 8.4001 99.9989 18.2199L100 18.2186Z" fill="#FD3A84"></path><path d="M40.9257 45.8007C40.3213 45.8007 39.7566 45.6933 39.2317 45.4786C38.7067 45.2559 38.2455 44.9497 37.8478 44.56C37.4501 44.1703 37.1399 43.7169 36.9172 43.2C36.7025 42.675 36.5951 42.1103 36.5951 41.5059C36.5951 40.9094 36.7025 40.3527 36.9172 39.8357C37.1399 39.3187 37.4461 38.8694 37.8359 38.4876C38.2335 38.0979 38.6948 37.7957 39.2197 37.5809C39.7447 37.3662 40.3093 37.2588 40.9138 37.2588C41.3353 37.2588 41.7449 37.3185 42.1426 37.4378C42.5482 37.5571 42.9141 37.7241 43.2401 37.9388C43.5662 38.1536 43.8327 38.4001 44.0395 38.6785L43.2044 39.5494C42.8465 39.2074 42.4727 38.9489 42.0829 38.7739C41.7012 38.5989 41.3115 38.5115 40.9138 38.5115C40.4843 38.5115 40.0867 38.587 39.7208 38.7381C39.3629 38.8892 39.0448 39.1 38.7664 39.3704C38.496 39.6408 38.2852 39.959 38.1341 40.3248C37.983 40.6827 37.9074 41.0764 37.9074 41.5059C37.9074 41.9195 37.987 42.3132 38.146 42.687C38.3051 43.0528 38.5238 43.3749 38.8022 43.6533C39.0885 43.9317 39.4146 44.1504 39.7804 44.3094C40.1543 44.4685 40.5479 44.548 40.9615 44.548C41.2717 44.548 41.566 44.5043 41.8443 44.4168C42.1227 44.3214 42.3693 44.1901 42.584 44.0231C42.7987 43.8561 42.9658 43.6652 43.0851 43.4505C43.2044 43.2278 43.264 42.9932 43.264 42.7466V42.508L43.443 42.675H40.8899V41.3985H44.5882C44.6041 41.486 44.6161 41.5735 44.624 41.661C44.632 41.7405 44.636 41.8201 44.636 41.8996C44.6439 41.9712 44.6479 42.0427 44.6479 42.1143C44.6479 42.6631 44.5525 43.1642 44.3616 43.6175C44.1707 44.0629 43.9043 44.4486 43.5623 44.7747C43.2282 45.1008 42.8345 45.3553 42.3812 45.5382C41.9358 45.7132 41.4506 45.8007 40.9257 45.8007ZM46.4568 45.6814V39.4181H47.6856V45.6814H46.4568ZM47.0533 38.0343C46.7908 38.0343 46.588 37.9667 46.4448 37.8315C46.3017 37.6962 46.2301 37.5054 46.2301 37.2588C46.2301 37.0282 46.3017 36.8413 46.4448 36.6981C46.596 36.5549 46.7988 36.4834 47.0533 36.4834C47.3157 36.4834 47.5185 36.551 47.6617 36.6862C47.8049 36.8214 47.8764 37.0123 47.8764 37.2588C47.8764 37.4895 47.8009 37.6764 47.6498 37.8195C47.5066 37.9627 47.3078 38.0343 47.0533 38.0343ZM50.4929 45.6814V38.7143C50.4929 38.3564 50.5725 38.0382 50.7315 37.7599C50.8906 37.4815 51.1093 37.2628 51.3877 37.1037C51.6661 36.9447 51.9882 36.8651 52.354 36.8651C52.6085 36.8651 52.8471 36.9128 53.0698 37.0083C53.2925 37.1037 53.4715 37.231 53.6067 37.39L53.1891 38.3325C53.0857 38.2371 52.9704 38.1615 52.8432 38.1058C52.7239 38.0422 52.6085 38.0104 52.4972 38.0104C52.3302 38.0104 52.187 38.0382 52.0677 38.0939C51.9564 38.1416 51.8728 38.2212 51.8172 38.3325C51.7615 38.4359 51.7337 38.5632 51.7337 38.7143V45.6814H51.1133C51.0099 45.6814 50.9065 45.6814 50.8031 45.6814C50.6997 45.6814 50.5963 45.6814 50.4929 45.6814ZM49.4908 40.6589V39.5255H53.213V40.6589H49.4908ZM55.5454 45.6814V37.8195H56.7742V45.6814H55.5454ZM54.245 40.6111V39.4181H58.2296V40.6111H54.245ZM61.9079 45.8007C61.383 45.8007 60.9098 45.7092 60.4882 45.5263C60.0667 45.3434 59.7168 45.073 59.4384 44.7151L60.2735 43.9993C60.5121 44.2776 60.7706 44.4804 61.0489 44.6077C61.3353 44.727 61.6574 44.7866 62.0153 44.7866C62.1584 44.7866 62.2897 44.7707 62.409 44.7389C62.5362 44.6992 62.6436 44.6435 62.7311 44.5719C62.8265 44.5003 62.8981 44.4168 62.9458 44.3214C62.9935 44.218 63.0174 44.1066 63.0174 43.9873C63.0174 43.7805 62.9418 43.6135 62.7907 43.4863C62.7112 43.4306 62.5839 43.371 62.409 43.3073C62.2419 43.2357 62.0232 43.1642 61.7528 43.0926C61.2915 42.9733 60.9137 42.8381 60.6195 42.687C60.3252 42.5359 60.0985 42.3649 59.9395 42.174C59.8202 42.0229 59.7327 41.8598 59.677 41.6848C59.6213 41.5019 59.5935 41.3031 59.5935 41.0883C59.5935 40.7384 59.6929 40.4282 59.8917 40.1578C60.0906 39.8874 60.357 39.6766 60.691 39.5255C61.033 39.3664 61.4148 39.2869 61.8363 39.2869C62.1306 39.2869 62.4209 39.3267 62.7072 39.4062C63.0015 39.4857 63.2719 39.6011 63.5185 39.7522C63.765 39.9033 63.9718 40.0822 64.1388 40.289L63.4349 41.0645C63.2838 40.9134 63.1168 40.7821 62.9339 40.6708C62.7589 40.5515 62.58 40.46 62.397 40.3964C62.2141 40.3328 62.0471 40.301 61.896 40.301C61.729 40.301 61.5778 40.3169 61.4426 40.3487C61.3074 40.3805 61.1921 40.4282 61.0967 40.4918C61.0092 40.5555 60.9416 40.635 60.8939 40.7304C60.8461 40.8259 60.8223 40.9333 60.8223 41.0526C60.8302 41.1559 60.8541 41.2554 60.8939 41.3508C60.9416 41.4383 61.0052 41.5138 61.0847 41.5775C61.1722 41.6411 61.3035 41.7087 61.4784 41.7803C61.6534 41.8519 61.8761 41.9195 62.1465 41.9831C62.5442 42.0865 62.8703 42.2018 63.1248 42.3291C63.3872 42.4484 63.594 42.5875 63.7451 42.7466C63.9042 42.8977 64.0155 43.0727 64.0792 43.2715C64.1428 43.4704 64.1746 43.6931 64.1746 43.9396C64.1746 44.2975 64.0712 44.6196 63.8644 44.9059C63.6656 45.1843 63.3952 45.403 63.0532 45.5621C62.7112 45.7212 62.3294 45.8007 61.9079 45.8007Z" fill="white"></path><g clip-path="url(#clip0_6201_117)"><path d="M41.385 19.8218V27.4911C41.385 28.1966 41.9589 28.7693 42.6632 28.7693H49.0543V19.8218H41.385Z" fill="white"></path><path d="M59.2802 14.7089H55.2359C55.526 14.5107 55.7753 14.3139 55.9491 14.1375C56.9806 13.1009 56.9806 11.4136 55.9491 10.377C54.947 9.3672 53.201 9.36976 52.2001 10.377C51.6454 10.933 50.1754 13.1967 50.3787 14.7089H50.2866C50.4886 13.1967 49.0186 10.933 48.4652 10.377C47.4631 9.36976 45.717 9.36976 44.7162 10.377C43.6859 11.4136 43.6859 13.1009 44.7149 14.1375C44.89 14.3139 45.1393 14.5107 45.4294 14.7089H41.3851C40.6809 14.7089 40.1069 15.2828 40.1069 15.9871V17.9044C40.1069 18.2572 40.3933 18.5435 40.746 18.5435H49.0544V15.9871H51.6109V18.5435H59.9193C60.2721 18.5435 60.5584 18.2572 60.5584 17.9044V15.9871C60.5584 15.2828 59.9857 14.7089 59.2802 14.7089ZM48.979 14.6667C48.979 14.6667 48.9253 14.7089 48.7426 14.7089C47.8593 14.7089 46.1733 13.7911 45.6224 13.2364C45.0869 12.6969 45.0869 11.8175 45.6224 11.2781C45.8819 11.0174 46.2257 10.8742 46.5913 10.8742C46.9556 10.8742 47.2994 11.0174 47.5589 11.2781C48.4204 12.1448 49.2768 14.3586 48.979 14.6667ZM51.9215 14.7089C51.74 14.7089 51.6863 14.668 51.6863 14.6667C51.3885 14.3586 52.2449 12.1448 53.1064 11.2781C53.6215 10.7579 54.5226 10.7553 55.0429 11.2781C55.5797 11.8175 55.5797 12.6969 55.0429 13.2364C54.492 13.7911 52.806 14.7089 51.9215 14.7089Z" fill="white"></path><path d="M51.6108 19.8218V28.7693H58.0019C58.7075 28.7693 59.2801 28.1966 59.2801 27.4911V19.8218H51.6108Z" fill="white"></path></g><defs><clipPath id="clip0_6201_117"><rect width="20.4514" height="20.4514" fill="white" transform="translate(40.1069 8.96924)"></rect></clipPath></defs></svg>