<svg xmlns="http://www.w3.org/2000/svg" width="120" height="61" viewBox="0 0 120 61" fill="none"><path d="M119.103 0.980469C119.103 0.980469 116.152 21.0016 99.3915 29.3238V43.046C99.3915 47.7305 97.5821 51.9781 94.6205 55.1613C92.8697 57.0675 90.6924 58.5865 88.2438 59.5746C86.6662 60.2227 84.983 60.639 83.2118 60.7944C83.1443 60.8135 83.0476 60.8135 82.9801 60.8135C82.8158 60.8224 82.6414 60.8428 82.4669 60.8428C82.1766 60.8619 81.8672 60.872 81.5667 60.872H17.8349C16.0931 60.872 14.4098 60.6199 12.8118 60.1552C12.2414 59.9807 11.6799 59.7872 11.1285 59.5657C4.60675 56.9223 0 50.5164 0 43.046V20.286C0 10.4346 7.99369 2.44092 17.8349 2.44092H81.5667C90.015 2.44092 97.0792 8.33496 98.9178 16.2306C104.173 14.8083 112.398 11.0242 119.103 0.980469Z" fill="#FD3A84"></path><path d="M26.7707 48.0217V46.8252H28.1228V40.8426H26.7707V39.646H30.7671V40.8426H29.4151V46.8252H30.7671V48.0217H26.7707ZM32.7239 48.0217V41.7399H33.9564V43.0322L33.741 43.1758C33.8208 42.8966 33.9763 42.6413 34.2076 42.41C34.439 42.1707 34.7142 41.9793 35.0332 41.8357C35.3523 41.6841 35.6794 41.6083 36.0144 41.6083C36.493 41.6083 36.8918 41.7041 37.2109 41.8955C37.53 42.079 37.7693 42.3621 37.9288 42.745C38.0884 43.1279 38.1681 43.6105 38.1681 44.1928V48.0217H36.9357V44.2766C36.9357 43.9176 36.8879 43.6225 36.7921 43.3912C36.6964 43.1519 36.5488 42.9804 36.3494 42.8767C36.15 42.765 35.9027 42.7171 35.6076 42.7331C35.3683 42.7331 35.1489 42.773 34.9495 42.8527C34.7501 42.9245 34.5746 43.0282 34.423 43.1638C34.2794 43.2994 34.1638 43.459 34.076 43.6424C33.9962 43.8179 33.9564 44.0094 33.9564 44.2168V48.0217H33.3461C33.2424 48.0217 33.1387 48.0217 33.035 48.0217C32.9313 48.0217 32.8276 48.0217 32.7239 48.0217ZM40.0793 48.0217V39.1674H41.3117V43.0322L41.0964 43.1758C41.1761 42.8966 41.3317 42.6413 41.563 42.41C41.7943 42.1707 42.0695 41.9793 42.3886 41.8357C42.7077 41.6841 43.0347 41.6083 43.3698 41.6083C43.8484 41.6083 44.2472 41.7041 44.5663 41.8955C44.8854 42.079 45.1247 42.3621 45.2842 42.745C45.4438 43.1279 45.5235 43.6105 45.5235 44.1928V48.0217H44.2911V44.2766C44.2911 43.9176 44.2432 43.6225 44.1475 43.3912C44.0518 43.1519 43.9042 42.9804 43.7048 42.8767C43.5054 42.765 43.2581 42.7171 42.963 42.7331C42.7237 42.7331 42.5043 42.773 42.3049 42.8527C42.1054 42.9245 41.93 43.0282 41.7784 43.1638C41.6348 43.2994 41.5191 43.459 41.4314 43.6424C41.3516 43.8179 41.3117 44.0094 41.3117 44.2168V48.0217H40.7015C40.5978 48.0217 40.4941 48.0217 40.3904 48.0217C40.2867 48.0217 40.183 48.0217 40.0793 48.0217ZM51.1559 48.0217V43.9296C51.1559 43.5786 51.0283 43.2954 50.773 43.0801C50.5257 42.8567 50.2107 42.745 49.8278 42.745C49.4768 42.745 49.1577 42.8168 48.8705 42.9604C48.5914 43.104 48.3361 43.3234 48.1048 43.6185L47.3031 42.8168C47.678 42.41 48.0808 42.1069 48.5116 41.9075C48.9503 41.708 49.4209 41.6083 49.9235 41.6083C50.4021 41.6083 50.8169 41.6881 51.1679 41.8476C51.5189 42.0072 51.7901 42.2425 51.9815 42.5536C52.173 42.8567 52.2687 43.2276 52.2687 43.6664V48.0217H51.1559ZM49.2774 48.1414C48.8705 48.1414 48.5076 48.0616 48.1885 47.9021C47.8694 47.7425 47.6142 47.5232 47.4227 47.244C47.2393 46.9568 47.1475 46.6218 47.1475 46.2389C47.1475 45.9039 47.2074 45.6087 47.327 45.3535C47.4467 45.0982 47.6222 44.8868 47.8535 44.7193C48.0928 44.5518 48.3879 44.4242 48.7389 44.3364C49.0979 44.2487 49.5087 44.2048 49.9714 44.2048H51.7183L51.6106 45.186H49.8158C49.5765 45.186 49.3611 45.2099 49.1697 45.2577C48.9862 45.2976 48.8267 45.3654 48.6911 45.4612C48.5634 45.5489 48.4677 45.6566 48.4039 45.7842C48.3401 45.9039 48.3082 46.0475 48.3082 46.215C48.3082 46.3905 48.352 46.546 48.4398 46.6816C48.5275 46.8092 48.6472 46.909 48.7988 46.9807C48.9503 47.0525 49.1258 47.0884 49.3252 47.0884C49.6124 47.0884 49.8836 47.0406 50.1389 46.9449C50.4021 46.8412 50.6334 46.7016 50.8329 46.5261C51.0402 46.3506 51.1998 46.1551 51.3115 45.9398L51.5986 46.7414C51.4311 47.0206 51.2237 47.2639 50.9764 47.4713C50.7292 47.6787 50.4619 47.8422 50.1748 47.9619C49.8876 48.0816 49.5885 48.1414 49.2774 48.1414ZM54.0896 48.0217V39.1674H55.322V48.0217H54.0896ZM60.1226 48.1414C59.4765 48.1414 58.9021 48.0058 58.3996 47.7346C57.905 47.4554 57.5142 47.0765 57.227 46.5979C56.9478 46.1192 56.8082 45.5688 56.8082 44.9466C56.8082 44.4521 56.888 44.0014 57.0475 43.5946C57.2071 43.1877 57.4264 42.8368 57.7056 42.5416C57.9928 42.2385 58.3318 42.0072 58.7227 41.8476C59.1215 41.6801 59.5522 41.5964 60.0149 41.5964C60.4217 41.5964 60.8006 41.6761 61.1516 41.8357C61.5026 41.9872 61.8057 42.1986 62.061 42.4698C62.3242 42.741 62.5236 43.0641 62.6592 43.439C62.8028 43.806 62.8706 44.2088 62.8626 44.6475L62.8507 45.174H57.7176L57.4424 44.1928H61.7858L61.6063 44.3962V44.1091C61.5824 43.8458 61.4946 43.6105 61.3431 43.4031C61.1915 43.1957 61 43.0322 60.7687 42.9125C60.5374 42.7929 60.2861 42.7331 60.0149 42.7331C59.5842 42.7331 59.2212 42.8168 58.9261 42.9843C58.6309 43.1439 58.4076 43.3832 58.256 43.7023C58.1044 44.0134 58.0287 44.4002 58.0287 44.8629C58.0287 45.3016 58.1204 45.6845 58.3039 46.0116C58.4873 46.3306 58.7466 46.5779 59.0816 46.7534C59.4166 46.9289 59.8035 47.0166 60.2422 47.0166C60.5533 47.0166 60.8405 46.9648 61.1037 46.8611C61.375 46.7574 61.6661 46.5699 61.9772 46.2987L62.5994 47.1722C62.408 47.3636 62.1726 47.5312 61.8935 47.6747C61.6222 47.8183 61.3311 47.934 61.02 48.0217C60.7169 48.1015 60.4177 48.1414 60.1226 48.1414ZM64.4413 48.0217V41.7399H65.6857V43.7142L65.5661 43.2356C65.6538 42.9325 65.8014 42.6573 66.0088 42.41C66.2241 42.1627 66.4674 41.9673 66.7387 41.8237C67.0178 41.6801 67.305 41.6083 67.6002 41.6083C67.7358 41.6083 67.8634 41.6203 67.983 41.6442C68.1107 41.6682 68.2104 41.6961 68.2822 41.728L67.9591 43.0681C67.8634 43.0282 67.7557 42.9963 67.6361 42.9724C67.5244 42.9405 67.4127 42.9245 67.301 42.9245C67.0856 42.9245 66.8782 42.9684 66.6788 43.0561C66.4874 43.1359 66.3159 43.2516 66.1643 43.4031C66.0207 43.5467 65.9051 43.7182 65.8173 43.9176C65.7296 44.1091 65.6857 44.3205 65.6857 44.5518V48.0217H64.4413ZM71.6004 48.1414C71.0739 48.1414 70.5993 48.0496 70.1765 47.8662C69.7538 47.6827 69.4028 47.4115 69.1236 47.0525L69.9612 46.3346C70.2005 46.6138 70.4597 46.8172 70.7389 46.9449C71.0261 47.0645 71.3491 47.1243 71.7081 47.1243C71.8517 47.1243 71.9833 47.1084 72.1029 47.0765C72.2306 47.0366 72.3383 46.9807 72.426 46.909C72.5217 46.8372 72.5935 46.7534 72.6414 46.6577C72.6892 46.554 72.7132 46.4423 72.7132 46.3227C72.7132 46.1153 72.6374 45.9477 72.4858 45.8201C72.4061 45.7643 72.2784 45.7044 72.1029 45.6406C71.9354 45.5688 71.7161 45.4971 71.4448 45.4253C70.9822 45.3056 70.6033 45.17 70.3081 45.0184C70.013 44.8669 69.7857 44.6954 69.6261 44.5039C69.5065 44.3524 69.4187 44.1888 69.3629 44.0134C69.307 43.8299 69.2791 43.6305 69.2791 43.4151C69.2791 43.0641 69.3788 42.753 69.5783 42.4818C69.7777 42.2106 70.0449 41.9992 70.3799 41.8476C70.7229 41.6881 71.1058 41.6083 71.5286 41.6083C71.8238 41.6083 72.1149 41.6482 72.4021 41.728C72.6972 41.8078 72.9684 41.9234 73.2157 42.075C73.463 42.2265 73.6704 42.406 73.8379 42.6134L73.132 43.3912C72.9804 43.2396 72.8129 43.108 72.6294 42.9963C72.4539 42.8767 72.2744 42.7849 72.091 42.7211C71.9075 42.6573 71.74 42.6254 71.5884 42.6254C71.4209 42.6254 71.2694 42.6413 71.1338 42.6732C70.9981 42.7051 70.8825 42.753 70.7868 42.8168C70.699 42.8806 70.6312 42.9604 70.5833 43.0561C70.5355 43.1519 70.5116 43.2595 70.5116 43.3792C70.5195 43.4829 70.5435 43.5826 70.5833 43.6783C70.6312 43.7661 70.695 43.8419 70.7748 43.9057C70.8625 43.9695 70.9942 44.0373 71.1696 44.1091C71.3451 44.1809 71.5685 44.2487 71.8397 44.3125C72.2385 44.4162 72.5656 44.5319 72.8209 44.6595C73.0841 44.7791 73.2915 44.9187 73.4431 45.0783C73.6026 45.2298 73.7143 45.4053 73.7781 45.6047C73.8419 45.8042 73.8738 46.0275 73.8738 46.2748C73.8738 46.6338 73.7701 46.9568 73.5627 47.244C73.3633 47.5232 73.0921 47.7425 72.7491 47.9021C72.4061 48.0616 72.0232 48.1414 71.6004 48.1414Z" fill="white"></path><path d="M54.501 23.2602C54.6114 23.3706 54.8041 23.3708 54.9147 23.2602L56.2233 21.9517C56.7752 21.3997 56.7752 20.5017 56.2233 19.9498L55.1382 18.8647C54.8708 18.5973 54.5153 18.45 54.1373 18.45C53.7591 18.45 53.4036 18.5973 53.1362 18.8647L51.8276 20.1732C51.7137 20.2872 51.7137 20.4729 51.8276 20.5869L54.501 23.2602Z" fill="white"></path><path d="M44.8469 15.5661L47.8133 15.2432C47.8597 15.2381 47.8933 15.1964 47.8882 15.15C47.8709 14.9914 47.8094 14.8374 47.6981 14.7232C47.5474 14.5687 47.3431 14.4969 47.133 14.5187L45.4394 14.703C45.0654 14.7439 44.7941 15.0813 44.8349 15.4553L44.8469 15.5661Z" fill="white"></path><path d="M47.7838 15.4986L44.958 15.8063C44.9116 15.8113 44.878 15.8531 44.8831 15.8995L45.1205 18.0824C45.1275 18.1466 45.2011 18.1796 45.2537 18.1421L47.9602 16.2119C47.9852 16.1942 47.9985 16.1643 47.9952 16.1339L47.9397 15.6239C47.9312 15.5463 47.8614 15.4902 47.7838 15.4986Z" fill="white"></path><path d="M49.6875 23.8868L48.8588 16.3783C48.848 16.2809 48.7883 16.199 48.699 16.1589C48.6628 16.1428 48.6247 16.1348 48.587 16.1348C48.5313 16.1348 48.4765 16.152 48.429 16.1859L44.778 18.7895C44.6965 18.8477 44.6534 18.9456 44.6656 19.0449L45.7307 27.7442C45.7503 27.9043 45.8156 28.0487 45.9115 28.1664C46.6776 26.0905 47.915 24.688 49.6875 23.8868Z" fill="white"></path><path d="M52.4731 24.1078H51.7093C51.6625 24.1078 51.6247 24.1457 51.6247 24.1924V26.9207C51.6247 26.9899 51.5685 27.0461 51.4993 27.0461C51.4301 27.0461 51.3739 26.9899 51.3739 26.9207V24.1924C51.3739 24.1457 51.336 24.1078 51.2893 24.1078H49.824C49.8196 24.1078 49.8157 24.1059 49.8114 24.1055C48.0661 24.8877 46.8547 26.2759 46.1125 28.3445C46.2414 28.4259 46.393 28.4736 46.5549 28.4736H51.2893C51.336 28.4736 51.3739 28.4358 51.3739 28.389V27.558C51.3739 27.4888 51.4301 27.4326 51.4993 27.4326C51.5685 27.4326 51.6247 27.4888 51.6247 27.558V28.389C51.6247 28.4358 51.6625 28.4736 51.7093 28.4736H52.4731C52.6346 28.4736 52.7656 28.3427 52.7656 28.1811V27.558V25.0235V24.4003C52.7656 24.2388 52.6346 24.1078 52.4731 24.1078Z" fill="white"></path><path d="M54.5929 25.1489H53.1012C53.0545 25.1489 53.0166 25.1868 53.0166 25.2335V27.348C53.0166 27.3947 53.0545 27.4326 53.1012 27.4326H54.5927C54.8172 27.4326 54.9992 27.2506 54.9992 27.0261V25.5553C54.9992 25.3308 54.8173 25.1489 54.5929 25.1489Z" fill="white"></path><path d="M57.1509 26.0242H55.842C55.6949 26.0242 55.5752 26.1439 55.5752 26.291C55.5752 26.4381 55.6949 26.5578 55.842 26.5578H57.1509C57.298 26.5578 57.4177 26.4381 57.4177 26.291C57.4177 26.1439 57.298 26.0242 57.1509 26.0242Z" fill="white"></path><path d="M55.6025 25.7161V25.7162C55.6478 25.8082 55.7395 25.8652 55.8421 25.8652C55.8824 25.8652 55.923 25.8558 55.9598 25.8379L56.9468 25.3522C57.0786 25.2873 57.1332 25.127 57.0684 24.9951C57.0036 24.8635 56.8441 24.8087 56.7111 24.8733L55.724 25.3591C55.5923 25.424 55.5377 25.5842 55.6025 25.7161Z" fill="white"></path><path d="M56.9468 27.2056L55.9596 26.7199C55.8276 26.6551 55.6674 26.7097 55.6025 26.8417C55.5377 26.9736 55.5923 27.1338 55.7241 27.1989L56.7115 27.6846C56.7478 27.7024 56.7884 27.7118 56.8288 27.7118C56.9314 27.7118 57.0231 27.6548 57.0684 27.5627C57.1331 27.4308 57.0786 27.2705 56.9468 27.2056Z" fill="white"></path></svg>