<svg xmlns="http://www.w3.org/2000/svg" width="100" height="84" viewBox="0 0 100 84" fill="none"><path d="M0.599121 17.9889V40.6868C0.599121 48.1326 5.18721 54.5145 11.6948 57.1514C13.7616 57.9956 16.0188 58.459 18.3814 58.459H59.631C60.5489 61.3802 61.5823 63.9535 62.6893 66.2222C70.2418 81.8107 81.0937 83.1717 81.0937 83.1717C77.3499 79.5434 74.9022 74.3116 73.3204 69.1014C72.16 65.336 71.4428 61.5808 71.0111 58.459H81.9164C82.2224 58.459 82.5283 58.4488 82.8228 58.4272C82.9917 58.4272 83.1605 58.4057 83.3294 58.3955C83.403 58.3955 83.4881 58.3955 83.5617 58.3739C88.0546 57.9727 92.0625 55.8844 94.9418 52.7626C97.8947 49.5888 99.6987 45.3485 99.6987 40.6868V17.9889C99.6987 8.16904 91.7362 0.206543 81.9164 0.206543H18.3827C8.56289 0.206543 0.600388 8.16904 0.600388 17.9889H0.599121Z" fill="#FD3A84"></path><path d="M25.8495 45.4402V37.0892H29.1183C29.7148 37.0892 30.2517 37.1886 30.7289 37.3874C31.2141 37.5863 31.6276 37.8726 31.9696 38.2464C32.3116 38.6202 32.5741 39.0616 32.757 39.5706C32.9399 40.0796 33.0314 40.6443 33.0314 41.2647C33.0314 41.885 32.9399 42.4537 32.757 42.9707C32.5741 43.4797 32.3116 43.9211 31.9696 44.2949C31.6356 44.6608 31.226 44.9431 30.7408 45.1419C30.2557 45.3408 29.7148 45.4402 29.1183 45.4402H25.8495ZM27.138 44.3307L27.1022 44.1995H29.0587C29.4802 44.1995 29.854 44.1319 30.1801 43.9967C30.5142 43.8614 30.7925 43.6706 31.0152 43.424C31.2459 43.1695 31.4208 42.8593 31.5401 42.4935C31.6594 42.1276 31.7191 41.718 31.7191 41.2647C31.7191 40.8113 31.6594 40.4057 31.5401 40.0478C31.4208 39.682 31.2459 39.3718 31.0152 39.1173C30.7846 38.8628 30.5062 38.6679 30.1801 38.5327C29.854 38.3975 29.4802 38.3299 29.0587 38.3299H27.0664L27.138 38.2225V44.3307ZM37.625 45.5595C36.9808 45.5595 36.4081 45.4243 35.9071 45.1539C35.414 44.8755 35.0243 44.4977 34.7379 44.0205C34.4596 43.5433 34.3204 42.9945 34.3204 42.3742C34.3204 41.8811 34.3999 41.4317 34.559 41.0261C34.7181 40.6205 34.9368 40.2705 35.2151 39.9762C35.5015 39.674 35.8395 39.4434 36.2292 39.2843C36.6269 39.1173 37.0563 39.0338 37.5176 39.0338C37.9233 39.0338 38.301 39.1133 38.651 39.2724C39.0009 39.4235 39.3032 39.6342 39.5577 39.9047C39.8201 40.1751 40.019 40.4972 40.1542 40.871C40.2973 41.2368 40.3649 41.6385 40.357 42.0759L40.345 42.6008H35.2271L34.9527 41.6226H39.2833L39.1043 41.8254V41.5391C39.0805 41.2766 38.993 41.042 38.8419 40.8352C38.6907 40.6284 38.4999 40.4654 38.2692 40.3461C38.0386 40.2268 37.788 40.1671 37.5176 40.1671C37.0882 40.1671 36.7263 40.2506 36.432 40.4177C36.1377 40.5767 35.915 40.8153 35.7639 41.1335C35.6128 41.4436 35.5373 41.8294 35.5373 42.2907C35.5373 42.7281 35.6287 43.1099 35.8116 43.4359C35.9946 43.7541 36.2531 44.0006 36.5871 44.1756C36.9211 44.3506 37.3069 44.4381 37.7443 44.4381C38.0545 44.4381 38.3408 44.3864 38.6033 44.283C38.8737 44.1796 39.164 43.9927 39.4742 43.7223L40.0945 44.5932C39.9036 44.784 39.669 44.9511 39.3906 45.0942C39.1202 45.2374 38.8299 45.3527 38.5198 45.4402C38.2175 45.5197 37.9193 45.5595 37.625 45.5595ZM44.0187 45.5595C43.4938 45.5595 43.0206 45.468 42.5991 45.2851C42.1775 45.1022 41.8276 44.8318 41.5492 44.4739L42.3843 43.7581C42.6229 44.0364 42.8814 44.2392 43.1598 44.3665C43.4461 44.4858 43.7682 44.5454 44.1261 44.5454C44.2693 44.5454 44.4005 44.5295 44.5198 44.4977C44.6471 44.4579 44.7544 44.4023 44.8419 44.3307C44.9373 44.2591 45.0089 44.1756 45.0566 44.0802C45.1044 43.9768 45.1282 43.8654 45.1282 43.7461C45.1282 43.5393 45.0527 43.3723 44.9016 43.2451C44.822 43.1894 44.6948 43.1297 44.5198 43.0661C44.3528 42.9945 44.1341 42.923 43.8636 42.8514C43.4024 42.7321 43.0246 42.5969 42.7303 42.4458C42.436 42.2946 42.2094 42.1236 42.0503 41.9328C41.931 41.7817 41.8435 41.6186 41.7878 41.4436C41.7322 41.2607 41.7043 41.0619 41.7043 40.8471C41.7043 40.4972 41.8037 40.187 42.0026 39.9166C42.2014 39.6462 42.4678 39.4354 42.8019 39.2843C43.1439 39.1252 43.5256 39.0457 43.9472 39.0457C44.2414 39.0457 44.5317 39.0855 44.818 39.165C45.1123 39.2445 45.3827 39.3599 45.6293 39.511C45.8758 39.6621 46.0826 39.841 46.2496 40.0478L45.5458 40.8233C45.3947 40.6722 45.2276 40.5409 45.0447 40.4296C44.8697 40.3103 44.6908 40.2188 44.5079 40.1552C44.3249 40.0916 44.1579 40.0598 44.0068 40.0598C43.8398 40.0598 43.6887 40.0757 43.5535 40.1075C43.4183 40.1393 43.3029 40.187 43.2075 40.2506C43.12 40.3143 43.0524 40.3938 43.0047 40.4892C42.957 40.5847 42.9331 40.692 42.9331 40.8113C42.9411 40.9147 42.9649 41.0142 43.0047 41.1096C43.0524 41.1971 43.116 41.2726 43.1956 41.3363C43.2831 41.3999 43.4143 41.4675 43.5893 41.5391C43.7642 41.6107 43.9869 41.6783 44.2573 41.7419C44.655 41.8453 44.9811 41.9606 45.2356 42.0879C45.4981 42.2072 45.7048 42.3463 45.856 42.5054C46.015 42.6565 46.1264 42.8315 46.19 43.0303C46.2536 43.2292 46.2854 43.4519 46.2854 43.6984C46.2854 44.0563 46.182 44.3784 45.9753 44.6647C45.7764 44.9431 45.506 45.1618 45.164 45.3209C44.822 45.48 44.4403 45.5595 44.0187 45.5595ZM49.966 45.5595C49.4411 45.5595 48.9679 45.468 48.5464 45.2851C48.1248 45.1022 47.7749 44.8318 47.4965 44.4739L48.3316 43.7581C48.5702 44.0364 48.8287 44.2392 49.1071 44.3665C49.3934 44.4858 49.7155 44.5454 50.0734 44.5454C50.2166 44.5454 50.3478 44.5295 50.4671 44.4977C50.5943 44.4579 50.7017 44.4023 50.7892 44.3307C50.8846 44.2591 50.9562 44.1756 51.0039 44.0802C51.0517 43.9768 51.0755 43.8654 51.0755 43.7461C51.0755 43.5393 51 43.3723 50.8489 43.2451C50.7693 43.1894 50.6421 43.1297 50.4671 43.0661C50.3001 42.9945 50.0814 42.923 49.8109 42.8514C49.3496 42.7321 48.9719 42.5969 48.6776 42.4458C48.3833 42.2946 48.1566 42.1236 47.9976 41.9328C47.8783 41.7817 47.7908 41.6186 47.7351 41.4436C47.6794 41.2607 47.6516 41.0619 47.6516 40.8471C47.6516 40.4972 47.751 40.187 47.9499 39.9166C48.1487 39.6462 48.4151 39.4354 48.7492 39.2843C49.0912 39.1252 49.4729 39.0457 49.8945 39.0457C50.1887 39.0457 50.479 39.0855 50.7653 39.165C51.0596 39.2445 51.33 39.3599 51.5766 39.511C51.8231 39.6621 52.0299 39.841 52.1969 40.0478L51.4931 40.8233C51.342 40.6722 51.1749 40.5409 50.992 40.4296C50.817 40.3103 50.6381 40.2188 50.4552 40.1552C50.2722 40.0916 50.1052 40.0598 49.9541 40.0598C49.7871 40.0598 49.636 40.0757 49.5008 40.1075C49.3656 40.1393 49.2502 40.187 49.1548 40.2506C49.0673 40.3143 48.9997 40.3938 48.952 40.4892C48.9043 40.5847 48.8804 40.692 48.8804 40.8113C48.8884 40.9147 48.9122 41.0142 48.952 41.1096C48.9997 41.1971 49.0633 41.2726 49.1429 41.3363C49.2303 41.3999 49.3616 41.4675 49.5366 41.5391C49.7115 41.6107 49.9342 41.6783 50.2046 41.7419C50.6023 41.8453 50.9284 41.9606 51.1829 42.0879C51.4454 42.2072 51.6521 42.3463 51.8033 42.5054C51.9623 42.6565 52.0737 42.8315 52.1373 43.0303C52.2009 43.2292 52.2327 43.4519 52.2327 43.6984C52.2327 44.0563 52.1293 44.3784 51.9226 44.6647C51.7237 44.9431 51.4533 45.1618 51.1113 45.3209C50.7693 45.48 50.3876 45.5595 49.966 45.5595ZM56.7484 45.5595C56.1042 45.5595 55.5316 45.4243 55.0305 45.1539C54.5374 44.8755 54.1477 44.4977 53.8614 44.0205C53.583 43.5433 53.4438 42.9945 53.4438 42.3742C53.4438 41.8811 53.5233 41.4317 53.6824 41.0261C53.8415 40.6205 54.0602 40.2705 54.3386 39.9762C54.6249 39.674 54.9629 39.4434 55.3526 39.2843C55.7503 39.1173 56.1798 39.0338 56.6411 39.0338C57.0467 39.0338 57.4245 39.1133 57.7744 39.2724C58.1244 39.4235 58.4266 39.6342 58.6811 39.9047C58.9435 40.1751 59.1424 40.4972 59.2776 40.871C59.4207 41.2368 59.4884 41.6385 59.4804 42.0759L59.4685 42.6008H54.3505L54.0761 41.6226H58.4067L58.2277 41.8254V41.5391C58.2039 41.2766 58.1164 41.042 57.9653 40.8352C57.8142 40.6284 57.6233 40.4654 57.3926 40.3461C57.162 40.2268 56.9115 40.1671 56.6411 40.1671C56.2116 40.1671 55.8497 40.2506 55.5554 40.4177C55.2612 40.5767 55.0385 40.8153 54.8873 41.1335C54.7362 41.4436 54.6607 41.8294 54.6607 42.2907C54.6607 42.7281 54.7521 43.1099 54.9351 43.4359C55.118 43.7541 55.3765 44.0006 55.7105 44.1756C56.0446 44.3506 56.4303 44.4381 56.8677 44.4381C57.1779 44.4381 57.4642 44.3864 57.7267 44.283C57.9971 44.1796 58.2874 43.9927 58.5976 43.7223L59.2179 44.5932C59.0271 44.784 58.7924 44.9511 58.5141 45.0942C58.2437 45.2374 57.9534 45.3527 57.6432 45.4402C57.341 45.5197 57.0427 45.5595 56.7484 45.5595ZM61.0544 45.4402V39.1769H62.2951V41.1454L62.1758 40.6682C62.2633 40.366 62.4105 40.0916 62.6172 39.845C62.832 39.5985 63.0746 39.4036 63.345 39.2604C63.6233 39.1173 63.9097 39.0457 64.2039 39.0457C64.3391 39.0457 64.4664 39.0576 64.5857 39.0815C64.7129 39.1054 64.8124 39.1332 64.8839 39.165L64.5618 40.5012C64.4664 40.4614 64.359 40.4296 64.2397 40.4057C64.1284 40.3739 64.017 40.358 63.9057 40.358C63.6909 40.358 63.4842 40.4017 63.2853 40.4892C63.0944 40.5688 62.9234 40.6841 62.7723 40.8352C62.6292 40.9784 62.5138 41.1494 62.4264 41.3482C62.3389 41.5391 62.2951 41.7498 62.2951 41.9805V45.4402H61.0544ZM67.1131 45.4402V37.5783H68.3419V45.4402H67.1131ZM65.8127 40.3699V39.1769H69.7973V40.3699H65.8127ZM73.4756 45.5595C72.9507 45.5595 72.4775 45.468 72.0559 45.2851C71.6344 45.1022 71.2845 44.8318 71.0061 44.4739L71.8412 43.7581C72.0798 44.0364 72.3383 44.2392 72.6166 44.3665C72.903 44.4858 73.2251 44.5454 73.583 44.5454C73.7261 44.5454 73.8574 44.5295 73.9767 44.4977C74.1039 44.4579 74.2113 44.4023 74.2988 44.3307C74.3942 44.2591 74.4658 44.1756 74.5135 44.0802C74.5612 43.9768 74.5851 43.8654 74.5851 43.7461C74.5851 43.5393 74.5095 43.3723 74.3584 43.2451C74.2789 43.1894 74.1516 43.1297 73.9767 43.0661C73.8096 42.9945 73.5909 42.923 73.3205 42.8514C72.8592 42.7321 72.4814 42.5969 72.1872 42.4458C71.8929 42.2946 71.6662 42.1236 71.5071 41.9328C71.3878 41.7817 71.3004 41.6186 71.2447 41.4436C71.189 41.2607 71.1612 41.0619 71.1612 40.8471C71.1612 40.4972 71.2606 40.187 71.4594 39.9166C71.6583 39.6462 71.9247 39.4354 72.2587 39.2843C72.6007 39.1252 72.9825 39.0457 73.404 39.0457C73.6983 39.0457 73.9886 39.0855 74.2749 39.165C74.5692 39.2445 74.8396 39.3599 75.0861 39.511C75.3327 39.6621 75.5395 39.841 75.7065 40.0478L75.0026 40.8233C74.8515 40.6722 74.6845 40.5409 74.5016 40.4296C74.3266 40.3103 74.1477 40.2188 73.9647 40.1552C73.7818 40.0916 73.6148 40.0598 73.4637 40.0598C73.2966 40.0598 73.1455 40.0757 73.0103 40.1075C72.8751 40.1393 72.7598 40.187 72.6644 40.2506C72.5769 40.3143 72.5093 40.3938 72.4615 40.4892C72.4138 40.5847 72.39 40.692 72.39 40.8113C72.3979 40.9147 72.4218 41.0142 72.4615 41.1096C72.5093 41.1971 72.5729 41.2726 72.6524 41.3363C72.7399 41.3999 72.8711 41.4675 73.0461 41.5391C73.2211 41.6107 73.4438 41.6783 73.7142 41.7419C74.1119 41.8453 74.4379 41.9606 74.6925 42.0879C74.9549 42.2072 75.1617 42.3463 75.3128 42.5054C75.4719 42.6565 75.5832 42.8315 75.6469 43.0303C75.7105 43.2292 75.7423 43.4519 75.7423 43.6984C75.7423 44.0563 75.6389 44.3784 75.4321 44.6647C75.2333 44.9431 74.9629 45.1618 74.6209 45.3209C74.2789 45.48 73.8971 45.5595 73.4756 45.5595Z" fill="white"></path><g clip-path="url(#clip0_6201_182)"><path d="M57.3668 23.8727C57.267 23.9315 57.162 23.9799 57.0535 24.0183V29.1795C57.4778 29.0605 58.129 28.8236 58.7324 28.3276C59.7388 27.5004 60.249 26.2868 60.249 24.7207V20.9543C60.0217 21.3257 59.7633 21.6844 59.4741 22.0281C58.5165 23.1662 57.5507 23.7643 57.3668 23.8727Z" fill="white"></path><path d="M54.0577 24.1216C54.0577 24.4956 53.9715 24.8497 53.8181 25.1654L55.8552 25.8749V24.0188L54.0577 23.3928V24.1216Z" fill="white"></path><path d="M49.2644 21.7234L39.7976 18.4265V20.2826L49.2644 23.5795V21.7234Z" fill="white"></path><path d="M51.661 26.5182C50.6094 26.5182 49.7145 25.8371 49.3925 24.8931L39.7976 21.5515V23.1229C39.7976 23.3779 39.9589 23.6049 40.1997 23.6887L55.8552 29.1409V27.1437L52.9586 26.135C52.5843 26.377 52.139 26.5182 51.661 26.5182Z" fill="white"></path><path d="M46.668 13.721C46.668 15.1527 47.8327 16.3174 49.2643 16.3174C50.696 16.3174 51.8607 15.1527 51.8607 13.721C51.8607 12.4794 50.9845 11.4392 49.8181 11.1847C49.6505 10.1934 49.0253 9.33679 48.1032 8.87572L47.9345 8.7914C47.6387 8.64344 47.2787 8.7634 47.1306 9.05934C46.9826 9.35529 47.1026 9.71523 47.3986 9.86318L47.5673 9.9475C48.0869 10.2074 48.4553 10.6688 48.5987 11.2115C47.4886 11.5062 46.668 12.5194 46.668 13.721Z" fill="white"></path><path d="M60.249 16.7319C60.249 16.5664 60.2094 12.657 56.7585 10.6235C56.6066 10.5339 56.4229 10.5159 56.2564 10.5742C55.7529 10.7504 54.3528 11.238 52.5696 11.8587C52.881 12.4092 53.0591 13.0447 53.0591 13.721C53.0591 15.8134 51.3568 17.5157 49.2644 17.5157C47.3735 17.5157 45.8014 16.1256 45.5161 14.3137C43.0655 15.1667 40.981 15.8926 40.1988 16.1663C39.9583 16.2505 39.7974 16.4775 39.7976 16.7324C39.7978 16.9871 39.9591 17.2139 40.1997 17.2977L50.4627 20.8719V24.1215C50.4627 24.7833 50.9992 25.3198 51.661 25.3198C52.3229 25.3198 52.8594 24.7833 52.8594 24.1215V21.7065L56.2573 22.8898C56.3213 22.9122 56.3879 22.9232 56.4543 22.9232C56.5601 22.9232 56.6653 22.8951 56.7585 22.8402C56.9011 22.7563 60.249 20.7372 60.249 16.7319ZM53.858 17.1313C53.5271 17.1313 53.2588 16.8631 53.2588 16.5322C53.2588 16.2013 53.5271 15.933 53.858 15.933C54.1889 15.933 54.4571 16.2013 54.4571 16.5322C54.4571 16.8631 54.1889 17.1313 53.858 17.1313ZM55.0563 19.9274C54.7254 19.9274 54.4571 19.6591 54.4571 19.3282C54.4571 18.9974 54.7254 18.7291 55.0563 18.7291C55.3872 18.7291 55.6555 18.9974 55.6555 19.3282C55.6555 19.6591 55.3872 19.9274 55.0563 19.9274ZM56.2546 14.7347C55.9237 14.7347 55.6555 14.4664 55.6555 14.1355C55.6555 13.8046 55.9237 13.5363 56.2546 13.5363C56.5855 13.5363 56.8538 13.8046 56.8538 14.1355C56.8538 14.4664 56.5855 14.7347 56.2546 14.7347ZM57.0535 17.5308C56.7226 17.5308 56.4543 17.2625 56.4543 16.9316C56.4543 16.6007 56.7226 16.3324 57.0535 16.3324C57.3844 16.3324 57.6527 16.6007 57.6527 16.9316C57.6527 17.2625 57.3844 17.5308 57.0535 17.5308Z" fill="white"></path></g><defs><clipPath id="clip0_6201_182"><rect width="20.4514" height="20.4514" fill="white" transform="translate(39.7976 8.72803)"></rect></clipPath></defs></svg>