<svg xmlns="http://www.w3.org/2000/svg" width="96" height="73" viewBox="0 0 96 73" fill="none"><path d="M0.677979 16.8726V38.4144C0.677979 47.7344 8.27421 55.287 17.6456 55.287H24.6562C23.3803 67.3967 14.3489 72.1404 13.7815 72.4322C18.8737 71.3794 23.1062 69.6233 26.5927 67.5844C28.9353 66.2218 30.939 64.719 32.6299 63.2252C36.0209 60.2376 38.194 57.2602 39.4222 55.287H78.2983C87.6696 55.287 95.2659 47.7333 95.2659 38.4144V16.8726C95.2659 7.55374 87.6696 0 78.2983 0H17.6456C8.27421 0 0.677979 7.55374 0.677979 16.8726Z" fill="#C75A1F"></path><path d="M16.3651 45.2336V36.8826H21.6262V38.1234H17.6535V43.9929H21.6262V45.2336H16.3651ZM16.9497 41.5711V40.3304H20.9701V41.5711H16.9497ZM23.6455 45.2336V36.4054H24.8743V45.2336H23.6455ZM29.6607 45.3529C29.0165 45.3529 28.4438 45.2177 27.9428 44.9473C27.4497 44.669 27.06 44.2912 26.7736 43.814C26.4953 43.3368 26.3561 42.788 26.3561 42.1676C26.3561 41.6745 26.4356 41.2252 26.5947 40.8195C26.7538 40.4139 26.9725 40.064 27.2508 39.7697C27.5372 39.4675 27.8752 39.2368 28.2649 39.0778C28.6626 38.9107 29.092 38.8272 29.5533 38.8272C29.9589 38.8272 30.3367 38.9068 30.6867 39.0658C31.0366 39.2169 31.3389 39.4277 31.5934 39.6981C31.8558 39.9685 32.0547 40.2906 32.1899 40.6645C32.333 41.0303 32.4006 41.4319 32.3927 41.8694L32.3807 42.3943H27.2628L26.9884 41.416H31.319L31.14 41.6189V41.3325C31.1162 41.0701 31.0287 40.8354 30.8776 40.6287C30.7264 40.4219 30.5356 40.2588 30.3049 40.1395C30.0743 40.0202 29.8237 39.9606 29.5533 39.9606C29.1238 39.9606 28.762 40.0441 28.4677 40.2111C28.1734 40.3702 27.9507 40.6088 27.7996 40.9269C27.6485 41.2371 27.5729 41.6228 27.5729 42.0841C27.5729 42.5216 27.6644 42.9033 27.8473 43.2294C28.0303 43.5475 28.2887 43.7941 28.6228 43.9691C28.9568 44.144 29.3426 44.2315 29.78 44.2315C30.0902 44.2315 30.3765 44.1798 30.639 44.0764C30.9094 43.973 31.1997 43.7861 31.5099 43.5157L32.1302 44.3866C31.9393 44.5775 31.7047 44.7445 31.4263 44.8877C31.1559 45.0308 30.8656 45.1462 30.5554 45.2336C30.2532 45.3132 29.955 45.3529 29.6607 45.3529ZM36.6271 45.3529C36.0465 45.3529 35.5255 45.2098 35.0642 44.9235C34.6109 44.6371 34.249 44.2474 33.9786 43.7543C33.7162 43.2612 33.5849 42.7085 33.5849 42.0961C33.5849 41.4836 33.7162 40.9309 33.9786 40.4378C34.249 39.9447 34.6109 39.555 35.0642 39.2686C35.5255 38.9823 36.0465 38.8392 36.6271 38.8392C37.1838 38.8392 37.6888 38.9545 38.1422 39.1851C38.6035 39.4078 38.9534 39.714 39.192 40.1037L38.512 40.9388C38.3848 40.7559 38.2217 40.5889 38.0229 40.4378C37.8241 40.2867 37.6133 40.1674 37.3906 40.0799C37.1679 39.9924 36.9532 39.9487 36.7464 39.9487C36.3646 39.9487 36.0226 40.0441 35.7204 40.235C35.4261 40.4179 35.1915 40.6724 35.0165 40.9985C34.8416 41.3246 34.7541 41.6904 34.7541 42.0961C34.7541 42.5017 34.8455 42.8675 35.0285 43.1936C35.2114 43.5117 35.454 43.7663 35.7562 43.9571C36.0584 44.148 36.3925 44.2435 36.7583 44.2435C36.973 44.2435 37.1798 44.2077 37.3787 44.1361C37.5855 44.0645 37.7843 43.9571 37.9752 43.814C38.166 43.6708 38.345 43.4958 38.512 43.2891L39.192 44.1242C38.9375 44.4821 38.5717 44.7763 38.0945 45.007C37.6252 45.2376 37.1361 45.3529 36.6271 45.3529ZM41.3652 45.2336V37.3718H42.5939V45.2336H41.3652ZM40.0648 40.1634V38.9704H44.0494V40.1634H40.0648ZM45.4069 45.2336V38.9704H46.6476V40.9388L46.5283 40.4616C46.6158 40.1594 46.763 39.885 46.9697 39.6385C47.1845 39.3919 47.4271 39.1971 47.6975 39.0539C47.9758 38.9107 48.2622 38.8392 48.5564 38.8392C48.6916 38.8392 48.8189 38.8511 48.9382 38.8749C49.0654 38.8988 49.1649 38.9266 49.2364 38.9585L48.9143 40.2946C48.8189 40.2549 48.7115 40.223 48.5922 40.1992C48.4809 40.1674 48.3695 40.1515 48.2582 40.1515C48.0434 40.1515 47.8367 40.1952 47.6378 40.2827C47.4469 40.3622 47.2759 40.4775 47.1248 40.6287C46.9817 40.7718 46.8663 40.9428 46.7789 41.1417C46.6914 41.3325 46.6476 41.5433 46.6476 41.7739V45.2336H45.4069ZM53.0046 45.3529C52.3922 45.3529 51.8435 45.2138 51.3583 44.9354C50.8811 44.6491 50.5033 44.2633 50.225 43.7782C49.9466 43.2851 49.8074 42.7244 49.8074 42.0961C49.8074 41.4677 49.9466 40.911 50.225 40.4259C50.5033 39.9327 50.8811 39.547 51.3583 39.2686C51.8435 38.9823 52.3922 38.8392 53.0046 38.8392C53.6091 38.8392 54.1499 38.9823 54.6271 39.2686C55.1123 39.547 55.494 39.9327 55.7724 40.4259C56.0508 40.911 56.19 41.4677 56.19 42.0961C56.19 42.7244 56.0508 43.2851 55.7724 43.7782C55.494 44.2633 55.1123 44.6491 54.6271 44.9354C54.1499 45.2138 53.6091 45.3529 53.0046 45.3529ZM53.0046 44.2315C53.3784 44.2315 53.7125 44.1401 54.0068 43.9571C54.301 43.7663 54.5317 43.5117 54.6987 43.1936C54.8657 42.8675 54.9453 42.5017 54.9373 42.0961C54.9453 41.6825 54.8657 41.3166 54.6987 40.9985C54.5317 40.6724 54.301 40.4179 54.0068 40.235C53.7125 40.052 53.3784 39.9606 53.0046 39.9606C52.6308 39.9606 52.2928 40.056 51.9906 40.2469C51.6963 40.4298 51.4657 40.6843 51.2987 41.0104C51.1316 41.3286 51.0521 41.6904 51.0601 42.0961C51.0521 42.5017 51.1316 42.8675 51.2987 43.1936C51.4657 43.5117 51.6963 43.7663 51.9906 43.9571C52.2928 44.1401 52.6308 44.2315 53.0046 44.2315ZM57.7675 45.2336V38.9704H58.9963V40.2588L58.7816 40.402C58.8611 40.1236 59.0162 39.8691 59.2468 39.6385C59.4775 39.3999 59.7519 39.209 60.07 39.0658C60.3881 38.9147 60.7142 38.8392 61.0483 38.8392C61.5255 38.8392 61.9231 38.9346 62.2413 39.1255C62.5594 39.3084 62.798 39.5908 62.9571 39.9725C63.1161 40.3543 63.1957 40.8354 63.1957 41.416V45.2336H61.9669V41.4996C61.9669 41.1417 61.9192 40.8474 61.8237 40.6167C61.7283 40.3781 61.5811 40.2071 61.3823 40.1037C61.1835 39.9924 60.9369 39.9447 60.6426 39.9606C60.404 39.9606 60.1853 40.0003 59.9865 40.0799C59.7877 40.1515 59.6127 40.2549 59.4616 40.3901C59.3184 40.5253 59.2031 40.6843 59.1156 40.8673C59.0361 41.0422 58.9963 41.2331 58.9963 41.4399V45.2336H58.3879C58.2845 45.2336 58.1811 45.2336 58.0777 45.2336C57.9743 45.2336 57.8709 45.2336 57.7675 45.2336ZM65.304 45.2336V38.9704H66.5328V45.2336H65.304ZM65.9005 37.5865C65.6381 37.5865 65.4352 37.5189 65.2921 37.3837C65.1489 37.2485 65.0773 37.0576 65.0773 36.8111C65.0773 36.5804 65.1489 36.3935 65.2921 36.2503C65.4432 36.1072 65.646 36.0356 65.9005 36.0356C66.163 36.0356 66.3658 36.1032 66.5089 36.2384C66.6521 36.3736 66.7237 36.5645 66.7237 36.8111C66.7237 37.0417 66.6481 37.2286 66.497 37.3718C66.3539 37.5149 66.155 37.5865 65.9005 37.5865ZM71.3206 45.3529C70.74 45.3529 70.219 45.2098 69.7577 44.9235C69.3044 44.6371 68.9425 44.2474 68.6721 43.7543C68.4096 43.2612 68.2784 42.7085 68.2784 42.0961C68.2784 41.4836 68.4096 40.9309 68.6721 40.4378C68.9425 39.9447 69.3044 39.555 69.7577 39.2686C70.219 38.9823 70.74 38.8392 71.3206 38.8392C71.8773 38.8392 72.3823 38.9545 72.8357 39.1851C73.297 39.4078 73.6469 39.714 73.8855 40.1037L73.2055 40.9388C73.0782 40.7559 72.9152 40.5889 72.7164 40.4378C72.5175 40.2867 72.3068 40.1674 72.0841 40.0799C71.8614 39.9924 71.6466 39.9487 71.4399 39.9487C71.0581 39.9487 70.7161 40.0441 70.4139 40.235C70.1196 40.4179 69.885 40.6724 69.71 40.9985C69.535 41.3246 69.4475 41.6904 69.4475 42.0961C69.4475 42.5017 69.539 42.8675 69.7219 43.1936C69.9049 43.5117 70.1474 43.7663 70.4497 43.9571C70.7519 44.148 71.0859 44.2435 71.4518 44.2435C71.6665 44.2435 71.8733 44.2077 72.0721 44.1361C72.2789 44.0645 72.4778 43.9571 72.6686 43.814C72.8595 43.6708 73.0385 43.4958 73.2055 43.2891L73.8855 44.1242C73.631 44.4821 73.2651 44.7763 72.7879 45.007C72.3187 45.2376 71.8296 45.3529 71.3206 45.3529ZM77.3709 45.3529C76.846 45.3529 76.3728 45.2615 75.9513 45.0786C75.5297 44.8956 75.1798 44.6252 74.9014 44.2673L75.7365 43.5515C75.9751 43.8299 76.2336 44.0327 76.512 44.1599C76.7983 44.2792 77.1204 44.3389 77.4783 44.3389C77.6215 44.3389 77.7527 44.323 77.872 44.2912C77.9992 44.2514 78.1066 44.1957 78.1941 44.1242C78.2895 44.0526 78.3611 43.9691 78.4088 43.8736C78.4566 43.7702 78.4804 43.6589 78.4804 43.5396C78.4804 43.3328 78.4049 43.1658 78.2537 43.0385C78.1742 42.9828 78.047 42.9232 77.872 42.8596C77.705 42.788 77.4863 42.7164 77.2158 42.6448C76.7545 42.5255 76.3768 42.3903 76.0825 42.2392C75.7882 42.0881 75.5615 41.9171 75.4025 41.7262C75.2832 41.5751 75.1957 41.4121 75.14 41.2371C75.0843 41.0542 75.0565 40.8553 75.0565 40.6406C75.0565 40.2906 75.1559 39.9805 75.3548 39.7101C75.5536 39.4396 75.82 39.2289 76.1541 39.0778C76.4961 38.9187 76.8778 38.8392 77.2993 38.8392C77.5936 38.8392 77.8839 38.8789 78.1702 38.9585C78.4645 39.038 78.7349 39.1533 78.9815 39.3044C79.228 39.4555 79.4348 39.6345 79.6018 39.8413L78.898 40.6167C78.7469 40.4656 78.5798 40.3344 78.3969 40.223C78.2219 40.1037 78.043 40.0123 77.8601 39.9487C77.6771 39.885 77.5101 39.8532 77.359 39.8532C77.192 39.8532 77.0409 39.8691 76.9057 39.9009C76.7705 39.9327 76.6551 39.9805 76.5597 40.0441C76.4722 40.1077 76.4046 40.1873 76.3569 40.2827C76.3092 40.3781 76.2853 40.4855 76.2853 40.6048C76.2933 40.7082 76.3171 40.8076 76.3569 40.9031C76.4046 40.9905 76.4682 41.0661 76.5478 41.1297C76.6352 41.1933 76.7665 41.261 76.9414 41.3325C77.1164 41.4041 77.3391 41.4717 77.6095 41.5353C78.0072 41.6387 78.3333 41.7541 78.5878 41.8813C78.8502 42.0006 79.057 42.1398 79.2081 42.2989C79.3672 42.45 79.4786 42.6249 79.5422 42.8238C79.6058 43.0226 79.6376 43.2453 79.6376 43.4919C79.6376 43.8498 79.5342 44.1719 79.3274 44.4582C79.1286 44.7366 78.8582 44.9553 78.5162 45.1143C78.1742 45.2734 77.7925 45.3529 77.3709 45.3529Z" fill="white"></path><g clip-path="url(#clip0_6201_225)"><path d="M49.6646 15.3005V14.6157H40.078V28.3109H46.2408V15.6429C46.2408 15.4537 46.3941 15.3005 46.5832 15.3005H49.6646ZM41.4475 17.3548C41.4475 17.5439 41.2943 17.6971 41.1051 17.6971C40.916 17.6971 40.7628 17.5439 40.7628 17.3548V15.3005C40.7628 15.1114 40.916 14.9581 41.1051 14.9581C41.2943 14.9581 41.4475 15.1114 41.4475 15.3005V17.3548Z" fill="white"></path><path d="M56.5123 18.0396H46.9257V28.3109H56.5123V18.0396ZM51.719 27.2838C49.6389 27.2838 47.9528 25.5976 47.9528 23.5176C47.9528 21.4377 49.6389 19.7514 51.719 19.7514C53.7989 19.7514 55.4851 21.4377 55.4851 23.5176C55.4826 25.5966 53.798 27.2812 51.719 27.2838Z" fill="white"></path><path d="M51.719 20.4363C50.0171 20.4363 48.6376 21.8158 48.6376 23.5177C48.6376 25.2196 50.0171 26.5991 51.719 26.5991C53.4208 26.5991 54.8004 25.2196 54.8004 23.5177C54.7985 21.8166 53.42 20.4382 51.719 20.4363ZM51.719 21.5774C50.6478 21.5786 49.7799 22.4466 49.7787 23.5177C49.7787 23.7068 49.6254 23.8601 49.4363 23.8601C49.2473 23.8601 49.0939 23.7068 49.0939 23.5177C49.0955 22.0686 50.2699 20.8942 51.719 20.8926C51.9081 20.8926 52.0614 21.046 52.0614 21.235C52.0614 21.4241 51.9081 21.5774 51.719 21.5774Z" fill="white"></path><path d="M49.6646 9.13794H40.078V13.9312H49.6646V9.13794ZM41.4475 13.2465C41.4475 13.4356 41.2943 13.5889 41.1051 13.5889C40.916 13.5889 40.7628 13.4356 40.7628 13.2465V11.1922C40.7628 11.0031 40.916 10.8498 41.1051 10.8498C41.2943 10.8498 41.4475 11.0031 41.4475 11.1922V13.2465Z" fill="white"></path><path d="M56.5123 15.9854H48.6376V17.3549H56.5123V15.9854ZM50.3495 17.0125H49.6647C49.4756 17.0125 49.3223 16.8592 49.3223 16.6701C49.3223 16.481 49.4756 16.3277 49.6647 16.3277H50.3495C50.5386 16.3277 50.6918 16.481 50.6918 16.6701C50.6918 16.8592 50.5386 17.0125 50.3495 17.0125ZM52.0614 17.0125H51.3766C51.1875 17.0125 51.0342 16.8592 51.0342 16.6701C51.0342 16.481 51.1875 16.3277 51.3766 16.3277H52.0614C52.2505 16.3277 52.4037 16.481 52.4037 16.6701C52.4037 16.8592 52.2505 17.0125 52.0614 17.0125Z" fill="white"></path><path d="M46.9257 15.9854H47.9528V17.3549H46.9257V15.9854Z" fill="white"></path></g><defs><clipPath id="clip0_6201_225"><rect width="20.4514" height="20.4514" fill="white" transform="translate(38.1721 8.52148)"></rect></clipPath></defs></svg>