<svg xmlns="http://www.w3.org/2000/svg" width="61" height="61" viewBox="0 0 61 61" fill="none"><g clip-path="url(#clip0_1129_673)"><path d="M47.0206 40.5119L45.5909 49.0904C45.1953 51.4639 43.1617 53.1866 40.7556 53.1866H23.1908C22.1756 53.1866 21.3525 52.3635 21.3525 51.3483V36.6423C21.3525 35.6189 22.1888 34.7908 23.2153 34.8041C24.8977 34.8261 26.2545 33.4229 26.2545 31.7403V29.2893C26.2545 26.9204 28.1749 25 30.5438 25C33.2511 25 35.4458 27.1948 35.4458 29.902V34.804H42.1064C43.3627 34.804 44.59 35.2502 45.5112 36.1043C46.7374 37.2409 47.2907 38.8922 47.0206 40.5119Z" fill="url(#paint0_linear_1129_673)"></path><path d="M15.8383 34.804C14.823 34.804 14 35.627 14 36.6422V51.3482C14 52.3634 14.823 53.1865 15.8383 53.1865H23.1913V34.804H15.8383Z" fill="url(#paint1_linear_1129_673)"></path><path d="M11.3473 28.6048L8.65879 28.2142L7.4565 25.7781C7.26667 25.3934 6.87499 25.1499 6.44605 25.1499C6.01712 25.1499 5.62544 25.3934 5.43561 25.778L4.23331 28.2141L1.54484 28.6048C1.12041 28.6664 0.767718 28.9638 0.635282 29.3717C0.502694 29.7796 0.613271 30.2274 0.920438 30.5267L2.86575 32.423L2.40654 35.1005C2.33405 35.5232 2.50788 35.9505 2.85486 36.2026C3.20176 36.4547 3.66172 36.488 4.04153 36.2884L6.44613 35.0242L8.85073 36.2884C9.01562 36.3751 9.1956 36.4179 9.37499 36.4179C9.60861 36.4179 9.84119 36.3453 10.0374 36.2026C10.3844 35.9505 10.5582 35.5233 10.4857 35.1005L10.0265 32.423L11.9718 30.5267C12.279 30.2274 12.3896 29.7796 12.257 29.3717C12.1244 28.9638 11.7718 28.6665 11.3473 28.6048Z" fill="url(#paint2_linear_1129_673)"></path><path d="M20.9469 17.805L18.2584 17.4144L17.0561 14.9783C16.8663 14.5936 16.4746 14.3501 16.0457 14.3501C15.6167 14.3501 15.2251 14.5936 15.0352 14.9782L13.8329 17.4143L11.1444 17.8049C10.72 17.8666 10.3673 18.1639 10.2349 18.5719C10.1023 18.9798 10.2129 19.4275 10.52 19.7269L12.4654 21.6232L12.0061 24.3007C11.9337 24.7234 12.1075 25.1507 12.4545 25.4028C12.8014 25.6549 13.2613 25.6882 13.6411 25.4886L16.0457 24.2244L18.4503 25.4886C18.6152 25.5753 18.7952 25.618 18.9746 25.618C19.2082 25.618 19.4408 25.5455 19.637 25.4028C19.984 25.1507 20.1578 24.7235 20.0853 24.3007L19.6261 21.6232L21.5714 19.7269C21.8786 19.4275 21.9892 18.9798 21.8566 18.5719C21.724 18.164 21.3714 17.8667 20.9469 17.805Z" fill="url(#paint3_linear_1129_673)"></path><path d="M34.1471 11.805L31.4586 11.4144L30.2563 8.97825C30.0665 8.59364 29.6748 8.3501 29.2459 8.3501C28.8169 8.3501 28.4252 8.59364 28.2354 8.97818L27.0331 11.4143L24.3446 11.8049C23.9202 11.8666 23.5675 12.1639 23.4351 12.5719C23.3025 12.9798 23.4131 13.4275 23.7202 13.7269L25.6656 15.6232L25.2063 18.3007C25.1339 18.7234 25.3077 19.1507 25.6547 19.4028C26.0016 19.6549 26.4615 19.6882 26.8413 19.4886L29.2459 18.2244L31.6505 19.4886C31.8154 19.5753 31.9954 19.618 32.1748 19.618C32.4084 19.618 32.641 19.5455 32.8372 19.4028C33.1842 19.1507 33.358 18.7235 33.2855 18.3007L32.8263 15.6232L34.7716 13.7269C35.0788 13.4275 35.1894 12.9798 35.0568 12.5719C34.9242 12.164 34.5716 11.8667 34.1471 11.805Z" fill="url(#paint4_linear_1129_673)"></path><path d="M48.5465 17.805L45.858 17.4144L44.6557 14.9783C44.4659 14.5936 44.0742 14.3501 43.6453 14.3501C43.2163 14.3501 42.8247 14.5936 42.6348 14.9782L41.4325 17.4143L38.7441 17.8049C38.3196 17.8666 37.9669 18.1639 37.8345 18.5719C37.7019 18.9798 37.8125 19.4275 38.1197 19.7269L40.065 21.6232L39.6058 24.3007C39.5333 24.7234 39.7071 25.1507 40.0541 25.4028C40.401 25.6549 40.8609 25.6882 41.2408 25.4886L43.6453 24.2244L46.0499 25.4886C46.2148 25.5753 46.3948 25.618 46.5742 25.618C46.8078 25.618 47.0404 25.5455 47.2366 25.4028C47.5836 25.1507 47.7574 24.7235 47.6849 24.3007L47.2257 21.6232L49.171 19.7269C49.4782 19.4275 49.5888 18.9798 49.4562 18.5719C49.3236 18.164 48.971 17.8667 48.5465 17.805Z" fill="url(#paint5_linear_1129_673)"></path><path d="M58.1471 28.6048L55.4586 28.2142L54.2563 25.7781C54.0665 25.3934 53.6748 25.1499 53.2459 25.1499C52.8169 25.1499 52.4252 25.3934 52.2354 25.778L51.0331 28.2141L48.3446 28.6048C47.9202 28.6664 47.5675 28.9638 47.4351 29.3717C47.3025 29.7796 47.4131 30.2274 47.7202 30.5267L49.6656 32.423L49.2063 35.1005C49.1339 35.5232 49.3077 35.9505 49.6547 36.2026C50.0016 36.4547 50.4615 36.488 50.8413 36.2884L53.2459 35.0242L55.6505 36.2884C55.8154 36.3751 55.9954 36.4179 56.1748 36.4179C56.4084 36.4179 56.641 36.3453 56.8372 36.2026C57.1842 35.9505 57.358 35.5233 57.2855 35.1005L56.8263 32.423L58.7716 30.5267C59.0788 30.2274 59.1894 29.7796 59.0568 29.3717C58.9242 28.9638 58.5716 28.6665 58.1471 28.6048Z" fill="url(#paint6_linear_1129_673)"></path></g><defs><linearGradient id="paint0_linear_1129_673" x1="34.2201" y1="53.1866" x2="34.2201" y2="25" gradientUnits="userSpaceOnUse"><stop stop-color="#FD5900"></stop><stop offset="1" stop-color="#FFDE00"></stop></linearGradient><linearGradient id="paint1_linear_1129_673" x1="18.5956" y1="53.1865" x2="18.5956" y2="34.804" gradientUnits="userSpaceOnUse"><stop stop-color="#FFE59A"></stop><stop offset="1" stop-color="#FFFFD5"></stop></linearGradient><linearGradient id="paint2_linear_1129_673" x1="6.44613" y1="36.4179" x2="6.44613" y2="25.1499" gradientUnits="userSpaceOnUse"><stop stop-color="#FF8948"></stop><stop offset="0.677083" stop-color="#FFDE00"></stop></linearGradient><linearGradient id="paint3_linear_1129_673" x1="16.0457" y1="25.618" x2="16.0457" y2="14.3501" gradientUnits="userSpaceOnUse"><stop stop-color="#FF8948"></stop><stop offset="0.677083" stop-color="#FFDE00"></stop></linearGradient><linearGradient id="paint4_linear_1129_673" x1="29.2459" y1="19.618" x2="29.2459" y2="8.35009" gradientUnits="userSpaceOnUse"><stop stop-color="#FF8948"></stop><stop offset="0.677083" stop-color="#FFDE00"></stop></linearGradient><linearGradient id="paint5_linear_1129_673" x1="43.6453" y1="25.618" x2="43.6453" y2="14.3501" gradientUnits="userSpaceOnUse"><stop stop-color="#FF8948"></stop><stop offset="0.677083" stop-color="#FFDE00"></stop></linearGradient><linearGradient id="paint6_linear_1129_673" x1="53.2459" y1="36.4179" x2="53.2459" y2="25.1499" gradientUnits="userSpaceOnUse"><stop stop-color="#FF8948"></stop><stop offset="0.677083" stop-color="#FFDE00"></stop></linearGradient><clipPath id="clip0_1129_673"><rect width="60" height="60" fill="white" transform="translate(0.101562 0.25)"></rect></clipPath></defs></svg>