<svg xmlns="http://www.w3.org/2000/svg" width="480" height="405" viewBox="0 0 480 405" fill="none"><path d="M7.63153 0.119243H472.201C476.349 0.119243 479.713 3.48261 479.713 7.63152V280.339H0.119243V7.63153C0.119243 3.48261 3.48261 0.119243 7.63153 0.119243Z" fill="#141414" stroke="#141414" stroke-width="0.238485"></path><path d="M0 280.458H479.832V321.001C479.832 325.216 476.415 328.632 472.201 328.632H7.63154C3.41677 328.632 0 325.216 0 321.001V280.458Z" fill="#D4D5D7"></path><circle cx="239.797" cy="5.36579" r="1.6694" fill="#55575E" stroke="#3B3B3B" stroke-width="0.238485"></circle><mask id="mask0_829_6331" style="mask-type:alpha" maskUnits="userSpaceOnUse" x="239" y="4" width="2" height="2"><circle cx="239.797" cy="5.36574" r="0.596213" fill="#494C51"></circle></mask><g mask="url(#mask0_829_6331)"><circle cx="239.797" cy="5.36574" r="0.596213" fill="#494C51"></circle><rect x="239.201" y="4.76953" width="0.238485" height="1.19243" fill="#617189"></rect><rect x="240.154" y="4.76953" width="0.238485" height="1.19243" fill="#617189"></rect><circle cx="239.797" cy="5.36603" r="0.357728" fill="#7B6A77"></circle><circle cx="239.916" cy="5.24679" r="0.238485" fill="white" fill-opacity="0.2"></circle></g><rect x="182.918" y="328.633" width="113.996" height="69.3992" fill="url(#paint0_linear_829_6331)"></rect><path d="M182.918 398.509H296.914V402.563C296.914 402.826 296.7 403.04 296.437 403.04H183.395C183.132 403.04 182.918 402.826 182.918 402.563V398.509Z" fill="#D5D6D8"></path><path d="M182.918 398.509H198.181V403.04H183.395C183.132 403.04 182.918 402.826 182.918 402.563V398.509Z" fill="url(#paint1_linear_829_6331)"></path><path d="M296.914 398.509H281.651V403.04H296.437C296.701 403.04 296.914 402.826 296.914 402.563V398.509Z" fill="url(#paint2_linear_829_6331)"></path><path d="M280.697 403.04H295.006V403.755C295.006 404.019 294.792 404.232 294.529 404.232H281.174C280.91 404.232 280.697 404.019 280.697 403.755V403.04Z" fill="url(#paint3_linear_829_6331)"></path><path d="M280.697 403.04H295.006V403.755C295.006 404.019 294.792 404.232 294.529 404.232H281.174C280.91 404.232 280.697 404.019 280.697 403.755V403.04Z" fill="url(#paint4_linear_829_6331)"></path><rect x="182.918" y="398.032" width="113.996" height="0.238485" fill="#707173"></rect><rect x="182.918" y="398.27" width="113.996" height="0.238485" fill="#C7C8CA"></rect><rect x="182.918" y="398.509" width="113.996" height="0.238485" fill="#EBECEE"></rect><path d="M184.826 403.04H199.135V403.755C199.135 404.019 198.922 404.232 198.658 404.232H185.303C185.04 404.232 184.826 404.019 184.826 403.755V403.04Z" fill="url(#paint5_linear_829_6331)"></path><defs><linearGradient id="paint0_linear_829_6331" x1="239.916" y1="328.633" x2="239.916" y2="398.032" gradientUnits="userSpaceOnUse"><stop stop-color="#A4A5A7"></stop><stop offset="0.504809" stop-color="#C8C9CB"></stop><stop offset="0.931918" stop-color="#D0D1D3"></stop><stop offset="0.957961" stop-color="#E8E9EB"></stop><stop offset="1" stop-color="#727375"></stop></linearGradient><linearGradient id="paint1_linear_829_6331" x1="182.918" y1="400.536" x2="195.915" y2="400.536" gradientUnits="userSpaceOnUse"><stop stop-color="#97989A"></stop><stop offset="0.0366972" stop-color="#707173"></stop><stop offset="0.110092" stop-color="#B9BABC"></stop><stop offset="0.380734" stop-color="#E7E8EA"></stop><stop offset="0.572521" stop-color="#D0D1D3"></stop><stop offset="1" stop-color="#D1D2D4" stop-opacity="0"></stop></linearGradient><linearGradient id="paint2_linear_829_6331" x1="296.914" y1="400.536" x2="283.917" y2="400.536" gradientUnits="userSpaceOnUse"><stop stop-color="#97989A"></stop><stop offset="0.0366972" stop-color="#707173"></stop><stop offset="0.110092" stop-color="#B9BABC"></stop><stop offset="0.380734" stop-color="#E7E8EA"></stop><stop offset="0.572521" stop-color="#D0D1D3"></stop><stop offset="1" stop-color="#D1D2D4" stop-opacity="0"></stop></linearGradient><linearGradient id="paint3_linear_829_6331" x1="287.851" y1="403.04" x2="287.851" y2="404.232" gradientUnits="userSpaceOnUse"><stop stop-color="#B39867"></stop><stop offset="0.171456" stop-color="#D8BD86"></stop><stop offset="0.364176" stop-color="#F3DDA6"></stop><stop offset="1" stop-color="#EFD8A1"></stop></linearGradient><linearGradient id="paint4_linear_829_6331" x1="287.851" y1="403.04" x2="287.851" y2="404.232" gradientUnits="userSpaceOnUse"><stop stop-color="#707173"></stop><stop offset="0.171456" stop-color="#A0A1A3"></stop><stop offset="0.364176" stop-color="#D5D6D8"></stop><stop offset="1" stop-color="#D5D6D8"></stop></linearGradient><linearGradient id="paint5_linear_829_6331" x1="191.981" y1="403.04" x2="191.981" y2="404.232" gradientUnits="userSpaceOnUse"><stop stop-color="#707173"></stop><stop offset="0.171456" stop-color="#A0A1A3"></stop><stop offset="0.364176" stop-color="#D5D6D8"></stop><stop offset="1" stop-color="#D5D6D8"></stop></linearGradient></defs></svg>