<svg xmlns="http://www.w3.org/2000/svg" width="250" height="507" viewBox="0 0 250 507" fill="none"><path d="M1.46448 93.2246H4.24019C5.05758 93.2246 5.70467 92.5595 5.70467 91.758V74.4665C5.70467 73.648 5.04055 73 4.24019 73H1.46448C0.664126 73 0 73.648 0 74.4665V91.741C0 92.5595 0.664126 93.2246 1.46448 93.2246Z" fill="#A19D99"></path><path d="M1.46448 148.493H4.24019C5.05758 148.493 5.70467 147.828 5.70467 147.026V110.414C5.70467 109.595 5.04055 108.947 4.24019 108.947H1.46448C0.664126 108.947 0 109.595 0 110.414V147.026C0 147.845 0.664126 148.493 1.46448 148.493Z" fill="#A19D99"></path><path d="M1.46448 196.701H4.24019C5.05758 196.701 5.70467 196.036 5.70467 195.234V158.622C5.70467 157.803 5.04055 157.155 4.24019 157.155H1.46448C0.664126 157.138 0 157.803 0 158.622V195.234C0 196.036 0.664126 196.701 1.46448 196.701Z" fill="#A19D99"></path><path fill-rule="evenodd" clip-rule="evenodd" d="M3 466.425C3 488.801 21.0591 507 43.2634 507V506.983H209.737C231.941 506.983 250 488.784 250 466.408V40.5751C250 18.1989 231.941 0 209.737 0H43.2634C21.0591 0 3 18.1989 3 40.5751V466.425ZM191.076 9.16357H209.075C225.764 9.16357 239.301 22.7205 239.284 39.4151V463.568C239.284 480.28 225.764 493.82 209.075 493.82H42.2092C25.5209 493.82 12 480.28 12 463.568V39.4151C12 22.7035 25.5209 9.16357 42.2092 9.16357H60.1917C62.8653 9.16357 65.0279 11.3293 65.0279 14.0066V17.9798C65.0279 23.9483 69.8641 28.7913 75.8242 28.7913H175.443C181.403 28.7913 186.239 23.9483 186.239 17.9798V14.0066C186.239 11.3293 188.402 9.16357 191.076 9.16357Z" fill="#D4D4D4"></path><path fill-rule="evenodd" clip-rule="evenodd" d="M5.0459 465.568C5.0459 486.662 22.177 503.817 43.2417 503.817H210.108C231.172 503.817 248.303 486.662 248.303 465.568V41.4148C248.303 20.3206 231.172 3.16553 210.108 3.16553H43.2417C22.177 3.16553 5.0459 20.3206 5.0459 41.4148V465.568ZM192.149 11.1636H210.148C226.837 11.1636 240.375 24.7205 240.358 41.4151V465.568C240.358 482.28 226.837 495.82 210.148 495.82H43.2825C26.5942 495.82 13.0732 482.28 13.0732 465.568V41.4151C13.0732 24.7035 26.5942 11.1636 43.2825 11.1636H61.265C63.9385 11.1636 66.1012 13.3293 66.1012 16.0066V19.9798C66.1012 25.9483 70.9374 30.7913 76.8975 30.7913H176.516C182.477 30.7913 187.313 25.9483 187.313 19.9798V16.0066C187.313 13.3293 189.475 11.1636 192.149 11.1636Z" fill="#1F1F1F"></path><path d="M136.398 20.6786H103.584C102.715 20.6786 102 19.9624 102 19.0927C102 18.2231 102.715 17.5068 103.584 17.5068H136.398C137.267 17.5068 137.982 18.2231 137.982 19.0927C137.982 19.9795 137.284 20.6786 136.398 20.6786Z" fill="#54524F"></path><path d="M103.584 18.189H136.398C137.148 18.189 137.761 18.7346 137.914 19.4338C137.931 19.3315 137.982 19.2121 137.982 19.1098C137.982 18.2401 137.267 17.5239 136.398 17.5239H103.584C102.715 17.5239 102 18.2401 102 19.1098C102 19.2292 102.051 19.3315 102.068 19.4338C102.238 18.7176 102.834 18.189 103.584 18.189Z" fill="#191B1C"></path><path d="M150.411 19.1098C150.411 20.8492 148.998 22.2646 147.261 22.2646C145.524 22.2646 144.11 20.8492 144.11 19.1098C144.11 17.3705 145.524 15.9551 147.261 15.9551C148.998 15.9551 150.411 17.3705 150.411 19.1098Z" fill="url(#paint0_linear_1003_98)"></path><path d="M149.73 19.1099C149.73 20.4741 148.623 21.5825 147.261 21.5825C145.899 21.5825 144.792 20.4741 144.792 19.1099C144.792 17.7456 145.899 16.6372 147.261 16.6372C148.623 16.6372 149.73 17.7456 149.73 19.1099Z" fill="url(#paint1_linear_1003_98)"></path><path opacity="0.48" d="M146.665 18.1892H146.103C145.916 18.1892 145.763 18.0357 145.763 17.8481V17.2854C145.763 17.0978 145.916 16.9443 146.103 16.9443H146.665C146.853 16.9443 147.006 17.0978 147.006 17.2854V17.8481C147.006 18.0357 146.853 18.1892 146.665 18.1892Z" fill="url(#paint2_linear_1003_98)"></path><defs><linearGradient id="paint0_linear_1003_98" x1="144.115" y1="19.1017" x2="150.403" y2="19.1017" gradientUnits="userSpaceOnUse"><stop stop-color="#4A86FF"></stop><stop offset="0.00123423" stop-color="#4A86FE"></stop><stop offset="0.0959" stop-color="#3868CA"></stop><stop offset="0.1888" stop-color="#29509F"></stop><stop offset="0.2782" stop-color="#1D3D7E"></stop><stop offset="0.363" stop-color="#152F66"></stop><stop offset="0.4414" stop-color="#102757"></stop><stop offset="0.5072" stop-color="#0E2452"></stop><stop offset="0.5628" stop-color="#152B5B"></stop><stop offset="0.653" stop-color="#273F73"></stop><stop offset="0.7666" stop-color="#44609A"></stop><stop offset="0.8977" stop-color="#6C8CD0"></stop><stop offset="1" stop-color="#8FB3FF"></stop></linearGradient><linearGradient id="paint1_linear_1003_98" x1="144.793" y1="19.1017" x2="149.726" y2="19.1017" gradientUnits="userSpaceOnUse"><stop stop-color="#0E2452" stop-opacity="0"></stop><stop offset="1" stop-color="#0E2452"></stop></linearGradient><linearGradient id="paint2_linear_1003_98" x1="146.385" y1="15.3151" x2="146.385" y2="18.4876" gradientUnits="userSpaceOnUse"><stop offset="0.3877" stop-color="#F0E9E4"></stop><stop offset="1" stop-color="#F0E9E4" stop-opacity="0"></stop></linearGradient></defs></svg>