<svg xmlns="http://www.w3.org/2000/svg" width="439" height="539" viewBox="0 0 439 539" fill="none"><g clip-path="url(#clip0_180_8893)"><mask id="mask0_180_8893" style="mask-type:alpha" maskUnits="userSpaceOnUse" x="-448" y="-524" width="1333" height="1334"><path d="M-448 -523.345H-386.811L-237.795 -359.283L218.279 142.823L-92.2349 745.795L-124.78 808.991H-210.377L-148.743 713.25L218.279 142.823L720.385 598.786L884.447 747.802V808.879H823.37L674.354 644.817L218.279 142.934L-384.805 453.337L-448 485.882V571.368L-352.26 509.845L218.168 142.934L-384.805 -167.692L-448 -200.125V-285.723L-352.26 -224.088L218.168 142.934L425.029 -503.06L431.493 -523.345H362.725L362.057 -520.002L218.279 142.934L821.252 453.448L884.447 485.993V571.479L788.707 509.845L218.279 142.934L821.252 -167.58L884.447 -200.125V-285.723L788.707 -224.088L218.279 142.934L-444.656 -1.06604L-448 -1.73474V-70.3912L-427.715 -63.9268L218.279 142.934L528.682 -460.15L561.339 -523.345H646.825L585.19 -427.605L218.279 142.934L881.104 286.823L884.447 287.492V356.259L864.162 349.795L218.279 142.934L-283.938 598.897L-448 747.913V808.991H-386.811L-237.795 644.928L218.279 142.823L-448 174.922V110.835L218.279 142.934L250.267 -523.345H186.18L218.279 142.934L884.447 110.835V174.922L218.279 142.934L720.385 -313.141L884.447 -462.156V-523.345H823.37L674.354 -359.283L218.279 142.934L-427.715 349.684L-448 356.148V287.38L-444.656 286.711L218.168 142.823L424.917 788.706L431.382 808.991H362.614L361.945 805.647L218.279 142.934L-148.743 -427.605L-210.377 -523.345H-124.78L-92.2349 -460.15L218.279 142.934L11.4185 788.817L4.95404 809.102H73.6105L74.2792 805.758L218.168 142.934L585.19 713.25L646.825 808.991H561.339L528.794 745.795L218.279 142.823L881.104 -1.06604L884.447 -1.73474V-70.3912L864.162 -63.9268L218.279 142.934L-283.938 -313.141L-448 -462.156V-523.345ZM4.84256 -523.345H73.6105L74.2792 -520.002L218.168 142.823L250.156 808.991H186.18L218.279 142.823L11.4185 -503.06L4.84256 -523.345Z" fill="url(#paint0_radial_180_8893)" fill-opacity="0.1"></path></mask><g mask="url(#mask0_180_8893)"><rect width="439" height="539" fill="white"></rect><rect width="439" height="539" fill="url(#paint1_linear_180_8893)"></rect></g></g><defs><radialGradient id="paint0_radial_180_8893" cx="0" cy="0" r="1" gradientUnits="userSpaceOnUse" gradientTransform="translate(218.212 142.862) scale(650.391)"><stop stop-color="white"></stop><stop offset="0.17" stop-color="white" stop-opacity="0.99"></stop><stop offset="0.31" stop-color="white" stop-opacity="0.95"></stop><stop offset="0.43" stop-color="white" stop-opacity="0.88"></stop><stop offset="0.54" stop-color="white" stop-opacity="0.79"></stop><stop offset="0.64" stop-color="white" stop-opacity="0.67"></stop><stop offset="0.74" stop-color="white" stop-opacity="0.53"></stop><stop offset="0.84" stop-color="white" stop-opacity="0.35"></stop><stop offset="0.93" stop-color="white" stop-opacity="0.16"></stop><stop offset="1" stop-color="white" stop-opacity="0"></stop></radialGradient><linearGradient id="paint1_linear_180_8893" x1="219.5" y1="0" x2="219.5" y2="539" gradientUnits="userSpaceOnUse"><stop stop-color="#7A57EA" stop-opacity="0"></stop><stop offset="1" stop-color="#7A57EA"></stop></linearGradient><clipPath id="clip0_180_8893"><rect width="439" height="539" fill="white"></rect></clipPath></defs></svg>