<svg xmlns="http://www.w3.org/2000/svg" width="512" height="512" viewBox="0 0 512 512" fill="none"><g clip-path="url(#clip0_3017_1145)"><mask id="mask0_3017_1145" style="mask-type:luminance" maskUnits="userSpaceOnUse" x="0" y="0" width="512" height="512"><path d="M512 0H0V512H512V0Z" fill="white"></path></mask><g mask="url(#mask0_3017_1145)"><path d="M256 512C397.385 512 512 397.385 512 256C512 114.615 397.385 0 256 0C114.615 0 0 114.615 0 256C0 397.385 114.615 512 256 512Z" fill="#0461A5"></path><mask id="mask1_3017_1145" style="mask-type:luminance" maskUnits="userSpaceOnUse" x="112" y="112" width="288" height="288"><path d="M112.641 112.64H399.361V399.36H112.641V112.64Z" fill="white"></path></mask><g mask="url(#mask1_3017_1145)"><path d="M255.438 337.2C249.253 337.2 244.238 332.186 244.238 326C244.238 319.814 249.253 314.8 255.438 314.8C261.624 314.8 266.638 319.814 266.638 326C266.638 332.186 261.624 337.2 255.438 337.2Z" fill="white"></path><path d="M255.442 286.8V270.658C255.442 266.042 258.688 262.052 263.246 261.051C279.721 257.435 291.928 242.61 291.255 225.087C290.549 206.725 275.413 191.764 256.838 191.067C236.408 190.299 219.602 206.296 219.602 226.32" stroke="white" stroke-width="13.44" stroke-miterlimit="10" stroke-linecap="round"></path><path d="M324.376 369.12C304.427 381.204 281.026 388.16 256 388.16C183.011 388.16 123.84 328.99 123.84 256.001C123.84 183.01 183.011 123.841 256 123.841C328.99 123.841 388.16 183.01 388.16 256.001C388.16 283.142 379.792 308.372 365.76 329.36" stroke="white" stroke-width="13.44" stroke-miterlimit="10" stroke-linecap="round" stroke-linejoin="round"></path></g></g></g><defs><clipPath id="clip0_3017_1145"><rect width="512" height="512" fill="white"></rect></clipPath></defs></svg>