<svg xmlns="http://www.w3.org/2000/svg" width="512" height="512" viewBox="0 0 512 512" fill="none"><g clip-path="url(#clip0_3017_1137)"><mask id="mask0_3017_1137" style="mask-type:luminance" maskUnits="userSpaceOnUse" x="0" y="0" width="512" height="512"><path d="M512 0H0V512H512V0Z" fill="white"></path></mask><g mask="url(#mask0_3017_1137)"><path d="M256 512C397.385 512 512 397.385 512 256C512 114.615 397.385 0 256 0C114.615 0 0 114.615 0 256C0 397.385 114.615 512 256 512Z" fill="#0461A5"></path><path d="M261.96 399.72H250.76C232.233 399.72 217.16 384.647 217.16 366.12V360.479C217.16 358.996 216.225 357.65 214.779 357.053L214.573 356.968C213.121 356.365 211.504 356.653 210.455 357.703L206.467 361.692C200.121 368.037 191.683 371.532 182.708 371.532C173.733 371.532 165.295 368.037 158.949 361.692L151.029 353.771C144.683 347.425 141.188 338.988 141.188 330.012C141.188 321.038 144.683 312.6 151.029 306.254L155.018 302.265C156.067 301.217 156.355 299.599 155.752 298.147L155.668 297.941C155.071 296.495 153.725 295.56 152.241 295.56H146.6C128.073 295.56 113 280.487 113 261.96V250.76C113 232.233 128.073 217.16 146.6 217.16H152.241C153.724 217.16 155.07 216.225 155.667 214.779L155.752 214.574C156.355 213.121 156.067 211.505 155.017 210.456L151.028 206.467C144.683 200.121 141.188 191.683 141.188 182.708C141.188 173.733 144.683 165.295 151.029 158.949L158.949 151.03C165.295 144.683 173.733 141.188 182.708 141.188C191.683 141.188 200.121 144.683 206.467 151.03L210.455 155.017C211.503 156.066 213.12 156.355 214.573 155.752L214.779 155.668C216.226 155.071 217.161 153.725 217.161 152.241V146.6C217.161 128.073 232.234 113 250.761 113H261.961C280.488 113 295.561 128.073 295.561 146.6V152.241C295.561 153.724 296.495 155.07 297.942 155.667L298.148 155.752C299.599 156.355 301.217 156.067 302.266 155.017L306.254 151.028C312.6 144.683 321.037 141.188 330.013 141.188C338.987 141.188 347.426 144.683 353.772 151.028L361.692 158.949C368.037 165.294 371.532 173.732 371.532 182.708C371.532 191.682 368.037 200.12 361.692 206.466L357.703 210.455C356.654 211.504 356.365 213.121 356.968 214.573L357.053 214.778C357.65 216.225 358.996 217.159 360.479 217.159H366.12C384.647 217.159 399.72 232.232 399.72 250.759V261.959C399.72 277.299 389.354 290.68 374.512 294.5C368.519 296.042 362.415 292.436 360.873 286.445C359.332 280.455 362.938 274.349 368.928 272.807C373.869 271.537 377.32 267.076 377.32 261.96V250.76C377.32 244.584 372.296 239.56 366.12 239.56H360.479C349.893 239.56 340.422 233.189 336.349 223.33L336.265 223.126C332.187 213.308 334.378 202.102 341.863 194.616L345.851 190.628C347.967 188.513 349.132 185.7 349.132 182.708C349.132 179.716 347.967 176.904 345.852 174.789L337.932 166.868C335.817 164.753 333.004 163.588 330.012 163.588C327.02 163.588 324.208 164.753 322.093 166.868L318.104 170.857C310.617 178.342 299.411 180.532 289.553 176.438L289.39 176.371C279.531 172.299 273.16 162.827 273.16 152.241V146.6C273.16 140.424 268.136 135.4 261.96 135.4H250.76C244.584 135.4 239.56 140.424 239.56 146.6V152.241C239.56 162.827 233.189 172.298 223.33 176.371L223.167 176.438C213.308 180.533 202.103 178.342 194.616 170.857L190.627 166.869C188.512 164.753 185.7 163.588 182.708 163.588C179.716 163.588 176.904 164.753 174.788 166.869L166.869 174.788C164.753 176.904 163.588 179.716 163.588 182.708C163.588 185.7 164.753 188.512 166.869 190.628L170.857 194.616C178.342 202.102 180.533 213.308 176.438 223.167L176.371 223.33C172.299 233.189 162.827 239.56 152.241 239.56H146.6C140.424 239.56 135.4 244.584 135.4 250.76V261.96C135.4 268.136 140.424 273.16 146.6 273.16H152.241C162.827 273.16 172.298 279.531 176.371 289.39L176.438 289.553C180.533 299.412 178.342 310.618 170.857 318.104L166.868 322.093C164.753 324.207 163.588 327.02 163.588 330.012C163.588 333.004 164.753 335.816 166.868 337.931L174.788 345.852C176.903 347.967 179.716 349.132 182.708 349.132C185.7 349.132 188.512 347.967 190.627 345.852L194.616 341.863C202.103 334.377 213.309 332.188 223.167 336.282L223.33 336.349C233.189 340.421 239.56 349.893 239.56 360.479V366.12C239.56 372.296 244.584 377.32 250.76 377.32H261.96C266.881 377.32 271.177 374.171 272.649 369.484C274.503 363.582 280.79 360.303 286.691 362.155C292.592 364.009 295.873 370.295 294.02 376.196C289.6 390.267 276.717 399.72 261.96 399.72ZM390.123 389.563C396.311 383.374 399.72 375.145 399.72 366.393C399.72 357.64 396.311 349.412 390.123 343.223C390.117 343.217 390.111 343.212 390.106 343.206L317.482 270.885C320.837 263.582 322.988 255.13 323 248.332C323.024 233.838 317.432 220.573 306.831 209.972C293.851 196.992 274.12 189.252 254.023 189.252C253.982 189.252 253.937 189.252 253.895 189.252C247.393 189.263 241.21 190.334 234.435 192.624C230.785 193.857 228.025 196.88 227.128 200.626C226.231 204.373 227.323 208.318 230.018 211.071L257 238.621L253.627 253.155L239.338 256.395L211.942 228.941C209.206 226.2 205.25 225.065 201.477 225.942C197.706 226.819 194.654 229.582 193.409 233.249C190.998 240.347 189.821 246.917 189.811 253.337C189.784 270.022 195.02 286.715 204.176 299.138C215.255 314.168 231.097 322.441 248.798 322.44C248.829 322.44 248.861 322.44 248.891 322.44C255.069 322.429 263.72 320.688 271.436 317.332L343.782 389.563C349.972 395.751 358.2 399.16 366.953 399.16C375.705 399.16 383.934 395.751 390.123 389.563ZM266.903 294.386C262.265 297.708 253.669 300.032 248.854 300.04C235.479 300.046 226.99 292.334 222.208 285.847C217.279 279.16 213.983 270.565 212.751 261.463L227.852 276.597C230.572 279.323 234.504 280.46 238.257 279.609L265.426 273.446C269.614 272.496 272.888 269.237 273.859 265.056L280.209 237.704C281.073 233.977 279.977 230.067 277.301 227.334L262.557 212.28C273.668 213.925 283.908 218.726 290.992 225.81C297.381 232.199 300.614 239.764 300.6 248.294C300.593 252.775 297.969 261.403 294.467 266.241C291.237 270.704 291.733 276.855 295.638 280.743L374.286 359.064C376.243 361.022 377.32 363.624 377.32 366.392C377.32 369.161 376.241 371.764 374.283 373.722C372.325 375.68 369.721 376.759 366.953 376.759C364.184 376.759 361.58 375.68 359.616 373.716L281.338 295.566C279.17 293.401 276.306 292.291 273.422 292.291C271.149 292.291 268.865 292.981 266.903 294.386Z" fill="white"></path><path d="M395.798 366.393C395.798 358.686 392.807 351.46 387.362 346.008C387.355 346.001 387.348 345.995 387.344 345.99C387.342 345.988 387.34 345.986 387.338 345.984L312.776 271.733L313.918 269.249C317.1 262.321 319.068 254.429 319.078 248.325L319.075 247.697C318.938 234.53 313.796 222.482 304.058 212.744C291.886 200.573 273.187 193.172 254.021 193.172H253.899L252.771 193.186C247.14 193.311 241.699 194.305 235.688 196.337C233.315 197.138 231.522 199.104 230.938 201.539C230.356 203.974 231.065 206.538 232.817 208.328L261.302 237.413L256.888 256.434L238.091 260.697L209.165 231.71C207.386 229.928 204.815 229.19 202.363 229.761C199.913 230.33 197.928 232.126 197.118 234.51C194.822 241.269 193.738 247.415 193.729 253.344C193.703 269.261 198.713 285.121 207.33 296.812C217.717 310.904 232.418 318.52 248.796 318.52H248.883C254.472 318.51 262.594 316.902 269.87 313.737L272.316 312.674L346.552 386.791C352.006 392.245 359.239 395.24 366.951 395.24C374.664 395.24 381.895 392.244 387.349 386.791C392.802 381.338 395.798 374.105 395.798 366.393ZM373.398 366.392C373.398 364.667 372.736 363.064 371.519 361.842L292.87 283.52C287.599 278.271 286.929 269.968 291.29 263.942L291.558 263.561C292.891 261.597 294.16 258.817 295.119 255.907C296.152 252.774 296.675 249.941 296.678 248.287C296.69 240.866 293.919 234.283 288.219 228.582C284.816 225.18 280.559 222.319 275.754 220.154L280.1 224.591C283.599 228.165 285.098 233.231 284.127 238.117L284.025 238.59L277.676 265.942C276.365 271.586 271.944 275.986 266.292 277.269L239.123 283.432C234.214 284.545 229.079 283.139 225.425 279.705L225.075 279.366L220.349 274.63C221.726 277.876 223.41 280.875 225.361 283.521C229.743 289.466 237.198 296.123 248.847 296.119C250.75 296.116 253.707 295.632 256.818 294.7C259.937 293.767 262.789 292.509 264.617 291.199L264.618 291.198C267.266 289.303 270.353 288.371 273.42 288.371C277.307 288.371 281.179 289.869 284.105 292.791L362.386 370.944C363.616 372.175 365.224 372.839 366.951 372.839C368.68 372.839 370.286 372.173 371.509 370.95C372.732 369.728 373.398 368.121 373.398 366.392ZM395.798 261.959V250.76C395.798 234.398 382.48 221.079 366.118 221.079H360.478C357.397 221.079 354.757 219.207 353.541 216.535L353.428 216.273L353.343 216.068C352.22 213.355 352.646 210.144 354.724 207.897L354.93 207.683L358.918 203.694C364.529 198.084 367.61 190.643 367.61 182.708C367.61 174.772 364.529 167.331 358.918 161.721L350.998 153.8C345.387 148.189 337.945 145.107 330.011 145.107C322.075 145.107 314.634 148.19 309.023 153.801L305.036 157.787C302.783 160.041 299.457 160.533 296.658 159.377L296.452 159.294L296.444 159.29C293.634 158.13 291.639 155.421 291.639 152.241V146.6C291.638 130.238 278.321 116.92 261.959 116.92H250.759C234.397 116.92 221.078 130.238 221.078 146.6V152.241C221.078 155.421 219.083 158.131 216.272 159.291L216.266 159.294L216.06 159.379L216.059 159.378C213.259 160.532 209.934 160.042 207.682 157.789L203.693 153.802C198.083 148.191 190.641 145.108 182.706 145.108C174.771 145.108 167.33 148.19 161.719 153.802L153.799 161.721C148.188 167.331 145.106 174.773 145.105 182.708C145.105 190.643 148.188 198.085 153.799 203.695L157.787 207.684C160.046 209.941 160.533 213.275 159.37 216.077L159.289 216.274C158.129 219.084 155.419 221.08 152.239 221.08H146.598C130.236 221.08 116.918 234.398 116.918 250.76V261.96C116.918 278.322 130.236 291.639 146.598 291.64H152.239C155.419 291.64 158.129 293.635 159.289 296.445L159.292 296.453L159.377 296.659C160.533 299.458 160.04 302.784 157.787 305.036L153.799 309.025C148.188 314.636 145.106 322.078 145.106 330.013C145.107 337.949 148.188 345.389 153.799 350.999L161.719 358.92C167.33 364.531 174.771 367.612 182.706 367.612C190.642 367.612 198.082 364.53 203.692 358.92L207.68 354.932C209.936 352.674 213.272 352.182 216.076 353.349L216.265 353.427L216.272 353.43C219.083 354.589 221.078 357.3 221.078 360.479V366.12C221.078 382.482 234.396 395.8 250.758 395.8H261.958C275.003 395.8 286.372 387.457 290.278 375.021L290.381 374.661C291.347 370.933 289.23 367.062 285.514 365.895C281.678 364.691 277.592 366.824 276.387 370.659C274.4 376.983 268.588 381.24 261.958 381.24H250.758C242.417 381.24 235.638 374.461 235.638 366.12V360.479C235.638 351.496 230.239 343.445 221.832 339.973L221.675 339.908L221.661 339.902C213.252 336.41 203.738 338.283 197.385 344.634L193.397 348.624C190.547 351.474 186.738 353.052 182.706 353.052C178.675 353.052 174.865 351.474 172.015 348.624L164.094 340.703C161.244 337.852 159.666 334.043 159.666 330.012C159.666 326.107 161.147 322.409 163.831 319.591L164.095 319.32L168.083 315.332L168.377 315.032C174.491 308.683 176.254 299.335 172.815 291.058L172.813 291.051L172.811 291.044L172.743 290.88C169.269 282.477 161.219 277.08 152.239 277.08H146.598C138.257 277.08 131.479 270.3 131.479 261.96V250.76C131.479 242.419 138.257 235.64 146.598 235.64H152.239C161.222 235.64 169.273 230.241 172.745 221.834L172.811 221.677L172.812 221.67L172.815 221.663C176.308 213.254 174.434 203.739 168.083 197.388L164.095 193.399C161.244 190.549 159.666 186.739 159.666 182.708C159.666 178.677 161.244 174.867 164.095 172.017L172.014 164.097L172.284 163.833C175.104 161.149 178.801 159.668 182.706 159.668C186.737 159.668 190.547 161.246 193.397 164.097L197.386 168.085C203.738 174.436 213.252 176.311 221.661 172.817L221.668 172.815L221.675 172.812L221.838 172.745C230.242 169.271 235.638 161.222 235.638 152.241V146.6C235.638 138.259 242.417 131.481 250.758 131.48H261.958C270.299 131.48 277.078 138.259 277.078 146.6V152.241C277.078 161.224 282.478 169.275 290.885 172.747L291.042 172.812L291.048 172.814L291.055 172.817C299.463 176.309 308.977 174.436 315.33 168.085L319.319 164.096C322.17 161.246 325.979 159.668 330.011 159.668C334.041 159.668 337.852 161.246 340.702 164.097L348.622 172.017C351.472 174.867 353.05 178.676 353.05 182.708C353.05 186.739 351.472 190.55 348.621 193.4L348.62 193.399L344.633 197.388C338.379 203.642 336.468 212.961 339.725 221.229L339.884 221.622L339.887 221.629L339.889 221.636L339.971 221.834L340.137 222.226C343.695 230.408 351.635 235.64 360.478 235.64H366.118C374.459 235.64 381.238 242.419 381.238 250.76V261.96C381.238 268.857 376.583 274.885 369.902 276.603L369.903 276.604C366.01 277.606 363.666 281.575 364.668 285.469C365.67 289.362 369.637 291.706 373.532 290.704C386.64 287.33 395.798 275.512 395.798 261.959ZM152.244 213.229L152.243 213.228L152.238 213.223L152.244 213.229ZM403.638 366.393C403.638 376.184 399.816 385.411 392.893 392.335C385.969 399.258 376.743 403.08 366.951 403.08C357.16 403.08 347.935 399.259 341.011 392.337L270.507 321.946C263.018 324.832 254.982 326.35 248.896 326.36H248.796C229.772 326.361 212.789 317.432 201.019 301.464C191.323 288.31 185.861 270.783 185.889 253.331C185.9 246.42 187.17 239.424 189.695 231.988C191.377 227.039 195.495 223.308 200.587 222.124C205.681 220.939 211.022 222.472 214.715 226.172L240.58 252.093L250.361 249.875L252.692 239.827L227.216 213.813L227.215 213.812C223.577 210.096 222.102 204.771 223.313 199.713C224.525 194.656 228.25 190.575 233.178 188.91L234.51 188.473C241.142 186.359 247.355 185.343 253.886 185.332H254.021C275.049 185.332 295.812 193.411 309.601 207.2C320.91 218.51 326.943 232.763 326.918 248.338C326.906 255.023 325.044 262.915 322.139 269.992L392.814 340.373L392.827 340.385L392.893 340.451C399.816 347.375 403.638 356.601 403.638 366.393ZM381.238 366.392C381.238 370.2 379.746 373.799 377.053 376.492L377.054 376.493C374.361 379.187 370.759 380.679 366.951 380.679C363.142 380.679 359.542 379.186 356.844 376.489L278.566 298.34C277.158 296.934 275.3 296.211 273.42 296.211C271.942 296.211 270.46 296.659 269.183 297.573C266.373 299.586 262.61 301.15 259.067 302.211C255.518 303.274 251.771 303.955 248.859 303.96H248.854C233.754 303.967 224.232 295.202 219.051 288.174C213.682 280.891 210.173 271.655 208.864 261.989L207.303 250.456L230.625 273.828C232.393 275.6 234.95 276.339 237.389 275.786L264.558 269.623C267.279 269.006 269.408 266.887 270.039 264.169L276.389 236.817L276.479 236.362C276.857 234.081 276.129 231.742 274.498 230.076L251.599 206.694L263.129 208.402C274.94 210.151 285.994 215.271 293.762 223.038C300.839 230.115 304.533 238.661 304.518 248.3C304.513 251.127 303.722 254.85 302.565 258.36C301.399 261.9 299.713 265.677 297.642 268.539C295.542 271.44 295.864 275.438 298.401 277.965L377.051 356.286L377.058 356.293C379.748 358.986 381.238 362.585 381.238 366.392ZM299.479 152.061L299.618 152.118L303.479 148.257L304.15 147.603C311.151 140.935 320.308 137.268 330.011 137.268C339.712 137.268 348.87 140.935 355.871 147.602L356.542 148.257L364.461 156.177C371.542 163.257 375.45 172.693 375.45 182.708C375.45 192.722 371.543 202.157 364.462 209.238L360.599 213.101L360.656 213.239H366.118C386.81 213.239 403.638 230.068 403.638 250.76V261.959C403.638 278.817 392.422 293.562 376.26 298.089L375.486 298.297C367.397 300.378 359.157 295.509 357.075 287.423C354.994 279.336 359.862 271.092 367.949 269.011C371.15 268.187 373.398 265.294 373.398 261.96V250.76C373.398 246.749 370.129 243.481 366.118 243.48H360.478C348.289 243.48 337.397 236.137 332.725 224.826L332.722 224.82L332.638 224.616C327.964 213.35 330.476 200.458 339.089 191.845L343.077 187.855C344.457 186.476 345.21 184.66 345.21 182.708C345.21 180.756 344.458 178.941 343.078 177.561L335.158 169.64C333.779 168.26 331.963 167.508 330.011 167.508C328.058 167.508 326.243 168.26 324.862 169.641L320.875 173.629C312.253 182.249 299.354 184.754 288.048 180.059L287.897 179.996L287.892 179.994C276.58 175.323 269.238 164.43 269.238 152.241V146.6C269.238 142.589 265.969 139.32 261.958 139.32H250.758C246.747 139.32 243.479 142.589 243.479 146.6V152.241C243.478 164.43 236.135 175.322 224.824 179.994L224.818 179.996L224.654 180.063L224.653 180.062C213.349 184.752 200.46 182.245 191.843 173.629L187.853 169.64C186.473 168.26 184.658 167.508 182.706 167.508C180.876 167.508 179.166 168.169 177.821 169.39L177.558 169.641L169.639 177.56C168.258 178.94 167.506 180.756 167.506 182.708C167.506 184.66 168.258 186.475 169.639 187.855L173.627 191.844C182.243 200.46 184.749 213.351 180.061 224.655L180.062 224.656L179.994 224.82L179.992 224.826C175.321 236.138 164.428 243.48 152.239 243.48H146.598C142.587 243.481 139.318 246.749 139.318 250.76V261.96C139.318 265.971 142.587 269.24 146.598 269.24H152.239C164.237 269.24 174.979 276.355 179.769 287.366L179.992 287.894L179.994 287.899L180.056 288.05L180.271 288.581C184.603 299.582 182.191 311.99 174.026 320.469L173.627 320.876L169.638 324.864C168.258 326.243 167.506 328.059 167.506 330.012C167.506 331.964 168.258 333.779 169.638 335.159L177.559 343.08C178.938 344.46 180.754 345.212 182.706 345.212C184.658 345.212 186.473 344.46 187.854 343.08L191.842 339.092C200.461 330.475 213.351 327.969 224.654 332.656L224.818 332.724L224.824 332.727C236.136 337.398 243.479 348.29 243.479 360.479V366.12C243.479 370.131 246.747 373.4 250.758 373.4H261.958C265.171 373.4 267.949 371.358 268.907 368.31C271.411 360.342 279.898 355.915 287.862 358.414L287.864 358.415C295.83 360.918 300.259 369.404 297.758 377.37C292.824 393.075 278.426 403.64 261.958 403.64H250.758C230.066 403.64 213.238 386.812 213.238 366.12V360.658L213.098 360.601L209.236 364.464C202.155 371.545 192.721 375.452 182.706 375.452C172.692 375.452 163.256 371.545 156.175 364.464L148.255 356.543C141.174 349.462 137.267 340.028 137.267 330.013C137.267 319.999 141.174 310.563 148.255 303.481L152.117 299.619L152.06 299.48H146.598C125.906 299.48 109.078 282.652 109.078 261.96V250.76C109.078 230.068 125.906 213.24 146.598 213.24H152.06L152.116 213.101L148.255 209.238C141.174 202.157 137.266 192.723 137.266 182.708C137.266 172.693 141.173 163.258 148.255 156.177L156.175 148.258C163.256 141.176 172.691 137.269 182.706 137.269C192.721 137.269 202.156 141.176 209.237 148.258L213.099 152.119L213.238 152.062V146.6C213.238 125.908 230.067 109.08 250.759 109.08H261.959C282.651 109.08 299.478 125.908 299.479 146.6V152.061Z" fill="#0461A5"></path></g></g><defs><clipPath id="clip0_3017_1137"><rect width="512" height="512" fill="white"></rect></clipPath></defs></svg>