<svg xmlns="http://www.w3.org/2000/svg" width="41" height="40" viewBox="0 0 41 40" fill="none"><rect x="0.5" width="40" height="40" rx="20" fill="url(#paint0_linear_2201_1913)"></rect><g clip-path="url(#clip0_2201_1913)"><path d="M22.474 14.2403C22.8993 14.5057 23.2586 14.8644 23.5246 15.2892C23.7906 15.7141 23.9563 16.194 24.0091 16.6925C24.361 16.858 24.7451 16.944 25.1339 16.9442C25.84 16.9439 26.5171 16.6632 27.0164 16.1638C27.5155 15.6643 27.7959 14.9871 27.7958 14.2809C27.7959 13.9313 27.7272 13.585 27.5934 13.2619C27.4597 12.9387 27.2637 12.6451 27.0165 12.3978C26.7694 12.1504 26.4759 11.9542 26.1529 11.8202C25.8299 11.6863 25.4836 11.6173 25.1339 11.6172C24.4351 11.6179 23.7644 11.8933 23.2668 12.384C22.7691 12.8748 22.4844 13.5415 22.474 14.2403ZM20.7307 19.6944C21.4368 19.694 22.1138 19.4132 22.6129 18.9136C23.1121 18.4141 23.3922 17.7368 23.392 17.0306C23.4003 16.6759 23.3375 16.323 23.2074 15.9928C23.0773 15.6626 22.8825 15.3618 22.6345 15.108C22.3866 14.8541 22.0903 14.6524 21.7632 14.5147C21.4361 14.377 21.0848 14.3061 20.7299 14.3061C20.3751 14.3061 20.0238 14.377 19.6967 14.5147C19.3696 14.6524 19.0734 14.8541 18.8254 15.108C18.5773 15.3618 18.3826 15.6626 18.2525 15.9928C18.1224 16.323 18.0596 16.6759 18.0679 17.0306C18.0678 17.7369 18.3482 18.4143 18.8474 18.9138C19.3467 19.4134 20.0244 19.6941 20.7307 19.6944ZM21.8593 19.8759H19.6006C17.7216 19.8759 16.1927 21.4062 16.1927 23.2866V26.0507L16.1994 26.0936L16.39 26.1534C18.1835 26.7151 19.7415 26.9013 21.0239 26.9013C23.5286 26.9013 24.9806 26.1868 25.0704 26.141L25.248 26.0512H25.2672V23.2866C25.2676 21.4062 23.7388 19.8759 21.8593 19.8759ZM26.263 17.1262H24.022C23.9993 17.992 23.6353 18.8138 23.0095 19.4126C24.6802 19.9093 25.9024 21.4597 25.9024 23.2909V24.1425C28.1153 24.0613 29.3906 23.4338 29.4747 23.3917L29.6523 23.301H29.6714V20.5364C29.6714 18.656 28.142 17.1262 26.263 17.1262ZM16.0594 16.9447C16.5801 16.9447 17.0649 16.7928 17.4751 16.5339C17.6038 15.7003 18.047 14.9477 18.7136 14.4309C18.716 14.3812 18.7208 14.332 18.7208 14.2814C18.721 13.5753 18.4408 12.898 17.9417 12.3984C17.4426 11.8989 16.7656 11.618 16.0594 11.6177C15.7097 11.6177 15.3635 11.6867 15.0404 11.8206C14.7174 11.9545 14.4239 12.1507 14.1767 12.3981C13.9295 12.6455 13.7335 12.9391 13.5998 13.2623C13.4661 13.5854 13.3974 13.9317 13.3976 14.2814C13.3975 14.6311 13.4662 14.9773 13.6 15.3004C13.7337 15.6235 13.9297 15.9171 14.1769 16.1644C14.4241 16.4117 14.7175 16.6079 15.0405 16.7418C15.3636 16.8757 15.7098 16.9446 16.0594 16.9447ZM18.45 19.4126C17.8277 18.8167 17.4644 18.0002 17.4384 17.1391C17.3553 17.1329 17.2731 17.1262 17.1881 17.1262H14.9298C13.0504 17.1262 11.5215 18.656 11.5215 20.5364V23.301L11.5286 23.344L11.7187 23.4037C13.1574 23.8526 14.4412 24.0604 15.557 24.1254V23.2904C15.557 21.4597 16.7792 19.9103 18.45 19.4126Z" fill="white"></path></g><defs><linearGradient id="paint0_linear_2201_1913" x1="20.5" y1="0" x2="20.5" y2="40" gradientUnits="userSpaceOnUse"><stop stop-color="#EF7822"></stop><stop offset="0.0001" stop-color="#EF7822"></stop><stop offset="1" stop-color="#F9BD00"></stop></linearGradient><clipPath id="clip0_2201_1913"><rect width="19.0588" height="16.9412" fill="white" transform="translate(11.5 11)"></rect></clipPath></defs></svg>