<svg xmlns="http://www.w3.org/2000/svg" width="31" height="31" viewBox="0 0 31 31" fill="none"><circle cx="15.4164" cy="15.9617" r="15" fill="url(#paint0_linear_1987_779)"></circle><g clip-path="url(#clip0_1987_779)"><path d="M17.8217 13.2658H12.6315L9.25912 23.4303L9.76454 23.9357C9.99093 24.1621 10.3849 24.1627 10.6116 23.9357C10.8353 23.7123 11.1334 23.5894 11.4513 23.5894C11.771 23.5894 12.0685 23.7129 12.2899 23.9369C12.5104 24.161 12.9126 24.161 13.1375 23.9357C13.3616 23.712 13.6596 23.5891 13.9775 23.5891C14.2972 23.5891 14.595 23.7126 14.8158 23.9366C15.0369 24.1607 15.4391 24.1607 15.6602 23.9366C15.881 23.7123 16.1788 23.5891 16.4985 23.5891C16.8164 23.5891 17.1145 23.712 17.3379 23.9352C17.564 24.1612 17.9659 24.1607 18.1858 23.9372C18.407 23.7126 18.7047 23.5894 19.0247 23.5894C19.3426 23.5894 19.6407 23.7123 19.8641 23.9354C19.9773 24.0486 20.1274 24.1109 20.2877 24.1109C20.4011 24.1109 20.5664 24.0805 20.7112 23.9357L21.2271 23.4198C21.1329 23.1206 20.8639 22.428 20.5816 21.702C19.7126 19.4662 18.2774 15.773 17.8217 13.2658Z" fill="white"></path><path d="M17.7933 12.6808C17.9182 10.3456 18.4529 8.85042 18.722 8.2321L17.3365 7.81238C17.1855 8.31721 16.7126 9.17098 15.2422 9.17098C13.7719 9.17098 13.2987 8.31721 13.148 7.81238L11.7643 8.23151C12.0375 8.85071 12.5792 10.3459 12.7043 12.6808H17.7933Z" fill="white"></path></g><defs><linearGradient id="paint0_linear_1987_779" x1="15.4164" y1="0.961662" x2="15.4164" y2="30.9617" gradientUnits="userSpaceOnUse"><stop stop-color="#FF5555"></stop><stop offset="1" stop-color="#B51515"></stop></linearGradient><clipPath id="clip0_1987_779"><rect width="14.6244" height="17.5492" fill="white" transform="translate(8.1042 7.18704)"></rect></clipPath></defs></svg>