<svg xmlns="http://www.w3.org/2000/svg" width="31" height="31" viewBox="0 0 31 31" fill="none"><circle cx="15.7812" cy="15.3853" r="15" fill="url(#paint0_linear_1985_724)"></circle><path d="M21.9333 15.6581H20.7316V21.1441H21.9333C22.1499 21.1441 22.3251 20.9688 22.3251 20.7523V16.05C22.3251 15.8334 22.1499 15.6581 21.9333 15.6581Z" fill="white"></path><path d="M9.62921 15.6581C9.41262 15.6581 9.23736 15.8334 9.23736 16.05V20.7523C9.23736 20.9688 9.41262 21.1441 9.62921 21.1441H10.8309V15.6581H9.62921Z" fill="white"></path><path d="M15.4693 16.05C15.1704 16.05 14.9018 16.216 14.7683 16.4832L13.5755 18.8695C13.7752 18.9571 13.9865 19.0015 14.2023 19.0015C14.7989 19.0015 15.3358 18.669 15.6032 18.1332L15.8612 17.6174H16.6196C16.8259 17.6174 17.0279 17.7012 17.1737 17.847L20.079 20.7522V16.05H15.4693Z" fill="white"></path><path d="M16.6186 18.4011H16.3446L16.322 18.4464C15.9518 19.1866 15.23 19.7092 14.4051 19.7767C13.7981 19.8263 13.3775 19.6517 12.8787 19.4248C12.6759 19.3326 12.5877 19.0903 12.6873 18.891L14.066 16.133C14.3315 15.6018 14.8744 15.2662 15.4683 15.2662H17.1593C17.2679 15.0258 17.3349 14.7633 17.3349 14.4825C17.3349 14.2659 17.1597 14.0906 16.9431 14.0906H13.9008C13.4555 14.0906 13.0484 14.3422 12.8492 14.7406L12.4988 15.4414C12.4324 15.5742 12.2967 15.6581 12.1482 15.6581H11.4571V21.144H13.2541L14.3643 22.2541C14.686 22.5759 15.1495 22.6775 15.5494 22.5438L18.8958 21.4918C19.0958 21.4356 19.2644 21.3255 19.402 21.1844L16.6186 18.4011Z" fill="white"></path><mask id="mask0_1985_724" style="mask-type:alpha" maskUnits="userSpaceOnUse" x="10" y="8" width="11" height="11"><path d="M15.7682 10.821C16.5004 10.821 17.0939 10.2275 17.0939 9.49528C17.0939 8.76308 16.5004 8.16952 15.7682 8.16952C15.036 8.16952 14.4424 8.76308 14.4424 9.49528C14.4424 10.2275 15.036 10.821 15.7682 10.821Z" fill="white"></path><path d="M17.7542 14.4245L17.4533 12.0806C17.4195 11.7405 17.1358 11.484 16.7944 11.484H16.4311C16.343 11.484 16.2588 11.5191 16.1965 11.5808L15.7682 12.009L15.34 11.5808C15.2777 11.5191 15.1935 11.484 15.1054 11.484H14.7428C14.4007 11.484 14.117 11.7405 14.0839 12.072L13.7822 14.4252C13.7703 14.5193 13.7995 14.6148 13.8625 14.6857C13.9254 14.7573 14.0156 14.7984 14.111 14.7984H14.469L14.7461 18.1791C14.7792 18.5185 15.0636 18.7757 15.4056 18.7757H16.1315C16.4735 18.7757 16.7573 18.5185 16.7917 18.1731L17.0681 14.7984H17.4254C17.5209 14.7984 17.611 14.7573 17.674 14.6857C17.7377 14.6148 17.7668 14.5193 17.7542 14.4245Z" fill="white"></path><path d="M18.8745 10.821C19.6067 10.821 20.2002 10.2275 20.2002 9.49528C20.2002 8.76308 19.6067 8.16952 18.8745 8.16952C18.1423 8.16952 17.5487 8.76308 17.5487 9.49528C17.5487 10.2275 18.1423 10.821 18.8745 10.821Z" fill="white"></path><path d="M12.6642 8.16952C11.933 8.16952 11.3384 8.76412 11.3384 9.49528C11.3384 10.2264 11.933 10.821 12.6642 10.821C13.3947 10.821 13.99 10.2264 13.99 9.49528C13.99 8.76412 13.3947 8.16952 12.6642 8.16952Z" fill="white"></path><path d="M20.8609 14.4245L20.56 12.0812C20.5261 11.7405 20.2431 11.484 19.901 11.484H19.5378C19.4496 11.484 19.3654 11.5191 19.3031 11.5808L18.8749 12.009L18.4467 11.5808C18.3844 11.5191 18.3002 11.484 18.2127 11.484H17.8494C17.8083 11.484 17.7712 11.4986 17.7321 11.5059C17.8176 11.657 17.8846 11.8207 17.9045 12.0043L18.2047 14.3403C18.2419 14.6247 18.153 14.9111 17.9621 15.1265C17.872 15.2299 17.7566 15.3028 17.6333 15.3598L17.8534 17.5162C17.8872 17.8562 18.1709 18.1128 18.513 18.1128H19.2388C19.5809 18.1128 19.8646 17.8556 19.8991 17.5102L20.1748 14.7984H20.5321C20.6276 14.7984 20.7177 14.7573 20.7807 14.6857C20.8443 14.6148 20.8735 14.5193 20.8609 14.4245Z" fill="white"></path><path d="M13.5751 15.1232C13.3868 14.9104 13.2993 14.6247 13.3351 14.3417L13.6367 11.9878C13.654 11.8114 13.7189 11.6523 13.8018 11.5052C13.7647 11.4986 13.7296 11.484 13.6904 11.484H13.3272C13.239 11.484 13.1548 11.5191 13.0925 11.5808L12.6643 12.009L12.2361 11.5808C12.1738 11.5191 12.0896 11.484 12.0021 11.484H11.6388C11.2968 11.484 11.013 11.7405 10.9799 12.072L10.6783 14.4252C10.6664 14.5193 10.6955 14.6148 10.7585 14.6857C10.8215 14.7573 10.9123 14.7984 11.0071 14.7984H11.365L11.6421 17.5162C11.6753 17.8556 11.9596 18.1128 12.3017 18.1128H13.0275C13.3696 18.1128 13.6533 17.8556 13.6878 17.5102L13.9078 15.3592C13.7839 15.3015 13.6679 15.2279 13.5751 15.1232Z" fill="white"></path></mask><g mask="url(#mask0_1985_724)"><path d="M12.4757 14.1492L12.3588 14.4121C12.2839 14.5806 12.1416 14.7097 11.9668 14.768C11.8999 14.7902 11.8299 14.8016 11.7595 14.8016H11.374H10.9227C10.871 14.8016 10.841 14.8601 10.8711 14.9021C10.9041 14.9482 10.8649 15.0111 10.809 15.0018L10.4404 14.9404C10.3686 14.9284 10.3075 14.8814 10.2776 14.8151L10.1894 14.6198C10.1401 14.5106 10.1235 14.3894 10.1417 14.2709L10.4174 12.4792C10.4368 12.3531 10.4465 12.2258 10.4465 12.0984V10.3481C10.4465 8.96499 11.5677 7.84377 12.9508 7.84377H19.0272C20.4103 7.84377 21.5315 8.96499 21.5315 10.3481V14.3367C21.5315 14.6681 21.2796 14.9452 20.9496 14.9767L20.546 15.0151C20.4732 15.0221 20.4156 15.0797 20.4087 15.1525C20.4016 15.2284 20.3394 15.2874 20.2632 15.2905L18.664 15.3555C18.4111 15.3658 18.2004 15.1635 18.2004 14.9104V14.5904C18.2004 14.4923 18.1144 14.4164 18.0171 14.4286C17.9233 14.4403 17.8392 14.3701 17.834 14.2757L17.8129 13.8929C17.8083 13.8087 17.7833 13.7269 17.74 13.6545L17.7304 13.6385C17.6228 13.4582 17.4283 13.3479 17.2184 13.3479H13.7408C13.5192 13.3479 13.3009 13.4005 13.1036 13.5014L13.0751 13.516C12.8088 13.6523 12.5972 13.8758 12.4757 14.1492Z" fill="white"></path></g><defs><linearGradient id="paint0_linear_1985_724" x1="15.7812" y1="0.385277" x2="15.7812" y2="30.3853" gradientUnits="userSpaceOnUse"><stop stop-color="#57E0FF"></stop><stop offset="1" stop-color="#00C073"></stop></linearGradient></defs></svg>