<svg xmlns="http://www.w3.org/2000/svg" width="40" height="40" viewBox="0 0 40 40" fill="none"><g clip-path="url(#clip0_2403_2118)"><path d="M20 40C31.0457 40 40 31.0457 40 20C40 8.9543 31.0457 0 20 0C8.9543 0 0 8.9543 0 20C0 31.0457 8.9543 40 20 40Z" fill="url(#paint0_linear_2403_2118)"></path><path fill-rule="evenodd" clip-rule="evenodd" d="M15.2136 28.8524C15.17 28.8524 15.1265 28.8349 15.1003 28.8088L12.9919 26.6916H9.31514C8.99276 26.6916 8.72266 26.4215 8.72266 26.0991V18.2926C8.72266 17.9615 8.99276 17.6914 9.31514 17.6914H21.1033C21.4257 17.6914 21.6958 17.9615 21.6958 18.2926V26.0991C21.6958 26.4302 21.4257 26.6916 21.1033 26.6916H17.4266L15.3181 28.8088C15.292 28.8349 15.2485 28.8524 15.2136 28.8524Z" fill="white"></path><path d="M12.6956 20.2579H17.1564C17.2313 20.2579 17.292 20.2296 17.3335 20.1835C17.374 20.1385 17.393 20.08 17.393 20.0235C17.393 19.9669 17.374 19.9084 17.3335 19.8634C17.292 19.8174 17.2313 19.7891 17.1564 19.7891H12.6956C12.6207 19.7891 12.56 19.8174 12.5185 19.8634C12.478 19.9084 12.459 19.9669 12.459 20.0235C12.459 20.08 12.478 20.1385 12.5185 20.1835C12.56 20.2296 12.6207 20.2579 12.6956 20.2579Z" fill="#6DA6E5" stroke="#6DA6E5" stroke-width="0.4"></path><path d="M11.6819 22.4189H18.7391C18.8132 22.4189 18.8726 22.389 18.9125 22.3418C18.9513 22.2959 18.9692 22.2369 18.9692 22.1802C18.9692 22.1235 18.9513 22.0644 18.9125 22.0185C18.8726 21.9713 18.8132 21.9414 18.7391 21.9414H11.6819C11.6065 21.9414 11.5456 21.9707 11.5044 22.0177C11.4641 22.0636 11.4453 22.1229 11.4453 22.1802C11.4453 22.2374 11.4641 22.2968 11.5044 22.3427C11.5456 22.3897 11.6065 22.4189 11.6819 22.4189Z" fill="#6DA6E5" stroke="#6DA6E5" stroke-width="0.4"></path><path d="M12.6956 24.5704H17.7315C17.805 24.5704 17.8642 24.5414 17.9043 24.4952C17.9434 24.4501 17.9615 24.3919 17.9615 24.336C17.9615 24.28 17.9434 24.2219 17.9043 24.1768C17.8642 24.1305 17.805 24.1016 17.7315 24.1016H12.6956C12.6207 24.1016 12.56 24.1299 12.5185 24.1759C12.478 24.221 12.459 24.2794 12.459 24.336C12.459 24.3926 12.478 24.451 12.5185 24.496C12.56 24.5421 12.6207 24.5704 12.6956 24.5704Z" fill="#6DA6E5" stroke="#6DA6E5" stroke-width="0.4"></path><path d="M17.0781 17.6914H21.695V22.0016H18.4013C17.6705 22.0016 17.0781 21.4092 17.0781 20.6784V17.6914Z" fill="#B1BADB" fill-opacity="0.7"></path><path d="M31.3986 12.3222V20.0785C31.3986 20.7348 30.8614 21.2718 30.2052 21.2718H18.8691C18.2128 21.2718 17.6758 20.7348 17.6758 20.0785V12.3222C17.6758 11.6659 18.2128 11.1289 18.8691 11.1289H30.2052C30.8614 11.1289 31.3986 11.6659 31.3986 12.3222Z" fill="white"></path><path d="M27.3818 12.3203H29.7683C30.0966 12.3203 30.3649 12.5888 30.3649 12.9169V14.1102C30.3649 14.4384 30.0966 14.7069 29.7683 14.7069H27.3818C27.0536 14.7069 26.7852 14.4384 26.7852 14.1102V12.9169C26.7852 12.5888 27.0536 12.3203 27.3818 12.3203Z" fill="#FFAB2E"></path><path d="M18.9648 19.3138C18.9648 19.4341 19.0451 19.5143 19.1654 19.5143H21.1703C21.2906 19.5143 21.3709 19.4341 21.3709 19.3138C21.3709 19.1935 21.2906 19.1133 21.1703 19.1133H19.1654C19.0451 19.1133 18.9648 19.1935 18.9648 19.3138Z" fill="#6DA6E5"></path><path d="M19.9673 20.1158H19.1654C19.0451 20.1158 18.9648 20.0357 18.9648 19.9154C18.9648 19.7951 19.0451 19.7148 19.1654 19.7148H19.9673C20.0876 19.7148 20.1679 19.7951 20.1679 19.9154C20.1679 20.0357 20.0876 20.1158 19.9673 20.1158Z" fill="#6DA6E5"></path><path d="M26.477 17.1044H25.8803C25.7013 17.1044 25.582 16.9851 25.582 16.8061C25.582 16.6272 25.7013 16.5078 25.8803 16.5078H26.477C26.656 16.5078 26.7753 16.6272 26.7753 16.8061C26.7753 16.9851 26.656 17.1044 26.477 17.1044Z" fill="#6DA6E5"></path><path d="M24.6723 17.1044H24.0757C23.8967 17.1044 23.7773 16.9851 23.7773 16.8061C23.7773 16.6272 23.8967 16.5078 24.0757 16.5078H24.6723C24.8513 16.5078 24.9706 16.6272 24.9706 16.8061C24.9706 16.9851 24.8513 17.1044 24.6723 17.1044Z" fill="#6DA6E5"></path><path d="M22.8676 17.1044H22.271C22.092 17.1044 21.9727 16.9851 21.9727 16.8061C21.9727 16.6272 22.092 16.5078 22.271 16.5078H22.8676C23.0466 16.5078 23.1659 16.6272 23.1659 16.8061C23.1659 16.9851 23.0466 17.1044 22.8676 17.1044Z" fill="#6DA6E5"></path><path d="M21.0629 17.1044H20.4663C20.2873 17.1044 20.168 16.9851 20.168 16.8061C20.168 16.6272 20.2873 16.5078 20.4663 16.5078H21.0629C21.2419 16.5078 21.3612 16.6272 21.3612 16.8061C21.3612 16.9851 21.2419 17.1044 21.0629 17.1044Z" fill="#6DA6E5"></path><path d="M28.2817 17.1045H27.685C27.506 17.1045 27.3867 16.9851 27.3867 16.8062C27.3867 16.6271 27.506 16.5078 27.685 16.5078H28.2817C28.4607 16.5078 28.58 16.6271 28.58 16.8062C28.58 16.9851 28.4607 17.1045 28.2817 17.1045Z" fill="#6DA6E5"></path><path d="M30.0863 17.1045H29.4897C29.3107 17.1045 29.1914 16.9851 29.1914 16.8062C29.1914 16.6271 29.3107 16.5078 29.4897 16.5078H30.0863C30.2652 16.5078 30.3846 16.6271 30.3846 16.8062C30.3846 16.9851 30.2652 17.1045 30.0863 17.1045Z" fill="#6DA6E5"></path><path d="M19.9517 13.7163C19.6956 13.9333 19.3598 13.2914 19.7642 12.9486C19.845 12.8801 19.9447 12.8883 20.0132 12.9691C20.0818 13.05 20.0736 13.1496 19.9927 13.2182C19.9118 13.2867 19.9036 13.3864 19.9722 13.4672C20.0407 13.5481 20.0325 13.6477 19.9517 13.7163Z" fill="#6DA6E5"></path><path d="M19.4128 14.1733C19.3319 14.2419 19.2323 14.2337 19.1637 14.1528C18.7181 13.6272 18.7817 12.8552 19.3073 12.4096C19.3882 12.341 19.4878 12.3492 19.5564 12.4301C19.6249 12.5109 19.6167 12.6106 19.5359 12.6791C19.1585 12.9991 19.1134 13.5469 19.4333 13.9243C19.5018 14.0052 19.4936 14.1048 19.4128 14.1733Z" fill="#6DA6E5"></path></g><defs><linearGradient id="paint0_linear_2403_2118" x1="20" y1="0" x2="20" y2="40" gradientUnits="userSpaceOnUse"><stop stop-color="#B1D3FF"></stop><stop offset="1" stop-color="#437ECD"></stop></linearGradient><clipPath id="clip0_2403_2118"><rect width="40" height="40" fill="white"></rect></clipPath></defs></svg>