<svg xmlns="http://www.w3.org/2000/svg" width="60" height="61" viewBox="0 0 60 61" fill="none"><g clip-path="url(#clip0_2081_889)"><path d="M58.0395 33.5709V23.5078C58.0395 22.0872 56.888 20.9356 55.4674 20.9356H54.6731C53.6249 20.9356 52.6896 20.2964 52.2888 19.3279C52.2844 19.3172 52.28 19.3065 52.2755 19.2959C51.8728 18.3267 52.0812 17.2118 52.8233 16.4696L53.3849 15.908C54.3894 14.9035 54.3894 13.2749 53.3849 12.2705L46.2692 5.15471C45.2647 4.15024 43.6361 4.15024 42.6316 5.15471L42.07 5.71635C41.3279 6.45847 40.2129 6.66682 39.2438 6.26412C39.2331 6.25965 39.2224 6.25529 39.2118 6.25082C38.2433 5.85 37.604 4.91471 37.604 3.86659V3.07224C37.604 1.65153 36.4524 0.5 35.0318 0.5H24.9686C23.548 0.5 22.3965 1.65153 22.3965 3.07212V3.86647C22.3965 4.91459 21.7572 5.84988 20.7887 6.25071C20.778 6.25518 20.7673 6.25953 20.7567 6.264C19.7875 6.66671 18.6726 6.45835 17.9305 5.71624L17.3688 5.15459C16.3644 4.15012 14.7358 4.15012 13.7313 5.15459L6.61553 12.2704C5.61106 13.2748 5.61106 14.9034 6.61553 15.9079L7.17717 16.4695C7.91929 17.2116 8.12764 18.3266 7.72494 19.2958C7.72047 19.3065 7.71611 19.3172 7.71164 19.3278C7.31082 20.2962 6.37553 20.9355 5.32741 20.9355H4.53306C3.11247 20.9355 1.96094 22.0871 1.96094 23.5077V33.5708C1.96094 34.9914 3.11247 36.1429 4.53306 36.1429H5.32741C6.37553 36.1429 7.31082 36.7822 7.71164 37.7507C7.71611 37.7614 7.72047 37.7721 7.72494 37.7827C8.12764 38.7519 7.91929 39.8668 7.17717 40.6089L6.61553 41.1706C5.61106 42.1751 5.61106 43.8036 6.61553 44.8081L13.7313 51.9239C14.7358 52.9284 16.3644 52.9284 17.3688 51.9239L17.9305 51.3622C18.6726 50.6201 19.7875 50.4118 20.7567 50.8145C20.7674 50.8189 20.7781 50.8233 20.7887 50.8278C21.7572 51.2286 22.3965 52.1639 22.3965 53.212V54.0064C22.3965 55.4269 23.548 56.5785 24.9686 56.5785H35.0318C36.4524 56.5785 37.6039 55.4269 37.6039 54.0064V53.212C37.6039 52.1639 38.2432 51.2286 39.2116 50.8278C39.2224 50.8233 39.2331 50.8189 39.2436 50.8145C40.2128 50.4118 41.3278 50.6201 42.0699 51.3622L42.6315 51.9239C43.636 52.9284 45.2646 52.9284 46.2691 51.9239L53.3848 44.8081C54.3893 43.8036 54.3893 42.1751 53.3848 41.1706L52.8232 40.6089C52.0811 39.8668 51.8727 38.7519 52.2754 37.7827C52.2799 37.772 52.2842 37.7613 52.2887 37.7507C52.6895 36.7822 53.6248 36.1429 54.6729 36.1429H55.4673C56.888 36.1431 58.0395 34.9914 58.0395 33.5709Z" fill="#039D55"></path><path d="M30.0018 48.0621C40.7831 48.0621 49.5231 39.3221 49.5231 28.5408C49.5231 17.7595 40.7831 9.01953 30.0018 9.01953C19.2205 9.01953 10.4805 17.7595 10.4805 28.5408C10.4805 39.3221 19.2205 48.0621 30.0018 48.0621Z" fill="#006D3A"></path><path d="M58.0242 33.8353C57.8926 35.1324 56.7972 36.144 55.4661 36.144H54.6715C53.6237 36.144 52.6887 36.7831 52.2876 37.7521C52.2826 37.7634 52.2788 37.7734 52.2739 37.7847C51.8715 38.7535 52.0796 39.8677 52.8216 40.611L53.3843 41.1726C54.3883 42.1766 54.3883 43.8046 53.3843 44.8099L46.2677 51.9251C45.2637 52.9303 43.6344 52.9303 42.6304 51.9251L42.0689 51.3636C41.3269 50.6216 40.2114 50.4136 39.2426 50.8159C39.2313 50.8209 39.2213 50.8247 39.21 50.8296C38.2423 51.2294 37.6032 52.1657 37.6032 53.2135V54.0081C37.6032 55.3442 36.5842 56.4421 35.2807 56.5675L19.0609 40.3402C15.9012 37.4111 14.1728 33.2261 14.1641 28.5699C14.1541 23.1616 16.563 18.6244 20.649 15.7003C21.1554 15.3381 21.7983 15.2266 22.1455 15.6451C22.2608 15.7855 36.1117 29.6126 36.2683 29.763C37.1043 29.0837 37.6032 28.0584 37.6032 26.9617V16.3433C37.6032 15.4509 38.6134 14.9244 39.3403 15.4434C40.2402 16.0876 41.0713 16.8208 41.8195 17.6317L58.0242 33.8353Z" fill="url(#paint0_linear_2081_889)"></path><path d="M53.3853 41.1695L52.8237 40.6078C52.0816 39.8657 51.8732 38.7508 52.2759 37.7816C52.2804 37.7709 52.2847 37.7602 52.2892 37.7496C52.69 36.7811 53.6253 36.1418 54.6734 36.1418H55.4678C56.7989 36.1418 57.8938 35.1306 58.0264 33.8345L41.8212 17.6292C41.4778 17.257 41.118 16.9023 40.7409 16.5664C43.2864 19.4116 44.8331 23.1678 44.8331 27.2851C44.8331 33.4178 41.4002 38.7496 36.3516 41.4631V56.2103C37.1012 55.7609 37.6045 54.9429 37.6045 54.0052V53.2109C37.6045 52.1628 38.2438 51.2275 39.2123 50.8266C39.223 50.8222 39.2337 50.8178 39.2443 50.8134C40.2134 50.4106 41.3284 50.619 42.0705 51.3611L42.6322 51.9228C43.6366 52.9272 45.2652 52.9272 46.2697 51.9228L53.3854 44.807C54.3899 43.8025 54.3899 42.1739 53.3853 41.1695Z" fill="url(#paint1_linear_2081_889)"></path><path d="M37.2578 57.6907C37.6 55.775 37.7721 53.8341 37.7721 51.8894V38.6094H22.2305V51.8895C22.2305 53.8342 22.4026 55.7751 22.7448 57.6908C23.0351 59.3157 24.4771 60.5014 26.1629 60.5014H33.8396C35.5255 60.5014 36.9675 59.3157 37.2578 57.6907Z" fill="url(#paint2_linear_2081_889)"></path><path d="M22.2305 42.7235L37.2956 57.4647C37.6116 55.6224 37.7721 53.7577 37.7721 51.8895V38.6094H22.2305V42.7235Z" fill="url(#paint3_linear_2081_889)"></path><path d="M46.0853 28.5403C46.0853 37.4241 38.8835 44.6258 29.9999 44.6259C21.1161 44.6261 13.93 37.4535 13.9141 28.5697C13.9044 23.1612 16.5639 18.373 20.6499 15.4497C21.3801 14.9274 22.3956 15.4462 22.3956 16.3439V26.9611C22.3956 28.2524 23.0844 29.4456 24.2027 30.0912L28.1924 32.3949C29.3108 33.0407 30.6887 33.0407 31.807 32.3949L35.7968 30.0912C36.915 29.4456 37.6039 28.2524 37.6039 26.9611V16.3436C37.6039 15.4504 38.6143 14.9244 39.3411 15.4436C43.4244 18.361 46.0853 23.1402 46.0853 28.5403Z" fill="url(#paint4_linear_2081_889)"></path><path d="M18.0978 29.8952C18.0978 31.9166 19.1761 33.7845 20.9267 34.7953L27.1726 38.4015C28.9233 39.4124 31.0804 39.4124 32.8311 38.4015L39.077 34.7953C40.8275 33.7846 41.9059 31.9167 41.9059 29.8952V17.7236C41.1357 16.8765 40.2772 16.1108 39.3432 15.4436C38.6165 14.9244 37.6059 15.4505 37.6059 16.3436V26.9612C37.6059 28.2525 36.9171 29.4456 35.7988 30.0913L31.8091 32.3949C30.6907 33.0407 29.3128 33.0407 28.1945 32.3949L24.2047 30.0913C23.0865 29.4456 22.3977 28.2525 22.3977 26.9612V16.344C22.3977 15.4461 21.3821 14.9273 20.6519 15.4498C19.7213 16.1155 18.8657 16.8791 18.0977 17.7236V29.8952H18.0978Z" fill="url(#paint5_linear_2081_889)"></path></g><defs><linearGradient id="paint0_linear_2081_889" x1="42.5002" y1="41.4072" x2="22.0002" y2="18.9072" gradientUnits="userSpaceOnUse"><stop stop-color="#039D55"></stop><stop offset="1" stop-color="#00361D"></stop></linearGradient><linearGradient id="paint1_linear_2081_889" x1="59.0002" y1="41.4043" x2="38.6315" y2="37.363" gradientUnits="userSpaceOnUse"><stop stop-color="#039D55"></stop><stop offset="0.845257" stop-color="#00361D"></stop></linearGradient><linearGradient id="paint2_linear_2081_889" x1="35.8308" y1="55.6865" x2="15.2242" y2="40.9879" gradientUnits="userSpaceOnUse"><stop stop-color="#E1E1E1"></stop><stop offset="1" stop-color="#BBBBBB"></stop></linearGradient><linearGradient id="paint3_linear_2081_889" x1="43.6481" y1="59.4025" x2="24.9069" y2="46.4996" gradientUnits="userSpaceOnUse"><stop stop-color="white"></stop><stop offset="1" stop-color="#A9A9A9"></stop></linearGradient><linearGradient id="paint4_linear_2081_889" x1="42.0668" y1="38.1625" x2="12.9429" y2="6.12861" gradientUnits="userSpaceOnUse"><stop stop-color="#BBBBBB"></stop><stop offset="1" stop-color="white"></stop></linearGradient><linearGradient id="paint5_linear_2081_889" x1="38.932" y1="33.8985" x2="15.1178" y2="10.0842" gradientUnits="userSpaceOnUse"><stop stop-color="white"></stop><stop offset="1" stop-color="#BBBBBB"></stop></linearGradient><clipPath id="clip0_2081_889"><rect y="0.5" width="60" height="60" rx="10" fill="white"></rect></clipPath></defs></svg>