<svg xmlns="http://www.w3.org/2000/svg" width="60" height="61" viewBox="0 0 60 61" fill="none"><g clip-path="url(#clip0_2081_862)"><path d="M13.6153 60.3815H46.4937C47.4743 60.3815 48.1321 59.3708 47.732 58.475C47.0064 56.8513 45.4372 55.6872 43.581 55.5393C43.5828 55.4922 43.5847 55.445 43.5847 55.3974C43.5847 53.4537 42.0095 51.8781 40.0658 51.8781C39.2116 51.8781 38.4284 52.1825 37.8191 52.6888C37.2501 53.1612 36.547 53.4428 35.8072 53.4428H35.7358C34.7146 53.4446 33.886 52.6174 33.886 51.5966V44.0586H26.223V51.5966C26.223 52.6174 25.3945 53.4446 24.3732 53.4428H24.3018C23.5621 53.4428 22.8589 53.1612 22.2899 52.6888C21.6806 52.1825 20.8974 51.8781 20.0432 51.8781C18.0996 51.8781 16.5244 53.4537 16.5244 55.3974C16.5244 55.445 16.5258 55.4922 16.5281 55.5393C14.6718 55.6872 13.1026 56.8513 12.3771 58.475C11.9765 59.3708 12.6343 60.3815 13.6153 60.3815Z" fill="url(#paint0_linear_2081_862)"></path><path d="M47.7316 58.4754C47.0061 56.8517 45.4368 55.6876 43.5806 55.5398C43.5824 55.4926 43.5843 55.4455 43.5843 55.3979C43.5843 53.4542 42.0091 51.8786 40.0654 51.8786C39.2112 51.8786 38.428 52.183 37.8187 52.6893C37.2497 53.1617 36.5466 53.4432 35.8069 53.4432H35.7354C34.7142 53.445 33.8856 52.6179 33.8856 51.5971V44.0586H26.2227V49.0327L37.572 60.382H46.4934C47.4739 60.382 48.1317 59.3713 47.7316 58.4754Z" fill="url(#paint1_linear_2081_862)"></path><path d="M23.5854 46.3301H12.4864C11.4153 46.3301 10.5469 45.3597 10.5469 44.1621V37.2948C10.5469 36.6287 10.8206 36.0002 11.2889 35.5891L23.5854 24.8047V46.3301Z" fill="#00703B"></path><path d="M36.5234 46.3301H47.6224C48.6935 46.3301 49.5619 45.3597 49.5619 44.1621V37.2948C49.5619 36.6287 49.2882 36.0002 48.8194 35.5891L36.5234 24.8047V46.3301Z" fill="#00703B"></path><path d="M40.367 44.8126H19.7383V17.5898C19.7383 11.6329 22.1727 5.93469 26.4775 1.81756C28.477 -0.0954364 31.6278 -0.0954364 33.6273 1.81756C37.9321 5.93469 40.367 11.6329 40.367 17.5898V44.8126Z" fill="url(#paint2_linear_2081_862)"></path><path d="M40.3705 22.5505L34.1018 16.2819C33.0975 15.1892 31.6569 14.5039 30.0561 14.5039C27.0221 14.5039 24.5625 16.9635 24.5625 19.9971C24.5625 21.5983 25.2478 23.0389 26.3409 24.0432L40.3705 38.0728V22.5505Z" fill="url(#paint3_linear_2081_862)"></path><path d="M30.0561 14.5039C27.0221 14.5039 24.5625 16.9635 24.5625 19.9971C24.5625 23.0311 27.0221 25.4907 30.0561 25.4907C33.0897 25.4907 35.5497 23.0311 35.5497 19.9971C35.5497 16.9635 33.0897 14.5039 30.0561 14.5039Z" fill="url(#paint4_linear_2081_862)"></path><path d="M30.0534 23.7163C32.1065 23.7163 33.7709 22.0518 33.7709 19.9988C33.7709 17.9457 32.1065 16.2812 30.0534 16.2812C28.0004 16.2812 26.3359 17.9457 26.3359 19.9988C26.3359 22.0518 28.0004 23.7163 30.0534 23.7163Z" fill="url(#paint5_linear_2081_862)"></path><path d="M30.0562 17.2891C28.5603 17.2891 27.3477 18.5017 27.3477 19.9972C27.3477 21.4932 28.5603 22.7058 30.0562 22.7058C31.5518 22.7058 32.7648 21.4932 32.7648 19.9972C32.7648 18.5017 31.5518 17.2891 30.0562 17.2891Z" fill="#00331B"></path><path d="M40.3705 37.3483V44.8117H32.3115L26.3405 38.8406C25.2478 37.8358 24.5625 36.3952 24.5625 34.7944C24.5625 31.7608 27.0221 29.3008 30.0561 29.3008C31.6569 29.3008 33.0975 29.987 34.1023 31.0787L40.3705 37.3483Z" fill="url(#paint6_linear_2081_862)"></path><path d="M33.6291 1.81756C31.6296 -0.0954363 28.4788 -0.0954363 26.4793 1.81756C24.1703 4.02627 22.3997 6.69 21.2539 9.60458C23.8952 10.1809 26.8858 10.5059 30.0544 10.5059C33.2226 10.5059 36.2132 10.1809 38.8545 9.60458C37.7087 6.69 35.9385 4.02627 33.6291 1.81756Z" fill="#00703B"></path><path d="M19.7383 43.2422V48.067C19.7383 48.6223 20.1883 49.0723 20.7431 49.0723H39.3617C39.917 49.0723 40.367 48.6223 40.367 48.067V43.2422H19.7383Z" fill="#00703B"></path><path d="M12.3768 58.476C11.9767 59.3719 12.6345 60.3826 13.6155 60.3826H46.494C47.4745 60.3826 48.1323 59.3719 47.7322 58.476C47.3843 57.6969 46.8405 57.0258 46.1658 56.5195H13.9438C13.2686 57.0258 12.7252 57.6969 12.3768 58.476Z" fill="url(#paint7_linear_2081_862)"></path><path d="M30.0561 29.3008C27.0221 29.3008 24.5625 31.7603 24.5625 34.7939C24.5625 37.828 27.0221 40.2876 30.0561 40.2876C33.0897 40.2876 35.5497 37.828 35.5497 34.7939C35.5497 31.7603 33.0897 29.3008 30.0561 29.3008Z" fill="url(#paint8_linear_2081_862)"></path><path d="M30.0534 38.5131C32.1065 38.5131 33.7709 36.8487 33.7709 34.7956C33.7709 32.7426 32.1065 31.0781 30.0534 31.0781C28.0004 31.0781 26.3359 32.7426 26.3359 34.7956C26.3359 36.8487 28.0004 38.5131 30.0534 38.5131Z" fill="url(#paint9_linear_2081_862)"></path><path d="M30.0562 32.0859C28.5603 32.0859 27.3477 33.2986 27.3477 34.7941C27.3477 36.29 28.5603 37.5027 30.0562 37.5027C31.5518 37.5027 32.7648 36.29 32.7648 34.7941C32.7648 33.2986 31.5518 32.0859 30.0562 32.0859Z" fill="#00331B"></path></g><defs><linearGradient id="paint0_linear_2081_862" x1="12.993" y1="49.0853" x2="38.4124" y2="56.5615" gradientUnits="userSpaceOnUse"><stop stop-color="#FFFCF8"></stop><stop offset="0.1875" stop-color="#FAF8F6"></stop><stop offset="0.4041" stop-color="#ECEEF2"></stop><stop offset="0.6353" stop-color="#D5DCEA"></stop><stop offset="0.875" stop-color="#B5C4DF"></stop><stop offset="1" stop-color="#A1B5D8"></stop></linearGradient><linearGradient id="paint1_linear_2081_862" x1="38.3442" y1="57.2855" x2="30.5356" y2="37.0996" gradientUnits="userSpaceOnUse"><stop stop-color="#A1B5D8" stop-opacity="0"></stop><stop offset="0.3862" stop-color="#8C9DB6" stop-opacity="0.384314"></stop><stop offset="0.7742" stop-color="#7A899A" stop-opacity="0.772549"></stop><stop offset="1" stop-color="#748290"></stop></linearGradient><linearGradient id="paint2_linear_2081_862" x1="17.3838" y1="22.5977" x2="47.8405" y2="22.5977" gradientUnits="userSpaceOnUse"><stop stop-color="#FFFCF8"></stop><stop offset="0.1875" stop-color="#FAF8F6"></stop><stop offset="0.4041" stop-color="#ECEEF2"></stop><stop offset="0.6353" stop-color="#D5DCEA"></stop><stop offset="0.875" stop-color="#B5C4DF"></stop><stop offset="1" stop-color="#A1B5D8"></stop></linearGradient><linearGradient id="paint3_linear_2081_862" x1="41.1479" y1="31.0891" x2="20.7894" y2="10.7305" gradientUnits="userSpaceOnUse"><stop stop-color="#A1B5D8" stop-opacity="0"></stop><stop offset="0.3862" stop-color="#8C9DB6" stop-opacity="0.384314"></stop><stop offset="0.7742" stop-color="#7A899A" stop-opacity="0.772549"></stop><stop offset="1" stop-color="#748290"></stop></linearGradient><linearGradient id="paint4_linear_2081_862" x1="24.5256" y1="14.4668" x2="32.2945" y2="22.2357" gradientUnits="userSpaceOnUse"><stop stop-color="#69D78A"></stop><stop offset="1" stop-color="#00703B"></stop></linearGradient><linearGradient id="paint5_linear_2081_862" x1="26.311" y1="16.2561" x2="31.5684" y2="21.5133" gradientUnits="userSpaceOnUse"><stop stop-color="#00703B"></stop><stop offset="1" stop-color="#69D78A"></stop></linearGradient><linearGradient id="paint6_linear_2081_862" x1="37.8103" y1="42.5487" x2="21.9888" y2="26.7272" gradientUnits="userSpaceOnUse"><stop stop-color="#A1B5D8" stop-opacity="0"></stop><stop offset="0.3862" stop-color="#8C9DB6" stop-opacity="0.384314"></stop><stop offset="0.7742" stop-color="#7A899A" stop-opacity="0.772549"></stop><stop offset="1" stop-color="#748290"></stop></linearGradient><linearGradient id="paint7_linear_2081_862" x1="30.0547" y1="58.5551" x2="30.0547" y2="61.3794" gradientUnits="userSpaceOnUse"><stop stop-color="#A1B5D8" stop-opacity="0"></stop><stop offset="0.3862" stop-color="#8C9DB6" stop-opacity="0.384314"></stop><stop offset="0.7742" stop-color="#7A899A" stop-opacity="0.772549"></stop><stop offset="1" stop-color="#748290"></stop></linearGradient><linearGradient id="paint8_linear_2081_862" x1="24.5256" y1="29.2637" x2="32.2945" y2="37.0326" gradientUnits="userSpaceOnUse"><stop stop-color="#69D78A"></stop><stop offset="1" stop-color="#00703B"></stop></linearGradient><linearGradient id="paint9_linear_2081_862" x1="26.311" y1="31.053" x2="31.5684" y2="36.3102" gradientUnits="userSpaceOnUse"><stop stop-color="#00703B"></stop><stop offset="1" stop-color="#69D78A"></stop></linearGradient><clipPath id="clip0_2081_862"><rect y="0.5" width="60" height="60" rx="10" fill="white"></rect></clipPath></defs></svg>