<svg xmlns="http://www.w3.org/2000/svg" width="117" height="98" viewBox="0 0 117 98" fill="none"><path d="M0 20.8678V47.5041C0 56.2418 5.38417 63.7311 13.0209 66.8254C15.4463 67.8161 18.0952 68.3599 20.8678 68.3599H69.2746C70.3518 71.788 71.5645 74.8078 72.8636 77.4701C81.7265 95.7635 94.4614 97.3605 94.4614 97.3605C90.0679 93.1027 87.1956 86.9632 85.3393 80.849C83.9776 76.4302 83.1358 72.0233 82.6293 68.3599H95.4268C95.7858 68.3599 96.1449 68.348 96.4905 68.3227C96.6886 68.3227 96.8868 68.2973 97.0849 68.2854C97.1713 68.2854 97.2711 68.2854 97.3576 68.2601C102.63 67.7893 107.333 65.3386 110.712 61.6751C114.178 57.9506 116.295 52.9746 116.295 47.5041V20.8678C116.295 9.34408 106.95 0 95.4268 0H20.8692C9.34557 0 0.00148672 9.34408 0.00148672 20.8678H0Z" fill="url(#paint0_linear_1427_6416)"></path><path d="M19.8409 53V43.2H23.6769C24.3769 43.2 25.0069 43.3167 25.5669 43.55C26.1362 43.7833 26.6215 44.1193 27.0229 44.558C27.4242 44.9967 27.7322 45.5147 27.9469 46.112C28.1615 46.7093 28.2689 47.372 28.2689 48.1C28.2689 48.828 28.1615 49.4953 27.9469 50.102C27.7322 50.6993 27.4242 51.2173 27.0229 51.656C26.6309 52.0853 26.1502 52.4167 25.5809 52.65C25.0115 52.8833 24.3769 53 23.6769 53H19.8409ZM21.3529 51.698L21.3109 51.544H23.6069C24.1015 51.544 24.5402 51.4647 24.9229 51.306C25.3149 51.1473 25.6415 50.9233 25.9029 50.634C26.1735 50.3353 26.3789 49.9713 26.5189 49.542C26.6589 49.1127 26.7289 48.632 26.7289 48.1C26.7289 47.568 26.6589 47.092 26.5189 46.672C26.3789 46.2427 26.1735 45.8787 25.9029 45.58C25.6322 45.2813 25.3055 45.0527 24.9229 44.894C24.5402 44.7353 24.1015 44.656 23.6069 44.656H21.2689L21.3529 44.53V51.698ZM33.5335 53.14C32.8149 53.14 32.1709 52.9767 31.6015 52.65C31.0415 52.314 30.5982 51.8613 30.2715 51.292C29.9449 50.7133 29.7815 50.0553 29.7815 49.318C29.7815 48.5807 29.9449 47.9273 30.2715 47.358C30.5982 46.7793 31.0415 46.3267 31.6015 46C32.1709 45.664 32.8149 45.496 33.5335 45.496C34.2429 45.496 34.8775 45.664 35.4375 46C36.0069 46.3267 36.4549 46.7793 36.7815 47.358C37.1082 47.9273 37.2715 48.5807 37.2715 49.318C37.2715 50.0553 37.1082 50.7133 36.7815 51.292C36.4549 51.8613 36.0069 52.314 35.4375 52.65C34.8775 52.9767 34.2429 53.14 33.5335 53.14ZM33.5335 51.824C33.9722 51.824 34.3642 51.7167 34.7095 51.502C35.0549 51.278 35.3255 50.9793 35.5215 50.606C35.7175 50.2233 35.8109 49.794 35.8015 49.318C35.8109 48.8327 35.7175 48.4033 35.5215 48.03C35.3255 47.6473 35.0549 47.3487 34.7095 47.134C34.3642 46.9193 33.9722 46.812 33.5335 46.812C33.0949 46.812 32.6982 46.924 32.3435 47.148C31.9982 47.3627 31.7275 47.6613 31.5315 48.044C31.3355 48.4173 31.2422 48.842 31.2515 49.318C31.2422 49.794 31.3355 50.2233 31.5315 50.606C31.7275 50.9793 31.9982 51.278 32.3435 51.502C32.6982 51.7167 33.0949 51.824 33.5335 51.824ZM42.2448 53.14C41.5635 53.14 40.9521 52.972 40.4108 52.636C39.8788 52.3 39.4541 51.8427 39.1368 51.264C38.8288 50.6853 38.6748 50.0367 38.6748 49.318C38.6748 48.5993 38.8288 47.9507 39.1368 47.372C39.4541 46.7933 39.8788 46.336 40.4108 46C40.9521 45.664 41.5635 45.496 42.2448 45.496C42.8981 45.496 43.4908 45.6313 44.0228 45.902C44.5641 46.1633 44.9748 46.5227 45.2548 46.98L44.4568 47.96C44.3075 47.7453 44.1161 47.5493 43.8828 47.372C43.6495 47.1947 43.4021 47.0547 43.1408 46.952C42.8795 46.8493 42.6275 46.798 42.3848 46.798C41.9368 46.798 41.5355 46.91 41.1808 47.134C40.8355 47.3487 40.5601 47.6473 40.3548 48.03C40.1495 48.4127 40.0468 48.842 40.0468 49.318C40.0468 49.794 40.1541 50.2233 40.3688 50.606C40.5835 50.9793 40.8681 51.278 41.2228 51.502C41.5775 51.726 41.9695 51.838 42.3988 51.838C42.6508 51.838 42.8935 51.796 43.1268 51.712C43.3695 51.628 43.6028 51.502 43.8268 51.334C44.0508 51.166 44.2608 50.9607 44.4568 50.718L45.2548 51.698C44.9561 52.118 44.5268 52.4633 43.9668 52.734C43.4161 53.0047 42.8421 53.14 42.2448 53.14ZM49.471 53.14C48.9483 53.14 48.491 53.0187 48.099 52.776C47.7163 52.5333 47.4177 52.1927 47.203 51.754C46.9977 51.3153 46.895 50.7927 46.895 50.186V45.65H48.337V49.794C48.337 50.438 48.4863 50.9467 48.785 51.32C49.093 51.6933 49.5177 51.88 50.059 51.88C50.3297 51.88 50.577 51.838 50.801 51.754C51.025 51.6607 51.2163 51.5347 51.375 51.376C51.543 51.2173 51.6737 51.026 51.767 50.802C51.8603 50.578 51.907 50.3353 51.907 50.074V45.65H53.349V53H51.907V51.46L52.159 51.292C52.047 51.6373 51.8557 51.95 51.585 52.23C51.3237 52.51 51.011 52.734 50.647 52.902C50.283 53.0607 49.891 53.14 49.471 53.14ZM55.6236 53V45.65H57.0796V47.218L56.8136 47.386C56.8882 47.1433 57.0049 46.91 57.1636 46.686C57.3316 46.462 57.5322 46.266 57.7656 46.098C58.0082 45.9207 58.2649 45.7807 58.5356 45.678C58.8156 45.5753 59.1002 45.524 59.3896 45.524C59.8096 45.524 60.1782 45.594 60.4956 45.734C60.8129 45.874 61.0742 46.084 61.2796 46.364C61.4849 46.644 61.6342 46.994 61.7276 47.414L61.5036 47.358L61.6016 47.12C61.7042 46.9053 61.8442 46.7047 62.0216 46.518C62.2082 46.322 62.4182 46.1493 62.6516 46C62.8849 45.8507 63.1322 45.734 63.3936 45.65C63.6549 45.566 63.9116 45.524 64.1636 45.524C64.7142 45.524 65.1669 45.636 65.5216 45.86C65.8856 46.084 66.1562 46.4247 66.3336 46.882C66.5202 47.3393 66.6136 47.9087 66.6136 48.59V53H65.1576V48.674C65.1576 48.0487 65.0362 47.5913 64.7936 47.302C64.5602 47.0033 64.1916 46.854 63.6876 46.854C63.4262 46.854 63.1789 46.9007 62.9456 46.994C62.7216 47.078 62.5256 47.1993 62.3576 47.358C62.1896 47.5167 62.0589 47.7033 61.9656 47.918C61.8722 48.1233 61.8256 48.352 61.8256 48.604V53H60.3696V48.646C60.3696 48.0673 60.2436 47.624 59.9916 47.316C59.7489 47.008 59.3942 46.854 58.9276 46.854C58.6662 46.854 58.4236 46.9007 58.1996 46.994C57.9756 47.078 57.7796 47.1993 57.6116 47.358C57.4436 47.5073 57.3129 47.6893 57.2196 47.904C57.1262 48.1093 57.0796 48.3333 57.0796 48.576V53H55.6236ZM72.2541 53.14C71.4981 53.14 70.8261 52.9813 70.2381 52.664C69.6595 52.3373 69.2021 51.894 68.8661 51.334C68.5395 50.774 68.3761 50.13 68.3761 49.402C68.3761 48.8233 68.4695 48.296 68.6561 47.82C68.8428 47.344 69.0995 46.9333 69.4261 46.588C69.7621 46.2333 70.1588 45.9627 70.6161 45.776C71.0828 45.58 71.5868 45.482 72.1281 45.482C72.6041 45.482 73.0475 45.5753 73.4581 45.762C73.8688 45.9393 74.2235 46.1867 74.5221 46.504C74.8301 46.8213 75.0635 47.1993 75.2221 47.638C75.3901 48.0673 75.4695 48.5387 75.4601 49.052L75.4461 49.668H69.4401L69.1181 48.52H74.2001L73.9901 48.758V48.422C73.9621 48.114 73.8595 47.8387 73.6821 47.596C73.5048 47.3533 73.2808 47.162 73.0101 47.022C72.7395 46.882 72.4455 46.812 72.1281 46.812C71.6241 46.812 71.1995 46.91 70.8541 47.106C70.5088 47.2927 70.2475 47.5727 70.0701 47.946C69.8928 48.31 69.8041 48.7627 69.8041 49.304C69.8041 49.8173 69.9115 50.2653 70.1261 50.648C70.3408 51.0213 70.6441 51.3107 71.0361 51.516C71.4281 51.7213 71.8808 51.824 72.3941 51.824C72.7581 51.824 73.0941 51.7633 73.4021 51.642C73.7195 51.5207 74.0601 51.3013 74.4241 50.984L75.1521 52.006C74.9281 52.23 74.6528 52.426 74.3261 52.594C74.0088 52.762 73.6681 52.8973 73.3041 53C72.9495 53.0933 72.5995 53.14 72.2541 53.14ZM77.3073 53V45.65H78.7493V47.162L78.4973 47.33C78.5906 47.0033 78.7726 46.7047 79.0433 46.434C79.3139 46.154 79.6359 45.93 80.0093 45.762C80.3826 45.5847 80.7653 45.496 81.1573 45.496C81.7173 45.496 82.1839 45.608 82.5573 45.832C82.9306 46.0467 83.2106 46.378 83.3973 46.826C83.5839 47.274 83.6773 47.8387 83.6773 48.52V53H82.2353V48.618C82.2353 48.198 82.1793 47.8527 82.0673 47.582C81.9553 47.302 81.7826 47.1013 81.5493 46.98C81.3159 46.8493 81.0266 46.7933 80.6813 46.812C80.4013 46.812 80.1446 46.8587 79.9113 46.952C79.6779 47.036 79.4726 47.1573 79.2953 47.316C79.1273 47.4747 78.9919 47.6613 78.8893 47.876C78.7959 48.0813 78.7493 48.3053 78.7493 48.548V53H78.0353C77.9139 53 77.7926 53 77.6713 53C77.5499 53 77.4286 53 77.3073 53ZM86.8234 53V43.774H88.2654V53H86.8234ZM85.2974 47.05V45.65H89.9734V47.05H85.2974ZM94.2899 53.14C93.6739 53.14 93.1186 53.0327 92.6239 52.818C92.1292 52.6033 91.7186 52.286 91.3919 51.866L92.3719 51.026C92.6519 51.3527 92.9552 51.5907 93.2819 51.74C93.6179 51.88 93.9959 51.95 94.4159 51.95C94.5839 51.95 94.7379 51.9313 94.8779 51.894C95.0272 51.8473 95.1532 51.782 95.2559 51.698C95.3679 51.614 95.4519 51.516 95.5079 51.404C95.5639 51.2827 95.5919 51.152 95.5919 51.012C95.5919 50.7693 95.5032 50.5733 95.3259 50.424C95.2326 50.3587 95.0832 50.2887 94.8779 50.214C94.6819 50.13 94.4252 50.046 94.1079 49.962C93.5666 49.822 93.1232 49.6633 92.7779 49.486C92.4326 49.3087 92.1666 49.108 91.9799 48.884C91.8399 48.7067 91.7372 48.5153 91.6719 48.31C91.6066 48.0953 91.5739 47.862 91.5739 47.61C91.5739 47.1993 91.6906 46.8353 91.9239 46.518C92.1572 46.2007 92.4699 45.9533 92.8619 45.776C93.2632 45.5893 93.7112 45.496 94.2059 45.496C94.5512 45.496 94.8919 45.5427 95.2279 45.636C95.5732 45.7293 95.8906 45.8647 96.1799 46.042C96.4692 46.2193 96.7119 46.4293 96.9079 46.672L96.0819 47.582C95.9046 47.4047 95.7086 47.2507 95.4939 47.12C95.2886 46.98 95.0786 46.8727 94.8639 46.798C94.6492 46.7233 94.4532 46.686 94.2759 46.686C94.0799 46.686 93.9026 46.7047 93.7439 46.742C93.5852 46.7793 93.4499 46.8353 93.3379 46.91C93.2352 46.9847 93.1559 47.078 93.0999 47.19C93.0439 47.302 93.0159 47.428 93.0159 47.568C93.0252 47.6893 93.0532 47.806 93.0999 47.918C93.1559 48.0207 93.2306 48.1093 93.3239 48.184C93.4266 48.2587 93.5806 48.338 93.7859 48.422C93.9912 48.506 94.2526 48.5853 94.5699 48.66C95.0366 48.7813 95.4192 48.9167 95.7179 49.066C96.0259 49.206 96.2686 49.3693 96.4459 49.556C96.6326 49.7333 96.7632 49.9387 96.8379 50.172C96.9126 50.4053 96.9499 50.6667 96.9499 50.956C96.9499 51.376 96.8286 51.754 96.5859 52.09C96.3526 52.4167 96.0352 52.6733 95.6339 52.86C95.2326 53.0467 94.7846 53.14 94.2899 53.14Z" fill="white"></path><g clip-path="url(#clip0_1427_6416)"><path d="M51.6985 19.8969C51.2321 20.0363 50.8231 20.3225 50.5322 20.7128C50.2413 21.1031 50.084 21.5768 50.0837 22.0636V22.6593L46.1163 19.2274C46.0829 19.1985 46.0555 19.1634 46.0357 19.1239C46.0159 19.0845 46.004 19.0415 46.0009 18.9974C45.9977 18.9534 46.0032 18.9092 46.0172 18.8673C46.0311 18.8254 46.0532 18.7867 46.0821 18.7533L52.8556 10.9196C52.8844 10.8862 52.9196 10.8588 52.9591 10.839C52.9985 10.8192 53.0415 10.8074 53.0855 10.8042C53.1296 10.8011 53.1738 10.8066 53.2157 10.8205C53.2576 10.8345 53.2963 10.8565 53.3297 10.8855L55.1973 12.5003L50.428 14.6739C50.1845 14.7859 49.9952 14.9897 49.9015 15.2408C49.8079 15.492 49.8174 15.77 49.9281 16.0141L51.6985 19.8969ZM50.5427 15.7341L52.398 19.8028H54.9965C55.1036 19.8031 55.2105 19.8118 55.3162 19.8288V14.4034C55.3163 14.1349 55.4229 13.8774 55.6128 13.6875C55.8027 13.4976 56.0602 13.391 56.3287 13.3909H61.5953L60.576 11.1587C60.5577 11.1185 60.5317 11.0823 60.4994 11.0522C60.4671 11.022 60.4292 10.9985 60.3879 10.9831C60.3465 10.9676 60.3025 10.9604 60.2584 10.962C60.2143 10.9635 60.1709 10.9737 60.1307 10.9921L50.7081 15.2887C50.6679 15.307 50.6318 15.3331 50.6017 15.3654C50.5717 15.3978 50.5483 15.4357 50.533 15.4771C50.5176 15.5185 50.5106 15.5624 50.5123 15.6065C50.5139 15.6507 50.5243 15.694 50.5427 15.7341ZM64.5967 16.7574H66.8249L64.3303 14.264V16.4909C64.3308 16.5614 64.359 16.6289 64.4089 16.6788C64.4587 16.7286 64.5262 16.7569 64.5967 16.7574ZM63.6568 14.0659V16.4909C63.6566 16.6145 63.6807 16.7369 63.7279 16.8511C63.775 16.9653 63.8442 17.069 63.9315 17.1565C64.0189 17.2439 64.1225 17.3133 64.2367 17.3606C64.3508 17.4079 64.4731 17.4322 64.5967 17.4322H67.0217V22.0076C66.51 22.0779 66.023 22.271 65.6022 22.5705H58.7494C58.7376 22.5654 58.7262 22.5595 58.7152 22.5527C58.6039 22.4721 58.5005 22.3811 58.4065 22.2808L58.1 21.9816H65.0298C65.1193 21.9816 65.2051 21.9461 65.2684 21.8828C65.3317 21.8195 65.3673 21.7336 65.3673 21.6441C65.3673 21.5546 65.3317 21.4688 65.2684 21.4055C65.2051 21.3422 65.1193 21.3066 65.0298 21.3066H57.983C57.9098 21.3068 57.8387 21.3307 57.7802 21.3748C57.7218 21.4189 57.6792 21.4807 57.6589 21.551L56.7548 20.6688C56.5586 20.4668 56.341 20.2868 56.1059 20.1318C56.0676 20.1084 56.0294 20.0868 55.9911 20.0649V14.4034C55.9913 14.3139 56.0269 14.2282 56.0901 14.1649C56.1534 14.1017 56.2391 14.0661 56.3286 14.0659L63.6568 14.0659ZM57.6456 16.7205C57.6456 16.81 57.6811 16.8958 57.7444 16.9591C57.8077 17.0224 57.8935 17.058 57.9831 17.058H62.4463C62.5359 17.058 62.6217 17.0224 62.685 16.9591C62.7483 16.8958 62.7838 16.81 62.7838 16.7205C62.7838 16.631 62.7483 16.5451 62.685 16.4818C62.6217 16.4185 62.5359 16.383 62.4463 16.383H57.983C57.8936 16.3832 57.8078 16.4188 57.7446 16.482C57.6813 16.5453 57.6457 16.631 57.6456 16.7205ZM65.3672 20.0034C65.3672 19.9139 65.3317 19.8281 65.2684 19.7648C65.2051 19.7015 65.1192 19.6659 65.0297 19.6659H57.983C57.8935 19.6659 57.8077 19.7015 57.7444 19.7648C57.6811 19.8281 57.6455 19.9139 57.6455 20.0034C57.6455 20.0929 57.6811 20.1788 57.7444 20.2421C57.8077 20.3054 57.8935 20.3409 57.983 20.3409H65.0298C65.1193 20.3409 65.2051 20.3053 65.2684 20.242C65.3317 20.1787 65.3672 20.0929 65.3672 20.0034ZM57.983 18.0253C57.8935 18.0253 57.8077 18.0608 57.7444 18.1241C57.6811 18.1874 57.6455 18.2733 57.6455 18.3628C57.6455 18.4523 57.6811 18.5381 57.7444 18.6014C57.8077 18.6647 57.8935 18.7003 57.983 18.7003H65.0298C65.1193 18.7003 65.2051 18.6647 65.2684 18.6014C65.3317 18.5381 65.3673 18.4523 65.3673 18.3628C65.3673 18.2733 65.3317 18.1874 65.2684 18.1241C65.2051 18.0608 65.1193 18.0253 65.0298 18.0253H57.983ZM70 25.1908C69.9997 25.7778 69.796 26.3466 69.4234 26.8002C69.0509 27.2538 68.5325 27.5643 67.9568 27.6786C67.381 27.7929 66.7834 27.7041 66.2658 27.4273C65.7482 27.1504 65.3426 26.7027 65.118 26.1603C64.8935 25.6179 64.864 25.0145 65.0345 24.4528C65.205 23.8911 65.5649 23.4059 66.053 23.0798C66.5411 22.7537 67.1272 22.607 67.7114 22.6646C68.2955 22.7221 68.8417 22.9804 69.2568 23.3955C69.4928 23.6311 69.6799 23.9109 69.8075 24.219C69.935 24.5271 70.0004 24.8574 70 25.1908ZM69.1803 23.9162C69.1491 23.8847 69.1119 23.8597 69.071 23.8426C69.0301 23.8255 68.9862 23.8168 68.9419 23.8168C68.8975 23.8168 68.8536 23.8255 68.8127 23.8426C68.7718 23.8597 68.7347 23.8847 68.7035 23.9162L66.8673 25.7509L66.2211 25.1034C66.1577 25.0402 66.0718 25.0047 65.9822 25.0048C65.8927 25.005 65.8069 25.0407 65.7436 25.1041C65.6804 25.1675 65.6449 25.2534 65.6451 25.3429C65.6452 25.4325 65.6809 25.5183 65.7443 25.5815L66.6297 26.4668C66.693 26.5298 66.7787 26.5652 66.868 26.5652C66.9574 26.5652 67.0431 26.5298 67.1064 26.4668L69.1803 24.393C69.2433 24.3296 69.2787 24.2439 69.2787 24.1546C69.2786 24.0652 69.2433 23.9795 69.1803 23.9162ZM67.4616 28.4041C67.8331 28.4043 68.2019 28.3405 68.5518 28.2156V31.3414C68.5503 31.8332 68.3542 32.3044 68.0063 32.6521C67.6584 32.9997 67.1871 33.1955 66.6953 33.1967H52.6153C52.1234 33.1955 51.652 32.9998 51.3041 32.6521C50.9562 32.3045 50.7601 31.8332 50.7586 31.3414V22.0636C50.7592 21.6433 50.9263 21.2404 51.2233 20.9432C51.5204 20.6459 51.9231 20.4784 52.3434 20.4775H54.9965C55.2632 20.4788 55.5238 20.5576 55.7465 20.7043C55.9414 20.8329 56.1215 20.9827 56.2834 21.151L57.9351 22.7645C58.0633 22.8981 58.2047 23.0185 58.357 23.1238C58.474 23.2018 58.6112 23.244 58.7519 23.2454H64.9055C64.5429 23.7217 64.3206 24.2898 64.2636 24.8856C64.2066 25.4815 64.3173 26.0814 64.583 26.6178C64.8488 27.1541 65.2591 27.6056 65.7677 27.9212C66.2763 28.2368 66.863 28.4041 67.4616 28.4041ZM52.9022 28.4478C52.9022 28.5373 52.9378 28.6232 53.0011 28.6864C53.0644 28.7497 53.1502 28.7853 53.2397 28.7853H56.5295C56.619 28.7853 56.7049 28.7497 56.7682 28.6864C56.8314 28.6232 56.867 28.5373 56.867 28.4478C56.867 28.3583 56.8314 28.2724 56.7682 28.2091C56.7049 28.1459 56.619 28.1103 56.5295 28.1103H53.2396C53.1952 28.1102 53.1513 28.1188 53.1103 28.1357C53.0693 28.1526 53.032 28.1775 53.0006 28.2088C52.9693 28.2402 52.9444 28.2775 52.9275 28.3185C52.9106 28.3595 52.902 28.4034 52.9021 28.4478H52.9022ZM66.4084 30.754C66.4084 30.6645 66.3728 30.5787 66.3095 30.5154C66.2462 30.4521 66.1604 30.4165 66.0709 30.4165H53.2396C53.1503 30.4165 53.0646 30.452 53.0015 30.5152C52.9383 30.5783 52.9028 30.664 52.9028 30.7533C52.9028 30.8426 52.9383 30.9283 53.0015 30.9914C53.0646 31.0546 53.1503 31.09 53.2396 31.09H66.0708C66.1601 31.0902 66.2458 31.0548 66.3091 30.9918C66.3724 30.9288 66.408 30.8432 66.4083 30.7539L66.4084 30.754Z" fill="white"></path></g><defs><linearGradient id="paint0_linear_1427_6416" x1="22.1145" y1="2.77871" x2="116.68" y2="73.064" gradientUnits="userSpaceOnUse"><stop stop-color="#02A68F"></stop><stop offset="1" stop-color="#46E760"></stop></linearGradient><clipPath id="clip0_1427_6416"><rect width="24" height="24" fill="white" transform="translate(46 10)"></rect></clipPath></defs></svg>