<svg xmlns="http://www.w3.org/2000/svg" width="140" height="71" viewBox="0 0 140 71" fill="none"><path d="M139.357 0C139.357 0 135.903 23.4258 116.293 33.1632V49.2188C116.293 54.6998 114.176 59.6698 110.711 63.3944C108.662 65.6246 106.115 67.402 103.25 68.558C101.404 69.3164 99.4344 69.8035 97.362 69.9853C97.2831 70.0076 97.1698 70.0076 97.0909 70.0076C96.8987 70.0181 96.6946 70.0419 96.4905 70.0419C96.1508 70.0643 95.7888 70.0762 95.4372 70.0762H20.8678C18.8297 70.0762 16.8602 69.7812 14.9905 69.2374C14.323 69.0333 13.666 68.8069 13.0209 68.5476C5.39013 65.4548 0 57.9596 0 49.2188V22.5885C0 11.0618 9.35302 1.70881 20.8678 1.70881H95.4372C105.322 1.70881 113.588 8.60513 115.739 17.8434C121.887 16.1793 131.511 11.7516 139.357 0Z" fill="url(#paint0_linear_1427_6157)"></path><path d="M26.475 56V46.2H30.563C31.1883 46.2 31.7157 46.2933 32.145 46.48C32.5743 46.6667 32.8963 46.9467 33.111 47.32C33.335 47.684 33.447 48.132 33.447 48.664C33.447 49.196 33.2977 49.6487 32.999 50.022C32.7097 50.3953 32.3037 50.652 31.781 50.792V50.512C32.2197 50.6053 32.6023 50.7733 32.929 51.016C33.2557 51.2493 33.5077 51.5433 33.685 51.898C33.8717 52.2527 33.965 52.6587 33.965 53.116C33.965 53.5827 33.8903 53.998 33.741 54.362C33.601 54.7167 33.3863 55.0153 33.097 55.258C32.817 55.5007 32.4763 55.6873 32.075 55.818C31.6737 55.9393 31.2163 56 30.703 56H26.475ZM27.987 54.544H30.619C31.1883 54.544 31.6317 54.418 31.949 54.166C32.2663 53.914 32.425 53.5547 32.425 53.088C32.425 52.7987 32.3457 52.5513 32.187 52.346C32.0377 52.1407 31.823 51.9867 31.543 51.884C31.263 51.772 30.9317 51.716 30.549 51.716H27.987V54.544ZM27.987 50.26H30.479C30.759 50.26 31.0063 50.204 31.221 50.092C31.445 49.98 31.6177 49.826 31.739 49.63C31.8697 49.434 31.935 49.21 31.935 48.958C31.935 48.538 31.795 48.216 31.515 47.992C31.235 47.768 30.8337 47.656 30.311 47.656H27.987V50.26ZM40.2606 56V51.212C40.2606 50.8013 40.1113 50.47 39.8126 50.218C39.5233 49.9567 39.1546 49.826 38.7066 49.826C38.296 49.826 37.9226 49.91 37.5866 50.078C37.26 50.246 36.9613 50.5027 36.6906 50.848L35.7526 49.91C36.1913 49.434 36.6626 49.0793 37.1666 48.846C37.68 48.6127 38.2306 48.496 38.8186 48.496C39.3786 48.496 39.864 48.5893 40.2746 48.776C40.6853 48.9627 41.0026 49.238 41.2266 49.602C41.4506 49.9567 41.5626 50.3907 41.5626 50.904V56H40.2606ZM38.0626 56.14C37.5866 56.14 37.162 56.0467 36.7886 55.86C36.4153 55.6733 36.1166 55.4167 35.8926 55.09C35.678 54.754 35.5706 54.362 35.5706 53.914C35.5706 53.522 35.6406 53.1767 35.7806 52.878C35.9206 52.5793 36.126 52.332 36.3966 52.136C36.6766 51.94 37.022 51.7907 37.4326 51.688C37.8526 51.5853 38.3333 51.534 38.8746 51.534H40.9186L40.7926 52.682H38.6926C38.4126 52.682 38.1606 52.71 37.9366 52.766C37.722 52.8127 37.5353 52.892 37.3766 53.004C37.2273 53.1067 37.1153 53.2327 37.0406 53.382C36.966 53.522 36.9286 53.69 36.9286 53.886C36.9286 54.0913 36.98 54.2733 37.0826 54.432C37.1853 54.5813 37.3253 54.698 37.5026 54.782C37.68 54.866 37.8853 54.908 38.1186 54.908C38.4546 54.908 38.772 54.852 39.0706 54.74C39.3786 54.6187 39.6493 54.4553 39.8826 54.25C40.1253 54.0447 40.312 53.816 40.4426 53.564L40.7786 54.502C40.5826 54.8287 40.34 55.1133 40.0506 55.356C39.7613 55.5987 39.4486 55.79 39.1126 55.93C38.7766 56.07 38.4266 56.14 38.0626 56.14ZM43.6651 56V48.65H45.1211V50.96L44.9811 50.4C45.0838 50.0453 45.2565 49.7233 45.4991 49.434C45.7511 49.1447 46.0358 48.916 46.3531 48.748C46.6798 48.58 47.0158 48.496 47.3611 48.496C47.5198 48.496 47.6691 48.51 47.8091 48.538C47.9585 48.566 48.0751 48.5987 48.1591 48.636L47.7811 50.204C47.6691 50.1573 47.5431 50.12 47.4031 50.092C47.2725 50.0547 47.1418 50.036 47.0111 50.036C46.7591 50.036 46.5165 50.0873 46.2831 50.19C46.0591 50.2833 45.8585 50.4187 45.6811 50.596C45.5131 50.764 45.3778 50.9647 45.2751 51.198C45.1725 51.422 45.1211 51.6693 45.1211 51.94V56H43.6651ZM53.4556 56.14C53.1383 56.14 52.821 56.0887 52.5036 55.986C52.1956 55.8833 51.911 55.748 51.6496 55.58C51.3976 55.4027 51.183 55.2113 51.0056 55.006C50.8376 54.7913 50.7256 54.5767 50.6696 54.362L51.0336 54.166V55.958H49.5916V45.64H51.0336V50.33L50.8096 50.204C50.8563 49.9893 50.959 49.784 51.1176 49.588C51.2763 49.3827 51.477 49.2007 51.7196 49.042C51.9716 48.874 52.2423 48.7433 52.5316 48.65C52.821 48.5473 53.115 48.496 53.4136 48.496C54.0763 48.496 54.6643 48.6593 55.1776 48.986C55.691 49.3127 56.097 49.7653 56.3956 50.344C56.6943 50.9133 56.8436 51.5667 56.8436 52.304C56.8436 53.0413 56.6943 53.6993 56.3956 54.278C56.1063 54.8567 55.705 55.314 55.1916 55.65C54.6783 55.9767 54.0996 56.14 53.4556 56.14ZM53.2176 54.824C53.647 54.824 54.0296 54.7167 54.3656 54.502C54.7016 54.278 54.9676 53.9793 55.1636 53.606C55.3596 53.2233 55.4576 52.7893 55.4576 52.304C55.4576 51.828 55.3596 51.4033 55.1636 51.03C54.977 50.6473 54.7156 50.3487 54.3796 50.134C54.0436 49.9193 53.6563 49.812 53.2176 49.812C52.779 49.812 52.3916 49.9193 52.0556 50.134C51.7196 50.3487 51.4536 50.6473 51.2576 51.03C51.0616 51.4033 50.9636 51.828 50.9636 52.304C50.9636 52.7893 51.0616 53.2233 51.2576 53.606C51.4536 53.9793 51.7196 54.278 52.0556 54.502C52.3916 54.7167 52.779 54.824 53.2176 54.824ZM62.12 56.14C61.364 56.14 60.692 55.9813 60.104 55.664C59.5253 55.3373 59.068 54.894 58.732 54.334C58.4053 53.774 58.242 53.13 58.242 52.402C58.242 51.8233 58.3353 51.296 58.522 50.82C58.7087 50.344 58.9653 49.9333 59.292 49.588C59.628 49.2333 60.0247 48.9627 60.482 48.776C60.9487 48.58 61.4527 48.482 61.994 48.482C62.47 48.482 62.9133 48.5753 63.324 48.762C63.7347 48.9393 64.0893 49.1867 64.388 49.504C64.696 49.8213 64.9293 50.1993 65.088 50.638C65.256 51.0673 65.3353 51.5387 65.326 52.052L65.312 52.668H59.306L58.984 51.52H64.066L63.856 51.758V51.422C63.828 51.114 63.7253 50.8387 63.548 50.596C63.3707 50.3533 63.1467 50.162 62.876 50.022C62.6053 49.882 62.3113 49.812 61.994 49.812C61.49 49.812 61.0653 49.91 60.72 50.106C60.3747 50.2927 60.1133 50.5727 59.936 50.946C59.7587 51.31 59.67 51.7627 59.67 52.304C59.67 52.8173 59.7773 53.2653 59.992 53.648C60.2067 54.0213 60.51 54.3107 60.902 54.516C61.294 54.7213 61.7467 54.824 62.26 54.824C62.624 54.824 62.96 54.7633 63.268 54.642C63.5853 54.5207 63.926 54.3013 64.29 53.984L65.018 55.006C64.794 55.23 64.5187 55.426 64.192 55.594C63.8747 55.762 63.534 55.8973 63.17 56C62.8153 56.0933 62.4653 56.14 62.12 56.14ZM70.2951 56.14C69.6138 56.14 69.0025 55.972 68.4611 55.636C67.9291 55.3 67.5045 54.8427 67.1871 54.264C66.8791 53.6853 66.7251 53.0367 66.7251 52.318C66.7251 51.5993 66.8791 50.9507 67.1871 50.372C67.5045 49.7933 67.9291 49.336 68.4611 49C69.0025 48.664 69.6138 48.496 70.2951 48.496C70.9485 48.496 71.5411 48.6313 72.0731 48.902C72.6145 49.1633 73.0251 49.5227 73.3051 49.98L72.5071 50.96C72.3578 50.7453 72.1665 50.5493 71.9331 50.372C71.6998 50.1947 71.4525 50.0547 71.1911 49.952C70.9298 49.8493 70.6778 49.798 70.4351 49.798C69.9871 49.798 69.5858 49.91 69.2311 50.134C68.8858 50.3487 68.6105 50.6473 68.4051 51.03C68.1998 51.4127 68.0971 51.842 68.0971 52.318C68.0971 52.794 68.2045 53.2233 68.4191 53.606C68.6338 53.9793 68.9185 54.278 69.2731 54.502C69.6278 54.726 70.0198 54.838 70.4491 54.838C70.7011 54.838 70.9438 54.796 71.1771 54.712C71.4198 54.628 71.6531 54.502 71.8771 54.334C72.1011 54.166 72.3111 53.9607 72.5071 53.718L73.3051 54.698C73.0065 55.118 72.5771 55.4633 72.0171 55.734C71.4665 56.0047 70.8925 56.14 70.2951 56.14ZM77.5213 56.14C76.9986 56.14 76.5413 56.0187 76.1493 55.776C75.7666 55.5333 75.468 55.1927 75.2533 54.754C75.048 54.3153 74.9453 53.7927 74.9453 53.186V48.65H76.3873V52.794C76.3873 53.438 76.5366 53.9467 76.8353 54.32C77.1433 54.6933 77.568 54.88 78.1093 54.88C78.38 54.88 78.6273 54.838 78.8513 54.754C79.0753 54.6607 79.2666 54.5347 79.4253 54.376C79.5933 54.2173 79.724 54.026 79.8173 53.802C79.9106 53.578 79.9573 53.3353 79.9573 53.074V48.65H81.3993V56H79.9573V54.46L80.2093 54.292C80.0973 54.6373 79.906 54.95 79.6353 55.23C79.374 55.51 79.0613 55.734 78.6973 55.902C78.3333 56.0607 77.9413 56.14 77.5213 56.14ZM87.1319 56.14C86.3759 56.14 85.7039 55.9813 85.1159 55.664C84.5372 55.3373 84.0799 54.894 83.7439 54.334C83.4172 53.774 83.2539 53.13 83.2539 52.402C83.2539 51.8233 83.3472 51.296 83.5339 50.82C83.7205 50.344 83.9772 49.9333 84.3039 49.588C84.6399 49.2333 85.0365 48.9627 85.4939 48.776C85.9605 48.58 86.4645 48.482 87.0059 48.482C87.4819 48.482 87.9252 48.5753 88.3359 48.762C88.7465 48.9393 89.1012 49.1867 89.3999 49.504C89.7079 49.8213 89.9412 50.1993 90.0999 50.638C90.2679 51.0673 90.3472 51.5387 90.3379 52.052L90.3239 52.668H84.3179L83.9959 51.52H89.0779L88.8679 51.758V51.422C88.8399 51.114 88.7372 50.8387 88.5599 50.596C88.3825 50.3533 88.1585 50.162 87.8879 50.022C87.6172 49.882 87.3232 49.812 87.0059 49.812C86.5019 49.812 86.0772 49.91 85.7319 50.106C85.3865 50.2927 85.1252 50.5727 84.9479 50.946C84.7705 51.31 84.6819 51.7627 84.6819 52.304C84.6819 52.8173 84.7892 53.2653 85.0039 53.648C85.2185 54.0213 85.5219 54.3107 85.9139 54.516C86.3059 54.7213 86.7585 54.824 87.2719 54.824C87.6359 54.824 87.9719 54.7633 88.2799 54.642C88.5972 54.5207 88.9379 54.3013 89.3019 53.984L90.0299 55.006C89.8059 55.23 89.5305 55.426 89.2039 55.594C88.8865 55.762 88.5459 55.8973 88.1819 56C87.8272 56.0933 87.4772 56.14 87.1319 56.14Z" fill="white"></path><g clip-path="url(#clip0_1427_6157)"><path d="M50.8111 35.7003C50.6298 36.2312 50.9224 36.7582 51.3977 36.9259C51.8919 37.1024 52.4442 36.8402 52.6258 36.3369L53.8889 32.7399H51.852L50.8111 35.7003Z" fill="white"></path><path d="M63.6462 32.7399H61.6094L62.8724 36.3369C63.0566 36.8526 63.623 37.1006 64.1005 36.9259C64.5972 36.75 64.8638 36.2018 64.6871 35.7028L63.6462 32.7399Z" fill="white"></path><path d="M56.7869 35.9799C56.7869 36.5091 57.2187 36.9409 57.7478 36.9409C58.2795 36.9409 58.7089 36.5091 58.7089 35.9799V32.7399H56.7869V35.9799Z" fill="white"></path><path d="M64.3327 30.3187H51.1656C50.6339 30.3187 50.2046 30.7505 50.2046 31.2797C50.2046 31.8089 50.6339 32.2407 51.1656 32.2407H64.3327C64.8643 32.2407 65.2937 31.8089 65.2937 31.2797C65.2937 30.7505 64.8644 30.3187 64.3327 30.3187Z" fill="white"></path><path d="M57.1239 14.5432C56.6832 13.6515 56.9673 13.1332 57.4234 13.0255C57.5582 12.9931 57.693 13.0754 57.723 13.2102C57.7554 13.345 57.673 13.4773 57.5382 13.5098C57.243 13.5813 57.4378 14.0528 57.5707 14.3185C58.0221 15.2214 57.6756 15.7473 57.2237 15.8236C57.0918 15.85 56.9594 15.7579 56.9366 15.6215C56.9117 15.4842 57.004 15.3544 57.1388 15.3319C57.4355 15.2796 57.2558 14.8071 57.1239 14.5432Z" fill="white"></path><path d="M59.1258 14.5432C58.6849 13.6511 58.9688 13.1326 59.4253 13.0255C59.5576 12.9931 59.6949 13.0754 59.7248 13.2102C59.7573 13.345 59.6749 13.4773 59.5401 13.5098C59.2449 13.5813 59.4395 14.0525 59.5725 14.3185C60.0249 15.2232 59.6765 15.7475 59.2256 15.8237C59.0782 15.8482 58.9595 15.7475 58.9385 15.6215C58.9136 15.4842 59.0059 15.3544 59.1407 15.3319C59.4377 15.2795 59.2572 14.8059 59.1258 14.5432Z" fill="white"></path><path d="M69.0579 18.0527C69.0579 18.19 68.948 18.3024 68.8082 18.3024H64.1879C64.0706 18.8964 63.5439 19.3482 62.9149 19.3482H61.904C61.275 19.3482 60.7508 18.8964 60.6334 18.3024H59.8222C59.7947 18.8814 59.318 19.3482 58.7314 19.3482C58.3869 19.3482 58.0849 19.186 57.8827 18.9389C57.683 19.186 57.3785 19.3482 57.0365 19.3482C56.692 19.3482 56.39 19.186 56.1879 18.9389C55.9882 19.186 55.6837 19.3482 55.3417 19.3482C54.7551 19.3482 54.2758 18.8814 54.2484 18.3024H53.5345V18.6468C53.5345 19.0337 53.2199 19.3482 52.8355 19.3482H52.0418C51.6549 19.3482 51.3404 19.0337 51.3404 18.6468V18.3024H50.609C50.4717 18.3024 50.3594 18.19 50.3594 18.0527C50.3594 17.9154 50.4717 17.8031 50.609 17.8031H51.3403V17.4562C51.3403 17.0693 51.6549 16.7548 52.0417 16.7548H52.8355C53.2199 16.7548 53.5344 17.0693 53.5344 17.4562V17.8031H54.2483C54.2758 17.2215 54.7525 16.7548 55.3416 16.7548C55.6836 16.7548 55.9881 16.917 56.1878 17.1641C56.39 16.917 56.692 16.7548 57.0365 16.7548C57.3784 16.7548 57.683 16.917 57.8827 17.1641C58.0848 16.917 58.3869 16.7548 58.7313 16.7548C59.3204 16.7548 59.7972 17.2216 59.8222 17.8031H60.6334C60.7507 17.2066 61.2749 16.7548 61.9039 16.7548H62.9148C63.5464 16.7548 64.0705 17.2066 64.1879 17.8031H68.8082C68.948 17.8031 69.0579 17.9154 69.0579 18.0527Z" fill="white"></path><path d="M53.1225 14.5432C52.6634 13.6355 52.9893 13.1271 53.4195 13.0255C53.5543 12.9931 53.6891 13.0754 53.7215 13.2102C53.754 13.345 53.6691 13.4773 53.5368 13.5098C53.2432 13.5789 53.4343 14.0557 53.5692 14.3185C54.0156 15.2347 53.6665 15.7481 53.2223 15.8236C53.0752 15.8482 52.9564 15.7478 52.9327 15.6215C52.9103 15.4842 53.0001 15.3544 53.1374 15.3319C53.429 15.2789 53.2533 14.8049 53.1225 14.5432Z" fill="white"></path><path d="M68.5536 21.4749C68.5536 22.2009 67.6739 22.5738 67.1607 22.0689C67.0185 21.9342 66.8312 21.8368 66.6241 21.7819C66.1348 24.5651 64.4 26.8666 62.0312 28.1396L62.6203 29.8195H60.5835L60.2465 28.861C59.7497 29.0008 59.2356 29.1006 58.7089 29.1556V29.8195H56.7868V29.1556C56.2601 29.1007 55.746 29.0008 55.2517 28.861L54.9147 29.8195H52.8779L53.467 28.1396C51.0957 26.8691 49.3634 24.5651 48.8741 21.782C48.667 21.8369 48.4798 21.9368 48.335 22.074C47.8236 22.5683 46.9421 22.2051 46.9421 21.4749C46.9421 21.3377 47.0545 21.2253 47.1917 21.2253C47.3315 21.2253 47.4414 21.3377 47.4414 21.4749C47.4414 21.7601 47.7847 21.9094 47.9905 21.7121C48.2102 21.5049 48.4922 21.3576 48.7992 21.2852C48.7892 21.2079 48.7817 21.128 48.7743 21.0506C48.7468 20.7635 48.8417 20.4789 49.0339 20.2693C49.2236 20.0597 49.4857 19.9448 49.7678 19.9448H65.7305C66.0126 19.9448 66.2722 20.0596 66.4644 20.2693C66.6566 20.479 66.7489 20.7636 66.724 21.0506C66.7165 21.128 66.709 21.2079 66.6991 21.2852C67.0086 21.3551 67.2857 21.4999 67.5053 21.7096C67.7158 21.9116 68.0544 21.759 68.0544 21.4749C68.0544 21.3377 68.1668 21.2253 68.3041 21.2253C68.4437 21.2253 68.5536 21.3376 68.5536 21.4749Z" fill="white"></path><path d="M55.1244 14.5432C54.6653 13.6355 54.9913 13.1271 55.4215 13.0255C55.5562 12.9931 55.691 13.0754 55.7235 13.2102C55.7534 13.345 55.6711 13.4773 55.5363 13.5098C55.2456 13.5803 55.4377 14.0565 55.5687 14.3185C56.0211 15.2233 55.6727 15.7475 55.2217 15.8236C55.0892 15.8502 54.957 15.7552 54.9347 15.6215C54.9122 15.4842 55.0021 15.3544 55.1368 15.3319C55.434 15.2795 55.2528 14.8064 55.1244 14.5432Z" fill="white"></path></g><defs><linearGradient id="paint0_linear_1427_6157" x1="51.8661" y1="-11.2754" x2="142.638" y2="98.7967" gradientUnits="userSpaceOnUse"><stop stop-color="#FD5900"></stop><stop offset="1" stop-color="#FFDE00"></stop></linearGradient><clipPath id="clip0_1427_6157"><rect width="24" height="24" fill="white" transform="translate(46 13)"></rect></clipPath></defs></svg>