<svg xmlns="http://www.w3.org/2000/svg" width="143" height="69" viewBox="0 0 143 69" fill="none"><path d="M142.402 20.8782V47.5085C142.402 52.988 140.295 57.9596 136.832 61.6841C133.445 65.352 128.748 67.7982 123.483 68.2631C123.392 68.2973 123.291 68.2973 123.2 68.2973H123.166C122.985 68.3092 122.792 68.3197 122.611 68.3197C122.26 68.354 121.898 68.3644 121.548 68.3644H46.9886C45.46 68.3644 43.9658 68.1945 42.5385 67.8772C41.3616 67.6284 40.2293 67.2768 39.1418 66.8358C31.499 63.7445 26.1104 56.2492 26.1104 47.5085V41.2692C3.80497 32.5628 0 6.74735 0 6.74735C9.01335 20.2435 20.3582 24.0828 26.1104 25.1688V20.8782C26.1104 9.35152 35.4619 0 46.9886 0H121.548C133.074 0 142.403 9.35152 142.403 20.8782H142.402Z" fill="url(#paint0_linear_1139_7190)"></path><path d="M72.128 53V44.6H75.5C76.108 44.6 76.656 44.7 77.144 44.9C77.64 45.1 78.064 45.388 78.416 45.764C78.768 46.14 79.04 46.584 79.232 47.096C79.424 47.608 79.52 48.176 79.52 48.8C79.52 49.424 79.424 49.996 79.232 50.516C79.04 51.028 78.768 51.472 78.416 51.848C78.072 52.216 77.652 52.5 77.156 52.7C76.66 52.9 76.108 53 75.5 53H72.128ZM73.676 51.788L73.568 51.56H75.44C75.832 51.56 76.184 51.496 76.496 51.368C76.808 51.24 77.068 51.06 77.276 50.828C77.492 50.588 77.656 50.296 77.768 49.952C77.888 49.608 77.948 49.224 77.948 48.8C77.948 48.376 77.888 47.996 77.768 47.66C77.656 47.316 77.492 47.024 77.276 46.784C77.06 46.544 76.796 46.36 76.484 46.232C76.18 46.104 75.832 46.04 75.44 46.04H73.532L73.676 45.836V51.788ZM84.6963 53V48.956C84.6963 48.612 84.5803 48.344 84.3483 48.152C84.1243 47.952 83.8323 47.852 83.4723 47.852C83.1363 47.852 82.8323 47.92 82.5603 48.056C82.2883 48.184 82.0363 48.392 81.8043 48.68L80.8923 47.768C81.2683 47.368 81.6843 47.064 82.1403 46.856C82.5963 46.648 83.0883 46.544 83.6163 46.544C84.1203 46.544 84.5523 46.624 84.9123 46.784C85.2803 46.944 85.5643 47.184 85.7643 47.504C85.9643 47.816 86.0643 48.2 86.0643 48.656V53H84.6963ZM82.8963 53.12C82.4883 53.12 82.1243 53.04 81.8043 52.88C81.4843 52.72 81.2283 52.5 81.0363 52.22C80.8523 51.932 80.7603 51.596 80.7603 51.212C80.7603 50.876 80.8203 50.584 80.9403 50.336C81.0603 50.08 81.2363 49.868 81.4683 49.7C81.7083 49.532 82.0043 49.408 82.3563 49.328C82.7163 49.24 83.1283 49.196 83.5923 49.196H85.4043L85.2963 50.252H83.5083C83.2923 50.252 83.1003 50.272 82.9323 50.312C82.7643 50.352 82.6203 50.412 82.5003 50.492C82.3803 50.572 82.2923 50.668 82.2363 50.78C82.1803 50.884 82.1523 51.012 82.1523 51.164C82.1523 51.324 82.1923 51.464 82.2723 51.584C82.3523 51.696 82.4603 51.784 82.5963 51.848C82.7323 51.912 82.8923 51.944 83.0763 51.944C83.3403 51.944 83.5883 51.9 83.8203 51.812C84.0603 51.724 84.2723 51.6 84.4563 51.44C84.6403 51.28 84.7843 51.1 84.8883 50.9L85.1883 51.716C85.0203 51.996 84.8123 52.24 84.5643 52.448C84.3243 52.656 84.0603 52.82 83.7723 52.94C83.4923 53.06 83.2003 53.12 82.8963 53.12ZM87.9414 53V46.676H89.4054V53H87.9414ZM88.6614 45.332C88.3654 45.332 88.1334 45.26 87.9654 45.116C87.8054 44.964 87.7254 44.752 87.7254 44.48C87.7254 44.224 87.8094 44.02 87.9774 43.868C88.1454 43.708 88.3734 43.628 88.6614 43.628C88.9574 43.628 89.1854 43.704 89.3454 43.856C89.5134 44 89.5974 44.208 89.5974 44.48C89.5974 44.728 89.5134 44.932 89.3454 45.092C89.1774 45.252 88.9494 45.332 88.6614 45.332ZM91.4273 53V46.676H92.8673L92.8913 48.692L92.6993 48.236C92.7873 47.916 92.9393 47.628 93.1553 47.372C93.3713 47.116 93.6193 46.916 93.8993 46.772C94.1873 46.62 94.4833 46.544 94.7873 46.544C94.9233 46.544 95.0513 46.556 95.1713 46.58C95.2993 46.604 95.4033 46.632 95.4833 46.664L95.0993 48.272C95.0033 48.224 94.8913 48.188 94.7633 48.164C94.6433 48.132 94.5193 48.116 94.3913 48.116C94.1833 48.116 93.9873 48.156 93.8033 48.236C93.6273 48.308 93.4713 48.412 93.3353 48.548C93.2073 48.684 93.1033 48.844 93.0233 49.028C92.9433 49.204 92.9033 49.4 92.9033 49.616V53H91.4273ZM97.6001 55.76L98.9321 52.664L98.9441 53.66L95.8241 46.676H97.5161L99.2681 50.84C99.3241 50.944 99.3801 51.084 99.4361 51.26C99.4921 51.428 99.5401 51.592 99.5801 51.752L99.2801 51.86C99.3361 51.708 99.3921 51.544 99.4481 51.368C99.5121 51.192 99.5761 51.016 99.6401 50.84L101.128 46.676H102.832L100.204 53L99.1361 55.76H97.6001Z" fill="white"></path><path d="M83.7656 33.4375H77.125C76.2633 33.4375 75.5625 32.7367 75.5625 31.875V21.7188C75.5625 19.8672 76.0773 18.9453 76.6219 17.9695C77.0625 17.1789 77.5617 16.2859 77.9062 14.6094V14.2969H79.4688V14.6875C79.4688 14.7391 79.4641 14.7898 79.4531 14.8406C79.0602 16.8063 78.4641 17.8734 77.9859 18.7305C77.7414 19.168 77.5312 19.5477 77.3789 19.9883C79.8586 20.6773 81.2758 18.9391 83.6969 19.4945C83.5781 19.2438 83.4438 18.9977 83.2945 18.7297C82.8164 17.8727 82.2203 16.8055 81.8273 14.8398C81.8172 14.7898 81.8125 14.7391 81.8125 14.6875V14.2969H83.375V14.6094C83.7195 16.2859 84.2188 17.1797 84.6594 17.9695C85.2039 18.9453 85.7188 19.8672 85.7188 21.7188V25.3516L83.9555 26.4094C83.8375 26.4797 83.7656 26.607 83.7656 26.7445V33.4375Z" fill="white"></path><path d="M77.9062 10.7812H83.375C83.8063 10.7812 84.1562 11.1313 84.1562 11.5625V12.3438C84.1562 12.775 83.8063 13.125 83.375 13.125H77.9062C77.475 13.125 77.125 12.775 77.125 12.3438V11.5625C77.125 11.1313 77.475 10.7812 77.9062 10.7812Z" fill="white"></path><path d="M92.75 22.5L84.9992 27.1508C84.982 27.1609 84.9891 27.1875 85.0094 27.1875H97.4375C96.9164 24.5836 95.3539 23.0211 92.75 22.5ZM93.1406 25.625C92.7094 25.625 92.3594 25.275 92.3594 24.8438C92.3594 24.4125 92.7094 24.0625 93.1406 24.0625C93.5719 24.0625 93.9219 24.4125 93.9219 24.8438C93.9219 25.275 93.5719 25.625 93.1406 25.625Z" fill="white"></path><path d="M84.9375 28.3594V33.0469C84.9375 33.2625 85.1125 33.4375 85.3281 33.4375H96.6562C97.0875 33.4375 97.4375 33.0875 97.4375 32.6562V28.3594H84.9375ZM88.0625 31.875C87.6312 31.875 87.2812 31.525 87.2812 31.0938C87.2812 30.6625 87.6312 30.3125 88.0625 30.3125C88.4938 30.3125 88.8438 30.6625 88.8438 31.0938C88.8438 31.525 88.4938 31.875 88.0625 31.875ZM93.9219 31.875C93.275 31.875 92.75 31.35 92.75 30.7031C92.75 30.0562 93.275 29.5312 93.9219 29.5312C94.5688 29.5312 95.0938 30.0562 95.0938 30.7031C95.0938 31.35 94.5688 31.875 93.9219 31.875Z" fill="white"></path><defs><linearGradient id="paint0_linear_1139_7190" x1="53" y1="-11" x2="119" y2="80" gradientUnits="userSpaceOnUse"><stop stop-color="#FD5900"></stop><stop offset="1" stop-color="#FFDE00"></stop></linearGradient></defs></svg>