<svg xmlns="http://www.w3.org/2000/svg" width="140" height="71" viewBox="0 0 140 71" fill="none"><path d="M139.357 0C139.357 0 135.903 23.4258 116.293 33.1632V49.2188C116.293 54.6998 114.176 59.6698 110.711 63.3944C108.662 65.6246 106.115 67.402 103.25 68.558C101.404 69.3164 99.4344 69.8035 97.362 69.9853C97.2831 70.0076 97.1698 70.0076 97.0909 70.0076C96.8987 70.0181 96.6946 70.0419 96.4905 70.0419C96.1508 70.0643 95.7888 70.0762 95.4372 70.0762H20.8678C18.8297 70.0762 16.8602 69.7812 14.9905 69.2374C14.323 69.0333 13.666 68.8069 13.0209 68.5476C5.39013 65.4548 0 57.9596 0 49.2188V22.5885C0 11.0618 9.35302 1.70881 20.8678 1.70881H95.4372C105.322 1.70881 113.588 8.60513 115.739 17.8434C121.887 16.1793 131.511 11.7516 139.357 0Z" fill="url(#paint0_linear_1427_5933)"></path><path d="M23.7538 55L19.8338 45.2H21.5558L23.8938 51.15C24.0058 51.4393 24.1038 51.7007 24.1878 51.934C24.2811 52.1673 24.3605 52.382 24.4258 52.578C24.4911 52.7647 24.5518 52.942 24.6078 53.11C24.6638 53.278 24.7198 53.446 24.7758 53.614L24.4118 53.628C24.4771 53.404 24.5471 53.1707 24.6218 52.928C24.6965 52.6853 24.7805 52.4193 24.8738 52.13C24.9765 51.8407 25.0978 51.514 25.2378 51.15L27.4078 45.2H29.1718L25.2238 55H23.7538ZM33.3896 55.14C32.6336 55.14 31.9616 54.9813 31.3736 54.664C30.795 54.3373 30.3376 53.894 30.0016 53.334C29.675 52.774 29.5116 52.13 29.5116 51.402C29.5116 50.8233 29.605 50.296 29.7916 49.82C29.9783 49.344 30.235 48.9333 30.5616 48.588C30.8976 48.2333 31.2943 47.9627 31.7516 47.776C32.2183 47.58 32.7223 47.482 33.2636 47.482C33.7396 47.482 34.183 47.5753 34.5936 47.762C35.0043 47.9393 35.359 48.1867 35.6576 48.504C35.9656 48.8213 36.199 49.1993 36.3576 49.638C36.5256 50.0673 36.605 50.5387 36.5956 51.052L36.5816 51.668H30.5756L30.2536 50.52H35.3356L35.1256 50.758V50.422C35.0976 50.114 34.995 49.8387 34.8176 49.596C34.6403 49.3533 34.4163 49.162 34.1456 49.022C33.875 48.882 33.581 48.812 33.2636 48.812C32.7596 48.812 32.335 48.91 31.9896 49.106C31.6443 49.2927 31.383 49.5727 31.2056 49.946C31.0283 50.31 30.9396 50.7627 30.9396 51.304C30.9396 51.8173 31.047 52.2653 31.2616 52.648C31.4763 53.0213 31.7796 53.3107 32.1716 53.516C32.5636 53.7213 33.0163 53.824 33.5296 53.824C33.8936 53.824 34.2296 53.7633 34.5376 53.642C34.855 53.5207 35.1956 53.3013 35.5596 52.984L36.2876 54.006C36.0636 54.23 35.7883 54.426 35.4616 54.594C35.1443 54.762 34.8036 54.8973 34.4396 55C34.085 55.0933 33.735 55.14 33.3896 55.14ZM41.6644 58.22C41.1417 58.22 40.6191 58.136 40.0964 57.968C39.5831 57.8093 39.1677 57.5993 38.8504 57.338L39.3824 56.218C39.6624 56.4327 40.0077 56.6053 40.4184 56.736C40.8384 56.8667 41.2537 56.932 41.6644 56.932C42.1777 56.932 42.6071 56.848 42.9524 56.68C43.2977 56.512 43.5591 56.2647 43.7364 55.938C43.9137 55.6113 44.0024 55.2053 44.0024 54.72V53.306L44.1564 53.404C44.1097 53.6933 43.9557 53.9733 43.6944 54.244C43.4424 54.5053 43.1251 54.72 42.7424 54.888C42.3597 55.056 41.9677 55.14 41.5664 55.14C40.8664 55.14 40.2411 54.9767 39.6904 54.65C39.1491 54.314 38.7197 53.8613 38.4024 53.292C38.0851 52.7133 37.9264 52.0553 37.9264 51.318C37.9264 50.5807 38.0804 49.9273 38.3884 49.358C38.7057 48.7793 39.1351 48.3267 39.6764 48C40.2271 47.664 40.8431 47.496 41.5244 47.496C41.8044 47.496 42.0751 47.5333 42.3364 47.608C42.5977 47.6733 42.8404 47.7713 43.0644 47.902C43.2884 48.0233 43.4891 48.1587 43.6664 48.308C43.8437 48.4573 43.9884 48.616 44.1004 48.784C44.2124 48.952 44.2824 49.1107 44.3104 49.26L44.0024 49.372V47.65H45.4444V54.552C45.4444 55.14 45.3557 55.658 45.1784 56.106C45.0104 56.5633 44.7631 56.946 44.4364 57.254C44.1097 57.5713 43.7131 57.8093 43.2464 57.968C42.7797 58.136 42.2524 58.22 41.6644 58.22ZM41.7204 53.81C42.1777 53.81 42.5837 53.7027 42.9384 53.488C43.2931 53.2733 43.5684 52.9793 43.7644 52.606C43.9604 52.2327 44.0584 51.8033 44.0584 51.318C44.0584 50.8327 43.9557 50.4033 43.7504 50.03C43.5544 49.6473 43.2791 49.3487 42.9244 49.134C42.5791 48.9193 42.1777 48.812 41.7204 48.812C41.2724 48.812 40.8711 48.924 40.5164 49.148C40.1711 49.3627 39.8957 49.6613 39.6904 50.044C39.4944 50.4173 39.3964 50.842 39.3964 51.318C39.3964 51.794 39.4944 52.2233 39.6904 52.606C39.8957 52.9793 40.1711 53.2733 40.5164 53.488C40.8711 53.7027 41.2724 53.81 41.7204 53.81ZM51.1762 55.14C50.4202 55.14 49.7482 54.9813 49.1602 54.664C48.5815 54.3373 48.1242 53.894 47.7882 53.334C47.4615 52.774 47.2982 52.13 47.2982 51.402C47.2982 50.8233 47.3915 50.296 47.5782 49.82C47.7649 49.344 48.0215 48.9333 48.3482 48.588C48.6842 48.2333 49.0809 47.9627 49.5382 47.776C50.0049 47.58 50.5089 47.482 51.0502 47.482C51.5262 47.482 51.9695 47.5753 52.3802 47.762C52.7909 47.9393 53.1455 48.1867 53.4442 48.504C53.7522 48.8213 53.9855 49.1993 54.1442 49.638C54.3122 50.0673 54.3915 50.5387 54.3822 51.052L54.3682 51.668H48.3622L48.0402 50.52H53.1222L52.9122 50.758V50.422C52.8842 50.114 52.7815 49.8387 52.6042 49.596C52.4269 49.3533 52.2029 49.162 51.9322 49.022C51.6615 48.882 51.3675 48.812 51.0502 48.812C50.5462 48.812 50.1215 48.91 49.7762 49.106C49.4309 49.2927 49.1695 49.5727 48.9922 49.946C48.8149 50.31 48.7262 50.7627 48.7262 51.304C48.7262 51.8173 48.8335 52.2653 49.0482 52.648C49.2629 53.0213 49.5662 53.3107 49.9582 53.516C50.3502 53.7213 50.8029 53.824 51.3162 53.824C51.6802 53.824 52.0162 53.7633 52.3242 53.642C52.6415 53.5207 52.9822 53.3013 53.3462 52.984L54.0742 54.006C53.8502 54.23 53.5749 54.426 53.2482 54.594C52.9309 54.762 52.5902 54.8973 52.2262 55C51.8715 55.0933 51.5215 55.14 51.1762 55.14ZM57.1393 55V45.774H58.5813V55H57.1393ZM55.6133 49.05V47.65H60.2893V49.05H55.6133ZM66.168 55V50.212C66.168 49.8013 66.0187 49.47 65.72 49.218C65.4307 48.9567 65.062 48.826 64.614 48.826C64.2034 48.826 63.83 48.91 63.494 49.078C63.1674 49.246 62.8687 49.5027 62.598 49.848L61.66 48.91C62.0987 48.434 62.57 48.0793 63.074 47.846C63.5874 47.6127 64.138 47.496 64.726 47.496C65.286 47.496 65.7714 47.5893 66.182 47.776C66.5927 47.9627 66.91 48.238 67.134 48.602C67.358 48.9567 67.47 49.3907 67.47 49.904V55H66.168ZM63.97 55.14C63.494 55.14 63.0694 55.0467 62.696 54.86C62.3227 54.6733 62.024 54.4167 61.8 54.09C61.5854 53.754 61.478 53.362 61.478 52.914C61.478 52.522 61.548 52.1767 61.688 51.878C61.828 51.5793 62.0334 51.332 62.304 51.136C62.584 50.94 62.9294 50.7907 63.34 50.688C63.76 50.5853 64.2407 50.534 64.782 50.534H66.826L66.7 51.682H64.6C64.32 51.682 64.068 51.71 63.844 51.766C63.6294 51.8127 63.4427 51.892 63.284 52.004C63.1347 52.1067 63.0227 52.2327 62.948 52.382C62.8734 52.522 62.836 52.69 62.836 52.886C62.836 53.0913 62.8874 53.2733 62.99 53.432C63.0927 53.5813 63.2327 53.698 63.41 53.782C63.5874 53.866 63.7927 53.908 64.026 53.908C64.362 53.908 64.6794 53.852 64.978 53.74C65.286 53.6187 65.5567 53.4553 65.79 53.25C66.0327 53.0447 66.2194 52.816 66.35 52.564L66.686 53.502C66.49 53.8287 66.2474 54.1133 65.958 54.356C65.6687 54.5987 65.356 54.79 65.02 54.93C64.684 55.07 64.334 55.14 63.97 55.14ZM73.4365 55.14C73.1192 55.14 72.8019 55.0887 72.4845 54.986C72.1765 54.8833 71.8919 54.748 71.6305 54.58C71.3785 54.4027 71.1639 54.2113 70.9865 54.006C70.8185 53.7913 70.7065 53.5767 70.6505 53.362L71.0145 53.166V54.958H69.5725V44.64H71.0145V49.33L70.7905 49.204C70.8372 48.9893 70.9399 48.784 71.0985 48.588C71.2572 48.3827 71.4579 48.2007 71.7005 48.042C71.9525 47.874 72.2232 47.7433 72.5125 47.65C72.8019 47.5473 73.0959 47.496 73.3945 47.496C74.0572 47.496 74.6452 47.6593 75.1585 47.986C75.6719 48.3127 76.0779 48.7653 76.3765 49.344C76.6752 49.9133 76.8245 50.5667 76.8245 51.304C76.8245 52.0413 76.6752 52.6993 76.3765 53.278C76.0872 53.8567 75.6859 54.314 75.1725 54.65C74.6592 54.9767 74.0805 55.14 73.4365 55.14ZM73.1985 53.824C73.6279 53.824 74.0105 53.7167 74.3465 53.502C74.6825 53.278 74.9485 52.9793 75.1445 52.606C75.3405 52.2233 75.4385 51.7893 75.4385 51.304C75.4385 50.828 75.3405 50.4033 75.1445 50.03C74.9579 49.6473 74.6965 49.3487 74.3605 49.134C74.0245 48.9193 73.6372 48.812 73.1985 48.812C72.7599 48.812 72.3725 48.9193 72.0365 49.134C71.7005 49.3487 71.4345 49.6473 71.2385 50.03C71.0425 50.4033 70.9445 50.828 70.9445 51.304C70.9445 51.7893 71.0425 52.2233 71.2385 52.606C71.4345 52.9793 71.7005 53.278 72.0365 53.502C72.3725 53.7167 72.7599 53.824 73.1985 53.824ZM78.6989 55V44.64H80.1409V55H78.6989ZM85.7578 55.14C85.0018 55.14 84.3298 54.9813 83.7418 54.664C83.1632 54.3373 82.7058 53.894 82.3698 53.334C82.0432 52.774 81.8798 52.13 81.8798 51.402C81.8798 50.8233 81.9732 50.296 82.1598 49.82C82.3465 49.344 82.6032 48.9333 82.9298 48.588C83.2658 48.2333 83.6625 47.9627 84.1198 47.776C84.5865 47.58 85.0905 47.482 85.6318 47.482C86.1078 47.482 86.5512 47.5753 86.9618 47.762C87.3725 47.9393 87.7272 48.1867 88.0258 48.504C88.3338 48.8213 88.5672 49.1993 88.7258 49.638C88.8938 50.0673 88.9732 50.5387 88.9638 51.052L88.9498 51.668H82.9438L82.6218 50.52H87.7038L87.4938 50.758V50.422C87.4658 50.114 87.3632 49.8387 87.1858 49.596C87.0085 49.3533 86.7845 49.162 86.5138 49.022C86.2432 48.882 85.9492 48.812 85.6318 48.812C85.1278 48.812 84.7032 48.91 84.3578 49.106C84.0125 49.2927 83.7512 49.5727 83.5738 49.946C83.3965 50.31 83.3078 50.7627 83.3078 51.304C83.3078 51.8173 83.4152 52.2653 83.6298 52.648C83.8445 53.0213 84.1478 53.3107 84.5398 53.516C84.9318 53.7213 85.3845 53.824 85.8978 53.824C86.2618 53.824 86.5978 53.7633 86.9058 53.642C87.2232 53.5207 87.5638 53.3013 87.9278 52.984L88.6558 54.006C88.4318 54.23 88.1565 54.426 87.8298 54.594C87.5125 54.762 87.1718 54.8973 86.8078 55C86.4532 55.0933 86.1032 55.14 85.7578 55.14ZM93.261 55.14C92.645 55.14 92.0896 55.0327 91.595 54.818C91.1003 54.6033 90.6896 54.286 90.363 53.866L91.343 53.026C91.623 53.3527 91.9263 53.5907 92.253 53.74C92.589 53.88 92.967 53.95 93.387 53.95C93.555 53.95 93.709 53.9313 93.849 53.894C93.9983 53.8473 94.1243 53.782 94.227 53.698C94.339 53.614 94.423 53.516 94.479 53.404C94.535 53.2827 94.563 53.152 94.563 53.012C94.563 52.7693 94.4743 52.5733 94.297 52.424C94.2036 52.3587 94.0543 52.2887 93.849 52.214C93.653 52.13 93.3963 52.046 93.079 51.962C92.5376 51.822 92.0943 51.6633 91.749 51.486C91.4036 51.3087 91.1376 51.108 90.951 50.884C90.811 50.7067 90.7083 50.5153 90.643 50.31C90.5776 50.0953 90.545 49.862 90.545 49.61C90.545 49.1993 90.6616 48.8353 90.895 48.518C91.1283 48.2007 91.441 47.9533 91.833 47.776C92.2343 47.5893 92.6823 47.496 93.177 47.496C93.5223 47.496 93.863 47.5427 94.199 47.636C94.5443 47.7293 94.8616 47.8647 95.151 48.042C95.4403 48.2193 95.683 48.4293 95.879 48.672L95.053 49.582C94.8756 49.4047 94.6796 49.2507 94.465 49.12C94.2596 48.98 94.0496 48.8727 93.835 48.798C93.6203 48.7233 93.4243 48.686 93.247 48.686C93.051 48.686 92.8736 48.7047 92.715 48.742C92.5563 48.7793 92.421 48.8353 92.309 48.91C92.2063 48.9847 92.127 49.078 92.071 49.19C92.015 49.302 91.987 49.428 91.987 49.568C91.9963 49.6893 92.0243 49.806 92.071 49.918C92.127 50.0207 92.2016 50.1093 92.295 50.184C92.3976 50.2587 92.5516 50.338 92.757 50.422C92.9623 50.506 93.2236 50.5853 93.541 50.66C94.0076 50.7813 94.3903 50.9167 94.689 51.066C94.997 51.206 95.2396 51.3693 95.417 51.556C95.6036 51.7333 95.7343 51.9387 95.809 52.172C95.8836 52.4053 95.921 52.6667 95.921 52.956C95.921 53.376 95.7996 53.754 95.557 54.09C95.3236 54.4167 95.0063 54.6733 94.605 54.86C94.2036 55.0467 93.7556 55.14 93.261 55.14Z" fill="white"></path><path d="M52.9703 33.3105C52.2503 32.4129 51.8567 31.1889 51.8567 29.8593C51.8567 28.0929 52.5047 26.7393 53.4119 25.9281C53.2727 25.7409 53.1383 25.5633 53.0039 25.4049C52.5767 25.7361 51.9527 25.7793 51.4103 25.4049C51.1319 25.2081 50.7959 25.3953 50.2727 25.3521C50.1623 25.5441 50.1239 26.1873 50.2103 26.5617C50.4551 27.5937 48.9383 27.7089 48.4487 26.5809C47.6279 24.7281 46.7447 26.8593 46.6343 26.9072C46.0583 36.8529 51.7127 35.1345 51.7127 35.1345C52.6727 34.9041 53.3783 34.5536 53.8967 34.1553C53.5559 33.9345 53.2439 33.6513 52.9703 33.3105Z" fill="white"></path><path d="M47.681 25.2881C48.0155 25.179 48.4167 25.6446 48.6293 25.9246C48.7362 26.0655 48.8135 26.2241 48.8851 26.3858C49.1076 26.8881 49.8461 27.1159 49.7436 26.6706C49.6314 26.1831 49.617 24.8003 50.2679 24.8683C50.8058 24.9244 51.2078 24.6853 51.6785 25.0066C51.8375 25.1151 52.0199 25.1921 52.2123 25.1907C52.7993 25.1867 52.9548 24.6814 52.9548 24.6814C52.37 24.8067 51.0888 23.2331 51.0888 23.2331C50.5871 22.3742 49.2367 22.6204 49.2367 22.6204C48.9437 21.166 47.5847 20.0754 46.9994 19.665C46.8526 19.5621 46.6503 19.5972 46.5451 19.7423L46.54 19.7493C46.4287 19.9029 46.4775 20.1149 46.6395 20.2136C48.2985 21.2232 48.0252 23.0242 48.0252 23.0242C46.3402 24.0129 46.5868 26.4501 46.5868 26.4501C46.5975 25.7266 47.334 25.4013 47.681 25.2881Z" fill="white"></path><path d="M69.2999 19.3233C69.1223 19.0593 68.8679 18.8577 68.6135 18.6609C68.4215 18.5072 68.1431 18.2337 67.9127 18.152C67.8071 18.0512 67.7015 17.9505 67.5767 17.8641C67.2215 17.6241 66.8039 17.4752 66.3815 17.432C66.1415 17.4081 65.8967 17.4177 65.6615 17.4657C64.8119 17.6385 64.0775 18.2768 63.7895 19.0929C63.7463 19.2224 63.6839 19.3809 63.5447 19.4049C63.4103 19.4241 63.2999 19.2993 63.1703 19.2657C63.0071 19.2272 62.8343 19.3472 62.7623 19.4961C62.6855 19.6497 62.6807 19.8224 62.6807 19.9905C62.6663 20.8497 62.6567 21.7089 62.6471 22.5633C62.4263 23.1345 62.1239 23.912 61.9751 24.3009V24.3057C62.0615 24.3057 62.1431 24.3105 62.2247 24.3201C62.3495 23.9361 62.5511 23.3649 62.7623 22.8081C62.7623 22.8081 62.7623 22.8081 62.7623 22.8033C62.9207 22.7841 63.0599 22.6401 63.1655 22.5057C63.8711 21.5985 64.6535 20.6913 65.6999 20.2113C65.9783 20.0817 66.2759 19.9857 66.5687 19.8945C67.0679 19.7313 67.5671 19.5681 68.0615 19.4097C68.1095 19.3953 68.1527 19.3761 68.2007 19.3569C68.2919 19.6449 68.4023 19.9281 68.5607 20.1921C68.6231 20.2929 68.6903 20.3985 68.7911 20.4753C68.8871 20.5521 69.0119 20.5953 69.1319 20.5761C69.2999 20.5473 69.4247 20.3937 69.4823 20.2305C69.5783 19.9233 69.4823 19.5872 69.2999 19.3233Z" fill="white"></path><path d="M53.9207 20.5761C54.1751 20.6193 54.3623 20.4129 54.4967 20.1921C54.6503 19.9281 54.7655 19.6497 54.8567 19.3617C55.0535 19.4385 55.4615 19.5585 56.4839 19.8945C56.7767 19.9857 57.0743 20.0817 57.3527 20.2113C58.3991 20.6913 59.1815 21.5985 59.8871 22.5057C59.9927 22.6401 60.1319 22.7841 60.2855 22.8033C60.2855 22.8081 60.2855 22.8081 60.2903 22.8081C60.5879 23.6145 60.7223 23.9889 60.8567 24.4065C60.9335 24.3873 61.0151 24.3729 61.0967 24.3585C61.092 24.3345 61.0823 24.3153 61.0775 24.3009C60.9287 23.912 60.6263 23.1297 60.4055 22.5585C60.3959 21.7041 60.3863 20.8497 60.372 19.9905C60.372 19.8224 60.3672 19.6497 60.2952 19.4961C60.2184 19.3472 60.0456 19.2272 59.8824 19.2657C59.7528 19.2993 59.6424 19.4241 59.508 19.4049C59.3688 19.3809 59.3112 19.2224 59.2632 19.0929C58.9752 18.2768 58.2408 17.6385 57.3912 17.4657C57.156 17.4177 56.9112 17.4081 56.6712 17.432C56.2488 17.4753 55.8312 17.6241 55.476 17.8641C55.3512 17.9504 55.2456 18.0512 55.14 18.152C54.9096 18.2336 54.6312 18.5072 54.4392 18.6609C54.1848 18.8577 53.9304 19.0593 53.7528 19.3233C53.3303 19.9377 53.5847 20.5233 53.9207 20.5761Z" fill="white"></path><path d="M61.2599 22.2081C61.1975 23.0433 61.1879 23.8401 61.1975 24.3441C61.3127 24.3297 61.4279 24.3153 61.5479 24.3105C61.4903 23.6289 61.4759 22.8465 61.4759 22.2224C61.4807 21.8193 61.5143 21.2001 61.5527 20.6001C61.6823 20.5377 61.7687 20.3697 61.8263 20.2209C62.2055 19.1841 62.6519 18.1377 63.4487 17.4272C63.6599 17.2353 63.8951 17.0768 64.1255 16.9137C64.5239 16.6401 64.9175 16.3617 65.3111 16.0881C65.4071 16.0209 65.5031 15.9537 65.5559 15.8481C65.6471 15.6705 65.5703 15.4305 65.4311 15.2768C65.3159 15.152 64.5287 14.7729 64.4759 14.7488C62.9639 14.1872 61.5383 15.3056 61.4711 16.8416C61.4375 17.6672 60.7991 16.7216 60.6743 17.4753C60.6407 17.6961 60.6551 17.6768 61.4087 20.4801C61.3415 21.0513 61.2935 21.632 61.2599 22.2081Z" fill="white"></path><path d="M61.8071 24.7809C61.0343 24.7809 60.3143 25.0065 59.7047 25.3953C60.9143 26.0337 61.8071 27.4737 61.9895 29.2016C62.5987 29.0068 63.0312 29.2684 63.4679 29.6577C64.1752 30.2638 64.0843 29.9118 65.7911 29.1297C66.0398 27.1416 64.3205 24.7809 61.8071 24.7809Z" fill="white"></path><path d="M63.6791 30.3777C63.1099 30.1735 62.7977 29.3537 62.0183 29.7057C62.0231 29.7585 62.0231 29.8065 62.0231 29.8593C62.0231 31.1841 61.6103 32.3841 60.9383 33.2577C60.9767 33.3249 61.0055 33.3921 61.0295 33.4642C61.4135 34.6642 62.1239 35.1729 62.6663 35.3889C62.8007 35.4417 62.9015 35.2642 62.7863 35.1778C61.6535 34.2994 62.0327 33.1042 62.9495 32.8258C64.3655 32.389 65.4455 31.1746 65.7287 29.6673C65.1095 29.9024 64.4183 30.6513 63.6791 30.3777Z" fill="white"></path><path d="M58.3002 25.5142C57.8142 25.5142 57.4893 25.6807 57.065 25.7155C57.2141 25.221 57.5578 24.8223 58.225 24.5088C58.4563 24.4012 58.7226 24.3074 58.9463 24.2661L58.7072 23.5076C58.3955 23.6497 58.1531 23.8126 57.9057 24.0051C57.2087 24.5619 56.9289 25.1281 56.9048 25.7232C56.7241 25.7221 56.5233 25.695 56.2832 25.6201C54.3937 25.0475 52.3386 26.8872 52.3386 29.8578C52.3386 32.8421 54.4118 34.6627 56.2832 34.0956C57.2191 33.8031 57.5036 34.2015 58.3002 34.2015C60.0895 34.2015 61.5412 32.2551 61.5412 29.8578C61.5412 27.4605 60.0894 25.5142 58.3002 25.5142Z" fill="white"></path><defs><linearGradient id="paint0_linear_1427_5933" x1="26.5" y1="2" x2="96" y2="88" gradientUnits="userSpaceOnUse"><stop stop-color="#02A68F"></stop><stop offset="1" stop-color="#46E760"></stop></linearGradient></defs></svg>