<svg xmlns="http://www.w3.org/2000/svg" width="117" height="98" viewBox="0 0 117 98" fill="none"><path d="M116.286 20.8543V47.4907C116.286 56.501 110.568 64.1869 102.558 67.0965C100.331 67.901 97.9297 68.3465 95.4298 68.3465H46.5893C46.4284 68.8411 46.2675 69.3238 46.0947 69.7946C44.8194 73.3597 43.2358 76.527 41.4897 79.3368C40.7969 80.4631 40.0789 81.5283 39.3369 82.531C32.1203 92.4323 23.4824 96.8883 23.1099 97.0745C26.8478 90.8233 29.2852 84.8208 30.8197 79.3383C31.946 75.365 32.5896 71.6643 32.9486 68.348H20.8558C17.3905 68.348 14.1234 67.5062 11.251 66.009C4.56627 62.5303 0 55.5505 0 47.4921V20.8558C0 9.33216 9.34557 0 20.8558 0H95.4283C106.952 0 116.284 9.33216 116.284 20.8558L116.286 20.8543Z" fill="url(#paint0_linear_1427_6135)"></path><path d="M25.7481 53V43.2H27.2601V53H25.7481ZM26.4201 48.828V47.372H31.4741V48.828H26.4201ZM26.4201 44.656V43.2H32.1041V44.656H26.4201ZM38.2349 53V48.212C38.2349 47.8013 38.0856 47.47 37.7869 47.218C37.4976 46.9567 37.1289 46.826 36.6809 46.826C36.2702 46.826 35.8969 46.91 35.5609 47.078C35.2342 47.246 34.9356 47.5027 34.6649 47.848L33.7269 46.91C34.1656 46.434 34.6369 46.0793 35.1409 45.846C35.6542 45.6127 36.2049 45.496 36.7929 45.496C37.3529 45.496 37.8382 45.5893 38.2489 45.776C38.6596 45.9627 38.9769 46.238 39.2009 46.602C39.4249 46.9567 39.5369 47.3907 39.5369 47.904V53H38.2349ZM36.0369 53.14C35.5609 53.14 35.1362 53.0467 34.7629 52.86C34.3896 52.6733 34.0909 52.4167 33.8669 52.09C33.6522 51.754 33.5449 51.362 33.5449 50.914C33.5449 50.522 33.6149 50.1767 33.7549 49.878C33.8949 49.5793 34.1002 49.332 34.3709 49.136C34.6509 48.94 34.9962 48.7907 35.4069 48.688C35.8269 48.5853 36.3076 48.534 36.8489 48.534H38.8929L38.7669 49.682H36.6669C36.3869 49.682 36.1349 49.71 35.9109 49.766C35.6962 49.8127 35.5096 49.892 35.3509 50.004C35.2016 50.1067 35.0896 50.2327 35.0149 50.382C34.9402 50.522 34.9029 50.69 34.9029 50.886C34.9029 51.0913 34.9542 51.2733 35.0569 51.432C35.1596 51.5813 35.2996 51.698 35.4769 51.782C35.6542 51.866 35.8596 51.908 36.0929 51.908C36.4289 51.908 36.7462 51.852 37.0449 51.74C37.3529 51.6187 37.6236 51.4553 37.8569 51.25C38.0996 51.0447 38.2862 50.816 38.4169 50.564L38.7529 51.502C38.5569 51.8287 38.3142 52.1133 38.0249 52.356C37.7356 52.5987 37.4229 52.79 37.0869 52.93C36.7509 53.07 36.4009 53.14 36.0369 53.14ZM44.0894 53.14C43.4734 53.14 42.9181 53.0327 42.4234 52.818C41.9287 52.6033 41.5181 52.286 41.1914 51.866L42.1714 51.026C42.4514 51.3527 42.7547 51.5907 43.0814 51.74C43.4174 51.88 43.7954 51.95 44.2154 51.95C44.3834 51.95 44.5374 51.9313 44.6774 51.894C44.8267 51.8473 44.9527 51.782 45.0554 51.698C45.1674 51.614 45.2514 51.516 45.3074 51.404C45.3634 51.2827 45.3914 51.152 45.3914 51.012C45.3914 50.7693 45.3027 50.5733 45.1254 50.424C45.0321 50.3587 44.8827 50.2887 44.6774 50.214C44.4814 50.13 44.2247 50.046 43.9074 49.962C43.3661 49.822 42.9227 49.6633 42.5774 49.486C42.2321 49.3087 41.9661 49.108 41.7794 48.884C41.6394 48.7067 41.5367 48.5153 41.4714 48.31C41.4061 48.0953 41.3734 47.862 41.3734 47.61C41.3734 47.1993 41.4901 46.8353 41.7234 46.518C41.9567 46.2007 42.2694 45.9533 42.6614 45.776C43.0627 45.5893 43.5107 45.496 44.0054 45.496C44.3507 45.496 44.6914 45.5427 45.0274 45.636C45.3727 45.7293 45.6901 45.8647 45.9794 46.042C46.2687 46.2193 46.5114 46.4293 46.7074 46.672L45.8814 47.582C45.7041 47.4047 45.5081 47.2507 45.2934 47.12C45.0881 46.98 44.8781 46.8727 44.6634 46.798C44.4487 46.7233 44.2527 46.686 44.0754 46.686C43.8794 46.686 43.7021 46.7047 43.5434 46.742C43.3847 46.7793 43.2494 46.8353 43.1374 46.91C43.0347 46.9847 42.9554 47.078 42.8994 47.19C42.8434 47.302 42.8154 47.428 42.8154 47.568C42.8247 47.6893 42.8527 47.806 42.8994 47.918C42.9554 48.0207 43.0301 48.1093 43.1234 48.184C43.2261 48.2587 43.3801 48.338 43.5854 48.422C43.7907 48.506 44.0521 48.5853 44.3694 48.66C44.8361 48.7813 45.2187 48.9167 45.5174 49.066C45.8254 49.206 46.0681 49.3693 46.2454 49.556C46.4321 49.7333 46.5627 49.9387 46.6374 50.172C46.7121 50.4053 46.7494 50.6667 46.7494 50.956C46.7494 51.376 46.6281 51.754 46.3854 52.09C46.1521 52.4167 45.8347 52.6733 45.4334 52.86C45.0321 53.0467 44.5841 53.14 44.0894 53.14ZM49.5286 53V43.774H50.9706V53H49.5286ZM48.0026 47.05V45.65H52.6786V47.05H48.0026ZM58.8395 53V43.2H60.3515V53H58.8395ZM59.5115 48.828V47.372H64.5655V48.828H59.5115ZM59.5115 44.656V43.2H65.1955V44.656H59.5115ZM70.2763 53.14C69.5576 53.14 68.9136 52.9767 68.3443 52.65C67.7843 52.314 67.341 51.8613 67.0143 51.292C66.6876 50.7133 66.5243 50.0553 66.5243 49.318C66.5243 48.5807 66.6876 47.9273 67.0143 47.358C67.341 46.7793 67.7843 46.3267 68.3443 46C68.9136 45.664 69.5576 45.496 70.2763 45.496C70.9856 45.496 71.6203 45.664 72.1803 46C72.7496 46.3267 73.1976 46.7793 73.5243 47.358C73.851 47.9273 74.0143 48.5807 74.0143 49.318C74.0143 50.0553 73.851 50.7133 73.5243 51.292C73.1976 51.8613 72.7496 52.314 72.1803 52.65C71.6203 52.9767 70.9856 53.14 70.2763 53.14ZM70.2763 51.824C70.715 51.824 71.107 51.7167 71.4523 51.502C71.7976 51.278 72.0683 50.9793 72.2643 50.606C72.4603 50.2233 72.5536 49.794 72.5443 49.318C72.5536 48.8327 72.4603 48.4033 72.2643 48.03C72.0683 47.6473 71.7976 47.3487 71.4523 47.134C71.107 46.9193 70.715 46.812 70.2763 46.812C69.8376 46.812 69.441 46.924 69.0863 47.148C68.741 47.3627 68.4703 47.6613 68.2743 48.044C68.0783 48.4173 67.985 48.842 67.9943 49.318C67.985 49.794 68.0783 50.2233 68.2743 50.606C68.4703 50.9793 68.741 51.278 69.0863 51.502C69.441 51.7167 69.8376 51.824 70.2763 51.824ZM79.1696 53.14C78.4509 53.14 77.8069 52.9767 77.2376 52.65C76.6776 52.314 76.2342 51.8613 75.9076 51.292C75.5809 50.7133 75.4176 50.0553 75.4176 49.318C75.4176 48.5807 75.5809 47.9273 75.9076 47.358C76.2342 46.7793 76.6776 46.3267 77.2376 46C77.8069 45.664 78.4509 45.496 79.1696 45.496C79.8789 45.496 80.5136 45.664 81.0736 46C81.6429 46.3267 82.0909 46.7793 82.4176 47.358C82.7442 47.9273 82.9076 48.5807 82.9076 49.318C82.9076 50.0553 82.7442 50.7133 82.4176 51.292C82.0909 51.8613 81.6429 52.314 81.0736 52.65C80.5136 52.9767 79.8789 53.14 79.1696 53.14ZM79.1696 51.824C79.6082 51.824 80.0002 51.7167 80.3456 51.502C80.6909 51.278 80.9616 50.9793 81.1576 50.606C81.3536 50.2233 81.4469 49.794 81.4376 49.318C81.4469 48.8327 81.3536 48.4033 81.1576 48.03C80.9616 47.6473 80.6909 47.3487 80.3456 47.134C80.0002 46.9193 79.6082 46.812 79.1696 46.812C78.7309 46.812 78.3342 46.924 77.9796 47.148C77.6342 47.3627 77.3636 47.6613 77.1676 48.044C76.9716 48.4173 76.8782 48.842 76.8876 49.318C76.8782 49.794 76.9716 50.2233 77.1676 50.606C77.3636 50.9793 77.6342 51.278 77.9796 51.502C78.3342 51.7167 78.7309 51.824 79.1696 51.824ZM87.8249 53.14C87.1529 53.14 86.5509 52.9767 86.0189 52.65C85.4962 52.314 85.0809 51.8613 84.7729 51.292C84.4649 50.7133 84.3109 50.0553 84.3109 49.318C84.3109 48.5807 84.4602 47.9273 84.7589 47.358C85.0669 46.7793 85.4822 46.3267 86.0049 46C86.5275 45.664 87.1202 45.496 87.7829 45.496C88.1469 45.496 88.4969 45.5567 88.8329 45.678C89.1782 45.79 89.4862 45.9487 89.7569 46.154C90.0275 46.35 90.2375 46.5693 90.3869 46.812C90.5455 47.0453 90.6249 47.2833 90.6249 47.526L90.2049 47.554V42.64H91.6469V53H90.2049V51.25H90.4849C90.4849 51.474 90.4102 51.698 90.2609 51.922C90.1115 52.1367 89.9109 52.3373 89.6589 52.524C89.4162 52.7107 89.1315 52.86 88.8049 52.972C88.4875 53.084 88.1609 53.14 87.8249 53.14ZM88.0209 51.894C88.4595 51.894 88.8469 51.782 89.1829 51.558C89.5189 51.334 89.7802 51.0307 89.9669 50.648C90.1629 50.256 90.2609 49.8127 90.2609 49.318C90.2609 48.8233 90.1629 48.3847 89.9669 48.002C89.7802 47.61 89.5189 47.302 89.1829 47.078C88.8469 46.854 88.4595 46.742 88.0209 46.742C87.5822 46.742 87.1949 46.854 86.8589 47.078C86.5229 47.302 86.2569 47.61 86.0609 48.002C85.8742 48.3847 85.7809 48.8233 85.7809 49.318C85.7809 49.8127 85.8742 50.256 86.0609 50.648C86.2569 51.0307 86.5229 51.334 86.8589 51.558C87.1949 51.782 87.5822 51.894 88.0209 51.894Z" fill="white"></path><g clip-path="url(#clip0_1427_6135)"><path d="M53.251 26.6901C52.6163 26.326 52.1875 25.6422 52.1875 24.8594C52.1875 21.6285 54.816 19 58.0469 19H60.4615L60.5752 17.125H46.8936L47.8763 33.3394C47.8988 33.7105 48.2062 34 48.5781 34H52.8925C52.4501 33.412 52.1875 32.6815 52.1875 31.8906C52.1875 30.9789 52.769 30.2006 53.5806 29.9067C53.2929 29.4656 53.125 28.9397 53.125 28.375C53.125 27.8098 53.2933 27.2833 53.5815 26.8419C53.3522 26.7902 53.225 26.7395 53.251 26.6901Z" fill="white"></path><path d="M53.7336 15.7189C53.7342 15.7189 53.7347 15.7188 53.7353 15.7188H60.7656C61.154 15.7188 61.4688 15.404 61.4688 15.0156C61.4688 14.6273 61.154 14.3125 60.7656 14.3125H55.0324L56.9277 11.4062H59.3594C59.7477 11.4062 60.0625 11.0915 60.0625 10.7031C60.0625 10.3148 59.7477 10 59.3594 10H56.5469C56.3092 10 56.0876 10.1199 55.958 10.319L53.3535 14.3125H46.7031C46.3148 14.3125 46 14.6273 46 15.0156C46 15.404 46.3148 15.7188 46.7031 15.7188H53.7311C53.732 15.7188 53.7329 15.7189 53.7336 15.7189Z" fill="white"></path><path d="M53.5938 24.8594C53.5938 25.2477 53.9085 25.5625 54.2969 25.5625H69.2969C69.6852 25.5625 70 25.2477 70 24.8594C70 22.4039 68.0023 20.4062 65.5469 20.4062H58.0469C55.5914 20.4062 53.5938 22.4039 53.5938 24.8594Z" fill="white"></path><path d="M55.9375 26.9687C55.1608 26.9687 54.5312 27.5983 54.5312 28.375C54.5312 29.1517 55.1608 29.7812 55.9375 29.7812H67.6562C68.433 29.7812 69.0625 29.1517 69.0625 28.375C69.0625 27.5983 68.433 26.9687 67.6562 26.9687H55.9375Z" fill="white"></path><path d="M69.2969 31.1875H54.2969C53.9085 31.1875 53.5938 31.5023 53.5938 31.8906C53.5938 33.0537 54.54 34 55.7031 34H67.8906C69.0537 34 70 33.0537 70 31.8906C70 31.5023 69.6852 31.1875 69.2969 31.1875Z" fill="white"></path></g><defs><linearGradient id="paint0_linear_1427_6135" x1="-26.9979" y1="-73.7826" x2="84.1017" y2="66.6147" gradientUnits="userSpaceOnUse"><stop stop-color="#0005FF"></stop><stop offset="0.846565" stop-color="#00C0FF"></stop></linearGradient><clipPath id="clip0_1427_6135"><rect width="24" height="24" fill="white" transform="translate(46 10)"></rect></clipPath></defs></svg>