<svg xmlns="http://www.w3.org/2000/svg" width="143" height="69" viewBox="0 0 143 69" fill="none"><path d="M142.402 20.8782V47.5085C142.402 52.988 140.295 57.9596 136.832 61.6841C133.445 65.352 128.748 67.7982 123.483 68.2631C123.392 68.2973 123.291 68.2973 123.2 68.2973H123.166C122.985 68.3092 122.792 68.3197 122.611 68.3197C122.26 68.354 121.898 68.3644 121.548 68.3644H46.9886C45.46 68.3644 43.9658 68.1945 42.5385 67.8772C41.3616 67.6284 40.2293 67.2768 39.1418 66.8358C31.499 63.7445 26.1104 56.2492 26.1104 47.5085V41.2692C3.80497 32.5628 0 6.74735 0 6.74735C9.01335 20.2435 20.3582 24.0828 26.1104 25.1688V20.8782C26.1104 9.35152 35.4619 0 46.9886 0H121.548C133.074 0 142.403 9.35152 142.403 20.8782H142.402Z" fill="url(#paint0_linear_1427_6057)"></path><path d="M50.5772 54V44.2H56.7512V45.656H52.0892V52.544H56.7512V54H50.5772ZM51.2632 49.702V48.246H55.9812V49.702H51.2632ZM64.3864 57.08V52.25H64.6664C64.6664 52.474 64.5918 52.698 64.4424 52.922C64.2931 53.1367 64.0924 53.3373 63.8404 53.524C63.5884 53.7107 63.3084 53.86 63.0004 53.972C62.6924 54.084 62.3751 54.14 62.0484 54.14C61.3858 54.14 60.7931 53.9767 60.2704 53.65C59.7478 53.314 59.3324 52.8613 59.0244 52.292C58.7258 51.7133 58.5764 51.0553 58.5764 50.318C58.5764 49.5807 58.7258 48.9273 59.0244 48.358C59.3231 47.7793 59.7291 47.3267 60.2424 47C60.7651 46.664 61.3531 46.496 62.0064 46.496C62.3704 46.496 62.7158 46.5567 63.0424 46.678C63.3784 46.7993 63.6771 46.958 63.9384 47.154C64.2091 47.35 64.4191 47.5693 64.5684 47.812C64.7271 48.0453 64.8064 48.2833 64.8064 48.526L64.3864 48.554V46.636H65.8284V57.08H64.3864ZM62.2024 52.81C62.6411 52.81 63.0284 52.7027 63.3644 52.488C63.7004 52.2733 63.9618 51.9793 64.1484 51.606C64.3444 51.2327 64.4424 50.8033 64.4424 50.318C64.4424 49.8327 64.3444 49.4033 64.1484 49.03C63.9618 48.6473 63.7004 48.3487 63.3644 48.134C63.0284 47.9193 62.6411 47.812 62.2024 47.812C61.7638 47.812 61.3764 47.924 61.0404 48.148C60.7044 48.3627 60.4384 48.6613 60.2424 49.044C60.0558 49.4173 59.9624 49.842 59.9624 50.318C59.9624 50.794 60.0558 51.2233 60.2424 51.606C60.4384 51.9793 60.7044 52.2733 61.0404 52.488C61.3764 52.7027 61.7638 52.81 62.2024 52.81ZM70.6988 54.14C70.1761 54.14 69.7188 54.0187 69.3268 53.776C68.9441 53.5333 68.6455 53.1927 68.4308 52.754C68.2255 52.3153 68.1228 51.7927 68.1228 51.186V46.65H69.5648V50.794C69.5648 51.438 69.7141 51.9467 70.0128 52.32C70.3208 52.6933 70.7455 52.88 71.2868 52.88C71.5575 52.88 71.8048 52.838 72.0288 52.754C72.2528 52.6607 72.4441 52.5347 72.6028 52.376C72.7708 52.2173 72.9015 52.026 72.9948 51.802C73.0881 51.578 73.1348 51.3353 73.1348 51.074V46.65H74.5768V54H73.1348V52.46L73.3868 52.292C73.2748 52.6373 73.0835 52.95 72.8128 53.23C72.5515 53.51 72.2388 53.734 71.8748 53.902C71.5108 54.0607 71.1188 54.14 70.6988 54.14ZM77.1174 54V46.65H78.5594V54H77.1174ZM77.8174 45.026C77.5094 45.026 77.2714 44.9467 77.1034 44.788C76.9354 44.6293 76.8514 44.4053 76.8514 44.116C76.8514 43.8453 76.9354 43.626 77.1034 43.458C77.2807 43.29 77.5187 43.206 77.8174 43.206C78.1254 43.206 78.3634 43.2853 78.5314 43.444C78.6994 43.6027 78.7834 43.8267 78.7834 44.116C78.7834 44.3867 78.6947 44.606 78.5174 44.774C78.3494 44.942 78.116 45.026 77.8174 45.026ZM81.0559 57.08V46.65H82.5119V48.33L82.2879 48.204C82.3439 47.924 82.5025 47.658 82.7639 47.406C83.0252 47.1447 83.3425 46.9347 83.7159 46.776C84.0985 46.608 84.4905 46.524 84.8919 46.524C85.5545 46.524 86.1425 46.6873 86.6559 47.014C87.1692 47.3407 87.5752 47.7887 87.8739 48.358C88.1725 48.9273 88.3219 49.5807 88.3219 50.318C88.3219 51.046 88.1725 51.6993 87.8739 52.278C87.5845 52.8473 87.1832 53.3 86.6699 53.636C86.1565 53.9627 85.5779 54.126 84.9339 54.126C84.5045 54.126 84.0892 54.042 83.6879 53.874C83.2865 53.6967 82.9459 53.4727 82.6659 53.202C82.3859 52.9313 82.2132 52.6513 82.1479 52.362L82.5119 52.166V57.08H81.0559ZM84.6959 52.796C85.1252 52.796 85.5079 52.6887 85.8439 52.474C86.1799 52.2593 86.4459 51.9653 86.6419 51.592C86.8379 51.2187 86.9359 50.794 86.9359 50.318C86.9359 49.842 86.8379 49.422 86.6419 49.058C86.4552 48.6847 86.1939 48.3907 85.8579 48.176C85.5219 47.9613 85.1345 47.854 84.6959 47.854C84.2572 47.854 83.8699 47.9613 83.5339 48.176C83.1979 48.3813 82.9319 48.6707 82.7359 49.044C82.5399 49.4173 82.4419 49.842 82.4419 50.318C82.4419 50.794 82.5399 51.2187 82.7359 51.592C82.9319 51.9653 83.1979 52.2593 83.5339 52.474C83.8699 52.6887 84.2572 52.796 84.6959 52.796ZM90.1399 54V46.65H91.5959V48.218L91.3299 48.386C91.4046 48.1433 91.5212 47.91 91.6799 47.686C91.8479 47.462 92.0486 47.266 92.2819 47.098C92.5246 46.9207 92.7812 46.7807 93.0519 46.678C93.3319 46.5753 93.6166 46.524 93.9059 46.524C94.3259 46.524 94.6946 46.594 95.0119 46.734C95.3292 46.874 95.5906 47.084 95.7959 47.364C96.0012 47.644 96.1506 47.994 96.2439 48.414L96.0199 48.358L96.1179 48.12C96.2206 47.9053 96.3606 47.7047 96.5379 47.518C96.7246 47.322 96.9346 47.1493 97.1679 47C97.4012 46.8507 97.6486 46.734 97.9099 46.65C98.1712 46.566 98.4279 46.524 98.6799 46.524C99.2306 46.524 99.6832 46.636 100.038 46.86C100.402 47.084 100.673 47.4247 100.85 47.882C101.037 48.3393 101.13 48.9087 101.13 49.59V54H99.6739V49.674C99.6739 49.0487 99.5526 48.5913 99.3099 48.302C99.0766 48.0033 98.7079 47.854 98.2039 47.854C97.9426 47.854 97.6952 47.9007 97.4619 47.994C97.2379 48.078 97.0419 48.1993 96.8739 48.358C96.7059 48.5167 96.5752 48.7033 96.4819 48.918C96.3886 49.1233 96.3419 49.352 96.3419 49.604V54H94.8859V49.646C94.8859 49.0673 94.7599 48.624 94.5079 48.316C94.2652 48.008 93.9106 47.854 93.4439 47.854C93.1826 47.854 92.9399 47.9007 92.7159 47.994C92.4919 48.078 92.2959 48.1993 92.1279 48.358C91.9599 48.5073 91.8292 48.6893 91.7359 48.904C91.6426 49.1093 91.5959 49.3333 91.5959 49.576V54H90.1399ZM106.77 54.14C106.014 54.14 105.342 53.9813 104.754 53.664C104.176 53.3373 103.718 52.894 103.382 52.334C103.056 51.774 102.892 51.13 102.892 50.402C102.892 49.8233 102.986 49.296 103.172 48.82C103.359 48.344 103.616 47.9333 103.942 47.588C104.278 47.2333 104.675 46.9627 105.132 46.776C105.599 46.58 106.103 46.482 106.644 46.482C107.12 46.482 107.564 46.5753 107.974 46.762C108.385 46.9393 108.74 47.1867 109.038 47.504C109.346 47.8213 109.58 48.1993 109.738 48.638C109.906 49.0673 109.986 49.5387 109.976 50.052L109.962 50.668H103.956L103.634 49.52H108.716L108.506 49.758V49.422C108.478 49.114 108.376 48.8387 108.198 48.596C108.021 48.3533 107.797 48.162 107.526 48.022C107.256 47.882 106.962 47.812 106.644 47.812C106.14 47.812 105.716 47.91 105.37 48.106C105.025 48.2927 104.764 48.5727 104.586 48.946C104.409 49.31 104.32 49.7627 104.32 50.304C104.32 50.8173 104.428 51.2653 104.642 51.648C104.857 52.0213 105.16 52.3107 105.552 52.516C105.944 52.7213 106.397 52.824 106.91 52.824C107.274 52.824 107.61 52.7633 107.918 52.642C108.236 52.5207 108.576 52.3013 108.94 51.984L109.668 53.006C109.444 53.23 109.169 53.426 108.842 53.594C108.525 53.762 108.184 53.8973 107.82 54C107.466 54.0933 107.116 54.14 106.77 54.14ZM111.824 54V46.65H113.266V48.162L113.014 48.33C113.107 48.0033 113.289 47.7047 113.56 47.434C113.83 47.154 114.152 46.93 114.526 46.762C114.899 46.5847 115.282 46.496 115.674 46.496C116.234 46.496 116.7 46.608 117.074 46.832C117.447 47.0467 117.727 47.378 117.914 47.826C118.1 48.274 118.194 48.8387 118.194 49.52V54H116.752V49.618C116.752 49.198 116.696 48.8527 116.584 48.582C116.472 48.302 116.299 48.1013 116.066 47.98C115.832 47.8493 115.543 47.7933 115.198 47.812C114.918 47.812 114.661 47.8587 114.428 47.952C114.194 48.036 113.989 48.1573 113.812 48.316C113.644 48.4747 113.508 48.6613 113.406 48.876C113.312 49.0813 113.266 49.3053 113.266 49.548V54H112.552C112.43 54 112.309 54 112.188 54C112.066 54 111.945 54 111.824 54ZM121.34 54V44.774H122.782V54H121.34ZM119.814 48.05V46.65H124.49V48.05H119.814Z" fill="white"></path><g clip-path="url(#clip0_1427_6057)"><path d="M82.6875 26.4413V28.625C82.6875 32.1145 85.5261 35 89.0156 35C92.5051 35 95.3438 32.1145 95.3438 28.625V27.8507C96.9465 27.524 98.1563 26.1039 98.1563 24.4062C98.1563 22.4678 96.5791 20.8906 94.6406 20.8906C92.7022 20.8906 91.125 22.4678 91.125 24.4062C91.125 26.1039 92.3348 27.524 93.9375 27.8507V28.625C93.9375 31.3386 91.7293 33.5938 89.0156 33.5938C86.302 33.5938 84.0938 31.3386 84.0938 28.625V26.4422C86.9634 25.9158 90.275 22.3526 90.8483 18.9632C91.2242 16.7369 90.2954 14.9547 88.3125 14.0633V13.1094C88.3125 11.9462 87.3663 11 86.2031 11C85.04 11 84.0938 11.9462 84.0938 13.1094C84.0938 14.2725 85.04 15.2188 86.2031 15.2188H87.4515C89.0694 15.8178 89.7493 17.0268 89.4613 18.7291C88.9676 21.6507 85.6772 25.1094 83.3906 25.1094C80.8297 25.1094 77.2703 21.0426 77.2487 18.0312C77.2391 16.689 77.9424 15.7265 79.3109 15.2188H80.5781C81.7413 15.2188 82.6875 14.2725 82.6875 13.1094C82.6875 11.9462 81.7413 11 80.5781 11C79.4149 11 78.4688 11.9462 78.4688 13.1094V14.0555C76.7774 14.8129 75.8401 16.2322 75.8438 18.0312C75.8509 21.5569 79.5038 25.8515 82.6875 26.4413ZM93.9375 23.7031H95.3438V25.1094H93.9375V23.7031Z" fill="white"></path></g><defs><linearGradient id="paint0_linear_1427_6057" x1="27.0793" y1="1.95115" x2="94.1567" y2="88.8918" gradientUnits="userSpaceOnUse"><stop stop-color="#02A68F"></stop><stop offset="1" stop-color="#46E760"></stop></linearGradient><clipPath id="clip0_1427_6057"><rect width="24" height="24" fill="white" transform="translate(75 11)"></rect></clipPath></defs></svg>