<svg xmlns="http://www.w3.org/2000/svg" width="117" height="98" viewBox="0 0 117 98" fill="none"><path d="M0 20.8678V47.5041C0 56.2418 5.38417 63.7311 13.0209 66.8254C15.4463 67.8161 18.0952 68.3599 20.8678 68.3599H69.2746C70.3518 71.788 71.5645 74.8078 72.8636 77.4701C81.7265 95.7635 94.4614 97.3605 94.4614 97.3605C90.0679 93.1027 87.1956 86.9632 85.3393 80.849C83.9776 76.4302 83.1358 72.0233 82.6293 68.3599H95.4268C95.7858 68.3599 96.1449 68.348 96.4905 68.3227C96.6886 68.3227 96.8868 68.2973 97.0849 68.2854C97.1713 68.2854 97.2711 68.2854 97.3576 68.2601C102.63 67.7893 107.333 65.3386 110.712 61.6751C114.178 57.9506 116.295 52.9746 116.295 47.5041V20.8678C116.295 9.34408 106.95 0 95.4268 0H20.8692C9.34557 0 0.00148672 9.34408 0.00148672 20.8678H0Z" fill="url(#paint0_linear_1427_6145)"></path><path d="M29.6205 53V43.2H33.4565C34.1565 43.2 34.7865 43.3167 35.3465 43.55C35.9158 43.7833 36.4012 44.1193 36.8025 44.558C37.2038 44.9967 37.5119 45.5147 37.7265 46.112C37.9412 46.7093 38.0485 47.372 38.0485 48.1C38.0485 48.828 37.9412 49.4953 37.7265 50.102C37.5119 50.6993 37.2038 51.2173 36.8025 51.656C36.4105 52.0853 35.9298 52.4167 35.3605 52.65C34.7912 52.8833 34.1565 53 33.4565 53H29.6205ZM31.1325 51.698L31.0905 51.544H33.3865C33.8812 51.544 34.3198 51.4647 34.7025 51.306C35.0945 51.1473 35.4212 50.9233 35.6825 50.634C35.9532 50.3353 36.1585 49.9713 36.2985 49.542C36.4385 49.1127 36.5085 48.632 36.5085 48.1C36.5085 47.568 36.4385 47.092 36.2985 46.672C36.1585 46.2427 35.9532 45.8787 35.6825 45.58C35.4118 45.2813 35.0852 45.0527 34.7025 44.894C34.3198 44.7353 33.8812 44.656 33.3865 44.656H31.0485L31.1325 44.53V51.698ZM43.4392 53.14C42.6832 53.14 42.0112 52.9813 41.4232 52.664C40.8445 52.3373 40.3872 51.894 40.0512 51.334C39.7245 50.774 39.5612 50.13 39.5612 49.402C39.5612 48.8233 39.6545 48.296 39.8412 47.82C40.0278 47.344 40.2845 46.9333 40.6112 46.588C40.9472 46.2333 41.3438 45.9627 41.8012 45.776C42.2678 45.58 42.7718 45.482 43.3132 45.482C43.7892 45.482 44.2325 45.5753 44.6432 45.762C45.0538 45.9393 45.4085 46.1867 45.7072 46.504C46.0152 46.8213 46.2485 47.1993 46.4072 47.638C46.5752 48.0673 46.6545 48.5387 46.6452 49.052L46.6312 49.668H40.6252L40.3032 48.52H45.3852L45.1752 48.758V48.422C45.1472 48.114 45.0445 47.8387 44.8672 47.596C44.6898 47.3533 44.4658 47.162 44.1952 47.022C43.9245 46.882 43.6305 46.812 43.3132 46.812C42.8092 46.812 42.3845 46.91 42.0392 47.106C41.6938 47.2927 41.4325 47.5727 41.2552 47.946C41.0778 48.31 40.9892 48.7627 40.9892 49.304C40.9892 49.8173 41.0965 50.2653 41.3112 50.648C41.5258 51.0213 41.8292 51.3107 42.2212 51.516C42.6132 51.7213 43.0658 51.824 43.5792 51.824C43.9432 51.824 44.2792 51.7633 44.5872 51.642C44.9045 51.5207 45.2452 51.3013 45.6092 50.984L46.3372 52.006C46.1132 52.23 45.8378 52.426 45.5112 52.594C45.1938 52.762 44.8532 52.8973 44.4892 53C44.1345 53.0933 43.7845 53.14 43.4392 53.14ZM50.9423 53.14C50.3263 53.14 49.771 53.0327 49.2763 52.818C48.7816 52.6033 48.371 52.286 48.0443 51.866L49.0243 51.026C49.3043 51.3527 49.6076 51.5907 49.9343 51.74C50.2703 51.88 50.6483 51.95 51.0683 51.95C51.2363 51.95 51.3903 51.9313 51.5303 51.894C51.6796 51.8473 51.8056 51.782 51.9083 51.698C52.0203 51.614 52.1043 51.516 52.1603 51.404C52.2163 51.2827 52.2443 51.152 52.2443 51.012C52.2443 50.7693 52.1556 50.5733 51.9783 50.424C51.885 50.3587 51.7356 50.2887 51.5303 50.214C51.3343 50.13 51.0776 50.046 50.7603 49.962C50.219 49.822 49.7756 49.6633 49.4303 49.486C49.085 49.3087 48.819 49.108 48.6323 48.884C48.4923 48.7067 48.3896 48.5153 48.3243 48.31C48.259 48.0953 48.2263 47.862 48.2263 47.61C48.2263 47.1993 48.343 46.8353 48.5763 46.518C48.8096 46.2007 49.1223 45.9533 49.5143 45.776C49.9156 45.5893 50.3636 45.496 50.8583 45.496C51.2036 45.496 51.5443 45.5427 51.8803 45.636C52.2256 45.7293 52.543 45.8647 52.8323 46.042C53.1216 46.2193 53.3643 46.4293 53.5603 46.672L52.7343 47.582C52.557 47.4047 52.361 47.2507 52.1463 47.12C51.941 46.98 51.731 46.8727 51.5163 46.798C51.3016 46.7233 51.1056 46.686 50.9283 46.686C50.7323 46.686 50.555 46.7047 50.3963 46.742C50.2376 46.7793 50.1023 46.8353 49.9903 46.91C49.8876 46.9847 49.8083 47.078 49.7523 47.19C49.6963 47.302 49.6683 47.428 49.6683 47.568C49.6776 47.6893 49.7056 47.806 49.7523 47.918C49.8083 48.0207 49.883 48.1093 49.9763 48.184C50.079 48.2587 50.233 48.338 50.4383 48.422C50.6436 48.506 50.905 48.5853 51.2223 48.66C51.689 48.7813 52.0716 48.9167 52.3703 49.066C52.6783 49.206 52.921 49.3693 53.0983 49.556C53.285 49.7333 53.4156 49.9387 53.4903 50.172C53.565 50.4053 53.6023 50.6667 53.6023 50.956C53.6023 51.376 53.481 51.754 53.2383 52.09C53.005 52.4167 52.6876 52.6733 52.2863 52.86C51.885 53.0467 51.437 53.14 50.9423 53.14ZM57.9215 53.14C57.3055 53.14 56.7502 53.0327 56.2555 52.818C55.7608 52.6033 55.3502 52.286 55.0235 51.866L56.0035 51.026C56.2835 51.3527 56.5868 51.5907 56.9135 51.74C57.2495 51.88 57.6275 51.95 58.0475 51.95C58.2155 51.95 58.3695 51.9313 58.5095 51.894C58.6588 51.8473 58.7848 51.782 58.8875 51.698C58.9995 51.614 59.0835 51.516 59.1395 51.404C59.1955 51.2827 59.2235 51.152 59.2235 51.012C59.2235 50.7693 59.1348 50.5733 58.9575 50.424C58.8642 50.3587 58.7148 50.2887 58.5095 50.214C58.3135 50.13 58.0568 50.046 57.7395 49.962C57.1982 49.822 56.7548 49.6633 56.4095 49.486C56.0642 49.3087 55.7982 49.108 55.6115 48.884C55.4715 48.7067 55.3688 48.5153 55.3035 48.31C55.2382 48.0953 55.2055 47.862 55.2055 47.61C55.2055 47.1993 55.3222 46.8353 55.5555 46.518C55.7888 46.2007 56.1015 45.9533 56.4935 45.776C56.8948 45.5893 57.3428 45.496 57.8375 45.496C58.1828 45.496 58.5235 45.5427 58.8595 45.636C59.2048 45.7293 59.5222 45.8647 59.8115 46.042C60.1008 46.2193 60.3435 46.4293 60.5395 46.672L59.7135 47.582C59.5362 47.4047 59.3402 47.2507 59.1255 47.12C58.9202 46.98 58.7102 46.8727 58.4955 46.798C58.2808 46.7233 58.0848 46.686 57.9075 46.686C57.7115 46.686 57.5342 46.7047 57.3755 46.742C57.2168 46.7793 57.0815 46.8353 56.9695 46.91C56.8668 46.9847 56.7875 47.078 56.7315 47.19C56.6755 47.302 56.6475 47.428 56.6475 47.568C56.6568 47.6893 56.6848 47.806 56.7315 47.918C56.7875 48.0207 56.8622 48.1093 56.9555 48.184C57.0582 48.2587 57.2122 48.338 57.4175 48.422C57.6228 48.506 57.8842 48.5853 58.2015 48.66C58.6682 48.7813 59.0508 48.9167 59.3495 49.066C59.6575 49.206 59.9002 49.3693 60.0775 49.556C60.2642 49.7333 60.3948 49.9387 60.4695 50.172C60.5442 50.4053 60.5815 50.6667 60.5815 50.956C60.5815 51.376 60.4602 51.754 60.2175 52.09C59.9842 52.4167 59.6668 52.6733 59.2655 52.86C58.8642 53.0467 58.4162 53.14 57.9215 53.14ZM65.8807 53.14C65.1247 53.14 64.4527 52.9813 63.8647 52.664C63.2861 52.3373 62.8287 51.894 62.4927 51.334C62.1661 50.774 62.0027 50.13 62.0027 49.402C62.0027 48.8233 62.0961 48.296 62.2827 47.82C62.4694 47.344 62.7261 46.9333 63.0527 46.588C63.3887 46.2333 63.7854 45.9627 64.2427 45.776C64.7094 45.58 65.2134 45.482 65.7547 45.482C66.2307 45.482 66.6741 45.5753 67.0847 45.762C67.4954 45.9393 67.8501 46.1867 68.1487 46.504C68.4567 46.8213 68.6901 47.1993 68.8487 47.638C69.0167 48.0673 69.0961 48.5387 69.0867 49.052L69.0727 49.668H63.0667L62.7447 48.52H67.8267L67.6167 48.758V48.422C67.5887 48.114 67.4861 47.8387 67.3087 47.596C67.1314 47.3533 66.9074 47.162 66.6367 47.022C66.3661 46.882 66.0721 46.812 65.7547 46.812C65.2507 46.812 64.8261 46.91 64.4807 47.106C64.1354 47.2927 63.8741 47.5727 63.6967 47.946C63.5194 48.31 63.4307 48.7627 63.4307 49.304C63.4307 49.8173 63.5381 50.2653 63.7527 50.648C63.9674 51.0213 64.2707 51.3107 64.6627 51.516C65.0547 51.7213 65.5074 51.824 66.0207 51.824C66.3847 51.824 66.7207 51.7633 67.0287 51.642C67.3461 51.5207 67.6867 51.3013 68.0507 50.984L68.7787 52.006C68.5547 52.23 68.2794 52.426 67.9527 52.594C67.6354 52.762 67.2947 52.8973 66.9307 53C66.5761 53.0933 66.2261 53.14 65.8807 53.14ZM70.9339 53V45.65H72.3899V47.96L72.2499 47.4C72.3525 47.0453 72.5252 46.7233 72.7679 46.434C73.0199 46.1447 73.3045 45.916 73.6219 45.748C73.9485 45.58 74.2845 45.496 74.6299 45.496C74.7885 45.496 74.9379 45.51 75.0779 45.538C75.2272 45.566 75.3439 45.5987 75.4279 45.636L75.0499 47.204C74.9379 47.1573 74.8119 47.12 74.6719 47.092C74.5412 47.0547 74.4105 47.036 74.2799 47.036C74.0279 47.036 73.7852 47.0873 73.5519 47.19C73.3279 47.2833 73.1272 47.4187 72.9499 47.596C72.7819 47.764 72.6465 47.9647 72.5439 48.198C72.4412 48.422 72.3899 48.6693 72.3899 48.94V53H70.9339ZM78.0438 53V43.774H79.4858V53H78.0438ZM76.5178 47.05V45.65H81.1938V47.05H76.5178ZM85.5103 53.14C84.8943 53.14 84.3389 53.0327 83.8443 52.818C83.3496 52.6033 82.9389 52.286 82.6123 51.866L83.5923 51.026C83.8723 51.3527 84.1756 51.5907 84.5023 51.74C84.8383 51.88 85.2163 51.95 85.6363 51.95C85.8043 51.95 85.9583 51.9313 86.0983 51.894C86.2476 51.8473 86.3736 51.782 86.4763 51.698C86.5883 51.614 86.6723 51.516 86.7283 51.404C86.7843 51.2827 86.8123 51.152 86.8123 51.012C86.8123 50.7693 86.7236 50.5733 86.5463 50.424C86.4529 50.3587 86.3036 50.2887 86.0983 50.214C85.9023 50.13 85.6456 50.046 85.3283 49.962C84.7869 49.822 84.3436 49.6633 83.9983 49.486C83.6529 49.3087 83.3869 49.108 83.2003 48.884C83.0603 48.7067 82.9576 48.5153 82.8923 48.31C82.8269 48.0953 82.7943 47.862 82.7943 47.61C82.7943 47.1993 82.9109 46.8353 83.1443 46.518C83.3776 46.2007 83.6903 45.9533 84.0823 45.776C84.4836 45.5893 84.9316 45.496 85.4263 45.496C85.7716 45.496 86.1123 45.5427 86.4483 45.636C86.7936 45.7293 87.1109 45.8647 87.4003 46.042C87.6896 46.2193 87.9323 46.4293 88.1283 46.672L87.3023 47.582C87.1249 47.4047 86.9289 47.2507 86.7143 47.12C86.5089 46.98 86.2989 46.8727 86.0843 46.798C85.8696 46.7233 85.6736 46.686 85.4963 46.686C85.3003 46.686 85.1229 46.7047 84.9643 46.742C84.8056 46.7793 84.6703 46.8353 84.5583 46.91C84.4556 46.9847 84.3763 47.078 84.3203 47.19C84.2643 47.302 84.2363 47.428 84.2363 47.568C84.2456 47.6893 84.2736 47.806 84.3203 47.918C84.3763 48.0207 84.4509 48.1093 84.5443 48.184C84.6469 48.2587 84.8009 48.338 85.0063 48.422C85.2116 48.506 85.4729 48.5853 85.7903 48.66C86.2569 48.7813 86.6396 48.9167 86.9383 49.066C87.2463 49.206 87.4889 49.3693 87.6663 49.556C87.8529 49.7333 87.9836 49.9387 88.0583 50.172C88.1329 50.4053 88.1703 50.6667 88.1703 50.956C88.1703 51.376 88.0489 51.754 87.8063 52.09C87.5729 52.4167 87.2556 52.6733 86.8543 52.86C86.4529 53.0467 86.0049 53.14 85.5103 53.14Z" fill="white"></path><g clip-path="url(#clip0_1427_6145)"><path d="M66.6177 27.7724C66.5006 27.8415 66.3773 27.8983 66.25 27.9433V34C66.7479 33.8604 67.5121 33.5824 68.2202 33.0003C69.4012 32.0296 70 30.6055 70 28.7676V24.3477C69.7333 24.7835 69.43 25.2045 69.0907 25.6078C67.9669 26.9434 66.8335 27.6453 66.6177 27.7724Z" fill="white"></path><path d="M62.7343 28.0645C62.7343 28.5033 62.6332 28.9189 62.4531 29.2894L64.8437 30.122V27.9439L62.7343 27.2093V28.0645Z" fill="white"></path><path d="M57.1094 25.2503L46 21.3813V23.5594L57.1094 27.4284V25.2503Z" fill="white"></path><path d="M59.9219 30.877C58.6878 30.877 57.6376 30.0777 57.2597 28.9699L46 25.0485V26.8926C46 27.1918 46.1893 27.4582 46.4718 27.5566L64.8438 33.9548V31.6111L61.4446 30.4273C61.0053 30.7113 60.4827 30.877 59.9219 30.877Z" fill="white"></path><path d="M54.0625 15.8594C54.0625 17.5394 55.4293 18.9063 57.1094 18.9063C58.7894 18.9063 60.1562 17.5394 60.1562 15.8594C60.1562 14.4024 59.128 13.1816 57.7592 12.883C57.5625 11.7197 56.8288 10.7144 55.7467 10.1733L55.5488 10.0744C55.2016 9.90077 54.7792 10.0415 54.6055 10.3888C54.4318 10.7361 54.5725 11.1585 54.9199 11.3321L55.1178 11.4311C55.7277 11.7361 56.16 12.2776 56.3282 12.9145C55.0255 13.2603 54.0625 14.4493 54.0625 15.8594Z" fill="white"></path><path d="M70 19.3926C70 19.1985 69.9535 14.6107 65.9038 12.2244C65.7255 12.1193 65.51 12.0981 65.3146 12.1665C64.7237 12.3733 63.0807 12.9455 60.9881 13.6739C61.3535 14.32 61.5625 15.0657 61.5625 15.8594C61.5625 18.3148 59.5648 20.3125 57.1094 20.3125C54.8905 20.3125 53.0455 18.6811 52.7107 16.5548C49.8349 17.5558 47.3887 18.4077 46.4709 18.729C46.1886 18.8277 45.9998 19.0942 46 19.3932C46.0002 19.6922 46.1895 19.9583 46.4718 20.0566L58.5156 24.2509V28.0645C58.5156 28.8411 59.1452 29.4707 59.9219 29.4707C60.6985 29.4707 61.3281 28.8411 61.3281 28.0645V25.2304L65.3156 26.6191C65.3908 26.6453 65.4689 26.6582 65.5468 26.6582C65.671 26.6582 65.7945 26.6253 65.9038 26.5608C66.0711 26.4623 70 24.093 70 19.3926ZM62.5 19.8614C62.1117 19.8614 61.7969 19.5466 61.7969 19.1582C61.7969 18.7699 62.1117 18.4551 62.5 18.4551C62.8883 18.4551 63.2031 18.7699 63.2031 19.1582C63.2031 19.5466 62.8883 19.8614 62.5 19.8614ZM63.9062 23.1426C63.5179 23.1426 63.2031 22.8278 63.2031 22.4395C63.2031 22.0512 63.5179 21.7364 63.9062 21.7364C64.2946 21.7364 64.6094 22.0512 64.6094 22.4395C64.6094 22.8278 64.2946 23.1426 63.9062 23.1426ZM65.3125 17.0489C64.9242 17.0489 64.6094 16.7341 64.6094 16.3457C64.6094 15.9574 64.9242 15.6426 65.3125 15.6426C65.7008 15.6426 66.0156 15.9574 66.0156 16.3457C66.0156 16.7341 65.7008 17.0489 65.3125 17.0489ZM66.25 20.3301C65.8617 20.3301 65.5469 20.0153 65.5469 19.627C65.5469 19.2387 65.8617 18.9239 66.25 18.9239C66.6383 18.9239 66.9531 19.2387 66.9531 19.627C66.9531 20.0153 66.6383 20.3301 66.25 20.3301Z" fill="white"></path></g><defs><linearGradient id="paint0_linear_1427_6145" x1="52.504" y1="106.814" x2="60.5503" y2="8.52879" gradientUnits="userSpaceOnUse"><stop stop-color="#FD3A84"></stop><stop offset="1" stop-color="#FF8B6A"></stop></linearGradient><clipPath id="clip0_1427_6145"><rect width="24" height="24" fill="white" transform="translate(46 10)"></rect></clipPath></defs></svg>