<svg xmlns="http://www.w3.org/2000/svg" width="487" height="348" viewBox="0 0 487 348" fill="none"><path opacity="0.5" d="M421.788 341.593C432.094 350.136 37.9064 350.136 48.2158 341.593C37.9105 333.051 432.098 333.051 421.788 341.593Z" fill="#9ADEE5"></path><path d="M326.326 62.2651H173.592C167.705 62.2651 162.933 67.0366 162.933 72.9226V330.936C162.933 336.822 167.705 341.593 173.592 341.593H326.326C332.213 341.593 336.985 336.822 336.985 330.936V72.9226C336.985 67.0366 332.213 62.2651 326.326 62.2651Z" fill="#318462"></path><path d="M319.147 74.2039H180.767C176.353 74.2039 172.774 77.782 172.774 82.1959V321.662C172.774 326.076 176.353 329.654 180.767 329.654H319.147C323.561 329.654 327.139 326.076 327.139 321.662V82.1959C327.139 77.782 323.561 74.2039 319.147 74.2039Z" fill="#E4F7ED"></path><path d="M282.735 151H195.939C193.763 151 192 152.764 192 154.939V241.726C192 243.901 193.763 245.665 195.939 245.665H282.735C284.91 245.665 286.673 243.901 286.673 241.726V154.939C286.673 152.764 284.91 151 282.735 151Z" fill="#B7E2CA"></path><g clip-path="url(#clip0_1201_5994)"><path d="M242.302 187.159H251.236C252.16 197.218 253.083 207.255 254.007 217.309H247.871C247.378 211.73 246.885 206.14 246.387 200.532C246.285 200.527 246.2 200.51 246.12 200.51C245.197 200.51 244.273 200.51 243.356 200.51C243.157 200.51 243.055 200.549 242.987 200.751C242.041 203.695 241.089 206.633 240.132 209.577C239.594 211.225 239.044 212.874 238.478 214.578C238.404 214.349 238.347 214.169 238.285 213.984C237.498 211.601 236.704 209.224 235.911 206.84C235.243 204.822 234.563 202.803 233.906 200.785C233.838 200.577 233.758 200.504 233.532 200.504C232.62 200.521 231.708 200.504 230.795 200.51C230.699 200.51 230.608 200.521 230.495 200.527C230.019 206.128 229.543 211.713 229.067 217.315H223C223.793 207.267 224.58 197.235 225.379 187.159C228.161 187.159 230.926 187.159 233.69 187.159C233.906 187.159 234.121 187.159 234.336 187.159H242.308H242.302ZM242.959 188.841C242.965 188.224 242.427 187.68 241.803 187.686C241.237 187.686 240.676 188.236 240.659 188.807C240.642 189.374 241.22 189.963 241.803 189.963C242.41 189.963 242.953 189.441 242.959 188.841ZM235.373 188.841C235.441 188.241 234.875 187.697 234.263 187.686C233.645 187.68 233.118 188.213 233.113 188.824C233.113 189.43 233.639 189.963 234.257 189.968C234.846 189.974 235.367 189.447 235.373 188.841Z" fill="#039D55"></path><path d="M232.561 203.409C234.068 207.984 235.598 212.644 237.133 217.32H231.553C231.893 212.644 232.227 207.979 232.561 203.409Z" fill="#039D55"></path><path d="M244.314 203.504C244.637 207.973 244.971 212.638 245.306 217.315H239.793C241.317 212.655 242.847 207.984 244.314 203.504Z" fill="#039D55"></path><path d="M242.299 187.159C242.079 187.159 241.858 187.159 241.631 187.159C241.659 185.863 241.535 184.579 241.24 183.318C241.025 182.404 240.719 181.529 240.158 180.761C238.917 179.079 236.634 179.123 235.512 180.884C235.201 181.378 234.968 181.938 234.793 182.499C234.323 184.013 234.266 185.583 234.328 187.153C234.113 187.153 233.898 187.153 233.682 187.153C233.614 185.46 233.711 183.783 234.215 182.151C234.487 181.271 234.872 180.452 235.563 179.807C236.113 179.297 236.725 178.944 237.518 179.017C237.637 179.028 237.756 179.028 237.869 179.017C239.285 178.871 240.198 179.622 240.894 180.71C241.552 181.731 241.875 182.875 242.039 184.052C242.181 185.078 242.214 186.121 242.294 187.153L242.299 187.159Z" fill="#039D55"></path><path d="M242.961 188.84C242.956 189.44 242.412 189.967 241.806 189.962C241.222 189.962 240.644 189.373 240.661 188.807C240.678 188.235 241.239 187.685 241.806 187.685C242.429 187.685 242.967 188.224 242.961 188.84ZM241.8 189.726C242.321 189.726 242.723 189.351 242.735 188.84C242.746 188.33 242.35 187.926 241.834 187.921C241.318 187.921 240.911 188.302 240.899 188.807C240.894 189.317 241.29 189.721 241.8 189.726Z" fill="#039D55"></path><path d="M235.378 188.837C235.378 189.442 234.857 189.969 234.262 189.964C233.645 189.958 233.112 189.431 233.118 188.82C233.118 188.209 233.65 187.676 234.268 187.681C234.88 187.687 235.446 188.231 235.378 188.837ZM234.245 189.722C234.766 189.722 235.169 189.347 235.18 188.837C235.191 188.332 234.789 187.928 234.279 187.917C233.764 187.911 233.361 188.293 233.35 188.803C233.339 189.313 233.73 189.717 234.245 189.717V189.722Z" fill="#039D55"></path></g><path d="M202.125 48.0305H115.814C113.65 48.0305 111.896 49.7847 111.896 51.9485V138.251C111.896 140.415 113.65 142.169 115.814 142.169H202.125C204.289 142.169 206.043 140.415 206.043 138.251V51.9485C206.043 49.7847 204.289 48.0305 202.125 48.0305Z" fill="#B7E2CA"></path><path d="M158.741 84.3752L161.241 81.8752H143.375C143.12 81.8752 142.75 82.3622 142.75 83.1252C142.75 83.8883 143.12 84.3752 143.375 84.3752H158.741Z" fill="#039D55"></path><path d="M161.665 89.2054C161.159 89.5992 160.531 89.8038 159.89 89.7838C159.248 89.7638 158.634 89.5206 158.154 89.096C157.673 88.6714 157.355 88.0923 157.256 87.4586C157.157 86.8248 157.282 86.1764 157.61 85.6252H144.467L141.553 95.4902C141.518 95.6351 141.5 95.7838 141.5 95.933V113.125H162.125V95.933C162.125 95.6775 162.156 95.423 162.218 95.1752C162.22 95.1667 162.223 95.1581 162.225 95.1495L164.672 86.8666L161.665 89.2054ZM151.5 98.1252H151.499C151.499 98.2222 151.477 98.3179 151.434 98.4048L150.261 100.752L150.778 107.992C150.796 108.248 150.761 108.506 150.676 108.749C150.59 108.992 150.455 109.215 150.28 109.403C150.104 109.591 149.892 109.742 149.656 109.844C149.42 109.947 149.165 110 148.908 110H147.843C147.585 110 147.33 109.947 147.094 109.844C146.858 109.742 146.646 109.591 146.47 109.403C146.295 109.215 146.16 108.992 146.074 108.749C145.989 108.506 145.954 108.248 145.972 107.992L146.489 100.752L145.316 98.4048C145.273 98.3179 145.251 98.2222 145.251 98.1252H145.25V95.6252C145.25 95.4595 145.316 95.3005 145.433 95.1833C145.55 95.0661 145.709 95.0002 145.875 95.0002C146.041 95.0002 146.2 95.0661 146.317 95.1833C146.434 95.3005 146.5 95.4595 146.5 95.6252V97.5002H147.75V95.6252C147.75 95.4595 147.816 95.3005 147.933 95.1833C148.05 95.0661 148.209 95.0002 148.375 95.0002C148.541 95.0002 148.7 95.0661 148.817 95.1833C148.934 95.3005 149 95.4595 149 95.6252V97.5002H150.25V95.6252C150.25 95.4595 150.316 95.3005 150.433 95.1833C150.55 95.0661 150.709 95.0002 150.875 95.0002C151.041 95.0002 151.2 95.0661 151.317 95.1833C151.434 95.3005 151.5 95.4595 151.5 95.6252V98.1252ZM157.134 109.383C156.958 109.577 156.743 109.732 156.504 109.839C156.265 109.945 156.005 110 155.743 110H154.756C154.494 110 154.235 109.945 153.996 109.839C153.756 109.733 153.542 109.578 153.366 109.383C153.19 109.189 153.057 108.96 152.975 108.711C152.893 108.463 152.865 108.199 152.891 107.939L153.375 103.094V102.886L152.471 102.434C152.36 102.378 152.268 102.291 152.206 102.183C152.145 102.075 152.117 101.952 152.127 101.828C152.148 101.55 152.683 95.0002 156.5 95.0002C156.666 95.0002 156.825 95.0661 156.942 95.1833C157.059 95.3005 157.125 95.4595 157.125 95.6252V103.094L157.609 107.938C157.635 108.199 157.606 108.462 157.525 108.711C157.443 108.96 157.31 109.189 157.134 109.383Z" fill="#039D55"></path><path d="M172.75 76.8752H176.5V83.7502H172.75V76.8752Z" fill="#039D55"></path><path d="M157.433 78.3849L153.326 80.6252H162.75C162.874 80.6252 162.995 80.6619 163.097 80.7306C163.2 80.7992 163.28 80.8969 163.327 81.0111C163.375 81.1253 163.387 81.2509 163.363 81.3722C163.339 81.4934 163.279 81.6048 163.192 81.6922L158.913 85.971C158.643 86.2413 158.486 86.6044 158.474 86.9866C158.462 87.3687 158.596 87.741 158.849 88.0277C159.102 88.3143 159.455 88.4936 159.835 88.5291C160.216 88.5646 160.596 88.4536 160.898 88.2188L164.798 85.185C164.952 85.0656 165.142 85.0006 165.337 85.0002H166.873C167.437 84.9996 167.978 84.7753 168.376 84.3765C168.775 83.9777 168.999 83.4371 169 82.8731C169 82.6086 169.106 82.3549 169.293 82.1679C169.48 81.9808 169.733 81.8756 169.998 81.8752H171.5V78.1252H158.452C158.096 78.1255 157.746 78.2148 157.433 78.3849Z" fill="#039D55"></path><path d="M149.043 101.25H147.707L147.219 108.081C147.213 108.166 147.224 108.252 147.253 108.333C147.281 108.414 147.326 108.488 147.385 108.551C147.443 108.614 147.514 108.664 147.593 108.698C147.672 108.733 147.756 108.75 147.842 108.75H148.907C148.993 108.75 149.078 108.733 149.157 108.698C149.235 108.664 149.306 108.614 149.365 108.551C149.423 108.488 149.468 108.414 149.497 108.333C149.525 108.252 149.537 108.166 149.531 108.081L149.043 101.25Z" fill="#039D55"></path><path d="M154.625 102.5H155.875V96.3643C155.105 96.6578 154.474 97.5175 153.993 98.9309C153.719 99.7702 153.526 100.634 153.418 101.511L154.28 101.941C154.383 101.993 154.471 102.073 154.532 102.172C154.593 102.271 154.625 102.384 154.625 102.5Z" fill="#039D55"></path><path d="M147.511 100H149.239L149.864 98.7502H146.886L147.511 100Z" fill="#039D55"></path><path d="M164.259 113.125H167.491L165.875 111.509L164.259 113.125Z" fill="#039D55"></path><path d="M155.934 103.75H154.566L154.134 108.063C154.126 108.15 154.135 108.237 154.162 108.32C154.19 108.403 154.234 108.48 154.293 108.545C154.351 108.609 154.423 108.661 154.503 108.697C154.583 108.732 154.669 108.75 154.756 108.75H155.744C155.831 108.75 155.918 108.732 155.997 108.697C156.077 108.661 156.149 108.609 156.207 108.545C156.266 108.48 156.31 108.403 156.338 108.32C156.365 108.237 156.374 108.15 156.366 108.063L155.934 103.75Z" fill="#039D55"></path><path d="M163.428 95.4901C163.393 95.635 163.375 95.7837 163.375 95.9329V112.241L165.25 110.366V96.8751C165.25 96.7094 165.316 96.5504 165.433 96.4332C165.55 96.316 165.709 96.2501 165.875 96.2501C166.041 96.2501 166.2 96.316 166.317 96.4332C166.434 96.5504 166.5 96.7094 166.5 96.8751V110.366L168.375 112.241V95.9851C168.375 95.8061 168.349 95.628 168.299 95.4563L165.874 87.2107L163.428 95.4901Z" fill="#039D55"></path><path d="M409.737 82.6108H301.329C298.611 82.6108 296.408 84.8136 296.408 87.5309V195.929C296.408 198.646 298.611 200.849 301.329 200.849H409.737C412.455 200.849 414.658 198.646 414.658 195.929V87.5309C414.658 84.8136 412.455 82.6108 409.737 82.6108Z" fill="#B7E2CA"></path><g clip-path="url(#clip1_1201_5994)"><path d="M372 126H370V124C370 122.8 369.2 122 368 122C366.8 122 366 122.8 366 124V126H346V124C346 122.8 345.2 122 344 122C342.8 122 342 122.8 342 124V126H338C337 126 336 126.8 336 128V156C336 157.2 337 158 338 158H350.2C348.8 155.6 348 152.8 348 150C348 141.2 355.2 134 364 134C367.8 134 371.2 135.4 374 137.6V128C374 127 373 126 372 126Z" fill="#039D55"></path><path d="M364 138C357.4 138 352 143.4 352 150C352 156.6 357.4 162 364 162C370.6 162 376 156.6 376 150C376 143.4 370.6 138 364 138ZM368 152H364C362.8 152 362 151.2 362 150V144C362 142.8 362.8 142 364 142C365.2 142 366 142.8 366 144V148H368C369.2 148 370 148.8 370 150C370 151.2 369.2 152 368 152Z" fill="#039D55"></path></g><path d="M215.88 254.568H145.514C143.749 254.568 142.318 255.998 142.318 257.763V328.123C142.318 329.887 143.749 331.318 145.514 331.318H215.88C217.645 331.318 219.076 329.887 219.076 328.123V257.763C219.076 255.998 217.645 254.568 215.88 254.568Z" fill="#B7E2CA"></path><g clip-path="url(#clip2_1201_5994)"><path fill-rule="evenodd" clip-rule="evenodd" d="M166.33 267.453C168.226 267.453 169.763 268.533 169.763 271.025C169.763 273.516 168.226 275.536 166.33 275.536C164.435 275.536 162.898 273.516 162.898 271.025C162.898 268.533 164.435 267.453 166.33 267.453ZM174.288 280.809C174.288 280.211 174.776 279.723 175.374 279.723H178.387L178.387 283.313C178.387 283.373 178.398 283.435 178.419 283.495C178.52 283.777 178.83 283.925 179.113 283.824L180.974 283.157L182.682 283.805C182.752 283.838 182.829 283.856 182.911 283.856C183.211 283.856 183.454 283.613 183.454 283.313V279.723H186.467C187.065 279.723 187.553 280.211 187.553 280.809V291.902C187.553 292.5 187.065 292.988 186.467 292.988H175.374C174.776 292.988 174.288 292.5 174.288 291.902V289.834H177.161C178.675 289.834 179.909 288.6 179.909 287.086C179.909 285.572 178.675 284.337 177.161 284.337H174.288L174.288 280.809ZM179.473 279.723V282.542L180.796 282.069L180.796 282.07C180.913 282.028 181.044 282.026 181.169 282.073L182.368 282.527V279.723L179.473 279.723ZM180.016 267.453C179.418 267.453 178.93 267.941 178.93 268.539V278.637H186.467C187.665 278.637 188.639 279.611 188.639 280.809V291.902C188.639 293.099 187.665 294.074 186.467 294.074H178.93V305.462C178.93 306.06 179.418 306.548 180.016 306.548H199.461C200.06 306.548 200.547 306.06 200.547 305.462V268.539C200.547 267.941 200.06 267.453 199.461 267.453H180.016ZM194.293 284.177V282.439C194.293 282.139 194.536 281.896 194.836 281.896H198.257C198.556 281.896 198.8 282.139 198.8 282.439V291.561C198.8 291.861 198.556 292.104 198.257 292.104H194.836C194.536 292.104 194.293 291.861 194.293 291.561V287.05H191.939C191.15 287.05 190.502 286.402 190.502 285.614C190.502 284.823 191.15 284.177 191.939 284.177L194.293 284.177ZM195.379 287.05H195.76C196.549 287.05 197.197 286.402 197.197 285.613C197.197 284.825 196.549 284.177 195.76 284.177H195.379V282.982H197.714V291.018H195.379V287.05ZM195.76 285.263C195.857 285.263 195.945 285.302 196.009 285.365C196.072 285.429 196.111 285.517 196.111 285.614C196.111 285.71 196.072 285.798 196.009 285.862C195.945 285.925 195.857 285.964 195.76 285.964H194.836H191.939C191.744 285.964 191.588 285.808 191.588 285.613C191.588 285.42 191.746 285.263 191.939 285.263H194.836H195.76ZM166.432 278.922C165.538 279.117 164.966 280.007 165.16 280.901L166.566 287.366C166.744 288.182 167.447 288.748 168.282 288.748H177.161C178.075 288.748 178.824 288 178.824 287.085C178.824 286.171 178.075 285.423 177.161 285.423H170.413C169.902 285.423 169.472 285.076 169.364 284.578L168.41 280.194C168.216 279.3 167.326 278.728 166.432 278.922ZM169.196 293.252V305.462C169.196 306.06 168.708 306.548 168.11 306.548H164.551C163.953 306.548 163.465 306.06 163.465 305.462V293.252H169.196ZM170.484 292.166H162.176C161.778 292.166 161.453 291.841 161.453 291.442V280.414C161.453 278.2 163.263 276.39 165.477 276.39H167.184C169.397 276.39 171.208 278.201 171.208 280.414V284.337H170.423L169.471 279.963C169.151 278.49 167.675 277.541 166.201 277.861C164.728 278.181 163.779 279.658 164.099 281.131L165.505 287.596C165.791 288.912 166.937 289.834 168.282 289.834H171.208V291.442C171.208 291.841 170.883 292.166 170.484 292.166Z" fill="#039D55"></path></g><g opacity="0.5"><path d="M91.9012 264.059H50.1133C48.065 264.059 46.4044 265.719 46.4044 267.767V337.519C46.4044 339.568 48.065 341.228 50.1133 341.228H91.9012C93.9495 341.228 95.6101 339.568 95.6101 337.519V267.767C95.6101 265.719 93.9495 264.059 91.9012 264.059Z" fill="#7FBA9C"></path><path d="M97.9718 292.109H124.571C125.873 292.109 126.932 293.165 126.932 294.471V338.866C126.932 340.168 125.877 341.228 124.571 341.228H97.9718C96.6697 341.228 95.6101 340.172 95.6101 338.866V294.471C95.6101 293.169 96.6656 292.109 97.9718 292.109Z" fill="#7FBA9C"></path><path d="M120.192 271.825C95.3924 272.716 102.026 266.112 101.126 290.889C101.126 291.563 101.672 292.109 102.346 292.109H120.192C120.866 292.109 121.412 291.563 121.412 290.889V273.045C121.412 272.371 120.866 271.825 120.192 271.825Z" fill="#7FBA9C"></path></g><g opacity="0.8"><path opacity="0.8" d="M408.423 319.108C399.716 315.551 388.445 313.186 383.857 303.58C382.005 299.378 383.204 294.963 382.079 290.688C381.089 286.93 379.721 283.308 377.926 279.862C376.07 276.297 373.343 271.981 379.614 273.64C416.88 281.341 389.488 291.817 406.957 295.937C410.99 298.261 405.224 309.629 409.507 316.286C413.796 322.94 408.427 319.112 408.423 319.108Z" fill="#7FBA9C"></path><path d="M404.92 311.149C385.41 303.493 397.991 289.23 387.303 280.95C388.018 281.258 388.692 281.694 389.25 282.232C397.399 293.041 387.776 302.984 404.92 311.149Z" fill="white"></path><path opacity="0.8" d="M403.885 322.077C411.426 320.755 421.201 320.595 426.327 313.761C428.537 310.693 428.323 306.927 429.962 303.678C431.404 300.82 433.12 298.138 435.158 295.666C437.265 293.111 440.197 290.101 434.862 290.363C403.523 290.207 423.801 303.325 409.027 303.658C405.38 304.844 408.086 314.989 403.494 319.617C398.906 324.246 403.885 322.077 403.885 322.077Z" fill="#7FBA9C"></path><path d="M412.949 311.149C422.347 309.305 420.536 297.025 429.982 294.134C420.688 298.364 422.934 310.134 412.949 311.149Z" fill="white"></path><path d="M398.007 301.341C399.88 290.056 411.799 287.62 408.271 271.574C407.277 266.424 403.926 243.578 415.627 251.537C423.772 257.077 414.292 274.687 425.062 277.164C432.821 278.946 422.347 288.191 420.905 290.327C418.806 293.436 419.172 297.805 419.706 301.341C420.84 308.837 419.985 312.262 416.272 311.978C412.559 311.691 398.574 314.401 397.999 301.341H398.007Z" fill="#7FBA9C"></path><path d="M410.239 306.467C408.341 303.875 409.24 300.298 410.284 297.53C411.951 293.029 416.342 290.129 418.001 285.715C418.17 285.09 418.047 284.421 417.858 283.817C415.985 279.32 413.414 274.901 413.59 269.837C413.204 265.471 414.752 260.666 412.958 256.572C414.67 259.36 413.849 263.34 414.05 266.478C413.578 272.593 415.685 277.87 418.359 283.217C419.969 287.686 414.867 290.787 412.793 294.146C410.382 297.514 407.971 302.495 410.243 306.467H410.239Z" fill="white"></path><path d="M404.92 311.149C404.92 311.149 407.528 315.116 407.335 316.923C407.142 318.73 411.171 316.923 411.171 316.923C416.79 306.902 418.194 309.399 404.92 311.149Z" fill="#7FBA9C"></path><path d="M426.992 323.272C425.222 352.834 381.298 343.183 392.014 315.638H425.329C426.397 317.962 426.992 320.55 426.992 323.272Z" fill="#449371"></path></g><path d="M404.843 331.972C404.843 331.972 404.884 335.152 404.827 336.741C404.801 337.441 412.205 340.848 413.781 336.068L412.78 332.247L406.626 330.051L404.843 331.972Z" fill="url(#paint0_linear_1201_5994)"></path><path d="M390.046 344.793C407.352 345.648 415.372 344.219 415.372 344.219C415.792 339.439 413.781 336.068 413.781 336.068C413.874 336.224 412.93 336.933 412.811 337.011C412.386 337.29 411.909 337.487 411.416 337.622C409.617 338.124 408.083 337.539 406.362 337.073C402.784 336.099 398.74 335.229 395.153 336.617C392.929 337.477 391.327 339.268 390.57 341.511C390.508 341.692 389.818 344.783 390.046 344.793Z" fill="url(#paint1_linear_1201_5994)"></path><path d="M423.714 331.972C423.714 331.972 423.755 335.152 423.698 336.741C423.672 337.441 431.076 340.848 432.652 336.068L431.651 332.247L425.497 330.051L423.714 331.972Z" fill="url(#paint2_linear_1201_5994)"></path><path d="M408.917 344.793C426.223 345.648 434.243 344.219 434.243 344.219C434.663 339.439 432.652 336.068 432.652 336.068C432.745 336.224 431.801 336.933 431.682 337.011C431.257 337.29 430.78 337.487 430.288 337.622C428.489 338.124 426.954 337.539 425.233 337.073C421.656 336.099 417.612 335.229 414.024 336.617C411.8 337.477 410.198 339.268 409.441 341.511C409.379 341.692 408.689 344.783 408.917 344.793Z" fill="url(#paint3_linear_1201_5994)"></path><path d="M392.052 174.514C392.13 175.913 392.555 177.264 392.856 178.621C393.307 180.661 393.851 182.675 394.427 184.684C394.66 185.487 397.019 190.955 396.589 191.644C396.589 191.649 396.584 191.654 396.578 191.654L398.637 194.735L400.337 187.843C400.337 187.843 400.254 187.387 400.13 186.673C399.679 184.094 398.637 178.124 398.637 177.678C398.637 177.109 402.038 173.562 402.038 173.562L406.636 176.928C405.516 174.017 398.59 156.096 398.357 155.485C398.481 155.873 397.921 157.085 397.823 157.447C397.372 159.089 396.91 160.725 396.412 162.356C395.547 165.199 394.567 168.021 393.286 170.709C392.643 172.055 391.975 172.992 392.058 174.52L392.052 174.514Z" fill="url(#paint4_linear_1201_5994)"></path><path d="M411.976 271.999C411.789 273.133 411.857 274.287 412.183 275.39C418.016 295.378 412.982 332.956 412.982 332.956C408.176 335.778 404.837 333.283 404.837 333.283C403.375 310.581 399.45 306.967 395.163 261.932C392.114 229.926 393.68 211.859 394.842 204.087C395.313 200.923 395.718 199.462 395.718 199.462L407.626 195.02C407.626 195.02 408.134 195.532 408.938 196.469C411.079 198.981 415.294 204.537 417.311 211.486C417.897 213.501 418.301 215.634 418.41 217.845C418.975 228.978 413.35 263.719 411.976 272.004V271.999Z" fill="url(#paint5_linear_1201_5994)"></path><path style="mix-blend-mode:multiply" opacity="0.5" d="M418.591 215.308C419.099 225.343 414.029 256.656 412.79 264.123C413.936 256.361 413.168 225.297 406.584 211.554C400 197.811 397.739 203.429 397.739 203.429L397.345 202.911C397.771 200.058 398.134 198.743 398.134 198.743L408.87 194.74C408.87 194.74 409.332 195.201 410.053 196.045L417.601 209.581C418.13 211.398 418.493 213.32 418.591 215.313V215.308Z" fill="url(#paint6_linear_1201_5994)"></path><path d="M432.828 95.9143C432.755 95.8832 432.678 95.8522 432.605 95.8211C418.83 90.2338 406.652 97.9701 405.532 112.666C405.288 115.856 403.795 134.357 408.57 134.906C412.692 135.377 413.298 129.816 435.762 135.243C445.893 137.692 450.491 127.185 446.655 118.631C445.706 116.518 444.436 114.566 443.529 112.438C440.667 105.743 440.314 99.073 432.828 95.9143Z" fill="url(#paint7_linear_1201_5994)"></path><path d="M430.837 271.999C430.65 273.133 430.718 274.288 431.044 275.391C436.877 295.378 431.843 332.957 431.843 332.957C427.037 335.779 423.698 333.283 423.698 333.283C422.236 310.582 418.311 306.967 414.024 261.933C410.975 229.926 408.653 211.254 409.814 203.481C410.286 200.317 406.776 194.74 406.776 194.74L426.487 195.02C426.487 195.02 426.995 195.532 427.799 196.47C430.422 199.535 431.91 203.585 433.279 207.313C436.218 215.334 435.757 223.459 435.171 231.806C434.642 239.335 433.906 246.848 433.082 254.346C432.434 260.234 431.812 266.153 430.842 271.999H430.837Z" fill="url(#paint8_linear_1201_5994)"></path><path d="M414.936 123.094C414.936 123.094 415.533 136.335 411.318 137.723C411.318 137.723 417.29 145.008 424.476 135.33C424.476 135.33 423.6 128.335 425.253 122.996L414.936 123.099V123.094Z" fill="url(#paint9_linear_1201_5994)"></path><path d="M395.713 199.458C395.713 199.458 395.775 199.478 395.853 199.494H395.863C397.33 199.789 409.099 201.255 423.491 198.919C425.181 198.645 426.944 198.267 428.774 197.77V197.759C428.774 197.759 428.784 197.733 428.789 197.713C428.789 197.702 428.795 197.697 428.8 197.687C428.821 197.625 428.852 197.537 428.888 197.412C428.898 197.386 428.909 197.355 428.919 197.324C428.929 197.298 428.94 197.267 428.95 197.236C428.976 197.164 428.997 197.091 429.028 197.008C429.059 196.91 429.095 196.807 429.132 196.693C429.152 196.63 429.173 196.563 429.199 196.496C429.277 196.258 429.365 195.983 429.458 195.683C429.479 195.61 429.505 195.538 429.531 195.46C429.557 195.367 429.593 195.274 429.619 195.175C429.624 195.16 429.629 195.139 429.634 195.118C429.655 195.056 429.676 194.994 429.697 194.932C429.712 194.891 429.723 194.844 429.738 194.803C429.749 194.766 429.764 194.73 429.774 194.689C429.774 194.683 429.774 194.673 429.78 194.668C429.842 194.471 429.909 194.259 429.977 194.047C430.065 193.767 430.153 193.477 430.251 193.171C430.609 192.012 431.014 190.665 431.449 189.169C431.833 187.848 432.242 186.409 432.667 184.881C432.927 183.923 433.196 182.929 433.466 181.909C433.538 181.624 433.611 181.339 433.689 181.054C433.756 180.806 433.818 180.557 433.886 180.309C433.906 180.226 433.927 180.138 433.948 180.055C434.041 179.682 434.14 179.304 434.233 178.921C434.28 178.729 434.326 178.538 434.378 178.346C434.451 178.056 434.523 177.766 434.591 177.471C434.627 177.305 434.674 177.135 434.715 176.969C434.917 176.13 435.114 175.281 435.311 174.421C435.368 174.162 435.431 173.898 435.488 173.639C435.623 173.039 435.752 172.433 435.887 171.827C436.239 170.175 436.576 168.503 436.888 166.83C436.888 166.799 436.898 166.763 436.903 166.737C437.095 165.706 437.271 164.676 437.437 163.656C437.468 163.464 437.499 163.273 437.525 163.081C437.992 160.114 438.36 157.235 438.562 154.511C438.624 153.719 438.629 152.926 438.588 152.139C438.241 145.18 434.072 138.837 427.566 136.02C426.482 135.554 425.456 135.248 424.58 135.207C424.58 135.207 421.79 139.044 415.714 138.894C412.147 138.671 413.604 134.917 413.775 134.575C413.195 135.678 411.634 136.636 410.618 137.2C410.084 137.501 409.519 137.765 408.949 137.998C408.938 138.008 408.933 138.008 408.928 138.008C408.835 138.05 408.741 138.086 408.648 138.122C408.648 138.122 408.637 138.127 408.632 138.127C407.269 138.702 405.102 139.603 404.226 140.825C404.034 141.089 403.899 141.395 403.764 141.695C402.779 143.901 401.706 146.112 400.762 148.359C400.176 149.747 399.435 151.062 398.616 152.331C397.558 153.978 396.874 155.976 396.739 158.162C396.625 159.979 396.905 161.729 397.486 163.278C398.606 166.25 399.331 169.357 399.497 172.531C399.508 172.692 399.513 172.863 399.534 173.008C399.658 173.898 399.751 174.794 399.694 175.69L399.658 176.322C399.705 177.663 399.736 178.999 399.757 180.319C399.757 180.749 399.767 181.179 399.767 181.603C399.793 187.217 396.506 196.449 395.723 199.468L395.713 199.458Z" fill="url(#paint10_linear_1201_5994)"></path><path style="mix-blend-mode:multiply" opacity="0.3" d="M404.054 164.764C404.111 164.779 404.309 164.847 404.63 164.95C404.391 164.893 404.2 164.831 404.054 164.764Z" fill="url(#paint11_linear_1201_5994)"></path><path d="M393.805 155.174L393.519 155.432C393.597 155.324 393.696 155.236 393.805 155.174Z" fill="url(#paint12_linear_1201_5994)"></path><path d="M410.659 109.129C410.659 109.129 411.815 114.69 410.514 118.786C409.213 122.882 410.55 128.288 415.279 131.841C415.279 131.841 426.622 131.374 429.728 125.249C429.728 125.249 430.433 122.489 430.993 120.754C431.547 119.019 434.217 118.346 433.331 115.363C432.444 112.381 430.956 114.141 430.956 114.141C430.956 114.141 430.858 111.884 430.619 109.978C430.381 108.073 410.654 109.129 410.654 109.129H410.659Z" fill="url(#paint13_linear_1201_5994)"></path><path d="M410.659 109.129C410.659 109.129 414.936 120.91 431.521 114.318C448.106 107.726 421.36 105.147 421.36 105.147L410.659 109.124V109.129Z" fill="url(#paint14_linear_1201_5994)"></path><path d="M395.713 199.457L395.853 199.494H395.863C397.33 199.789 409.099 201.254 423.491 198.919C425.181 198.644 426.944 198.266 428.774 197.769V197.759C428.774 197.759 428.784 197.733 428.789 197.712C428.789 197.702 428.795 197.697 428.8 197.686C428.821 197.624 428.852 197.536 428.888 197.412C428.898 197.386 428.909 197.355 428.919 197.324C428.929 197.298 428.94 197.267 428.95 197.236C428.976 197.163 428.997 197.091 429.028 197.008C429.059 196.91 429.095 196.806 429.132 196.692C429.152 196.63 429.173 196.563 429.199 196.495C429.277 196.257 429.365 195.983 429.458 195.682C429.479 195.61 429.505 195.537 429.531 195.46C429.557 195.367 429.593 195.273 429.619 195.175C429.624 195.159 429.629 195.139 429.634 195.118C429.655 195.056 429.676 194.994 429.697 194.932C429.712 194.89 429.723 194.844 429.738 194.802C429.749 194.766 429.764 194.73 429.774 194.688C429.774 194.683 429.774 194.673 429.78 194.667C429.842 194.471 429.909 194.258 429.977 194.046C430.065 193.766 430.153 193.476 430.251 193.171C430.609 192.011 431.014 190.665 431.449 189.168C431.833 187.848 432.242 186.408 432.667 184.881C432.927 183.923 433.196 182.928 433.466 181.908C433.538 181.624 433.611 181.339 433.689 181.054C433.756 180.805 433.818 180.557 433.886 180.308C433.906 180.225 433.927 180.137 433.948 180.055C434.041 179.682 434.14 179.304 434.233 178.921C434.28 178.729 434.326 178.537 434.378 178.346C434.451 178.056 434.523 177.766 434.591 177.471C434.627 177.305 434.674 177.134 434.715 176.968C434.917 176.13 435.114 175.28 435.311 174.421C435.368 174.162 435.431 173.898 435.488 173.639C435.623 173.038 435.752 172.432 435.887 171.826C436.239 170.175 436.576 168.502 436.888 166.829C436.888 166.798 436.898 166.762 436.903 166.736C437.095 165.706 437.271 164.675 437.437 163.655C437.468 163.464 437.499 163.272 437.525 163.08C437.992 160.113 438.36 157.234 438.562 154.511C438.624 153.718 438.629 152.926 438.588 152.139H431.978L428.447 164.152L418.457 154.469C418.457 154.469 421.982 165.069 410.836 164.235C412.137 164.349 419.167 165.059 421.386 167.404C423.838 169.999 428.053 180.179 423.05 189.484C418.052 198.784 395.713 199.473 395.713 199.473V199.457Z" fill="url(#paint15_linear_1201_5994)"></path><path d="M418.192 136.341C418.192 136.341 418.224 131.918 417.43 130.122C416.637 128.325 414.999 127.434 414.506 127.522C414.009 127.61 412.002 127.662 411.525 128.485C411.048 129.309 410.265 131.281 410.805 131.556C411.085 131.696 411.505 131.416 411.842 131.105C411.94 131.017 412.096 131.126 412.033 131.25C411.753 131.83 411.442 132.566 411.572 132.7C411.795 132.928 412.495 132.773 412.858 132.431C413.221 132.089 412.386 133.902 412.93 133.803C413.469 133.705 413.578 134.264 414.014 134.523C414.449 134.782 415.009 134.896 414.771 135.326C414.532 135.755 414.382 137.526 415.59 140.525C416.596 143.015 418.913 138.681 418.913 138.681L418.187 136.341H418.192Z" fill="url(#paint16_linear_1201_5994)"></path><path d="M434.02 140.794L429.696 154.288C429.365 155.329 427.913 155.402 427.483 154.397C424.833 148.261 418.814 134.663 418.006 135.807C417.124 137.05 416.248 137.537 414.475 136.962C414.475 136.962 419.105 164.054 426.047 172.127C432.989 180.2 445.436 151.999 434.025 140.794H434.02Z" fill="url(#paint17_linear_1201_5994)"></path><defs><linearGradient id="paint0_linear_1201_5994" x1="407.319" y1="328.172" x2="409.889" y2="339.17" gradientUnits="userSpaceOnUse"><stop stop-color="#F0877E"></stop><stop offset="1" stop-color="#FABEB2"></stop></linearGradient><linearGradient id="paint1_linear_1201_5994" x1="399.881" y1="335.39" x2="404.092" y2="345.724" gradientUnits="userSpaceOnUse"><stop stop-color="#A23200"></stop><stop offset="1" stop-color="#5C2100"></stop></linearGradient><linearGradient id="paint2_linear_1201_5994" x1="426.191" y1="328.172" x2="428.762" y2="339.169" gradientUnits="userSpaceOnUse"><stop stop-color="#F0877E"></stop><stop offset="1" stop-color="#FABEB2"></stop></linearGradient><linearGradient id="paint3_linear_1201_5994" x1="418.752" y1="335.39" x2="422.969" y2="345.724" gradientUnits="userSpaceOnUse"><stop stop-color="#A23200"></stop><stop offset="1" stop-color="#5C2100"></stop></linearGradient><linearGradient id="paint4_linear_1201_5994" x1="401.174" y1="157.995" x2="387.325" y2="201.868" gradientUnits="userSpaceOnUse"><stop stop-color="#00C3E7"></stop><stop offset="1" stop-color="#0063B9"></stop></linearGradient><linearGradient id="paint5_linear_1201_5994" x1="406.071" y1="323.266" x2="403.711" y2="149.752" gradientUnits="userSpaceOnUse"><stop stop-color="#005A8B"></stop><stop offset="1" stop-color="#001145"></stop></linearGradient><linearGradient id="paint6_linear_1201_5994" x1="406.356" y1="260.695" x2="408.487" y2="194.419" gradientUnits="userSpaceOnUse"><stop stop-color="#A23200"></stop><stop offset="1" stop-color="#5C2100"></stop></linearGradient><linearGradient id="paint7_linear_1201_5994" x1="429.468" y1="133.637" x2="410.958" y2="83.0269" gradientUnits="userSpaceOnUse"><stop stop-color="#5C2100"></stop><stop offset="1" stop-color="#A23200"></stop></linearGradient><linearGradient id="paint8_linear_1201_5994" x1="421.364" y1="323.244" x2="419.305" y2="149.374" gradientUnits="userSpaceOnUse"><stop stop-color="#005A8B"></stop><stop offset="1" stop-color="#001145"></stop></linearGradient><linearGradient id="paint9_linear_1201_5994" x1="419.098" y1="124.32" x2="417.712" y2="136.395" gradientUnits="userSpaceOnUse"><stop stop-color="#F0877E"></stop><stop offset="1" stop-color="#FABEB2"></stop></linearGradient><linearGradient id="paint10_linear_1201_5994" x1="422.548" y1="138.773" x2="408.519" y2="216.941" gradientUnits="userSpaceOnUse"><stop stop-color="#00C3E7"></stop><stop offset="1" stop-color="#0063B9"></stop></linearGradient><linearGradient id="paint11_linear_1201_5994" x1="404.221" y1="165.106" x2="404.2" y2="164.871" gradientUnits="userSpaceOnUse"><stop stop-color="#E75B00"></stop><stop offset="1" stop-color="#FFA345"></stop></linearGradient><linearGradient id="paint12_linear_1201_5994" x1="393.575" y1="155.248" x2="393.442" y2="155.545" gradientUnits="userSpaceOnUse"><stop stop-color="#00D1D0"></stop><stop offset="1" stop-color="#0098D0"></stop></linearGradient><linearGradient id="paint13_linear_1201_5994" x1="433.149" y1="104.093" x2="427.369" y2="126.652" gradientUnits="userSpaceOnUse"><stop stop-color="#F0877E"></stop><stop offset="1" stop-color="#FABEB2"></stop></linearGradient><linearGradient id="paint14_linear_1201_5994" x1="432.242" y1="132.623" x2="413.732" y2="82.0122" gradientUnits="userSpaceOnUse"><stop stop-color="#5C2100"></stop><stop offset="1" stop-color="#A23200"></stop></linearGradient><linearGradient id="paint15_linear_1201_5994" x1="422.548" y1="155.214" x2="414.912" y2="213.307" gradientUnits="userSpaceOnUse"><stop stop-color="#00C3E7"></stop><stop offset="1" stop-color="#0063B9"></stop></linearGradient><linearGradient id="paint16_linear_1201_5994" x1="416.332" y1="141.072" x2="412.136" y2="122.839" gradientUnits="userSpaceOnUse"><stop stop-color="#F0877E"></stop><stop offset="1" stop-color="#FABEB2"></stop></linearGradient><linearGradient id="paint17_linear_1201_5994" x1="429.596" y1="138.158" x2="421.344" y2="183.129" gradientUnits="userSpaceOnUse"><stop stop-color="#00C3E7"></stop><stop offset="1" stop-color="#0063B9"></stop></linearGradient><clipPath id="clip0_1201_5994"><rect width="31.0068" height="38.3201" fill="white" transform="translate(223 179)"></rect></clipPath><clipPath id="clip1_1201_5994"><rect width="40" height="40" fill="white" transform="translate(336 122)"></rect></clipPath><clipPath id="clip2_1201_5994"><rect width="40" height="40" fill="white" transform="translate(161 267)"></rect></clipPath></defs></svg>