<svg xmlns="http://www.w3.org/2000/svg" width="140" height="71" viewBox="0 0 140 71" fill="none"><path d="M139.357 0C139.357 0 135.903 23.4258 116.293 33.1632V49.2188C116.293 54.6998 114.176 59.6698 110.711 63.3944C108.662 65.6246 106.115 67.402 103.25 68.558C101.404 69.3164 99.4344 69.8035 97.362 69.9853C97.2831 70.0076 97.1698 70.0076 97.0909 70.0076C96.8987 70.0181 96.6946 70.0419 96.4905 70.0419C96.1508 70.0643 95.7888 70.0762 95.4372 70.0762H20.8678C18.8297 70.0762 16.8602 69.7812 14.9905 69.2374C14.323 69.0333 13.666 68.8069 13.0209 68.5476C5.39013 65.4548 0 57.9596 0 49.2188V22.5885C0 11.0618 9.35302 1.70881 20.8678 1.70881H95.4372C105.322 1.70881 113.588 8.60513 115.739 17.8434C121.887 16.1793 131.511 11.7516 139.357 0Z" fill="url(#paint0_linear_1427_6043)"></path><path d="M31.1569 55V53.6H32.7389V46.6H31.1569V45.2H35.8329V46.6H34.2509V53.6H35.8329V55H31.1569ZM38.1225 55V47.65H39.5645V49.162L39.3125 49.33C39.4058 49.0033 39.5878 48.7047 39.8585 48.434C40.1291 48.154 40.4511 47.93 40.8245 47.762C41.1978 47.5847 41.5805 47.496 41.9725 47.496C42.5325 47.496 42.9991 47.608 43.3725 47.832C43.7458 48.0467 44.0258 48.378 44.2125 48.826C44.3991 49.274 44.4925 49.8387 44.4925 50.52V55H43.0505V50.618C43.0505 50.198 42.9945 49.8527 42.8825 49.582C42.7705 49.302 42.5978 49.1013 42.3645 48.98C42.1311 48.8493 41.8418 48.7933 41.4965 48.812C41.2165 48.812 40.9598 48.8587 40.7265 48.952C40.4931 49.036 40.2878 49.1573 40.1105 49.316C39.9425 49.4747 39.8071 49.6613 39.7045 49.876C39.6111 50.0813 39.5645 50.3053 39.5645 50.548V55H38.8505C38.7291 55 38.6078 55 38.4865 55C38.3651 55 38.2438 55 38.1225 55ZM46.7286 55V44.64H48.1706V49.162L47.9186 49.33C48.012 49.0033 48.194 48.7047 48.4646 48.434C48.7353 48.154 49.0573 47.93 49.4306 47.762C49.804 47.5847 50.1866 47.496 50.5786 47.496C51.1386 47.496 51.6053 47.608 51.9786 47.832C52.352 48.0467 52.632 48.378 52.8186 48.826C53.0053 49.274 53.0986 49.8387 53.0986 50.52V55H51.6566V50.618C51.6566 50.198 51.6006 49.8527 51.4886 49.582C51.3766 49.302 51.204 49.1013 50.9706 48.98C50.7373 48.8493 50.448 48.7933 50.1026 48.812C49.8226 48.812 49.566 48.8587 49.3326 48.952C49.0993 49.036 48.894 49.1573 48.7166 49.316C48.5486 49.4747 48.4133 49.6613 48.3106 49.876C48.2173 50.0813 48.1706 50.3053 48.1706 50.548V55H47.4566C47.3353 55 47.214 55 47.0926 55C46.9713 55 46.85 55 46.7286 55ZM59.6888 55V50.212C59.6888 49.8013 59.5395 49.47 59.2408 49.218C58.9515 48.9567 58.5828 48.826 58.1348 48.826C57.7241 48.826 57.3508 48.91 57.0148 49.078C56.6881 49.246 56.3895 49.5027 56.1188 49.848L55.1808 48.91C55.6195 48.434 56.0908 48.0793 56.5948 47.846C57.1081 47.6127 57.6588 47.496 58.2468 47.496C58.8068 47.496 59.2921 47.5893 59.7028 47.776C60.1135 47.9627 60.4308 48.238 60.6548 48.602C60.8788 48.9567 60.9908 49.3907 60.9908 49.904V55H59.6888ZM57.4908 55.14C57.0148 55.14 56.5901 55.0467 56.2168 54.86C55.8435 54.6733 55.5448 54.4167 55.3208 54.09C55.1061 53.754 54.9988 53.362 54.9988 52.914C54.9988 52.522 55.0688 52.1767 55.2088 51.878C55.3488 51.5793 55.5541 51.332 55.8248 51.136C56.1048 50.94 56.4501 50.7907 56.8608 50.688C57.2808 50.5853 57.7615 50.534 58.3028 50.534H60.3468L60.2208 51.682H58.1208C57.8408 51.682 57.5888 51.71 57.3648 51.766C57.1501 51.8127 56.9635 51.892 56.8048 52.004C56.6555 52.1067 56.5435 52.2327 56.4688 52.382C56.3941 52.522 56.3568 52.69 56.3568 52.886C56.3568 53.0913 56.4081 53.2733 56.5108 53.432C56.6135 53.5813 56.7535 53.698 56.9308 53.782C57.1081 53.866 57.3135 53.908 57.5468 53.908C57.8828 53.908 58.2001 53.852 58.4988 53.74C58.8068 53.6187 59.0775 53.4553 59.3108 53.25C59.5535 53.0447 59.7401 52.816 59.8708 52.564L60.2068 53.502C60.0108 53.8287 59.7681 54.1133 59.4788 54.356C59.1895 54.5987 58.8768 54.79 58.5408 54.93C58.2048 55.07 57.8548 55.14 57.4908 55.14ZM63.1213 55V44.64H64.5633V55H63.1213ZM70.1803 55.14C69.4243 55.14 68.7523 54.9813 68.1643 54.664C67.5856 54.3373 67.1283 53.894 66.7923 53.334C66.4656 52.774 66.3023 52.13 66.3023 51.402C66.3023 50.8233 66.3956 50.296 66.5823 49.82C66.7689 49.344 67.0256 48.9333 67.3523 48.588C67.6883 48.2333 68.0849 47.9627 68.5423 47.776C69.0089 47.58 69.5129 47.482 70.0543 47.482C70.5303 47.482 70.9736 47.5753 71.3843 47.762C71.7949 47.9393 72.1496 48.1867 72.4483 48.504C72.7563 48.8213 72.9896 49.1993 73.1483 49.638C73.3163 50.0673 73.3956 50.5387 73.3863 51.052L73.3723 51.668H67.3663L67.0443 50.52H72.1263L71.9163 50.758V50.422C71.8883 50.114 71.7856 49.8387 71.6083 49.596C71.4309 49.3533 71.2069 49.162 70.9363 49.022C70.6656 48.882 70.3716 48.812 70.0543 48.812C69.5503 48.812 69.1256 48.91 68.7803 49.106C68.4349 49.2927 68.1736 49.5727 67.9963 49.946C67.8189 50.31 67.7303 50.7627 67.7303 51.304C67.7303 51.8173 67.8376 52.2653 68.0523 52.648C68.2669 53.0213 68.5703 53.3107 68.9623 53.516C69.3543 53.7213 69.8069 53.824 70.3203 53.824C70.6843 53.824 71.0203 53.7633 71.3283 53.642C71.6456 53.5207 71.9863 53.3013 72.3503 52.984L73.0783 54.006C72.8543 54.23 72.5789 54.426 72.2523 54.594C71.9349 54.762 71.5943 54.8973 71.2303 55C70.8756 55.0933 70.5256 55.14 70.1803 55.14ZM75.2334 55V47.65H76.6894V49.96L76.5494 49.4C76.6521 49.0453 76.8247 48.7233 77.0674 48.434C77.3194 48.1447 77.6041 47.916 77.9214 47.748C78.2481 47.58 78.5841 47.496 78.9294 47.496C79.0881 47.496 79.2374 47.51 79.3774 47.538C79.5267 47.566 79.6434 47.5987 79.7274 47.636L79.3494 49.204C79.2374 49.1573 79.1114 49.12 78.9714 49.092C78.8407 49.0547 78.7101 49.036 78.5794 49.036C78.3274 49.036 78.0847 49.0873 77.8514 49.19C77.6274 49.2833 77.4267 49.4187 77.2494 49.596C77.0814 49.764 76.9461 49.9647 76.8434 50.198C76.7407 50.422 76.6894 50.6693 76.6894 50.94V55H75.2334ZM83.6099 55.14C82.9939 55.14 82.4385 55.0327 81.9439 54.818C81.4492 54.6033 81.0385 54.286 80.7119 53.866L81.6919 53.026C81.9719 53.3527 82.2752 53.5907 82.6019 53.74C82.9379 53.88 83.3159 53.95 83.7359 53.95C83.9039 53.95 84.0579 53.9313 84.1979 53.894C84.3472 53.8473 84.4732 53.782 84.5759 53.698C84.6879 53.614 84.7719 53.516 84.8279 53.404C84.8839 53.2827 84.9119 53.152 84.9119 53.012C84.9119 52.7693 84.8232 52.5733 84.6459 52.424C84.5525 52.3587 84.4032 52.2887 84.1979 52.214C84.0019 52.13 83.7452 52.046 83.4279 51.962C82.8865 51.822 82.4432 51.6633 82.0979 51.486C81.7525 51.3087 81.4865 51.108 81.2999 50.884C81.1599 50.7067 81.0572 50.5153 80.9919 50.31C80.9265 50.0953 80.8939 49.862 80.8939 49.61C80.8939 49.1993 81.0105 48.8353 81.2439 48.518C81.4772 48.2007 81.7899 47.9533 82.1819 47.776C82.5832 47.5893 83.0312 47.496 83.5259 47.496C83.8712 47.496 84.2119 47.5427 84.5479 47.636C84.8932 47.7293 85.2105 47.8647 85.4999 48.042C85.7892 48.2193 86.0319 48.4293 86.2279 48.672L85.4019 49.582C85.2245 49.4047 85.0285 49.2507 84.8139 49.12C84.6085 48.98 84.3985 48.8727 84.1839 48.798C83.9692 48.7233 83.7732 48.686 83.5959 48.686C83.3999 48.686 83.2225 48.7047 83.0639 48.742C82.9052 48.7793 82.7699 48.8353 82.6579 48.91C82.5552 48.9847 82.4759 49.078 82.4199 49.19C82.3639 49.302 82.3359 49.428 82.3359 49.568C82.3452 49.6893 82.3732 49.806 82.4199 49.918C82.4759 50.0207 82.5505 50.1093 82.6439 50.184C82.7465 50.2587 82.9005 50.338 83.1059 50.422C83.3112 50.506 83.5725 50.5853 83.8899 50.66C84.3565 50.7813 84.7392 50.9167 85.0379 51.066C85.3459 51.206 85.5885 51.3693 85.7659 51.556C85.9525 51.7333 86.0832 51.9387 86.1579 52.172C86.2325 52.4053 86.2699 52.6667 86.2699 52.956C86.2699 53.376 86.1485 53.754 85.9059 54.09C85.6725 54.4167 85.3552 54.6733 84.9539 54.86C84.5525 55.0467 84.1045 55.14 83.6099 55.14Z" fill="white"></path><path d="M63.769 26.0683C63.8981 26.1974 64.1236 26.1977 64.253 26.0683L65.7841 24.5373C66.4299 23.8914 66.4299 22.8407 65.7841 22.195L64.5145 20.9253C64.2016 20.6125 63.7857 20.4401 63.3434 20.4401C62.9009 20.4401 62.485 20.6125 62.1721 20.9253L60.641 22.4563C60.5077 22.5898 60.5077 22.807 60.641 22.9404L63.769 26.0683Z" fill="white"></path><path d="M52.4732 17.0658L55.944 16.6879C55.9983 16.682 56.0376 16.6331 56.0317 16.5788C56.0115 16.3933 55.9395 16.2131 55.8092 16.0795C55.6329 15.8987 55.3938 15.8147 55.1481 15.8403L53.1664 16.0558C52.7288 16.1037 52.4114 16.4984 52.4591 16.936L52.4732 17.0658Z" fill="white"></path><path d="M55.9095 16.9868L52.6031 17.3467C52.5488 17.3526 52.5096 17.4015 52.5155 17.4558L52.7933 20.0099C52.8015 20.085 52.8876 20.1236 52.9492 20.0797L56.1159 17.8214C56.1451 17.8006 56.1607 17.7657 56.1568 17.7301L56.0919 17.1334C56.082 17.0425 56.0003 16.9769 55.9095 16.9868Z" fill="white"></path><path d="M58.1368 26.8013L57.1671 18.0158C57.1545 17.9019 57.0847 17.8061 56.9802 17.7592C56.9378 17.7403 56.8932 17.731 56.8491 17.731C56.784 17.731 56.7198 17.7512 56.6643 17.7907L52.3925 20.8372C52.2971 20.9052 52.2467 21.0198 52.2609 21.136L53.5071 31.3146C53.5301 31.502 53.6065 31.6708 53.7187 31.8086C54.615 29.3797 56.0629 27.7386 58.1368 26.8013Z" fill="white"></path><path d="M61.3963 27.0601H60.5025C60.4479 27.0601 60.4036 27.1044 60.4036 27.159V30.3513C60.4036 30.4323 60.3378 30.498 60.2568 30.498C60.1759 30.498 60.1101 30.4323 60.1101 30.3513V27.159C60.1101 27.1044 60.0658 27.0601 60.0112 27.0601H58.2967C58.2915 27.0601 58.287 27.0578 58.282 27.0573C56.2399 27.9726 54.8224 29.5968 53.9541 32.0172C54.1048 32.1125 54.2822 32.1683 54.4717 32.1683H60.0112C60.0658 32.1683 60.1101 32.124 60.1101 32.0693V31.0969C60.1101 31.0159 60.1759 30.9502 60.2568 30.9502C60.3378 30.9502 60.4036 31.0159 60.4036 31.0969V32.0693C60.4036 32.124 60.4479 32.1683 60.5025 32.1683H61.3963C61.5853 32.1683 61.7385 32.015 61.7385 31.826V31.0969V28.1314V27.4023C61.7385 27.2133 61.5853 27.0601 61.3963 27.0601Z" fill="white"></path><path d="M63.8763 28.2781H62.131C62.0763 28.2781 62.032 28.3224 62.032 28.3771V30.8512C62.032 30.9058 62.0763 30.9501 62.131 30.9501H63.8761C64.1388 30.9501 64.3517 30.7372 64.3517 30.4746V28.7536C64.3517 28.491 64.1389 28.2781 63.8763 28.2781Z" fill="white"></path><path d="M66.8695 29.302H65.3381C65.166 29.302 65.0259 29.4421 65.0259 29.6142C65.0259 29.7863 65.166 29.9264 65.3381 29.9264H66.8695C67.0416 29.9264 67.1817 29.7863 67.1817 29.6142C67.1817 29.4421 67.0416 29.302 66.8695 29.302Z" fill="white"></path><path d="M65.0578 28.9416V28.9418C65.1108 29.0494 65.2181 29.1162 65.3382 29.1162C65.3854 29.1162 65.4329 29.1052 65.4758 29.0842L66.6308 28.5158C66.7849 28.4399 66.8488 28.2524 66.773 28.0981C66.6972 27.9441 66.5106 27.88 66.3549 27.9556L65.2 28.5239C65.0458 28.5999 64.982 28.7873 65.0578 28.9416Z" fill="white"></path><path d="M66.6308 30.6847L65.4757 30.1163C65.3212 30.0405 65.1337 30.1044 65.0578 30.2589C64.982 30.4132 65.0458 30.6006 65.2002 30.6767L66.3554 31.2451C66.3979 31.2659 66.4454 31.2769 66.4926 31.2769C66.6127 31.2769 66.72 31.2102 66.773 31.1024C66.8488 30.9481 66.7849 30.7606 66.6308 30.6847Z" fill="white"></path><defs><linearGradient id="paint0_linear_1427_6043" x1="62.9161" y1="76.8803" x2="66.4095" y2="5.83633" gradientUnits="userSpaceOnUse"><stop stop-color="#FD3A84"></stop><stop offset="1" stop-color="#FF8B6A"></stop></linearGradient></defs></svg>