<svg xmlns="http://www.w3.org/2000/svg" width="111" height="85" viewBox="0 0 111 85" fill="none"><path d="M0 19.8002V45.0797C0 56.0169 8.91427 64.8799 19.9116 64.8799H28.1387C26.6414 79.0908 16.043 84.6576 15.3771 85C21.3529 83.7646 26.3198 81.7037 30.4113 79.3111C33.1603 77.7121 35.5116 75.9485 37.496 74.1955C41.4754 70.6896 44.0255 67.1956 45.4668 64.8799H91.0884C102.086 64.8799 111 56.0155 111 45.0797V19.8002C111 8.8644 102.086 0 91.0884 0H19.9116C8.91427 0 0 8.8644 0 19.8002Z" fill="url(#paint0_linear_1427_6018)"></path><path d="M29.525 53L25.605 43.2H27.327L29.665 49.15C29.777 49.4393 29.875 49.7007 29.959 49.934C30.0524 50.1673 30.1317 50.382 30.197 50.578C30.2624 50.7647 30.323 50.942 30.379 51.11C30.435 51.278 30.491 51.446 30.547 51.614L30.183 51.628C30.2484 51.404 30.3184 51.1707 30.393 50.928C30.4677 50.6853 30.5517 50.4193 30.645 50.13C30.7477 49.8407 30.869 49.514 31.009 49.15L33.179 43.2H34.943L30.995 53H29.525ZM36.8028 53V45.65H38.2448V53H36.8028ZM37.5028 44.026C37.1948 44.026 36.9568 43.9467 36.7888 43.788C36.6208 43.6293 36.5368 43.4053 36.5368 43.116C36.5368 42.8453 36.6208 42.626 36.7888 42.458C36.9662 42.29 37.2042 42.206 37.5028 42.206C37.8108 42.206 38.0488 42.2853 38.2168 42.444C38.3848 42.6027 38.4688 42.8267 38.4688 43.116C38.4688 43.3867 38.3802 43.606 38.2028 43.774C38.0348 43.942 37.8015 44.026 37.5028 44.026ZM41.6513 53V43.774H43.0933V53H41.6513ZM40.1253 47.05V45.65H44.8013V47.05H40.1253ZM50.68 53V48.212C50.68 47.8013 50.5307 47.47 50.232 47.218C49.9427 46.9567 49.574 46.826 49.126 46.826C48.7153 46.826 48.342 46.91 48.006 47.078C47.6793 47.246 47.3807 47.5027 47.11 47.848L46.172 46.91C46.6107 46.434 47.082 46.0793 47.586 45.846C48.0993 45.6127 48.65 45.496 49.238 45.496C49.798 45.496 50.2833 45.5893 50.694 45.776C51.1047 45.9627 51.422 46.238 51.646 46.602C51.87 46.9567 51.982 47.3907 51.982 47.904V53H50.68ZM48.482 53.14C48.006 53.14 47.5813 53.0467 47.208 52.86C46.8347 52.6733 46.536 52.4167 46.312 52.09C46.0973 51.754 45.99 51.362 45.99 50.914C45.99 50.522 46.06 50.1767 46.2 49.878C46.34 49.5793 46.5453 49.332 46.816 49.136C47.096 48.94 47.4413 48.7907 47.852 48.688C48.272 48.5853 48.7527 48.534 49.294 48.534H51.338L51.212 49.682H49.112C48.832 49.682 48.58 49.71 48.356 49.766C48.1413 49.8127 47.9547 49.892 47.796 50.004C47.6467 50.1067 47.5347 50.2327 47.46 50.382C47.3853 50.522 47.348 50.69 47.348 50.886C47.348 51.0913 47.3993 51.2733 47.502 51.432C47.6047 51.5813 47.7447 51.698 47.922 51.782C48.0993 51.866 48.3047 51.908 48.538 51.908C48.874 51.908 49.1913 51.852 49.49 51.74C49.798 51.6187 50.0687 51.4553 50.302 51.25C50.5447 51.0447 50.7313 50.816 50.862 50.564L51.198 51.502C51.002 51.8287 50.7593 52.1133 50.47 52.356C50.1807 52.5987 49.868 52.79 49.532 52.93C49.196 53.07 48.846 53.14 48.482 53.14ZM54.0565 53V45.65H55.5125V47.218L55.2465 47.386C55.3212 47.1433 55.4379 46.91 55.5965 46.686C55.7645 46.462 55.9652 46.266 56.1985 46.098C56.4412 45.9207 56.6979 45.7807 56.9685 45.678C57.2485 45.5753 57.5332 45.524 57.8225 45.524C58.2425 45.524 58.6112 45.594 58.9285 45.734C59.2459 45.874 59.5072 46.084 59.7125 46.364C59.9179 46.644 60.0672 46.994 60.1605 47.414L59.9365 47.358L60.0345 47.12C60.1372 46.9053 60.2772 46.7047 60.4545 46.518C60.6412 46.322 60.8512 46.1493 61.0845 46C61.3179 45.8507 61.5652 45.734 61.8265 45.65C62.0879 45.566 62.3445 45.524 62.5965 45.524C63.1472 45.524 63.5999 45.636 63.9545 45.86C64.3185 46.084 64.5892 46.4247 64.7665 46.882C64.9532 47.3393 65.0465 47.9087 65.0465 48.59V53H63.5905V48.674C63.5905 48.0487 63.4692 47.5913 63.2265 47.302C62.9932 47.0033 62.6245 46.854 62.1205 46.854C61.8592 46.854 61.6119 46.9007 61.3785 46.994C61.1545 47.078 60.9585 47.1993 60.7905 47.358C60.6225 47.5167 60.4919 47.7033 60.3985 47.918C60.3052 48.1233 60.2585 48.352 60.2585 48.604V53H58.8025V48.646C58.8025 48.0673 58.6765 47.624 58.4245 47.316C58.1819 47.008 57.8272 46.854 57.3605 46.854C57.0992 46.854 56.8565 46.9007 56.6325 46.994C56.4085 47.078 56.2125 47.1993 56.0445 47.358C55.8765 47.5073 55.7459 47.6893 55.6525 47.904C55.5592 48.1093 55.5125 48.3333 55.5125 48.576V53H54.0565ZM67.4951 53V45.65H68.9371V53H67.4951ZM68.1951 44.026C67.8871 44.026 67.6491 43.9467 67.4811 43.788C67.3131 43.6293 67.2291 43.4053 67.2291 43.116C67.2291 42.8453 67.3131 42.626 67.4811 42.458C67.6584 42.29 67.8964 42.206 68.1951 42.206C68.5031 42.206 68.7411 42.2853 68.9091 42.444C69.0771 42.6027 69.1611 42.8267 69.1611 43.116C69.1611 43.3867 69.0724 43.606 68.8951 43.774C68.7271 43.942 68.4938 44.026 68.1951 44.026ZM71.4336 53V45.65H72.8756V47.162L72.6236 47.33C72.7169 47.0033 72.8989 46.7047 73.1696 46.434C73.4403 46.154 73.7623 45.93 74.1356 45.762C74.5089 45.5847 74.8916 45.496 75.2836 45.496C75.8436 45.496 76.3103 45.608 76.6836 45.832C77.0569 46.0467 77.3369 46.378 77.5236 46.826C77.7103 47.274 77.8036 47.8387 77.8036 48.52V53H76.3616V48.618C76.3616 48.198 76.3056 47.8527 76.1936 47.582C76.0816 47.302 75.9089 47.1013 75.6756 46.98C75.4423 46.8493 75.1529 46.7933 74.8076 46.812C74.5276 46.812 74.2709 46.8587 74.0376 46.952C73.8043 47.036 73.5989 47.1573 73.4216 47.316C73.2536 47.4747 73.1183 47.6613 73.0156 47.876C72.9223 48.0813 72.8756 48.3053 72.8756 48.548V53H72.1616C72.0403 53 71.9189 53 71.7976 53C71.6763 53 71.5549 53 71.4336 53ZM82.4898 53.14C81.8738 53.14 81.3184 53.0327 80.8238 52.818C80.3291 52.6033 79.9184 52.286 79.5918 51.866L80.5718 51.026C80.8518 51.3527 81.1551 51.5907 81.4818 51.74C81.8178 51.88 82.1958 51.95 82.6158 51.95C82.7838 51.95 82.9378 51.9313 83.0778 51.894C83.2271 51.8473 83.3531 51.782 83.4558 51.698C83.5678 51.614 83.6518 51.516 83.7078 51.404C83.7638 51.2827 83.7918 51.152 83.7918 51.012C83.7918 50.7693 83.7031 50.5733 83.5258 50.424C83.4324 50.3587 83.2831 50.2887 83.0778 50.214C82.8818 50.13 82.6251 50.046 82.3078 49.962C81.7664 49.822 81.3231 49.6633 80.9778 49.486C80.6324 49.3087 80.3664 49.108 80.1798 48.884C80.0398 48.7067 79.9371 48.5153 79.8718 48.31C79.8064 48.0953 79.7738 47.862 79.7738 47.61C79.7738 47.1993 79.8904 46.8353 80.1238 46.518C80.3571 46.2007 80.6698 45.9533 81.0618 45.776C81.4631 45.5893 81.9111 45.496 82.4058 45.496C82.7511 45.496 83.0918 45.5427 83.4278 45.636C83.7731 45.7293 84.0904 45.8647 84.3798 46.042C84.6691 46.2193 84.9118 46.4293 85.1078 46.672L84.2818 47.582C84.1044 47.4047 83.9084 47.2507 83.6938 47.12C83.4884 46.98 83.2784 46.8727 83.0638 46.798C82.8491 46.7233 82.6531 46.686 82.4758 46.686C82.2798 46.686 82.1024 46.7047 81.9438 46.742C81.7851 46.7793 81.6498 46.8353 81.5378 46.91C81.4351 46.9847 81.3558 47.078 81.2998 47.19C81.2438 47.302 81.2158 47.428 81.2158 47.568C81.2251 47.6893 81.2531 47.806 81.2998 47.918C81.3558 48.0207 81.4304 48.1093 81.5238 48.184C81.6264 48.2587 81.7804 48.338 81.9858 48.422C82.1911 48.506 82.4524 48.5853 82.7698 48.66C83.2364 48.7813 83.6191 48.9167 83.9178 49.066C84.2258 49.206 84.4684 49.3693 84.6458 49.556C84.8324 49.7333 84.9631 49.9387 85.0378 50.172C85.1124 50.4053 85.1498 50.6667 85.1498 50.956C85.1498 51.376 85.0284 51.754 84.7858 52.09C84.5524 52.4167 84.2351 52.6733 83.8338 52.86C83.4324 53.0467 82.9844 53.14 82.4898 53.14Z" fill="white"></path><path d="M62.75 13V14C62.75 14.96 61.96 15.75 61 15.75H51C50.04 15.75 49.25 14.96 49.25 14V13C49.25 12.04 50.04 11.25 51 11.25H61C61.96 11.25 62.75 12.04 62.75 13ZM63.75 21.41V29C63.75 31.07 62.07 32.75 60 32.75H52C49.93 32.75 48.25 31.07 48.25 29V21.41C48.25 20.3 48.68 19.25 49.47 18.47C49.81 18.13 50.04 17.71 50.16 17.25H61.85C61.97 17.71 62.19 18.13 62.54 18.47C63.33 19.26 63.76 20.3 63.76 21.41H63.75ZM58.75 24C58.75 23.59 58.41 23.25 58 23.25H56.75V22C56.75 21.59 56.41 21.25 56 21.25C55.59 21.25 55.25 21.59 55.25 22V23.25H54C53.59 23.25 53.25 23.59 53.25 24C53.25 24.41 53.59 24.75 54 24.75H55.25V26C55.25 26.41 55.59 26.75 56 26.75C56.41 26.75 56.75 26.41 56.75 26V24.75H58C58.41 24.75 58.75 24.41 58.75 24Z" fill="white"></path><defs><linearGradient id="paint0_linear_1427_6018" x1="-25.7708" y1="-64.6052" x2="69.2678" y2="66.3218" gradientUnits="userSpaceOnUse"><stop stop-color="#0005FF"></stop><stop offset="0.846565" stop-color="#00C0FF"></stop></linearGradient></defs></svg>