<svg xmlns="http://www.w3.org/2000/svg" width="111" height="85" viewBox="0 0 111 85" fill="none"><path d="M0 19.8002V45.0797C0 56.0169 8.91427 64.8799 19.9116 64.8799H28.1387C26.6414 79.0908 16.043 84.6576 15.3771 85C21.3529 83.7646 26.3198 81.7037 30.4113 79.3111C33.1603 77.7121 35.5116 75.9485 37.496 74.1955C41.4754 70.6896 44.0255 67.1956 45.4668 64.8799H91.0884C102.086 64.8799 111 56.0155 111 45.0797V19.8002C111 8.8644 102.086 0 91.0884 0H19.9116C8.91427 0 0 8.8644 0 19.8002Z" fill="url(#paint0_linear_1427_6396)"></path><path d="M18.7699 53V43.2H24.9439V44.656H20.2819V51.544H24.9439V53H18.7699ZM19.4559 48.702V47.246H24.1739V48.702H19.4559ZM27.3135 53V42.64H28.7555V53H27.3135ZM34.3724 53.14C33.6164 53.14 32.9444 52.9813 32.3564 52.664C31.7777 52.3373 31.3204 51.894 30.9844 51.334C30.6577 50.774 30.4944 50.13 30.4944 49.402C30.4944 48.8233 30.5877 48.296 30.7744 47.82C30.9611 47.344 31.2177 46.9333 31.5444 46.588C31.8804 46.2333 32.2771 45.9627 32.7344 45.776C33.2011 45.58 33.7051 45.482 34.2464 45.482C34.7224 45.482 35.1657 45.5753 35.5764 45.762C35.9871 45.9393 36.3417 46.1867 36.6404 46.504C36.9484 46.8213 37.1817 47.1993 37.3404 47.638C37.5084 48.0673 37.5877 48.5387 37.5784 49.052L37.5644 49.668H31.5584L31.2364 48.52H36.3184L36.1084 48.758V48.422C36.0804 48.114 35.9777 47.8387 35.8004 47.596C35.6231 47.3533 35.3991 47.162 35.1284 47.022C34.8577 46.882 34.5637 46.812 34.2464 46.812C33.7424 46.812 33.3177 46.91 32.9724 47.106C32.6271 47.2927 32.3657 47.5727 32.1884 47.946C32.0111 48.31 31.9224 48.7627 31.9224 49.304C31.9224 49.8173 32.0297 50.2653 32.2444 50.648C32.4591 51.0213 32.7624 51.3107 33.1544 51.516C33.5464 51.7213 33.9991 51.824 34.5124 51.824C34.8764 51.824 35.2124 51.7633 35.5204 51.642C35.8377 51.5207 36.1784 51.3013 36.5424 50.984L37.2704 52.006C37.0464 52.23 36.7711 52.426 36.4444 52.594C36.1271 52.762 35.7864 52.8973 35.4224 53C35.0677 53.0933 34.7177 53.14 34.3724 53.14ZM42.5475 53.14C41.8662 53.14 41.2549 52.972 40.7135 52.636C40.1815 52.3 39.7569 51.8427 39.4395 51.264C39.1315 50.6853 38.9775 50.0367 38.9775 49.318C38.9775 48.5993 39.1315 47.9507 39.4395 47.372C39.7569 46.7933 40.1815 46.336 40.7135 46C41.2549 45.664 41.8662 45.496 42.5475 45.496C43.2009 45.496 43.7935 45.6313 44.3255 45.902C44.8669 46.1633 45.2775 46.5227 45.5575 46.98L44.7595 47.96C44.6102 47.7453 44.4189 47.5493 44.1855 47.372C43.9522 47.1947 43.7049 47.0547 43.4435 46.952C43.1822 46.8493 42.9302 46.798 42.6875 46.798C42.2395 46.798 41.8382 46.91 41.4835 47.134C41.1382 47.3487 40.8629 47.6473 40.6575 48.03C40.4522 48.4127 40.3495 48.842 40.3495 49.318C40.3495 49.794 40.4569 50.2233 40.6715 50.606C40.8862 50.9793 41.1709 51.278 41.5255 51.502C41.8802 51.726 42.2722 51.838 42.7015 51.838C42.9535 51.838 43.1962 51.796 43.4295 51.712C43.6722 51.628 43.9055 51.502 44.1295 51.334C44.3535 51.166 44.5635 50.9607 44.7595 50.718L45.5575 51.698C45.2589 52.118 44.8295 52.4633 44.2695 52.734C43.7189 53.0047 43.1449 53.14 42.5475 53.14ZM48.1077 53V43.774H49.5497V53H48.1077ZM46.5817 47.05V45.65H51.2577V47.05H46.5817ZM52.8508 53V45.65H54.3068V47.96L54.1668 47.4C54.2694 47.0453 54.4421 46.7233 54.6848 46.434C54.9368 46.1447 55.2214 45.916 55.5388 45.748C55.8654 45.58 56.2014 45.496 56.5468 45.496C56.7054 45.496 56.8548 45.51 56.9948 45.538C57.1441 45.566 57.2608 45.5987 57.3448 45.636L56.9668 47.204C56.8548 47.1573 56.7288 47.12 56.5888 47.092C56.4581 47.0547 56.3274 47.036 56.1968 47.036C55.9448 47.036 55.7021 47.0873 55.4688 47.19C55.2448 47.2833 55.0441 47.4187 54.8668 47.596C54.6988 47.764 54.5634 47.9647 54.4608 48.198C54.3581 48.422 54.3068 48.6693 54.3068 48.94V53H52.8508ZM61.7668 53.14C61.0481 53.14 60.4041 52.9767 59.8348 52.65C59.2748 52.314 58.8315 51.8613 58.5048 51.292C58.1781 50.7133 58.0148 50.0553 58.0148 49.318C58.0148 48.5807 58.1781 47.9273 58.5048 47.358C58.8315 46.7793 59.2748 46.3267 59.8348 46C60.4041 45.664 61.0481 45.496 61.7668 45.496C62.4761 45.496 63.1108 45.664 63.6708 46C64.2401 46.3267 64.6881 46.7793 65.0148 47.358C65.3415 47.9273 65.5048 48.5807 65.5048 49.318C65.5048 50.0553 65.3415 50.7133 65.0148 51.292C64.6881 51.8613 64.2401 52.314 63.6708 52.65C63.1108 52.9767 62.4761 53.14 61.7668 53.14ZM61.7668 51.824C62.2055 51.824 62.5975 51.7167 62.9428 51.502C63.2881 51.278 63.5588 50.9793 63.7548 50.606C63.9508 50.2233 64.0441 49.794 64.0348 49.318C64.0441 48.8327 63.9508 48.4033 63.7548 48.03C63.5588 47.6473 63.2881 47.3487 62.9428 47.134C62.5975 46.9193 62.2055 46.812 61.7668 46.812C61.3281 46.812 60.9315 46.924 60.5768 47.148C60.2315 47.3627 59.9608 47.6613 59.7648 48.044C59.5688 48.4173 59.4755 48.842 59.4848 49.318C59.4755 49.794 59.5688 50.2233 59.7648 50.606C59.9608 50.9793 60.2315 51.278 60.5768 51.502C60.9315 51.7167 61.3281 51.824 61.7668 51.824ZM67.3561 53V45.65H68.7981V47.162L68.5461 47.33C68.6394 47.0033 68.8214 46.7047 69.0921 46.434C69.3628 46.154 69.6848 45.93 70.0581 45.762C70.4314 45.5847 70.8141 45.496 71.2061 45.496C71.7661 45.496 72.2328 45.608 72.6061 45.832C72.9794 46.0467 73.2594 46.378 73.4461 46.826C73.6328 47.274 73.7261 47.8387 73.7261 48.52V53H72.2841V48.618C72.2841 48.198 72.2281 47.8527 72.1161 47.582C72.0041 47.302 71.8314 47.1013 71.5981 46.98C71.3648 46.8493 71.0754 46.7933 70.7301 46.812C70.4501 46.812 70.1934 46.8587 69.9601 46.952C69.7268 47.036 69.5214 47.1573 69.3441 47.316C69.1761 47.4747 69.0408 47.6613 68.9381 47.876C68.8448 48.0813 68.7981 48.3053 68.7981 48.548V53H68.0841C67.9628 53 67.8414 53 67.7201 53C67.5988 53 67.4774 53 67.3561 53ZM76.2003 53V45.65H77.6423V53H76.2003ZM76.9003 44.026C76.5923 44.026 76.3543 43.9467 76.1863 43.788C76.0183 43.6293 75.9343 43.4053 75.9343 43.116C75.9343 42.8453 76.0183 42.626 76.1863 42.458C76.3636 42.29 76.6016 42.206 76.9003 42.206C77.2083 42.206 77.4463 42.2853 77.6143 42.444C77.7823 42.6027 77.8663 42.8267 77.8663 43.116C77.8663 43.3867 77.7776 43.606 77.6003 43.774C77.4323 43.942 77.1989 44.026 76.9003 44.026ZM83.2607 53.14C82.5794 53.14 81.9681 52.972 81.4267 52.636C80.8947 52.3 80.4701 51.8427 80.1527 51.264C79.8447 50.6853 79.6907 50.0367 79.6907 49.318C79.6907 48.5993 79.8447 47.9507 80.1527 47.372C80.4701 46.7933 80.8947 46.336 81.4267 46C81.9681 45.664 82.5794 45.496 83.2607 45.496C83.9141 45.496 84.5067 45.6313 85.0387 45.902C85.5801 46.1633 85.9907 46.5227 86.2707 46.98L85.4727 47.96C85.3234 47.7453 85.1321 47.5493 84.8987 47.372C84.6654 47.1947 84.4181 47.0547 84.1567 46.952C83.8954 46.8493 83.6434 46.798 83.4007 46.798C82.9527 46.798 82.5514 46.91 82.1967 47.134C81.8514 47.3487 81.5761 47.6473 81.3707 48.03C81.1654 48.4127 81.0627 48.842 81.0627 49.318C81.0627 49.794 81.1701 50.2233 81.3847 50.606C81.5994 50.9793 81.8841 51.278 82.2387 51.502C82.5934 51.726 82.9854 51.838 83.4147 51.838C83.6667 51.838 83.9094 51.796 84.1427 51.712C84.3854 51.628 84.6187 51.502 84.8427 51.334C85.0667 51.166 85.2767 50.9607 85.4727 50.718L86.2707 51.698C85.9721 52.118 85.5427 52.4633 84.9827 52.734C84.4321 53.0047 83.8581 53.14 83.2607 53.14ZM90.3609 53.14C89.7449 53.14 89.1896 53.0327 88.6949 52.818C88.2003 52.6033 87.7896 52.286 87.4629 51.866L88.4429 51.026C88.7229 51.3527 89.0263 51.5907 89.3529 51.74C89.6889 51.88 90.0669 51.95 90.4869 51.95C90.6549 51.95 90.8089 51.9313 90.9489 51.894C91.0983 51.8473 91.2243 51.782 91.3269 51.698C91.4389 51.614 91.5229 51.516 91.5789 51.404C91.6349 51.2827 91.6629 51.152 91.6629 51.012C91.6629 50.7693 91.5743 50.5733 91.3969 50.424C91.3036 50.3587 91.1543 50.2887 90.9489 50.214C90.7529 50.13 90.4963 50.046 90.1789 49.962C89.6376 49.822 89.1943 49.6633 88.8489 49.486C88.5036 49.3087 88.2376 49.108 88.0509 48.884C87.9109 48.7067 87.8083 48.5153 87.7429 48.31C87.6776 48.0953 87.6449 47.862 87.6449 47.61C87.6449 47.1993 87.7616 46.8353 87.9949 46.518C88.2283 46.2007 88.5409 45.9533 88.9329 45.776C89.3343 45.5893 89.7823 45.496 90.2769 45.496C90.6223 45.496 90.9629 45.5427 91.2989 45.636C91.6443 45.7293 91.9616 45.8647 92.2509 46.042C92.5403 46.2193 92.7829 46.4293 92.9789 46.672L92.1529 47.582C91.9756 47.4047 91.7796 47.2507 91.5649 47.12C91.3596 46.98 91.1496 46.8727 90.9349 46.798C90.7203 46.7233 90.5243 46.686 90.3469 46.686C90.1509 46.686 89.9736 46.7047 89.8149 46.742C89.6563 46.7793 89.5209 46.8353 89.4089 46.91C89.3063 46.9847 89.2269 47.078 89.1709 47.19C89.1149 47.302 89.0869 47.428 89.0869 47.568C89.0963 47.6893 89.1243 47.806 89.1709 47.918C89.2269 48.0207 89.3016 48.1093 89.3949 48.184C89.4976 48.2587 89.6516 48.338 89.8569 48.422C90.0623 48.506 90.3236 48.5853 90.6409 48.66C91.1076 48.7813 91.4903 48.9167 91.7889 49.066C92.0969 49.206 92.3396 49.3693 92.5169 49.556C92.7036 49.7333 92.8343 49.9387 92.9089 50.172C92.9836 50.4053 93.0209 50.6667 93.0209 50.956C93.0209 51.376 92.8996 51.754 92.6569 52.09C92.4236 52.4167 92.1063 52.6733 91.7049 52.86C91.3036 53.0467 90.8556 53.14 90.3609 53.14Z" fill="white"></path><g clip-path="url(#clip0_1427_6396)"><path fill-rule="evenodd" clip-rule="evenodd" d="M48.2582 23.4883C47.9739 23.5148 47.7007 23.6112 47.4627 23.769C46.8316 23.3552 46.0153 23.3914 45.5087 23.8972C45.211 24.1951 45.0438 24.599 45.0438 25.0201C45.0438 25.4412 45.211 25.8451 45.5087 26.1429L47.1727 27.8054C47.2107 27.8438 47.2559 27.8742 47.3057 27.895C47.3555 27.9157 47.409 27.9264 47.4629 27.9264C47.5169 27.9264 47.5703 27.9157 47.6201 27.895C47.67 27.8742 47.7152 27.8438 47.7531 27.8054L49.4155 26.1429C49.5631 25.9985 49.6803 25.8261 49.7603 25.6358C49.8402 25.4454 49.8814 25.2411 49.8813 25.0346C49.8826 24.8238 49.8423 24.6148 49.7626 24.4197C49.683 24.2245 49.5656 24.0469 49.4172 23.8972C49.2663 23.7475 49.0841 23.6332 48.8837 23.5625C48.6832 23.4917 48.4696 23.4664 48.2582 23.4883ZM48.8405 25.5573C48.8393 25.5597 48.838 25.5597 48.8368 25.562L47.4629 26.9341L46.089 25.5621C45.9453 25.4183 45.8646 25.2234 45.8646 25.0201C45.8646 24.8168 45.9453 24.6218 46.089 24.478C46.146 24.421 46.214 24.3761 46.2889 24.3462C46.3638 24.3162 46.4439 24.3018 46.5245 24.3038C46.7691 24.3109 47.0013 24.4124 47.1727 24.5869C47.2498 24.6636 47.3542 24.7067 47.4629 24.7067C47.5717 24.7067 47.676 24.6636 47.7531 24.5869C47.9081 24.4297 48.1124 24.3306 48.3318 24.3063C48.4235 24.2954 48.5164 24.3053 48.6038 24.335C48.6912 24.3647 48.7708 24.4136 48.8369 24.4781C48.9087 24.5507 48.9654 24.6369 49.0038 24.7316C49.0422 24.8263 49.0614 24.9276 49.0605 25.0298C49.061 25.128 49.0418 25.2253 49.004 25.3159C48.9663 25.4065 48.9106 25.4886 48.8405 25.5574V25.5573ZM46.9169 11.708H64.1077C64.1805 11.708 64.2525 11.7224 64.3196 11.7502C64.3868 11.7781 64.4478 11.8189 64.4992 11.8704C64.5506 11.9219 64.5913 11.983 64.6191 12.0502C64.6468 12.1174 64.661 12.1895 64.6609 12.2622V18.295H61.4399C61.1441 18.2954 60.8606 18.413 60.6514 18.6222C60.4422 18.8313 60.3245 19.1148 60.324 19.4106V23.6068H51.3355V23.0962C51.3356 22.8984 51.2892 22.7034 51.2001 22.5268C51.111 22.3503 50.9816 22.1971 50.8225 22.0797L49.8883 18.7209C49.855 18.598 49.782 18.4896 49.6807 18.4126C49.5793 18.3356 49.4554 18.2942 49.3281 18.295H46.3638V12.2622C46.3636 12.1895 46.3778 12.1174 46.4056 12.0502C46.4333 11.983 46.474 11.9219 46.5254 11.8704C46.5768 11.8189 46.6378 11.7781 46.705 11.7502C46.7722 11.7224 46.8442 11.708 46.9169 11.708ZM53.4547 24.4272H57.5703V24.8266H53.4547V24.4272ZM44.855 28.7565C44.7371 28.7561 44.6241 28.709 44.5408 28.6255C44.4575 28.5421 44.4106 28.4291 44.4104 28.3112V23.0962C44.4106 22.9783 44.4575 22.8653 44.5408 22.7818C44.6241 22.6984 44.7371 22.6513 44.855 22.6509H50.0703C50.1882 22.6513 50.3011 22.6984 50.3844 22.7819C50.4677 22.8653 50.5146 22.9783 50.5148 23.0962V28.3112C50.5146 28.4291 50.4677 28.5421 50.3844 28.6256C50.3011 28.709 50.1882 28.7561 50.0703 28.7565L44.855 28.7565ZM45.7789 19.1155L45.0237 21.8306H49.9016L49.1465 19.1155H45.7789ZM44.3289 26.6416H44.4104V24.7683H44.3289C44.2426 24.7688 44.1599 24.8031 44.0985 24.8637C44.037 24.9243 44.0017 25.0066 44 25.0929V26.3125C44.0015 26.3993 44.0366 26.4821 44.098 26.5435C44.1593 26.6049 44.2421 26.6401 44.3289 26.6417V26.6416ZM49.1462 32.292H45.7789L45.0237 29.5768H49.9016L49.1464 32.292H49.1462ZM51.3353 26.2228H60.324V24.4272H58.391V24.9886C58.3907 25.1633 58.3212 25.3306 58.1976 25.4541C58.074 25.5775 57.9065 25.6468 57.7319 25.6469H53.2928C53.1182 25.6468 52.9507 25.5775 52.8272 25.4541C52.7036 25.3307 52.634 25.1633 52.6337 24.9887V24.4272H51.3355V26.2228H51.3353ZM68 31.9968V19.4108C67.9999 19.3326 67.9687 19.2576 67.9135 19.2023C67.8582 19.1469 67.7832 19.1157 67.705 19.1155H61.4399C61.3617 19.1157 61.2866 19.1468 61.2313 19.2022C61.176 19.2575 61.1448 19.3325 61.1446 19.4108V31.9968C61.1448 32.075 61.176 32.15 61.2313 32.2054C61.2866 32.2607 61.3617 32.2919 61.4399 32.2921H67.705C67.7832 32.2918 67.8582 32.2606 67.9135 32.2053C67.9687 32.15 67.9999 32.075 68 31.9968ZM64.5725 29.9834C64.7732 29.9833 64.9694 30.0428 65.1364 30.1543C65.3034 30.2657 65.4335 30.4242 65.5104 30.6096C65.5874 30.795 65.6076 30.9991 65.5685 31.196C65.5295 31.3929 65.4329 31.5738 65.2911 31.7159C65.1492 31.8579 64.9685 31.9547 64.7716 31.9941C64.5748 32.0334 64.3707 32.0135 64.1851 31.9368C63.9996 31.8602 63.8409 31.7302 63.7292 31.5634C63.6175 31.3966 63.5578 31.2005 63.5576 30.9997C63.5575 30.7304 63.6644 30.4721 63.8547 30.2815C64.045 30.0909 64.3031 29.9837 64.5725 29.9834ZM64.5725 31.1933C64.5342 31.1932 64.4968 31.1818 64.465 31.1605C64.4332 31.1392 64.4085 31.1089 64.3939 31.0736C64.3793 31.0382 64.3755 30.9993 64.383 30.9617C64.3905 30.9242 64.409 30.8897 64.4361 30.8627C64.4632 30.8357 64.4977 30.8173 64.5352 30.8098C64.5727 30.8024 64.6116 30.8062 64.647 30.8209C64.6824 30.8356 64.7126 30.8604 64.7338 30.8922C64.7551 30.924 64.7664 30.9615 64.7664 30.9997C64.7663 31.0511 64.7458 31.1003 64.7094 31.1366C64.6731 31.1729 64.6238 31.1933 64.5725 31.1933ZM64.162 20.0108C64.1621 20.092 64.1863 20.1714 64.2315 20.2388C64.2767 20.3063 64.3409 20.3588 64.4159 20.3898C64.491 20.4209 64.5735 20.4289 64.6531 20.413C64.7328 20.3972 64.8059 20.358 64.8633 20.3006C64.9207 20.2432 64.9598 20.17 64.9756 20.0904C64.9915 20.0107 64.9834 19.9282 64.9523 19.8532C64.9213 19.7781 64.8687 19.714 64.8012 19.6688C64.7338 19.6237 64.6544 19.5995 64.5732 19.5994H64.5717C64.5177 19.5995 64.4643 19.6102 64.4146 19.6309C64.3648 19.6516 64.3196 19.682 64.2815 19.7202C64.2435 19.7584 64.2133 19.8037 64.1928 19.8536C64.1723 19.9035 64.1618 19.9569 64.162 20.0108Z" fill="white"></path></g><defs><linearGradient id="paint0_linear_1427_6396" x1="-29.7682" y1="-46.5" x2="84.0583" y2="89.0162" gradientUnits="userSpaceOnUse"><stop stop-color="#FD5900"></stop><stop offset="1" stop-color="#FF9900"></stop></linearGradient><clipPath id="clip0_1427_6396"><rect width="24" height="24" fill="white" transform="translate(44 10)"></rect></clipPath></defs></svg>