<svg xmlns="http://www.w3.org/2000/svg" width="1284" height="321" viewBox="0 0 1284 321" fill="none"><path d="M1 249.5C63.5 299.667 232.4 372.4 408 262C627.5 124 662.5 126 942.5 148C1166.5 165.6 1244.83 82.6667 1256 39" stroke="#039D55" stroke-opacity="0.3" stroke-dasharray="6 6"></path><path d="M1245.72 21.2821L1246.56 18.3252L1259.77 14.5507L1260.38 11.1763C1260.78 8.39828 1262.18 6.52081 1263.39 6.05658L1263.45 5.80874C1263.96 3.97966 1265.13 3.6105 1265.99 3.85697C1266.85 4.10345 1267.64 5.00374 1267.14 6.84544L1267.07 7.08692C1267.72 7.88127 1268.45 9.64782 1266.97 13.0255L1265.72 16.224L1274.99 26.3572L1274.17 29.3204L1263.02 23.0676L1260.07 31.06L1261.81 34.0458L1261.03 36.3067L1258.61 34.5362L1258.16 35.2007L1256.4 34.712L1256.32 33.8742L1253.28 34.1286L1253.8 31.7937L1256.83 30.1616L1258.49 21.7971L1245.72 21.2821ZM1257.45 30.5606L1254.4 32.2018L1254.17 33.3056L1256.94 33.0644L1257.06 34.0977L1257.88 34.333L1258.45 33.5008L1260.71 35.1528L1261.09 34.055L1259.35 31.063L1262.7 22.0277L1273.77 28.2455L1274.27 26.4741L1264.92 16.3483L1266.34 12.742C1267.77 9.47482 1267.01 7.975 1266.43 7.3733L1266.27 7.24069L1266.34 7.0414C1266.39 6.92004 1266.43 6.79449 1266.46 6.6661C1266.78 5.54596 1266.52 4.7128 1265.78 4.51109C1265.04 4.30939 1264.38 4.86737 1264.07 5.99382C1264.03 6.11788 1264 6.24446 1263.98 6.37259L1263.95 6.58937L1263.73 6.64682C1262.85 6.87181 1261.43 8.46018 1261.01 11.2896L1260.34 15.082L1247.09 18.8608L1246.59 20.6322L1259.29 21.0966L1257.45 30.5606Z" fill="#039D55" fill-opacity="0.3"></path><path d="M681.592 307.204L678.981 305.584L679.009 291.843L675.934 290.326C673.377 289.168 671.96 287.303 671.847 286.018L671.625 285.892C670.009 284.896 669.98 283.662 670.453 282.907C670.927 282.152 672.011 281.643 673.644 282.627L673.857 282.759C674.798 282.361 676.697 282.151 679.535 284.502L682.263 286.589L694.566 280.48L697.185 282.095L688.093 291.075L694.957 296.121L698.306 295.28L700.266 296.647L697.893 298.489L698.407 299.106L697.451 300.659L696.624 300.502L696.027 303.499L693.927 302.351L693.198 298.986L685.617 295.083L681.592 307.204ZM693.752 298.504L694.484 301.891L695.482 302.416L696.018 299.682L697.042 299.859L697.497 299.129L696.853 298.359L699.067 296.639L698.117 295.972L694.76 296.818L687.003 291.101L696.041 282.183L694.477 281.211L682.162 287.39L679.088 285.032C676.345 282.748 674.692 283.068 673.954 283.459L673.781 283.579L673.61 283.455C673.507 283.371 673.398 283.296 673.284 283.231C672.295 282.614 671.422 282.636 671.024 283.29C670.626 283.944 670.979 284.733 671.975 285.344C672.084 285.415 672.197 285.479 672.315 285.535L672.514 285.628L672.509 285.85C672.482 286.758 673.615 288.564 676.217 289.752L679.678 291.44L679.643 305.221L681.206 306.193L685.166 294.118L693.752 298.504Z" fill="#039D55" fill-opacity="0.3"></path></svg>