<svg xmlns="http://www.w3.org/2000/svg" width="117" height="98" viewBox="0 0 117 98" fill="none"><path d="M0 20.8678V47.5041C0 56.2418 5.38417 63.7311 13.0209 66.8254C15.4463 67.8161 18.0952 68.3599 20.8678 68.3599H69.2746C70.3518 71.788 71.5645 74.8078 72.8636 77.4701C81.7265 95.7635 94.4614 97.3605 94.4614 97.3605C90.0679 93.1027 87.1956 86.9632 85.3393 80.849C83.9776 76.4302 83.1358 72.0233 82.6293 68.3599H95.4268C95.7858 68.3599 96.1449 68.348 96.4905 68.3227C96.6886 68.3227 96.8868 68.2973 97.0849 68.2854C97.1713 68.2854 97.2711 68.2854 97.3576 68.2601C102.63 67.7893 107.333 65.3386 110.712 61.6751C114.178 57.9506 116.295 52.9746 116.295 47.5041V20.8678C116.295 9.34408 106.95 0 95.4268 0H20.8692C9.34557 0 0.00148672 9.34408 0.00148672 20.8678H0Z" fill="url(#paint0_linear_1427_6296)"></path><path d="M11.8639 53V43.2H15.8539C16.3859 43.2 16.8665 43.3353 17.2959 43.606C17.7345 43.8673 18.0845 44.2267 18.3459 44.684C18.6072 45.1413 18.7379 45.65 18.7379 46.21C18.7379 46.77 18.6072 47.2787 18.3459 47.736C18.0845 48.1933 17.7345 48.562 17.2959 48.842C16.8665 49.1127 16.3859 49.248 15.8539 49.248H13.3759V53H11.8639ZM13.3759 47.792H15.8259C16.0779 47.792 16.3065 47.722 16.5119 47.582C16.7172 47.4327 16.8805 47.2413 17.0019 47.008C17.1325 46.7653 17.1979 46.4993 17.1979 46.21C17.1979 45.9207 17.1325 45.6593 17.0019 45.426C16.8805 45.1927 16.7172 45.006 16.5119 44.866C16.3065 44.726 16.0779 44.656 15.8259 44.656H13.3759V47.792ZM23.9462 53.14C23.1902 53.14 22.5182 52.9813 21.9302 52.664C21.3515 52.3373 20.8942 51.894 20.5582 51.334C20.2315 50.774 20.0682 50.13 20.0682 49.402C20.0682 48.8233 20.1615 48.296 20.3482 47.82C20.5349 47.344 20.7915 46.9333 21.1182 46.588C21.4542 46.2333 21.8509 45.9627 22.3082 45.776C22.7749 45.58 23.2789 45.482 23.8202 45.482C24.2962 45.482 24.7395 45.5753 25.1502 45.762C25.5609 45.9393 25.9155 46.1867 26.2142 46.504C26.5222 46.8213 26.7555 47.1993 26.9142 47.638C27.0822 48.0673 27.1615 48.5387 27.1522 49.052L27.1382 49.668H21.1322L20.8102 48.52H25.8922L25.6822 48.758V48.422C25.6542 48.114 25.5515 47.8387 25.3742 47.596C25.1969 47.3533 24.9729 47.162 24.7022 47.022C24.4315 46.882 24.1375 46.812 23.8202 46.812C23.3162 46.812 22.8915 46.91 22.5462 47.106C22.2009 47.2927 21.9395 47.5727 21.7622 47.946C21.5849 48.31 21.4962 48.7627 21.4962 49.304C21.4962 49.8173 21.6035 50.2653 21.8182 50.648C22.0329 51.0213 22.3362 51.3107 22.7282 51.516C23.1202 51.7213 23.5729 51.824 24.0862 51.824C24.4502 51.824 24.7862 51.7633 25.0942 51.642C25.4115 51.5207 25.7522 51.3013 26.1162 50.984L26.8442 52.006C26.6202 52.23 26.3449 52.426 26.0182 52.594C25.7009 52.762 25.3602 52.8973 24.9962 53C24.6415 53.0933 24.2915 53.14 23.9462 53.14ZM28.9993 53V45.65H30.4553V47.96L30.3153 47.4C30.418 47.0453 30.5907 46.7233 30.8333 46.434C31.0853 46.1447 31.37 45.916 31.6873 45.748C32.014 45.58 32.35 45.496 32.6953 45.496C32.854 45.496 33.0033 45.51 33.1433 45.538C33.2927 45.566 33.4093 45.5987 33.4933 45.636L33.1153 47.204C33.0033 47.1573 32.8773 47.12 32.7373 47.092C32.6067 47.0547 32.476 47.036 32.3453 47.036C32.0933 47.036 31.8507 47.0873 31.6173 47.19C31.3933 47.2833 31.1927 47.4187 31.0153 47.596C30.8473 47.764 30.712 47.9647 30.6093 48.198C30.5067 48.422 30.4553 48.6693 30.4553 48.94V53H28.9993ZM37.3758 53.14C36.7598 53.14 36.2045 53.0327 35.7098 52.818C35.2151 52.6033 34.8045 52.286 34.4778 51.866L35.4578 51.026C35.7378 51.3527 36.0411 51.5907 36.3678 51.74C36.7038 51.88 37.0818 51.95 37.5018 51.95C37.6698 51.95 37.8238 51.9313 37.9638 51.894C38.1131 51.8473 38.2391 51.782 38.3418 51.698C38.4538 51.614 38.5378 51.516 38.5938 51.404C38.6498 51.2827 38.6778 51.152 38.6778 51.012C38.6778 50.7693 38.5891 50.5733 38.4118 50.424C38.3185 50.3587 38.1691 50.2887 37.9638 50.214C37.7678 50.13 37.5111 50.046 37.1938 49.962C36.6525 49.822 36.2091 49.6633 35.8638 49.486C35.5185 49.3087 35.2525 49.108 35.0658 48.884C34.9258 48.7067 34.8231 48.5153 34.7578 48.31C34.6925 48.0953 34.6598 47.862 34.6598 47.61C34.6598 47.1993 34.7765 46.8353 35.0098 46.518C35.2431 46.2007 35.5558 45.9533 35.9478 45.776C36.3491 45.5893 36.7971 45.496 37.2918 45.496C37.6371 45.496 37.9778 45.5427 38.3138 45.636C38.6591 45.7293 38.9765 45.8647 39.2658 46.042C39.5551 46.2193 39.7978 46.4293 39.9938 46.672L39.1678 47.582C38.9905 47.4047 38.7945 47.2507 38.5798 47.12C38.3745 46.98 38.1645 46.8727 37.9498 46.798C37.7351 46.7233 37.5391 46.686 37.3618 46.686C37.1658 46.686 36.9885 46.7047 36.8298 46.742C36.6711 46.7793 36.5358 46.8353 36.4238 46.91C36.3211 46.9847 36.2418 47.078 36.1858 47.19C36.1298 47.302 36.1018 47.428 36.1018 47.568C36.1111 47.6893 36.1391 47.806 36.1858 47.918C36.2418 48.0207 36.3165 48.1093 36.4098 48.184C36.5125 48.2587 36.6665 48.338 36.8718 48.422C37.0771 48.506 37.3385 48.5853 37.6558 48.66C38.1225 48.7813 38.5051 48.9167 38.8038 49.066C39.1118 49.206 39.3545 49.3693 39.5318 49.556C39.7185 49.7333 39.8491 49.9387 39.9238 50.172C39.9985 50.4053 40.0358 50.6667 40.0358 50.956C40.0358 51.376 39.9145 51.754 39.6718 52.09C39.4385 52.4167 39.1211 52.6733 38.7198 52.86C38.3185 53.0467 37.8705 53.14 37.3758 53.14ZM45.209 53.14C44.4904 53.14 43.8464 52.9767 43.277 52.65C42.717 52.314 42.2737 51.8613 41.947 51.292C41.6204 50.7133 41.457 50.0553 41.457 49.318C41.457 48.5807 41.6204 47.9273 41.947 47.358C42.2737 46.7793 42.717 46.3267 43.277 46C43.8464 45.664 44.4904 45.496 45.209 45.496C45.9184 45.496 46.553 45.664 47.113 46C47.6824 46.3267 48.1304 46.7793 48.457 47.358C48.7837 47.9273 48.947 48.5807 48.947 49.318C48.947 50.0553 48.7837 50.7133 48.457 51.292C48.1304 51.8613 47.6824 52.314 47.113 52.65C46.553 52.9767 45.9184 53.14 45.209 53.14ZM45.209 51.824C45.6477 51.824 46.0397 51.7167 46.385 51.502C46.7304 51.278 47.001 50.9793 47.197 50.606C47.393 50.2233 47.4864 49.794 47.477 49.318C47.4864 48.8327 47.393 48.4033 47.197 48.03C47.001 47.6473 46.7304 47.3487 46.385 47.134C46.0397 46.9193 45.6477 46.812 45.209 46.812C44.7704 46.812 44.3737 46.924 44.019 47.148C43.6737 47.3627 43.403 47.6613 43.207 48.044C43.011 48.4173 42.9177 48.842 42.927 49.318C42.9177 49.794 43.011 50.2233 43.207 50.606C43.403 50.9793 43.6737 51.278 44.019 51.502C44.3737 51.7167 44.7704 51.824 45.209 51.824ZM50.7983 53V45.65H52.2403V47.162L51.9883 47.33C52.0816 47.0033 52.2636 46.7047 52.5343 46.434C52.805 46.154 53.127 45.93 53.5003 45.762C53.8736 45.5847 54.2563 45.496 54.6483 45.496C55.2083 45.496 55.675 45.608 56.0483 45.832C56.4216 46.0467 56.7016 46.378 56.8883 46.826C57.075 47.274 57.1683 47.8387 57.1683 48.52V53H55.7263V48.618C55.7263 48.198 55.6703 47.8527 55.5583 47.582C55.4463 47.302 55.2736 47.1013 55.0403 46.98C54.807 46.8493 54.5176 46.7933 54.1723 46.812C53.8923 46.812 53.6356 46.8587 53.4023 46.952C53.169 47.036 52.9636 47.1573 52.7863 47.316C52.6183 47.4747 52.483 47.6613 52.3803 47.876C52.287 48.0813 52.2403 48.3053 52.2403 48.548V53H51.5263C51.405 53 51.2836 53 51.1623 53C51.041 53 50.9196 53 50.7983 53ZM63.7585 53V48.212C63.7585 47.8013 63.6092 47.47 63.3105 47.218C63.0212 46.9567 62.6525 46.826 62.2045 46.826C61.7938 46.826 61.4205 46.91 61.0845 47.078C60.7578 47.246 60.4592 47.5027 60.1885 47.848L59.2505 46.91C59.6892 46.434 60.1605 46.0793 60.6645 45.846C61.1778 45.6127 61.7285 45.496 62.3165 45.496C62.8765 45.496 63.3618 45.5893 63.7725 45.776C64.1832 45.9627 64.5005 46.238 64.7245 46.602C64.9485 46.9567 65.0605 47.3907 65.0605 47.904V53H63.7585ZM61.5605 53.14C61.0845 53.14 60.6598 53.0467 60.2865 52.86C59.9132 52.6733 59.6145 52.4167 59.3905 52.09C59.1758 51.754 59.0685 51.362 59.0685 50.914C59.0685 50.522 59.1385 50.1767 59.2785 49.878C59.4185 49.5793 59.6238 49.332 59.8945 49.136C60.1745 48.94 60.5198 48.7907 60.9305 48.688C61.3505 48.5853 61.8312 48.534 62.3725 48.534H64.4165L64.2905 49.682H62.1905C61.9105 49.682 61.6585 49.71 61.4345 49.766C61.2198 49.8127 61.0332 49.892 60.8745 50.004C60.7252 50.1067 60.6132 50.2327 60.5385 50.382C60.4638 50.522 60.4265 50.69 60.4265 50.886C60.4265 51.0913 60.4778 51.2733 60.5805 51.432C60.6832 51.5813 60.8232 51.698 61.0005 51.782C61.1778 51.866 61.3832 51.908 61.6165 51.908C61.9525 51.908 62.2698 51.852 62.5685 51.74C62.8765 51.6187 63.1472 51.4553 63.3805 51.25C63.6232 51.0447 63.8098 50.816 63.9405 50.564L64.2765 51.502C64.0805 51.8287 63.8378 52.1133 63.5485 52.356C63.2592 52.5987 62.9465 52.79 62.6105 52.93C62.2745 53.07 61.9245 53.14 61.5605 53.14ZM67.191 53V42.64H68.633V53H67.191ZM79.5005 53.14C78.8192 53.14 78.1938 53.0187 77.6245 52.776C77.0552 52.5333 76.5605 52.188 76.1405 51.74C75.7205 51.2827 75.3938 50.746 75.1605 50.13C74.9365 49.514 74.8245 48.8373 74.8245 48.1C74.8245 47.4 74.9458 46.7513 75.1885 46.154C75.4405 45.5473 75.7858 45.0153 76.2245 44.558C76.6632 44.1007 77.1718 43.746 77.7505 43.494C78.3292 43.242 78.9545 43.116 79.6265 43.116C80.1025 43.116 80.5645 43.1907 81.0125 43.34C81.4698 43.48 81.8805 43.6807 82.2445 43.942C82.6178 44.194 82.9212 44.4833 83.1545 44.81L82.1465 45.86C81.7452 45.4493 81.3345 45.1413 80.9145 44.936C80.4945 44.7307 80.0652 44.628 79.6265 44.628C79.1692 44.628 78.7398 44.7167 78.3385 44.894C77.9465 45.062 77.6012 45.3 77.3025 45.608C77.0132 45.916 76.7845 46.2847 76.6165 46.714C76.4485 47.134 76.3645 47.596 76.3645 48.1C76.3645 48.632 76.4438 49.1173 76.6025 49.556C76.7705 49.9853 77.0038 50.354 77.3025 50.662C77.6012 50.97 77.9558 51.208 78.3665 51.376C78.7865 51.5347 79.2485 51.614 79.7525 51.614C80.0605 51.614 80.3638 51.572 80.6625 51.488C80.9612 51.404 81.2412 51.2827 81.5025 51.124C81.7638 50.9653 82.0018 50.7787 82.2165 50.564L82.9725 51.796C82.7578 52.048 82.4638 52.2767 82.0905 52.482C81.7265 52.6873 81.3158 52.8507 80.8585 52.972C80.4105 53.084 79.9578 53.14 79.5005 53.14ZM89.2965 53V48.212C89.2965 47.8013 89.1471 47.47 88.8485 47.218C88.5591 46.9567 88.1905 46.826 87.7425 46.826C87.3318 46.826 86.9585 46.91 86.6225 47.078C86.2958 47.246 85.9971 47.5027 85.7265 47.848L84.7885 46.91C85.2271 46.434 85.6985 46.0793 86.2025 45.846C86.7158 45.6127 87.2665 45.496 87.8545 45.496C88.4145 45.496 88.8998 45.5893 89.3105 45.776C89.7211 45.9627 90.0385 46.238 90.2625 46.602C90.4865 46.9567 90.5985 47.3907 90.5985 47.904V53H89.2965ZM87.0985 53.14C86.6225 53.14 86.1978 53.0467 85.8245 52.86C85.4511 52.6733 85.1525 52.4167 84.9285 52.09C84.7138 51.754 84.6065 51.362 84.6065 50.914C84.6065 50.522 84.6765 50.1767 84.8165 49.878C84.9565 49.5793 85.1618 49.332 85.4325 49.136C85.7125 48.94 86.0578 48.7907 86.4685 48.688C86.8885 48.5853 87.3691 48.534 87.9105 48.534H89.9545L89.8285 49.682H87.7285C87.4485 49.682 87.1965 49.71 86.9725 49.766C86.7578 49.8127 86.5711 49.892 86.4125 50.004C86.2631 50.1067 86.1511 50.2327 86.0765 50.382C86.0018 50.522 85.9645 50.69 85.9645 50.886C85.9645 51.0913 86.0158 51.2733 86.1185 51.432C86.2211 51.5813 86.3611 51.698 86.5385 51.782C86.7158 51.866 86.9211 51.908 87.1545 51.908C87.4905 51.908 87.8078 51.852 88.1065 51.74C88.4145 51.6187 88.6851 51.4553 88.9185 51.25C89.1611 51.0447 89.3478 50.816 89.4785 50.564L89.8145 51.502C89.6185 51.8287 89.3758 52.1133 89.0865 52.356C88.7971 52.5987 88.4845 52.79 88.1485 52.93C87.8125 53.07 87.4625 53.14 87.0985 53.14ZM92.701 53V45.65H94.157V47.96L94.017 47.4C94.1196 47.0453 94.2923 46.7233 94.535 46.434C94.787 46.1447 95.0716 45.916 95.389 45.748C95.7156 45.58 96.0516 45.496 96.397 45.496C96.5556 45.496 96.705 45.51 96.845 45.538C96.9943 45.566 97.111 45.5987 97.195 45.636L96.817 47.204C96.705 47.1573 96.579 47.12 96.439 47.092C96.3083 47.0547 96.1776 47.036 96.047 47.036C95.795 47.036 95.5523 47.0873 95.319 47.19C95.095 47.2833 94.8943 47.4187 94.717 47.596C94.549 47.764 94.4136 47.9647 94.311 48.198C94.2083 48.422 94.157 48.6693 94.157 48.94V53H92.701ZM101.743 53.14C100.987 53.14 100.315 52.9813 99.727 52.664C99.1483 52.3373 98.691 51.894 98.355 51.334C98.0283 50.774 97.865 50.13 97.865 49.402C97.865 48.8233 97.9583 48.296 98.145 47.82C98.3317 47.344 98.5883 46.9333 98.915 46.588C99.251 46.2333 99.6477 45.9627 100.105 45.776C100.572 45.58 101.076 45.482 101.617 45.482C102.093 45.482 102.536 45.5753 102.947 45.762C103.358 45.9393 103.712 46.1867 104.011 46.504C104.319 46.8213 104.552 47.1993 104.711 47.638C104.879 48.0673 104.958 48.5387 104.949 49.052L104.935 49.668H98.929L98.607 48.52H103.689L103.479 48.758V48.422C103.451 48.114 103.348 47.8387 103.171 47.596C102.994 47.3533 102.77 47.162 102.499 47.022C102.228 46.882 101.934 46.812 101.617 46.812C101.113 46.812 100.688 46.91 100.343 47.106C99.9977 47.2927 99.7363 47.5727 99.559 47.946C99.3817 48.31 99.293 48.7627 99.293 49.304C99.293 49.8173 99.4003 50.2653 99.615 50.648C99.8297 51.0213 100.133 51.3107 100.525 51.516C100.917 51.7213 101.37 51.824 101.883 51.824C102.247 51.824 102.583 51.7633 102.891 51.642C103.208 51.5207 103.549 51.3013 103.913 50.984L104.641 52.006C104.417 52.23 104.142 52.426 103.815 52.594C103.498 52.762 103.157 52.8973 102.793 53C102.438 53.0933 102.088 53.14 101.743 53.14Z" fill="white"></path><g clip-path="url(#clip0_1427_6296)"><path d="M60.9524 29.8043H67.6551V33.2963C67.6551 33.6844 67.3402 33.9993 66.9521 33.9993H60.9524V29.8043Z" fill="white"></path><path d="M69.5572 14.2661L67.7592 28.3981H60.9524V24.8592C60.9524 24.1294 60.5797 23.4854 60.0149 23.1066V22.022C60.0149 20.8591 59.0686 19.9128 57.9057 19.9128H57.564L56.7625 14.2661H69.5572Z" fill="white"></path><path d="M69.993 10.8393L69.7361 12.8599H56.5744L56.3175 10.8393C56.2566 10.4324 56.6034 10.0378 57.015 10.0476H69.2955C69.7071 10.0377 70.0539 10.4324 69.993 10.8393Z" fill="white"></path><path d="M53.3118 11.1022H52.9134V10.7038C52.9134 10.3155 52.5986 10.0007 52.2103 10.0007C51.8221 10.0007 51.5073 10.3155 51.5073 10.7038V11.1022H51.1088C50.7206 11.1022 50.4058 11.417 50.4058 11.8053C50.4058 12.1935 50.7206 12.5083 51.1088 12.5083H51.5073V12.9068C51.5073 13.295 51.8221 13.6098 52.2103 13.6098C52.5986 13.6098 52.9134 13.295 52.9134 12.9068V12.5083H53.3118C53.7001 12.5083 54.0149 12.1935 54.0149 11.8053C54.0149 11.417 53.7001 11.1022 53.3118 11.1022Z" fill="white"></path><path d="M47.406 12.5083C47.7943 12.5083 48.1091 12.1936 48.1091 11.8053C48.1091 11.417 47.7943 11.1022 47.406 11.1022C47.0177 11.1022 46.7029 11.417 46.7029 11.8053C46.7029 12.1936 47.0177 12.5083 47.406 12.5083Z" fill="white"></path><path d="M49.5153 16.2347C49.9036 16.2347 50.2184 15.9199 50.2184 15.5316C50.2184 15.1433 49.9036 14.8286 49.5153 14.8286C49.127 14.8286 48.8123 15.1433 48.8123 15.5316C48.8123 15.9199 49.127 16.2347 49.5153 16.2347Z" fill="white"></path><path d="M54.0387 18.5606C53.5737 18.2198 53.1111 17.9512 52.7731 17.7712C52.4708 17.6105 52.2679 17.5205 52.2505 17.513C51.8643 17.3273 51.3673 17.5698 51.284 17.9906C51.262 18.0726 50.9986 18.9848 49.9341 19.9128H55.421C55.098 19.4506 54.6368 18.9988 54.0387 18.5606Z" fill="white"></path><path d="M58.6087 22.022V23.6874H46.9375V22.022C46.9375 21.6339 47.2525 21.3189 47.6406 21.3189H57.9056C58.2937 21.3189 58.6087 21.6339 58.6087 22.022Z" fill="white"></path><path d="M49.7498 28.8434H55.7963V30.2496H49.7498V28.8434Z" fill="white"></path><path d="M58.843 25.0936H46.7031C46.315 25.0936 46 25.4085 46 25.7967V33.2962C46 33.6843 46.315 33.9993 46.7031 33.9993H59.5461V25.7967C59.5461 25.4085 59.2311 25.0936 58.843 25.0936ZM57.2025 30.9526C57.2025 31.3407 56.8875 31.6557 56.4994 31.6557H49.0467C48.6586 31.6557 48.3436 31.3407 48.3436 30.9526V28.1403C48.3436 27.7522 48.6586 27.4372 49.0467 27.4372H56.4994C56.8875 27.4372 57.2025 27.7522 57.2025 28.1403V30.9526Z" fill="white"></path></g><defs><linearGradient id="paint0_linear_1427_6296" x1="52.504" y1="106.814" x2="60.5503" y2="8.52879" gradientUnits="userSpaceOnUse"><stop stop-color="#FD3A84"></stop><stop offset="1" stop-color="#FF8B6A"></stop></linearGradient><clipPath id="clip0_1427_6296"><rect width="24" height="24" fill="white" transform="translate(46 10)"></rect></clipPath></defs></svg>