<svg xmlns="http://www.w3.org/2000/svg" width="117" height="98" viewBox="0 0 117 98" fill="none"><path d="M116.286 20.8543V47.4907C116.286 56.501 110.568 64.1869 102.558 67.0965C100.331 67.901 97.9297 68.3465 95.4298 68.3465H46.5893C46.4284 68.8411 46.2675 69.3238 46.0947 69.7946C44.8194 73.3597 43.2358 76.527 41.4897 79.3368C40.7969 80.4631 40.0789 81.5283 39.3369 82.531C32.1203 92.4323 23.4824 96.8883 23.1099 97.0745C26.8478 90.8233 29.2852 84.8208 30.8197 79.3383C31.946 75.365 32.5896 71.6643 32.9486 68.348H20.8558C17.3905 68.348 14.1234 67.5062 11.251 66.009C4.56627 62.5303 0 55.5505 0 47.4921V20.8558C0 9.33216 9.34557 0 20.8558 0H95.4283C106.952 0 116.284 9.33216 116.284 20.8558L116.286 20.8543Z" fill="url(#paint0_linear_1139_7153)"></path><path d="M44.128 53V44.6H45.592L48.652 49.568L47.812 49.556L50.896 44.6H52.288V53H50.764V49.856C50.764 49.128 50.78 48.476 50.812 47.9C50.852 47.316 50.916 46.74 51.004 46.172L51.196 46.676L48.592 50.708H47.788L45.256 46.724L45.424 46.172C45.512 46.708 45.572 47.26 45.604 47.828C45.644 48.396 45.664 49.072 45.664 49.856V53H44.128ZM57.4077 53.12C56.7437 53.12 56.1557 52.984 55.6437 52.712C55.1397 52.432 54.7437 52.052 54.4557 51.572C54.1757 51.084 54.0357 50.524 54.0357 49.892C54.0357 49.396 54.1157 48.944 54.2757 48.536C54.4357 48.128 54.6597 47.776 54.9477 47.48C55.2357 47.176 55.5757 46.944 55.9677 46.784C56.3677 46.616 56.7997 46.532 57.2637 46.532C57.6877 46.532 58.0757 46.612 58.4277 46.772C58.7877 46.932 59.0997 47.152 59.3637 47.432C59.6277 47.704 59.8277 48.032 59.9637 48.416C60.1077 48.792 60.1757 49.204 60.1677 49.652L60.1557 50.18H55.0437L54.7557 49.16H58.9197L58.7397 49.364V49.088C58.7157 48.848 58.6357 48.636 58.4997 48.452C58.3637 48.26 58.1877 48.112 57.9717 48.008C57.7637 47.896 57.5317 47.84 57.2757 47.84C56.8837 47.84 56.5517 47.916 56.2797 48.068C56.0077 48.212 55.7997 48.428 55.6557 48.716C55.5197 49.004 55.4517 49.36 55.4517 49.784C55.4517 50.192 55.5357 50.548 55.7037 50.852C55.8797 51.156 56.1277 51.392 56.4477 51.56C56.7677 51.728 57.1397 51.812 57.5637 51.812C57.8597 51.812 58.1317 51.764 58.3797 51.668C58.6357 51.572 58.9077 51.4 59.1957 51.152L59.9157 52.16C59.6997 52.36 59.4517 52.532 59.1717 52.676C58.8997 52.812 58.6117 52.92 58.3077 53C58.0037 53.08 57.7037 53.12 57.4077 53.12ZM65.2369 53V48.956C65.2369 48.612 65.1209 48.344 64.8889 48.152C64.6649 47.952 64.3729 47.852 64.0129 47.852C63.6769 47.852 63.3729 47.92 63.1009 48.056C62.8289 48.184 62.5769 48.392 62.3449 48.68L61.4329 47.768C61.8089 47.368 62.2249 47.064 62.6809 46.856C63.1369 46.648 63.6289 46.544 64.1569 46.544C64.6609 46.544 65.0929 46.624 65.4529 46.784C65.8209 46.944 66.1049 47.184 66.3049 47.504C66.5049 47.816 66.6049 48.2 66.6049 48.656V53H65.2369ZM63.4369 53.12C63.0289 53.12 62.6649 53.04 62.3449 52.88C62.0249 52.72 61.7689 52.5 61.5769 52.22C61.3929 51.932 61.3009 51.596 61.3009 51.212C61.3009 50.876 61.3609 50.584 61.4809 50.336C61.6009 50.08 61.7769 49.868 62.0089 49.7C62.2489 49.532 62.5449 49.408 62.8969 49.328C63.2569 49.24 63.6689 49.196 64.1329 49.196H65.9449L65.8369 50.252H64.0489C63.8329 50.252 63.6409 50.272 63.4729 50.312C63.3049 50.352 63.1609 50.412 63.0409 50.492C62.9209 50.572 62.8329 50.668 62.7769 50.78C62.7209 50.884 62.6929 51.012 62.6929 51.164C62.6929 51.324 62.7329 51.464 62.8129 51.584C62.8929 51.696 63.0009 51.784 63.1369 51.848C63.2729 51.912 63.4329 51.944 63.6169 51.944C63.8809 51.944 64.1289 51.9 64.3609 51.812C64.6009 51.724 64.8129 51.6 64.9969 51.44C65.1809 51.28 65.3249 51.1 65.4289 50.9L65.7289 51.716C65.5609 51.996 65.3529 52.24 65.1049 52.448C64.8649 52.656 64.6009 52.82 64.3129 52.94C64.0329 53.06 63.7409 53.12 63.4369 53.12ZM69.01 53V45.068H70.474V53H69.01ZM67.762 48.044V46.676H71.854V48.044H67.762Z" fill="white"></path><g clip-path="url(#clip0_1139_7153)"><path fill-rule="evenodd" clip-rule="evenodd" d="M51.918 24.6523C51.853 24.6523 51.7886 24.6309 51.7363 24.5894L50.207 23.3823C50.1313 23.3223 50.0903 23.2295 50.0962 23.1333C50.3721 18.8774 51.3135 15.5811 52.895 13.3345C54.2148 11.4609 55.9463 10.4287 57.7705 10.4287C58.873 10.4287 59.9487 10.8218 60.8013 11.5361C61.2744 11.8877 61.6729 12.3174 61.9854 12.8125C62.0283 12.8813 62.0415 12.9644 62.021 13.043C62.0005 13.1211 61.9487 13.188 61.8774 13.2266C61.6382 13.3569 61.4302 13.5322 61.2598 13.748C60.5718 14.6196 60.7207 15.8892 61.5928 16.5771C61.7686 16.7163 61.9639 16.8237 62.1733 16.8975C62.2476 16.9233 62.3086 16.9785 62.3418 17.0498C62.375 17.1211 62.3784 17.2026 62.3506 17.2764C61.8198 18.6963 60.7461 20.0244 59.1597 21.2236C57.3647 22.5806 54.9575 23.73 52.0044 24.6397C51.9761 24.6484 51.9468 24.6523 51.918 24.6523ZM55.0283 15.7524C55.0151 15.7524 55.0015 15.7515 54.9883 15.7495C54.8276 15.7275 54.7158 15.5796 54.7378 15.4194C55.0161 13.3872 56.6978 12.8911 56.7695 12.8711C56.9253 12.8271 57.0869 12.918 57.1309 13.0737C57.1743 13.229 57.0845 13.3906 56.9292 13.4351C56.8691 13.4521 55.543 13.8589 55.3184 15.499C55.2979 15.646 55.1724 15.7524 55.0283 15.7524ZM55.0693 20.2739C54.9526 20.2739 54.8428 20.2041 54.7969 20.0894C54.7368 19.939 54.8105 19.7686 54.9609 19.7085L56.5933 19.0586C56.7437 18.999 56.9141 19.0723 56.9736 19.2227C57.0337 19.373 56.9604 19.5435 56.8101 19.603L55.1772 20.2529C55.1421 20.2671 55.105 20.2739 55.0693 20.2739ZM54.7183 21.7583C54.6016 21.7583 54.4917 21.6885 54.4458 21.5737C54.3857 21.4233 54.4595 21.2529 54.6094 21.1929L56.2422 20.543C56.3926 20.4829 56.563 20.5566 56.6226 20.7065C56.6826 20.8569 56.6094 21.0273 56.459 21.0874L54.8262 21.7373C54.791 21.7515 54.7539 21.7583 54.7183 21.7583Z" fill="white"></path><path fill-rule="evenodd" clip-rule="evenodd" d="M49.6372 29.3784C49.5698 29.3784 49.5015 29.3735 49.4331 29.3628C48.7803 29.2637 48.2397 28.7114 47.9302 27.8379C47.0088 27.7393 46.3462 27.3418 46.0981 26.73C45.8955 26.2305 46.0098 25.6758 46.4033 25.2466C47.0078 24.5879 48.0747 24.395 49.2852 24.7178L49.9258 23.9062L51.2915 24.9844L50.6509 25.7959C51.2456 26.8984 51.3057 27.9814 50.8052 28.7217C50.521 29.1426 50.0947 29.3784 49.6372 29.3784Z" fill="white"></path><path fill-rule="evenodd" clip-rule="evenodd" d="M57.7334 31.1553C56.4966 31.1553 55.3291 30.8516 54.4468 30.3008C53.522 29.7227 53.0122 28.9399 53.0122 28.0967C53.0122 27.2529 53.522 26.4702 54.4468 25.8921C55.3291 25.3413 56.4966 25.0376 57.7334 25.0376C60.7905 25.0376 61.416 23.8203 62.0786 22.5313C62.7324 21.2578 63.4092 19.9414 66.2793 19.9414C67.5356 19.9414 68.7178 20.3906 69.6084 21.2061C70.5059 22.0283 71.0005 23.123 71.0005 24.2896C71.0005 26.8193 68.1299 28.4946 65.7217 29.4541C62.79 30.623 59.5259 31.1553 57.7334 31.1553ZM59.7324 29.7969C58.0244 29.7969 56.686 28.9126 56.686 27.7842C56.686 26.6553 58.0239 25.7715 59.7324 25.7715C61.5654 25.7715 61.9224 25.0771 62.3354 24.2729C62.7378 23.4902 63.1938 22.6025 65.0459 22.6025C66.7256 22.6025 68.0923 23.8652 68.0923 25.417C68.0923 26.7114 66.9331 27.8574 64.7407 28.7314C62.9038 29.4634 60.8569 29.7969 59.7324 29.7969ZM65.0459 23.1885C63.5518 23.1885 63.2446 23.7856 62.8564 24.541C62.4189 25.3926 61.9233 26.3574 59.7324 26.3574C58.3989 26.3574 57.272 27.0107 57.272 27.7842C57.272 28.5576 58.3989 29.2109 59.7324 29.2109C60.8369 29.2109 62.8374 28.8594 64.5234 28.187C65.6372 27.7432 67.5064 26.793 67.5064 25.417C67.5064 24.1885 66.4023 23.1885 65.0459 23.1885ZM65.1294 26.3799C64.4565 26.3799 63.9087 25.8325 63.9087 25.1597C63.9087 24.4863 64.4565 23.939 65.1294 23.939C65.8027 23.939 66.3501 24.4863 66.3501 25.1597C66.3501 25.8325 65.8027 26.3799 65.1294 26.3799ZM65.1294 24.5244C64.7793 24.5244 64.4946 24.8096 64.4946 25.1592C64.4946 25.5093 64.7793 25.7939 65.1294 25.7939C65.4795 25.7939 65.7642 25.5093 65.7642 25.1592C65.7642 24.8096 65.4795 24.5244 65.1294 24.5244Z" fill="white"></path><path fill-rule="evenodd" clip-rule="evenodd" d="M58.9395 34.5713C56.0303 34.5713 54.6396 33.8921 53.9756 33.2695C53.2905 32.627 53.2886 31.9746 53.2891 31.9468V30.1152C53.5376 30.375 53.8262 30.6035 54.1367 30.7974C55.1924 31.457 56.499 31.7412 57.7334 31.7412C58.8643 31.7412 60.0713 31.5728 61.1807 31.3628C62.6235 31.0898 64.0664 30.7002 65.4438 30.189C65.6094 30.1274 65.7744 30.064 65.939 29.9985C67.6177 29.3291 69.7183 28.2417 70.8242 26.6348C70.8569 27.5669 70.8501 28.6064 70.5049 29.2554C68.2827 33.4297 64.0254 34.2554 60.5645 34.5083C59.9761 34.5513 59.4355 34.5713 58.9395 34.5713Z" fill="white"></path></g><defs><linearGradient id="paint0_linear_1139_7153" x1="52.5" y1="106.5" x2="60.5" y2="8.5" gradientUnits="userSpaceOnUse"><stop stop-color="#FD3A84"></stop><stop offset="1" stop-color="#FF8B6A"></stop></linearGradient><clipPath id="clip0_1139_7153"><rect width="25" height="25" fill="white" transform="translate(46 10)"></rect></clipPath></defs></svg>