<svg xmlns="http://www.w3.org/2000/svg" width="117" height="98" viewBox="0 0 117 98" fill="none"><path d="M116.286 20.8543V47.4907C116.286 56.501 110.568 64.1869 102.558 67.0965C100.331 67.901 97.9297 68.3465 95.4298 68.3465H46.5893C46.4284 68.8411 46.2675 69.3238 46.0947 69.7946C44.8194 73.3597 43.2358 76.527 41.4897 79.3368C40.7969 80.4631 40.0789 81.5283 39.3369 82.531C32.1203 92.4323 23.4824 96.8883 23.1099 97.0745C26.8478 90.8233 29.2852 84.8208 30.8197 79.3383C31.946 75.365 32.5896 71.6643 32.9486 68.348H20.8558C17.3905 68.348 14.1234 67.5062 11.251 66.009C4.56627 62.5303 0 55.5505 0 47.4921V20.8558C0 9.33216 9.34557 0 20.8558 0H95.4283C106.952 0 116.284 9.33216 116.284 20.8558L116.286 20.8543Z" fill="url(#paint0_linear_1427_6024)"></path><path d="M24.0878 53V51.6H25.6698V44.6H24.0878V43.2H28.7638V44.6H27.1818V51.6H28.7638V53H24.0878ZM31.0534 53V45.65H32.4954V47.162L32.2434 47.33C32.3367 47.0033 32.5187 46.7047 32.7894 46.434C33.0601 46.154 33.3821 45.93 33.7554 45.762C34.1287 45.5847 34.5114 45.496 34.9034 45.496C35.4634 45.496 35.9301 45.608 36.3034 45.832C36.6767 46.0467 36.9567 46.378 37.1434 46.826C37.3301 47.274 37.4234 47.8387 37.4234 48.52V53H35.9814V48.618C35.9814 48.198 35.9254 47.8527 35.8134 47.582C35.7014 47.302 35.5287 47.1013 35.2954 46.98C35.0621 46.8493 34.7727 46.7933 34.4274 46.812C34.1474 46.812 33.8907 46.8587 33.6574 46.952C33.4241 47.036 33.2187 47.1573 33.0414 47.316C32.8734 47.4747 32.7381 47.6613 32.6354 47.876C32.5421 48.0813 32.4954 48.3053 32.4954 48.548V53H31.7814C31.6601 53 31.5387 53 31.4174 53C31.2961 53 31.1747 53 31.0534 53ZM38.7776 55.758L38.2316 54.652C38.7729 54.652 39.1789 54.512 39.4496 54.232C39.7202 53.952 39.8556 53.5367 39.8556 52.986V45.65H41.2976V53.336C41.2976 53.812 41.1902 54.232 40.9756 54.596C40.7702 54.96 40.4762 55.2447 40.0936 55.45C39.7202 55.6553 39.2816 55.758 38.7776 55.758ZM40.6116 44.026C40.3036 44.026 40.0656 43.9467 39.8976 43.788C39.7296 43.6293 39.6456 43.4053 39.6456 43.116C39.6456 42.8453 39.7296 42.626 39.8976 42.458C40.0749 42.29 40.3129 42.206 40.6116 42.206C40.9196 42.206 41.1576 42.2853 41.3256 42.444C41.4936 42.6027 41.5776 42.8267 41.5776 43.116C41.5776 43.3867 41.4889 43.606 41.3116 43.774C41.1436 43.942 40.9102 44.026 40.6116 44.026ZM47.0746 53.14C46.3186 53.14 45.6466 52.9813 45.0586 52.664C44.48 52.3373 44.0226 51.894 43.6866 51.334C43.36 50.774 43.1966 50.13 43.1966 49.402C43.1966 48.8233 43.29 48.296 43.4766 47.82C43.6633 47.344 43.92 46.9333 44.2466 46.588C44.5826 46.2333 44.9793 45.9627 45.4366 45.776C45.9033 45.58 46.4073 45.482 46.9486 45.482C47.4246 45.482 47.868 45.5753 48.2786 45.762C48.6893 45.9393 49.044 46.1867 49.3426 46.504C49.6506 46.8213 49.884 47.1993 50.0426 47.638C50.2106 48.0673 50.29 48.5387 50.2806 49.052L50.2666 49.668H44.2606L43.9386 48.52H49.0206L48.8106 48.758V48.422C48.7826 48.114 48.68 47.8387 48.5026 47.596C48.3253 47.3533 48.1013 47.162 47.8306 47.022C47.56 46.882 47.266 46.812 46.9486 46.812C46.4446 46.812 46.02 46.91 45.6746 47.106C45.3293 47.2927 45.068 47.5727 44.8906 47.946C44.7133 48.31 44.6246 48.7627 44.6246 49.304C44.6246 49.8173 44.732 50.2653 44.9466 50.648C45.1613 51.0213 45.4646 51.3107 45.8566 51.516C46.2486 51.7213 46.7013 51.824 47.2146 51.824C47.5786 51.824 47.9146 51.7633 48.2226 51.642C48.54 51.5207 48.8806 51.3013 49.2446 50.984L49.9726 52.006C49.7486 52.23 49.4733 52.426 49.1466 52.594C48.8293 52.762 48.4886 52.8973 48.1246 53C47.77 53.0933 47.42 53.14 47.0746 53.14ZM55.2498 53.14C54.5684 53.14 53.9571 52.972 53.4158 52.636C52.8838 52.3 52.4591 51.8427 52.1418 51.264C51.8338 50.6853 51.6798 50.0367 51.6798 49.318C51.6798 48.5993 51.8338 47.9507 52.1418 47.372C52.4591 46.7933 52.8838 46.336 53.4158 46C53.9571 45.664 54.5684 45.496 55.2498 45.496C55.9031 45.496 56.4958 45.6313 57.0278 45.902C57.5691 46.1633 57.9798 46.5227 58.2598 46.98L57.4618 47.96C57.3124 47.7453 57.1211 47.5493 56.8878 47.372C56.6544 47.1947 56.4071 47.0547 56.1458 46.952C55.8844 46.8493 55.6324 46.798 55.3898 46.798C54.9418 46.798 54.5404 46.91 54.1858 47.134C53.8404 47.3487 53.5651 47.6473 53.3598 48.03C53.1544 48.4127 53.0518 48.842 53.0518 49.318C53.0518 49.794 53.1591 50.2233 53.3738 50.606C53.5884 50.9793 53.8731 51.278 54.2278 51.502C54.5824 51.726 54.9744 51.838 55.4038 51.838C55.6558 51.838 55.8984 51.796 56.1318 51.712C56.3744 51.628 56.6078 51.502 56.8318 51.334C57.0558 51.166 57.2658 50.9607 57.4618 50.718L58.2598 51.698C57.9611 52.118 57.5318 52.4633 56.9718 52.734C56.4211 53.0047 55.8471 53.14 55.2498 53.14ZM60.81 53V43.774H62.252V53H60.81ZM59.284 47.05V45.65H63.96V47.05H59.284ZM65.791 53V45.65H67.233V53H65.791ZM66.491 44.026C66.183 44.026 65.945 43.9467 65.777 43.788C65.609 43.6293 65.525 43.4053 65.525 43.116C65.525 42.8453 65.609 42.626 65.777 42.458C65.9543 42.29 66.1923 42.206 66.491 42.206C66.799 42.206 67.037 42.2853 67.205 42.444C67.373 42.6027 67.457 42.8267 67.457 43.116C67.457 43.3867 67.3683 43.606 67.191 43.774C67.023 43.942 66.7897 44.026 66.491 44.026ZM73.0335 53.14C72.3148 53.14 71.6708 52.9767 71.1015 52.65C70.5415 52.314 70.0982 51.8613 69.7715 51.292C69.4448 50.7133 69.2815 50.0553 69.2815 49.318C69.2815 48.5807 69.4448 47.9273 69.7715 47.358C70.0982 46.7793 70.5415 46.3267 71.1015 46C71.6708 45.664 72.3148 45.496 73.0335 45.496C73.7428 45.496 74.3775 45.664 74.9375 46C75.5068 46.3267 75.9548 46.7793 76.2815 47.358C76.6082 47.9273 76.7715 48.5807 76.7715 49.318C76.7715 50.0553 76.6082 50.7133 76.2815 51.292C75.9548 51.8613 75.5068 52.314 74.9375 52.65C74.3775 52.9767 73.7428 53.14 73.0335 53.14ZM73.0335 51.824C73.4722 51.824 73.8642 51.7167 74.2095 51.502C74.5548 51.278 74.8255 50.9793 75.0215 50.606C75.2175 50.2233 75.3108 49.794 75.3015 49.318C75.3108 48.8327 75.2175 48.4033 75.0215 48.03C74.8255 47.6473 74.5548 47.3487 74.2095 47.134C73.8642 46.9193 73.4722 46.812 73.0335 46.812C72.5948 46.812 72.1982 46.924 71.8435 47.148C71.4982 47.3627 71.2275 47.6613 71.0315 48.044C70.8355 48.4173 70.7422 48.842 70.7515 49.318C70.7422 49.794 70.8355 50.2233 71.0315 50.606C71.2275 50.9793 71.4982 51.278 71.8435 51.502C72.1982 51.7167 72.5948 51.824 73.0335 51.824ZM78.6228 53V45.65H80.0648V47.162L79.8128 47.33C79.9061 47.0033 80.0881 46.7047 80.3588 46.434C80.6294 46.154 80.9514 45.93 81.3248 45.762C81.6981 45.5847 82.0808 45.496 82.4728 45.496C83.0328 45.496 83.4994 45.608 83.8728 45.832C84.2461 46.0467 84.5261 46.378 84.7128 46.826C84.8994 47.274 84.9928 47.8387 84.9928 48.52V53H83.5508V48.618C83.5508 48.198 83.4948 47.8527 83.3828 47.582C83.2708 47.302 83.0981 47.1013 82.8648 46.98C82.6314 46.8493 82.3421 46.7933 81.9968 46.812C81.7168 46.812 81.4601 46.8587 81.2268 46.952C80.9934 47.036 80.7881 47.1573 80.6108 47.316C80.4428 47.4747 80.3074 47.6613 80.2048 47.876C80.1114 48.0813 80.0648 48.3053 80.0648 48.548V53H79.3508C79.2294 53 79.1081 53 78.9868 53C78.8654 53 78.7441 53 78.6228 53ZM89.6789 53.14C89.0629 53.14 88.5076 53.0327 88.0129 52.818C87.5183 52.6033 87.1076 52.286 86.7809 51.866L87.7609 51.026C88.0409 51.3527 88.3443 51.5907 88.6709 51.74C89.0069 51.88 89.3849 51.95 89.8049 51.95C89.9729 51.95 90.1269 51.9313 90.2669 51.894C90.4163 51.8473 90.5423 51.782 90.6449 51.698C90.7569 51.614 90.8409 51.516 90.8969 51.404C90.9529 51.2827 90.9809 51.152 90.9809 51.012C90.9809 50.7693 90.8923 50.5733 90.7149 50.424C90.6216 50.3587 90.4723 50.2887 90.2669 50.214C90.0709 50.13 89.8143 50.046 89.4969 49.962C88.9556 49.822 88.5123 49.6633 88.1669 49.486C87.8216 49.3087 87.5556 49.108 87.3689 48.884C87.2289 48.7067 87.1263 48.5153 87.0609 48.31C86.9956 48.0953 86.9629 47.862 86.9629 47.61C86.9629 47.1993 87.0796 46.8353 87.3129 46.518C87.5463 46.2007 87.8589 45.9533 88.2509 45.776C88.6523 45.5893 89.1003 45.496 89.5949 45.496C89.9403 45.496 90.2809 45.5427 90.6169 45.636C90.9623 45.7293 91.2796 45.8647 91.5689 46.042C91.8583 46.2193 92.1009 46.4293 92.2969 46.672L91.4709 47.582C91.2936 47.4047 91.0976 47.2507 90.8829 47.12C90.6776 46.98 90.4676 46.8727 90.2529 46.798C90.0383 46.7233 89.8423 46.686 89.6649 46.686C89.4689 46.686 89.2916 46.7047 89.1329 46.742C88.9743 46.7793 88.8389 46.8353 88.7269 46.91C88.6243 46.9847 88.5449 47.078 88.4889 47.19C88.4329 47.302 88.4049 47.428 88.4049 47.568C88.4143 47.6893 88.4423 47.806 88.4889 47.918C88.5449 48.0207 88.6196 48.1093 88.7129 48.184C88.8156 48.2587 88.9696 48.338 89.1749 48.422C89.3803 48.506 89.6416 48.5853 89.9589 48.66C90.4256 48.7813 90.8083 48.9167 91.1069 49.066C91.4149 49.206 91.6576 49.3693 91.8349 49.556C92.0216 49.7333 92.1523 49.9387 92.2269 50.172C92.3016 50.4053 92.3389 50.6667 92.3389 50.956C92.3389 51.376 92.2176 51.754 91.9749 52.09C91.7416 52.4167 91.4243 52.6733 91.0229 52.86C90.6216 53.0467 90.1736 53.14 89.6789 53.14Z" fill="white"></path><g clip-path="url(#clip0_1427_6024)"><path d="M49.767 33.2195C49.9235 33.3755 49.9235 33.6285 49.767 33.785C49.6107 33.9412 49.3573 33.9406 49.2016 33.785C48.8399 33.4233 46.4492 31.0326 46.117 30.7004C45.961 30.5444 45.961 30.2909 46.117 30.1349C46.2735 29.979 46.5264 29.979 46.6829 30.1349L47.1069 30.5589L49.4197 28.246C49.5759 28.0898 49.8292 28.0898 49.9853 28.246L51.8489 30.1096C52.0051 30.2658 52.0051 30.519 51.8489 30.6752L49.536 32.9881L49.767 33.2195ZM69.8799 10.215C69.7234 10.059 69.4705 10.059 69.314 10.215L62.9393 16.5902L62.7933 16.4442C62.2704 15.9213 61.423 15.9213 60.9001 16.4442L60.8311 16.5132C60.6746 16.6697 60.6746 16.9231 60.8316 17.0791C61.3615 17.6066 62.4884 18.7339 63.0153 19.2628C63.1713 19.4198 63.4247 19.4203 63.5812 19.2638L63.6507 19.1943C64.1692 18.6769 64.1782 17.8295 63.6507 17.3016L63.5047 17.1556L69.8799 10.7804C70.0359 10.6245 70.0359 10.3715 69.8799 10.215ZM62.6385 20.0164L60.0607 17.4386C59.5927 16.9706 58.8313 16.9706 58.3639 17.4386L49.902 25.9005L49.4136 25.412C49.2576 25.2556 49.0041 25.2556 48.8481 25.412C48.6917 25.568 48.6917 25.8215 48.8481 25.9775L54.1175 31.2468C54.2744 31.4038 54.5278 31.4018 54.6829 31.2468C54.8389 31.0903 54.8389 30.8373 54.6829 30.6814L54.1944 30.1929L56.3944 27.993C56.5506 27.8368 56.5506 27.5836 56.3944 27.4273L55.4826 26.5156C55.3264 26.3594 55.3264 26.1062 55.4826 25.95C55.6389 25.7938 55.8921 25.7938 56.0482 25.95L56.96 26.8618C57.1162 27.0179 57.3694 27.0179 57.5256 26.8618L59.699 24.6884C59.8552 24.5322 59.8552 24.2789 59.699 24.1228L58.2873 22.711C58.1282 22.552 58.1311 22.2922 58.2961 22.1369C58.4555 21.9867 58.7099 22.0024 58.8647 22.1573L60.2646 23.5571C60.4207 23.7133 60.674 23.7133 60.8302 23.5571L62.6563 21.731C63.1187 21.2686 63.137 20.5149 62.6385 20.0164ZM69.565 17.5066L68.3686 16.0278C68.2083 15.8295 67.9063 15.8303 67.7467 16.0278L66.5503 17.5066C65.5182 18.7818 66.4413 20.6652 68.0576 20.6652C69.676 20.6652 70.5953 18.7797 69.565 17.5066Z" fill="white"></path></g><defs><linearGradient id="paint0_linear_1427_6024" x1="43.2794" y1="-15.6195" x2="165.299" y2="73.5088" gradientUnits="userSpaceOnUse"><stop stop-color="#FD5900"></stop><stop offset="1" stop-color="#FFDE00"></stop></linearGradient><clipPath id="clip0_1427_6024"><rect width="24" height="24" fill="white" transform="translate(46 10)"></rect></clipPath></defs></svg>