<svg xmlns="http://www.w3.org/2000/svg" width="143" height="69" viewBox="0 0 143 69" fill="none"><path d="M142.402 20.8782V47.5085C142.402 52.988 140.295 57.9596 136.832 61.6841C133.445 65.352 128.748 67.7982 123.483 68.2631C123.392 68.2973 123.291 68.2973 123.2 68.2973H123.166C122.985 68.3092 122.792 68.3197 122.611 68.3197C122.26 68.354 121.898 68.3644 121.548 68.3644H46.9886C45.46 68.3644 43.9658 68.1945 42.5385 67.8772C41.3616 67.6284 40.2293 67.2768 39.1418 66.8358C31.499 63.7445 26.1104 56.2492 26.1104 47.5085V41.2692C3.80497 32.5628 0 6.74735 0 6.74735C9.01335 20.2435 20.3582 24.0828 26.1104 25.1688V20.8782C26.1104 9.35152 35.4619 0 46.9886 0H121.548C133.074 0 142.403 9.35152 142.403 20.8782H142.402Z" fill="url(#paint0_linear_1427_6327)"></path><path d="M61.0585 53.14C60.3492 53.14 59.6865 53.014 59.0705 52.762C58.4545 52.5007 57.9132 52.1413 57.4465 51.684C56.9799 51.2267 56.6159 50.6947 56.3545 50.088C56.1025 49.472 55.9765 48.8093 55.9765 48.1C55.9765 47.4 56.1025 46.7467 56.3545 46.14C56.6159 45.5333 56.9752 45.006 57.4325 44.558C57.8992 44.1007 58.4405 43.746 59.0565 43.494C59.6725 43.242 60.3352 43.116 61.0445 43.116C61.5392 43.116 62.0199 43.186 62.4865 43.326C62.9625 43.466 63.3919 43.662 63.7745 43.914C64.1572 44.166 64.4699 44.4553 64.7125 44.782L63.7325 45.804C63.3125 45.4027 62.8739 45.0993 62.4165 44.894C61.9685 44.6887 61.5112 44.586 61.0445 44.586C60.5405 44.586 60.0739 44.6747 59.6445 44.852C59.2245 45.0293 58.8512 45.2767 58.5245 45.594C58.2072 45.9113 57.9599 46.2847 57.7825 46.714C57.6052 47.134 57.5165 47.596 57.5165 48.1C57.5165 48.5853 57.6099 49.0473 57.7965 49.486C57.9832 49.9153 58.2399 50.2933 58.5665 50.62C58.9025 50.9467 59.2852 51.2033 59.7145 51.39C60.1532 51.5767 60.6152 51.67 61.1005 51.67C61.4645 51.67 61.8099 51.6187 62.1365 51.516C62.4632 51.404 62.7525 51.25 63.0045 51.054C63.2565 50.858 63.4525 50.634 63.5925 50.382C63.7325 50.1207 63.8025 49.8453 63.8025 49.556V49.276L64.0125 49.472H61.0165V47.974H65.3565C65.3752 48.0767 65.3892 48.1793 65.3985 48.282C65.4079 48.3753 65.4125 48.4687 65.4125 48.562C65.4219 48.646 65.4265 48.73 65.4265 48.814C65.4265 49.458 65.3145 50.046 65.0905 50.578C64.8665 51.1007 64.5539 51.5533 64.1525 51.936C63.7605 52.3187 63.2985 52.6173 62.7665 52.832C62.2439 53.0373 61.6745 53.14 61.0585 53.14ZM71.6653 53V48.212C71.6653 47.8013 71.5159 47.47 71.2173 47.218C70.9279 46.9567 70.5593 46.826 70.1113 46.826C69.7006 46.826 69.3273 46.91 68.9913 47.078C68.6646 47.246 68.3659 47.5027 68.0953 47.848L67.1573 46.91C67.5959 46.434 68.0673 46.0793 68.5713 45.846C69.0846 45.6127 69.6353 45.496 70.2233 45.496C70.7833 45.496 71.2686 45.5893 71.6793 45.776C72.0899 45.9627 72.4073 46.238 72.6313 46.602C72.8553 46.9567 72.9673 47.3907 72.9673 47.904V53H71.6653ZM69.4673 53.14C68.9913 53.14 68.5666 53.0467 68.1933 52.86C67.8199 52.6733 67.5213 52.4167 67.2973 52.09C67.0826 51.754 66.9753 51.362 66.9753 50.914C66.9753 50.522 67.0453 50.1767 67.1853 49.878C67.3253 49.5793 67.5306 49.332 67.8013 49.136C68.0813 48.94 68.4266 48.7907 68.8373 48.688C69.2573 48.5853 69.7379 48.534 70.2793 48.534H72.3233L72.1973 49.682H70.0973C69.8173 49.682 69.5653 49.71 69.3413 49.766C69.1266 49.8127 68.9399 49.892 68.7813 50.004C68.6319 50.1067 68.5199 50.2327 68.4453 50.382C68.3706 50.522 68.3333 50.69 68.3333 50.886C68.3333 51.0913 68.3846 51.2733 68.4873 51.432C68.5899 51.5813 68.7299 51.698 68.9073 51.782C69.0846 51.866 69.2899 51.908 69.5233 51.908C69.8593 51.908 70.1766 51.852 70.4753 51.74C70.7833 51.6187 71.0539 51.4553 71.2873 51.25C71.5299 51.0447 71.7166 50.816 71.8473 50.564L72.1833 51.502C71.9873 51.8287 71.7446 52.1133 71.4553 52.356C71.1659 52.5987 70.8533 52.79 70.5173 52.93C70.1813 53.07 69.8313 53.14 69.4673 53.14ZM78.1358 53.14C77.4638 53.14 76.8618 52.9767 76.3298 52.65C75.8071 52.314 75.3918 51.8613 75.0838 51.292C74.7758 50.7133 74.6218 50.0553 74.6218 49.318C74.6218 48.5807 74.7711 47.9273 75.0698 47.358C75.3778 46.7793 75.7931 46.3267 76.3158 46C76.8385 45.664 77.4311 45.496 78.0938 45.496C78.4578 45.496 78.8078 45.5567 79.1438 45.678C79.4891 45.79 79.7971 45.9487 80.0678 46.154C80.3385 46.35 80.5485 46.5693 80.6978 46.812C80.8565 47.0453 80.9358 47.2833 80.9358 47.526L80.5158 47.554V42.64H81.9578V53H80.5158V51.25H80.7958C80.7958 51.474 80.7211 51.698 80.5718 51.922C80.4225 52.1367 80.2218 52.3373 79.9698 52.524C79.7271 52.7107 79.4425 52.86 79.1158 52.972C78.7985 53.084 78.4718 53.14 78.1358 53.14ZM78.3318 51.894C78.7705 51.894 79.1578 51.782 79.4938 51.558C79.8298 51.334 80.0911 51.0307 80.2778 50.648C80.4738 50.256 80.5718 49.8127 80.5718 49.318C80.5718 48.8233 80.4738 48.3847 80.2778 48.002C80.0911 47.61 79.8298 47.302 79.4938 47.078C79.1578 46.854 78.7705 46.742 78.3318 46.742C77.8931 46.742 77.5058 46.854 77.1698 47.078C76.8338 47.302 76.5678 47.61 76.3718 48.002C76.1851 48.3847 76.0918 48.8233 76.0918 49.318C76.0918 49.8127 76.1851 50.256 76.3718 50.648C76.5678 51.0307 76.8338 51.334 77.1698 51.558C77.5058 51.782 77.8931 51.894 78.3318 51.894ZM87.5128 56.22C86.9902 56.22 86.4675 56.136 85.9448 55.968C85.4315 55.8093 85.0162 55.5993 84.6988 55.338L85.2308 54.218C85.5108 54.4327 85.8562 54.6053 86.2668 54.736C86.6868 54.8667 87.1022 54.932 87.5128 54.932C88.0262 54.932 88.4555 54.848 88.8008 54.68C89.1462 54.512 89.4075 54.2647 89.5848 53.938C89.7622 53.6113 89.8508 53.2053 89.8508 52.72V51.306L90.0048 51.404C89.9582 51.6933 89.8042 51.9733 89.5428 52.244C89.2908 52.5053 88.9735 52.72 88.5908 52.888C88.2082 53.056 87.8162 53.14 87.4148 53.14C86.7148 53.14 86.0895 52.9767 85.5388 52.65C84.9975 52.314 84.5682 51.8613 84.2508 51.292C83.9335 50.7133 83.7748 50.0553 83.7748 49.318C83.7748 48.5807 83.9288 47.9273 84.2368 47.358C84.5542 46.7793 84.9835 46.3267 85.5248 46C86.0755 45.664 86.6915 45.496 87.3728 45.496C87.6528 45.496 87.9235 45.5333 88.1848 45.608C88.4462 45.6733 88.6888 45.7713 88.9128 45.902C89.1368 46.0233 89.3375 46.1587 89.5148 46.308C89.6922 46.4573 89.8368 46.616 89.9488 46.784C90.0608 46.952 90.1308 47.1107 90.1588 47.26L89.8508 47.372V45.65H91.2928V52.552C91.2928 53.14 91.2042 53.658 91.0268 54.106C90.8588 54.5633 90.6115 54.946 90.2848 55.254C89.9582 55.5713 89.5615 55.8093 89.0948 55.968C88.6282 56.136 88.1008 56.22 87.5128 56.22ZM87.5688 51.81C88.0262 51.81 88.4322 51.7027 88.7868 51.488C89.1415 51.2733 89.4168 50.9793 89.6128 50.606C89.8088 50.2327 89.9068 49.8033 89.9068 49.318C89.9068 48.8327 89.8042 48.4033 89.5988 48.03C89.4028 47.6473 89.1275 47.3487 88.7728 47.134C88.4275 46.9193 88.0262 46.812 87.5688 46.812C87.1208 46.812 86.7195 46.924 86.3648 47.148C86.0195 47.3627 85.7442 47.6613 85.5388 48.044C85.3428 48.4173 85.2448 48.842 85.2448 49.318C85.2448 49.794 85.3428 50.2233 85.5388 50.606C85.7442 50.9793 86.0195 51.2733 86.3648 51.488C86.7195 51.7027 87.1208 51.81 87.5688 51.81ZM97.0246 53.14C96.2686 53.14 95.5966 52.9813 95.0086 52.664C94.43 52.3373 93.9726 51.894 93.6366 51.334C93.31 50.774 93.1466 50.13 93.1466 49.402C93.1466 48.8233 93.24 48.296 93.4266 47.82C93.6133 47.344 93.87 46.9333 94.1966 46.588C94.5326 46.2333 94.9293 45.9627 95.3866 45.776C95.8533 45.58 96.3573 45.482 96.8986 45.482C97.3746 45.482 97.818 45.5753 98.2286 45.762C98.6393 45.9393 98.994 46.1867 99.2926 46.504C99.6006 46.8213 99.834 47.1993 99.9926 47.638C100.161 48.0673 100.24 48.5387 100.231 49.052L100.217 49.668H94.2106L93.8886 48.52H98.9706L98.7606 48.758V48.422C98.7326 48.114 98.63 47.8387 98.4526 47.596C98.2753 47.3533 98.0513 47.162 97.7806 47.022C97.51 46.882 97.216 46.812 96.8986 46.812C96.3946 46.812 95.97 46.91 95.6246 47.106C95.2793 47.2927 95.018 47.5727 94.8406 47.946C94.6633 48.31 94.5746 48.7627 94.5746 49.304C94.5746 49.8173 94.682 50.2653 94.8966 50.648C95.1113 51.0213 95.4146 51.3107 95.8066 51.516C96.1986 51.7213 96.6513 51.824 97.1646 51.824C97.5286 51.824 97.8646 51.7633 98.1726 51.642C98.49 51.5207 98.8306 51.3013 99.1946 50.984L99.9226 52.006C99.6986 52.23 99.4233 52.426 99.0966 52.594C98.7793 52.762 98.4386 52.8973 98.0746 53C97.72 53.0933 97.37 53.14 97.0246 53.14ZM102.988 53V43.774H104.43V53H102.988ZM101.462 47.05V45.65H106.138V47.05H101.462ZM110.454 53.14C109.838 53.14 109.283 53.0327 108.788 52.818C108.294 52.6033 107.883 52.286 107.556 51.866L108.536 51.026C108.816 51.3527 109.12 51.5907 109.446 51.74C109.782 51.88 110.16 51.95 110.58 51.95C110.748 51.95 110.902 51.9313 111.042 51.894C111.192 51.8473 111.318 51.782 111.42 51.698C111.532 51.614 111.616 51.516 111.672 51.404C111.728 51.2827 111.756 51.152 111.756 51.012C111.756 50.7693 111.668 50.5733 111.49 50.424C111.397 50.3587 111.248 50.2887 111.042 50.214C110.846 50.13 110.59 50.046 110.272 49.962C109.731 49.822 109.288 49.6633 108.942 49.486C108.597 49.3087 108.331 49.108 108.144 48.884C108.004 48.7067 107.902 48.5153 107.836 48.31C107.771 48.0953 107.738 47.862 107.738 47.61C107.738 47.1993 107.855 46.8353 108.088 46.518C108.322 46.2007 108.634 45.9533 109.026 45.776C109.428 45.5893 109.876 45.496 110.37 45.496C110.716 45.496 111.056 45.5427 111.392 45.636C111.738 45.7293 112.055 45.8647 112.344 46.042C112.634 46.2193 112.876 46.4293 113.072 46.672L112.246 47.582C112.069 47.4047 111.873 47.2507 111.658 47.12C111.453 46.98 111.243 46.8727 111.028 46.798C110.814 46.7233 110.618 46.686 110.44 46.686C110.244 46.686 110.067 46.7047 109.908 46.742C109.75 46.7793 109.614 46.8353 109.502 46.91C109.4 46.9847 109.32 47.078 109.264 47.19C109.208 47.302 109.18 47.428 109.18 47.568C109.19 47.6893 109.218 47.806 109.264 47.918C109.32 48.0207 109.395 48.1093 109.488 48.184C109.591 48.2587 109.745 48.338 109.95 48.422C110.156 48.506 110.417 48.5853 110.734 48.66C111.201 48.7813 111.584 48.9167 111.882 49.066C112.19 49.206 112.433 49.3693 112.61 49.556C112.797 49.7333 112.928 49.9387 113.002 50.172C113.077 50.4053 113.114 50.6667 113.114 50.956C113.114 51.376 112.993 51.754 112.75 52.09C112.517 52.4167 112.2 52.6733 111.798 52.86C111.397 53.0467 110.949 53.14 110.454 53.14Z" fill="white"></path><g clip-path="url(#clip0_1427_6327)"><path d="M93.7906 16.7781H87.7656C86.5433 16.7781 85.5563 17.7675 85.5563 18.9876V31.7907C85.5563 33.0129 86.5455 34.0001 87.7656 34.0001H93.7906C95.0129 34 96 33.0108 96 31.7906V18.9875C96 17.7652 95.0106 16.7781 93.7906 16.7781ZM91.5313 19.7906H90.025C89.6367 19.7906 89.3219 19.4758 89.3219 19.0875C89.3219 18.6992 89.6367 18.3844 90.025 18.3844H91.5313C91.9196 18.3844 92.2344 18.6992 92.2344 19.0875C92.2344 19.4758 91.9196 19.7906 91.5313 19.7906Z" fill="white"></path><path d="M79.5312 29.5812H77.975C77.5867 29.5812 77.2719 29.8961 77.2719 30.2844C77.2719 30.6727 77.5867 30.9875 77.975 30.9875H84.15V27.875H79.5312V29.5812H79.5312Z" fill="white"></path><path d="M93.7906 15.3719C94.0312 15.3719 94.2662 15.396 94.4937 15.4411V12.2094C94.4937 10.9911 93.5026 10 92.2844 10H74.2094C72.9911 10 72 10.9912 72 12.2094V24.2594C72 25.4776 72.9911 26.4687 74.2094 26.4687H84.15V18.9875C84.15 16.9938 85.772 15.3718 87.7656 15.3718L93.7906 15.3719Z" fill="white"></path></g><defs><linearGradient id="paint0_linear_1427_6327" x1="-38.19" y1="-37.3993" x2="38.4461" y2="108.136" gradientUnits="userSpaceOnUse"><stop stop-color="#FD5900"></stop><stop offset="1" stop-color="#FF9900"></stop></linearGradient><clipPath id="clip0_1427_6327"><rect width="24" height="24" fill="white" transform="translate(72 10)"></rect></clipPath></defs></svg>