<svg xmlns="http://www.w3.org/2000/svg" width="111" height="85" viewBox="0 0 111 85" fill="none"><path d="M0 19.8002V45.0797C0 56.0169 8.91427 64.8799 19.9116 64.8799H28.1387C26.6414 79.0908 16.043 84.6576 15.3771 85C21.3529 83.7646 26.3198 81.7037 30.4113 79.3111C33.1603 77.7121 35.5116 75.9485 37.496 74.1955C41.4754 70.6896 44.0255 67.1956 45.4668 64.8799H91.0884C102.086 64.8799 111 56.0155 111 45.0797V19.8002C111 8.8644 102.086 0 91.0884 0H19.9116C8.91427 0 0 8.8644 0 19.8002Z" fill="url(#paint0_linear_1427_6124)"></path><path d="M22.6288 53L18.7088 43.2H20.4308L22.7688 49.15C22.8808 49.4393 22.9788 49.7007 23.0628 49.934C23.1561 50.1673 23.2355 50.382 23.3008 50.578C23.3661 50.7647 23.4268 50.942 23.4828 51.11C23.5388 51.278 23.5948 51.446 23.6508 51.614L23.2868 51.628C23.3521 51.404 23.4221 51.1707 23.4968 50.928C23.5715 50.6853 23.6555 50.4193 23.7488 50.13C23.8515 49.8407 23.9728 49.514 24.1128 49.15L26.2828 43.2H28.0468L24.0988 53H22.6288ZM32.2646 53.14C31.5086 53.14 30.8366 52.9813 30.2486 52.664C29.67 52.3373 29.2126 51.894 28.8766 51.334C28.55 50.774 28.3866 50.13 28.3866 49.402C28.3866 48.8233 28.48 48.296 28.6666 47.82C28.8533 47.344 29.11 46.9333 29.4366 46.588C29.7726 46.2333 30.1693 45.9627 30.6266 45.776C31.0933 45.58 31.5973 45.482 32.1386 45.482C32.6146 45.482 33.058 45.5753 33.4686 45.762C33.8793 45.9393 34.234 46.1867 34.5326 46.504C34.8406 46.8213 35.074 47.1993 35.2326 47.638C35.4006 48.0673 35.48 48.5387 35.4706 49.052L35.4566 49.668H29.4506L29.1286 48.52H34.2106L34.0006 48.758V48.422C33.9726 48.114 33.87 47.8387 33.6926 47.596C33.5153 47.3533 33.2913 47.162 33.0206 47.022C32.75 46.882 32.456 46.812 32.1386 46.812C31.6346 46.812 31.21 46.91 30.8646 47.106C30.5193 47.2927 30.258 47.5727 30.0806 47.946C29.9033 48.31 29.8146 48.7627 29.8146 49.304C29.8146 49.8173 29.922 50.2653 30.1366 50.648C30.3513 51.0213 30.6546 51.3107 31.0466 51.516C31.4386 51.7213 31.8913 51.824 32.4046 51.824C32.7686 51.824 33.1046 51.7633 33.4126 51.642C33.73 51.5207 34.0706 51.3013 34.4346 50.984L35.1626 52.006C34.9386 52.23 34.6633 52.426 34.3366 52.594C34.0193 52.762 33.6786 52.8973 33.3146 53C32.96 53.0933 32.61 53.14 32.2646 53.14ZM40.5394 56.22C40.0167 56.22 39.4941 56.136 38.9714 55.968C38.4581 55.8093 38.0427 55.5993 37.7254 55.338L38.2574 54.218C38.5374 54.4327 38.8827 54.6053 39.2934 54.736C39.7134 54.8667 40.1287 54.932 40.5394 54.932C41.0527 54.932 41.4821 54.848 41.8274 54.68C42.1727 54.512 42.4341 54.2647 42.6114 53.938C42.7887 53.6113 42.8774 53.2053 42.8774 52.72V51.306L43.0314 51.404C42.9847 51.6933 42.8307 51.9733 42.5694 52.244C42.3174 52.5053 42.0001 52.72 41.6174 52.888C41.2347 53.056 40.8427 53.14 40.4414 53.14C39.7414 53.14 39.1161 52.9767 38.5654 52.65C38.0241 52.314 37.5947 51.8613 37.2774 51.292C36.9601 50.7133 36.8014 50.0553 36.8014 49.318C36.8014 48.5807 36.9554 47.9273 37.2634 47.358C37.5807 46.7793 38.0101 46.3267 38.5514 46C39.1021 45.664 39.7181 45.496 40.3994 45.496C40.6794 45.496 40.9501 45.5333 41.2114 45.608C41.4727 45.6733 41.7154 45.7713 41.9394 45.902C42.1634 46.0233 42.3641 46.1587 42.5414 46.308C42.7187 46.4573 42.8634 46.616 42.9754 46.784C43.0874 46.952 43.1574 47.1107 43.1854 47.26L42.8774 47.372V45.65H44.3194V52.552C44.3194 53.14 44.2307 53.658 44.0534 54.106C43.8854 54.5633 43.6381 54.946 43.3114 55.254C42.9847 55.5713 42.5881 55.8093 42.1214 55.968C41.6547 56.136 41.1274 56.22 40.5394 56.22ZM40.5954 51.81C41.0527 51.81 41.4587 51.7027 41.8134 51.488C42.1681 51.2733 42.4434 50.9793 42.6394 50.606C42.8354 50.2327 42.9334 49.8033 42.9334 49.318C42.9334 48.8327 42.8307 48.4033 42.6254 48.03C42.4294 47.6473 42.1541 47.3487 41.7994 47.134C41.4541 46.9193 41.0527 46.812 40.5954 46.812C40.1474 46.812 39.7461 46.924 39.3914 47.148C39.0461 47.3627 38.7707 47.6613 38.5654 48.044C38.3694 48.4173 38.2714 48.842 38.2714 49.318C38.2714 49.794 38.3694 50.2233 38.5654 50.606C38.7707 50.9793 39.0461 51.2733 39.3914 51.488C39.7461 51.7027 40.1474 51.81 40.5954 51.81ZM50.0512 53.14C49.2952 53.14 48.6232 52.9813 48.0352 52.664C47.4565 52.3373 46.9992 51.894 46.6632 51.334C46.3365 50.774 46.1732 50.13 46.1732 49.402C46.1732 48.8233 46.2665 48.296 46.4532 47.82C46.6399 47.344 46.8965 46.9333 47.2232 46.588C47.5592 46.2333 47.9559 45.9627 48.4132 45.776C48.8799 45.58 49.3839 45.482 49.9252 45.482C50.4012 45.482 50.8445 45.5753 51.2552 45.762C51.6659 45.9393 52.0205 46.1867 52.3192 46.504C52.6272 46.8213 52.8605 47.1993 53.0192 47.638C53.1872 48.0673 53.2665 48.5387 53.2572 49.052L53.2432 49.668H47.2372L46.9152 48.52H51.9972L51.7872 48.758V48.422C51.7592 48.114 51.6565 47.8387 51.4792 47.596C51.3019 47.3533 51.0779 47.162 50.8072 47.022C50.5365 46.882 50.2425 46.812 49.9252 46.812C49.4212 46.812 48.9965 46.91 48.6512 47.106C48.3059 47.2927 48.0445 47.5727 47.8672 47.946C47.6899 48.31 47.6012 48.7627 47.6012 49.304C47.6012 49.8173 47.7085 50.2653 47.9232 50.648C48.1379 51.0213 48.4412 51.3107 48.8332 51.516C49.2252 51.7213 49.6779 51.824 50.1912 51.824C50.5552 51.824 50.8912 51.7633 51.1992 51.642C51.5165 51.5207 51.8572 51.3013 52.2212 50.984L52.9492 52.006C52.7252 52.23 52.4499 52.426 52.1232 52.594C51.8059 52.762 51.4652 52.8973 51.1012 53C50.7465 53.0933 50.3965 53.14 50.0512 53.14ZM56.0143 53V43.774H57.4563V53H56.0143ZM54.4883 47.05V45.65H59.1643V47.05H54.4883ZM65.043 53V48.212C65.043 47.8013 64.8937 47.47 64.595 47.218C64.3057 46.9567 63.937 46.826 63.489 46.826C63.0784 46.826 62.705 46.91 62.369 47.078C62.0424 47.246 61.7437 47.5027 61.473 47.848L60.535 46.91C60.9737 46.434 61.445 46.0793 61.949 45.846C62.4624 45.6127 63.013 45.496 63.601 45.496C64.161 45.496 64.6464 45.5893 65.057 45.776C65.4677 45.9627 65.785 46.238 66.009 46.602C66.233 46.9567 66.345 47.3907 66.345 47.904V53H65.043ZM62.845 53.14C62.369 53.14 61.9444 53.0467 61.571 52.86C61.1977 52.6733 60.899 52.4167 60.675 52.09C60.4604 51.754 60.353 51.362 60.353 50.914C60.353 50.522 60.423 50.1767 60.563 49.878C60.703 49.5793 60.9084 49.332 61.179 49.136C61.459 48.94 61.8044 48.7907 62.215 48.688C62.635 48.5853 63.1157 48.534 63.657 48.534H65.701L65.575 49.682H63.475C63.195 49.682 62.943 49.71 62.719 49.766C62.5044 49.8127 62.3177 49.892 62.159 50.004C62.0097 50.1067 61.8977 50.2327 61.823 50.382C61.7484 50.522 61.711 50.69 61.711 50.886C61.711 51.0913 61.7624 51.2733 61.865 51.432C61.9677 51.5813 62.1077 51.698 62.285 51.782C62.4624 51.866 62.6677 51.908 62.901 51.908C63.237 51.908 63.5544 51.852 63.853 51.74C64.161 51.6187 64.4317 51.4553 64.665 51.25C64.9077 51.0447 65.0944 50.816 65.225 50.564L65.561 51.502C65.365 51.8287 65.1224 52.1133 64.833 52.356C64.5437 52.5987 64.231 52.79 63.895 52.93C63.559 53.07 63.209 53.14 62.845 53.14ZM68.4475 53V45.65H69.9035V47.96L69.7635 47.4C69.8662 47.0453 70.0389 46.7233 70.2815 46.434C70.5335 46.1447 70.8182 45.916 71.1355 45.748C71.4622 45.58 71.7982 45.496 72.1435 45.496C72.3022 45.496 72.4515 45.51 72.5915 45.538C72.7409 45.566 72.8575 45.5987 72.9415 45.636L72.5635 47.204C72.4515 47.1573 72.3255 47.12 72.1855 47.092C72.0549 47.0547 71.9242 47.036 71.7935 47.036C71.5415 47.036 71.2989 47.0873 71.0655 47.19C70.8415 47.2833 70.6409 47.4187 70.4635 47.596C70.2955 47.764 70.1602 47.9647 70.0575 48.198C69.9549 48.422 69.9035 48.6693 69.9035 48.94V53H68.4475ZM74.612 53V45.65H76.054V53H74.612ZM75.312 44.026C75.004 44.026 74.766 43.9467 74.598 43.788C74.43 43.6293 74.346 43.4053 74.346 43.116C74.346 42.8453 74.43 42.626 74.598 42.458C74.7753 42.29 75.0133 42.206 75.312 42.206C75.62 42.206 75.858 42.2853 76.026 42.444C76.194 42.6027 76.278 42.8267 76.278 43.116C76.278 43.3867 76.1893 43.606 76.012 43.774C75.844 43.942 75.6107 44.026 75.312 44.026ZM82.9045 53V48.212C82.9045 47.8013 82.7552 47.47 82.4565 47.218C82.1672 46.9567 81.7985 46.826 81.3505 46.826C80.9398 46.826 80.5665 46.91 80.2305 47.078C79.9038 47.246 79.6052 47.5027 79.3345 47.848L78.3965 46.91C78.8352 46.434 79.3065 46.0793 79.8105 45.846C80.3238 45.6127 80.8745 45.496 81.4625 45.496C82.0225 45.496 82.5078 45.5893 82.9185 45.776C83.3292 45.9627 83.6465 46.238 83.8705 46.602C84.0945 46.9567 84.2065 47.3907 84.2065 47.904V53H82.9045ZM80.7065 53.14C80.2305 53.14 79.8058 53.0467 79.4325 52.86C79.0592 52.6733 78.7605 52.4167 78.5365 52.09C78.3218 51.754 78.2145 51.362 78.2145 50.914C78.2145 50.522 78.2845 50.1767 78.4245 49.878C78.5645 49.5793 78.7698 49.332 79.0405 49.136C79.3205 48.94 79.6658 48.7907 80.0765 48.688C80.4965 48.5853 80.9772 48.534 81.5185 48.534H83.5625L83.4365 49.682H81.3365C81.0565 49.682 80.8045 49.71 80.5805 49.766C80.3658 49.8127 80.1792 49.892 80.0205 50.004C79.8712 50.1067 79.7592 50.2327 79.6845 50.382C79.6098 50.522 79.5725 50.69 79.5725 50.886C79.5725 51.0913 79.6238 51.2733 79.7265 51.432C79.8292 51.5813 79.9692 51.698 80.1465 51.782C80.3238 51.866 80.5292 51.908 80.7625 51.908C81.0985 51.908 81.4158 51.852 81.7145 51.74C82.0225 51.6187 82.2932 51.4553 82.5265 51.25C82.7692 51.0447 82.9558 50.816 83.0865 50.564L83.4225 51.502C83.2265 51.8287 82.9838 52.1133 82.6945 52.356C82.4052 52.5987 82.0925 52.79 81.7565 52.93C81.4205 53.07 81.0705 53.14 80.7065 53.14ZM86.309 53V45.65H87.751V47.162L87.499 47.33C87.5923 47.0033 87.7743 46.7047 88.045 46.434C88.3157 46.154 88.6377 45.93 89.011 45.762C89.3843 45.5847 89.767 45.496 90.159 45.496C90.719 45.496 91.1857 45.608 91.559 45.832C91.9323 46.0467 92.2123 46.378 92.399 46.826C92.5857 47.274 92.679 47.8387 92.679 48.52V53H91.237V48.618C91.237 48.198 91.181 47.8527 91.069 47.582C90.957 47.302 90.7843 47.1013 90.551 46.98C90.3177 46.8493 90.0283 46.7933 89.683 46.812C89.403 46.812 89.1463 46.8587 88.913 46.952C88.6797 47.036 88.4743 47.1573 88.297 47.316C88.129 47.4747 87.9937 47.6613 87.891 47.876C87.7977 48.0813 87.751 48.3053 87.751 48.548V53H87.037C86.9157 53 86.7943 53 86.673 53C86.5517 53 86.4303 53 86.309 53Z" fill="white"></path><g clip-path="url(#clip0_1427_6124)"><path d="M60.9294 12.9012C61.8055 12.928 62.7073 13.2242 63.7542 13.8287C64.4493 14.23 65.3734 14.847 65.9704 15.8111L66.9683 15.4373C67.8874 15.0929 68.2774 14.0057 67.7866 13.1557C67.4485 12.5701 66.8047 12.2993 66.1886 12.3858C66.1959 11.8342 65.9172 11.2887 65.3949 10.9871C64.8725 10.6855 64.2607 10.717 63.7867 10.999C63.5536 10.4222 62.9971 10 62.3209 10C61.3394 10 60.5928 10.8813 60.7542 11.8495L60.9294 12.9012Z" fill="white"></path><path d="M44 22.75V25.7969C44 28.531 46.0461 30.796 48.6875 31.1417V33.2969C48.6875 33.6852 49.0023 34 49.3906 34H62.6094C62.9977 34 63.3125 33.6852 63.3125 33.2969V31.1417C65.9539 30.796 68 28.531 68 25.7969V22.75H44Z" fill="white"></path><path d="M67.7641 17.8463C67.5456 17.652 67.2296 17.6133 66.9706 17.749L66.5608 17.9637C66.5439 18.8676 66.2373 19.8405 65.6416 20.8723C65.5537 21.0246 65.4574 21.182 65.3533 21.3438H66.9126L67.9537 18.6231C68.0581 18.3499 67.9827 18.0407 67.7641 17.8463Z" fill="white"></path><path d="M48.3036 17.3748C49.3557 16.4283 50.7064 16.1024 51.6781 15.9977C51.7535 15.9896 51.83 15.9855 51.9057 15.9855C52.5025 15.9855 53.074 16.2407 53.4736 16.6857C53.873 17.1303 54.0652 17.7263 54.0012 18.3208C53.9079 19.1873 53.6386 20.355 52.9103 21.3438H54.6949C54.6949 21.238 54.7068 21.1315 54.7311 21.0265C55.18 19.0882 55.9385 17.0533 56.7106 15.716C57.1355 14.98 57.6065 14.3875 58.1208 13.9388C57.5832 13.2466 56.8022 12.7758 55.9328 12.6278C55.7651 11.9826 55.4158 11.3957 54.9182 10.935C54.2669 10.3321 53.4192 10 52.5313 10C51.6433 10 50.7956 10.3321 50.1443 10.935C49.6468 11.3956 49.2975 11.9825 49.1297 12.6275C47.4706 12.9085 46.2031 14.3559 46.2031 16.0938C46.2031 16.1448 46.2046 16.196 46.2069 16.2475C46.9147 16.4539 47.6643 16.7996 48.3036 17.3748Z" fill="white"></path><path d="M45.141 20.8734C45.325 21.0574 45.5277 21.2126 45.7401 21.3437H50.8669C51.0793 21.2127 51.2821 21.0574 51.466 20.8734C52.2608 20.0787 52.5207 18.9341 52.603 18.1702C52.651 17.7241 52.2749 17.3478 51.8287 17.3959C51.0648 17.4782 49.9202 17.7381 49.1254 18.5328C48.7383 18.9199 48.4782 19.3901 48.3036 19.8588C48.129 19.3901 47.8689 18.9199 47.4817 18.5328C46.6869 17.738 45.5424 17.4782 44.7785 17.3959C44.3323 17.3478 43.9561 17.724 44.0041 18.1702C44.0864 18.9341 44.3462 20.0787 45.141 20.8734Z" fill="white"></path><path d="M57.5984 17.0405L59.2006 17.9656C59.537 18.1598 59.6522 18.5898 59.458 18.9261C59.3278 19.1516 59.0914 19.2777 58.8484 19.2777C58.7291 19.2777 58.6082 19.2474 58.4975 19.1834L57.0317 18.3371C56.6675 19.2696 56.3389 20.3169 56.1011 21.3437H63.6428C63.9487 20.93 64.2139 20.5322 64.4236 20.1692C64.4635 20.1 64.5013 20.0319 64.5377 19.9644L62.917 19.0286C62.5807 18.8345 62.4655 18.4044 62.6597 18.0682C62.8539 17.7318 63.2838 17.6166 63.6202 17.8108L65.0635 18.6442C65.4746 16.9112 64.4699 15.8657 63.051 15.0465C61.2574 14.011 59.4817 13.7287 57.9284 16.4191C57.8186 16.6094 57.7081 16.8177 57.5984 17.0405Z" fill="white"></path></g><defs><linearGradient id="paint0_linear_1427_6124" x1="21.1077" y1="2.42594" x2="105.504" y2="71.004" gradientUnits="userSpaceOnUse"><stop stop-color="#02A68F"></stop><stop offset="1" stop-color="#46E760"></stop></linearGradient><clipPath id="clip0_1427_6124"><rect width="24" height="24" fill="white" transform="translate(44 10)"></rect></clipPath></defs></svg>