<svg xmlns="http://www.w3.org/2000/svg" width="143" height="69" viewBox="0 0 143 69" fill="none"><path d="M142.402 20.8782V47.5085C142.402 52.988 140.295 57.9596 136.832 61.6841C133.445 65.352 128.748 67.7982 123.483 68.2631C123.392 68.2973 123.291 68.2973 123.2 68.2973H123.166C122.985 68.3092 122.792 68.3197 122.611 68.3197C122.26 68.354 121.898 68.3644 121.548 68.3644H46.9886C45.46 68.3644 43.9658 68.1945 42.5385 67.8772C41.3616 67.6284 40.2293 67.2768 39.1418 66.8358C31.499 63.7445 26.1104 56.2492 26.1104 47.5085V41.2692C3.80497 32.5628 0 6.74735 0 6.74735C9.01335 20.2435 20.3582 24.0828 26.1104 25.1688V20.8782C26.1104 9.35152 35.4619 0 46.9886 0H121.548C133.074 0 142.403 9.35152 142.403 20.8782H142.402Z" fill="url(#paint0_linear_1427_6439)"></path><path d="M58.6151 53.14C57.9337 53.14 57.3084 53.0187 56.7391 52.776C56.1697 52.5333 55.6751 52.188 55.2551 51.74C54.8351 51.2827 54.5084 50.746 54.2751 50.13C54.0511 49.514 53.9391 48.8373 53.9391 48.1C53.9391 47.4 54.0604 46.7513 54.3031 46.154C54.5551 45.5473 54.9004 45.0153 55.3391 44.558C55.7777 44.1007 56.2864 43.746 56.8651 43.494C57.4437 43.242 58.0691 43.116 58.7411 43.116C59.2171 43.116 59.6791 43.1907 60.1271 43.34C60.5844 43.48 60.9951 43.6807 61.3591 43.942C61.7324 44.194 62.0357 44.4833 62.2691 44.81L61.2611 45.86C60.8597 45.4493 60.4491 45.1413 60.0291 44.936C59.6091 44.7307 59.1797 44.628 58.7411 44.628C58.2837 44.628 57.8544 44.7167 57.4531 44.894C57.0611 45.062 56.7157 45.3 56.4171 45.608C56.1277 45.916 55.8991 46.2847 55.7311 46.714C55.5631 47.134 55.4791 47.596 55.4791 48.1C55.4791 48.632 55.5584 49.1173 55.7171 49.556C55.8851 49.9853 56.1184 50.354 56.4171 50.662C56.7157 50.97 57.0704 51.208 57.4811 51.376C57.9011 51.5347 58.3631 51.614 58.8671 51.614C59.1751 51.614 59.4784 51.572 59.7771 51.488C60.0757 51.404 60.3557 51.2827 60.6171 51.124C60.8784 50.9653 61.1164 50.7787 61.3311 50.564L62.0871 51.796C61.8724 52.048 61.5784 52.2767 61.2051 52.482C60.8411 52.6873 60.4304 52.8507 59.9731 52.972C59.5251 53.084 59.0724 53.14 58.6151 53.14ZM64.085 53V42.64H65.527V53H64.085ZM71.018 53.14C70.2993 53.14 69.6553 52.9767 69.086 52.65C68.526 52.314 68.0826 51.8613 67.756 51.292C67.4293 50.7133 67.266 50.0553 67.266 49.318C67.266 48.5807 67.4293 47.9273 67.756 47.358C68.0826 46.7793 68.526 46.3267 69.086 46C69.6553 45.664 70.2993 45.496 71.018 45.496C71.7273 45.496 72.362 45.664 72.922 46C73.4913 46.3267 73.9393 46.7793 74.266 47.358C74.5926 47.9273 74.756 48.5807 74.756 49.318C74.756 50.0553 74.5926 50.7133 74.266 51.292C73.9393 51.8613 73.4913 52.314 72.922 52.65C72.362 52.9767 71.7273 53.14 71.018 53.14ZM71.018 51.824C71.4566 51.824 71.8486 51.7167 72.194 51.502C72.5393 51.278 72.81 50.9793 73.006 50.606C73.202 50.2233 73.2953 49.794 73.286 49.318C73.2953 48.8327 73.202 48.4033 73.006 48.03C72.81 47.6473 72.5393 47.3487 72.194 47.134C71.8486 46.9193 71.4566 46.812 71.018 46.812C70.5793 46.812 70.1826 46.924 69.828 47.148C69.4826 47.3627 69.212 47.6613 69.016 48.044C68.82 48.4173 68.7266 48.842 68.736 49.318C68.7266 49.794 68.82 50.2233 69.016 50.606C69.212 50.9793 69.4826 51.278 69.828 51.502C70.1826 51.7167 70.5793 51.824 71.018 51.824ZM77.5173 53V43.774H78.9593V53H77.5173ZM75.9913 47.05V45.65H80.6673V47.05H75.9913ZM82.2603 53V42.64H83.7023V47.162L83.4503 47.33C83.5436 47.0033 83.7256 46.7047 83.9963 46.434C84.267 46.154 84.589 45.93 84.9623 45.762C85.3356 45.5847 85.7183 45.496 86.1103 45.496C86.6703 45.496 87.137 45.608 87.5103 45.832C87.8836 46.0467 88.1636 46.378 88.3503 46.826C88.537 47.274 88.6303 47.8387 88.6303 48.52V53H87.1883V48.618C87.1883 48.198 87.1323 47.8527 87.0203 47.582C86.9083 47.302 86.7356 47.1013 86.5023 46.98C86.269 46.8493 85.9796 46.7933 85.6343 46.812C85.3543 46.812 85.0976 46.8587 84.8643 46.952C84.631 47.036 84.4256 47.1573 84.2483 47.316C84.0803 47.4747 83.945 47.6613 83.8423 47.876C83.749 48.0813 83.7023 48.3053 83.7023 48.548V53H82.9883C82.867 53 82.7456 53 82.6243 53C82.503 53 82.3816 53 82.2603 53ZM91.1045 53V45.65H92.5465V53H91.1045ZM91.8045 44.026C91.4965 44.026 91.2585 43.9467 91.0905 43.788C90.9225 43.6293 90.8385 43.4053 90.8385 43.116C90.8385 42.8453 90.9225 42.626 91.0905 42.458C91.2678 42.29 91.5058 42.206 91.8045 42.206C92.1125 42.206 92.3505 42.2853 92.5185 42.444C92.6865 42.6027 92.7705 42.8267 92.7705 43.116C92.7705 43.3867 92.6818 43.606 92.5045 43.774C92.3365 43.942 92.1031 44.026 91.8045 44.026ZM95.043 53V45.65H96.485V47.162L96.233 47.33C96.3263 47.0033 96.5083 46.7047 96.779 46.434C97.0496 46.154 97.3716 45.93 97.745 45.762C98.1183 45.5847 98.501 45.496 98.893 45.496C99.453 45.496 99.9196 45.608 100.293 45.832C100.666 46.0467 100.946 46.378 101.133 46.826C101.32 47.274 101.413 47.8387 101.413 48.52V53H99.971V48.618C99.971 48.198 99.915 47.8527 99.803 47.582C99.691 47.302 99.5183 47.1013 99.285 46.98C99.0516 46.8493 98.7623 46.7933 98.417 46.812C98.137 46.812 97.8803 46.8587 97.647 46.952C97.4136 47.036 97.2083 47.1573 97.031 47.316C96.863 47.4747 96.7276 47.6613 96.625 47.876C96.5316 48.0813 96.485 48.3053 96.485 48.548V53H95.771C95.6496 53 95.5283 53 95.407 53C95.2856 53 95.1643 53 95.043 53ZM106.939 56.22C106.416 56.22 105.894 56.136 105.371 55.968C104.858 55.8093 104.442 55.5993 104.125 55.338L104.657 54.218C104.937 54.4327 105.282 54.6053 105.693 54.736C106.113 54.8667 106.528 54.932 106.939 54.932C107.452 54.932 107.882 54.848 108.227 54.68C108.572 54.512 108.834 54.2647 109.011 53.938C109.188 53.6113 109.277 53.2053 109.277 52.72V51.306L109.431 51.404C109.384 51.6933 109.23 51.9733 108.969 52.244C108.717 52.5053 108.4 52.72 108.017 52.888C107.634 53.056 107.242 53.14 106.841 53.14C106.141 53.14 105.516 52.9767 104.965 52.65C104.424 52.314 103.994 51.8613 103.677 51.292C103.36 50.7133 103.201 50.0553 103.201 49.318C103.201 48.5807 103.355 47.9273 103.663 47.358C103.98 46.7793 104.41 46.3267 104.951 46C105.502 45.664 106.118 45.496 106.799 45.496C107.079 45.496 107.35 45.5333 107.611 45.608C107.872 45.6733 108.115 45.7713 108.339 45.902C108.563 46.0233 108.764 46.1587 108.941 46.308C109.118 46.4573 109.263 46.616 109.375 46.784C109.487 46.952 109.557 47.1107 109.585 47.26L109.277 47.372V45.65H110.719V52.552C110.719 53.14 110.63 53.658 110.453 54.106C110.285 54.5633 110.038 54.946 109.711 55.254C109.384 55.5713 108.988 55.8093 108.521 55.968C108.054 56.136 107.527 56.22 106.939 56.22ZM106.995 51.81C107.452 51.81 107.858 51.7027 108.213 51.488C108.568 51.2733 108.843 50.9793 109.039 50.606C109.235 50.2327 109.333 49.8033 109.333 49.318C109.333 48.8327 109.23 48.4033 109.025 48.03C108.829 47.6473 108.554 47.3487 108.199 47.134C107.854 46.9193 107.452 46.812 106.995 46.812C106.547 46.812 106.146 46.924 105.791 47.148C105.446 47.3627 105.17 47.6613 104.965 48.044C104.769 48.4173 104.671 48.842 104.671 49.318C104.671 49.794 104.769 50.2233 104.965 50.606C105.17 50.9793 105.446 51.2733 105.791 51.488C106.146 51.7027 106.547 51.81 106.995 51.81Z" fill="white"></path><g clip-path="url(#clip0_1427_6439)"><path d="M83.3516 31.8906H72.8047C72.2222 31.8906 71.75 32.3629 71.75 32.9453C71.75 33.5278 72.2222 34 72.8047 34H83.3516C83.934 34 84.4062 33.5278 84.4062 32.9453C84.4062 32.3629 83.934 31.8906 83.3516 31.8906Z" fill="white"></path><path d="M91.0255 17.0781H87.2188V17.7433L85.8125 17.2746V15.5358C87.0245 15.2233 87.9219 14.1206 87.9219 12.8125C87.9219 11.2614 86.6605 10 85.1094 10C83.5583 10 82.2969 11.2614 82.2969 12.8125H83.7031C83.7031 12.0372 84.3341 11.4062 85.1094 11.4062C85.8846 11.4062 86.5156 12.0372 86.5156 12.8125C86.5156 13.5878 85.8846 14.2188 85.1094 14.2188H84.4062V17.2746L83 17.7433V17.0781H79.1932L75.9688 20.3026V25.5156H78.7812V26.9688H83.3516C84.7084 26.9688 85.8125 28.0729 85.8125 29.4297C85.8125 30.1185 85.5261 30.7404 85.0684 31.1875C85.5261 31.6346 85.8125 32.2565 85.8125 32.9453C85.8125 33.3242 85.7193 33.679 85.5657 34H91.4375V25.5156H94.25V20.3026L91.0255 17.0781ZM85.1094 21.2969C83.9586 21.2969 83.0236 20.37 83.0037 19.2239L85.1094 18.5221L87.2151 19.2239C87.1951 20.37 86.2602 21.2969 85.1094 21.2969Z" fill="white"></path><path d="M83.3516 28.375H72.8047C72.2222 28.375 71.75 28.8472 71.75 29.4297C71.75 30.0121 72.2222 30.4844 72.8047 30.4844H83.3516C83.934 30.4844 84.4062 30.0121 84.4062 29.4297C84.4062 28.8472 83.934 28.375 83.3516 28.375Z" fill="white"></path></g><defs><linearGradient id="paint0_linear_1427_6439" x1="-33.0617" y1="-51.9611" x2="27.5559" y2="81.2419" gradientUnits="userSpaceOnUse"><stop stop-color="#0005FF"></stop><stop offset="0.846565" stop-color="#00C0FF"></stop></linearGradient><clipPath id="clip0_1427_6439"><rect width="24" height="24" fill="white" transform="translate(71 10)"></rect></clipPath></defs></svg>