<svg xmlns="http://www.w3.org/2000/svg" width="143" height="69" viewBox="0 0 143 69" fill="none"><path d="M142.402 20.8782V47.5085C142.402 52.988 140.295 57.9596 136.832 61.6841C133.445 65.352 128.748 67.7982 123.483 68.2631C123.392 68.2973 123.291 68.2973 123.2 68.2973H123.166C122.985 68.3092 122.792 68.3197 122.611 68.3197C122.26 68.354 121.898 68.3644 121.548 68.3644H46.9886C45.46 68.3644 43.9658 68.1945 42.5385 67.8772C41.3616 67.6284 40.2293 67.2768 39.1418 66.8358C31.499 63.7445 26.1104 56.2492 26.1104 47.5085V41.2692C3.80497 32.5628 0 6.74735 0 6.74735C9.01335 20.2435 20.3582 24.0828 26.1104 25.1688V20.8782C26.1104 9.35152 35.4619 0 46.9886 0H121.548C133.074 0 142.403 9.35152 142.403 20.8782H142.402Z" fill="url(#paint0_linear_1427_6173)"></path><path d="M57.7918 53V43.2H59.1498L65.1418 51.222L64.9178 51.348C64.8524 50.9653 64.7964 50.522 64.7498 50.018C64.7124 49.514 64.6844 48.9587 64.6658 48.352C64.6471 47.7453 64.6378 47.1013 64.6378 46.42V43.2H66.1498V53H64.7638L58.8698 45.272L59.0238 45.076C59.0891 45.7853 59.1404 46.3687 59.1778 46.826C59.2151 47.274 59.2431 47.6333 59.2618 47.904C59.2804 48.1747 59.2898 48.3893 59.2898 48.548C59.2991 48.6973 59.3038 48.8233 59.3038 48.926V53H57.7918ZM72.1133 53.14C71.3947 53.14 70.7507 52.9767 70.1813 52.65C69.6213 52.314 69.178 51.8613 68.8513 51.292C68.5247 50.7133 68.3613 50.0553 68.3613 49.318C68.3613 48.5807 68.5247 47.9273 68.8513 47.358C69.178 46.7793 69.6213 46.3267 70.1813 46C70.7507 45.664 71.3947 45.496 72.1133 45.496C72.8227 45.496 73.4573 45.664 74.0173 46C74.5867 46.3267 75.0347 46.7793 75.3613 47.358C75.688 47.9273 75.8513 48.5807 75.8513 49.318C75.8513 50.0553 75.688 50.7133 75.3613 51.292C75.0347 51.8613 74.5867 52.314 74.0173 52.65C73.4573 52.9767 72.8227 53.14 72.1133 53.14ZM72.1133 51.824C72.552 51.824 72.944 51.7167 73.2893 51.502C73.6347 51.278 73.9053 50.9793 74.1013 50.606C74.2973 50.2233 74.3907 49.794 74.3813 49.318C74.3907 48.8327 74.2973 48.4033 74.1013 48.03C73.9053 47.6473 73.6347 47.3487 73.2893 47.134C72.944 46.9193 72.552 46.812 72.1133 46.812C71.6747 46.812 71.278 46.924 70.9233 47.148C70.578 47.3627 70.3073 47.6613 70.1113 48.044C69.9153 48.4173 69.822 48.842 69.8313 49.318C69.822 49.794 69.9153 50.2233 70.1113 50.606C70.3073 50.9793 70.578 51.278 70.9233 51.502C71.278 51.7167 71.6747 51.824 72.1133 51.824ZM81.0066 53.14C80.2879 53.14 79.6439 52.9767 79.0746 52.65C78.5146 52.314 78.0713 51.8613 77.7446 51.292C77.4179 50.7133 77.2546 50.0553 77.2546 49.318C77.2546 48.5807 77.4179 47.9273 77.7446 47.358C78.0713 46.7793 78.5146 46.3267 79.0746 46C79.6439 45.664 80.2879 45.496 81.0066 45.496C81.7159 45.496 82.3506 45.664 82.9106 46C83.4799 46.3267 83.9279 46.7793 84.2546 47.358C84.5813 47.9273 84.7446 48.5807 84.7446 49.318C84.7446 50.0553 84.5813 50.7133 84.2546 51.292C83.9279 51.8613 83.4799 52.314 82.9106 52.65C82.3506 52.9767 81.7159 53.14 81.0066 53.14ZM81.0066 51.824C81.4453 51.824 81.8373 51.7167 82.1826 51.502C82.5279 51.278 82.7986 50.9793 82.9946 50.606C83.1906 50.2233 83.2839 49.794 83.2746 49.318C83.2839 48.8327 83.1906 48.4033 82.9946 48.03C82.7986 47.6473 82.5279 47.3487 82.1826 47.134C81.8373 46.9193 81.4453 46.812 81.0066 46.812C80.5679 46.812 80.1713 46.924 79.8166 47.148C79.4713 47.3627 79.2006 47.6613 79.0046 48.044C78.8086 48.4173 78.7153 48.842 78.7246 49.318C78.7153 49.794 78.8086 50.2233 79.0046 50.606C79.2006 50.9793 79.4713 51.278 79.8166 51.502C80.1713 51.7167 80.5679 51.824 81.0066 51.824ZM89.6619 53.14C88.9899 53.14 88.3879 52.9767 87.8559 52.65C87.3332 52.314 86.9179 51.8613 86.6099 51.292C86.3019 50.7133 86.1479 50.0553 86.1479 49.318C86.1479 48.5807 86.2972 47.9273 86.5959 47.358C86.9039 46.7793 87.3192 46.3267 87.8419 46C88.3646 45.664 88.9572 45.496 89.6199 45.496C89.9839 45.496 90.3339 45.5567 90.6699 45.678C91.0152 45.79 91.3232 45.9487 91.5939 46.154C91.8646 46.35 92.0746 46.5693 92.2239 46.812C92.3826 47.0453 92.4619 47.2833 92.4619 47.526L92.0419 47.554V42.64H93.4839V53H92.0419V51.25H92.3219C92.3219 51.474 92.2472 51.698 92.0979 51.922C91.9486 52.1367 91.7479 52.3373 91.4959 52.524C91.2532 52.7107 90.9686 52.86 90.6419 52.972C90.3246 53.084 89.9979 53.14 89.6619 53.14ZM89.8579 51.894C90.2966 51.894 90.6839 51.782 91.0199 51.558C91.3559 51.334 91.6172 51.0307 91.8039 50.648C91.9999 50.256 92.0979 49.8127 92.0979 49.318C92.0979 48.8233 91.9999 48.3847 91.8039 48.002C91.6172 47.61 91.3559 47.302 91.0199 47.078C90.6839 46.854 90.2966 46.742 89.8579 46.742C89.4192 46.742 89.0319 46.854 88.6959 47.078C88.3599 47.302 88.0939 47.61 87.8979 48.002C87.7112 48.3847 87.6179 48.8233 87.6179 49.318C87.6179 49.8127 87.7112 50.256 87.8979 50.648C88.0939 51.0307 88.3599 51.334 88.6959 51.558C89.0319 51.782 89.4192 51.894 89.8579 51.894ZM95.7769 53V42.64H97.2189V53H95.7769ZM102.836 53.14C102.08 53.14 101.408 52.9813 100.82 52.664C100.241 52.3373 99.7839 51.894 99.4479 51.334C99.1212 50.774 98.9579 50.13 98.9579 49.402C98.9579 48.8233 99.0512 48.296 99.2379 47.82C99.4246 47.344 99.6812 46.9333 100.008 46.588C100.344 46.2333 100.741 45.9627 101.198 45.776C101.665 45.58 102.169 45.482 102.71 45.482C103.186 45.482 103.629 45.5753 104.04 45.762C104.451 45.9393 104.805 46.1867 105.104 46.504C105.412 46.8213 105.645 47.1993 105.804 47.638C105.972 48.0673 106.051 48.5387 106.042 49.052L106.028 49.668H100.022L99.6999 48.52H104.782L104.572 48.758V48.422C104.544 48.114 104.441 47.8387 104.264 47.596C104.087 47.3533 103.863 47.162 103.592 47.022C103.321 46.882 103.027 46.812 102.71 46.812C102.206 46.812 101.781 46.91 101.436 47.106C101.091 47.2927 100.829 47.5727 100.652 47.946C100.475 48.31 100.386 48.7627 100.386 49.304C100.386 49.8173 100.493 50.2653 100.708 50.648C100.923 51.0213 101.226 51.3107 101.618 51.516C102.01 51.7213 102.463 51.824 102.976 51.824C103.34 51.824 103.676 51.7633 103.984 51.642C104.301 51.5207 104.642 51.3013 105.006 50.984L105.734 52.006C105.51 52.23 105.235 52.426 104.908 52.594C104.591 52.762 104.25 52.8973 103.886 53C103.531 53.0933 103.181 53.14 102.836 53.14ZM110.339 53.14C109.723 53.14 109.168 53.0327 108.673 52.818C108.178 52.6033 107.768 52.286 107.441 51.866L108.421 51.026C108.701 51.3527 109.004 51.5907 109.331 51.74C109.667 51.88 110.045 51.95 110.465 51.95C110.633 51.95 110.787 51.9313 110.927 51.894C111.076 51.8473 111.202 51.782 111.305 51.698C111.417 51.614 111.501 51.516 111.557 51.404C111.613 51.2827 111.641 51.152 111.641 51.012C111.641 50.7693 111.552 50.5733 111.375 50.424C111.282 50.3587 111.132 50.2887 110.927 50.214C110.731 50.13 110.474 50.046 110.157 49.962C109.616 49.822 109.172 49.6633 108.827 49.486C108.482 49.3087 108.216 49.108 108.029 48.884C107.889 48.7067 107.786 48.5153 107.721 48.31C107.656 48.0953 107.623 47.862 107.623 47.61C107.623 47.1993 107.74 46.8353 107.973 46.518C108.206 46.2007 108.519 45.9533 108.911 45.776C109.312 45.5893 109.76 45.496 110.255 45.496C110.6 45.496 110.941 45.5427 111.277 45.636C111.622 45.7293 111.94 45.8647 112.229 46.042C112.518 46.2193 112.761 46.4293 112.957 46.672L112.131 47.582C111.954 47.4047 111.758 47.2507 111.543 47.12C111.338 46.98 111.128 46.8727 110.913 46.798C110.698 46.7233 110.502 46.686 110.325 46.686C110.129 46.686 109.952 46.7047 109.793 46.742C109.634 46.7793 109.499 46.8353 109.387 46.91C109.284 46.9847 109.205 47.078 109.149 47.19C109.093 47.302 109.065 47.428 109.065 47.568C109.074 47.6893 109.102 47.806 109.149 47.918C109.205 48.0207 109.28 48.1093 109.373 48.184C109.476 48.2587 109.63 48.338 109.835 48.422C110.04 48.506 110.302 48.5853 110.619 48.66C111.086 48.7813 111.468 48.9167 111.767 49.066C112.075 49.206 112.318 49.3693 112.495 49.556C112.682 49.7333 112.812 49.9387 112.887 50.172C112.962 50.4053 112.999 50.6667 112.999 50.956C112.999 51.376 112.878 51.754 112.635 52.09C112.402 52.4167 112.084 52.6733 111.683 52.86C111.282 53.0467 110.834 53.14 110.339 53.14Z" fill="white"></path><path d="M80.7197 19.375L80.5517 19.207C77.3523 19.6218 75.625 20.5574 75.625 21.25C75.6318 21.3599 75.6696 21.4656 75.7341 21.5549C76.6694 20.9811 78.3936 20.5293 80.5476 20.2971L80.7197 20.125C80.8191 20.0255 80.875 19.8906 80.875 19.75C80.875 19.6094 80.8191 19.4745 80.7197 19.375Z" fill="white"></path><path d="M91.423 22.0776C90.463 21.5721 88.7099 21.1758 86.5787 20.9901C86.5303 21.0684 86.5031 21.158 86.5 21.25C86.5004 21.3906 86.5562 21.5253 86.6553 21.625L86.875 21.8448C86.9943 21.9633 87.0889 22.1044 87.1533 22.2598C87.2176 22.4152 87.2505 22.5818 87.25 22.75V23.2889C89.2045 23.0298 90.6344 22.5648 91.423 22.0776Z" fill="white"></path><path d="M75.625 22.5066V23.125C75.625 25.313 76.4942 27.4115 78.0414 28.9586C79.5885 30.5058 81.687 31.375 83.875 31.375C86.063 31.375 88.1615 30.5058 89.7086 28.9586C91.2558 27.4115 92.125 25.313 92.125 23.125V22.5066C90.64 23.6462 87.1799 24.25 83.875 24.25C80.5701 24.25 77.11 23.6462 75.625 22.5066Z" fill="white"></path><path d="M87.1199 19.1973C87.2042 19.3666 87.2487 19.553 87.25 19.7422C87.2512 19.9314 87.2091 20.1184 87.127 20.2889C89.3237 20.5184 91.0645 20.9684 92.0162 21.5541C92.0805 21.4651 92.1182 21.3596 92.125 21.25C92.125 20.5139 90.2691 19.5944 87.1199 19.1973Z" fill="white"></path><path d="M76.3281 22.0788C77.1662 22.5959 78.7319 23.0875 80.875 23.3328V22.75C80.8746 22.6095 80.8188 22.4747 80.7198 22.375L80.5 22.1553C80.3807 22.0367 80.2861 21.8956 80.2217 21.7402C80.1574 21.5848 80.1245 21.4182 80.125 21.25C80.1268 21.1998 80.1317 21.1497 80.1396 21.1C78.8249 21.22 77.538 21.5504 76.3281 22.0788Z" fill="white"></path><path d="M81.25 31.7335V32.875H86.5V31.7335C84.7889 32.2555 82.9611 32.2555 81.25 31.7335Z" fill="white"></path><path d="M76.375 17.6151C76.375 17.6975 76.3912 17.7791 76.4227 17.8552C76.4543 17.9313 76.5005 18.0005 76.5587 18.0587L76.5663 18.0663C76.6448 18.1447 76.7428 18.201 76.8502 18.2292C76.9576 18.2575 77.0706 18.2567 77.1776 18.2271C77.2846 18.1974 77.3818 18.1399 77.4593 18.0604C77.5369 17.9809 77.5919 17.8822 77.6189 17.7745L77.875 16.75L76.8505 17.0061C76.7147 17.0401 76.5941 17.1185 76.508 17.2288C76.4218 17.3391 76.375 17.4751 76.375 17.6151Z" fill="white"></path><path d="M76.7501 15.25L76.494 14.2255C76.467 14.1178 76.412 14.0191 76.3345 13.9396C76.2569 13.8601 76.1597 13.8026 76.0527 13.7729C75.9457 13.7433 75.8327 13.7425 75.7253 13.7708C75.6179 13.799 75.5199 13.8553 75.4414 13.9337L75.4339 13.9412C75.3554 14.0198 75.2992 14.1178 75.2709 14.2252C75.2426 14.3326 75.2434 14.4456 75.2731 14.5526C75.3027 14.6596 75.3602 14.7568 75.4397 14.8343C75.5192 14.9119 75.6179 14.9669 75.7256 14.9939L76.7501 15.25Z" fill="white"></path><path d="M90.7589 18.25C90.8413 18.2501 90.9229 18.2339 90.999 18.2023C91.0752 18.1708 91.1443 18.1246 91.2025 18.0663L91.21 18.0587C91.2885 17.9802 91.3448 17.8823 91.3731 17.7749C91.4013 17.6675 91.4006 17.5546 91.371 17.4476C91.3414 17.3405 91.2839 17.2433 91.2044 17.1658C91.125 17.0882 91.0264 17.0331 90.9187 17.0061L89.8938 16.75L90.1499 17.7745C90.1839 17.9103 90.2623 18.0308 90.3727 18.117C90.483 18.2031 90.6189 18.2499 90.7589 18.25Z" fill="white"></path><path d="M92.3088 13.9337C92.2302 13.8553 92.1322 13.799 92.0248 13.7708C91.9174 13.7425 91.8044 13.7433 91.6974 13.7729C91.5904 13.8026 91.4932 13.8601 91.4157 13.9396C91.3381 14.0191 91.2831 14.1178 91.2561 14.2255L91 15.25L92.0245 14.9939C92.1322 14.9669 92.2309 14.9119 92.3104 14.8343C92.3899 14.7568 92.4474 14.6596 92.4771 14.5526C92.5067 14.4456 92.5075 14.3326 92.4792 14.2252C92.451 14.1178 92.3947 14.0198 92.3162 13.9412L92.3088 13.9337Z" fill="white"></path><path d="M95.125 11.125V10.375H78.625V11.125H81.4052L81.0302 11.5C80.9312 11.5997 80.8754 11.7344 80.875 11.875H78.625V12.625H81.0302L81.25 12.8447C81.4901 13.0848 81.625 13.4105 81.625 13.75C81.625 14.0895 81.4901 14.4152 81.25 14.6552L81.0302 14.875C80.9309 14.9745 80.875 15.1094 80.875 15.25C80.875 15.3906 80.9309 15.5255 81.0302 15.625L81.25 15.8448C81.4901 16.0848 81.625 16.4105 81.625 16.75C81.625 17.0895 81.4901 17.4152 81.25 17.6552L81.0302 17.875C80.9309 17.9745 80.875 18.1094 80.875 18.25C80.875 18.3906 80.9309 18.5255 81.0302 18.625L81.25 18.8448C81.4901 19.0848 81.625 19.4105 81.625 19.75C81.625 20.0895 81.4901 20.4152 81.25 20.6552L81.0302 20.875C80.9309 20.9745 80.875 21.1094 80.875 21.25C80.875 21.3906 80.9309 21.5255 81.0302 21.625L81.25 21.8448C81.3693 21.9633 81.4639 22.1044 81.5283 22.2598C81.5926 22.4152 81.6255 22.5818 81.625 22.75V23.4066C81.9869 23.4366 82.3604 23.4606 82.75 23.4756V22.75C82.7496 22.6094 82.6938 22.4747 82.5948 22.375L82.375 22.1553C82.1349 21.9152 82 21.5895 82 21.25C82 20.9105 82.1349 20.5848 82.375 20.3448L82.5948 20.125C82.6941 20.0255 82.75 19.8906 82.75 19.75C82.75 19.6094 82.6941 19.4745 82.5948 19.375L82.375 19.1552C82.1349 18.9152 82 18.5895 82 18.25C82 17.9105 82.1349 17.5848 82.375 17.3448L82.5948 17.125C82.6941 17.0255 82.75 16.8906 82.75 16.75C82.75 16.6094 82.6941 16.4745 82.5948 16.375L82.375 16.1552C82.1349 15.9152 82 15.5895 82 15.25C82 14.9105 82.1349 14.5848 82.375 14.3448L82.5948 14.125C82.6941 14.0255 82.75 13.8906 82.75 13.75C82.75 13.6094 82.6941 13.4745 82.5948 13.375L82.375 13.1552C82.2286 13.0069 82.1211 12.8248 82.0619 12.625H82.9052L83.125 12.8447C83.3651 13.0848 83.5 13.4105 83.5 13.75C83.5 14.0895 83.3651 14.4152 83.125 14.6552L82.9052 14.875C82.8059 14.9745 82.75 15.1094 82.75 15.25C82.75 15.3906 82.8059 15.5255 82.9052 15.625L83.125 15.8448C83.3651 16.0848 83.5 16.4105 83.5 16.75C83.5 17.0895 83.3651 17.4152 83.125 17.6552L82.9052 17.875C82.8059 17.9745 82.75 18.1094 82.75 18.25C82.75 18.3906 82.8059 18.5255 82.9052 18.625L83.125 18.8448C83.3651 19.0848 83.5 19.4105 83.5 19.75C83.5 20.0895 83.3651 20.4152 83.125 20.6552L82.9052 20.875C82.8059 20.9745 82.75 21.1094 82.75 21.25C82.75 21.3906 82.8059 21.5255 82.9052 21.625L83.125 21.8448C83.2443 21.9633 83.3389 22.1044 83.4033 22.2598C83.4676 22.4152 83.5005 22.5818 83.5 22.75V23.494C83.6256 23.494 83.7467 23.5 83.875 23.5C84.1311 23.5 84.379 23.4944 84.625 23.488V22.75C84.6246 22.6094 84.5688 22.4747 84.4698 22.375L84.25 22.1553C84.0099 21.9152 83.875 21.5895 83.875 21.25C83.875 20.9105 84.0099 20.5848 84.25 20.3448L84.4698 20.125C84.5691 20.0255 84.625 19.8906 84.625 19.75C84.625 19.6094 84.5691 19.4745 84.4698 19.375L84.25 19.1552C84.0099 18.9152 83.875 18.5895 83.875 18.25C83.875 17.9105 84.0099 17.5848 84.25 17.3448L84.4698 17.125C84.5691 17.0255 84.625 16.8906 84.625 16.75C84.625 16.6094 84.5691 16.4745 84.4698 16.375L84.25 16.1552C84.0099 15.9152 83.875 15.5895 83.875 15.25C83.875 14.9105 84.0099 14.5848 84.25 14.3448L84.4698 14.125C84.5691 14.0255 84.625 13.8906 84.625 13.75C84.625 13.6094 84.5691 13.4745 84.4698 13.375L84.25 13.1552C84.1036 13.0069 83.9961 12.8248 83.9369 12.625H84.7802L85 12.8447C85.2401 13.0848 85.375 13.4105 85.375 13.75C85.375 14.0895 85.2401 14.4152 85 14.6552L84.7802 14.875C84.6809 14.9745 84.625 15.1094 84.625 15.25C84.625 15.3906 84.6809 15.5255 84.7802 15.625L85 15.8448C85.2401 16.0848 85.375 16.4105 85.375 16.75C85.375 17.0895 85.2401 17.4152 85 17.6552L84.7802 17.875C84.6809 17.9745 84.625 18.1094 84.625 18.25C84.625 18.3906 84.6809 18.5255 84.7802 18.625L85 18.8448C85.2401 19.0848 85.375 19.4105 85.375 19.75C85.375 20.0895 85.2401 20.4152 85 20.6552L84.7802 20.875C84.6809 20.9745 84.625 21.1094 84.625 21.25C84.625 21.3906 84.6809 21.5255 84.7802 21.625L85 21.8448C85.1193 21.9633 85.2139 22.1044 85.2783 22.2598C85.3426 22.4152 85.3755 22.5818 85.375 22.75V23.4576C85.7631 23.437 86.1411 23.4111 86.5 23.3759V22.75C86.4996 22.6094 86.4438 22.4747 86.3447 22.375L86.125 22.1553C85.8849 21.9152 85.75 21.5895 85.75 21.25C85.75 20.9105 85.8849 20.5848 86.125 20.3448L86.3447 20.125C86.4441 20.0255 86.5 19.8906 86.5 19.75C86.5 19.6094 86.4441 19.4745 86.3447 19.375L86.125 19.1552C85.8849 18.9152 85.75 18.5895 85.75 18.25C85.75 17.9105 85.8849 17.5848 86.125 17.3448L86.3447 17.125C86.4441 17.0255 86.5 16.8906 86.5 16.75C86.5 16.6094 86.4441 16.4745 86.3447 16.375L86.125 16.1552C85.8849 15.9152 85.75 15.5895 85.75 15.25C85.75 14.9105 85.8849 14.5848 86.125 14.3448L86.3447 14.125C86.4441 14.0255 86.5 13.8906 86.5 13.75C86.5 13.6094 86.4441 13.4745 86.3447 13.375L86.125 13.1552C85.9786 13.0069 85.8711 12.8248 85.8119 12.625H95.125V11.875H85.75C85.7504 11.6051 85.837 11.3423 85.9971 11.125H95.125ZM82 11.875C82.0004 11.6051 82.087 11.3423 82.2471 11.125H83.2802L82.9052 11.5C82.8062 11.5997 82.7504 11.7344 82.75 11.875H82ZM84.7802 11.5C84.6812 11.5997 84.6254 11.7344 84.625 11.875H83.875C83.8754 11.6051 83.962 11.3423 84.1221 11.125H85.1553L84.7802 11.5Z" fill="white"></path><defs><linearGradient id="paint0_linear_1427_6173" x1="-38.19" y1="-37.3993" x2="38.4461" y2="108.136" gradientUnits="userSpaceOnUse"><stop stop-color="#FD5900"></stop><stop offset="1" stop-color="#FF9900"></stop></linearGradient></defs></svg>