<svg xmlns="http://www.w3.org/2000/svg" width="117" height="98" viewBox="0 0 117 98" fill="none"><path d="M116.286 20.8543V47.4907C116.286 56.501 110.568 64.1869 102.558 67.0965C100.331 67.901 97.9297 68.3465 95.4298 68.3465H46.5893C46.4284 68.8411 46.2675 69.3238 46.0947 69.7946C44.8194 73.3597 43.2358 76.527 41.4897 79.3368C40.7969 80.4631 40.0789 81.5283 39.3369 82.531C32.1203 92.4323 23.4824 96.8883 23.1099 97.0745C26.8478 90.8233 29.2852 84.8208 30.8197 79.3383C31.946 75.365 32.5896 71.6643 32.9486 68.348H20.8558C17.3905 68.348 14.1234 67.5062 11.251 66.009C4.56627 62.5303 0 55.5505 0 47.4921V20.8558C0 9.33216 9.34557 0 20.8558 0H95.4283C106.952 0 116.284 9.33216 116.284 20.8558L116.286 20.8543Z" fill="url(#paint0_linear_1427_6260)"></path><path d="M39.4724 53.14C38.6697 53.14 37.9604 52.9813 37.3444 52.664C36.7377 52.3467 36.215 51.8707 35.7764 51.236L36.8124 50.046C37.2697 50.6993 37.7084 51.152 38.1284 51.404C38.5484 51.656 39.0477 51.782 39.6264 51.782C39.981 51.782 40.303 51.726 40.5924 51.614C40.8817 51.502 41.1104 51.348 41.2784 51.152C41.4464 50.956 41.5304 50.732 41.5304 50.48C41.5304 50.312 41.5024 50.1533 41.4464 50.004C41.3904 49.8547 41.3017 49.7193 41.1804 49.598C41.0684 49.4767 40.919 49.3647 40.7324 49.262C40.555 49.1593 40.345 49.0707 40.1024 48.996C39.8597 48.912 39.5797 48.842 39.2624 48.786C38.7584 48.6833 38.3197 48.548 37.9464 48.38C37.573 48.212 37.2604 48.002 37.0084 47.75C36.7564 47.498 36.5697 47.2133 36.4484 46.896C36.327 46.5693 36.2664 46.2053 36.2664 45.804C36.2664 45.272 36.4157 44.8007 36.7144 44.39C37.013 43.9793 37.4144 43.6573 37.9184 43.424C38.4317 43.1813 39.0057 43.06 39.6404 43.06C40.3964 43.06 41.0544 43.2093 41.6144 43.508C42.1837 43.7973 42.6317 44.222 42.9584 44.782L41.8944 45.832C41.6144 45.3747 41.2784 45.0247 40.8864 44.782C40.5037 44.5393 40.0744 44.418 39.5984 44.418C39.2344 44.418 38.917 44.474 38.6464 44.586C38.3757 44.698 38.161 44.8567 38.0024 45.062C37.853 45.258 37.7784 45.4913 37.7784 45.762C37.7784 45.958 37.8157 46.14 37.8904 46.308C37.965 46.4667 38.077 46.6113 38.2264 46.742C38.385 46.8633 38.595 46.9753 38.8564 47.078C39.1177 47.1713 39.4304 47.2553 39.7944 47.33C40.3077 47.442 40.765 47.5867 41.1664 47.764C41.5677 47.932 41.9084 48.1327 42.1884 48.366C42.4684 48.5993 42.6784 48.8607 42.8184 49.15C42.9677 49.4393 43.0424 49.752 43.0424 50.088C43.0424 50.7133 42.8977 51.2547 42.6084 51.712C42.319 52.1693 41.9084 52.524 41.3764 52.776C40.8444 53.0187 40.2097 53.14 39.4724 53.14ZM45.1007 56.08V45.65H46.5567V47.33L46.3327 47.204C46.3887 46.924 46.5474 46.658 46.8087 46.406C47.07 46.1447 47.3874 45.9347 47.7607 45.776C48.1434 45.608 48.5354 45.524 48.9367 45.524C49.5994 45.524 50.1874 45.6873 50.7007 46.014C51.214 46.3407 51.62 46.7887 51.9187 47.358C52.2174 47.9273 52.3667 48.5807 52.3667 49.318C52.3667 50.046 52.2174 50.6993 51.9187 51.278C51.6294 51.8473 51.228 52.3 50.7147 52.636C50.2014 52.9627 49.6227 53.126 48.9787 53.126C48.5494 53.126 48.134 53.042 47.7327 52.874C47.3314 52.6967 46.9907 52.4727 46.7107 52.202C46.4307 51.9313 46.258 51.6513 46.1927 51.362L46.5567 51.166V56.08H45.1007ZM48.7407 51.796C49.17 51.796 49.5527 51.6887 49.8887 51.474C50.2247 51.2593 50.4907 50.9653 50.6867 50.592C50.8827 50.2187 50.9807 49.794 50.9807 49.318C50.9807 48.842 50.8827 48.422 50.6867 48.058C50.5 47.6847 50.2387 47.3907 49.9027 47.176C49.5667 46.9613 49.1794 46.854 48.7407 46.854C48.302 46.854 47.9147 46.9613 47.5787 47.176C47.2427 47.3813 46.9767 47.6707 46.7807 48.044C46.5847 48.4173 46.4867 48.842 46.4867 49.318C46.4867 49.794 46.5847 50.2187 46.7807 50.592C46.9767 50.9653 47.2427 51.2593 47.5787 51.474C47.9147 51.6887 48.302 51.796 48.7407 51.796ZM57.5167 53.14C56.7981 53.14 56.1541 52.9767 55.5847 52.65C55.0247 52.314 54.5814 51.8613 54.2547 51.292C53.9281 50.7133 53.7647 50.0553 53.7647 49.318C53.7647 48.5807 53.9281 47.9273 54.2547 47.358C54.5814 46.7793 55.0247 46.3267 55.5847 46C56.1541 45.664 56.7981 45.496 57.5167 45.496C58.2261 45.496 58.8607 45.664 59.4207 46C59.9901 46.3267 60.4381 46.7793 60.7647 47.358C61.0914 47.9273 61.2547 48.5807 61.2547 49.318C61.2547 50.0553 61.0914 50.7133 60.7647 51.292C60.4381 51.8613 59.9901 52.314 59.4207 52.65C58.8607 52.9767 58.2261 53.14 57.5167 53.14ZM57.5167 51.824C57.9554 51.824 58.3474 51.7167 58.6927 51.502C59.0381 51.278 59.3087 50.9793 59.5047 50.606C59.7007 50.2233 59.7941 49.794 59.7847 49.318C59.7941 48.8327 59.7007 48.4033 59.5047 48.03C59.3087 47.6473 59.0381 47.3487 58.6927 47.134C58.3474 46.9193 57.9554 46.812 57.5167 46.812C57.0781 46.812 56.6814 46.924 56.3267 47.148C55.9814 47.3627 55.7107 47.6613 55.5147 48.044C55.3187 48.4173 55.2254 48.842 55.2347 49.318C55.2254 49.794 55.3187 50.2233 55.5147 50.606C55.7107 50.9793 55.9814 51.278 56.3267 51.502C56.6814 51.7167 57.0781 51.824 57.5167 51.824ZM63.106 53V45.65H64.562V47.96L64.422 47.4C64.5247 47.0453 64.6973 46.7233 64.94 46.434C65.192 46.1447 65.4767 45.916 65.794 45.748C66.1207 45.58 66.4567 45.496 66.802 45.496C66.9607 45.496 67.11 45.51 67.25 45.538C67.3993 45.566 67.516 45.5987 67.6 45.636L67.222 47.204C67.11 47.1573 66.984 47.12 66.844 47.092C66.7133 47.0547 66.5827 47.036 66.452 47.036C66.2 47.036 65.9573 47.0873 65.724 47.19C65.5 47.2833 65.2993 47.4187 65.122 47.596C64.954 47.764 64.8187 47.9647 64.716 48.198C64.6133 48.422 64.562 48.6693 64.562 48.94V53H63.106ZM70.2159 53V43.774H71.6579V53H70.2159ZM68.6899 47.05V45.65H73.3659V47.05H68.6899ZM77.6824 53.14C77.0664 53.14 76.5111 53.0327 76.0164 52.818C75.5217 52.6033 75.1111 52.286 74.7844 51.866L75.7644 51.026C76.0444 51.3527 76.3477 51.5907 76.6744 51.74C77.0104 51.88 77.3884 51.95 77.8084 51.95C77.9764 51.95 78.1304 51.9313 78.2704 51.894C78.4197 51.8473 78.5457 51.782 78.6484 51.698C78.7604 51.614 78.8444 51.516 78.9004 51.404C78.9564 51.2827 78.9844 51.152 78.9844 51.012C78.9844 50.7693 78.8957 50.5733 78.7184 50.424C78.6251 50.3587 78.4757 50.2887 78.2704 50.214C78.0744 50.13 77.8177 50.046 77.5004 49.962C76.9591 49.822 76.5157 49.6633 76.1704 49.486C75.8251 49.3087 75.5591 49.108 75.3724 48.884C75.2324 48.7067 75.1297 48.5153 75.0644 48.31C74.9991 48.0953 74.9664 47.862 74.9664 47.61C74.9664 47.1993 75.0831 46.8353 75.3164 46.518C75.5497 46.2007 75.8624 45.9533 76.2544 45.776C76.6557 45.5893 77.1037 45.496 77.5984 45.496C77.9437 45.496 78.2844 45.5427 78.6204 45.636C78.9657 45.7293 79.2831 45.8647 79.5724 46.042C79.8617 46.2193 80.1044 46.4293 80.3004 46.672L79.4744 47.582C79.2971 47.4047 79.1011 47.2507 78.8864 47.12C78.6811 46.98 78.4711 46.8727 78.2564 46.798C78.0417 46.7233 77.8457 46.686 77.6684 46.686C77.4724 46.686 77.2951 46.7047 77.1364 46.742C76.9777 46.7793 76.8424 46.8353 76.7304 46.91C76.6277 46.9847 76.5484 47.078 76.4924 47.19C76.4364 47.302 76.4084 47.428 76.4084 47.568C76.4177 47.6893 76.4457 47.806 76.4924 47.918C76.5484 48.0207 76.6231 48.1093 76.7164 48.184C76.8191 48.2587 76.9731 48.338 77.1784 48.422C77.3837 48.506 77.6451 48.5853 77.9624 48.66C78.4291 48.7813 78.8117 48.9167 79.1104 49.066C79.4184 49.206 79.6611 49.3693 79.8384 49.556C80.0251 49.7333 80.1557 49.9387 80.2304 50.172C80.3051 50.4053 80.3424 50.6667 80.3424 50.956C80.3424 51.376 80.2211 51.754 79.9784 52.09C79.7451 52.4167 79.4277 52.6733 79.0264 52.86C78.6251 53.0467 78.1771 53.14 77.6824 53.14Z" fill="white"></path><path d="M50.8113 25.525C51.7083 23.5437 52.3974 21.1589 52.315 19.7575C51.766 19.7563 48.3394 19.7583 47.8788 19.7575C47.9289 20.8721 48.2164 21.9633 48.7221 22.9579C49.2279 23.9525 49.9401 24.8277 50.8113 25.525Z" fill="white"></path><path d="M52.255 19.0075C51.935 17.0823 51.3849 15.2026 50.6163 13.4088C49.8008 14.1047 49.137 14.9608 48.6661 15.9239C48.1952 16.887 47.9272 17.9365 47.8788 19.0075C48.3249 19.0057 51.7232 19.0088 52.255 19.0075Z" fill="white"></path><path d="M53.0088 19.0075H55.3826C55.3826 19.0075 55.3781 11.6075 55.3788 11.5112C53.8886 11.5744 52.4484 12.0666 51.2313 12.9287C51.3213 13.15 51.4188 13.39 51.5163 13.645C52.2234 15.3674 52.7243 17.1674 53.0088 19.0075Z" fill="white"></path><path d="M58.5213 19.0075C58.8315 16.8076 59.6569 14.7685 60.4038 13.0225C59.1627 12.1012 57.6731 11.5747 56.1288 11.5112C56.1315 11.597 56.1325 19.0075 56.1325 19.0075H58.5213Z" fill="white"></path><path d="M63.6288 19.0075C63.5812 17.9625 63.3247 16.9377 62.8745 15.9935C62.4243 15.0493 61.7895 14.2048 61.0075 13.51C60.9138 13.7313 60.8088 13.9788 60.7 14.2488C60.0439 15.775 59.5658 17.3718 59.275 19.0075H63.6288Z" fill="white"></path><path d="M51.7526 25.2325C51.7397 25.2425 51.7259 25.2513 51.7113 25.2587C51.7354 25.2915 51.745 25.2537 51.7526 25.2325Z" fill="white"></path><path d="M67.6713 26.8562C66.8788 26.1732 66.0281 25.5609 65.1288 25.0262V30.6925C66.0281 30.1578 66.8788 29.5455 67.6713 28.8625C67.8147 28.7377 67.9297 28.5835 68.0085 28.4105C68.0872 28.2374 68.128 28.0495 68.128 27.8594C68.128 27.6692 68.0872 27.4813 68.0085 27.3083C67.9297 27.1352 67.8147 26.9811 67.6713 26.8562Z" fill="white"></path><path d="M51.565 26.0612C51.2317 26.3069 50.8661 26.6035 50.575 26.8562C50.4316 26.9811 50.3166 27.1352 50.2378 27.3083C50.1591 27.4813 50.1183 27.6692 50.1183 27.8594C50.1183 28.0495 50.1591 28.2374 50.2378 28.4105C50.3166 28.5835 50.4316 28.7377 50.575 28.8625C51.3675 29.5455 52.2182 30.1578 53.1175 30.6925C53.1158 30.3054 53.1175 25.0262 53.1175 25.0262C52.581 25.3418 52.0626 25.6873 51.565 26.0612Z" fill="white"></path><path d="M61.5625 23.5262C58.9929 22.8375 56.1682 23.3738 53.8675 24.61C53.8614 25.999 53.8675 31.0487 53.8675 31.0487C53.8687 31.0678 53.8661 31.0869 53.86 31.1049C55.4765 31.9851 57.281 32.4636 59.1212 32.5C60.9599 32.4639 62.7629 31.9868 64.3787 31.1087C64.3782 30.1028 64.3759 24.9803 64.3787 24.61C63.4853 24.1405 62.5402 23.7768 61.5625 23.5262ZM56.7062 24.8875C56.7924 24.9406 56.8543 25.0254 56.8787 25.1237L57.0325 25.7387C57.5368 25.6335 58.0482 25.5658 58.5625 25.5362L58.5062 25.3037C58.4939 25.2557 58.4911 25.2058 58.4981 25.1568C58.5052 25.1078 58.5219 25.0606 58.5473 25.0181C58.5726 24.9756 58.6062 24.9385 58.646 24.909C58.6858 24.8795 58.731 24.8582 58.7791 24.8463C58.8272 24.8344 58.8771 24.8321 58.9261 24.8397C58.975 24.8472 59.022 24.8644 59.0643 24.8902C59.1065 24.916 59.1433 24.9499 59.1724 24.99C59.2015 25.0301 59.2223 25.0755 59.2337 25.1237C59.2395 25.1442 59.3392 25.554 59.3425 25.5587C59.8821 25.5231 60.424 25.566 60.9512 25.6861L60.8575 25.3037C60.8345 25.2075 60.8504 25.1062 60.9018 25.0217C60.9532 24.9372 61.0359 24.8765 61.1319 24.8528C61.2279 24.829 61.3294 24.8442 61.4143 24.8949C61.4991 24.9457 61.5605 25.0279 61.585 25.1237L61.7725 25.8737C62.1452 26.0328 62.9751 26.0464 62.8225 26.6274C62.6639 27.0191 62.2696 26.8255 61.9825 26.7249L62.0725 27.085C62.0942 27.1812 62.0772 27.282 62.0254 27.3659C61.9735 27.4497 61.8908 27.5099 61.7951 27.5335C61.6993 27.557 61.5982 27.5421 61.5133 27.4919C61.4285 27.4417 61.3667 27.3602 61.3412 27.2649L61.15 26.4924C60.6138 26.3712 60.0679 26.2984 59.5187 26.2749L59.7175 27.0849C59.7293 27.1327 59.7317 27.1824 59.7243 27.2311C59.717 27.2797 59.7001 27.3265 59.6747 27.3687C59.6493 27.4108 59.6158 27.4476 59.5762 27.4768C59.5366 27.506 59.4916 27.5271 59.4438 27.539C59.396 27.5508 59.3464 27.5531 59.2977 27.5457C59.249 27.5383 59.2023 27.5214 59.1601 27.496C59.118 27.4705 59.0812 27.437 59.0521 27.3974C59.0229 27.3578 59.0018 27.3127 58.99 27.2649L58.7462 26.2712C58.2303 26.2896 57.7171 26.3536 57.2125 26.4624L57.3662 27.0849C57.3895 27.1817 57.3735 27.2837 57.3217 27.3687C57.27 27.4537 57.1867 27.5147 57.0901 27.5385C56.9935 27.5623 56.8914 27.5469 56.8061 27.4956C56.7208 27.4443 56.6593 27.3614 56.635 27.2649L56.4812 26.6462C56.2787 26.7024 56.08 26.7699 55.8812 26.8449C55.7886 26.8778 55.6867 26.8728 55.5977 26.8311C55.5087 26.7894 55.4397 26.7143 55.4057 26.6221C55.3716 26.5298 55.3753 26.4279 55.4159 26.3384C55.4565 26.2488 55.5307 26.1789 55.6225 26.1437C55.8475 26.0612 56.0762 25.9862 56.305 25.9224L56.1512 25.3037C56.0462 24.9592 56.482 24.9804 56.7062 24.8875Z" fill="white"></path><path d="M56.1362 19.7575L56.155 23.0875C56.9848 22.8446 57.8411 22.7036 58.705 22.6675C58.527 21.708 58.4429 20.7334 58.4537 19.7575H56.1362Z" fill="white"></path><path d="M59.2038 19.7575C59.1925 20.7328 59.2817 21.7067 59.4701 22.6637C60.2878 22.6925 61.0995 22.8158 61.8888 23.0312C62.1363 23.095 62.3838 23.17 62.6238 23.2487C63.2313 22.1815 63.5747 20.9844 63.6251 19.7575C63.1854 19.7588 59.7316 19.7564 59.2038 19.7575Z" fill="white"></path><path d="M55.3863 19.7575H53.0651C53.0988 21.22 52.6638 23.02 51.7526 25.2288C52.8838 24.4384 54.1128 23.798 55.4088 23.3238L55.3863 19.7575Z" fill="white"></path><path d="M59.5151 26.2712C59.5143 26.2726 59.5198 26.2788 59.5188 26.2712H59.5151Z" fill="white"></path><defs><linearGradient id="paint0_linear_1427_6260" x1="22.1128" y1="2.77055" x2="116.478" y2="73.1083" gradientUnits="userSpaceOnUse"><stop stop-color="#02A68F"></stop><stop offset="1" stop-color="#46E760"></stop></linearGradient></defs></svg>