<svg xmlns="http://www.w3.org/2000/svg" width="117" height="98" viewBox="0 0 117 98" fill="none"><path d="M116.286 20.8543V47.4907C116.286 56.501 110.568 64.1869 102.558 67.0965C100.331 67.901 97.9297 68.3465 95.4298 68.3465H46.5893C46.4284 68.8411 46.2675 69.3238 46.0947 69.7946C44.8194 73.3597 43.2358 76.527 41.4897 79.3368C40.7969 80.4631 40.0789 81.5283 39.3369 82.531C32.1203 92.4323 23.4824 96.8883 23.1099 97.0745C26.8478 90.8233 29.2852 84.8208 30.8197 79.3383C31.946 75.365 32.5896 71.6643 32.9486 68.348H20.8558C17.3905 68.348 14.1234 67.5062 11.251 66.009C4.56627 62.5303 0 55.5505 0 47.4921V20.8558C0 9.33216 9.34557 0 20.8558 0H95.4283C106.952 0 116.284 9.33216 116.284 20.8558L116.286 20.8543Z" fill="url(#paint0_linear_1427_6402)"></path><path d="M46.945 53.14C46.2356 53.14 45.573 53.014 44.957 52.762C44.341 52.5007 43.7996 52.1413 43.333 51.684C42.8663 51.2267 42.5023 50.6947 42.241 50.088C41.989 49.472 41.863 48.8093 41.863 48.1C41.863 47.4 41.989 46.7467 42.241 46.14C42.5023 45.5333 42.8616 45.006 43.319 44.558C43.7856 44.1007 44.327 43.746 44.943 43.494C45.559 43.242 46.2216 43.116 46.931 43.116C47.4256 43.116 47.9063 43.186 48.373 43.326C48.849 43.466 49.2783 43.662 49.661 43.914C50.0436 44.166 50.3563 44.4553 50.599 44.782L49.619 45.804C49.199 45.4027 48.7603 45.0993 48.303 44.894C47.855 44.6887 47.3976 44.586 46.931 44.586C46.427 44.586 45.9603 44.6747 45.531 44.852C45.111 45.0293 44.7376 45.2767 44.411 45.594C44.0936 45.9113 43.8463 46.2847 43.669 46.714C43.4916 47.134 43.403 47.596 43.403 48.1C43.403 48.5853 43.4963 49.0473 43.683 49.486C43.8696 49.9153 44.1263 50.2933 44.453 50.62C44.789 50.9467 45.1716 51.2033 45.601 51.39C46.0396 51.5767 46.5016 51.67 46.987 51.67C47.351 51.67 47.6963 51.6187 48.023 51.516C48.3496 51.404 48.639 51.25 48.891 51.054C49.143 50.858 49.339 50.634 49.479 50.382C49.619 50.1207 49.689 49.8453 49.689 49.556V49.276L49.899 49.472H46.903V47.974H51.243C51.2616 48.0767 51.2756 48.1793 51.285 48.282C51.2943 48.3753 51.299 48.4687 51.299 48.562C51.3083 48.646 51.313 48.73 51.313 48.814C51.313 49.458 51.201 50.046 50.977 50.578C50.753 51.1007 50.4403 51.5533 50.039 51.936C49.647 52.3187 49.185 52.6173 48.653 52.832C48.1303 53.0373 47.561 53.14 46.945 53.14ZM53.4357 53V45.65H54.8777V53H53.4357ZM54.1357 44.026C53.8277 44.026 53.5897 43.9467 53.4217 43.788C53.2537 43.6293 53.1697 43.4053 53.1697 43.116C53.1697 42.8453 53.2537 42.626 53.4217 42.458C53.5991 42.29 53.8371 42.206 54.1357 42.206C54.4437 42.206 54.6817 42.2853 54.8497 42.444C55.0177 42.6027 55.1017 42.8267 55.1017 43.116C55.1017 43.3867 55.0131 43.606 54.8357 43.774C54.6677 43.942 54.4344 44.026 54.1357 44.026ZM58.1722 53V44.824C58.1722 44.404 58.2655 44.0307 58.4522 43.704C58.6389 43.3773 58.8955 43.1207 59.2222 42.934C59.5489 42.7473 59.9269 42.654 60.3562 42.654C60.6549 42.654 60.9349 42.71 61.1962 42.822C61.4575 42.934 61.6675 43.0833 61.8262 43.27L61.3362 44.376C61.2149 44.264 61.0795 44.1753 60.9302 44.11C60.7902 44.0353 60.6549 43.998 60.5242 43.998C60.3282 43.998 60.1602 44.0307 60.0202 44.096C59.8895 44.152 59.7915 44.2453 59.7262 44.376C59.6609 44.4973 59.6282 44.6467 59.6282 44.824V53H58.9002C58.7789 53 58.6575 53 58.5362 53C58.4149 53 58.2935 53 58.1722 53ZM56.9962 47.106V45.776H61.3642V47.106H56.9962ZM64.1013 53V43.774H65.5433V53H64.1013ZM62.5753 47.05V45.65H67.2513V47.05H62.5753ZM71.5678 53.14C70.9518 53.14 70.3965 53.0327 69.9018 52.818C69.4071 52.6033 68.9965 52.286 68.6698 51.866L69.6498 51.026C69.9298 51.3527 70.2331 51.5907 70.5598 51.74C70.8958 51.88 71.2738 51.95 71.6938 51.95C71.8618 51.95 72.0158 51.9313 72.1558 51.894C72.3051 51.8473 72.4311 51.782 72.5338 51.698C72.6458 51.614 72.7298 51.516 72.7858 51.404C72.8418 51.2827 72.8698 51.152 72.8698 51.012C72.8698 50.7693 72.7811 50.5733 72.6038 50.424C72.5105 50.3587 72.3611 50.2887 72.1558 50.214C71.9598 50.13 71.7031 50.046 71.3858 49.962C70.8445 49.822 70.4011 49.6633 70.0558 49.486C69.7105 49.3087 69.4445 49.108 69.2578 48.884C69.1178 48.7067 69.0151 48.5153 68.9498 48.31C68.8845 48.0953 68.8518 47.862 68.8518 47.61C68.8518 47.1993 68.9685 46.8353 69.2018 46.518C69.4351 46.2007 69.7478 45.9533 70.1398 45.776C70.5411 45.5893 70.9891 45.496 71.4838 45.496C71.8291 45.496 72.1698 45.5427 72.5058 45.636C72.8511 45.7293 73.1685 45.8647 73.4578 46.042C73.7471 46.2193 73.9898 46.4293 74.1858 46.672L73.3598 47.582C73.1825 47.4047 72.9865 47.2507 72.7718 47.12C72.5665 46.98 72.3565 46.8727 72.1418 46.798C71.9271 46.7233 71.7311 46.686 71.5538 46.686C71.3578 46.686 71.1805 46.7047 71.0218 46.742C70.8631 46.7793 70.7278 46.8353 70.6158 46.91C70.5131 46.9847 70.4338 47.078 70.3778 47.19C70.3218 47.302 70.2938 47.428 70.2938 47.568C70.3031 47.6893 70.3311 47.806 70.3778 47.918C70.4338 48.0207 70.5085 48.1093 70.6018 48.184C70.7045 48.2587 70.8585 48.338 71.0638 48.422C71.2691 48.506 71.5305 48.5853 71.8478 48.66C72.3145 48.7813 72.6971 48.9167 72.9958 49.066C73.3038 49.206 73.5465 49.3693 73.7238 49.556C73.9105 49.7333 74.0411 49.9387 74.1158 50.172C74.1905 50.4053 74.2278 50.6667 74.2278 50.956C74.2278 51.376 74.1065 51.754 73.8638 52.09C73.6305 52.4167 73.3131 52.6733 72.9118 52.86C72.5105 53.0467 72.0625 53.14 71.5678 53.14Z" fill="white"></path><g clip-path="url(#clip0_1427_6402)"><path d="M47.5 22.7356V31.7356C47.5 32.5636 48.1735 33.2356 49 33.2356H56.5V22.7356H47.5Z" fill="white"></path><path d="M68.5 16.7356H63.754C64.0945 16.5031 64.387 16.2721 64.591 16.0651C65.8015 14.8486 65.8015 12.8686 64.591 11.6521C63.415 10.4671 61.366 10.4701 60.1915 11.6521C59.5405 12.3046 57.8155 14.9611 58.054 16.7356H57.946C58.183 14.9611 56.458 12.3046 55.8085 11.6521C54.6325 10.4701 52.5835 10.4701 51.409 11.6521C50.2 12.8686 50.2 14.8486 51.4075 16.0651C51.613 16.2721 51.9055 16.5031 52.246 16.7356H47.5C46.6735 16.7356 46 17.4091 46 18.2356V20.4856C46 20.8996 46.336 21.2356 46.75 21.2356H56.5V18.2356H59.5V21.2356H69.25C69.664 21.2356 70 20.8996 70 20.4856V18.2356C70 17.4091 69.328 16.7356 68.5 16.7356ZM56.4115 16.6861C56.4115 16.6861 56.3485 16.7356 56.134 16.7356C55.0975 16.7356 53.119 15.6586 52.4725 15.0076C51.844 14.3746 51.844 13.3426 52.4725 12.7096C52.777 12.4036 53.1805 12.2356 53.6095 12.2356C54.037 12.2356 54.4405 12.4036 54.745 12.7096C55.756 13.7266 56.761 16.3246 56.4115 16.6861ZM59.8645 16.7356C59.6515 16.7356 59.5885 16.6876 59.5885 16.6861C59.239 16.3246 60.244 13.7266 61.255 12.7096C61.8595 12.0991 62.917 12.0961 63.5275 12.7096C64.1575 13.3426 64.1575 14.3746 63.5275 15.0076C62.881 15.6586 60.9025 16.7356 59.8645 16.7356Z" fill="white"></path><path d="M59.5 22.7356V33.2356H67C67.828 33.2356 68.5 32.5636 68.5 31.7356V22.7356H59.5Z" fill="white"></path></g><defs><linearGradient id="paint0_linear_1427_6402" x1="52.5" y1="106.5" x2="60.5" y2="8.5" gradientUnits="userSpaceOnUse"><stop stop-color="#FD3A84"></stop><stop offset="1" stop-color="#FF8B6A"></stop></linearGradient><clipPath id="clip0_1427_6402"><rect width="24" height="24" fill="white" transform="translate(46 10)"></rect></clipPath></defs></svg>