<svg xmlns="http://www.w3.org/2000/svg" width="117" height="98" viewBox="0 0 117 98" fill="none"><path d="M0 20.8678V47.5041C0 56.2418 5.38417 63.7311 13.0209 66.8254C15.4463 67.8161 18.0952 68.3599 20.8678 68.3599H69.2746C70.3518 71.788 71.5645 74.8078 72.8636 77.4701C81.7265 95.7635 94.4614 97.3605 94.4614 97.3605C90.0679 93.1027 87.1956 86.9632 85.3393 80.849C83.9776 76.4302 83.1358 72.0233 82.6293 68.3599H95.4268C95.7858 68.3599 96.1449 68.348 96.4905 68.3227C96.6886 68.3227 96.8868 68.2973 97.0849 68.2854C97.1713 68.2854 97.2711 68.2854 97.3576 68.2601C102.63 67.7893 107.333 65.3386 110.712 61.6751C114.178 57.9506 116.295 52.9746 116.295 47.5041V20.8678C116.295 9.34408 106.95 0 95.4268 0H20.8692C9.34557 0 0.00148672 9.34408 0.00148672 20.8678H0Z" fill="url(#paint0_linear_1427_6030)"></path><path d="M32.7342 53.14C32.0529 53.14 31.4275 53.0187 30.8582 52.776C30.2889 52.5333 29.7942 52.188 29.3742 51.74C28.9542 51.2827 28.6275 50.746 28.3942 50.13C28.1702 49.514 28.0582 48.8373 28.0582 48.1C28.0582 47.4 28.1795 46.7513 28.4222 46.154C28.6742 45.5473 29.0195 45.0153 29.4582 44.558C29.8969 44.1007 30.4055 43.746 30.9842 43.494C31.5629 43.242 32.1882 43.116 32.8602 43.116C33.3362 43.116 33.7982 43.1907 34.2462 43.34C34.7035 43.48 35.1142 43.6807 35.4782 43.942C35.8515 44.194 36.1549 44.4833 36.3882 44.81L35.3802 45.86C34.9789 45.4493 34.5682 45.1413 34.1482 44.936C33.7282 44.7307 33.2989 44.628 32.8602 44.628C32.4029 44.628 31.9735 44.7167 31.5722 44.894C31.1802 45.062 30.8349 45.3 30.5362 45.608C30.2469 45.916 30.0182 46.2847 29.8502 46.714C29.6822 47.134 29.5982 47.596 29.5982 48.1C29.5982 48.632 29.6775 49.1173 29.8362 49.556C30.0042 49.9853 30.2375 50.354 30.5362 50.662C30.8349 50.97 31.1895 51.208 31.6002 51.376C32.0202 51.5347 32.4822 51.614 32.9862 51.614C33.2942 51.614 33.5975 51.572 33.8962 51.488C34.1949 51.404 34.4749 51.2827 34.7362 51.124C34.9975 50.9653 35.2355 50.7787 35.4502 50.564L36.2062 51.796C35.9915 52.048 35.6975 52.2767 35.3242 52.482C34.9602 52.6873 34.5495 52.8507 34.0922 52.972C33.6442 53.084 33.1915 53.14 32.7342 53.14ZM42.5302 53V48.212C42.5302 47.8013 42.3808 47.47 42.0822 47.218C41.7928 46.9567 41.4242 46.826 40.9762 46.826C40.5655 46.826 40.1922 46.91 39.8562 47.078C39.5295 47.246 39.2308 47.5027 38.9602 47.848L38.0222 46.91C38.4608 46.434 38.9322 46.0793 39.4362 45.846C39.9495 45.6127 40.5002 45.496 41.0882 45.496C41.6482 45.496 42.1335 45.5893 42.5442 45.776C42.9548 45.9627 43.2722 46.238 43.4962 46.602C43.7202 46.9567 43.8322 47.3907 43.8322 47.904V53H42.5302ZM40.3322 53.14C39.8562 53.14 39.4315 53.0467 39.0582 52.86C38.6848 52.6733 38.3862 52.4167 38.1622 52.09C37.9475 51.754 37.8402 51.362 37.8402 50.914C37.8402 50.522 37.9102 50.1767 38.0502 49.878C38.1902 49.5793 38.3955 49.332 38.6662 49.136C38.9462 48.94 39.2915 48.7907 39.7022 48.688C40.1222 48.5853 40.6028 48.534 41.1442 48.534H43.1882L43.0622 49.682H40.9622C40.6822 49.682 40.4302 49.71 40.2062 49.766C39.9915 49.8127 39.8048 49.892 39.6462 50.004C39.4968 50.1067 39.3848 50.2327 39.3102 50.382C39.2355 50.522 39.1982 50.69 39.1982 50.886C39.1982 51.0913 39.2495 51.2733 39.3522 51.432C39.4548 51.5813 39.5948 51.698 39.7722 51.782C39.9495 51.866 40.1548 51.908 40.3882 51.908C40.7242 51.908 41.0415 51.852 41.3402 51.74C41.6482 51.6187 41.9188 51.4553 42.1522 51.25C42.3948 51.0447 42.5815 50.816 42.7122 50.564L43.0482 51.502C42.8522 51.8287 42.6095 52.1133 42.3202 52.356C42.0308 52.5987 41.7182 52.79 41.3822 52.93C41.0462 53.07 40.6962 53.14 40.3322 53.14ZM45.9347 56.08V45.65H47.3907V47.33L47.1667 47.204C47.2227 46.924 47.3813 46.658 47.6427 46.406C47.904 46.1447 48.2213 45.9347 48.5947 45.776C48.9773 45.608 49.3693 45.524 49.7707 45.524C50.4333 45.524 51.0213 45.6873 51.5347 46.014C52.048 46.3407 52.454 46.7887 52.7527 47.358C53.0513 47.9273 53.2007 48.5807 53.2007 49.318C53.2007 50.046 53.0513 50.6993 52.7527 51.278C52.4633 51.8473 52.062 52.3 51.5487 52.636C51.0353 52.9627 50.4567 53.126 49.8127 53.126C49.3833 53.126 48.968 53.042 48.5667 52.874C48.1653 52.6967 47.8247 52.4727 47.5447 52.202C47.2647 51.9313 47.092 51.6513 47.0267 51.362L47.3907 51.166V56.08H45.9347ZM49.5747 51.796C50.004 51.796 50.3867 51.6887 50.7227 51.474C51.0587 51.2593 51.3247 50.9653 51.5207 50.592C51.7167 50.2187 51.8147 49.794 51.8147 49.318C51.8147 48.842 51.7167 48.422 51.5207 48.058C51.334 47.6847 51.0727 47.3907 50.7367 47.176C50.4007 46.9613 50.0133 46.854 49.5747 46.854C49.136 46.854 48.7487 46.9613 48.4127 47.176C48.0767 47.3813 47.8107 47.6707 47.6147 48.044C47.4187 48.4173 47.3207 48.842 47.3207 49.318C47.3207 49.794 47.4187 50.2187 47.6147 50.592C47.8107 50.9653 48.0767 51.2593 48.4127 51.474C48.7487 51.6887 49.136 51.796 49.5747 51.796ZM57.4967 53.14C56.8807 53.14 56.3254 53.0327 55.8307 52.818C55.336 52.6033 54.9254 52.286 54.5987 51.866L55.5787 51.026C55.8587 51.3527 56.162 51.5907 56.4887 51.74C56.8247 51.88 57.2027 51.95 57.6227 51.95C57.7907 51.95 57.9447 51.9313 58.0847 51.894C58.234 51.8473 58.36 51.782 58.4627 51.698C58.5747 51.614 58.6587 51.516 58.7147 51.404C58.7707 51.2827 58.7987 51.152 58.7987 51.012C58.7987 50.7693 58.71 50.5733 58.5327 50.424C58.4394 50.3587 58.29 50.2887 58.0847 50.214C57.8887 50.13 57.632 50.046 57.3147 49.962C56.7734 49.822 56.33 49.6633 55.9847 49.486C55.6394 49.3087 55.3734 49.108 55.1867 48.884C55.0467 48.7067 54.944 48.5153 54.8787 48.31C54.8134 48.0953 54.7807 47.862 54.7807 47.61C54.7807 47.1993 54.8974 46.8353 55.1307 46.518C55.364 46.2007 55.6767 45.9533 56.0687 45.776C56.47 45.5893 56.918 45.496 57.4127 45.496C57.758 45.496 58.0987 45.5427 58.4347 45.636C58.78 45.7293 59.0974 45.8647 59.3867 46.042C59.676 46.2193 59.9187 46.4293 60.1147 46.672L59.2887 47.582C59.1114 47.4047 58.9154 47.2507 58.7007 47.12C58.4954 46.98 58.2854 46.8727 58.0707 46.798C57.856 46.7233 57.66 46.686 57.4827 46.686C57.2867 46.686 57.1094 46.7047 56.9507 46.742C56.792 46.7793 56.6567 46.8353 56.5447 46.91C56.442 46.9847 56.3627 47.078 56.3067 47.19C56.2507 47.302 56.2227 47.428 56.2227 47.568C56.232 47.6893 56.26 47.806 56.3067 47.918C56.3627 48.0207 56.4374 48.1093 56.5307 48.184C56.6334 48.2587 56.7874 48.338 56.9927 48.422C57.198 48.506 57.4594 48.5853 57.7767 48.66C58.2434 48.7813 58.626 48.9167 58.9247 49.066C59.2327 49.206 59.4754 49.3693 59.6527 49.556C59.8394 49.7333 59.97 49.9387 60.0447 50.172C60.1194 50.4053 60.1567 50.6667 60.1567 50.956C60.1567 51.376 60.0354 51.754 59.7927 52.09C59.5594 52.4167 59.242 52.6733 58.8407 52.86C58.4394 53.0467 57.9914 53.14 57.4967 53.14ZM64.6019 53.14C64.0793 53.14 63.6219 53.0187 63.2299 52.776C62.8473 52.5333 62.5486 52.1927 62.3339 51.754C62.1286 51.3153 62.0259 50.7927 62.0259 50.186V45.65H63.4679V49.794C63.4679 50.438 63.6173 50.9467 63.9159 51.32C64.2239 51.6933 64.6486 51.88 65.1899 51.88C65.4606 51.88 65.7079 51.838 65.9319 51.754C66.1559 51.6607 66.3473 51.5347 66.5059 51.376C66.6739 51.2173 66.8046 51.026 66.8979 50.802C66.9913 50.578 67.0379 50.3353 67.0379 50.074V45.65H68.4799V53H67.0379V51.46L67.2899 51.292C67.1779 51.6373 66.9866 51.95 66.7159 52.23C66.4546 52.51 66.1419 52.734 65.7779 52.902C65.4139 53.0607 65.0219 53.14 64.6019 53.14ZM70.8105 53V42.64H72.2525V53H70.8105ZM77.8694 53.14C77.1134 53.14 76.4414 52.9813 75.8534 52.664C75.2748 52.3373 74.8174 51.894 74.4814 51.334C74.1548 50.774 73.9914 50.13 73.9914 49.402C73.9914 48.8233 74.0848 48.296 74.2714 47.82C74.4581 47.344 74.7148 46.9333 75.0414 46.588C75.3774 46.2333 75.7741 45.9627 76.2314 45.776C76.6981 45.58 77.2021 45.482 77.7434 45.482C78.2194 45.482 78.6628 45.5753 79.0734 45.762C79.4841 45.9393 79.8388 46.1867 80.1374 46.504C80.4454 46.8213 80.6788 47.1993 80.8374 47.638C81.0054 48.0673 81.0848 48.5387 81.0754 49.052L81.0614 49.668H75.0554L74.7334 48.52H79.8154L79.6054 48.758V48.422C79.5774 48.114 79.4748 47.8387 79.2974 47.596C79.1201 47.3533 78.8961 47.162 78.6254 47.022C78.3548 46.882 78.0608 46.812 77.7434 46.812C77.2394 46.812 76.8148 46.91 76.4694 47.106C76.1241 47.2927 75.8628 47.5727 75.6854 47.946C75.5081 48.31 75.4194 48.7627 75.4194 49.304C75.4194 49.8173 75.5268 50.2653 75.7414 50.648C75.9561 51.0213 76.2594 51.3107 76.6514 51.516C77.0434 51.7213 77.4961 51.824 78.0094 51.824C78.3734 51.824 78.7094 51.7633 79.0174 51.642C79.3348 51.5207 79.6754 51.3013 80.0394 50.984L80.7674 52.006C80.5434 52.23 80.2681 52.426 79.9414 52.594C79.6241 52.762 79.2834 52.8973 78.9194 53C78.5648 53.0933 78.2148 53.14 77.8694 53.14ZM85.3726 53.14C84.7566 53.14 84.2012 53.0327 83.7066 52.818C83.2119 52.6033 82.8012 52.286 82.4746 51.866L83.4546 51.026C83.7346 51.3527 84.0379 51.5907 84.3646 51.74C84.7006 51.88 85.0786 51.95 85.4986 51.95C85.6666 51.95 85.8206 51.9313 85.9606 51.894C86.1099 51.8473 86.2359 51.782 86.3386 51.698C86.4506 51.614 86.5346 51.516 86.5906 51.404C86.6466 51.2827 86.6746 51.152 86.6746 51.012C86.6746 50.7693 86.5859 50.5733 86.4086 50.424C86.3152 50.3587 86.1659 50.2887 85.9606 50.214C85.7646 50.13 85.5079 50.046 85.1906 49.962C84.6492 49.822 84.2059 49.6633 83.8606 49.486C83.5152 49.3087 83.2492 49.108 83.0626 48.884C82.9226 48.7067 82.8199 48.5153 82.7546 48.31C82.6892 48.0953 82.6566 47.862 82.6566 47.61C82.6566 47.1993 82.7732 46.8353 83.0066 46.518C83.2399 46.2007 83.5526 45.9533 83.9446 45.776C84.3459 45.5893 84.7939 45.496 85.2886 45.496C85.6339 45.496 85.9746 45.5427 86.3106 45.636C86.6559 45.7293 86.9732 45.8647 87.2626 46.042C87.5519 46.2193 87.7946 46.4293 87.9906 46.672L87.1646 47.582C86.9872 47.4047 86.7912 47.2507 86.5766 47.12C86.3712 46.98 86.1612 46.8727 85.9466 46.798C85.7319 46.7233 85.5359 46.686 85.3586 46.686C85.1626 46.686 84.9852 46.7047 84.8266 46.742C84.6679 46.7793 84.5326 46.8353 84.4206 46.91C84.3179 46.9847 84.2386 47.078 84.1826 47.19C84.1266 47.302 84.0986 47.428 84.0986 47.568C84.1079 47.6893 84.1359 47.806 84.1826 47.918C84.2386 48.0207 84.3132 48.1093 84.4066 48.184C84.5092 48.2587 84.6632 48.338 84.8686 48.422C85.0739 48.506 85.3352 48.5853 85.6526 48.66C86.1192 48.7813 86.5019 48.9167 86.8006 49.066C87.1086 49.206 87.3512 49.3693 87.5286 49.556C87.7152 49.7333 87.8459 49.9387 87.9206 50.172C87.9952 50.4053 88.0326 50.6667 88.0326 50.956C88.0326 51.376 87.9112 51.754 87.6686 52.09C87.4352 52.4167 87.1179 52.6733 86.7166 52.86C86.3152 53.0467 85.8672 53.14 85.3726 53.14Z" fill="white"></path><g clip-path="url(#clip0_1427_6030)"><path d="M51.6582 14.9686H53.0669V13.5541H54.4814V12.1454H53.0669V10.7309H51.6582V12.1454H50.2437V13.5541H51.6582V14.9686Z" fill="white"></path><path d="M48.8291 17.8036H50.2378V19.2123H48.8291V17.8036Z" fill="white"></path><path d="M47.4146 14.9745H48.8232V16.3832H47.4146V14.9745Z" fill="white"></path><path d="M64.0311 33.269C67.1121 33.269 69.6513 30.9505 70.0001 27.963H58.062C58.4108 30.9505 60.95 33.269 64.0311 33.269Z" fill="white"></path><path d="M58.062 26.5544H70.0001C69.6513 23.5669 67.1121 21.2484 64.031 21.2484C60.9499 21.2484 58.4108 23.5669 58.062 26.5544Z" fill="white"></path><path d="M57.1796 24.4086L51.7701 18.9991L47.7604 23.0088C45.4132 25.356 45.4132 29.1615 47.7604 31.5087C50.1075 33.8558 53.9131 33.8558 56.2602 31.5087L57.3277 30.4412C56.869 29.4768 56.612 28.3978 56.612 27.2587C56.612 26.2488 56.8141 25.2862 57.1796 24.4086Z" fill="white"></path><path d="M64.0309 19.8397C64.955 19.8397 65.8394 20.0092 66.6555 20.3179C67.4275 18.1919 66.9613 15.7176 65.2564 14.0127C62.9092 11.6655 59.1037 11.6655 56.7565 14.0127L52.7661 18.0031L57.8769 23.1138C59.2099 21.1386 61.4687 19.8397 64.0309 19.8397Z" fill="white"></path></g><defs><linearGradient id="paint0_linear_1427_6030" x1="-31.1881" y1="-53.2619" x2="100.7" y2="90.3611" gradientUnits="userSpaceOnUse"><stop stop-color="#FD5900"></stop><stop offset="1" stop-color="#FF9900"></stop></linearGradient><clipPath id="clip0_1427_6030"><rect width="24" height="24" fill="white" transform="translate(46 10)"></rect></clipPath></defs></svg>