<svg xmlns="http://www.w3.org/2000/svg" width="117" height="98" viewBox="0 0 117 98" fill="none"><path d="M0 20.8678V47.5041C0 56.2418 5.38417 63.7311 13.0209 66.8254C15.4463 67.8161 18.0952 68.3599 20.8678 68.3599H69.2746C70.3518 71.788 71.5645 74.8078 72.8636 77.4701C81.7265 95.7635 94.4614 97.3605 94.4614 97.3605C90.0679 93.1027 87.1956 86.9632 85.3393 80.849C83.9776 76.4302 83.1358 72.0233 82.6293 68.3599H95.4268C95.7858 68.3599 96.1449 68.348 96.4905 68.3227C96.6886 68.3227 96.8868 68.2973 97.0849 68.2854C97.1713 68.2854 97.2711 68.2854 97.3576 68.2601C102.63 67.7893 107.333 65.3386 110.712 61.6751C114.178 57.9506 116.295 52.9746 116.295 47.5041V20.8678C116.295 9.34408 106.95 0 95.4268 0H20.8692C9.34557 0 0.00148672 9.34408 0.00148672 20.8678H0Z" fill="url(#paint0_linear_1139_7163)"></path><path d="M37.2248 54.12C36.4888 54.12 35.8488 53.98 35.3048 53.7C34.7688 53.42 34.3088 53.012 33.9248 52.476L34.9328 51.324C35.3248 51.876 35.7048 52.256 36.0728 52.464C36.4488 52.664 36.8728 52.764 37.3448 52.764C37.6168 52.764 37.8648 52.724 38.0888 52.644C38.3128 52.564 38.4888 52.452 38.6168 52.308C38.7448 52.156 38.8088 51.98 38.8088 51.78C38.8088 51.644 38.7808 51.52 38.7248 51.408C38.6768 51.288 38.6008 51.184 38.4968 51.096C38.4008 51 38.2768 50.912 38.1248 50.832C37.9808 50.752 37.8088 50.684 37.6088 50.628C37.4168 50.564 37.2048 50.512 36.9728 50.472C36.5248 50.384 36.1368 50.268 35.8088 50.124C35.4888 49.972 35.2168 49.788 34.9928 49.572C34.7768 49.348 34.6128 49.1 34.5008 48.828C34.3968 48.548 34.3448 48.232 34.3448 47.88C34.3448 47.408 34.4768 46.992 34.7408 46.632C35.0128 46.264 35.3728 45.976 35.8208 45.768C36.2768 45.56 36.7768 45.456 37.3208 45.456C38.0248 45.456 38.6208 45.584 39.1088 45.84C39.6048 46.096 39.9928 46.46 40.2728 46.932L39.2408 47.94C39.0008 47.572 38.7168 47.292 38.3888 47.1C38.0608 46.908 37.7048 46.812 37.3208 46.812C37.0328 46.812 36.7808 46.856 36.5648 46.944C36.3568 47.024 36.1928 47.14 36.0728 47.292C35.9528 47.436 35.8928 47.612 35.8928 47.82C35.8928 47.972 35.9248 48.112 35.9888 48.24C36.0608 48.368 36.1648 48.48 36.3008 48.576C36.4368 48.672 36.6088 48.756 36.8168 48.828C37.0248 48.9 37.2648 48.964 37.5368 49.02C37.9768 49.116 38.3688 49.236 38.7128 49.38C39.0648 49.524 39.3608 49.7 39.6008 49.908C39.8488 50.108 40.0368 50.34 40.1648 50.604C40.2928 50.86 40.3568 51.148 40.3568 51.468C40.3568 52.012 40.2288 52.484 39.9728 52.884C39.7168 53.284 39.3528 53.592 38.8808 53.808C38.4088 54.016 37.8568 54.12 37.2248 54.12ZM44.946 54.12C44.282 54.12 43.694 53.984 43.182 53.712C42.678 53.432 42.282 53.052 41.994 52.572C41.714 52.084 41.574 51.524 41.574 50.892C41.574 50.396 41.654 49.944 41.814 49.536C41.974 49.128 42.198 48.776 42.486 48.48C42.774 48.176 43.114 47.944 43.506 47.784C43.906 47.616 44.338 47.532 44.802 47.532C45.226 47.532 45.614 47.612 45.966 47.772C46.326 47.932 46.638 48.152 46.902 48.432C47.166 48.704 47.366 49.032 47.502 49.416C47.646 49.792 47.714 50.204 47.706 50.652L47.694 51.18H42.582L42.294 50.16H46.458L46.278 50.364V50.088C46.254 49.848 46.174 49.636 46.038 49.452C45.902 49.26 45.726 49.112 45.51 49.008C45.302 48.896 45.07 48.84 44.814 48.84C44.422 48.84 44.09 48.916 43.818 49.068C43.546 49.212 43.338 49.428 43.194 49.716C43.058 50.004 42.99 50.36 42.99 50.784C42.99 51.192 43.074 51.548 43.242 51.852C43.418 52.156 43.666 52.392 43.986 52.56C44.306 52.728 44.678 52.812 45.102 52.812C45.398 52.812 45.67 52.764 45.918 52.668C46.174 52.572 46.446 52.4 46.734 52.152L47.454 53.16C47.238 53.36 46.99 53.532 46.71 53.676C46.438 53.812 46.15 53.92 45.846 54C45.542 54.08 45.242 54.12 44.946 54.12ZM52.7752 54V49.956C52.7752 49.612 52.6592 49.344 52.4272 49.152C52.2032 48.952 51.9112 48.852 51.5512 48.852C51.2152 48.852 50.9112 48.92 50.6392 49.056C50.3672 49.184 50.1152 49.392 49.8832 49.68L48.9712 48.768C49.3472 48.368 49.7632 48.064 50.2192 47.856C50.6752 47.648 51.1672 47.544 51.6952 47.544C52.1992 47.544 52.6312 47.624 52.9912 47.784C53.3592 47.944 53.6432 48.184 53.8432 48.504C54.0432 48.816 54.1432 49.2 54.1432 49.656V54H52.7752ZM50.9752 54.12C50.5672 54.12 50.2032 54.04 49.8832 53.88C49.5632 53.72 49.3072 53.5 49.1152 53.22C48.9312 52.932 48.8392 52.596 48.8392 52.212C48.8392 51.876 48.8992 51.584 49.0192 51.336C49.1392 51.08 49.3152 50.868 49.5472 50.7C49.7872 50.532 50.0832 50.408 50.4352 50.328C50.7952 50.24 51.2072 50.196 51.6712 50.196H53.4832L53.3752 51.252H51.5872C51.3712 51.252 51.1792 51.272 51.0112 51.312C50.8432 51.352 50.6992 51.412 50.5792 51.492C50.4592 51.572 50.3712 51.668 50.3152 51.78C50.2592 51.884 50.2312 52.012 50.2312 52.164C50.2312 52.324 50.2712 52.464 50.3512 52.584C50.4312 52.696 50.5392 52.784 50.6752 52.848C50.8112 52.912 50.9712 52.944 51.1552 52.944C51.4192 52.944 51.6672 52.9 51.8992 52.812C52.1392 52.724 52.3512 52.6 52.5352 52.44C52.7192 52.28 52.8632 52.1 52.9672 51.9L53.2672 52.716C53.0992 52.996 52.8912 53.24 52.6432 53.448C52.4032 53.656 52.1392 53.82 51.8512 53.94C51.5712 54.06 51.2792 54.12 50.9752 54.12ZM56.4403 54V47.1C56.4403 46.724 56.5243 46.388 56.6923 46.092C56.8603 45.788 57.0923 45.552 57.3883 45.384C57.6843 45.208 58.0243 45.12 58.4083 45.12C58.6803 45.12 58.9323 45.168 59.1643 45.264C59.4043 45.36 59.6003 45.488 59.7523 45.648L59.2963 46.74C59.1923 46.66 59.0803 46.596 58.9603 46.548C58.8483 46.492 58.7403 46.464 58.6363 46.464C58.4763 46.464 58.3403 46.492 58.2283 46.548C58.1243 46.596 58.0443 46.672 57.9883 46.776C57.9403 46.88 57.9163 47.008 57.9163 47.16V54H57.1723C57.0363 54 56.9043 54 56.7763 54C56.6563 54 56.5443 54 56.4403 54ZM55.4563 49.104V47.808H59.3443V49.104H55.4563ZM63.3706 54.12C62.7386 54.12 62.1746 53.98 61.6786 53.7C61.1826 53.412 60.7906 53.02 60.5026 52.524C60.2226 52.028 60.0826 51.464 60.0826 50.832C60.0826 50.2 60.2226 49.636 60.5026 49.14C60.7906 48.644 61.1826 48.256 61.6786 47.976C62.1746 47.688 62.7386 47.544 63.3706 47.544C63.9946 47.544 64.5546 47.688 65.0506 47.976C65.5466 48.256 65.9346 48.644 66.2146 49.14C66.5026 49.636 66.6466 50.2 66.6466 50.832C66.6466 51.464 66.5026 52.028 66.2146 52.524C65.9346 53.02 65.5466 53.412 65.0506 53.7C64.5546 53.98 63.9946 54.12 63.3706 54.12ZM63.3706 52.812C63.7146 52.812 64.0226 52.728 64.2946 52.56C64.5666 52.384 64.7786 52.148 64.9306 51.852C65.0906 51.548 65.1666 51.208 65.1586 50.832C65.1666 50.448 65.0906 50.108 64.9306 49.812C64.7786 49.508 64.5666 49.272 64.2946 49.104C64.0226 48.936 63.7146 48.852 63.3706 48.852C63.0266 48.852 62.7146 48.94 62.4346 49.116C62.1626 49.284 61.9506 49.52 61.7986 49.824C61.6466 50.12 61.5706 50.456 61.5706 50.832C61.5706 51.208 61.6466 51.548 61.7986 51.852C61.9506 52.148 62.1626 52.384 62.4346 52.56C62.7146 52.728 63.0266 52.812 63.3706 52.812ZM70.9971 54.12C70.3651 54.12 69.8011 53.98 69.3051 53.7C68.8091 53.412 68.4171 53.02 68.1291 52.524C67.8491 52.028 67.7091 51.464 67.7091 50.832C67.7091 50.2 67.8491 49.636 68.1291 49.14C68.4171 48.644 68.8091 48.256 69.3051 47.976C69.8011 47.688 70.3651 47.544 70.9971 47.544C71.6211 47.544 72.1811 47.688 72.6771 47.976C73.1731 48.256 73.5611 48.644 73.8411 49.14C74.1291 49.636 74.2731 50.2 74.2731 50.832C74.2731 51.464 74.1291 52.028 73.8411 52.524C73.5611 53.02 73.1731 53.412 72.6771 53.7C72.1811 53.98 71.6211 54.12 70.9971 54.12ZM70.9971 52.812C71.3411 52.812 71.6491 52.728 71.9211 52.56C72.1931 52.384 72.4051 52.148 72.5571 51.852C72.7171 51.548 72.7931 51.208 72.7851 50.832C72.7931 50.448 72.7171 50.108 72.5571 49.812C72.4051 49.508 72.1931 49.272 71.9211 49.104C71.6491 48.936 71.3411 48.852 70.9971 48.852C70.6531 48.852 70.3411 48.94 70.0611 49.116C69.7891 49.284 69.5771 49.52 69.4251 49.824C69.2731 50.12 69.1971 50.456 69.1971 50.832C69.1971 51.208 69.2731 51.548 69.4251 51.852C69.5771 52.148 69.7891 52.384 70.0611 52.56C70.3411 52.728 70.6531 52.812 70.9971 52.812ZM78.2997 54.12C77.7317 54.12 77.2237 53.98 76.7757 53.7C76.3357 53.412 75.9837 53.024 75.7197 52.536C75.4637 52.04 75.3357 51.472 75.3357 50.832C75.3357 50.2 75.4637 49.636 75.7197 49.14C75.9757 48.644 76.3237 48.256 76.7637 47.976C77.2117 47.688 77.7157 47.544 78.2757 47.544C78.5797 47.544 78.8717 47.592 79.1517 47.688C79.4397 47.784 79.6957 47.916 79.9197 48.084C80.1517 48.244 80.3317 48.424 80.4597 48.624C80.5957 48.824 80.6677 49.032 80.6757 49.248L80.2797 49.296V45.12H81.7557V54H80.3277L80.2917 52.524L80.5797 52.548C80.5717 52.74 80.5037 52.928 80.3757 53.112C80.2477 53.296 80.0757 53.464 79.8597 53.616C79.6517 53.768 79.4117 53.892 79.1397 53.988C78.8677 54.076 78.5877 54.12 78.2997 54.12ZM78.5757 52.872C78.9197 52.872 79.2237 52.788 79.4877 52.62C79.7517 52.444 79.9557 52.204 80.0997 51.9C80.2517 51.588 80.3277 51.232 80.3277 50.832C80.3277 50.432 80.2517 50.08 80.0997 49.776C79.9557 49.472 79.7517 49.232 79.4877 49.056C79.2237 48.88 78.9197 48.792 78.5757 48.792C78.2237 48.792 77.9157 48.88 77.6517 49.056C77.3957 49.232 77.1917 49.472 77.0397 49.776C76.8877 50.08 76.8117 50.432 76.8117 50.832C76.8117 51.232 76.8877 51.588 77.0397 51.9C77.1917 52.204 77.3957 52.444 77.6517 52.62C77.9157 52.788 78.2237 52.872 78.5757 52.872Z" fill="white"></path><path d="M67.2099 21.2305C67.1474 21.2215 67.0879 21.1976 67.0367 21.1606C66.9855 21.1237 66.944 21.0749 66.9157 21.0184L65.781 18.7461C65.6323 19.3378 65.7005 19.9632 65.9732 20.509L66.0536 20.6691C66.0767 20.7154 66.0903 20.7657 66.0938 20.8172C66.0973 20.8688 66.0905 20.9205 66.0739 20.9694C66.0573 21.0183 66.0311 21.0634 65.9969 21.1021C65.9627 21.1408 65.9212 21.1724 65.8747 21.1949L62.9134 22.6309L63.3591 20.8438C62.3105 21.4743 61.4896 22.4221 61.0153 23.55L60.4376 23.8301C59.0782 24.4896 57.8247 25.3482 56.7185 26.3773V24.3594L56.0052 24.8945C55.6074 25.1927 55.3269 25.621 55.2127 26.1048C55.0985 26.5887 55.1578 27.0972 55.3802 27.5418L55.4583 27.7004C53.7724 29.6948 52.6301 32.0908 52.1419 34.6563L54.22 33.766C54.2689 33.7449 54.3215 33.7342 54.3747 33.7344C54.452 33.7344 54.5275 33.7573 54.5917 33.8002C54.6559 33.8432 54.706 33.9042 54.7355 33.9755C54.7651 34.0469 54.7728 34.1254 54.7578 34.2012C54.7427 34.2769 54.7055 34.3465 54.6509 34.4012L53.5728 35.4793C54.9342 35.1832 56.2496 34.7055 57.4837 34.059C57.4095 32.8619 56.9002 31.7332 56.0517 30.8855L56.604 30.3332C57.4981 31.2252 58.0701 32.3891 58.2302 33.6418C59.156 33.0883 60.0215 32.4396 60.8126 31.7063C61.9846 31.5355 63.0901 31.0561 64.0157 30.3172L64.1403 30.2188H62.2181C63.0235 29.2505 63.7083 28.1881 64.2575 27.0547C65.347 26.5751 66.2612 25.77 66.8747 24.75L65.1415 25.1832L66.5232 22.2402C66.5545 22.1734 66.6042 22.1168 66.6664 22.0771C66.7287 22.0373 66.8009 22.016 66.8747 22.0156H67.1708C67.8321 22.0175 68.481 21.8364 69.0458 21.4926L67.2099 21.2305ZM54.3747 32.9531C54.2202 32.9531 54.0692 32.9073 53.9407 32.8215C53.8122 32.7356 53.7121 32.6136 53.6529 32.4708C53.5938 32.3281 53.5783 32.171 53.6085 32.0195C53.6386 31.8679 53.713 31.7287 53.8223 31.6194C53.9316 31.5102 54.0708 31.4358 54.2223 31.4056C54.3739 31.3755 54.5309 31.391 54.6737 31.4501C54.8164 31.5092 54.9385 31.6094 55.0243 31.7378C55.1101 31.8663 55.156 32.0174 55.156 32.1719C55.156 32.3791 55.0737 32.5778 54.9271 32.7243C54.7806 32.8708 54.5819 32.9531 54.3747 32.9531Z" fill="white"></path><path d="M50.0833 25.0625C50.1036 25.7712 50.2808 26.4665 50.602 27.0985L49.3063 27.2977C48.5518 26.348 48.0484 25.2236 47.8427 24.0282L50.0833 25.0625ZM52.2153 29.4883C51.3672 29.1393 50.5936 28.6315 49.936 27.9922L51.0474 27.8215L52.2153 29.4883ZM50.1321 24.2246L47.7462 23.1235C47.7415 23.0168 47.7341 22.911 47.7341 22.8035C47.7358 21.5333 48.1138 20.292 48.8204 19.2364L51.029 22.0489C50.5561 22.6896 50.2481 23.4368 50.1321 24.2246ZM52.4192 20.7801C52.1066 20.9706 51.8169 21.1964 51.5559 21.4532L49.3091 18.5942C49.7689 18.0627 50.3132 17.6107 50.92 17.2563C51.3575 17.0011 51.8119 16.7762 52.2802 16.5832L52.2606 16.7004C52.1081 17.617 52.0312 18.5446 52.0309 19.4739C52.0294 19.9364 52.2062 20.3818 52.5247 20.7172L52.4192 20.7801ZM56.0052 20.3828C55.6206 20.6809 55.148 20.843 54.6614 20.8438C54.3739 20.8445 54.0892 20.7883 53.8236 20.6782C53.558 20.5682 53.3169 20.4066 53.1141 20.2028C53.0181 20.1072 52.9419 19.9936 52.8901 19.8684C52.8383 19.7432 52.8118 19.609 52.8122 19.4735C52.8123 18.5872 52.8856 17.7024 53.0313 16.8282L53.1247 16.2735C53.2809 16.2235 53.4372 16.177 53.5958 16.1336L54.7083 15.8301C56.4141 15.3666 58.1965 15.2556 59.9466 15.5039L60.7306 15.6157L59.3427 16.541C59.2555 16.3922 59.1215 16.2764 58.9616 16.2116C58.8016 16.1469 58.6248 16.137 58.4586 16.1833C58.2925 16.2297 58.1463 16.3297 58.043 16.4679C57.9396 16.606 57.8849 16.7744 57.8873 16.9469C57.8898 17.1194 57.9493 17.2863 58.0565 17.4214C58.1637 17.5566 58.3127 17.6524 58.4801 17.694C58.6475 17.7356 58.824 17.7207 58.982 17.6514C59.14 17.5822 59.2707 17.4626 59.3536 17.3114C59.4002 17.3246 59.4488 17.3291 59.497 17.3246L60.9059 17.1684C59.1889 18.1068 57.55 19.1818 56.0052 20.3828Z" fill="white"></path><path d="M60.7993 14.8379L60.811 14.8297C61.0561 14.6544 61.2391 14.4058 61.3338 14.1198C61.4285 13.8338 61.43 13.5251 61.3379 13.2382C61.2459 12.9513 61.0652 12.701 60.8218 12.5234C60.5785 12.3458 60.285 12.2501 59.9837 12.25C55.2111 12.2545 50.5115 13.4217 46.2915 15.6508L45.9888 15.8109L46.3544 16.5016L46.6567 16.3414C50.7642 14.1717 55.3384 13.0355 59.9837 13.0312C60.1195 13.0314 60.2517 13.0747 60.3613 13.1547C60.4709 13.2348 60.5523 13.3476 60.5937 13.4769C60.6351 13.6062 60.6345 13.7453 60.5918 13.8742C60.5492 14.0031 60.4667 14.1151 60.3563 14.1941L59.6673 14.6863C59.797 14.7008 59.927 14.7129 60.056 14.7316L60.7993 14.8379Z" fill="white"></path><path d="M52.3255 21.8074L53.6837 23.4379C53.7274 23.4902 53.784 23.5302 53.848 23.5538C53.9119 23.5775 53.9809 23.584 54.0482 23.5727L56.3919 23.1821L56.2638 22.4117L54.1407 22.7653L52.9689 21.359L52.8196 21.4485C52.646 21.5553 52.4808 21.6753 52.3255 21.8074Z" fill="white"></path><path d="M51.6509 22.5203L52.4626 24.1434C52.4878 24.1938 52.5237 24.2382 52.5677 24.2735C52.6118 24.3088 52.6629 24.3341 52.7177 24.3477L55.3661 25.0117L55.5552 24.2543L53.081 23.6356L52.2173 21.9078C52.0078 22.0919 51.818 22.2971 51.6509 22.5203Z" fill="white"></path><path d="M52.0903 25.7383C52.1254 25.7945 52.1743 25.8408 52.2322 25.8729C52.2902 25.905 52.3553 25.9219 52.4216 25.9219H54.7653V25.1406H52.6384L51.3278 23.0449C51.175 23.3349 51.0579 23.6424 50.979 23.9605L52.0903 25.7383Z" fill="white"></path><path d="M50.9556 25.7898L52.1091 27.3281C52.1455 27.3766 52.1926 27.416 52.2469 27.4431C52.3011 27.4702 52.3609 27.4844 52.4216 27.4844C52.4378 27.4843 52.4539 27.4832 52.47 27.4812L54.897 27.1781L54.8001 26.4027L52.5981 26.6761L50.8927 24.4027C50.8322 24.8645 50.8535 25.3334 50.9556 25.7879V25.7898Z" fill="white"></path><defs><linearGradient id="paint0_linear_1139_7163" x1="-27" y1="-74" x2="84.5" y2="66.5" gradientUnits="userSpaceOnUse"><stop stop-color="#0005FF"></stop><stop offset="0.846565" stop-color="#00C0FF"></stop></linearGradient></defs></svg>