<svg xmlns="http://www.w3.org/2000/svg" width="60" height="60" viewBox="0 0 60 60" fill="none"><circle cx="30" cy="30" r="30" fill="white"></circle><g clip-path="url(#clip0_829_4528)"><path d="M42.3996 38.032L42.895 37.4126C43.829 36.265 43.6127 34.5646 42.4951 33.7031C41.5205 32.9162 40.074 32.9075 39.09 33.8075C38.6224 33.3855 38.0096 33.1212 37.3316 33.1212C35.8777 33.1212 34.6949 34.3039 34.6949 35.7579C34.6949 36.6297 35.1252 37.3978 35.7792 37.8781L35.2803 38.5018C34.364 39.6338 34.5409 41.3252 35.7095 42.2259C36.7282 43.0181 38.1427 42.971 39.0894 42.1032C39.557 42.5248 40.1696 42.789 40.8472 42.789C42.3011 42.789 43.4839 41.6062 43.4839 40.1523C43.4838 39.2805 43.0536 38.5123 42.3996 38.032ZM37.3316 33.1212H39.0894C39.5752 33.1212 39.9683 32.7281 39.9683 32.2423V23.4534C39.9683 21.9995 38.7855 20.8168 37.3316 20.8168H19.6367C18.1827 20.8168 17 21.9995 17 23.4534V34.0001C17 35.454 18.1827 36.6367 19.6367 36.6367H33.816C34.3018 36.6367 34.6949 36.2436 34.6949 35.7579V33.1212H37.3316Z" fill="url(#paint0_linear_829_4528)"></path><path d="M46.9291 38.9394C46.7885 38.6054 46.472 38.3945 46.1205 38.3945H45.2417V32.2423C45.2417 31.75 44.855 31.3634 44.3628 31.3634H33.8161C33.3239 31.3634 32.9372 31.75 32.9372 32.2423V38.3945H32.0583C31.7068 38.3945 31.3904 38.6054 31.2497 38.9394C31.1091 39.2734 31.1795 39.6424 31.4431 39.8885L38.4742 46.9196C38.6324 47.0955 38.8609 47.1833 39.0894 47.1833C39.3179 47.1833 39.5464 47.0955 39.7045 46.9196L46.7356 39.8885C46.9994 39.6424 47.0698 39.2734 46.9291 38.9394ZM37.3317 34.8789C37.8239 34.8789 38.2106 35.2656 38.2106 35.7578C38.2106 36.2499 37.8239 36.6367 37.3317 36.6367C36.8394 36.6367 36.4528 36.2499 36.4528 35.7578C36.4528 35.2656 36.8394 34.8789 37.3317 34.8789ZM38.0172 40.6972C37.8414 40.9257 37.5953 41.0311 37.3317 41.0311C37.1383 41.0311 36.945 40.9608 36.7868 40.8378C36.4 40.5389 36.3473 39.9764 36.6461 39.6073L40.1616 35.2129C40.4605 34.8261 41.0229 34.7735 41.3922 35.0723C41.7788 35.371 41.8316 35.9335 41.5328 36.3027L38.0172 40.6972ZM40.8472 41.0311C40.355 41.0311 39.9683 40.6444 39.9683 40.1523C39.9683 39.66 40.355 39.2734 40.8472 39.2734C41.3395 39.2734 41.7261 39.66 41.7261 40.1523C41.7261 40.6444 41.3395 41.0311 40.8472 41.0311ZM21.3945 26.0901H35.5739C36.0597 26.0901 36.4528 25.697 36.4528 25.2112C36.4528 24.7254 36.0597 24.3323 35.5739 24.3323H21.3945C20.9087 24.3323 20.5156 24.7254 20.5156 25.2112C20.5156 25.697 20.9087 26.0901 21.3945 26.0901ZM23.1523 31.3634H21.3945C20.9087 31.3634 20.5156 31.7565 20.5156 32.2423C20.5156 32.7281 20.9087 33.1212 21.3945 33.1212H23.1523C23.6381 33.1212 24.0312 32.7281 24.0312 32.2423C24.0312 31.7565 23.6381 31.3634 23.1523 31.3634Z" fill="url(#paint1_linear_829_4528)"></path></g><defs><linearGradient id="paint0_linear_829_4528" x1="30.2419" y1="42.789" x2="30.2419" y2="20.8168" gradientUnits="userSpaceOnUse"><stop stop-color="#FD3A84"></stop><stop offset="1" stop-color="#FFA68D"></stop></linearGradient><linearGradient id="paint1_linear_829_4528" x1="33.7579" y1="47.1833" x2="33.7579" y2="24.3323" gradientUnits="userSpaceOnUse"><stop stop-color="#FFC2CC"></stop><stop offset="1" stop-color="#FFF2F4"></stop></linearGradient><clipPath id="clip0_829_4528"><rect width="30" height="30" fill="white" transform="translate(17 19)"></rect></clipPath></defs></svg>