<svg xmlns="http://www.w3.org/2000/svg" width="40" height="40" viewBox="0 0 40 40" fill="none"><rect width="40" height="40" rx="20" fill="url(#paint0_linear_844_161)"></rect><path d="M26.6958 13.4658H13.3038C13.0338 13.4658 12.7998 13.6818 12.7998 13.9698V15.5358H27.1998V13.9698C27.1998 13.6998 26.9838 13.4658 26.6958 13.4658ZM13.8258 14.8518C13.6278 14.8518 13.4658 14.6898 13.4658 14.4918C13.4658 14.2938 13.6278 14.1318 13.8258 14.1318C14.0238 14.1318 14.1858 14.2938 14.1858 14.4918C14.1858 14.6898 14.0238 14.8518 13.8258 14.8518ZM15.2118 14.8518C15.0138 14.8518 14.8518 14.6898 14.8518 14.4918C14.8518 14.2938 15.0138 14.1318 15.2118 14.1318C15.4098 14.1318 15.5718 14.2938 15.5718 14.4918C15.5718 14.6898 15.4098 14.8518 15.2118 14.8518ZM16.5978 14.8518C16.3998 14.8518 16.2378 14.6898 16.2378 14.4918C16.2378 14.2938 16.3998 14.1318 16.5978 14.1318C16.7958 14.1318 16.9578 14.2938 16.9578 14.4918C16.9578 14.6898 16.7958 14.8518 16.5978 14.8518Z" fill="white"></path><path d="M23.3128 22.9519C23.3128 22.9339 23.3308 22.9159 23.3308 22.9159C23.3308 22.8979 23.3488 22.8799 23.3668 22.8799C23.3668 22.8799 23.3668 22.8799 23.3668 22.8619C23.3848 22.8619 23.3848 22.8439 23.4028 22.8439C23.4208 22.8439 23.4208 22.8259 23.4388 22.8259L24.6628 22.1959L20.3428 21.0439L21.4948 25.3639L22.1248 24.1399C22.1248 24.1219 22.1428 24.1219 22.1428 24.1039C22.1428 24.0859 22.1608 24.0859 22.1608 24.0679H22.1788C22.1968 24.0499 22.2148 24.0499 22.2148 24.0319C22.2328 24.0319 22.2328 24.0139 22.2508 24.0139H22.3048H22.3408H22.3768C22.3948 24.0139 22.4128 24.0139 22.4308 24.0319H22.4488C22.4668 24.0319 22.4668 24.0499 22.4848 24.0499C22.5028 24.0499 22.5028 24.0679 22.5208 24.0679L22.8808 24.4279L24.9868 26.5339L25.8328 25.6879L24.9328 24.7879L23.3848 23.2399C23.3668 23.2219 23.3668 23.2219 23.3668 23.2039C23.3668 23.1859 23.3488 23.1859 23.3488 23.1679C23.3488 23.1679 23.3488 23.1679 23.3488 23.1499C23.3488 23.1319 23.3308 23.1139 23.3308 23.0959C23.3308 23.0779 23.3308 23.0599 23.3128 23.0599C23.3128 23.0419 23.3128 23.0239 23.3128 23.0059C23.2948 22.9879 23.2948 22.9699 23.3128 22.9519Z" fill="white"></path><path d="M12.7998 23.852C12.7998 24.122 13.0158 24.356 13.3038 24.356H20.7018L19.7298 20.756C19.7118 20.666 19.7298 20.576 19.8018 20.522C19.8558 20.468 19.9638 20.432 20.0358 20.45L25.3818 21.89C25.4898 21.926 25.5618 21.998 25.5618 22.106C25.5798 22.214 25.5258 22.304 25.4358 22.358L23.9598 23.114L25.2018 24.356H26.7138C26.9838 24.356 27.2178 24.14 27.2178 23.852V16.04H12.7998V23.852ZM21.0438 19.262L21.9258 18.38C22.0158 18.29 22.1778 18.29 22.2858 18.38C22.3758 18.47 22.3758 18.632 22.2858 18.722L21.4038 19.604C21.3498 19.658 21.2958 19.676 21.2238 19.676C21.1518 19.676 21.0978 19.658 21.0438 19.604C20.9538 19.514 20.9538 19.352 21.0438 19.262ZM19.7298 17.66C19.7298 17.516 19.8378 17.408 19.9818 17.408C20.1258 17.408 20.2338 17.516 20.2338 17.66V18.902C20.2338 19.046 20.1258 19.154 19.9818 19.154C19.8378 19.154 19.7298 19.046 19.7298 18.902V17.66ZM18.9018 22.106L18.0198 22.988C17.9658 23.042 17.9118 23.06 17.8398 23.06C17.7678 23.06 17.7138 23.042 17.6598 22.988C17.5698 22.898 17.5698 22.736 17.6598 22.646L18.5418 21.764C18.6318 21.674 18.7938 21.674 18.9018 21.764C18.9918 21.854 18.9918 22.016 18.9018 22.106ZM17.6778 18.38C17.7678 18.29 17.9298 18.29 18.0378 18.38L18.9198 19.262C19.0098 19.352 19.0098 19.514 18.9198 19.604C18.8658 19.658 18.8118 19.676 18.7398 19.676C18.6678 19.676 18.6138 19.658 18.5598 19.604L17.6778 18.722C17.5698 18.632 17.5698 18.47 17.6778 18.38ZM16.9578 20.432H18.1998C18.3438 20.432 18.4518 20.54 18.4518 20.684C18.4518 20.828 18.3438 20.936 18.1998 20.936H16.9578C16.8138 20.936 16.7058 20.828 16.7058 20.684C16.7238 20.54 16.8318 20.432 16.9578 20.432Z" fill="white"></path><defs><linearGradient id="paint0_linear_844_161" x1="15.7325" y1="58.6957" x2="43.6667" y2="15" gradientUnits="userSpaceOnUse"><stop stop-color="#9358F7"></stop><stop offset="0.259732" stop-color="#7B78F2"></stop><stop offset="0.500607" stop-color="#6197EE"></stop><stop offset="0.766547" stop-color="#45B5E9"></stop><stop offset="1" stop-color="#10D7E2"></stop></linearGradient></defs></svg>