<svg xmlns="http://www.w3.org/2000/svg" width="60" height="60" viewBox="0 0 60 60" fill="none"><circle cx="30" cy="30" r="30" fill="url(#paint0_linear_829_6056)"></circle><path d="M24.9919 37.284L30.8219 31.19C31.2326 30.75 31.5626 30.3613 31.8119 30.024C32.0759 29.672 32.2666 29.342 32.3839 29.034C32.5013 28.7113 32.5599 28.3887 32.5599 28.066C32.5599 27.4207 32.3473 26.9147 31.9219 26.548C31.5113 26.1813 30.9759 25.998 30.3159 25.998C29.6413 25.998 29.0399 26.174 28.5119 26.526C27.9986 26.878 27.5146 27.4353 27.0599 28.198L25.0139 26.46C25.6299 25.4187 26.3926 24.634 27.3019 24.106C28.2259 23.5633 29.2819 23.292 30.4699 23.292C31.4819 23.292 32.3619 23.49 33.1099 23.886C33.8726 24.282 34.4593 24.832 34.8699 25.536C35.2806 26.24 35.4859 27.0613 35.4859 28C35.4859 28.6307 35.4053 29.2027 35.2439 29.716C35.0973 30.2293 34.8406 30.7427 34.4739 31.256C34.1219 31.7547 33.6306 32.3193 32.9999 32.95L28.7539 37.284H24.9919ZM24.9919 39V37.284L27.5439 36.404H35.8159V39H24.9919Z" fill="white"></path><defs><linearGradient id="paint0_linear_829_6056" x1="32.1177" y1="-28.2709" x2="-11.5" y2="97" gradientUnits="userSpaceOnUse"><stop stop-color="#FEDC2A"></stop><stop offset="0.61318" stop-color="#FF5B98"></stop><stop offset="1" stop-color="#7A2C9E"></stop></linearGradient></defs></svg>