<svg xmlns="http://www.w3.org/2000/svg" width="51" height="51" viewBox="0 0 51 51" fill="none"><path d="M22.1719 50.25C10.0255 50.25 0.101562 40.325 0.101562 28.1797C0.101562 16.064 10.0022 6.20703 22.1719 6.20703C22.9809 6.20703 23.6367 6.86289 23.6367 7.67188V26.7148H42.6797C43.4887 26.7148 44.1445 27.3707 44.1445 28.1797C44.1445 40.3493 34.2876 50.25 22.1719 50.25Z" fill="url(#paint0_linear_829_4479)"></path><path d="M48.6367 23.7852H28.0312C27.2223 23.7852 26.5664 23.1293 26.5664 22.3203V1.71484C26.5664 0.905859 27.2223 0.25 28.0312 0.25C40.1776 0.25 50.1016 10.175 50.1016 22.3203C50.1016 23.1293 49.4457 23.7852 48.6367 23.7852Z" fill="url(#paint1_linear_829_4479)"></path><defs><linearGradient id="paint0_linear_829_4479" x1="22.123" y1="50.25" x2="22.123" y2="6.20703" gradientUnits="userSpaceOnUse"><stop stop-color="#FFC2C2"></stop><stop offset="1" stop-color="#FFF2F4"></stop></linearGradient><linearGradient id="paint1_linear_829_4479" x1="38.334" y1="23.7852" x2="38.334" y2="0.25" gradientUnits="userSpaceOnUse"><stop stop-color="#FFD2C0"></stop><stop offset="1" stop-color="#FFF2F4"></stop></linearGradient></defs></svg>