<svg xmlns="http://www.w3.org/2000/svg" width="51" height="51" viewBox="0 0 51 51" fill="none"><path d="M14.9405 28.2338C15.6341 27.4381 15.0691 26.1957 14.0134 26.1957H10.8529C10.8323 25.883 10.8208 25.5678 10.8208 25.2501C10.8208 17.3755 17.2271 10.9692 25.1016 10.9692C28.8857 10.9692 32.3303 12.4492 34.8883 14.86L39.3449 9.64635C35.4437 6.07751 30.4231 4.12268 25.1016 4.12268C19.4583 4.12268 14.1528 6.32036 10.1623 10.3107C6.17197 14.3012 3.97429 19.6067 3.97429 25.25C3.97429 25.5664 3.98219 25.8815 3.99595 26.1956H1.33383C0.278215 26.1956 -0.286914 27.438 0.406814 28.2337L6.41219 35.1222L7.67359 36.569L12.2024 31.3742L14.9405 28.2338Z" fill="url(#paint0_linear_829_4493)"></path><path d="M49.796 24.2146L45.3168 19.0768L42.5292 15.8793L38.5492 20.4445L35.2624 24.2146C34.5688 25.0103 35.1338 26.2527 36.1894 26.2527H39.3462C38.8298 33.661 32.6385 39.5307 25.1012 39.5307C21.811 39.5307 18.7776 38.4117 16.3603 36.535L11.9033 41.7491C15.6371 44.7475 20.2436 46.3772 25.1013 46.3772C30.7446 46.3772 36.0501 44.1797 40.0406 40.1892C43.7937 36.4361 45.9604 31.5195 46.2048 26.2528H48.869C49.9246 26.2527 50.4896 25.0103 49.796 24.2146Z" fill="url(#paint1_linear_829_4493)"></path><defs><linearGradient id="paint0_linear_829_4493" x1="19.7232" y1="36.569" x2="19.7232" y2="4.12268" gradientUnits="userSpaceOnUse"><stop stop-color="#FFC2C2"></stop><stop offset="1" stop-color="#FFF2F4"></stop></linearGradient><linearGradient id="paint1_linear_829_4493" x1="31.0023" y1="46.3772" x2="31.0023" y2="15.8793" gradientUnits="userSpaceOnUse"><stop stop-color="#FFC2C2"></stop><stop offset="1" stop-color="#FFF2F4"></stop></linearGradient></defs></svg>