<svg xmlns="http://www.w3.org/2000/svg" width="1200" height="461" viewBox="0 0 1200 461" fill="none"><g clip-path="url(#clip0_829_5966)"><path opacity="0.4" d="M1288.9 507.955C1257.05 534.547 1222.31 567.967 1184.48 600.522C1100.35 672.737 1000.87 740.349 883.273 718.133C627.203 669.774 665.121 470.14 483.507 399.023C313.349 332.372 305.544 586.577 -13.1422 499.866C-240.389 438.038 -376.49 244.716 -435.906 138.891L-350.234 20.9536C-289.998 133.263 -88.0448 295.533 126.939 244.441C392.994 181.199 552.434 252.97 749.427 497.423C888.992 670.703 1149.22 577.173 1288.92 507.972L1288.9 507.955Z" fill="#F8A046"></path><path opacity="0.3" d="M1184 600.176C1099.87 672.392 1000.39 740.004 882.79 717.787C626.719 669.428 664.638 469.794 483.024 398.678C312.866 332.026 305.061 586.231 -13.6254 499.521C-240.872 437.693 -376.973 244.371 -436.389 138.545L-292.039 -60.1695C-267.615 141.911 35.5118 516.292 298.413 300.562C606.331 47.8659 724.17 470.136 932.425 596.7C1016.81 648.018 1106.76 634.47 1184 600.176Z" fill="#FF4900"></path><path d="M1367.45 487.078C1367.45 487.078 1247.92 450.806 1094.47 579.42C941.029 708.014 791.397 589.257 716.659 456.005C641.921 322.753 492.281 211.908 291.464 293.511C90.6457 375.114 -262.289 222.082 -262.224 -90.2693" stroke="white" stroke-opacity="0.2" stroke-miterlimit="10"></path><path opacity="0.4" d="M583.556 -17.0446C615.402 9.54718 650.144 42.967 687.968 75.5223C772.102 147.737 871.582 215.349 989.178 193.133C1245.25 144.774 1207.33 -54.8605 1388.94 -125.977C1559.1 -192.628 1566.91 61.5771 1885.59 -25.1338C2112.84 -86.9617 2248.94 -280.284 2308.36 -386.109L2222.69 -504.046C2162.45 -391.738 1960.5 -229.467 1745.51 -280.559C1479.46 -343.801 1320.02 -272.03 1123.02 -27.5771C983.459 145.703 723.227 52.1733 583.533 -17.0282L583.556 -17.0446Z" fill="#F8A046"></path><path opacity="0.3" d="M688.452 75.1765C772.585 147.392 872.065 215.004 989.661 192.787C1245.73 144.428 1207.81 -55.2061 1389.43 -126.322C1559.59 -192.974 1567.39 61.2313 1886.08 -25.4794C2113.32 -87.3075 2249.42 -280.629 2308.84 -386.455L2164.49 -585.169C2140.07 -383.089 1836.94 -8.70841 1574.04 -224.438C1266.12 -477.134 1148.28 -54.864 940.026 71.7002C855.644 123.018 765.688 109.47 688.452 75.1765Z" fill="#FF4900"></path><path d="M505 -37.9223C505 -37.9223 624.531 -74.1944 777.984 54.4205C931.422 183.014 1081.05 64.2566 1155.79 -68.9951C1230.53 -202.247 1380.17 -313.092 1580.99 -231.489C1781.81 -149.886 2134.74 -302.918 2134.68 -615.269" stroke="white" stroke-opacity="0.2" stroke-miterlimit="10"></path></g><defs><clipPath id="clip0_829_5966"><rect width="1200" height="461" rx="10" fill="white"></rect></clipPath></defs></svg>