<svg xmlns="http://www.w3.org/2000/svg" width="40" height="40" viewBox="0 0 40 40" fill="none"><rect width="40" height="40" rx="20" fill="url(#paint0_linear_844_144)"></rect><path d="M22.252 22.25C21.4235 22.25 20.752 22.9216 20.752 23.75V26C20.752 26.8285 21.4235 27.5 22.252 27.5H22.27C23.2098 27.5 24.0163 27.4507 24.6901 27.3009C25.3725 27.1492 25.964 26.8849 26.4254 26.4235C26.8868 25.9621 27.1512 25.3705 27.3028 24.6881C27.3716 24.3786 27.417 24.0646 27.4468 23.7484C27.5245 22.9237 26.8304 22.25 26.002 22.25H22.252Z" fill="white"></path><path d="M12.501 22.268V20.75C12.501 19.9216 13.1725 19.25 14.001 19.25H17.751C18.5794 19.25 19.251 19.9216 19.251 20.75V26C19.251 26.8285 18.5794 27.5 17.751 27.5H17.733C16.7931 27.5 15.9867 27.4507 15.3128 27.3009C14.6305 27.1492 14.039 26.8849 13.5775 26.4235C13.1161 25.9621 12.8518 25.3705 12.7001 24.6881C12.5504 24.0143 12.501 23.2078 12.501 22.268Z" fill="white"></path><path d="M27.502 19.25C27.502 20.0785 26.8304 20.75 26.002 20.75H22.252C21.4235 20.75 20.752 20.0785 20.752 19.25V14C20.752 13.1716 21.4235 12.5 22.252 12.5H22.27C23.2098 12.5 24.0163 12.5494 24.6901 12.6991C25.3725 12.8508 25.964 13.1152 26.4254 13.5766C26.8868 14.038 27.1512 14.6295 27.3028 15.3119C27.4526 15.9857 27.502 16.7922 27.502 17.732V19.25Z" fill="white"></path><path d="M19.2511 14C19.2511 13.1716 18.5795 12.5 17.7511 12.5H17.7331C16.7932 12.5 15.9868 12.5494 15.3129 12.6991C14.6306 12.8508 14.0391 13.1152 13.5777 13.5766C13.1162 14.038 12.8519 14.6295 12.7002 15.3119C12.6314 15.6214 12.586 15.9355 12.5562 16.2516C12.4785 17.0764 13.1727 17.75 14.0011 17.75H17.7511C18.5795 17.75 19.2511 17.0784 19.2511 16.25V14Z" fill="white"></path><defs><linearGradient id="paint0_linear_844_144" x1="20.1553" y1="-15.857" x2="-17.3333" y2="50.6667" gradientUnits="userSpaceOnUse"><stop stop-color="#4DDEF1"></stop><stop offset="1" stop-color="#8951FF"></stop></linearGradient></defs></svg>