<svg xmlns="http://www.w3.org/2000/svg" width="1319" height="541" viewBox="0 0 1319 541" fill="none"><g style="mix-blend-mode:overlay" opacity="0.1"><path d="M1226 333.559C1206.92 351.453 1181.76 378.821 1159.15 400.69C1108.84 449.207 1090.41 498.452 1014.18 488.293C848.181 466.182 841.859 378.025 722.36 339.032C610.399 302.485 531.24 435.429 323.381 391.116C175.162 359.519 125.338 276.858 82.2772 211.829L129.396 124.225C173.292 193.331 320.709 332.474 455.665 292.984C622.68 244.105 729.381 203.456 867.036 351.685C964.566 456.759 1117.33 394.239 1203.29 345.784L1226 333.559Z" fill="white"></path></g><g style="mix-blend-mode:overlay" opacity="0.1"><path d="M1151.38 360.446C1103.33 411.2 1043.8 482.511 967.186 475.828C800.357 461.289 804.601 373.2 682.622 351.301C569.114 319.884 541.63 456.783 331.971 421.968C182.469 397.145 95.4632 277.095 49.4899 214.092L153.679 110.34C184.754 236.191 339.297 401.6 557.492 300.952C779.283 204.605 841.822 360.538 984.197 427.347C1041.89 454.44 1104.81 386.869 1151.38 360.446Z" fill="white"></path></g><path d="M1287.6 304.944C1287.6 304.944 1206.6 292.302 1122.23 386.426C1037.87 480.535 928.268 418.502 865.245 340.943C802.223 263.384 693.5 206.337 573.381 274.89C453.263 343.444 208.968 277.181 174.041 80.412" stroke="white" stroke-opacity="0.4" stroke-miterlimit="10"></path></svg>