<svg xmlns="http://www.w3.org/2000/svg" width="60" height="60" viewBox="0 0 60 60" fill="none"><circle cx="30" cy="30" r="30" fill="white"></circle><g clip-path="url(#clip0_829_4547)"><g filter="url(#filter0_d_829_4547)"><path d="M29.9999 27.2959C32.427 27.2959 34.3945 25.3284 34.3945 22.9014C34.3945 20.4744 32.427 18.5068 29.9999 18.5068C27.5729 18.5068 25.6054 20.4744 25.6054 22.9014C25.6054 25.3284 27.5729 27.2959 29.9999 27.2959ZM44.5141 20.2988C44.0816 20.0859 43.5529 20.2576 43.3348 20.6919L40.0035 27.2959H34.2366C33.8898 27.2959 33.5757 27.4993 33.4349 27.8152C33.3542 27.9954 33.234 28.1344 33.0624 28.2297C32.968 28.2864 32.6745 28.4606 31.9037 28.2288C31.5878 28.1336 31.2342 28.2271 31.0076 28.4726C30.7604 28.7378 30.3863 29.0537 30 29.0537C29.6138 29.0537 29.2395 28.7378 28.9924 28.4726C28.7658 28.2271 28.4139 28.1353 28.0963 28.2288C27.3221 28.4614 27.032 28.2881 26.9118 28.2151C26.7659 28.1344 26.6457 27.9954 26.5651 27.8152C26.4243 27.4993 26.1101 27.2959 25.7634 27.2959H19.9964L16.6651 20.6919C16.447 20.2576 15.9217 20.0842 15.4857 20.2988C15.0514 20.5159 14.8764 21.0438 15.0926 21.4781L18.5742 28.3825V44.1211C18.5742 44.6069 18.9673 45 19.4531 45H40.5468C41.0326 45 41.4257 44.6069 41.4257 44.1211V28.3825L44.9073 21.4781C45.1235 21.0438 44.9484 20.5159 44.5141 20.2988Z" fill="url(#paint0_linear_829_4547)"></path></g><path d="M33.9375 29.7568C34.6127 29.3951 35.0439 28.7108 35.2206 28.122C36.1348 27.8056 36.6094 27.2783 36.8379 26.874C37.1896 26.2763 37.2949 25.6083 37.1368 24.8173C37.6464 24.2197 37.9102 23.5693 37.9102 22.9014C37.9102 22.2334 37.6464 21.583 37.1368 20.9853C37.295 20.1943 37.1896 19.5264 36.8379 18.9463C36.6094 18.5244 36.1348 17.9971 35.2207 17.6807C34.9044 16.7667 34.377 16.292 33.9727 16.0635C33.3748 15.7119 32.7071 15.6064 31.9161 15.7646C30.7205 14.7451 29.2794 14.7451 28.0838 15.7646C27.2929 15.6064 26.6251 15.7119 26.0449 16.0458C25.623 16.2919 25.0956 16.7666 24.7794 17.6807C23.8652 17.9971 23.3906 18.5245 23.1621 18.9287C22.8104 19.5264 22.7051 20.1944 22.8632 20.9853C22.3536 21.583 22.0898 22.2334 22.0898 22.9014C22.0898 23.5693 22.3536 24.2197 22.8632 24.8173C22.705 25.6083 22.8104 26.2763 23.1621 26.8564C23.3906 27.2783 23.8652 27.8056 24.7793 28.122C24.9936 28.7644 25.4165 29.4104 26.0273 29.7393C26.6251 30.0908 27.2929 30.1962 28.0838 30.038C28.6816 30.5477 29.332 30.8115 30 30.8115C30.668 30.8115 31.3184 30.5477 31.9162 30.038C32.7071 30.1788 33.3749 30.0908 33.9375 29.7568ZM31.7578 19.3857C32.2501 19.3857 32.6367 19.7724 32.6367 20.2646C32.6367 20.7569 32.2501 21.1436 31.7578 21.1436C31.2656 21.1436 30.8789 20.7569 30.8789 20.2646C30.8789 19.7724 31.2656 19.3857 31.7578 19.3857ZM28.2422 26.417C27.7499 26.417 27.3633 26.0302 27.3633 25.5381C27.3633 25.0458 27.7499 24.6592 28.2422 24.6592C28.7344 24.6592 29.1211 25.0458 29.1211 25.5381C29.1211 26.0302 28.7344 26.417 28.2422 26.417ZM31.0196 26.0302L27.504 20.7569C27.2401 20.3525 27.3456 19.8076 27.7499 19.5264C28.1542 19.2627 28.6992 19.3682 28.9804 19.7725L32.496 25.0459C32.7599 25.4503 32.6544 25.9952 32.2501 26.2764C31.7665 26.5447 31.2833 26.3999 31.0196 26.0302ZM37.0312 36.2109H31.7578C31.272 36.2109 30.8789 36.604 30.8789 37.0898V40.6055C30.8789 41.0913 31.272 41.4844 31.7578 41.4844H37.0312C37.5171 41.4844 37.9102 41.0913 37.9102 40.6055V37.0898C37.9102 36.604 37.5171 36.2109 37.0312 36.2109Z" fill="url(#paint1_linear_829_4547)"></path></g><defs><filter id="filter0_d_829_4547" x="14.5" y="18.0068" width="32" height="28.4932" filterUnits="userSpaceOnUse" color-interpolation-filters="sRGB"><feGaussianBlur stdDeviation="0.5"></feGaussianBlur></filter><linearGradient id="paint0_linear_829_4547" x1="29.9999" y1="45" x2="40" y2="17.5" gradientUnits="userSpaceOnUse"><stop stop-color="#A93AFF"></stop><stop offset="1" stop-color="#FF3CFF"></stop></linearGradient><linearGradient id="paint1_linear_829_4547" x1="30" y1="41.4844" x2="30" y2="15" gradientUnits="userSpaceOnUse"><stop stop-color="#FFBEF9"></stop><stop offset="1" stop-color="#FFF1FF"></stop></linearGradient><clipPath id="clip0_829_4547"><rect width="30" height="30" fill="white" transform="translate(15 15)"></rect></clipPath></defs></svg>