<svg xmlns="http://www.w3.org/2000/svg" width="60" height="60" viewBox="0 0 60 60" fill="none"><circle cx="30" cy="30" r="30" fill="url(#paint0_linear_829_6030)"></circle><path d="M29.9199 39.22C28.8493 39.22 27.8739 39.0367 26.9939 38.67C26.1139 38.2887 25.3806 37.746 24.7939 37.042L26.7739 35.084C27.0673 35.524 27.4853 35.876 28.0279 36.14C28.5853 36.404 29.1939 36.536 29.8539 36.536C30.4553 36.536 30.9759 36.426 31.4159 36.206C31.8706 35.986 32.2226 35.678 32.4719 35.282C32.7359 34.8713 32.8679 34.3947 32.8679 33.852C32.8679 33.28 32.7359 32.796 32.4719 32.4C32.2226 32.004 31.8853 31.7033 31.4599 31.498C31.0346 31.2927 30.5579 31.19 30.0299 31.19C29.4726 31.19 28.9666 31.2633 28.5119 31.41C28.0719 31.542 27.6466 31.762 27.2359 32.07L27.4119 30.178C27.6906 29.8847 27.9839 29.65 28.2919 29.474C28.5999 29.2833 28.9446 29.144 29.3259 29.056C29.7219 28.9533 30.1839 28.902 30.7119 28.902C31.8413 28.902 32.7799 29.1367 33.5279 29.606C34.2906 30.0607 34.8699 30.6767 35.2659 31.454C35.6619 32.2167 35.8599 33.06 35.8599 33.984C35.8599 34.996 35.6106 35.898 35.1119 36.69C34.6133 37.482 33.9166 38.1053 33.0219 38.56C32.1419 39 31.1079 39.22 29.9199 39.22ZM27.2359 32.07L25.8059 30.662L26.5099 23.534H29.2159L28.4239 30.772L27.2359 32.07ZM26.9719 26.13L26.5099 23.534H35.0019V26.13H26.9719Z" fill="white"></path><defs><linearGradient id="paint0_linear_829_6030" x1="-32.5" y1="21.5" x2="30" y2="83" gradientUnits="userSpaceOnUse"><stop stop-color="#80F1A6"></stop><stop offset="1" stop-color="#EFD000"></stop></linearGradient></defs></svg>