<svg xmlns="http://www.w3.org/2000/svg" width="231" height="231" viewBox="0 0 231 231" fill="none"><path d="M0 0H10.6014L36.4194 28.4249L115.437 115.418L61.6387 219.887L56.0001 230.836H41.1697L51.8483 214.249L115.437 115.418L202.431 194.417L230.855 220.235V230.817H220.273L194.455 202.392L115.437 115.437L10.949 169.217L0 174.855V189.666L16.5876 179.007L115.418 115.437L10.949 61.6194L0 56.0001V41.1697L16.5876 51.8483L115.418 115.437L151.258 3.51449L152.378 0H140.464L140.348 0.579311L115.437 115.437L219.907 169.236L230.855 174.875V189.686L214.268 179.007L115.437 115.437L219.907 61.6387L230.855 56.0001V41.1697L214.268 51.8483L115.437 115.437L0.579311 90.4884L0 90.3725V78.4773L3.51449 79.5973L115.437 115.437L169.217 10.949L174.875 0H189.686L179.007 16.5876L115.437 115.437L230.276 140.367L230.855 140.483V152.397L227.341 151.277L115.437 115.437L28.4249 194.436L0 220.254V230.836H10.6014L36.4194 202.411L115.437 115.418L0 120.979V109.876L115.437 115.437L120.979 0H109.876L115.437 115.437L230.855 109.876V120.979L115.437 115.437L202.431 36.4194L230.855 10.6014V0H220.273L194.455 28.4249L115.437 115.437L3.51449 151.258L0 152.378V140.464L0.579311 140.348L115.418 115.418L151.239 227.322L152.359 230.836H140.444L140.328 230.257L115.437 115.437L51.8483 16.5876L41.1697 0H56.0001L61.6387 10.949L115.437 115.437L79.5973 227.341L78.4773 230.855H90.3725L90.4884 230.276L115.418 115.437L179.007 214.249L189.686 230.836H174.875L169.236 219.887L115.437 115.418L230.276 90.4884L230.855 90.3725V78.4773L227.341 79.5973L115.437 115.437L28.4249 36.4194L0 10.6014V0ZM78.458 0H90.3725L90.4884 0.579311L115.418 115.418L120.96 230.836H109.876L115.437 115.418L79.5973 3.51449L78.458 0Z" fill="url(#paint0_radial_2001_970)" fill-opacity="0.1"></path><defs><radialGradient id="paint0_radial_2001_970" cx="0" cy="0" r="1" gradientUnits="userSpaceOnUse" gradientTransform="translate(115.426 115.425) scale(112.685)"><stop stop-color="white"></stop><stop offset="0.17" stop-color="white" stop-opacity="0.99"></stop><stop offset="0.31" stop-color="white" stop-opacity="0.95"></stop><stop offset="0.43" stop-color="white" stop-opacity="0.88"></stop><stop offset="0.54" stop-color="white" stop-opacity="0.79"></stop><stop offset="0.64" stop-color="white" stop-opacity="0.67"></stop><stop offset="0.74" stop-color="white" stop-opacity="0.53"></stop><stop offset="0.84" stop-color="white" stop-opacity="0.35"></stop><stop offset="0.93" stop-color="white" stop-opacity="0.16"></stop><stop offset="1" stop-color="white" stop-opacity="0"></stop></radialGradient></defs></svg>