<svg xmlns="http://www.w3.org/2000/svg" width="60" height="60" viewBox="0 0 60 60" fill="none"><circle cx="30" cy="30" r="30" fill="url(#paint0_linear_829_6040)"></circle><path d="M29.9301 39.22C28.8888 39.22 27.9355 39.0367 27.0701 38.67C26.2048 38.2887 25.4788 37.746 24.8921 37.042L26.8721 35.084C27.1655 35.524 27.5835 35.876 28.1261 36.14C28.6688 36.404 29.2555 36.536 29.8861 36.536C30.4728 36.536 30.9788 36.4333 31.4041 36.228C31.8295 36.008 32.1595 35.7073 32.3941 35.326C32.6435 34.93 32.7681 34.4753 32.7681 33.962C32.7681 33.4193 32.6435 32.9573 32.3941 32.576C32.1595 32.1947 31.8148 31.9013 31.3601 31.696C30.9055 31.4907 30.3628 31.388 29.7321 31.388C29.4535 31.388 29.1675 31.41 28.8741 31.454C28.5808 31.4833 28.3315 31.5347 28.1261 31.608L29.4461 29.936C29.8128 29.8187 30.1721 29.7233 30.5241 29.65C30.8908 29.562 31.2281 29.518 31.5361 29.518C32.3281 29.518 33.0395 29.7087 33.6701 30.09C34.3155 30.4567 34.8215 30.9847 35.1881 31.674C35.5695 32.3487 35.7601 33.148 35.7601 34.072C35.7601 35.0987 35.5181 36.0007 35.0341 36.778C34.5501 37.5407 33.8681 38.142 32.9881 38.582C32.1228 39.0073 31.1035 39.22 29.9301 39.22ZM28.1261 31.608V29.892L32.0861 25.294L35.5181 25.25L31.4261 29.936L28.1261 31.608ZM25.7501 26.13V23.534H35.5181V25.25L33.0761 26.13H25.7501Z" fill="white"></path><defs><linearGradient id="paint0_linear_829_6040" x1="23.5988" y1="88.0435" x2="65.5" y2="22.5" gradientUnits="userSpaceOnUse"><stop stop-color="#9358F7"></stop><stop offset="0.259732" stop-color="#7B78F2"></stop><stop offset="0.500607" stop-color="#6197EE"></stop><stop offset="0.766547" stop-color="#45B5E9"></stop><stop offset="1" stop-color="#10D7E2"></stop></linearGradient></defs></svg>