<svg xmlns="http://www.w3.org/2000/svg" width="60" height="60" viewBox="0 0 60 60" fill="none"><circle cx="30" cy="30" r="30" fill="url(#paint0_linear_829_6035)"></circle><path d="M30.603 39C29.8403 39 29.129 38.868 28.469 38.604C27.8236 38.3253 27.259 37.944 26.775 37.46C26.3056 36.976 25.9316 36.404 25.653 35.744C25.389 35.084 25.257 34.358 25.257 33.566C25.257 33.038 25.3523 32.422 25.543 31.718C25.7483 31.014 26.0416 30.244 26.423 29.408C26.819 28.572 27.303 27.6773 27.875 26.724L29.877 23.336H32.187L32.275 23.556L29.855 27.626C29.415 28.374 29.019 29.0853 28.667 29.76C28.3296 30.4347 28.0436 31.0727 27.809 31.674C27.5743 32.2607 27.3983 32.796 27.281 33.28L26.753 31.014C27.1196 30.4127 27.5303 29.9067 27.985 29.496C28.4396 29.0853 28.931 28.7773 29.459 28.572C29.987 28.352 30.5516 28.242 31.153 28.242C32.0036 28.242 32.781 28.4767 33.485 28.946C34.2036 29.4007 34.7756 30.0093 35.201 30.772C35.641 31.5347 35.861 32.3707 35.861 33.28C35.861 34.38 35.6336 35.3627 35.179 36.228C34.739 37.0787 34.123 37.7533 33.331 38.252C32.539 38.7507 31.6296 39 30.603 39ZM30.603 36.8C31.175 36.8 31.681 36.668 32.121 36.404C32.5756 36.1253 32.9276 35.744 33.177 35.26C33.441 34.7613 33.573 34.1967 33.573 33.566C33.573 33.0233 33.441 32.5173 33.177 32.048C32.913 31.564 32.561 31.1753 32.121 30.882C31.681 30.5887 31.1896 30.442 30.647 30.442C30.0456 30.442 29.5103 30.5813 29.041 30.86C28.5716 31.1387 28.205 31.5127 27.941 31.982C27.677 32.4513 27.545 32.972 27.545 33.544C27.545 34.16 27.677 34.7173 27.941 35.216C28.205 35.7 28.5643 36.0887 29.019 36.382C29.4736 36.6607 30.0016 36.8 30.603 36.8Z" fill="white"></path><defs><linearGradient id="paint0_linear_829_6035" x1="44.5" y1="76.5" x2="49" y2="-8" gradientUnits="userSpaceOnUse"><stop stop-color="#F4426C"></stop><stop offset="1" stop-color="#FBF2B1"></stop></linearGradient></defs></svg>