<svg xmlns="http://www.w3.org/2000/svg" width="117" height="98" viewBox="0 0 117 98" fill="none"><path d="M116.286 21.3543V47.9907C116.286 57.001 110.568 64.6869 102.558 67.5965C100.331 68.401 97.9297 68.8465 95.4298 68.8465H46.5893C46.4284 69.3411 46.2675 69.8238 46.0947 70.2946C44.8194 73.8597 43.2358 77.027 41.4897 79.8368C40.7969 80.9631 40.0789 82.0283 39.3369 83.031C32.1203 92.9323 23.4824 97.3883 23.1099 97.5745C26.8478 91.3233 29.2852 85.3208 30.8197 79.8383C31.946 75.865 32.5896 72.1643 32.9486 68.848H20.8558C17.3905 68.848 14.1234 68.0062 11.251 66.509C4.56627 63.0303 0 56.0505 0 47.9921V21.3558C0 9.83216 9.34557 0.5 20.8558 0.5H95.4283C106.952 0.5 116.284 9.83216 116.284 21.3558L116.286 21.3543Z" fill="url(#paint0_linear_2782_3045)"></path><path d="M49.2416 53.62C48.5056 53.62 47.8656 53.48 47.3216 53.2C46.7856 52.92 46.3256 52.512 45.9416 51.976L46.9496 50.824C47.3416 51.376 47.7216 51.756 48.0896 51.964C48.4656 52.164 48.8896 52.264 49.3616 52.264C49.6336 52.264 49.8816 52.224 50.1056 52.144C50.3296 52.064 50.5056 51.952 50.6336 51.808C50.7616 51.656 50.8256 51.48 50.8256 51.28C50.8256 51.144 50.7976 51.02 50.7416 50.908C50.6936 50.788 50.6176 50.684 50.5136 50.596C50.4176 50.5 50.2936 50.412 50.1416 50.332C49.9976 50.252 49.8256 50.184 49.6256 50.128C49.4336 50.064 49.2216 50.012 48.9896 49.972C48.5416 49.884 48.1536 49.768 47.8256 49.624C47.5056 49.472 47.2336 49.288 47.0096 49.072C46.7936 48.848 46.6296 48.6 46.5176 48.328C46.4136 48.048 46.3616 47.732 46.3616 47.38C46.3616 46.908 46.4936 46.492 46.7576 46.132C47.0296 45.764 47.3896 45.476 47.8376 45.268C48.2936 45.06 48.7936 44.956 49.3376 44.956C50.0416 44.956 50.6376 45.084 51.1256 45.34C51.6216 45.596 52.0096 45.96 52.2896 46.432L51.2576 47.44C51.0176 47.072 50.7336 46.792 50.4056 46.6C50.0776 46.408 49.7216 46.312 49.3376 46.312C49.0496 46.312 48.7976 46.356 48.5816 46.444C48.3736 46.524 48.2096 46.64 48.0896 46.792C47.9696 46.936 47.9096 47.112 47.9096 47.32C47.9096 47.472 47.9416 47.612 48.0056 47.74C48.0776 47.868 48.1816 47.98 48.3176 48.076C48.4536 48.172 48.6256 48.256 48.8336 48.328C49.0416 48.4 49.2816 48.464 49.5536 48.52C49.9936 48.616 50.3856 48.736 50.7296 48.88C51.0816 49.024 51.3776 49.2 51.6176 49.408C51.8656 49.608 52.0536 49.84 52.1816 50.104C52.3096 50.36 52.3736 50.648 52.3736 50.968C52.3736 51.512 52.2456 51.984 51.9896 52.384C51.7336 52.784 51.3696 53.092 50.8976 53.308C50.4256 53.516 49.8736 53.62 49.2416 53.62ZM57.6228 53.572C56.9588 53.572 56.3668 53.432 55.8468 53.152C55.3268 52.864 54.9148 52.472 54.6108 51.976C54.3148 51.472 54.1668 50.904 54.1668 50.272V45.088H55.7268V50.164C55.7268 50.54 55.8108 50.876 55.9788 51.172C56.1548 51.468 56.3868 51.704 56.6748 51.88C56.9628 52.048 57.2788 52.132 57.6228 52.132C57.9908 52.132 58.3228 52.048 58.6188 51.88C58.9148 51.704 59.1508 51.468 59.3268 51.172C59.5028 50.876 59.5908 50.54 59.5908 50.164V45.088H61.0788V50.272C61.0788 50.904 60.9268 51.472 60.6228 51.976C60.3268 52.472 59.9188 52.864 59.3988 53.152C58.8788 53.432 58.2868 53.572 57.6228 53.572ZM65.8373 53.5L62.4773 45.1H64.1693L66.0413 49.912C66.1373 50.16 66.2213 50.384 66.2933 50.584C66.3653 50.776 66.4293 50.956 66.4853 51.124C66.5413 51.284 66.5933 51.44 66.6413 51.592C66.6893 51.744 66.7373 51.904 66.7853 52.072H66.4613C66.5173 51.856 66.5773 51.644 66.6413 51.436C66.7053 51.22 66.7773 50.992 66.8573 50.752C66.9453 50.504 67.0493 50.224 67.1693 49.912L68.9213 45.1H70.6253L67.2533 53.5H65.8373Z" fill="white"></path><path fill-rule="evenodd" clip-rule="evenodd" d="M67.9291 27.3618C68.701 27.3618 69.3261 27.9851 69.3261 28.7569C69.3261 29.5266 68.701 30.1521 67.9291 30.1521C67.1595 30.1521 66.5344 29.5269 66.5344 28.7569C66.5344 27.9851 67.1595 27.3618 67.9291 27.3618ZM48.3827 27.3618C49.1545 27.3618 49.7797 27.9851 49.7797 28.7569C49.7797 29.5266 49.1545 30.1521 48.3827 30.1521C47.6131 30.1521 46.988 29.5269 46.988 28.7569C46.988 27.9851 47.6127 27.3618 48.3827 27.3618ZM52.8247 23.4505H63.4897C63.7821 23.4505 63.847 23.8493 63.7135 24.2351C63.4284 25.0485 62.6986 25.5941 61.9559 25.5941H54.3585C53.6151 25.5941 52.8852 25.0485 52.6002 24.2351C52.4652 23.8493 52.5316 23.4505 52.8247 23.4505ZM67.8631 22.4429C67.9328 22.4389 68.0014 22.4411 68.0696 22.4462C68.5623 22.483 68.9692 22.7243 69.1345 23.2676C69.4173 24.1949 68.701 25.2748 67.7375 25.2748H66.3191C65.3082 25.2748 65.0495 24.5887 65.2115 24.1022C65.4695 23.3228 66.8037 22.4772 67.8631 22.4429ZM48.451 22.4429C49.5078 22.4772 50.8438 23.3228 51.1025 24.1022C51.2642 24.5887 51.0055 25.2748 49.9943 25.2748H48.5765C47.6127 25.2748 46.8945 24.1949 47.1795 23.2676C47.3449 22.7239 47.7518 22.4827 48.2437 22.4462C48.3108 22.4411 48.3805 22.4393 48.451 22.4429ZM58.1559 14.1068C59.7868 14.1086 61.5487 14.1696 63.0391 14.2794C63.6036 14.3214 64.1203 14.648 64.4681 15.2545L66.2986 19.1377C66.2986 19.1377 61.6264 19.6395 58.1559 19.6395C54.6869 19.6395 50.0132 19.1377 50.0132 19.1377L51.8437 15.2545C52.1915 14.648 52.7104 14.3214 53.275 14.2794C54.7654 14.1692 56.5272 14.1083 58.1559 14.1068ZM58.1559 12.8405C55.9798 12.8405 55.0161 12.8314 52.8892 13.1273C51.9043 13.2642 51.1938 13.7984 50.8117 14.5152L48.9641 17.9973H46.5829C46.0526 17.9973 45.7348 18.5257 45.8738 19.037C46.0256 19.6034 46.1968 19.8829 47.0292 20.0741L47.7988 20.2533C47.4967 20.6595 47.166 21.1102 46.8237 21.5587C46.1964 22.382 45.4688 23.6935 45.4688 24.9518V29.0321C45.4688 29.8725 45.6932 30.5794 46.3698 30.8436V33.193C46.3698 33.6514 46.7383 34.0181 47.1967 34.0181H49.5403C49.9986 34.0181 50.369 33.6514 50.369 33.193V31.8231C50.369 31.2636 50.4318 30.6692 50.6577 30.0838C51.2985 28.4186 52.1324 27.2155 53.5921 27.2155H62.7212C64.1809 27.2155 65.0133 28.419 65.6563 30.0838C65.88 30.6692 65.945 31.2636 65.945 31.8231V33.193C65.945 33.6514 66.3136 34.0181 66.7719 34.0181H69.1177C69.5753 34.0181 69.9446 33.6514 69.9446 33.193V30.8436C70.619 30.5794 70.8457 29.8722 70.8457 29.0321V24.9518C70.8457 23.6935 70.1158 22.382 69.4899 21.5587C69.1476 21.1102 68.817 20.6595 68.5148 20.2533L69.2845 20.0741C70.1169 19.8829 70.288 19.6034 70.4406 19.037C70.5774 18.5257 70.2618 17.9973 69.7315 17.9973H67.3504L65.5009 14.5152C65.121 13.7988 64.4097 13.2642 63.4252 13.1273C61.2976 12.8314 60.3342 12.8405 58.1559 12.8405Z" fill="white"></path><path fill-rule="evenodd" clip-rule="evenodd" d="M53.5913 28.4149C52.622 28.4149 52.1713 29.1371 51.6225 30.5687C51.4641 30.9829 51.5028 31.7245 51.8918 31.9277H64.4191C64.807 31.7245 64.8454 30.9829 64.687 30.5687C64.1396 29.1371 63.6893 28.4149 62.7182 28.4149H53.5913Z" fill="white"></path><defs><linearGradient id="paint0_linear_2782_3045" x1="52.5" y1="107" x2="60.5" y2="9" gradientUnits="userSpaceOnUse"><stop stop-color="#FD3A84"></stop><stop offset="1" stop-color="#6ABCFF"></stop></linearGradient></defs></svg>