<svg xmlns="http://www.w3.org/2000/svg" width="33" height="33" viewBox="0 0 33 33" fill="none"><g clip-path="url(#clip0_2794_3138)"><path d="M32.7028 12.1133C32.5427 11.9181 32.3039 11.8041 32.0533 11.8041H28.8683C28.0823 9.73103 27.0583 7.69984 25.8944 6.93311C21.868 4.28434 11.1883 4.28434 7.16195 6.93311C5.9972 7.70068 4.97741 9.73439 4.18722 11.8041H1.00216C0.749097 11.8041 0.511119 11.9181 0.352746 12.1133C0.193535 12.3077 0.12985 12.565 0.181803 12.8122L0.653571 15.0981C0.734014 15.4878 1.07757 15.766 1.47393 15.766H2.41746C1.50661 16.8168 1.06501 18.1399 1.05914 19.4639C1.05327 21.0995 1.6742 22.5777 2.80962 23.6235C2.82219 23.6343 2.83476 23.6419 2.84649 23.6528V26.8512C2.84649 27.5442 3.4096 28.1082 4.10342 28.1082H7.04129C7.73511 28.1082 8.29821 27.5442 8.29821 26.8512V25.5658H24.7564V26.8512C24.7564 27.5442 25.3196 28.1082 26.0134 28.1082H28.9512C29.6434 28.1082 30.2082 27.5442 30.2082 26.8512V23.7156C31.4131 22.612 31.9888 21.0937 31.9964 19.5778C32.0014 18.2086 31.5397 16.8369 30.5752 15.7643H31.5816C31.9796 15.7643 32.3232 15.4861 32.4019 15.0956L32.8745 12.8105C32.9231 12.565 32.862 12.3094 32.7028 12.1133ZM8.54206 9.03218C11.7514 6.9197 21.3032 6.9197 24.5109 9.03218C25.1344 9.4411 25.9363 11.0944 26.6712 13.1189H6.38349C7.1167 11.0952 7.91862 9.44278 8.54206 9.03218ZM4.783 19.7789C4.783 18.4131 5.89078 17.307 7.2558 17.307C8.6225 17.307 9.7286 18.4131 9.7286 19.7789C9.7286 21.1448 8.6225 22.2517 7.2558 22.2517C5.89078 22.2517 4.783 21.1448 4.783 19.7789ZM25.8315 22.2517C24.4665 22.2517 23.3587 21.1448 23.3587 19.7789C23.3587 18.4131 24.4665 17.307 25.8315 17.307C27.1982 17.307 28.3043 18.4131 28.3043 19.7789C28.3043 21.1448 27.1966 22.2517 25.8315 22.2517Z" fill="white"></path></g><defs><clipPath id="clip0_2794_3138"><rect width="32.7262" height="32.7254" fill="white" transform="translate(0.164062 0.164307)"></rect></clipPath></defs></svg>