<svg xmlns="http://www.w3.org/2000/svg" width="117" height="100" viewBox="0 0 117 100" fill="none"><path d="M0 23.3678V50.0041C0 58.7418 5.38417 66.2311 13.0209 69.3254C15.4463 70.3161 18.0952 70.8599 20.8678 70.8599H69.2746C70.3518 74.288 71.5645 77.3078 72.8636 79.9701C81.7265 98.2635 94.4614 99.8605 94.4614 99.8605C90.0679 95.6027 87.1956 89.4632 85.3393 83.349C83.9776 78.9302 83.1358 74.5233 82.6293 70.8599H95.4268C95.7858 70.8599 96.1449 70.848 96.4905 70.8227C96.6886 70.8227 96.8868 70.7973 97.0849 70.7854C97.1713 70.7854 97.2711 70.7854 97.3576 70.7601C102.63 70.2893 107.333 67.8386 110.712 64.1751C114.178 60.4506 116.295 55.4746 116.295 50.0041V23.3678C116.295 11.8441 106.95 2.5 95.4268 2.5H20.8692C9.34557 2.5 0.00148672 11.8441 0.00148672 23.3678H0Z" fill="url(#paint0_linear_2782_3059)"></path><path d="M28.276 56.5V48.1H29.824V55.06H33.7V56.5H28.276ZM35.5605 56.5V50.176H37.0245V56.5H35.5605ZM36.2805 48.832C35.9845 48.832 35.7525 48.76 35.5845 48.616C35.4245 48.464 35.3445 48.252 35.3445 47.98C35.3445 47.724 35.4285 47.52 35.5965 47.368C35.7645 47.208 35.9925 47.128 36.2805 47.128C36.5765 47.128 36.8045 47.204 36.9645 47.356C37.1325 47.5 37.2165 47.708 37.2165 47.98C37.2165 48.228 37.1325 48.432 36.9645 48.592C36.7965 48.752 36.5685 48.832 36.2805 48.832ZM39.0224 56.5V50.176H40.4624L40.4864 51.46L40.2464 51.556C40.3184 51.348 40.4264 51.156 40.5704 50.98C40.7144 50.796 40.8864 50.636 41.0864 50.5C41.2864 50.364 41.4984 50.26 41.7224 50.188C41.9464 50.108 42.1784 50.068 42.4184 50.068C42.7624 50.068 43.0664 50.124 43.3304 50.236C43.5944 50.348 43.8144 50.52 43.9904 50.752C44.1744 50.984 44.3144 51.28 44.4104 51.64L44.1824 51.592L44.2664 51.4C44.3624 51.208 44.4904 51.032 44.6504 50.872C44.8104 50.712 44.9904 50.572 45.1904 50.452C45.3904 50.324 45.5984 50.228 45.8144 50.164C46.0384 50.1 46.2544 50.068 46.4624 50.068C46.9424 50.068 47.3424 50.164 47.6624 50.356C47.9824 50.548 48.2224 50.84 48.3824 51.232C48.5424 51.624 48.6224 52.108 48.6224 52.684V56.5H47.1464V52.78C47.1464 52.3 47.0504 51.944 46.8584 51.712C46.6744 51.48 46.3864 51.364 45.9944 51.364C45.7864 51.364 45.5944 51.4 45.4184 51.472C45.2424 51.536 45.0864 51.632 44.9504 51.76C44.8224 51.88 44.7224 52.024 44.6504 52.192C44.5784 52.352 44.5424 52.532 44.5424 52.732V56.5H43.0664V52.768C43.0664 52.312 42.9664 51.964 42.7664 51.724C42.5744 51.484 42.2984 51.364 41.9384 51.364C41.7304 51.364 41.5384 51.4 41.3624 51.472C41.1944 51.536 41.0424 51.632 40.9064 51.76C40.7784 51.88 40.6784 52.02 40.6064 52.18C40.5344 52.34 40.4984 52.516 40.4984 52.708V56.5H39.0224ZM53.2913 56.62C52.6593 56.62 52.0953 56.48 51.5993 56.2C51.1033 55.912 50.7113 55.52 50.4233 55.024C50.1433 54.528 50.0033 53.964 50.0033 53.332C50.0033 52.7 50.1433 52.136 50.4233 51.64C50.7113 51.144 51.1033 50.756 51.5993 50.476C52.0953 50.188 52.6593 50.044 53.2913 50.044C53.9153 50.044 54.4753 50.188 54.9713 50.476C55.4673 50.756 55.8553 51.144 56.1353 51.64C56.4233 52.136 56.5673 52.7 56.5673 53.332C56.5673 53.964 56.4233 54.528 56.1353 55.024C55.8553 55.52 55.4673 55.912 54.9713 56.2C54.4753 56.48 53.9153 56.62 53.2913 56.62ZM53.2913 55.312C53.6353 55.312 53.9433 55.228 54.2153 55.06C54.4873 54.884 54.6993 54.648 54.8513 54.352C55.0113 54.048 55.0873 53.708 55.0793 53.332C55.0873 52.948 55.0113 52.608 54.8513 52.312C54.6993 52.008 54.4873 51.772 54.2153 51.604C53.9433 51.436 53.6353 51.352 53.2913 51.352C52.9473 51.352 52.6353 51.44 52.3553 51.616C52.0833 51.784 51.8713 52.02 51.7193 52.324C51.5673 52.62 51.4913 52.956 51.4913 53.332C51.4913 53.708 51.5673 54.048 51.7193 54.352C51.8713 54.648 52.0833 54.884 52.3553 55.06C52.6353 55.228 52.9473 55.312 53.2913 55.312ZM60.2338 56.62C59.7778 56.62 59.3818 56.516 59.0458 56.308C58.7178 56.1 58.4618 55.808 58.2778 55.432C58.1018 55.056 58.0138 54.604 58.0138 54.076V50.176H59.4778V53.764C59.4778 54.26 59.5938 54.652 59.8258 54.94C60.0658 55.228 60.3978 55.372 60.8218 55.372C61.0298 55.372 61.2178 55.34 61.3858 55.276C61.5618 55.204 61.7138 55.108 61.8418 54.988C61.9698 54.86 62.0698 54.708 62.1418 54.532C62.2138 54.356 62.2498 54.168 62.2498 53.968V50.176H63.7138V56.5H62.2858L62.2618 55.18L62.5258 55.036C62.4298 55.332 62.2658 55.6 62.0338 55.84C61.8098 56.08 61.5418 56.272 61.2298 56.416C60.9178 56.552 60.5858 56.62 60.2338 56.62ZM67.7178 56.62C67.1658 56.62 66.6658 56.528 66.2178 56.344C65.7778 56.152 65.4178 55.88 65.1378 55.528L66.0858 54.712C66.3258 54.976 66.5938 55.172 66.8898 55.3C67.1858 55.42 67.4978 55.48 67.8258 55.48C67.9618 55.48 68.0818 55.464 68.1858 55.432C68.2978 55.4 68.3938 55.352 68.4738 55.288C68.5538 55.224 68.6138 55.148 68.6538 55.06C68.7018 54.972 68.7258 54.876 68.7258 54.772C68.7258 54.58 68.6538 54.428 68.5098 54.316C68.4298 54.268 68.3058 54.212 68.1378 54.148C67.9698 54.076 67.7498 54.008 67.4778 53.944C67.0458 53.832 66.6818 53.704 66.3858 53.56C66.0978 53.408 65.8738 53.24 65.7138 53.056C65.5778 52.896 65.4778 52.724 65.4138 52.54C65.3498 52.348 65.3178 52.136 65.3178 51.904C65.3178 51.544 65.4218 51.224 65.6298 50.944C65.8458 50.664 66.1298 50.444 66.4818 50.284C66.8338 50.124 67.2258 50.044 67.6578 50.044C67.9778 50.044 68.2858 50.084 68.5818 50.164C68.8858 50.244 69.1658 50.36 69.4218 50.512C69.6778 50.656 69.8978 50.832 70.0818 51.04L69.2658 51.94C69.1218 51.796 68.9578 51.668 68.7738 51.556C68.5978 51.436 68.4178 51.344 68.2338 51.28C68.0498 51.216 67.8778 51.184 67.7178 51.184C67.5658 51.184 67.4298 51.2 67.3098 51.232C67.1898 51.256 67.0898 51.296 67.0098 51.352C66.9298 51.408 66.8658 51.48 66.8178 51.568C66.7778 51.648 66.7578 51.74 66.7578 51.844C66.7658 51.948 66.7898 52.044 66.8298 52.132C66.8778 52.212 66.9418 52.28 67.0218 52.336C67.1018 52.392 67.2298 52.456 67.4058 52.528C67.5818 52.6 67.8098 52.668 68.0898 52.732C68.4818 52.836 68.8098 52.952 69.0738 53.08C69.3378 53.208 69.5458 53.356 69.6978 53.524C69.8498 53.668 69.9578 53.836 70.0218 54.028C70.0858 54.22 70.1178 54.436 70.1178 54.676C70.1178 55.052 70.0098 55.388 69.7938 55.684C69.5858 55.972 69.3018 56.2 68.9418 56.368C68.5818 56.536 68.1738 56.62 67.7178 56.62ZM71.7363 56.5V50.176H73.2003V56.5H71.7363ZM72.4563 48.832C72.1603 48.832 71.9283 48.76 71.7603 48.616C71.6003 48.464 71.5203 48.252 71.5203 47.98C71.5203 47.724 71.6043 47.52 71.7723 47.368C71.9403 47.208 72.1683 47.128 72.4563 47.128C72.7523 47.128 72.9803 47.204 73.1403 47.356C73.3083 47.5 73.3923 47.708 73.3923 47.98C73.3923 48.228 73.3083 48.432 73.1403 48.592C72.9723 48.752 72.7443 48.832 72.4563 48.832ZM75.2222 56.5V50.176H76.6502L76.6742 51.472L76.3982 51.616C76.4862 51.336 76.6422 51.08 76.8662 50.848C77.0982 50.608 77.3742 50.416 77.6942 50.272C78.0142 50.12 78.3462 50.044 78.6902 50.044C79.1702 50.044 79.5702 50.14 79.8902 50.332C80.2182 50.524 80.4622 50.812 80.6222 51.196C80.7822 51.58 80.8622 52.06 80.8622 52.636V56.5H79.3982V52.744C79.3982 52.416 79.3542 52.148 79.2662 51.94C79.1782 51.724 79.0422 51.568 78.8582 51.472C78.6742 51.368 78.4502 51.324 78.1862 51.34C77.9702 51.34 77.7702 51.376 77.5862 51.448C77.4022 51.512 77.2422 51.608 77.1062 51.736C76.9782 51.856 76.8742 52 76.7942 52.168C76.7222 52.328 76.6862 52.504 76.6862 52.696V56.5H75.9542C75.8182 56.5 75.6862 56.5 75.5582 56.5C75.4382 56.5 75.3262 56.5 75.2222 56.5ZM85.6487 56.62C84.9847 56.62 84.3967 56.484 83.8847 56.212C83.3807 55.932 82.9847 55.552 82.6967 55.072C82.4167 54.584 82.2767 54.024 82.2767 53.392C82.2767 52.896 82.3567 52.444 82.5167 52.036C82.6767 51.628 82.9007 51.276 83.1887 50.98C83.4767 50.676 83.8167 50.444 84.2087 50.284C84.6087 50.116 85.0407 50.032 85.5047 50.032C85.9287 50.032 86.3167 50.112 86.6687 50.272C87.0287 50.432 87.3407 50.652 87.6047 50.932C87.8687 51.204 88.0687 51.532 88.2047 51.916C88.3487 52.292 88.4167 52.704 88.4087 53.152L88.3967 53.68H83.2847L82.9967 52.66H87.1607L86.9807 52.864V52.588C86.9567 52.348 86.8767 52.136 86.7407 51.952C86.6047 51.76 86.4287 51.612 86.2127 51.508C86.0047 51.396 85.7727 51.34 85.5167 51.34C85.1247 51.34 84.7927 51.416 84.5207 51.568C84.2487 51.712 84.0407 51.928 83.8967 52.216C83.7607 52.504 83.6927 52.86 83.6927 53.284C83.6927 53.692 83.7767 54.048 83.9447 54.352C84.1207 54.656 84.3687 54.892 84.6887 55.06C85.0087 55.228 85.3807 55.312 85.8047 55.312C86.1007 55.312 86.3727 55.264 86.6207 55.168C86.8767 55.072 87.1487 54.9 87.4367 54.652L88.1567 55.66C87.9407 55.86 87.6927 56.032 87.4127 56.176C87.1407 56.312 86.8527 56.42 86.5487 56.5C86.2447 56.58 85.9447 56.62 85.6487 56.62Z" fill="white"></path><path d="M44.4972 28.1337C43.8295 28.1337 43.1767 28.3317 42.6215 28.7026C42.0663 29.0736 41.6336 29.6009 41.3781 30.2178C41.1226 30.8347 41.0557 31.5135 41.186 32.1684C41.3162 32.8233 41.6378 33.4249 42.1099 33.897C42.5821 34.3692 43.1837 34.6907 43.8385 34.821C44.4934 34.9513 45.1723 34.8844 45.7892 34.6289C46.4061 34.3733 46.9333 33.9406 47.3043 33.3854C47.6753 32.8302 47.8733 32.1775 47.8733 31.5098C47.8723 30.6147 47.5163 29.7565 46.8834 29.1236C46.2504 28.4907 45.3923 28.1347 44.4972 28.1337ZM44.4972 32.6351C44.2746 32.6351 44.057 32.5691 43.872 32.4455C43.6869 32.3218 43.5427 32.1461 43.4575 31.9404C43.3723 31.7348 43.35 31.5085 43.3935 31.2902C43.4369 31.0719 43.5441 30.8714 43.7014 30.714C43.8588 30.5566 44.0593 30.4494 44.2776 30.406C44.4959 30.3626 44.7222 30.3849 44.9279 30.4701C45.1335 30.5552 45.3092 30.6995 45.4329 30.8845C45.5566 31.0696 45.6226 31.2872 45.6226 31.5098C45.6222 31.8081 45.5036 32.0942 45.2926 32.3052C45.0816 32.5161 44.7956 32.6348 44.4972 32.6351Z" fill="white"></path><path d="M73.7589 28.1337C73.0912 28.1337 72.4384 28.3317 71.8833 28.7026C71.3281 29.0736 70.8953 29.6009 70.6398 30.2178C70.3843 30.8347 70.3174 31.5135 70.4477 32.1684C70.578 32.8233 70.8995 33.4249 71.3717 33.897C71.8438 34.3692 72.4454 34.6907 73.1003 34.821C73.7552 34.9513 74.434 34.8844 75.0509 34.6289C75.6678 34.3733 76.1951 33.9406 76.566 33.3854C76.937 32.8302 77.135 32.1775 77.135 31.5098C77.134 30.6147 76.778 29.7565 76.1451 29.1236C75.5122 28.4907 74.654 28.1347 73.7589 28.1337ZM73.7589 32.6351C73.5363 32.6351 73.3188 32.5691 73.1337 32.4455C72.9486 32.3218 72.8044 32.1461 72.7192 31.9404C72.634 31.7348 72.6117 31.5085 72.6552 31.2902C72.6986 31.0719 72.8058 30.8714 72.9632 30.714C73.1205 30.5566 73.3211 30.4494 73.5394 30.406C73.7577 30.3626 73.9839 30.3849 74.1896 30.4701C74.3952 30.5552 74.571 30.6995 74.6946 30.8845C74.8183 31.0696 74.8843 31.2872 74.8843 31.5098C74.884 31.8081 74.7653 32.0942 74.5543 32.3052C74.3433 32.5161 74.0573 32.6348 73.7589 32.6351Z" fill="white"></path><path d="M77.8831 24.3826H70.4769L65.781 19.6122C65.3971 19.2222 64.9394 18.9125 64.4346 18.701C63.9298 18.4896 63.388 18.3807 62.8407 18.3806H46.2844C45.5098 18.3834 44.7515 18.6028 44.0952 19.0141C43.4389 19.4255 42.9108 20.0122 42.5707 20.7081L40.791 24.3826H38.6789C37.9467 24.3817 37.2352 24.626 36.658 25.0767C36.0808 25.5273 35.6711 26.1583 35.4943 26.8689L34.7644 29.7897C34.3678 31.1746 35.4858 32.675 36.9357 32.6353H40.1383C39.9668 31.9702 39.9499 31.2746 40.0887 30.602C40.2275 29.9293 40.5184 29.2973 40.9392 28.7544C41.3599 28.2115 41.8992 27.7721 42.516 27.4698C43.1327 27.1675 43.8104 27.0103 44.4973 27.0103C45.1841 27.0103 45.8618 27.1675 46.4786 27.4698C47.0953 27.7721 47.6347 28.2115 48.0554 28.7544C48.4761 29.2973 48.767 29.9293 48.9058 30.602C49.0447 31.2746 49.0277 31.9702 48.8563 32.6353H69.3978C69.2264 31.9702 69.2094 31.2746 69.3482 30.602C69.4871 29.9293 69.778 29.2973 70.1987 28.7544C70.6194 28.2115 71.1588 27.7721 71.7755 27.4698C72.3922 27.1675 73.07 27.0103 73.7568 27.0103C74.4436 27.0103 75.1214 27.1675 75.7381 27.4698C76.3548 27.7721 76.8942 28.2115 77.3149 28.7544C77.7356 29.2973 78.0266 29.9293 78.1654 30.602C78.3042 31.2746 78.2872 31.9702 78.1158 32.6353H80.509C80.8075 32.6353 81.0937 32.5167 81.3048 32.3056C81.5158 32.0946 81.6344 31.8084 81.6344 31.5099V28.1338C81.6344 27.1389 81.2392 26.1848 80.5357 25.4813C79.8322 24.7778 78.878 24.3826 77.8831 24.3826ZM58.0017 23.2572C58.0017 23.5557 57.8831 23.8419 57.6721 24.053C57.461 24.264 57.1748 24.3826 56.8763 24.3826H43.5643C43.469 24.3826 43.3753 24.3584 43.2919 24.3122C43.2085 24.2661 43.1382 24.1995 43.0876 24.1187C43.037 24.038 43.0077 23.9457 43.0025 23.8505C42.9973 23.7554 43.0164 23.6604 43.0579 23.5746L44.4459 20.7081C44.5836 20.4242 44.7538 20.1573 44.9531 19.9128C45.0585 19.7849 45.1909 19.682 45.3409 19.6117C45.491 19.5413 45.6547 19.5052 45.8204 19.506H56.8763C57.1748 19.506 57.461 19.6245 57.6721 19.8356C57.8831 20.0466 58.0017 20.3329 58.0017 20.6313V23.2572ZM62.5031 28.5089H61.0027C60.7042 28.5089 60.4179 28.3903 60.2069 28.1793C59.9958 27.9683 59.8773 27.682 59.8773 27.3835C59.8773 27.0851 59.9958 26.7988 60.2069 26.5878C60.4179 26.3767 60.7042 26.2582 61.0027 26.2582H62.5031C62.8016 26.2582 63.0878 26.3767 63.2989 26.5878C63.5099 26.7988 63.6285 27.0851 63.6285 27.3835C63.6285 27.682 63.5099 27.9683 63.2989 28.1793C63.0878 28.3903 62.8016 28.5089 62.5031 28.5089ZM67.2572 24.3826H61.0027C60.7042 24.3826 60.4179 24.264 60.2069 24.053C59.9958 23.8419 59.8773 23.5557 59.8773 23.2572V20.6313C59.8773 20.3329 59.9958 20.0466 60.2069 19.8356C60.4179 19.6245 60.7042 19.506 61.0027 19.506H63.3254C63.4745 19.506 63.622 19.5356 63.7596 19.5931C63.8971 19.6506 64.0218 19.7349 64.1265 19.841C64.8456 20.57 66.5722 22.3226 67.6582 23.4251C67.736 23.5041 67.7887 23.6044 67.8097 23.7133C67.8308 23.8222 67.8191 23.9349 67.7763 24.0372C67.7334 24.1395 67.6613 24.2269 67.569 24.2883C67.4766 24.3498 67.3682 24.3826 67.2572 24.3826Z" fill="white"></path><defs><linearGradient id="paint0_linear_2782_3059" x1="-27" y1="-71.5" x2="84.5" y2="69" gradientUnits="userSpaceOnUse"><stop stop-color="#0005FF"></stop><stop offset="0.846565" stop-color="#00C0FF"></stop></linearGradient></defs></svg>