<svg xmlns="http://www.w3.org/2000/svg" width="140" height="71" viewBox="0 0 140 71" fill="none"><path d="M139.357 0.5C139.357 0.5 135.903 23.9258 116.293 33.6632V49.7188C116.293 55.1998 114.176 60.1698 110.711 63.8944C108.662 66.1246 106.115 67.902 103.25 69.058C101.404 69.8164 99.4344 70.3035 97.362 70.4853C97.2831 70.5076 97.1698 70.5076 97.0909 70.5076C96.8987 70.5181 96.6946 70.5419 96.4905 70.5419C96.1508 70.5643 95.7888 70.5762 95.4372 70.5762H20.8678C18.8297 70.5762 16.8602 70.2812 14.9905 69.7374C14.323 69.5333 13.666 69.3069 13.0209 69.0476C5.39013 65.9548 0 58.4596 0 49.7188V23.0885C0 11.5618 9.35302 2.20881 20.8678 2.20881H95.4372C105.322 2.20881 113.588 9.10513 115.739 18.3434C121.887 16.6793 131.511 12.2516 139.357 0.5Z" fill="url(#paint0_linear_2782_3078)"></path><path d="M30.68 53.62C30.08 53.62 29.528 53.516 29.024 53.308C28.52 53.1 28.084 52.804 27.716 52.42C27.348 52.028 27.06 51.568 26.852 51.04C26.652 50.504 26.552 49.92 26.552 49.288C26.552 48.68 26.66 48.116 26.876 47.596C27.092 47.076 27.392 46.62 27.776 46.228C28.16 45.836 28.608 45.532 29.12 45.316C29.632 45.1 30.184 44.992 30.776 44.992C31.184 44.992 31.58 45.052 31.964 45.172C32.348 45.292 32.7 45.46 33.02 45.676C33.348 45.884 33.616 46.132 33.824 46.42L32.828 47.488C32.516 47.168 32.188 46.924 31.844 46.756C31.508 46.588 31.152 46.504 30.776 46.504C30.408 46.504 30.06 46.572 29.732 46.708C29.412 46.844 29.132 47.036 28.892 47.284C28.66 47.532 28.476 47.828 28.34 48.172C28.204 48.508 28.136 48.884 28.136 49.3C28.136 49.724 28.2 50.112 28.328 50.464C28.464 50.808 28.652 51.104 28.892 51.352C29.14 51.6 29.432 51.788 29.768 51.916C30.112 52.044 30.492 52.108 30.908 52.108C31.164 52.108 31.416 52.076 31.664 52.012C31.912 51.94 32.144 51.836 32.36 51.7C32.576 51.564 32.768 51.408 32.936 51.232L33.704 52.468C33.512 52.684 33.256 52.88 32.936 53.056C32.616 53.232 32.26 53.372 31.868 53.476C31.476 53.572 31.08 53.62 30.68 53.62ZM35.2171 53.5V47.176H36.6571L36.6811 49.192L36.4891 48.736C36.5771 48.416 36.7291 48.128 36.9451 47.872C37.1611 47.616 37.4091 47.416 37.6891 47.272C37.9771 47.12 38.2731 47.044 38.5771 47.044C38.7131 47.044 38.8411 47.056 38.9611 47.08C39.0891 47.104 39.1931 47.132 39.2731 47.164L38.8891 48.772C38.7931 48.724 38.6811 48.688 38.5531 48.664C38.4331 48.632 38.3091 48.616 38.1811 48.616C37.9731 48.616 37.7771 48.656 37.5931 48.736C37.4171 48.808 37.2611 48.912 37.1251 49.048C36.9971 49.184 36.8931 49.344 36.8131 49.528C36.7331 49.704 36.6931 49.9 36.6931 50.116V53.5H35.2171ZM43.0284 53.62C42.3964 53.62 41.8324 53.48 41.3364 53.2C40.8404 52.912 40.4484 52.52 40.1604 52.024C39.8804 51.528 39.7404 50.964 39.7404 50.332C39.7404 49.7 39.8804 49.136 40.1604 48.64C40.4484 48.144 40.8404 47.756 41.3364 47.476C41.8324 47.188 42.3964 47.044 43.0284 47.044C43.6524 47.044 44.2124 47.188 44.7084 47.476C45.2044 47.756 45.5924 48.144 45.8724 48.64C46.1604 49.136 46.3044 49.7 46.3044 50.332C46.3044 50.964 46.1604 51.528 45.8724 52.024C45.5924 52.52 45.2044 52.912 44.7084 53.2C44.2124 53.48 43.6524 53.62 43.0284 53.62ZM43.0284 52.312C43.3724 52.312 43.6804 52.228 43.9524 52.06C44.2244 51.884 44.4364 51.648 44.5884 51.352C44.7484 51.048 44.8244 50.708 44.8164 50.332C44.8244 49.948 44.7484 49.608 44.5884 49.312C44.4364 49.008 44.2244 48.772 43.9524 48.604C43.6804 48.436 43.3724 48.352 43.0284 48.352C42.6844 48.352 42.3724 48.44 42.0924 48.616C41.8204 48.784 41.6084 49.02 41.4564 49.324C41.3044 49.62 41.2284 49.956 41.2284 50.332C41.2284 50.708 41.3044 51.048 41.4564 51.352C41.6084 51.648 41.8204 51.884 42.0924 52.06C42.3724 52.228 42.6844 52.312 43.0284 52.312ZM49.8869 53.62C49.3349 53.62 48.8349 53.528 48.3869 53.344C47.9469 53.152 47.5869 52.88 47.3069 52.528L48.2549 51.712C48.4949 51.976 48.7629 52.172 49.0589 52.3C49.3549 52.42 49.6669 52.48 49.9949 52.48C50.1309 52.48 50.2509 52.464 50.3549 52.432C50.4669 52.4 50.5629 52.352 50.6429 52.288C50.7229 52.224 50.7829 52.148 50.8229 52.06C50.8709 51.972 50.8949 51.876 50.8949 51.772C50.8949 51.58 50.8229 51.428 50.6789 51.316C50.5989 51.268 50.4749 51.212 50.3069 51.148C50.1389 51.076 49.9189 51.008 49.6469 50.944C49.2149 50.832 48.8509 50.704 48.5549 50.56C48.2669 50.408 48.0429 50.24 47.8829 50.056C47.7469 49.896 47.6469 49.724 47.5829 49.54C47.5189 49.348 47.4869 49.136 47.4869 48.904C47.4869 48.544 47.5909 48.224 47.7989 47.944C48.0149 47.664 48.2989 47.444 48.6509 47.284C49.0029 47.124 49.3949 47.044 49.8269 47.044C50.1469 47.044 50.4549 47.084 50.7509 47.164C51.0549 47.244 51.3349 47.36 51.5909 47.512C51.8469 47.656 52.0669 47.832 52.2509 48.04L51.4349 48.94C51.2909 48.796 51.1269 48.668 50.9429 48.556C50.7669 48.436 50.5869 48.344 50.4029 48.28C50.2189 48.216 50.0469 48.184 49.8869 48.184C49.7349 48.184 49.5989 48.2 49.4789 48.232C49.3589 48.256 49.2589 48.296 49.1789 48.352C49.0989 48.408 49.0349 48.48 48.9869 48.568C48.9469 48.648 48.9269 48.74 48.9269 48.844C48.9349 48.948 48.9589 49.044 48.9989 49.132C49.0469 49.212 49.1109 49.28 49.1909 49.336C49.2709 49.392 49.3989 49.456 49.5749 49.528C49.7509 49.6 49.9789 49.668 50.2589 49.732C50.6509 49.836 50.9789 49.952 51.2429 50.08C51.5069 50.208 51.7149 50.356 51.8669 50.524C52.0189 50.668 52.1269 50.836 52.1909 51.028C52.2549 51.22 52.2869 51.436 52.2869 51.676C52.2869 52.052 52.1789 52.388 51.9629 52.684C51.7549 52.972 51.4709 53.2 51.1109 53.368C50.7509 53.536 50.3429 53.62 49.8869 53.62ZM55.8494 53.62C55.2974 53.62 54.7974 53.528 54.3494 53.344C53.9094 53.152 53.5494 52.88 53.2694 52.528L54.2174 51.712C54.4574 51.976 54.7254 52.172 55.0214 52.3C55.3174 52.42 55.6294 52.48 55.9574 52.48C56.0934 52.48 56.2134 52.464 56.3174 52.432C56.4294 52.4 56.5254 52.352 56.6054 52.288C56.6854 52.224 56.7454 52.148 56.7854 52.06C56.8334 51.972 56.8574 51.876 56.8574 51.772C56.8574 51.58 56.7854 51.428 56.6414 51.316C56.5614 51.268 56.4374 51.212 56.2694 51.148C56.1014 51.076 55.8814 51.008 55.6094 50.944C55.1774 50.832 54.8134 50.704 54.5174 50.56C54.2294 50.408 54.0054 50.24 53.8454 50.056C53.7094 49.896 53.6094 49.724 53.5454 49.54C53.4814 49.348 53.4494 49.136 53.4494 48.904C53.4494 48.544 53.5534 48.224 53.7614 47.944C53.9774 47.664 54.2614 47.444 54.6134 47.284C54.9654 47.124 55.3574 47.044 55.7894 47.044C56.1094 47.044 56.4174 47.084 56.7134 47.164C57.0174 47.244 57.2974 47.36 57.5534 47.512C57.8094 47.656 58.0294 47.832 58.2134 48.04L57.3974 48.94C57.2534 48.796 57.0894 48.668 56.9054 48.556C56.7294 48.436 56.5494 48.344 56.3654 48.28C56.1814 48.216 56.0094 48.184 55.8494 48.184C55.6974 48.184 55.5614 48.2 55.4414 48.232C55.3214 48.256 55.2214 48.296 55.1414 48.352C55.0614 48.408 54.9974 48.48 54.9494 48.568C54.9094 48.648 54.8894 48.74 54.8894 48.844C54.8974 48.948 54.9214 49.044 54.9614 49.132C55.0094 49.212 55.0734 49.28 55.1534 49.336C55.2334 49.392 55.3614 49.456 55.5374 49.528C55.7134 49.6 55.9414 49.668 56.2214 49.732C56.6134 49.836 56.9414 49.952 57.2054 50.08C57.4694 50.208 57.6774 50.356 57.8294 50.524C57.9814 50.668 58.0894 50.836 58.1534 51.028C58.2174 51.22 58.2494 51.436 58.2494 51.676C58.2494 52.052 58.1414 52.388 57.9254 52.684C57.7174 52.972 57.4334 53.2 57.0734 53.368C56.7134 53.536 56.3054 53.62 55.8494 53.62ZM62.5799 53.62C61.9479 53.62 61.3839 53.48 60.8879 53.2C60.3919 52.912 59.9999 52.52 59.7119 52.024C59.4319 51.528 59.2919 50.964 59.2919 50.332C59.2919 49.7 59.4319 49.136 59.7119 48.64C59.9999 48.144 60.3919 47.756 60.8879 47.476C61.3839 47.188 61.9479 47.044 62.5799 47.044C63.2039 47.044 63.7639 47.188 64.2599 47.476C64.7559 47.756 65.1439 48.144 65.4239 48.64C65.7119 49.136 65.8559 49.7 65.8559 50.332C65.8559 50.964 65.7119 51.528 65.4239 52.024C65.1439 52.52 64.7559 52.912 64.2599 53.2C63.7639 53.48 63.2039 53.62 62.5799 53.62ZM62.5799 52.312C62.9239 52.312 63.2319 52.228 63.5039 52.06C63.7759 51.884 63.9879 51.648 64.1399 51.352C64.2999 51.048 64.3759 50.708 64.3679 50.332C64.3759 49.948 64.2999 49.608 64.1399 49.312C63.9879 49.008 63.7759 48.772 63.5039 48.604C63.2319 48.436 62.9239 48.352 62.5799 48.352C62.2359 48.352 61.9239 48.44 61.6439 48.616C61.3719 48.784 61.1599 49.02 61.0079 49.324C60.8559 49.62 60.7799 49.956 60.7799 50.332C60.7799 50.708 60.8559 51.048 61.0079 51.352C61.1599 51.648 61.3719 51.884 61.6439 52.06C61.9239 52.228 62.2359 52.312 62.5799 52.312ZM69.1787 53.5L66.5147 47.176H68.1107L69.9227 51.892L69.6107 51.988L71.5187 47.176H73.0787L70.2707 53.5H69.1787ZM77.0967 53.62C76.4327 53.62 75.8447 53.484 75.3327 53.212C74.8287 52.932 74.4327 52.552 74.1447 52.072C73.8647 51.584 73.7247 51.024 73.7247 50.392C73.7247 49.896 73.8047 49.444 73.9647 49.036C74.1247 48.628 74.3487 48.276 74.6367 47.98C74.9247 47.676 75.2647 47.444 75.6567 47.284C76.0567 47.116 76.4887 47.032 76.9527 47.032C77.3767 47.032 77.7647 47.112 78.1167 47.272C78.4767 47.432 78.7887 47.652 79.0527 47.932C79.3167 48.204 79.5167 48.532 79.6527 48.916C79.7967 49.292 79.8647 49.704 79.8567 50.152L79.8447 50.68H74.7327L74.4447 49.66H78.6087L78.4287 49.864V49.588C78.4047 49.348 78.3247 49.136 78.1887 48.952C78.0527 48.76 77.8767 48.612 77.6607 48.508C77.4527 48.396 77.2207 48.34 76.9647 48.34C76.5727 48.34 76.2407 48.416 75.9687 48.568C75.6967 48.712 75.4887 48.928 75.3447 49.216C75.2087 49.504 75.1407 49.86 75.1407 50.284C75.1407 50.692 75.2247 51.048 75.3927 51.352C75.5687 51.656 75.8167 51.892 76.1367 52.06C76.4567 52.228 76.8287 52.312 77.2527 52.312C77.5487 52.312 77.8207 52.264 78.0687 52.168C78.3247 52.072 78.5967 51.9 78.8847 51.652L79.6047 52.66C79.3887 52.86 79.1407 53.032 78.8607 53.176C78.5887 53.312 78.3007 53.42 77.9967 53.5C77.6927 53.58 77.3927 53.62 77.0967 53.62ZM81.314 53.5V47.176H82.754L82.778 49.192L82.586 48.736C82.674 48.416 82.826 48.128 83.042 47.872C83.258 47.616 83.506 47.416 83.786 47.272C84.074 47.12 84.37 47.044 84.674 47.044C84.81 47.044 84.938 47.056 85.058 47.08C85.186 47.104 85.29 47.132 85.37 47.164L84.986 48.772C84.89 48.724 84.778 48.688 84.65 48.664C84.53 48.632 84.406 48.616 84.278 48.616C84.07 48.616 83.874 48.656 83.69 48.736C83.514 48.808 83.358 48.912 83.222 49.048C83.094 49.184 82.99 49.344 82.91 49.528C82.83 49.704 82.79 49.9 82.79 50.116V53.5H81.314Z" fill="white"></path><g clip-path="url(#clip0_2782_3078)"><path d="M43.1282 31.5259C43.6908 31.5259 44.147 31.0697 44.147 30.5071C44.147 29.9444 43.6908 29.4883 43.1282 29.4883C42.5655 29.4883 42.1094 29.9444 42.1094 30.5071C42.1094 31.0697 42.5655 31.5259 43.1282 31.5259Z" fill="white"></path><path d="M43.126 26.4316C42.32 26.4316 41.5321 26.6706 40.8619 27.1184C40.1918 27.5662 39.6694 28.2027 39.361 28.9473C39.0525 29.692 38.9718 30.5114 39.1291 31.3019C39.2863 32.0924 39.6745 32.8185 40.2444 33.3884C40.8143 33.9584 41.5404 34.3465 42.3309 34.5037C43.1215 34.661 43.9408 34.5803 44.6855 34.2718C45.4301 33.9634 46.0666 33.4411 46.5144 32.7709C46.9622 32.1007 47.2012 31.3128 47.2012 30.5068C47.2012 29.426 46.7718 28.3895 46.0076 27.6252C45.2433 26.861 44.2068 26.4316 43.126 26.4316ZM43.126 32.2048C42.7901 32.2048 42.4619 32.1052 42.1826 31.9187C41.9034 31.7321 41.6858 31.4669 41.5572 31.1566C41.4287 30.8464 41.3951 30.505 41.4606 30.1756C41.5261 29.8462 41.6878 29.5436 41.9253 29.3062C42.1628 29.0687 42.4653 28.907 42.7947 28.8415C43.1241 28.7759 43.4655 28.8096 43.7758 28.9381C44.086 29.0666 44.3512 29.2842 44.5378 29.5635C44.7244 29.8427 44.824 30.171 44.824 30.5068C44.824 30.9572 44.6451 31.3891 44.3266 31.7075C44.0082 32.0259 43.5763 32.2048 43.126 32.2048Z" fill="white"></path><path d="M71.6555 31.5259C72.2182 31.5259 72.6743 31.0697 72.6743 30.5071C72.6743 29.9444 72.2182 29.4883 71.6555 29.4883C71.0929 29.4883 70.6367 29.9444 70.6367 30.5071C70.6367 31.0697 71.0929 31.5259 71.6555 31.5259Z" fill="white"></path><path d="M71.6533 26.4316C70.8473 26.4316 70.0594 26.6706 69.3893 27.1184C68.7191 27.5662 68.1968 28.2027 67.8883 28.9473C67.5799 29.692 67.4992 30.5114 67.6564 31.3019C67.8137 32.0924 68.2018 32.8185 68.7717 33.3884C69.3417 33.9584 70.0678 34.3465 70.8583 34.5037C71.6488 34.661 72.4682 34.5803 73.2128 34.2718C73.9575 33.9634 74.5939 33.4411 75.0417 32.7709C75.4895 32.1007 75.7285 31.3128 75.7285 30.5068C75.7285 29.426 75.2992 28.3895 74.5349 27.6252C73.7707 26.861 72.7341 26.4316 71.6533 26.4316ZM71.6533 32.2048C71.3175 32.2048 70.9892 32.1052 70.71 31.9187C70.4307 31.7321 70.2131 31.4669 70.0846 31.1566C69.9561 30.8464 69.9224 30.505 69.988 30.1756C70.0535 29.8462 70.2152 29.5436 70.4527 29.3062C70.6901 29.0687 70.9927 28.907 71.3221 28.8415C71.6514 28.7759 71.9928 28.8096 72.3031 28.9381C72.6134 29.0666 72.8786 29.2842 73.0652 29.5635C73.2517 29.8427 73.3513 30.171 73.3513 30.5068C73.3513 30.9572 73.1724 31.3891 72.854 31.7075C72.5356 32.0259 72.1037 32.2048 71.6533 32.2048Z" fill="white"></path><path d="M77.6367 26.4319H79.1242V25.7527H77.9763L77.6367 26.4319Z" fill="white"></path><path d="M36.3359 22.3566H37.3547V24.3942H36.3359V22.3566Z" fill="white"></path><path d="M53.9922 21.6776H65.868L67.7562 20.8388L62.669 16.244H53.9922V21.6776Z" fill="white"></path><path d="M46.1836 16.244H53.3152V21.6776H46.1836V16.244Z" fill="white"></path><path d="M42.1094 20.4075C45.7397 21.8576 45.1929 21.6776 45.5054 21.6776V16.244H42.1094V20.4075Z" fill="white"></path><path d="M76.7109 22.2107L68.6149 21.1919L66.0339 22.3567C65.9151 22.3805 67.0188 22.3567 45.2199 22.3567C45.1248 22.3567 45.4066 22.4586 41.6439 20.9507C41.5812 20.9258 41.5274 20.8828 41.4893 20.8271C41.4512 20.7715 41.4305 20.7057 41.4299 20.6383V15.9043C41.4299 15.8142 41.4657 15.7279 41.5294 15.6642C41.5931 15.6005 41.6795 15.5647 41.7695 15.5647H61.9146C61.4143 15.1272 60.7725 14.8859 60.1079 14.8855C40.8866 14.8855 41.7695 14.8855 41.7016 14.8855C41.3016 14.9079 40.9115 15.0184 40.5592 15.2092C40.207 15.4 39.9013 15.6664 39.664 15.9892L36.3359 20.4312V21.6775H37.6943C37.7844 21.6775 37.8708 21.7133 37.9345 21.777C37.9982 21.8406 38.0339 21.927 38.0339 22.0171V24.7339C38.0339 24.824 37.9982 24.9103 37.9345 24.974C37.8708 25.0377 37.7844 25.0735 37.6943 25.0735H36.3359V30.1675L38.3735 30.6803C38.3206 29.662 38.6033 28.6544 39.178 27.8122C39.7528 26.9699 40.5881 26.3395 41.5556 26.0176C42.3004 25.7542 43.099 25.6806 43.8794 25.8034C44.6598 25.9261 45.3973 26.2414 46.0253 26.7207C46.6532 27.2 47.1518 27.8282 47.4761 28.5486C47.8003 29.269 47.9399 30.0588 47.8823 30.8467H66.8999C66.8078 29.7823 67.0827 28.7185 67.6789 27.832C68.275 26.9455 69.1566 26.2896 70.177 25.9734C70.9201 25.728 71.7123 25.6699 72.4833 25.8041C73.2543 25.9383 73.9802 26.2608 74.5966 26.7429C75.2131 27.2249 75.701 27.8517 76.0171 28.5676C76.3332 29.2835 76.4677 30.0663 76.4087 30.8467H77.0675L79.1391 29.4577V27.1111C76.9351 27.1111 76.9453 27.1654 76.8128 26.9515C76.783 26.8998 76.7673 26.8413 76.7673 26.7817C76.7673 26.7221 76.783 26.6635 76.8128 26.6119L77.492 25.2535C77.6177 25.0056 77.7399 25.0667 79.1527 25.0667C79.1797 24.3708 78.9433 23.6902 78.4907 23.1608C78.0381 22.6315 77.4026 22.2922 76.7109 22.2107ZM56.3723 24.3943H55.0139C54.9238 24.3943 54.8375 24.3585 54.7738 24.2948C54.7101 24.2311 54.6743 24.1448 54.6743 24.0547C54.6743 23.9646 54.7101 23.8782 54.7738 23.8146C54.8375 23.7509 54.9238 23.7151 55.0139 23.7151H56.3723C56.4624 23.7151 56.5488 23.7509 56.6124 23.8146C56.6761 23.8782 56.7119 23.9646 56.7119 24.0547C56.7119 24.1448 56.6761 24.2311 56.6124 24.2948C56.5488 24.3585 56.4624 24.3943 56.3723 24.3943Z" fill="white"></path></g><defs><linearGradient id="paint0_linear_2782_3078" x1="26.5" y1="2.5" x2="96" y2="88.5" gradientUnits="userSpaceOnUse"><stop stop-color="#FF5558"></stop><stop offset="1" stop-color="#D6B0FF"></stop></linearGradient><clipPath id="clip0_2782_3078"><rect width="43.4688" height="43.4688" fill="white" transform="translate(36 3)"></rect></clipPath></defs></svg>