<svg xmlns="http://www.w3.org/2000/svg" width="110" height="86" viewBox="0 0 110 86" fill="none"><path d="M0 20.3002V45.5797C0 56.5169 8.83396 65.3799 19.7323 65.3799H27.8852C26.4014 79.5908 15.8985 85.1576 15.2386 85.5C21.1605 84.2646 26.0827 82.2037 30.1373 79.8111C32.8615 78.2121 35.1917 76.4485 37.1582 74.6955C41.1017 71.1896 43.6289 67.6956 45.0572 65.3799H90.2677C101.166 65.3799 110 56.5155 110 45.5797V20.3002C110 9.3644 101.166 0.5 90.2677 0.5H19.7323C8.83396 0.5 0 9.3644 0 20.3002Z" fill="url(#paint0_linear_2782_3032)"></path><path d="M21.7698 52.5V44.1H27.2538V45.516H23.3058V51.084H27.3018V52.5H21.7698ZM22.4898 48.9V47.508H26.6418V48.9H22.4898ZM29.1561 52.5V43.62H30.6201V52.5H29.1561ZM35.3635 52.62C34.6995 52.62 34.1115 52.484 33.5995 52.212C33.0955 51.932 32.6995 51.552 32.4115 51.072C32.1315 50.584 31.9915 50.024 31.9915 49.392C31.9915 48.896 32.0715 48.444 32.2315 48.036C32.3915 47.628 32.6155 47.276 32.9035 46.98C33.1915 46.676 33.5315 46.444 33.9235 46.284C34.3235 46.116 34.7555 46.032 35.2195 46.032C35.6435 46.032 36.0315 46.112 36.3835 46.272C36.7435 46.432 37.0555 46.652 37.3195 46.932C37.5835 47.204 37.7835 47.532 37.9195 47.916C38.0635 48.292 38.1315 48.704 38.1235 49.152L38.1115 49.68H32.9995L32.7115 48.66H36.8755L36.6955 48.864V48.588C36.6715 48.348 36.5915 48.136 36.4555 47.952C36.3195 47.76 36.1435 47.612 35.9275 47.508C35.7195 47.396 35.4875 47.34 35.2315 47.34C34.8395 47.34 34.5075 47.416 34.2355 47.568C33.9635 47.712 33.7555 47.928 33.6115 48.216C33.4755 48.504 33.4075 48.86 33.4075 49.284C33.4075 49.692 33.4915 50.048 33.6595 50.352C33.8355 50.656 34.0835 50.892 34.4035 51.06C34.7235 51.228 35.0955 51.312 35.5195 51.312C35.8155 51.312 36.0875 51.264 36.3355 51.168C36.5915 51.072 36.8635 50.9 37.1515 50.652L37.8715 51.66C37.6555 51.86 37.4075 52.032 37.1275 52.176C36.8555 52.312 36.5675 52.42 36.2635 52.5C35.9595 52.58 35.6595 52.62 35.3635 52.62ZM42.2928 52.62C41.7008 52.62 41.1688 52.476 40.6968 52.188C40.2248 51.9 39.8528 51.508 39.5808 51.012C39.3088 50.516 39.1728 49.956 39.1728 49.332C39.1728 48.708 39.3088 48.148 39.5808 47.652C39.8528 47.156 40.2248 46.764 40.6968 46.476C41.1688 46.188 41.7008 46.044 42.2928 46.044C42.8528 46.044 43.3648 46.156 43.8288 46.38C44.3008 46.596 44.6608 46.892 44.9088 47.268L44.1048 48.252C43.9848 48.084 43.8328 47.932 43.6488 47.796C43.4648 47.66 43.2648 47.552 43.0488 47.472C42.8408 47.392 42.6368 47.352 42.4368 47.352C42.0768 47.352 41.7568 47.44 41.4768 47.616C41.2048 47.784 40.9888 48.02 40.8288 48.324C40.6688 48.62 40.5888 48.956 40.5888 49.332C40.5888 49.708 40.6688 50.044 40.8288 50.34C40.9968 50.636 41.2208 50.872 41.5008 51.048C41.7808 51.224 42.0928 51.312 42.4368 51.312C42.6528 51.312 42.8568 51.28 43.0488 51.216C43.2408 51.144 43.4248 51.044 43.6008 50.916C43.7848 50.788 43.9528 50.628 44.1048 50.436L44.9088 51.42C44.6448 51.772 44.2728 52.06 43.7928 52.284C43.3128 52.508 42.8128 52.62 42.2928 52.62ZM46.8838 52.5V44.568H48.3478V52.5H46.8838ZM45.6358 47.544V46.176H49.7278V47.544H45.6358ZM51.0019 52.5V46.176H52.4419L52.4659 48.192L52.2739 47.736C52.3619 47.416 52.5139 47.128 52.7299 46.872C52.9459 46.616 53.1939 46.416 53.4739 46.272C53.7619 46.12 54.0579 46.044 54.3619 46.044C54.4979 46.044 54.6259 46.056 54.7459 46.08C54.8739 46.104 54.9779 46.132 55.0579 46.164L54.6739 47.772C54.5779 47.724 54.4659 47.688 54.3379 47.664C54.2179 47.632 54.0939 47.616 53.9659 47.616C53.7579 47.616 53.5619 47.656 53.3779 47.736C53.2019 47.808 53.0459 47.912 52.9099 48.048C52.7819 48.184 52.6779 48.344 52.5979 48.528C52.5179 48.704 52.4779 48.9 52.4779 49.116V52.5H51.0019ZM56.3707 52.5V46.176H57.8347V52.5H56.3707ZM57.0907 44.832C56.7947 44.832 56.5627 44.76 56.3947 44.616C56.2347 44.464 56.1547 44.252 56.1547 43.98C56.1547 43.724 56.2387 43.52 56.4067 43.368C56.5747 43.208 56.8027 43.128 57.0907 43.128C57.3867 43.128 57.6147 43.204 57.7747 43.356C57.9427 43.5 58.0267 43.708 58.0267 43.98C58.0267 44.228 57.9427 44.432 57.7747 44.592C57.6067 44.752 57.3787 44.832 57.0907 44.832ZM62.5686 52.62C61.9766 52.62 61.4446 52.476 60.9726 52.188C60.5006 51.9 60.1286 51.508 59.8566 51.012C59.5846 50.516 59.4486 49.956 59.4486 49.332C59.4486 48.708 59.5846 48.148 59.8566 47.652C60.1286 47.156 60.5006 46.764 60.9726 46.476C61.4446 46.188 61.9766 46.044 62.5686 46.044C63.1286 46.044 63.6406 46.156 64.1046 46.38C64.5766 46.596 64.9366 46.892 65.1846 47.268L64.3806 48.252C64.2606 48.084 64.1086 47.932 63.9246 47.796C63.7406 47.66 63.5406 47.552 63.3246 47.472C63.1166 47.392 62.9126 47.352 62.7126 47.352C62.3526 47.352 62.0326 47.44 61.7526 47.616C61.4806 47.784 61.2646 48.02 61.1046 48.324C60.9446 48.62 60.8646 48.956 60.8646 49.332C60.8646 49.708 60.9446 50.044 61.1046 50.34C61.2726 50.636 61.4966 50.872 61.7766 51.048C62.0566 51.224 62.3686 51.312 62.7126 51.312C62.9286 51.312 63.1326 51.28 63.3246 51.216C63.5166 51.144 63.7006 51.044 63.8766 50.916C64.0606 50.788 64.2286 50.628 64.3806 50.436L65.1846 51.42C64.9206 51.772 64.5486 52.06 64.0686 52.284C63.5886 52.508 63.0886 52.62 62.5686 52.62ZM73.9452 52.62C73.3452 52.62 72.7932 52.516 72.2892 52.308C71.7852 52.1 71.3492 51.804 70.9812 51.42C70.6132 51.028 70.3252 50.568 70.1172 50.04C69.9172 49.504 69.8172 48.92 69.8172 48.288C69.8172 47.68 69.9252 47.116 70.1412 46.596C70.3572 46.076 70.6572 45.62 71.0412 45.228C71.4252 44.836 71.8732 44.532 72.3852 44.316C72.8972 44.1 73.4492 43.992 74.0412 43.992C74.4492 43.992 74.8452 44.052 75.2292 44.172C75.6132 44.292 75.9652 44.46 76.2852 44.676C76.6132 44.884 76.8812 45.132 77.0892 45.42L76.0932 46.488C75.7812 46.168 75.4532 45.924 75.1092 45.756C74.7732 45.588 74.4172 45.504 74.0412 45.504C73.6732 45.504 73.3252 45.572 72.9972 45.708C72.6772 45.844 72.3972 46.036 72.1572 46.284C71.9252 46.532 71.7412 46.828 71.6052 47.172C71.4692 47.508 71.4012 47.884 71.4012 48.3C71.4012 48.724 71.4652 49.112 71.5932 49.464C71.7292 49.808 71.9172 50.104 72.1572 50.352C72.4052 50.6 72.6972 50.788 73.0332 50.916C73.3772 51.044 73.7572 51.108 74.1732 51.108C74.4292 51.108 74.6812 51.076 74.9292 51.012C75.1772 50.94 75.4092 50.836 75.6252 50.7C75.8412 50.564 76.0332 50.408 76.2012 50.232L76.9692 51.468C76.7772 51.684 76.5212 51.88 76.2012 52.056C75.8812 52.232 75.5252 52.372 75.1332 52.476C74.7412 52.572 74.3452 52.62 73.9452 52.62ZM82.0944 52.5V48.456C82.0944 48.112 81.9784 47.844 81.7464 47.652C81.5224 47.452 81.2304 47.352 80.8704 47.352C80.5344 47.352 80.2304 47.42 79.9584 47.556C79.6864 47.684 79.4344 47.892 79.2024 48.18L78.2904 47.268C78.6664 46.868 79.0824 46.564 79.5384 46.356C79.9944 46.148 80.4864 46.044 81.0144 46.044C81.5184 46.044 81.9504 46.124 82.3104 46.284C82.6784 46.444 82.9624 46.684 83.1624 47.004C83.3624 47.316 83.4624 47.7 83.4624 48.156V52.5H82.0944ZM80.2944 52.62C79.8864 52.62 79.5224 52.54 79.2024 52.38C78.8824 52.22 78.6264 52 78.4344 51.72C78.2504 51.432 78.1584 51.096 78.1584 50.712C78.1584 50.376 78.2184 50.084 78.3384 49.836C78.4584 49.58 78.6344 49.368 78.8664 49.2C79.1064 49.032 79.4024 48.908 79.7544 48.828C80.1144 48.74 80.5264 48.696 80.9904 48.696H82.8024L82.6944 49.752H80.9064C80.6904 49.752 80.4984 49.772 80.3304 49.812C80.1624 49.852 80.0184 49.912 79.8984 49.992C79.7784 50.072 79.6904 50.168 79.6344 50.28C79.5784 50.384 79.5504 50.512 79.5504 50.664C79.5504 50.824 79.5904 50.964 79.6704 51.084C79.7504 51.196 79.8584 51.284 79.9944 51.348C80.1304 51.412 80.2904 51.444 80.4744 51.444C80.7384 51.444 80.9864 51.4 81.2184 51.312C81.4584 51.224 81.6704 51.1 81.8544 50.94C82.0384 50.78 82.1824 50.6 82.2864 50.4L82.5864 51.216C82.4184 51.496 82.2104 51.74 81.9624 51.948C81.7224 52.156 81.4584 52.32 81.1704 52.44C80.8904 52.56 80.5984 52.62 80.2944 52.62ZM85.1714 52.5V46.176H86.6114L86.6354 48.192L86.4434 47.736C86.5314 47.416 86.6834 47.128 86.8994 46.872C87.1154 46.616 87.3634 46.416 87.6434 46.272C87.9314 46.12 88.2274 46.044 88.5314 46.044C88.6674 46.044 88.7954 46.056 88.9154 46.08C89.0434 46.104 89.1474 46.132 89.2274 46.164L88.8434 47.772C88.7474 47.724 88.6354 47.688 88.5074 47.664C88.3874 47.632 88.2634 47.616 88.1354 47.616C87.9274 47.616 87.7314 47.656 87.5474 47.736C87.3714 47.808 87.2154 47.912 87.0794 48.048C86.9514 48.184 86.8474 48.344 86.7674 48.528C86.6874 48.704 86.6474 48.9 86.6474 49.116V52.5H85.1714Z" fill="white"></path><path fill-rule="evenodd" clip-rule="evenodd" d="M43.9731 16.5925L45.809 11.5438C46.2168 10.4223 47.2827 9.67578 48.476 9.67578H55.002H61.5278C62.7213 9.67578 63.7871 10.4223 64.1949 11.5438L66.0308 16.5925C66.2434 17.177 66.5814 17.7079 67.0213 18.1477L67.529 18.6554C68.5935 19.7199 69.1914 21.1636 69.1914 22.6689V29.541V30.96C69.1914 31.7436 68.5561 32.3789 67.7725 32.3789H66.3535C65.5698 32.3789 64.9346 31.7436 64.9346 30.96V29.541C56.9994 29.8347 52.9158 29.7619 45.0693 29.541V30.96C45.0693 31.7436 44.434 32.3789 43.6504 32.3789H42.2314C41.4478 32.3789 40.8125 31.7436 40.8125 30.96V29.541V22.6689C40.8125 21.1636 41.4105 19.7199 42.4749 18.6554L42.9826 18.1477C43.4225 17.7079 43.7606 17.177 43.9731 16.5925ZM45.7788 17.48L47.5838 12.065C47.777 11.4855 48.3192 11.0947 48.9299 11.0947H61.0739C61.6848 11.0947 62.2269 11.4855 62.4201 12.065L64.2251 17.48H45.7788ZM51.8675 24.2212L55.9561 19.0011C56.1346 18.7732 56.4907 18.9589 56.4147 19.2403L55.4326 22.8771L57.9146 22.7186C58.1424 22.7041 58.2789 22.9724 58.1364 23.1545L54.0479 28.3746C53.8694 28.6025 53.5132 28.4168 53.5893 28.1354L54.5713 24.4987L52.0892 24.6571C51.8615 24.6716 51.725 24.4033 51.8675 24.2212Z" fill="white"></path><defs><linearGradient id="paint0_linear_2782_3032" x1="-29.5" y1="-46" x2="84.5" y2="88.5" gradientUnits="userSpaceOnUse"><stop stop-color="#FFCE8A"></stop><stop offset="1" stop-color="#FF9900"></stop></linearGradient></defs></svg>