<svg xmlns="http://www.w3.org/2000/svg" width="143" height="69" viewBox="0 0 143 69" fill="none"><path d="M142.402 21.3782V48.0085C142.402 53.488 140.295 58.4596 136.832 62.1841C133.445 65.852 128.748 68.2982 123.483 68.7631C123.392 68.7973 123.291 68.7973 123.2 68.7973H123.166C122.985 68.8092 122.792 68.8197 122.611 68.8197C122.26 68.854 121.898 68.8644 121.548 68.8644H46.9886C45.46 68.8644 43.9658 68.6945 42.5385 68.3772C41.3616 68.1284 40.2293 67.7768 39.1418 67.3358C31.499 64.2445 26.1104 56.7492 26.1104 48.0085V41.7692C3.80497 33.0628 0 7.24735 0 7.24735C9.01335 20.7435 20.3582 24.5828 26.1104 25.6688V21.3782C26.1104 9.85152 35.4619 0.5 46.9886 0.5H121.548C133.074 0.5 142.403 9.85152 142.403 21.3782H142.402Z" fill="url(#paint0_linear_2782_3104)"></path><path d="M44.8753 53.9478V45.5478H46.4233V52.5078H50.2993V53.9478H44.8753ZM54.1877 54.0678C53.7317 54.0678 53.3357 53.9638 52.9997 53.7558C52.6717 53.5478 52.4157 53.2558 52.2317 52.8798C52.0557 52.5038 51.9677 52.0518 51.9677 51.5238V47.6238H53.4317V51.2118C53.4317 51.7078 53.5477 52.0998 53.7797 52.3878C54.0197 52.6758 54.3517 52.8198 54.7757 52.8198C54.9837 52.8198 55.1717 52.7878 55.3397 52.7238C55.5157 52.6518 55.6677 52.5558 55.7957 52.4358C55.9237 52.3078 56.0237 52.1558 56.0957 51.9798C56.1677 51.8038 56.2037 51.6158 56.2037 51.4158V47.6238H57.6677V53.9478H56.2397L56.2157 52.6278L56.4797 52.4838C56.3837 52.7798 56.2197 53.0478 55.9877 53.2878C55.7637 53.5278 55.4957 53.7198 55.1837 53.8638C54.8717 53.9998 54.5397 54.0678 54.1877 54.0678ZM63.6517 53.9478L61.8397 51.4998L61.5157 51.0558L58.9117 47.6238H60.7237L62.4997 50.0238L62.8477 50.5038L65.4277 53.9478H63.6517ZM58.8997 53.9478L61.4077 50.5998L62.2357 51.5958L60.6277 53.9478H58.8997ZM62.8597 50.9958L62.0557 49.9998L63.5077 47.6238H65.2477L62.8597 50.9958ZM68.7729 54.0678C68.3169 54.0678 67.9209 53.9638 67.5849 53.7558C67.2569 53.5478 67.0009 53.2558 66.8169 52.8798C66.6409 52.5038 66.5529 52.0518 66.5529 51.5238V47.6238H68.0169V51.2118C68.0169 51.7078 68.1329 52.0998 68.3649 52.3878C68.6049 52.6758 68.9369 52.8198 69.3609 52.8198C69.5689 52.8198 69.7569 52.7878 69.9249 52.7238C70.1009 52.6518 70.2529 52.5558 70.3809 52.4358C70.5089 52.3078 70.6089 52.1558 70.6809 51.9798C70.7529 51.8038 70.7889 51.6158 70.7889 51.4158V47.6238H72.2529V53.9478H70.8249L70.8009 52.6278L71.0649 52.4838C70.9689 52.7798 70.8049 53.0478 70.5729 53.2878C70.3489 53.5278 70.0809 53.7198 69.7689 53.8638C69.4569 53.9998 69.1249 54.0678 68.7729 54.0678ZM74.1449 53.9478V47.6238H75.5849L75.6089 49.6398L75.4169 49.1838C75.5049 48.8638 75.6569 48.5758 75.8729 48.3198C76.0889 48.0638 76.3369 47.8638 76.6169 47.7198C76.9049 47.5678 77.2009 47.4918 77.5049 47.4918C77.6409 47.4918 77.7689 47.5038 77.8889 47.5278C78.0169 47.5518 78.1209 47.5798 78.2009 47.6118L77.8169 49.2198C77.7209 49.1718 77.6089 49.1358 77.4809 49.1118C77.3609 49.0798 77.2369 49.0638 77.1089 49.0638C76.9009 49.0638 76.7049 49.1038 76.5209 49.1838C76.3449 49.2558 76.1889 49.3598 76.0529 49.4958C75.9249 49.6318 75.8209 49.7918 75.7409 49.9758C75.6609 50.1518 75.6209 50.3478 75.6209 50.5638V53.9478H74.1449ZM80.3176 56.7078L81.6496 53.6118L81.6616 54.6078L78.5416 47.6238H80.2336L81.9856 51.7878C82.0416 51.8918 82.0976 52.0318 82.1536 52.2078C82.2096 52.3758 82.2576 52.5398 82.2976 52.6998L81.9976 52.8078C82.0536 52.6558 82.1096 52.4918 82.1656 52.3158C82.2296 52.1398 82.2936 51.9638 82.3576 51.7878L83.8456 47.6238H85.5496L82.9216 53.9478L81.8536 56.7078H80.3176ZM93.2143 54.0678C92.4783 54.0678 91.8383 53.9278 91.2943 53.6478C90.7583 53.3678 90.2983 52.9598 89.9143 52.4238L90.9223 51.2718C91.3143 51.8238 91.6943 52.2038 92.0623 52.4118C92.4383 52.6118 92.8623 52.7118 93.3343 52.7118C93.6063 52.7118 93.8543 52.6718 94.0783 52.5918C94.3023 52.5118 94.4783 52.3998 94.6063 52.2558C94.7343 52.1038 94.7983 51.9278 94.7983 51.7278C94.7983 51.5918 94.7703 51.4678 94.7143 51.3558C94.6663 51.2358 94.5903 51.1318 94.4863 51.0438C94.3903 50.9478 94.2663 50.8598 94.1143 50.7798C93.9703 50.6998 93.7983 50.6318 93.5983 50.5758C93.4063 50.5118 93.1943 50.4598 92.9623 50.4198C92.5143 50.3318 92.1263 50.2158 91.7983 50.0718C91.4783 49.9198 91.2063 49.7358 90.9823 49.5198C90.7663 49.2958 90.6023 49.0478 90.4903 48.7758C90.3863 48.4958 90.3343 48.1798 90.3343 47.8278C90.3343 47.3558 90.4663 46.9398 90.7303 46.5798C91.0023 46.2118 91.3623 45.9238 91.8103 45.7158C92.2663 45.5078 92.7663 45.4038 93.3103 45.4038C94.0143 45.4038 94.6103 45.5318 95.0983 45.7878C95.5943 46.0438 95.9823 46.4078 96.2623 46.8798L95.2303 47.8878C94.9903 47.5198 94.7063 47.2398 94.3783 47.0478C94.0503 46.8558 93.6943 46.7598 93.3103 46.7598C93.0223 46.7598 92.7703 46.8038 92.5543 46.8918C92.3463 46.9718 92.1823 47.0878 92.0623 47.2398C91.9423 47.3838 91.8823 47.5598 91.8823 47.7678C91.8823 47.9198 91.9143 48.0598 91.9783 48.1878C92.0503 48.3158 92.1543 48.4278 92.2903 48.5238C92.4263 48.6198 92.5983 48.7038 92.8063 48.7758C93.0143 48.8478 93.2543 48.9118 93.5263 48.9678C93.9663 49.0638 94.3583 49.1838 94.7023 49.3278C95.0543 49.4718 95.3503 49.6478 95.5903 49.8558C95.8383 50.0558 96.0263 50.2878 96.1543 50.5518C96.2823 50.8078 96.3463 51.0958 96.3463 51.4158C96.3463 51.9598 96.2183 52.4318 95.9623 52.8318C95.7063 53.2318 95.3423 53.5398 94.8703 53.7558C94.3983 53.9638 93.8463 54.0678 93.2143 54.0678ZM100.935 54.0678C100.271 54.0678 99.6834 53.9318 99.1714 53.6598C98.6674 53.3798 98.2714 52.9998 97.9834 52.5198C97.7034 52.0318 97.5634 51.4718 97.5634 50.8398C97.5634 50.3438 97.6434 49.8918 97.8034 49.4838C97.9634 49.0758 98.1874 48.7238 98.4754 48.4278C98.7634 48.1238 99.1034 47.8918 99.4954 47.7318C99.8954 47.5638 100.327 47.4798 100.791 47.4798C101.215 47.4798 101.603 47.5598 101.955 47.7198C102.315 47.8798 102.627 48.0998 102.891 48.3798C103.155 48.6518 103.355 48.9798 103.491 49.3638C103.635 49.7398 103.703 50.1518 103.695 50.5998L103.683 51.1278H98.5714L98.2834 50.1078H102.447L102.267 50.3118V50.0358C102.243 49.7958 102.163 49.5838 102.027 49.3998C101.891 49.2078 101.715 49.0598 101.499 48.9558C101.291 48.8438 101.059 48.7878 100.803 48.7878C100.411 48.7878 100.079 48.8638 99.8074 49.0158C99.5354 49.1598 99.3274 49.3758 99.1834 49.6638C99.0474 49.9518 98.9794 50.3078 98.9794 50.7318C98.9794 51.1398 99.0634 51.4958 99.2314 51.7998C99.4074 52.1038 99.6554 52.3398 99.9754 52.5078C100.295 52.6758 100.667 52.7598 101.091 52.7598C101.387 52.7598 101.659 52.7118 101.907 52.6158C102.163 52.5198 102.435 52.3478 102.723 52.0998L103.443 53.1078C103.227 53.3078 102.979 53.4798 102.699 53.6238C102.427 53.7598 102.139 53.8678 101.835 53.9478C101.531 54.0278 101.231 54.0678 100.935 54.0678ZM107.709 54.0678C107.141 54.0678 106.633 53.9278 106.185 53.6478C105.745 53.3598 105.393 52.9718 105.129 52.4838C104.873 51.9878 104.745 51.4198 104.745 50.7798C104.745 50.1478 104.873 49.5838 105.129 49.0878C105.385 48.5918 105.733 48.2038 106.173 47.9238C106.621 47.6358 107.125 47.4918 107.685 47.4918C107.989 47.4918 108.281 47.5398 108.561 47.6358C108.849 47.7318 109.105 47.8638 109.329 48.0318C109.561 48.1918 109.741 48.3718 109.869 48.5718C110.005 48.7718 110.077 48.9798 110.085 49.1958L109.689 49.2438V45.0678H111.165V53.9478H109.737L109.701 52.4718L109.989 52.4958C109.981 52.6878 109.913 52.8758 109.785 53.0598C109.657 53.2438 109.485 53.4118 109.269 53.5638C109.061 53.7158 108.821 53.8398 108.549 53.9358C108.277 54.0238 107.997 54.0678 107.709 54.0678ZM107.985 52.8198C108.329 52.8198 108.633 52.7358 108.897 52.5678C109.161 52.3918 109.365 52.1518 109.509 51.8478C109.661 51.5358 109.737 51.1798 109.737 50.7798C109.737 50.3798 109.661 50.0278 109.509 49.7238C109.365 49.4198 109.161 49.1798 108.897 49.0038C108.633 48.8278 108.329 48.7398 107.985 48.7398C107.633 48.7398 107.325 48.8278 107.061 49.0038C106.805 49.1798 106.601 49.4198 106.449 49.7238C106.297 50.0278 106.221 50.3798 106.221 50.7798C106.221 51.1798 106.297 51.5358 106.449 51.8478C106.601 52.1518 106.805 52.3918 107.061 52.5678C107.325 52.7358 107.633 52.8198 107.985 52.8198ZM116.602 53.9478V49.9038C116.602 49.5598 116.486 49.2918 116.254 49.0998C116.03 48.8998 115.738 48.7998 115.378 48.7998C115.042 48.7998 114.738 48.8678 114.466 49.0038C114.194 49.1318 113.942 49.3398 113.71 49.6278L112.798 48.7158C113.174 48.3158 113.59 48.0118 114.046 47.8038C114.502 47.5958 114.994 47.4918 115.522 47.4918C116.026 47.4918 116.458 47.5718 116.818 47.7318C117.186 47.8918 117.47 48.1318 117.67 48.4518C117.87 48.7638 117.97 49.1478 117.97 49.6038V53.9478H116.602ZM114.802 54.0678C114.394 54.0678 114.03 53.9878 113.71 53.8278C113.39 53.6678 113.134 53.4478 112.942 53.1678C112.758 52.8798 112.666 52.5438 112.666 52.1598C112.666 51.8238 112.726 51.5318 112.846 51.2838C112.966 51.0278 113.142 50.8158 113.374 50.6478C113.614 50.4798 113.91 50.3558 114.262 50.2758C114.622 50.1878 115.034 50.1438 115.498 50.1438H117.31L117.202 51.1998H115.414C115.198 51.1998 115.006 51.2198 114.838 51.2598C114.67 51.2998 114.526 51.3598 114.406 51.4398C114.286 51.5198 114.198 51.6158 114.142 51.7278C114.086 51.8318 114.058 51.9598 114.058 52.1118C114.058 52.2718 114.098 52.4118 114.178 52.5318C114.258 52.6438 114.366 52.7318 114.502 52.7958C114.638 52.8598 114.798 52.8918 114.982 52.8918C115.246 52.8918 115.494 52.8478 115.726 52.7598C115.966 52.6718 116.178 52.5478 116.362 52.3878C116.546 52.2278 116.69 52.0478 116.794 51.8478L117.094 52.6638C116.926 52.9438 116.718 53.1878 116.47 53.3958C116.23 53.6038 115.966 53.7678 115.678 53.8878C115.398 54.0078 115.106 54.0678 114.802 54.0678ZM119.679 53.9478V47.6238H121.107L121.131 48.9198L120.855 49.0638C120.943 48.7838 121.099 48.5278 121.323 48.2958C121.555 48.0558 121.831 47.8638 122.151 47.7198C122.471 47.5678 122.803 47.4918 123.147 47.4918C123.627 47.4918 124.027 47.5878 124.347 47.7798C124.675 47.9718 124.919 48.2598 125.079 48.6438C125.239 49.0278 125.319 49.5078 125.319 50.0838V53.9478H123.855V50.1918C123.855 49.8638 123.811 49.5958 123.723 49.3878C123.635 49.1718 123.499 49.0158 123.315 48.9198C123.131 48.8158 122.907 48.7718 122.643 48.7878C122.427 48.7878 122.227 48.8238 122.043 48.8958C121.859 48.9598 121.699 49.0558 121.563 49.1838C121.435 49.3038 121.331 49.4478 121.251 49.6158C121.179 49.7758 121.143 49.9518 121.143 50.1438V53.9478H120.411C120.275 53.9478 120.143 53.9478 120.015 53.9478C119.895 53.9478 119.783 53.9478 119.679 53.9478Z" fill="white"></path><path d="M66.553 26.3232C64.5111 26.3232 62.8555 27.9784 62.8555 30.0208C62.8555 30.1782 62.8683 30.3332 62.8881 30.4852C63.1174 32.3077 64.6686 33.7173 66.5525 33.7173C68.4874 33.7173 70.0737 32.23 70.2347 30.3356C70.2431 30.2322 70.25 30.1267 70.25 30.0203C70.2505 27.9784 68.5953 26.3232 66.553 26.3232ZM64.7022 28.6275L65.4558 29.3816C65.3974 29.4821 65.3513 29.5905 65.3216 29.7064H64.2591C64.3136 29.3043 64.4676 28.937 64.7022 28.6275ZM64.2542 30.3465H65.3251C65.3553 30.4604 65.3999 30.5684 65.4593 30.6674L64.7037 31.4224C64.4695 31.1155 64.3121 30.7481 64.2542 30.3465ZM66.2331 32.3176C65.8326 32.2616 65.4687 32.1047 65.1607 31.8725L65.9123 31.1204C66.0113 31.1783 66.1198 31.2209 66.2331 31.2506V32.3176ZM66.2331 28.7909C66.1168 28.8216 66.0079 28.8671 65.9064 28.9271L65.1533 28.174C65.4627 27.9388 65.8301 27.7833 66.2331 27.7274V28.7909ZM66.8733 27.7264C67.2763 27.7823 67.6442 27.9388 67.9532 28.1735L67.2006 28.9266C67.0996 28.8666 66.9897 28.8211 66.8738 28.7904L66.8733 27.7264ZM66.8733 32.3166V31.2511C66.9872 31.2209 67.0946 31.1788 67.1937 31.1204L67.9457 31.8725C67.6378 32.1047 67.2734 32.2607 66.8733 32.3166ZM68.4042 31.4259L67.6462 30.6669C67.7056 30.5674 67.7536 30.4609 67.7838 30.347H68.8464C68.7899 30.7471 68.6389 31.1174 68.4042 31.4259ZM67.7853 29.7064C67.7551 29.5905 67.7096 29.4821 67.6511 29.3816L68.4057 28.6275C68.6389 28.937 68.7929 29.3043 68.8483 29.7069H67.7853V29.7064Z" fill="white"></path><path d="M97.2561 26.3232C95.2143 26.3232 93.5586 27.9784 93.5586 30.0208C93.5586 30.1782 93.5715 30.3332 93.5913 30.4852C93.8205 32.3077 95.3717 33.7173 97.2551 33.7173C99.19 33.7173 100.776 32.23 100.938 30.3356C100.946 30.2322 100.953 30.1267 100.953 30.0203C100.954 27.9784 99.2985 26.3232 97.2561 26.3232ZM95.4054 28.6275L96.1584 29.3816C96.1 29.4821 96.054 29.5905 96.0243 29.7064H94.9617C95.0167 29.3043 95.1707 28.937 95.4054 28.6275ZM94.9578 30.3465H96.0287C96.0589 30.4604 96.1035 30.5684 96.1629 30.6674L95.4078 31.4224C95.1727 31.1155 95.0147 30.7481 94.9578 30.3465ZM96.9363 32.3176C96.5357 32.2616 96.1718 32.1047 95.8638 31.8725L96.6154 31.1204C96.7145 31.1783 96.8229 31.2209 96.9363 31.2506V32.3176ZM96.9363 28.7909C96.8199 28.8216 96.711 28.8671 96.6095 28.9271L95.8564 28.174C96.1659 27.9388 96.5327 27.7833 96.9363 27.7274V28.7909ZM97.5769 27.7264C97.98 27.7823 98.3478 27.9388 98.6568 28.1735L97.9037 28.9266C97.8027 28.8666 97.6928 28.8201 97.5769 28.7904V27.7264ZM97.5769 32.3166V31.2511C97.6908 31.2209 97.7983 31.1788 97.8973 31.1204L98.6494 31.8725C98.3414 32.1047 97.9765 32.2607 97.5769 32.3166ZM99.1073 31.4259L98.3493 30.6679C98.4087 30.5679 98.4573 30.4619 98.487 30.3475H99.5495C99.493 30.7471 99.3425 31.1174 99.1073 31.4259ZM98.4884 29.7064C98.4582 29.5905 98.4132 29.4821 98.3543 29.3816L99.1083 28.6275C99.342 28.937 99.4955 29.3043 99.5515 29.7069H98.4884V29.7064Z" fill="white"></path><path d="M106.133 24.4093V21.6733C106.133 21.2332 105.813 20.8603 105.379 20.7925C104.336 20.6291 102.486 20.3207 101.656 20.0647C100.464 19.6973 95.8617 17.7486 94.2679 17.3827C92.6737 17.0168 85.4856 15.0631 78.601 17.4495C77.436 17.853 72.1952 20.3583 69.1136 21.6609C68.2061 21.6808 59.2232 23.5533 58.7449 24.8366C58.2667 26.1204 58.1166 26.7433 58.0285 27.0691C57.9404 27.3949 58.0285 28.954 58.6959 30.0398C59.3762 30.4245 60.6858 30.6829 62.1998 30.8562C62.1825 30.7636 62.1637 30.6725 62.1518 30.579C62.1256 30.3789 62.1132 30.1962 62.1132 30.0219C62.1132 27.5736 64.1046 25.5813 66.5534 25.5813C69.0022 25.5813 70.9936 27.5731 70.9936 30.0219C70.9936 30.1477 70.9852 30.2725 70.9758 30.3953C70.9525 30.6701 70.903 30.9369 70.8312 31.1939C70.8346 31.1939 70.8431 31.1939 70.8431 31.1939L92.8836 30.7503C92.8737 30.6933 92.8608 30.6369 92.8534 30.579C92.8271 30.3799 92.8148 30.1967 92.8148 30.0219C92.8148 27.5736 94.8061 25.5818 97.2549 25.5818C99.7038 25.5818 101.696 27.5731 101.696 30.0219C101.696 30.0314 101.695 30.0393 101.694 30.0482L101.788 30.0403L105.557 29.3308C105.557 29.3308 107 28.5624 107 26.4482C107 25.0381 106.133 24.4093 106.133 24.4093ZM84.2696 21.8154L76.0383 22.0674C76.1898 20.8341 75.4595 20.5573 75.4595 20.5573C78.7317 17.5871 85.3266 17.4866 85.3266 17.4866L84.2696 21.8154ZM93.5074 21.4386L86.0064 21.6907L86.6862 17.4871C90.563 17.4366 92.7776 18.2922 92.7776 18.2922L93.8852 20.0796L93.5074 21.4386ZM97.7362 21.4129H95.6463L93.5569 18.5437C95.1245 19.1676 96.3791 19.7825 97.1262 20.1711C97.5797 20.4068 97.8273 20.9104 97.7362 21.4129Z" fill="white"></path><defs><linearGradient id="paint0_linear_2782_3104" x1="53" y1="-10.5" x2="119" y2="80.5" gradientUnits="userSpaceOnUse"><stop stop-color="#0B33FF"></stop><stop offset="1" stop-color="#00FFE1"></stop></linearGradient></defs></svg>