<svg xmlns="http://www.w3.org/2000/svg" width="30" height="30" viewBox="0 0 30 30" fill="none"><circle cx="15" cy="15" r="15" fill="url(#paint0_linear_2611_1317)"></circle><g clip-path="url(#clip0_2611_1317)"><path d="M8.05469 21.5625C8.05466 21.6128 8.06454 21.6626 8.08377 21.709C8.103 21.7555 8.13119 21.7977 8.16675 21.8333C8.2023 21.8688 8.24451 21.897 8.29097 21.9162C8.33743 21.9355 8.38722 21.9453 8.4375 21.9453H13.7422V13.1953H8.05469V21.5625ZM9.20313 14.3438C9.20313 14.2422 9.24346 14.1449 9.31525 14.0731C9.38704 14.0013 9.48441 13.9609 9.58594 13.9609C9.68747 13.9609 9.78484 14.0013 9.85663 14.0731C9.92842 14.1449 9.96875 14.2422 9.96875 14.3438V16.9688C9.96875 17.0703 9.92842 17.1676 9.85663 17.2394C9.78484 17.3112 9.68747 17.3516 9.58594 17.3516C9.48441 17.3516 9.38704 17.3112 9.31525 17.2394C9.24346 17.1676 9.20313 17.0703 9.20313 16.9688V14.3438Z" fill="white"></path><path d="M18.2266 20.0312C19.1025 20.0312 19.8125 19.3212 19.8125 18.4453C19.8125 17.5694 19.1025 16.8594 18.2266 16.8594C17.3507 16.8594 16.6406 17.5694 16.6406 18.4453C16.6406 19.3212 17.3507 20.0312 18.2266 20.0312Z" fill="white"></path><path d="M14.5078 21.9453H21.5625C21.664 21.9453 21.7613 21.9049 21.8331 21.8331C21.9049 21.7613 21.9453 21.664 21.9453 21.5625V14.9453H14.5078V21.9453ZM18.2266 16.0938C18.6917 16.0938 19.1463 16.2317 19.533 16.4901C19.9197 16.7485 20.2211 17.1157 20.3991 17.5454C20.5771 17.9751 20.6237 18.4479 20.5329 18.9041C20.4422 19.3602 20.2182 19.7792 19.8894 20.1081C19.5605 20.437 19.1415 20.661 18.6853 20.7517C18.2292 20.8424 17.7564 20.7959 17.3267 20.6179C16.897 20.4399 16.5297 20.1385 16.2713 19.7518C16.0129 19.3651 15.875 18.9104 15.875 18.4453C15.8757 17.8219 16.1237 17.2241 16.5645 16.7833C17.0054 16.3424 17.6031 16.0944 18.2266 16.0938Z" fill="white"></path><path d="M16.2578 11.1172V8.4375C16.2578 8.38722 16.248 8.33743 16.2287 8.29097C16.2095 8.24451 16.1813 8.2023 16.1458 8.16675C16.1102 8.13119 16.068 8.103 16.0215 8.08377C15.9751 8.06454 15.9253 8.05466 15.875 8.05469H8.4375C8.38722 8.05466 8.33743 8.06454 8.29097 8.08377C8.24451 8.103 8.2023 8.13119 8.16675 8.16675C8.13119 8.2023 8.103 8.24451 8.08377 8.29097C8.06454 8.33743 8.05466 8.38722 8.05469 8.4375V12.4297H13.7422V12.2656C13.7425 11.9611 13.8636 11.6692 14.0789 11.4539C14.2942 11.2386 14.5861 11.1175 14.8906 11.1172H16.2578ZM9.96875 10.8984C9.96875 11 9.92842 11.0973 9.85663 11.1691C9.78484 11.2409 9.68747 11.2812 9.58594 11.2812C9.48441 11.2812 9.38704 11.2409 9.31525 11.1691C9.24346 11.0973 9.20313 11 9.20313 10.8984V9.58594C9.20313 9.48441 9.24346 9.38704 9.31525 9.31525C9.38704 9.24346 9.48441 9.20313 9.58594 9.20313C9.68747 9.20313 9.78484 9.24346 9.85663 9.31525C9.92842 9.38704 9.96875 9.48441 9.96875 9.58594V10.8984Z" fill="white"></path><path d="M21.5625 11.8828H14.8906C14.7891 11.8829 14.6918 11.9232 14.62 11.995C14.5482 12.0668 14.5079 12.1641 14.5078 12.2656V14.1797H21.9453V12.2656C21.9453 12.1641 21.9049 12.0668 21.8331 11.995C21.7613 11.9232 21.664 11.8829 21.5625 11.8828ZM16.0391 13.4141C15.9633 13.4141 15.8893 13.3916 15.8264 13.3495C15.7634 13.3075 15.7144 13.2477 15.6854 13.1777C15.6564 13.1078 15.6488 13.0308 15.6636 12.9566C15.6784 12.8823 15.7148 12.8141 15.7684 12.7606C15.8219 12.707 15.8901 12.6706 15.9644 12.6558C16.0386 12.641 16.1156 12.6486 16.1856 12.6776C16.2555 12.7066 16.3153 12.7556 16.3574 12.8186C16.3994 12.8815 16.4219 12.9555 16.4219 13.0312C16.4218 13.1328 16.3815 13.2301 16.3097 13.3019C16.2379 13.3737 16.1406 13.414 16.0391 13.4141ZM17.5703 13.4141C17.4946 13.4141 17.4206 13.3916 17.3576 13.3495C17.2947 13.3075 17.2456 13.2477 17.2166 13.1777C17.1877 13.1078 17.1801 13.0308 17.1949 12.9566C17.2096 12.8823 17.2461 12.8141 17.2996 12.7606C17.3532 12.707 17.4214 12.6706 17.4956 12.6558C17.5699 12.641 17.6469 12.6486 17.7168 12.6776C17.7868 12.7066 17.8465 12.7556 17.8886 12.8186C17.9307 12.8815 17.9531 12.9555 17.9531 13.0312C17.9531 13.1328 17.9127 13.2301 17.8409 13.3019C17.7692 13.3737 17.6718 13.414 17.5703 13.4141Z" fill="white"></path></g><defs><linearGradient id="paint0_linear_2611_1317" x1="15" y1="0" x2="15" y2="30" gradientUnits="userSpaceOnUse"><stop stop-color="#03E6FF"></stop><stop offset="1" stop-color="#0251B8"></stop></linearGradient><clipPath id="clip0_2611_1317"><rect width="14" height="14" fill="white" transform="translate(8 8)"></rect></clipPath></defs></svg>