<svg xmlns="http://www.w3.org/2000/svg" width="61" height="61" viewBox="0 0 61 61" fill="none"><circle cx="30.9336" cy="30.5547" r="30" fill="white"></circle><g clip-path="url(#clip0_4202_489)"><path fill-rule="evenodd" clip-rule="evenodd" d="M19.4924 41.307C19.2522 41.3439 19.0119 41.2516 18.8826 41.0483L16.8869 37.7591C16.739 37.5003 16.813 37.1492 17.0901 36.9829L19.2337 35.6894C19.363 35.597 19.5109 35.5785 19.6587 35.6155C19.8065 35.6525 19.9359 35.7449 20.0098 35.8742L22.0055 39.145C22.0794 39.2743 22.0979 39.4406 22.061 39.5885C22.024 39.7363 21.9316 39.8472 21.8022 39.9396L19.6587 41.2331C19.6033 41.27 19.5478 41.2885 19.4924 41.307Z" fill="#FBA617"></path><path fill-rule="evenodd" clip-rule="evenodd" d="M18.0881 36.3731L19.2338 35.6894C19.3632 35.597 19.511 35.5785 19.6588 35.6155C19.8067 35.6525 19.936 35.7449 20.0099 35.8742L22.0057 39.145C22.0796 39.2743 22.098 39.4406 22.0611 39.5885C22.0241 39.7363 21.9317 39.8472 21.8024 39.9396L20.6752 40.6233L18.0881 36.3731Z" fill="#FB9515"></path><path fill-rule="evenodd" clip-rule="evenodd" d="M44.2171 35.615C44.1986 35.615 44.1801 35.615 44.1617 35.615L27.4568 37.4629C27.235 37.4814 27.0133 37.3705 26.9024 37.1857L24.0197 32.4367C23.9088 32.2334 23.9088 31.9932 24.0382 31.8084L33.37 17.8568C33.4809 17.6905 33.6657 17.5981 33.8689 17.5981C34.0537 17.5981 34.2385 17.709 34.3309 17.8753L44.5312 34.6726C44.5867 34.7465 44.6421 34.8389 44.6606 34.9313C44.716 35.2455 44.5312 35.5411 44.2171 35.5966V35.615Z" fill="#FBA617"></path><path fill-rule="evenodd" clip-rule="evenodd" d="M29.1568 37.2784L27.4568 37.4632C27.235 37.4817 27.0133 37.3708 26.9024 37.186L24.0197 32.437C23.9088 32.2337 23.9088 31.9935 24.0382 31.8087L24.9806 30.4043C25.0176 30.4597 25.073 30.5152 25.11 30.5706L29.046 37.0752C29.0829 37.1306 29.1199 37.2045 29.1568 37.2784Z" fill="#FB9515"></path><path fill-rule="evenodd" clip-rule="evenodd" d="M28.048 46.8507C27.8263 46.8877 27.5676 46.7953 27.4567 46.5736L23.6685 40.3462C23.5022 40.069 23.5946 39.7364 23.8533 39.5701L25.9599 38.2766C26.0892 38.2026 26.2556 38.1842 26.3849 38.2211C26.5327 38.2581 26.6621 38.3505 26.736 38.4798L30.5242 44.7072C30.6166 44.8365 30.635 45.0029 30.5981 45.1322C30.5611 45.28 30.4687 45.4094 30.3394 45.4833L28.2328 46.7768C28.1774 46.8138 28.1034 46.8323 28.048 46.8507Z" fill="#E1474F"></path><path fill-rule="evenodd" clip-rule="evenodd" d="M24.3522 41.4734L23.6685 40.3462C23.5022 40.069 23.5946 39.7364 23.8533 39.5701L25.9599 38.2766C26.0892 38.2026 26.2556 38.1842 26.3849 38.2211C26.5327 38.2581 26.6621 38.3505 26.736 38.4798L27.4382 39.607L24.3522 41.4734Z" fill="#CB4047"></path><path fill-rule="evenodd" clip-rule="evenodd" d="M22.5969 41.6207C22.523 41.6392 22.4306 41.6207 22.3566 41.6022C22.2088 41.5653 22.0795 41.4729 22.0055 41.3435L18.0695 34.8575C17.9772 34.7281 17.9587 34.5618 17.9956 34.414C18.0326 34.2846 18.125 34.1553 18.2543 34.0629L23.6871 30.7736C23.9458 30.6073 24.2969 30.6997 24.4632 30.9769L28.3992 37.463C28.5655 37.7402 28.4731 38.0913 28.2144 38.2576L22.7817 41.5468C22.7262 41.5838 22.6708 41.6022 22.5969 41.6207Z" fill="#FEE14D"></path><path fill-rule="evenodd" clip-rule="evenodd" d="M43.6074 34.5432C43.5889 34.5616 43.5704 34.5616 43.5519 34.5616L40.2442 35.8921L31.5776 20.8688L33.7212 17.6535C33.8321 17.4872 34.0168 17.3948 34.2016 17.3948C34.4049 17.3948 34.5712 17.5056 34.6821 17.672L43.9215 33.6192C43.977 33.6931 44.0324 33.7855 44.0509 33.8779C44.1063 34.1921 43.9215 34.4877 43.6074 34.5432Z" fill="#FB9515"></path><path fill-rule="evenodd" clip-rule="evenodd" d="M43.6998 36.5761C42.6465 37.1859 41.2975 36.8348 40.6692 35.763L31.9472 20.6658C31.3374 19.594 31.707 18.245 32.7603 17.6352C33.8321 17.007 35.181 17.3765 35.7908 18.4483L44.5128 33.5455C45.1411 34.5988 44.7715 35.9663 43.6998 36.5761Z" fill="#FEE14D"></path><path fill-rule="evenodd" clip-rule="evenodd" d="M40.0223 22.126C39.9669 22.126 39.9114 22.1076 39.856 22.0891C39.6712 21.9967 39.5973 21.7749 39.6897 21.6086L41.6854 17.5063C41.7778 17.3215 41.9995 17.2476 42.1843 17.3215C42.3691 17.4139 42.443 17.6357 42.3506 17.8205L40.3364 21.9228C40.281 22.0521 40.1517 22.126 40.0223 22.126Z" fill="#CCCCCC"></path><path fill-rule="evenodd" clip-rule="evenodd" d="M47.9868 28.3347H47.9683L43.404 28.0391C43.2007 28.0206 43.0529 27.8543 43.0714 27.651C43.0899 27.4478 43.2377 27.2999 43.4594 27.2999L48.0052 27.6141C48.2085 27.6141 48.3563 27.7989 48.3563 28.0021C48.3379 28.1869 48.1715 28.3347 47.9868 28.3347Z" fill="#CCCCCC"></path><path fill-rule="evenodd" clip-rule="evenodd" d="M41.4636 25.378C41.3343 25.378 41.2234 25.3041 41.1495 25.1932C41.0571 25.0084 41.1125 24.7867 41.2788 24.6943L44.8822 22.6062C45.0485 22.5138 45.2703 22.5692 45.3812 22.7355C45.4735 22.9203 45.4181 23.142 45.2518 23.2344L41.6484 25.3225C41.593 25.3595 41.5191 25.378 41.4636 25.378Z" fill="#CCCCCC"></path></g><rect x="15.1582" y="19.5686" width="14.8019" height="14.8019" rx="7.40093" fill="#039D55"></rect><rect x="15.1582" y="19.5686" width="14.8019" height="14.8019" rx="7.40093" stroke="white" stroke-width="0.75"></rect><path d="M22.5591 29.7778C21.9092 29.7778 21.3172 29.3726 21.0857 28.7694C20.9552 28.4296 21.1099 28.0419 21.431 27.9037C21.7513 27.7651 22.118 27.9288 22.2485 28.2693C22.2886 28.3733 22.4191 28.4488 22.5591 28.4488C22.8142 28.4488 23.0297 28.274 23.0297 28.0673V28.016C23.0297 27.8044 22.5999 27.653 22.4518 27.6247C21.8533 27.5191 20.8333 27.0409 20.8333 25.9239V25.8726C20.8333 24.9296 21.6075 24.1621 22.5591 24.1621C23.2089 24.1621 23.8009 24.5672 24.0324 25.1705C24.1629 25.5103 24.0083 25.8979 23.6871 26.0362C23.3666 26.1744 22.9999 26.0109 22.8696 25.6706C22.8295 25.5666 22.699 25.4911 22.5591 25.4911C22.3039 25.4911 22.0884 25.6659 22.0884 25.8726V25.9239C22.0884 26.1354 22.5182 26.2869 22.6663 26.3152C23.2649 26.4207 24.2849 26.899 24.2849 28.016V28.0673C24.2849 29.0103 23.5106 29.7778 22.5591 29.7778Z" fill="white"></path><path d="M22.559 25.4908C22.2123 25.4908 21.9314 25.1934 21.9314 24.8263V23.8687C21.9314 23.5016 22.2123 23.2042 22.559 23.2042C22.9056 23.2042 23.1865 23.5016 23.1865 23.8687V24.8263C23.1865 25.1934 22.9056 25.4908 22.559 25.4908Z" fill="white"></path><path d="M22.559 30.7352C22.2123 30.7352 21.9314 30.4377 21.9314 30.0707V29.1131C21.9314 28.746 22.2123 28.4486 22.559 28.4486C22.9056 28.4486 23.1865 28.746 23.1865 29.1131V30.0707C23.1865 30.4377 22.9056 30.7352 22.559 30.7352Z" fill="white"></path><defs><clipPath id="clip0_4202_489"><rect width="31.5434" height="31.5434" fill="white" transform="translate(16.813 16.3047)"></rect></clipPath></defs></svg>