<svg xmlns="http://www.w3.org/2000/svg" width="31" height="31" viewBox="0 0 31 31" fill="none"><circle cx="15.6719" cy="15.1602" r="15" fill="url(#paint0_linear_2904_8717)"></circle><g clip-path="url(#clip0_2904_8717)"><path d="M7.64844 20.5664V22.1625C7.64844 22.3696 7.81634 22.5375 8.02347 22.5375H9.50109C9.70822 22.5375 9.87612 22.3696 9.87612 22.1625V20.9211H8.72862C8.33605 20.9211 7.96063 20.7955 7.64844 20.5664Z" fill="white"></path><path d="M22.4688 20.9211V22.1625C22.4688 22.3696 22.6367 22.5375 22.8438 22.5375H24.3214C24.5285 22.5375 24.6964 22.3696 24.6964 22.1625V20.5664C24.3842 20.7955 24.0088 20.9211 23.6161 20.9211H22.4688Z" fill="white"></path><path d="M7.30611 15.7698V19.0919C7.30611 19.4822 7.46662 19.8554 7.74998 20.1238C8.01402 20.374 8.3639 20.5134 8.7276 20.5134H16.1718H23.6161C23.9798 20.5134 24.3297 20.374 24.5937 20.1238C24.8771 19.8554 25.0376 19.4822 25.0376 19.0919V15.7698C25.0376 15.1617 24.8843 14.5634 24.5919 14.0303L23.8365 12.6527H24.8996C25.2626 12.6527 25.2626 11.3326 24.8996 11.3326H23.1126L21.6256 8.62105C21.37 8.15495 20.8843 7.8615 20.3528 7.852L16.1718 7.77734L11.9909 7.852C11.4594 7.8615 10.9737 8.15495 10.7181 8.62105L9.23112 11.3326H7.44415C7.08112 11.3326 7.08112 12.6527 7.44415 12.6527H8.50719L7.75178 14.0303C7.45939 14.5634 7.30611 15.1617 7.30611 15.7698ZM18.7486 19.3303C18.7486 19.4794 18.6278 19.6003 18.4786 19.6003H13.8651C13.716 19.6003 13.5951 19.4794 13.5951 19.3303V18.6457C13.5951 18.4966 13.716 18.3757 13.8651 18.3757H18.4786C18.6278 18.3757 18.7486 18.4966 18.7486 18.6457V19.3303ZM23.3637 15.7783C23.2651 15.8248 23.1592 15.8502 23.0566 15.8565L20.9079 15.9809C20.6787 15.9942 20.4822 15.8192 20.4689 15.59C20.4589 15.4158 20.5579 15.2604 20.7066 15.1901L22.6532 14.2719C23.0692 14.0757 23.5655 14.2539 23.7617 14.6698C23.9579 15.0858 23.7797 15.5821 23.3637 15.7783ZM11.3155 8.94867C11.4536 8.69685 11.716 8.5383 12.0032 8.53317L16.1718 8.45879L20.3407 8.53317C20.6278 8.5383 20.8901 8.69681 21.0282 8.94858L23.1685 12.8515C23.2639 13.0253 23.1381 13.2378 22.9398 13.2378H9.40398C9.2057 13.2378 9.07992 13.0253 9.17525 12.8515L11.3155 8.94867ZM8.50385 14.977C8.53043 14.5178 8.92422 14.1671 9.38338 14.1937C9.49222 14.2 9.59744 14.2284 9.69051 14.2719L11.6371 15.1901C11.8447 15.288 11.9337 15.5357 11.8357 15.7433C11.7613 15.9011 11.6 15.9902 11.4358 15.9809L9.28711 15.8565C8.82793 15.8299 8.47725 15.4361 8.50385 14.977Z" fill="white"></path><path d="M15.0977 8.76562H17.2428V9.30563H15.0977V8.76562Z" fill="white"></path></g><defs><linearGradient id="paint0_linear_2904_8717" x1="15.6719" y1="0.160156" x2="15.6719" y2="30.1602" gradientUnits="userSpaceOnUse"><stop stop-color="#E787FF"></stop><stop offset="1" stop-color="#001F83"></stop></linearGradient><clipPath id="clip0_2904_8717"><rect width="18" height="18" fill="white" transform="translate(7.17188 6.16016)"></rect></clipPath></defs></svg>