<svg xmlns="http://www.w3.org/2000/svg" width="35" height="34" viewBox="0 0 35 34" fill="none"><circle cx="17.6719" cy="17.1602" r="15" fill="url(#paint0_linear_2904_8717)"></circle><g clip-path="url(#clip0_2904_8717)"><path d="M9.64844 22.5664V24.1625C9.64844 24.3696 9.81634 24.5375 10.0235 24.5375H11.5011C11.7082 24.5375 11.8761 24.3696 11.8761 24.1625V22.9211H10.7286C10.3361 22.9211 9.96063 22.7955 9.64844 22.5664Z" fill="white"></path><path d="M24.4688 22.9211V24.1625C24.4688 24.3696 24.6367 24.5375 24.8438 24.5375H26.3214C26.5285 24.5375 26.6964 24.3696 26.6964 24.1625V22.5664C26.3842 22.7955 26.0088 22.9211 25.6161 22.9211H24.4688Z" fill="white"></path><path d="M9.30611 17.7698V21.0919C9.30611 21.4822 9.46662 21.8554 9.74998 22.1238C10.014 22.374 10.3639 22.5134 10.7276 22.5134H18.1718H25.6161C25.9798 22.5134 26.3297 22.374 26.5937 22.1238C26.8771 21.8554 27.0376 21.4822 27.0376 21.0919V17.7698C27.0376 17.1617 26.8843 16.5634 26.5919 16.0303L25.8365 14.6527H26.8996C27.2626 14.6527 27.2626 13.3326 26.8996 13.3326H25.1126L23.6256 10.621C23.37 10.155 22.8843 9.8615 22.3528 9.852L18.1718 9.77734L13.9909 9.852C13.4594 9.8615 12.9737 10.155 12.7181 10.621L11.2311 13.3326H9.44415C9.08112 13.3326 9.08112 14.6527 9.44415 14.6527H10.5072L9.75178 16.0303C9.45939 16.5634 9.30611 17.1617 9.30611 17.7698ZM20.7486 21.3303C20.7486 21.4794 20.6278 21.6003 20.4786 21.6003H15.8651C15.716 21.6003 15.5951 21.4794 15.5951 21.3303V20.6457C15.5951 20.4966 15.716 20.3757 15.8651 20.3757H20.4786C20.6278 20.3757 20.7486 20.4966 20.7486 20.6457V21.3303ZM25.3637 17.7783C25.2651 17.8248 25.1592 17.8502 25.0566 17.8565L22.9079 17.9809C22.6787 17.9942 22.4822 17.8192 22.4689 17.59C22.4589 17.4158 22.5579 17.2604 22.7066 17.1901L24.6532 16.2719C25.0692 16.0757 25.5655 16.2539 25.7617 16.6698C25.9579 17.0858 25.7797 17.5821 25.3637 17.7783ZM13.3155 10.9487C13.4536 10.6968 13.716 10.5383 14.0032 10.5332L18.1718 10.4588L22.3407 10.5332C22.6278 10.5383 22.8901 10.6968 23.0282 10.9486L25.1685 14.8515C25.2639 15.0253 25.1381 15.2378 24.9398 15.2378H11.404C11.2057 15.2378 11.0799 15.0253 11.1753 14.8515L13.3155 10.9487ZM10.5038 16.977C10.5304 16.5178 10.9242 16.1671 11.3834 16.1937C11.4922 16.2 11.5974 16.2284 11.6905 16.2719L13.6371 17.1901C13.8447 17.288 13.9337 17.5357 13.8357 17.7433C13.7613 17.9011 13.6 17.9902 13.4358 17.9809L11.2871 17.8565C10.8279 17.8299 10.4773 17.4361 10.5038 16.977Z" fill="white"></path><path d="M17.0977 10.7656H19.2428V11.3056H17.0977V10.7656Z" fill="white"></path></g><defs><linearGradient id="paint0_linear_2904_8717" x1="17.6719" y1="2.16016" x2="17.6719" y2="32.1602" gradientUnits="userSpaceOnUse"><stop stop-color="#E787FF"></stop><stop offset="1" stop-color="#001F83"></stop></linearGradient><clipPath id="clip0_2904_8717"><rect width="18" height="18" fill="white" transform="translate(9.17188 8.16016)"></rect></clipPath></defs></svg>