<svg xmlns="http://www.w3.org/2000/svg" width="61" height="61" viewBox="0 0 61 61" fill="none"><circle cx="30.9336" cy="30.5547" r="30" fill="white"></circle><g clip-path="url(#clip0_4202_433)"><path d="M45.4477 20.8534C45.0151 20.6406 44.4865 20.8122 44.2684 21.2465L40.9371 27.8506H35.1702C34.8234 27.8506 34.5093 28.054 34.3685 28.3698C34.2878 28.5501 34.1676 28.6891 33.996 28.7844C33.9016 28.841 33.6081 29.0152 32.8373 28.7835C32.5214 28.6882 32.1678 28.7818 31.9412 29.0273C31.694 29.2925 31.3198 29.6083 30.9336 29.6083C30.5473 29.6083 30.1731 29.2925 29.926 29.0273C29.6994 28.7818 29.3475 28.6899 29.0299 28.7835C28.2557 29.0161 27.9656 28.8427 27.8454 28.7698C27.6995 28.6891 27.5793 28.5501 27.4987 28.3698C27.3579 28.054 27.0437 27.8506 26.697 27.8506H20.9299L17.5987 21.2465C17.3806 20.8122 16.8553 20.6389 16.4193 20.8534C15.985 21.0706 15.81 21.5985 16.0262 22.0327L19.5078 28.9372V44.6758C19.5078 45.1616 19.9009 45.5547 20.3867 45.5547H41.4804C41.9662 45.5547 42.3593 45.1616 42.3593 44.6758V28.9372L45.8408 22.0327C46.0571 21.5985 45.882 21.0706 45.4477 20.8534Z" fill="#DBA465"></path><path d="M34.251 38.2159H39.5244C40.0102 38.2159 40.4033 38.609 40.4033 39.0948V42.6105C40.4033 43.0963 40.0102 43.4894 39.5244 43.4894H34.251C33.7652 43.4894 33.3721 43.0963 33.3721 42.6105V39.0948C33.3721 38.609 33.7652 38.2159 34.251 38.2159Z" fill="white"></path><path d="M26.8288 16.3405L26.8288 16.3405L26.8274 16.3414C26.3721 16.6069 25.8254 17.0999 25.479 18.0015C24.5804 18.3468 24.0865 18.8912 23.8358 19.3335C23.4655 19.964 23.3453 20.6622 23.4767 21.4567C22.9882 22.0694 22.7234 22.7473 22.7234 23.4561C22.7234 24.1648 22.9882 24.8427 23.4766 25.4553C23.3457 26.2472 23.4643 26.945 23.8354 27.5605C24.0872 28.022 24.5822 28.5656 25.4775 28.9101C25.7197 29.5521 26.1631 30.203 26.8136 30.5554C27.4435 30.9243 28.1407 31.0441 28.9341 30.9129C29.547 31.4013 30.2248 31.6662 30.9336 31.6662C31.6435 31.6662 32.3222 31.4006 32.9358 30.9107C33.7191 31.0269 34.4157 30.9287 35.0186 30.5728C35.7215 30.1939 36.177 29.5164 36.3938 28.9085C37.2888 28.5631 37.7812 28.0201 38.0313 27.5787C38.4017 26.9481 38.5219 26.2499 38.3905 25.4553C38.879 24.8427 39.1437 24.1648 39.1437 23.4561C39.1437 22.7473 38.8789 22.0694 38.3906 21.4567C38.5215 20.6648 38.4029 19.967 38.0318 19.3516C37.7798 18.8898 37.2844 18.3459 36.3882 18.0015C36.0429 17.1029 35.4985 16.6089 35.0561 16.3583C34.4255 15.9881 33.7274 15.8677 32.9328 15.9992C32.317 15.5099 31.6315 15.2547 30.9336 15.2547C30.2356 15.2547 29.5502 15.5099 28.9343 15.9992C28.1401 15.8677 27.4432 15.9869 26.8288 16.3405ZM32.6914 20.2404C33.018 20.2404 33.2703 20.4928 33.2703 20.8193C33.2703 21.1459 33.018 21.3982 32.6914 21.3982C32.3648 21.3982 32.1125 21.1459 32.1125 20.8193C32.1125 20.4928 32.3648 20.2404 32.6914 20.2404ZM29.1758 26.6717C28.8492 26.6717 28.5969 26.4192 28.5969 26.0928C28.5969 25.7662 28.8492 25.5139 29.1758 25.5139C29.5023 25.5139 29.7547 25.7662 29.7547 26.0928C29.7547 26.4192 29.5023 26.6717 29.1758 26.6717ZM32.2 26.4142L28.6888 21.1476C28.6886 21.1472 28.6884 21.1469 28.6881 21.1465C28.5155 20.8807 28.5821 20.5199 28.8512 20.33C29.1171 20.1593 29.4771 20.2269 29.6661 20.4962L33.1783 25.7646C33.1786 25.7649 33.1788 25.7653 33.179 25.7656C33.3499 26.0287 33.2864 26.3847 33.0244 26.5762C32.6823 26.7588 32.3738 26.6548 32.2 26.4142Z" fill="#039D55" stroke="white" stroke-width="0.6"></path></g><defs><clipPath id="clip0_4202_433"><rect width="30" height="30" fill="white" transform="translate(15.9336 15.5547)"></rect></clipPath></defs></svg>