<svg xmlns="http://www.w3.org/2000/svg" width="61" height="61" viewBox="0 0 61 61" fill="none"><circle cx="30.9336" cy="30.5547" r="30" fill="white"></circle><g clip-path="url(#clip0_4202_448)"><path d="M44.955 39.7369L38.1193 44.0988C37.0285 44.7948 35.774 45.1572 34.4986 45.1573C34.1185 45.1573 33.7367 45.1251 33.3566 45.06L25.9843 43.7969H23.0234V34.1692C24.1982 33.9091 25.476 33.6261 25.476 33.6261C26.4107 33.4192 27.3597 33.4126 28.2972 33.6063L34.6985 34.9298C35.8685 35.1718 36.6446 36.2871 36.4647 37.4683C36.2806 38.6765 35.1645 39.5161 33.9527 39.3578L31.0508 39.4609L29.5275 38.78L34.6332 39.4467C35.0448 39.5004 35.4634 39.4439 35.846 39.2828L43.1119 36.2242C44.0366 35.835 45.1064 36.1947 45.608 37.0636C46.1405 37.9859 45.8527 39.164 44.955 39.7369Z" fill="#FFDABF"></path><path d="M36.6508 40.3304C37.3215 39.8259 37.8068 39.1376 38.057 38.3522L35.846 39.2829C35.4634 39.4439 35.0449 39.5004 34.6332 39.4467L29.5275 38.78L27.3366 38.4939C26.8553 38.431 26.4141 38.7702 26.3512 39.2516C26.2884 39.7329 26.6276 40.174 27.109 40.2369L33.725 41.1009C33.9006 41.1238 34.0761 41.1351 34.2504 41.1351C35.1135 41.1351 35.9504 40.8572 36.6508 40.3304Z" fill="#F5BD93"></path><path d="M44.1172 24.0508C44.1172 19.366 40.3058 15.5547 35.6211 15.5547C30.9363 15.5547 27.125 19.366 27.125 24.0508C27.125 28.7355 30.9363 32.5469 35.6211 32.5469C40.3058 32.5469 44.1172 28.7355 44.1172 24.0508Z" fill="#FFC545"></path><path d="M35.621 27.6725C34.6966 27.6725 33.8544 27.1282 33.5252 26.3178C33.3395 25.8613 33.5595 25.3405 34.0163 25.1548C34.4719 24.9685 34.9936 25.1885 35.1793 25.6459C35.2362 25.7857 35.4219 25.8871 35.621 25.8871C35.9839 25.8871 36.2905 25.6523 36.2905 25.3745V25.3056C36.2905 25.0214 35.6791 24.818 35.4684 24.78C34.617 24.6381 33.166 23.9956 33.166 22.495V22.4261C33.166 21.1591 34.2674 20.1281 35.621 20.1281C36.5453 20.1281 37.3875 20.6724 37.7167 21.4829C37.9024 21.9394 37.6824 22.4601 37.2256 22.6458C36.7697 22.8315 36.2481 22.6118 36.0627 22.1547C36.0057 22.0149 35.82 21.9135 35.621 21.9135C35.258 21.9135 34.9514 22.1483 34.9514 22.4261V22.495C34.9514 22.7792 35.5628 22.9826 35.7735 23.0207C36.625 23.1625 38.0759 23.805 38.0759 25.3056V25.3745C38.0759 26.6415 36.9745 27.6725 35.621 27.6725Z" fill="white"></path><path d="M35.621 21.9135C35.1278 21.9135 34.7283 21.5139 34.7283 21.0208V19.7343C34.7283 19.2412 35.1278 18.8416 35.621 18.8416C36.1141 18.8416 36.5137 19.2412 36.5137 19.7343V21.0208C36.5137 21.5139 36.1141 21.9135 35.621 21.9135Z" fill="white"></path><path d="M35.621 28.9589C35.1278 28.9589 34.7283 28.5593 34.7283 28.0662V26.7797C34.7283 26.2866 35.1278 25.887 35.621 25.887C36.1141 25.887 36.5137 26.2866 36.5137 26.7797V28.0662C36.5137 28.5593 36.1141 28.9589 35.621 28.9589Z" fill="white"></path><path d="M23.0234 44.6758V33.543C23.0234 33.0576 22.6299 32.6641 22.1445 32.6641H16.8711C16.3857 32.6641 15.9922 33.0576 15.9922 33.543V44.6758C15.9922 45.1612 16.3857 45.5547 16.8711 45.5547H22.1445C22.6299 45.5547 23.0234 45.1612 23.0234 44.6758Z" fill="#039D55"></path></g><defs><clipPath id="clip0_4202_448"><rect width="30" height="30" fill="white" transform="translate(15.9336 15.5547)"></rect></clipPath></defs></svg>