<svg xmlns="http://www.w3.org/2000/svg" width="61" height="61" viewBox="0 0 61 61" fill="none"><circle cx="30.9336" cy="30.5547" r="30" fill="white"></circle><g clip-path="url(#clip0_4202_417)"><path d="M38.2652 33.6758H40.023C40.5088 33.6758 40.9019 33.2827 40.9019 32.7969V24.0081C40.9019 22.5541 39.7191 21.3714 38.2652 21.3714H20.5703C19.1163 21.3714 17.9336 22.5541 17.9336 24.0081V34.5547C17.9336 36.0086 19.1163 37.1914 20.5703 37.1914H34.7496C35.2354 37.1914 35.6285 36.7983 35.6285 36.3125V33.6758H38.2652Z" fill="#039D55"></path><path d="M47.0541 38.6984C47.4056 38.6984 47.722 38.9093 47.8626 39.2433C48.0033 39.5773 47.933 39.9464 47.6692 40.1924L40.6381 47.2235C40.4799 47.3994 40.2514 47.4873 40.0229 47.4873C39.7944 47.4873 39.5659 47.3994 39.4078 47.2235L32.3767 40.1924C32.113 39.9464 32.0427 39.5773 32.1832 39.2433C32.3239 38.9093 32.6403 38.6984 32.9919 38.6984H33.8708V32.5462C33.8708 32.0539 34.2574 31.6673 34.7496 31.6673H45.2963C45.7885 31.6673 46.1752 32.0539 46.1752 32.5462V38.6984H47.0541Z" fill="#FFC545"></path><path d="M39.144 36.0617C39.144 35.5695 38.7574 35.1829 38.2651 35.1829C37.7729 35.1829 37.3862 35.5695 37.3862 36.0617C37.3862 36.5539 37.7729 36.9406 38.2651 36.9406C38.7574 36.9406 39.144 36.5539 39.144 36.0617Z" fill="white"></path><path d="M38.2651 41.3351C38.5288 41.3351 38.7748 41.2296 38.9507 41.0011L42.4662 36.6067C42.7651 36.2375 42.7123 35.675 42.3256 35.3762C41.9564 35.0774 41.394 35.1301 41.0951 35.5168L37.5795 39.9113C37.2808 40.2803 37.3334 40.8428 37.7202 41.1417C37.8785 41.2647 38.0718 41.3351 38.2651 41.3351Z" fill="white"></path><path d="M40.9018 40.4562C40.9018 40.9483 41.2884 41.3351 41.7807 41.3351C42.2729 41.3351 42.6596 40.9483 42.6596 40.4562C42.6596 39.964 42.2729 39.5773 41.7807 39.5773C41.2884 39.5773 40.9018 39.964 40.9018 40.4562Z" fill="white"></path><path d="M22.3281 26.6447H36.5075C36.9933 26.6447 37.3864 26.2516 37.3864 25.7659C37.3864 25.2801 36.9933 24.887 36.5075 24.887H22.3281C21.8423 24.887 21.4492 25.2801 21.4492 25.7659C21.4492 26.2516 21.8423 26.6447 22.3281 26.6447ZM24.0859 31.9181H22.3281C21.8423 31.9181 21.4492 32.3112 21.4492 32.797C21.4492 33.2827 21.8423 33.6758 22.3281 33.6758H24.0859C24.5717 33.6758 24.9648 33.2827 24.9648 32.797C24.9648 32.3112 24.5717 31.9181 24.0859 31.9181Z" fill="white"></path></g><defs><clipPath id="clip0_4202_417"><rect width="30" height="30" fill="white" transform="translate(17.9336 19.5547)"></rect></clipPath></defs></svg>