<svg xmlns="http://www.w3.org/2000/svg" width="22" height="22" viewBox="0 0 22 22" fill="none"><rect width="22" height="22" rx="11" fill="url(#paint0_linear_1486_14684)"></rect><path d="M11 12.0547C11.5825 12.0547 12.0547 11.5825 12.0547 11C12.0547 10.4175 11.5825 9.94531 11 9.94531C10.4175 9.94531 9.94531 10.4175 9.94531 11C9.94531 11.5825 10.4175 12.0547 11 12.0547Z" fill="url(#paint1_linear_1486_14684)"></path><path d="M15.0226 11C15.1754 10.8421 15.3319 10.6842 15.4617 10.5266C16.2826 9.52887 16.536 8.63588 16.1758 8.01172C15.7115 7.20671 14.4674 7.14127 13.0152 7.50978C12.6083 6.06805 11.9297 5 10.9999 5C10.0702 5 9.39143 6.068 8.9846 7.50966C7.53267 7.14127 6.28882 7.2068 5.82396 8.01172C5.46382 8.63588 5.71717 9.52885 6.53807 10.5266C6.66785 10.6842 6.82441 10.8422 6.97722 11C6.82441 11.1579 6.66785 11.3158 6.53807 11.4734C5.7172 12.4711 5.46382 13.3641 5.82396 13.9883C6.37474 14.9424 7.91111 14.7612 8.98425 14.4891C9.39107 15.9314 10.0699 17 10.9999 17C11.9299 17 12.6087 15.9314 13.0155 14.4891C14.0885 14.7612 15.625 14.9425 16.1758 13.9883C16.536 13.3641 16.2826 12.4711 15.4617 11.4734C15.3319 11.3158 15.1754 11.1579 15.0226 11ZM6.433 13.6367C6.23559 13.2951 6.47798 12.6534 7.08086 11.9201C7.19978 11.7756 7.34442 11.6304 7.48488 11.4854C7.82575 11.7906 8.19822 12.0899 8.60599 12.3786C8.65225 12.8703 8.72271 13.351 8.81772 13.8067C7.5862 14.117 6.67326 14.0527 6.433 13.6367ZM8.54749 11.4622C8.35141 11.3099 8.17141 11.1558 7.9956 11C8.17143 10.8442 8.35141 10.6901 8.54749 10.5378C8.53614 10.8985 8.53612 11.1007 8.54749 11.4622ZM8.60599 9.62138C8.1982 9.91006 7.82575 10.2094 7.48488 10.5146C7.34442 10.3696 7.19978 10.2244 7.08086 10.0799C6.47798 9.34655 6.23561 8.70488 6.433 8.36328C6.57274 8.12124 6.93975 7.9973 7.46503 7.9973C7.84235 7.9973 8.30282 8.06288 8.81784 8.1927C8.7228 8.64859 8.6523 9.12945 8.60599 9.62138ZM12.6293 9.11902C12.3664 8.95632 12.3755 8.9398 11.8259 8.64502C12.0585 8.55085 12.2864 8.46516 12.5066 8.39195C12.5539 8.62255 12.5942 8.86646 12.6293 9.11902ZM10.9999 5.70312C11.4802 5.70312 11.9923 6.4853 12.3394 7.7071C11.8983 7.85232 11.4479 8.0311 11 8.2362C10.552 8.03108 10.1016 7.85225 9.66046 7.70701C10.0076 6.48526 10.5196 5.70312 10.9999 5.70312ZM9.49326 8.3919C9.71346 8.46512 9.94134 8.55083 10.1741 8.64498C9.62685 8.93834 9.6295 8.95873 9.37052 9.11902C9.40563 8.86646 9.44594 8.62255 9.49326 8.3919ZM9.37052 12.881C9.7215 13.0982 9.57325 13.0305 10.1782 13.3547C9.94415 13.4495 9.71486 13.5357 9.49352 13.6093C9.4461 13.3784 9.40567 13.134 9.37052 12.881ZM10.9999 16.2969C10.5196 16.2969 10.0076 15.5147 9.66046 14.293C10.1015 14.1478 10.5521 13.9717 10.9999 13.7667C11.4477 13.9717 11.8983 14.1478 12.3393 14.293C11.9922 15.5147 11.4802 16.2969 10.9999 16.2969ZM12.5063 13.6093C12.2849 13.5357 12.0557 13.4495 11.8216 13.3547C12.4281 13.0296 12.2736 13.1011 12.6292 12.881C12.5941 13.134 12.5537 13.3783 12.5063 13.6093ZM12.7219 11.9938C12.4515 12.1756 12.1715 12.3533 11.8788 12.5223C11.5822 12.6936 11.2888 12.8475 10.9999 12.9885C10.711 12.8475 10.4176 12.6936 10.121 12.5223C9.82825 12.3533 9.54829 12.1756 9.27787 11.9938C9.25546 11.6733 9.24208 11.3423 9.24208 11C9.24208 10.6577 9.25546 10.3267 9.27787 10.0062C9.54827 9.82445 9.82825 9.6467 10.121 9.47769C10.4181 9.30615 10.7106 9.15556 10.9999 9.01447C11.2892 9.15559 11.5818 9.30617 11.8788 9.47769C12.1715 9.6467 12.4515 9.82445 12.7219 10.0062C12.7443 10.3267 12.7577 10.6577 12.7577 11C12.7577 11.3423 12.7443 11.6733 12.7219 11.9938ZM14.5347 7.9973C15.06 7.9973 15.427 8.12124 15.5668 8.36328C15.7642 8.70488 15.5218 9.34655 14.9189 10.0799C14.8 10.2244 14.6553 10.3696 14.5149 10.5146C14.174 10.2094 13.8015 9.91009 13.3938 9.62138C13.3475 9.12948 13.277 8.64863 13.1819 8.19273C13.6969 8.06293 14.1574 7.9973 14.5347 7.9973ZM13.4523 10.5378C13.6484 10.6901 13.8284 10.8442 14.0042 11C13.8284 11.1558 13.6484 11.3099 13.4523 11.4622C13.4636 11.1015 13.4637 10.8993 13.4523 10.5378ZM15.5668 13.6367C15.3269 14.0527 14.4138 14.117 13.1821 13.8067C13.2771 13.351 13.3476 12.8703 13.3938 12.3786C13.8016 12.0899 14.174 11.7906 14.5149 11.4854C14.6554 11.6304 14.8 11.7756 14.9189 11.9201C15.5218 12.6534 15.7642 13.2951 15.5668 13.6367Z" fill="url(#paint2_linear_1486_14684)"></path><defs><linearGradient id="paint0_linear_1486_14684" x1="11" y1="22" x2="11" y2="0" gradientUnits="userSpaceOnUse"><stop stop-color="#5558FF"></stop><stop offset="1" stop-color="#00C0FF"></stop></linearGradient><linearGradient id="paint1_linear_1486_14684" x1="11" y1="12.0547" x2="11" y2="9.94531" gradientUnits="userSpaceOnUse"><stop stop-color="#ADDCFF"></stop><stop offset="0.5028" stop-color="#EAF6FF"></stop><stop offset="1" stop-color="#EAF6FF"></stop></linearGradient><linearGradient id="paint2_linear_1486_14684" x1="10.9999" y1="17" x2="10.9999" y2="5" gradientUnits="userSpaceOnUse"><stop stop-color="#ADDCFF"></stop><stop offset="0.5028" stop-color="#EAF6FF"></stop><stop offset="1" stop-color="#EAF6FF"></stop></linearGradient></defs></svg>