<svg xmlns="http://www.w3.org/2000/svg" width="61" height="61" viewBox="0 0 61 61" fill="none"><circle cx="30.9336" cy="30.5547" r="30" fill="white"></circle><g clip-path="url(#clip0_4202_464)"><rect x="15.8254" y="18.1818" width="30.2644" height="23.8388" rx="1.28858" fill="#EC9407"></rect><rect x="15.8254" y="18.1818" width="30.2644" height="23.8388" rx="1.28858" fill="#FFC545"></rect><rect x="20.4575" y="18.1818" width="21" height="23.8388" rx="1.28858" fill="#EC9407" fill-opacity="0.41"></rect><rect x="22.114" y="14.9333" width="17.6874" height="31.597" rx="1.28858" fill="#FFC545"></rect><path d="M35.4477 26.5575H26.4276C25.8938 26.5575 25.4612 26.1249 25.4612 25.591V19.1481C25.4612 18.7819 25.6679 18.4475 25.9954 18.2836C26.3229 18.1203 26.7148 18.1553 27.0074 18.3748L28.9139 19.805L30.2534 18.4648C30.6309 18.0873 31.2428 18.0876 31.6203 18.4645L32.9611 19.8047L34.8679 18.3748C35.1611 18.1553 35.5528 18.1207 35.8799 18.2836C36.2074 18.4475 36.4141 18.7819 36.4141 19.1481V25.591C36.4141 26.1249 35.9816 26.5575 35.4477 26.5575ZM27.3941 24.6246H34.4813V21.0807L33.4503 21.854C33.0662 22.1424 32.5276 22.1044 32.1872 21.7643L30.9373 20.5147L29.6884 21.7643C29.3477 22.1044 28.8094 22.1428 28.425 21.8543L27.3941 21.081L27.3941 24.6246Z" fill="white"></path><path d="M30.9377 40.6276C29.937 40.6276 29.0253 40.0384 28.6689 39.161C28.4678 38.6667 28.706 38.103 29.2005 37.902C29.6938 37.7003 30.2585 37.9385 30.4595 38.4336C30.5212 38.5849 30.7222 38.6947 30.9377 38.6947C31.3307 38.6947 31.6626 38.4405 31.6626 38.1398V38.0652C31.6626 37.7576 31.0007 37.5373 30.7726 37.4961C29.8508 37.3426 28.28 36.647 28.28 35.0225V34.9479C28.28 33.5763 29.4723 32.4601 30.9377 32.4601C31.9385 32.4601 32.8502 33.0493 33.2066 33.9267C33.4076 34.421 33.1695 34.9847 32.6749 35.1857C32.1813 35.3868 31.6166 35.1489 31.4159 34.6541C31.3543 34.5028 31.1532 34.393 30.9377 34.393C30.5448 34.393 30.2129 34.6471 30.2129 34.9479V35.0225C30.2129 35.3301 30.8748 35.5504 31.1029 35.5916C32.0247 35.7451 33.5954 36.4407 33.5954 38.0652V38.1398C33.5954 39.5114 32.4031 40.6276 30.9377 40.6276Z" fill="white"></path><path d="M30.9376 34.393C30.4038 34.393 29.9712 33.9604 29.9712 33.4265V32.0338C29.9712 31.5 30.4038 31.0674 30.9376 31.0674C31.4715 31.0674 31.9041 31.5 31.9041 32.0338V33.4265C31.9041 33.9604 31.4715 34.393 30.9376 34.393Z" fill="white"></path><path d="M30.9376 42.0203C30.4038 42.0203 29.9712 41.5877 29.9712 41.0539V39.6611C29.9712 39.1273 30.4038 38.6947 30.9376 38.6947C31.4715 38.6947 31.9041 39.1273 31.9041 39.6611V41.0539C31.9041 41.5877 31.4715 42.0203 30.9376 42.0203Z" fill="white"></path><rect x="36.8833" y="38.1847" width="6.41085" height="4.36389" fill="white"></rect><path d="M40.0139 35.5876C37.384 35.5876 35.2444 37.7273 35.2444 40.3572C35.2444 42.9871 37.384 45.1267 40.0139 45.1267C42.6438 45.1267 44.7835 42.9871 44.7835 40.3572C44.7835 37.7273 42.6438 35.5876 40.0139 35.5876ZM42.5968 39.3185L39.7704 42.1453C39.671 42.2446 39.5363 42.3005 39.3957 42.3005C39.2551 42.3005 39.1203 42.2446 39.021 42.1453L37.4311 40.5554C37.2241 40.3486 37.2241 40.0129 37.4311 39.806C37.6381 39.599 37.9735 39.599 38.1805 39.806L39.3957 41.021L41.8474 38.5691C42.054 38.3621 42.3897 38.3621 42.5967 38.5691C42.8038 38.776 42.8038 39.1115 42.5968 39.3185Z" fill="#039D55"></path></g><defs><clipPath id="clip0_4202_464"><rect width="30.9178" height="32.6845" fill="white" transform="translate(15.4746 14.2124)"></rect></clipPath></defs></svg>