<svg xmlns="http://www.w3.org/2000/svg" width="40" height="40" viewBox="0 0 40 40" fill="none"><circle cx="20" cy="20" r="20" fill="url(#paint0_linear_2312_1949)"></circle><path d="M19.437 11.5625C18.0395 11.5625 16.9063 12.6958 16.9063 14.0932V14.7029C17.1392 14.5961 18.3137 14.0938 19.9995 14.0938C21.6861 14.0938 22.8612 14.5965 23.0932 14.7029V14.0932C23.0932 12.6958 21.9599 11.5625 20.5625 11.5625H19.437ZM19.9995 14.6562C18.2495 14.6562 17.0617 15.2479 17.0617 15.2479C16.9364 15.3104 16.8762 15.4556 16.9205 15.5884C16.9205 15.5884 16.9987 15.8315 17.1633 16.0784C17.328 16.3254 17.6094 16.6244 18.0313 16.6244H21.9677C22.3895 16.6244 22.671 16.3254 22.8356 16.0784C23.0002 15.8315 23.0784 15.5884 23.0784 15.5884C23.1227 15.4556 23.0625 15.3104 22.9372 15.2479C22.9372 15.2479 21.7494 14.6562 19.9995 14.6562ZM23.5431 15.9438C23.4933 16.0622 23.4186 16.2179 23.3036 16.3904C23.249 16.4723 23.1774 16.5645 23.0927 16.6563V17.4638C23.421 17.2219 23.6557 16.8389 23.6557 16.3443C23.6558 16.3411 23.6558 16.3369 23.6557 16.3337C23.6509 16.1883 23.6087 16.0575 23.5431 15.9438ZM16.4564 15.9444C16.3909 16.058 16.3486 16.1887 16.3438 16.3339C16.3437 16.3371 16.3437 16.3413 16.3438 16.3445C16.3438 16.8388 16.5782 17.2216 16.9063 17.4635V16.6565C16.8215 16.5648 16.7499 16.4725 16.6953 16.3906C16.5807 16.2187 16.5062 16.0627 16.4564 15.9444ZM17.4688 17.0661V17.4693C17.4688 18.8667 18.602 20 19.9995 20C21.3969 20 22.5301 18.8667 22.5302 17.4693V17.0661C22.3652 17.1383 22.1797 17.1869 21.9677 17.1869H18.0313C17.8192 17.1869 17.6337 17.1383 17.4688 17.0661ZM18.7964 20.3175L19.9995 21.3216L21.2025 20.3175C20.8322 20.475 20.4255 20.5625 19.9995 20.5625C19.5734 20.5625 19.1667 20.475 18.7964 20.3175ZM17.923 20.563C18.1843 21.0871 18.4463 21.6108 18.708 22.1346L19.5161 21.6507L18.2109 20.563H17.923ZM21.7864 20.563L20.4834 21.6507L21.2909 22.1346C21.5524 21.6109 21.8125 21.0864 22.0748 20.563H21.7864ZM17.299 20.5716C15.3578 20.6606 13.8125 22.2556 13.8125 24.219V26.1872H15.7807V24.219C15.7807 23.7564 16.1613 23.3763 16.6239 23.3763H23.3756C23.8381 23.3763 24.2182 23.7564 24.2182 24.219V26.1872H26.1864V24.219C26.1864 22.2558 24.6414 20.6609 22.7004 20.5716C22.3531 21.2674 22.0044 21.9625 21.6562 22.6578C21.5825 22.8028 21.4016 22.8552 21.2618 22.7721L19.9995 22.0157L18.7371 22.7721C18.5969 22.8568 18.4142 22.8042 18.3405 22.6578C17.9934 21.9624 17.6462 21.267 17.299 20.5716ZM16.6239 23.9367C16.4632 23.9367 16.3438 24.0583 16.3438 24.219V28.4378H23.6557V24.219C23.6557 24.0583 23.5362 23.9367 23.3756 23.9367H21.9677V25.9071C21.9682 25.9816 21.9392 26.0533 21.8869 26.1065L21.3244 26.6668C21.2144 26.7773 21.0356 26.7773 20.9256 26.6668L20.5625 26.3059L20.1989 26.6668C20.0889 26.7773 19.91 26.7773 19.8001 26.6668L19.437 26.3059L19.0739 26.6668C18.9639 26.7773 18.785 26.7773 18.6751 26.6668L18.1126 26.1065C18.0601 26.0534 18.0308 25.9817 18.0313 25.9071V23.9367H16.6239ZM18.5943 23.9367V25.7906L18.8745 26.0713L19.2376 25.7076C19.3475 25.5971 19.5264 25.5971 19.6364 25.7076L19.9995 26.0713L20.3631 25.7076C20.473 25.5975 20.6515 25.5975 20.7614 25.7076L21.125 26.0713L21.4052 25.7906V23.9367H18.5943ZM13.8125 26.7497V28.1554C13.8119 28.3107 13.9373 28.4371 14.0927 28.4378H15.7807V26.7497H13.8125ZM24.2182 26.7497V28.4378H25.9063C26.0616 28.4371 26.187 28.3107 26.1864 28.1554V26.7497H24.2182Z" fill="white"></path><defs><linearGradient id="paint0_linear_2312_1949" x1="20" y1="0" x2="20" y2="40" gradientUnits="userSpaceOnUse"><stop stop-color="#F9BD00"></stop><stop offset="0.855" stop-color="#EF7822"></stop></linearGradient></defs></svg>