<svg xmlns="http://www.w3.org/2000/svg" width="40" height="40" viewBox="0 0 40 40" fill="none"><circle cx="20" cy="20" r="20" fill="url(#paint0_linear_2312_1964)"></circle><path d="M24.1836 15.3945V16.8001H25.5892C25.403 16.1184 24.8653 15.5807 24.1836 15.3945Z" fill="white"></path><path d="M27.418 12.0195H12.582C11.7097 12.0195 11 12.7292 11 13.6016V23.0234C11 23.8958 11.7097 24.6055 12.582 24.6055H27.418C28.2903 24.6055 29 23.8958 29 23.0234V13.6016C29 12.7292 28.2903 12.0195 27.418 12.0195ZM14.1468 19.9859C13.7902 20.2674 13.2852 20.0181 13.2852 19.5781C13.2852 19.2757 13.5444 19.0239 13.8645 19.0532C14.33 19.1025 14.5094 19.6802 14.1468 19.9859ZM14.337 17.3798C14.3144 17.6576 14.0552 17.8826 13.7605 17.8527C13.481 17.8293 13.2573 17.5697 13.288 17.2764C13.3111 16.99 13.588 16.7497 13.9155 16.811C14.1928 16.8685 14.3638 17.1215 14.337 17.3798ZM14.3374 15.1301C14.2899 15.5888 13.7141 15.7799 13.4047 15.4124C13.2108 15.1671 13.2657 14.8439 13.4782 14.6703C13.8445 14.3718 14.3846 14.6696 14.3374 15.1301ZM16.9062 22.3555H16.0625C15.7713 22.3555 15.5352 22.1194 15.5352 21.8281C15.5352 21.5369 15.7713 21.3008 16.0625 21.3008H16.9062C17.1975 21.3008 17.4336 21.5369 17.4336 21.8281C17.4336 22.1194 17.1975 22.3555 16.9062 22.3555ZM18.875 20.1055H16.0625C15.7713 20.1055 15.5352 19.8694 15.5352 19.5781C15.5352 19.2869 15.7713 19.0508 16.0625 19.0508H18.875C19.1662 19.0508 19.4023 19.2869 19.4023 19.5781C19.4023 19.8694 19.1662 20.1055 18.875 20.1055ZM18.875 17.8555H16.0625C15.7713 17.8555 15.5352 17.6194 15.5352 17.3281C15.5352 17.0369 15.7713 16.8008 16.0625 16.8008H18.875C19.1662 16.8008 19.4023 17.0369 19.4023 17.3281C19.4023 17.6194 19.1662 17.8555 18.875 17.8555ZM18.875 15.6055H16.0625C15.7713 15.6055 15.5352 15.3694 15.5352 15.0781C15.5352 14.7869 15.7713 14.5508 16.0625 14.5508H18.875C19.1662 14.5508 19.4023 14.7869 19.4023 15.0781C19.4023 15.3694 19.1662 15.6055 18.875 15.6055ZM21.9688 22.3555H21.125C20.8338 22.3555 20.5977 22.1194 20.5977 21.8281C20.5977 21.5369 20.8338 21.3008 21.125 21.3008H21.9688C22.26 21.3008 22.4961 21.5369 22.4961 21.8281C22.4961 22.1194 22.26 22.3555 21.9688 22.3555ZM23.6562 20.3867C21.9697 20.3867 20.5977 19.0146 20.5977 17.3281C20.5977 15.6416 21.9697 14.2695 23.6562 14.2695C25.3428 14.2695 26.7148 15.6416 26.7148 17.3281C26.7148 19.0146 25.3428 20.3867 23.6562 20.3867Z" fill="white"></path><path d="M23.1289 17.3275V15.3945C22.279 15.6267 21.6523 16.4051 21.6523 17.3275C21.6523 18.4325 22.5513 19.3314 23.6562 19.3314C24.5787 19.3314 25.3571 18.7047 25.5892 17.8548H23.6562C23.365 17.8548 23.1289 17.6187 23.1289 17.3275Z" fill="white"></path><path d="M25.625 26.9258H22.2148V25.6602H17.7852V26.9258H14.375C14.0838 26.9258 13.8477 27.1619 13.8477 27.4531C13.8477 27.7444 14.0838 27.9805 14.375 27.9805H25.625C25.9162 27.9805 26.1523 27.7444 26.1523 27.4531C26.1523 27.1619 25.9162 26.9258 25.625 26.9258Z" fill="white"></path><defs><linearGradient id="paint0_linear_2312_1964" x1="20" y1="0" x2="20" y2="40" gradientUnits="userSpaceOnUse"><stop stop-color="#5ABEFF"></stop><stop offset="1" stop-color="#0088FF"></stop></linearGradient></defs></svg>