<svg xmlns="http://www.w3.org/2000/svg" width="40" height="40" viewBox="0 0 40 40" fill="none"><circle cx="20" cy="20" r="20" fill="url(#paint0_linear_2312_1978)"></circle><path d="M22.7609 27.6488H17.2421C17.1216 27.6488 17.0649 27.4999 17.1571 27.422C17.8978 26.7769 18.387 25.9262 18.6422 25.2031H21.3608C21.616 25.9262 22.1051 26.7769 22.846 27.422C22.9381 27.4999 22.8778 27.6488 22.7609 27.6488Z" fill="white"></path><path d="M16.1939 18.755C16.9676 18.755 17.5949 18.1278 17.5949 17.3541C17.5949 16.5803 16.9676 15.9531 16.1939 15.9531C15.4202 15.9531 14.793 16.5803 14.793 17.3541C14.793 18.1278 15.4202 18.755 16.1939 18.755Z" fill="white"></path><path d="M13.3809 21.0023V22.2939H19.0112V21.0023C19.0112 20.1524 18.3196 19.4609 17.4698 19.4609H14.9184C14.0707 19.4609 13.3809 20.1524 13.3809 21.0023Z" fill="white"></path><path d="M13.0265 23.0039H11.8496V23.9601C11.8496 24.255 12.0898 24.4949 12.3847 24.4949H27.6167C27.9116 24.4949 28.1515 24.255 28.1515 23.9601V23.0039H19.3657H13.0265ZM19.7115 23.3888H20.2944C20.4903 23.3888 20.6489 23.5475 20.6489 23.7433C20.6489 23.939 20.4903 24.0977 20.2944 24.0977H19.7115C19.5156 24.0977 19.3571 23.939 19.3571 23.7433C19.3571 23.5475 19.5156 23.3888 19.7115 23.3888Z" fill="white"></path><path d="M21.2969 20.2634H26.5458V18.8008H21.2969V20.2634ZM23.0895 19.2797C23.2324 19.1368 23.4356 19.1561 23.5894 19.2797C23.7351 19.442 23.72 19.6523 23.5894 19.783C23.4367 19.9352 23.1861 19.9031 23.0895 19.783C22.9546 19.6612 22.9445 19.4254 23.0895 19.2797ZM21.9127 19.2831C22.0438 19.1485 22.2813 19.1485 22.4125 19.2831C22.5279 19.3759 22.5679 19.6275 22.4125 19.783C22.2703 19.9252 22.0381 19.9148 21.9127 19.783C21.7572 19.6427 21.792 19.3801 21.9127 19.2831Z" fill="white"></path><path d="M27.6167 12.3516H12.3847C12.0898 12.3516 11.8496 12.5916 11.8496 12.8865V22.2953H12.672V21.0037C12.672 19.8579 13.532 18.9112 14.6391 18.7727C14.2962 18.3974 14.085 17.8997 14.085 17.3524C14.085 16.1891 15.0313 15.2425 16.1947 15.2425C17.3581 15.2425 18.3045 16.1891 18.3045 17.3524C18.3045 17.8998 18.0932 18.3975 17.7502 18.7728C18.859 18.9115 19.7202 19.8581 19.7202 21.0037V22.2953H28.1515V12.8865C28.1515 12.5916 27.9116 12.3516 27.6167 12.3516ZM27.2553 20.6195C27.2553 20.8152 27.0968 20.974 26.9009 20.974H20.9431C20.7472 20.974 20.5886 20.8152 20.5886 20.6195V18.448C20.5886 18.2522 20.7472 18.0935 20.9431 18.0935H26.9009C27.0968 18.0935 27.2553 18.2522 27.2553 18.448V20.6195ZM27.2553 16.4388C27.2553 16.6345 27.0968 16.7933 26.9009 16.7933H20.9431C20.7472 16.7933 20.5886 16.6345 20.5886 16.4388V14.2673C20.5886 14.0715 20.7472 13.9128 20.9431 13.9128H26.9009C27.0968 13.9128 27.2553 14.0715 27.2553 14.2673V16.4388Z" fill="white"></path><path d="M21.2969 16.0837H26.5458V14.6211H21.2969V16.0837ZM23.0895 15.1017C23.1769 14.993 23.4277 14.9403 23.5894 15.1017C23.7242 15.2369 23.7135 15.4468 23.6319 15.5482C23.6212 15.5695 23.607 15.5873 23.5894 15.6015C23.4712 15.7194 23.3072 15.7459 23.1428 15.6476C22.9501 15.5201 22.9322 15.2505 23.0895 15.1017ZM21.9127 15.1017C22.0126 14.9774 22.2686 14.9578 22.4125 15.1017C22.5479 15.2298 22.5512 15.4703 22.4125 15.6015C22.2498 15.7642 22.0029 15.7138 21.9127 15.6015C21.7985 15.5098 21.7482 15.2666 21.9127 15.1017Z" fill="white"></path><defs><linearGradient id="paint0_linear_2312_1978" x1="20" y1="0" x2="20" y2="40" gradientUnits="userSpaceOnUse"><stop stop-color="#FD78B8"></stop><stop offset="1" stop-color="#D02995"></stop></linearGradient></defs></svg>