<svg xmlns="http://www.w3.org/2000/svg" width="40" height="40" viewBox="0 0 40 40" fill="none"><circle cx="20" cy="20" r="20" fill="url(#paint0_linear_2312_1976)"></circle><g clip-path="url(#clip0_2312_1976)"><path d="M28.0713 24.5C28.0432 24.4438 28.0432 24.3594 28.0713 24.3031L28.1557 24.0219C28.3526 23.375 28.1276 22.7 27.5932 22.2781L27.3682 22.1094C27.3119 22.0813 27.2838 22.025 27.2557 21.9406L27.1713 21.6594C27.0026 21.125 26.5526 20.7312 26.0182 20.6188V19.4375C26.3557 19.2688 26.6651 19.0156 26.9182 18.7062C27.4526 18.0312 27.6213 17.1594 27.4244 16.3438L26.8901 14.1781C26.4119 12.4906 24.8651 11.2812 23.0369 11.2812H16.1744C14.3744 11.2812 12.8276 12.4906 12.3776 14.2344L11.8432 16.4C11.6463 17.2156 11.8151 18.0875 12.3494 18.7625C12.6026 19.0719 12.9119 19.325 13.2213 19.4938V24.3313C13.2213 25.625 14.2619 26.6656 15.5557 26.6656H20.7588C20.8151 26.6938 20.8432 26.75 20.8713 26.8063L20.9557 27.0875C21.1526 27.7344 21.7432 28.1562 22.4182 28.1562H22.6994C22.7557 28.1562 22.8401 28.1844 22.8963 28.2406L23.1213 28.4094C23.4026 28.6063 23.7119 28.6906 24.0213 28.6906C24.3307 28.6906 24.6682 28.5781 24.9213 28.4094L25.1463 28.2406C25.2026 28.2125 25.2588 28.1844 25.3151 28.1844H25.5963C26.2713 28.1844 26.8619 27.7625 27.0588 27.1156L27.1432 26.8344C27.1713 26.7781 27.1994 26.7219 27.2557 26.6937L27.4807 26.525C28.0151 26.1313 28.2401 25.4281 28.0432 24.7812L28.0713 24.5ZM20.9838 21.7156L20.8994 21.9969C20.8713 22.0531 20.8432 22.1094 20.7869 22.1656L20.5619 22.3063C20.0276 22.7 19.8026 23.4031 19.9994 24.05L20.0838 24.3313C20.1119 24.3875 20.1119 24.4719 20.0838 24.5281L19.9994 24.7812C19.9151 25.0344 19.9151 25.2875 19.9432 25.5406H17.8901V21.8281C17.8901 21.6594 18.0307 21.5469 18.1713 21.5469H21.0119H21.0401C21.0401 21.6031 21.0119 21.6594 20.9838 21.7156ZM21.9401 20.7312C21.6869 20.5344 21.3776 20.4219 21.0401 20.4219H18.1994C17.4119 20.4219 16.7932 21.0688 16.7932 21.8281V25.5406H15.5838C14.9088 25.5406 14.3744 25.0063 14.3744 24.3313V19.8313H14.5432C15.3588 19.8313 16.1182 19.5219 16.6807 18.9594C16.8213 18.8187 16.9338 18.6781 17.0463 18.5094C17.1588 18.65 17.2713 18.7906 17.3838 18.9031C17.9744 19.4937 18.7901 19.8313 19.6338 19.8313C20.4776 19.8313 21.2932 19.4937 21.8838 18.9031C21.9963 18.7906 22.1088 18.65 22.2213 18.5094C22.3338 18.6781 22.4463 18.8187 22.5869 18.9594C23.1494 19.5219 23.9088 19.8313 24.7244 19.8313H24.8932V20.3656C24.3588 20.0281 23.6838 20.0562 23.1776 20.4219L22.9526 20.5906C22.8963 20.6187 22.8401 20.6469 22.7838 20.6469H22.5026C22.2776 20.6469 22.1088 20.675 21.9401 20.7312ZM25.5401 24.05L24.6119 24.9781C24.3588 25.2312 23.9932 25.3719 23.5994 25.3156C23.3182 25.2875 23.0651 25.1469 22.8682 24.95L22.7557 24.8375C22.5588 24.6406 22.5026 24.3312 22.6713 24.1062C22.8682 23.825 23.2901 23.7969 23.5151 24.0219L23.6838 24.1906C23.7119 24.2188 23.7682 24.2188 23.7963 24.1906L24.7244 23.2625C24.9494 23.0375 25.3151 23.0375 25.5119 23.2625C25.7651 23.4594 25.7651 23.825 25.5401 24.05Z" fill="white"></path></g><defs><linearGradient id="paint0_linear_2312_1976" x1="20.5" y1="40.5" x2="21.5" y2="-1.12697e-06" gradientUnits="userSpaceOnUse"><stop stop-color="#7D22FF"></stop><stop offset="1" stop-color="#0079E3"></stop></linearGradient><clipPath id="clip0_2312_1976"><rect width="18" height="18" fill="white" transform="translate(11 11)"></rect></clipPath></defs></svg>