<svg xmlns="http://www.w3.org/2000/svg" width="40" height="40" viewBox="0 0 40 40" fill="none"><circle cx="20" cy="20" r="20" fill="url(#paint0_linear_2312_1938)"></circle><path d="M20.974 15.2403C21.3993 15.5057 21.7586 15.8644 22.0246 16.2892C22.2906 16.7141 22.4563 17.194 22.5091 17.6925C22.861 17.858 23.2451 17.944 23.6339 17.9442C24.34 17.9439 25.0171 17.6632 25.5164 17.1638C26.0155 16.6643 26.2959 15.9871 26.2958 15.2809C26.2959 14.9313 26.2272 14.585 26.0934 14.2619C25.9597 13.9387 25.7637 13.6451 25.5165 13.3978C25.2694 13.1504 24.9759 12.9542 24.6529 12.8202C24.3299 12.6863 23.9836 12.6173 23.6339 12.6172C22.9351 12.6179 22.2644 12.8933 21.7668 13.384C21.2691 13.8748 20.9844 14.5415 20.974 15.2403ZM19.2307 20.6944C19.9368 20.694 20.6138 20.4132 21.1129 19.9136C21.6121 19.4141 21.8922 18.7368 21.892 18.0306C21.9003 17.6759 21.8375 17.323 21.7074 16.9928C21.5773 16.6626 21.3825 16.3618 21.1345 16.108C20.8866 15.8541 20.5903 15.6524 20.2632 15.5147C19.9361 15.377 19.5848 15.3061 19.2299 15.3061C18.8751 15.3061 18.5238 15.377 18.1967 15.5147C17.8696 15.6524 17.5734 15.8541 17.3254 16.108C17.0773 16.3618 16.8826 16.6626 16.7525 16.9928C16.6224 17.323 16.5596 17.6759 16.5679 18.0306C16.5678 18.7369 16.8482 19.4143 17.3474 19.9138C17.8467 20.4134 18.5244 20.6941 19.2307 20.6944ZM20.3593 20.8759H18.1006C16.2216 20.8759 14.6927 22.4062 14.6927 24.2866V27.0507L14.6994 27.0936L14.89 27.1534C16.6835 27.7151 18.2415 27.9013 19.5239 27.9013C22.0286 27.9013 23.4806 27.1868 23.5704 27.141L23.748 27.0512H23.7672V24.2866C23.7676 22.4062 22.2388 20.8759 20.3593 20.8759ZM24.763 18.1262H22.522C22.4993 18.992 22.1353 19.8138 21.5095 20.4126C23.1802 20.9093 24.4024 22.4597 24.4024 24.2909V25.1425C26.6153 25.0613 27.8906 24.4338 27.9746 24.3917L28.1523 24.301H28.1714V21.5364C28.1714 19.656 26.642 18.1262 24.763 18.1262ZM14.5594 17.9447C15.0801 17.9447 15.5649 17.7928 15.9751 17.5339C16.1038 16.7003 16.547 15.9477 17.2136 15.4309C17.216 15.3812 17.2208 15.332 17.2208 15.2814C17.221 14.5753 16.9408 13.898 16.4417 13.3984C15.9426 12.8989 15.2656 12.618 14.5594 12.6177C14.2097 12.6177 13.8635 12.6867 13.5404 12.8206C13.2174 12.9545 12.9239 13.1507 12.6767 13.3981C12.4295 13.6455 12.2335 13.9391 12.0998 14.2623C11.9661 14.5854 11.8974 14.9317 11.8976 15.2814C11.8975 15.6311 11.9662 15.9773 12.1 16.3004C12.2337 16.6235 12.4297 16.9171 12.6769 17.1644C12.9241 17.4117 13.2175 17.6079 13.5405 17.7418C13.8636 17.8757 14.2098 17.9446 14.5594 17.9447ZM16.95 20.4126C16.3277 19.8167 15.9644 19.0002 15.9384 18.1391C15.8553 18.1329 15.7731 18.1262 15.6881 18.1262H13.4298C11.5504 18.1262 10.0215 19.656 10.0215 21.5364V24.301L10.0286 24.344L10.2187 24.4037C11.6574 24.8526 12.9412 25.0604 14.057 25.1254V24.2904C14.057 22.4597 15.2792 20.9103 16.95 20.4126Z" fill="white"></path><defs><linearGradient id="paint0_linear_2312_1938" x1="20" y1="0" x2="20" y2="40" gradientUnits="userSpaceOnUse"><stop stop-color="#2FCC71"></stop><stop offset="1" stop-color="#17AA55"></stop></linearGradient></defs></svg>