<svg xmlns="http://www.w3.org/2000/svg" width="60" height="60" viewBox="0 0 60 60" fill="none"><g clip-path="url(#clip0_2034_6460)"><path d="M58.0395 33.0709V23.0078C58.0395 21.5872 56.888 20.4356 55.4674 20.4356H54.6731C53.6249 20.4356 52.6896 19.7964 52.2888 18.8279C52.2844 18.8172 52.28 18.8065 52.2755 18.7959C51.8728 17.8267 52.0812 16.7118 52.8233 15.9696L53.3849 15.408C54.3894 14.4035 54.3894 12.7749 53.3849 11.7705L46.2692 4.65471C45.2647 3.65024 43.6361 3.65024 42.6316 4.65471L42.07 5.21635C41.3279 5.95847 40.2129 6.16682 39.2438 5.76412C39.2331 5.75965 39.2224 5.75529 39.2118 5.75082C38.2433 5.35 37.604 4.41471 37.604 3.36659V2.57224C37.604 1.15153 36.4524 0 35.0318 0H24.9686C23.548 0 22.3965 1.15153 22.3965 2.57212V3.36647C22.3965 4.41459 21.7572 5.34988 20.7887 5.75071C20.778 5.75518 20.7673 5.75953 20.7567 5.764C19.7875 6.16671 18.6726 5.95835 17.9305 5.21624L17.3688 4.65459C16.3644 3.65012 14.7358 3.65012 13.7313 4.65459L6.61553 11.7704C5.61106 12.7748 5.61106 14.4034 6.61553 15.4079L7.17717 15.9695C7.91929 16.7116 8.12764 17.8266 7.72494 18.7958C7.72047 18.8065 7.71611 18.8172 7.71164 18.8278C7.31082 19.7962 6.37553 20.4355 5.32741 20.4355H4.53306C3.11247 20.4355 1.96094 21.5871 1.96094 23.0077V33.0708C1.96094 34.4914 3.11247 35.6429 4.53306 35.6429H5.32741C6.37553 35.6429 7.31082 36.2822 7.71164 37.2507C7.71611 37.2614 7.72047 37.2721 7.72494 37.2827C8.12764 38.2519 7.91929 39.3668 7.17717 40.1089L6.61553 40.6706C5.61106 41.6751 5.61106 43.3036 6.61553 44.3081L13.7313 51.4239C14.7358 52.4284 16.3644 52.4284 17.3688 51.4239L17.9305 50.8622C18.6726 50.1201 19.7875 49.9118 20.7567 50.3145C20.7674 50.3189 20.7781 50.3233 20.7887 50.3278C21.7572 50.7286 22.3965 51.6639 22.3965 52.712V53.5064C22.3965 54.9269 23.548 56.0785 24.9686 56.0785H35.0318C36.4524 56.0785 37.6039 54.9269 37.6039 53.5064V52.712C37.6039 51.6639 38.2432 50.7286 39.2116 50.3278C39.2224 50.3233 39.2331 50.3189 39.2436 50.3145C40.2128 49.9118 41.3278 50.1201 42.0699 50.8622L42.6315 51.4239C43.636 52.4284 45.2646 52.4284 46.2691 51.4239L53.3848 44.3081C54.3893 43.3036 54.3893 41.6751 53.3848 40.6706L52.8232 40.1089C52.0811 39.3668 51.8727 38.2519 52.2754 37.2827C52.2799 37.272 52.2842 37.2613 52.2887 37.2507C52.6895 36.2822 53.6248 35.6429 54.6729 35.6429H55.4673C56.888 35.6431 58.0395 34.4914 58.0395 33.0709Z" fill="url(#paint0_linear_2034_6460)"></path><path d="M30.0018 47.5582C40.7831 47.5582 49.5231 38.8182 49.5231 28.0369C49.5231 17.2556 40.7831 8.51562 30.0018 8.51562C19.2205 8.51562 10.4805 17.2556 10.4805 28.0369C10.4805 38.8182 19.2205 47.5582 30.0018 47.5582Z" fill="url(#paint1_linear_2034_6460)"></path><path d="M58.0242 33.3314C57.8926 34.6285 56.7972 35.6401 55.4661 35.6401H54.6715C53.6237 35.6401 52.6887 36.2792 52.2876 37.2482C52.2826 37.2595 52.2788 37.2695 52.2739 37.2808C51.8715 38.2496 52.0796 39.3638 52.8216 40.1071L53.3843 40.6687C54.3883 41.6727 54.3883 43.3007 53.3843 44.3059L46.2677 51.4212C45.2637 52.4264 43.6344 52.4264 42.6304 51.4212L42.0689 50.8597C41.3269 50.1177 40.2114 49.9097 39.2426 50.312C39.2313 50.317 39.2213 50.3208 39.21 50.3257C38.2423 50.7255 37.6032 51.6618 37.6032 52.7096V53.5042C37.6032 54.8403 36.5842 55.9382 35.2807 56.0636L19.0609 39.8363C15.9012 36.9072 14.1728 32.7222 14.1641 28.0659C14.1541 22.6577 16.563 18.1205 20.649 15.1964C21.1554 14.8342 21.7983 14.7227 22.1455 15.1412C22.2608 15.2816 36.1117 29.1087 36.2683 29.2591C37.1043 28.5798 37.6032 27.5545 37.6032 26.4578V15.8394C37.6032 14.947 38.6134 14.4205 39.3403 14.9395C40.2402 15.5837 41.0713 16.3169 41.8195 17.1278L58.0242 33.3314Z" fill="url(#paint2_linear_2034_6460)"></path><path d="M53.3853 40.6734L52.8237 40.1117C52.0816 39.3696 51.8732 38.2547 52.2759 37.2855C52.2804 37.2748 52.2847 37.2641 52.2892 37.2535C52.69 36.285 53.6253 35.6457 54.6734 35.6457H55.4678C56.7989 35.6457 57.8938 34.6346 58.0264 33.3384L41.8212 17.1331C41.4778 16.7609 41.118 16.4062 40.7409 16.0703C43.2864 18.9155 44.8331 22.6717 44.8331 26.789C44.8331 32.9217 41.4002 38.2535 36.3516 40.967V55.7142C37.1012 55.2648 37.6045 54.4468 37.6045 53.5091V52.7148C37.6045 51.6667 38.2438 50.7314 39.2123 50.3305C39.223 50.3261 39.2337 50.3217 39.2443 50.3173C40.2134 49.9146 41.3284 50.1229 42.0705 50.865L42.6322 51.4267C43.6366 52.4311 45.2652 52.4311 46.2697 51.4267L53.3854 44.3109C54.3899 43.3064 54.3899 41.6778 53.3853 40.6734Z" fill="url(#paint3_linear_2034_6460)"></path><path d="M37.2578 57.1907C37.6 55.275 37.7721 53.3341 37.7721 51.3894V38.1094H22.2305V51.3895C22.2305 53.3342 22.4026 55.2751 22.7448 57.1908C23.0351 58.8157 24.4771 60.0014 26.1629 60.0014H33.8396C35.5255 60.0014 36.9675 58.8157 37.2578 57.1907Z" fill="url(#paint4_linear_2034_6460)"></path><path d="M22.2305 42.2235L37.2956 56.9647C37.6116 55.1224 37.7721 53.2577 37.7721 51.3895V38.1094H22.2305V42.2235Z" fill="url(#paint5_linear_2034_6460)"></path><path d="M46.0853 28.0403C46.0853 36.9241 38.8835 44.1258 29.9999 44.1259C21.1161 44.1261 13.93 36.9535 13.9141 28.0697C13.9044 22.6612 16.5639 17.873 20.6499 14.9497C21.3801 14.4274 22.3956 14.9462 22.3956 15.8439V26.4611C22.3956 27.7524 23.0844 28.9456 24.2027 29.5912L28.1924 31.8949C29.3108 32.5407 30.6887 32.5407 31.807 31.8949L35.7968 29.5912C36.915 28.9456 37.6039 27.7524 37.6039 26.4611V15.8436C37.6039 14.9504 38.6143 14.4244 39.3411 14.9436C43.4244 17.861 46.0853 22.6402 46.0853 28.0403Z" fill="url(#paint6_linear_2034_6460)"></path><path d="M18.0978 29.3952C18.0978 31.4166 19.1761 33.2845 20.9267 34.2953L27.1726 37.9015C28.9233 38.9124 31.0804 38.9124 32.8311 37.9015L39.077 34.2953C40.8275 33.2846 41.9059 31.4167 41.9059 29.3952V17.2236C41.1357 16.3765 40.2772 15.6108 39.3432 14.9436C38.6165 14.4244 37.6059 14.9505 37.6059 15.8436V26.4612C37.6059 27.7525 36.9171 28.9456 35.7988 29.5913L31.8091 31.8949C30.6907 32.5407 29.3128 32.5407 28.1945 31.8949L24.2047 29.5913C23.0865 28.9456 22.3977 27.7525 22.3977 26.4612V15.844C22.3977 14.9461 21.3821 14.4273 20.6519 14.9498C19.7213 15.6155 18.8657 16.3791 18.0977 17.2236V29.3952H18.0978Z" fill="url(#paint7_linear_2034_6460)"></path></g><defs><linearGradient id="paint0_linear_2034_6460" x1="19.2192" y1="17.2582" x2="48.3972" y2="46.4362" gradientUnits="userSpaceOnUse"><stop stop-color="#7FAEF4"></stop><stop offset="1" stop-color="#4C8DF1"></stop></linearGradient><linearGradient id="paint1_linear_2034_6460" x1="42.5321" y1="40.5673" x2="15.4028" y2="13.438" gradientUnits="userSpaceOnUse"><stop stop-color="#7FAEF4"></stop><stop offset="1" stop-color="#4C8DF1"></stop></linearGradient><linearGradient id="paint2_linear_2034_6460" x1="32.942" y1="33.3215" x2="12.6103" y2="23.2131" gradientUnits="userSpaceOnUse"><stop stop-color="#4C8DF1" stop-opacity="0"></stop><stop offset="0.5631" stop-color="#466CC8" stop-opacity="0.563"></stop><stop offset="1" stop-color="#4256AC"></stop></linearGradient><linearGradient id="paint3_linear_2034_6460" x1="49.5214" y1="41.1853" x2="34.3459" y2="33.8667" gradientUnits="userSpaceOnUse"><stop stop-color="#4C8DF1" stop-opacity="0"></stop><stop offset="0.5631" stop-color="#466CC8" stop-opacity="0.563"></stop><stop offset="1" stop-color="#4256AC"></stop></linearGradient><linearGradient id="paint4_linear_2034_6460" x1="29.4369" y1="47.2546" x2="39.1128" y2="56.9304" gradientUnits="userSpaceOnUse"><stop stop-color="#FFD833"></stop><stop offset="1" stop-color="#F2B631"></stop></linearGradient><linearGradient id="paint5_linear_2034_6460" x1="34.6809" y1="50.7573" x2="28.2948" y2="36.3042" gradientUnits="userSpaceOnUse"><stop stop-color="#F9A126" stop-opacity="0"></stop><stop offset="1" stop-color="#EC4437"></stop></linearGradient><linearGradient id="paint6_linear_2034_6460" x1="24.1067" y1="22.1517" x2="45.1113" y2="43.1562" gradientUnits="userSpaceOnUse"><stop stop-color="#FFD833"></stop><stop offset="1" stop-color="#F2B631"></stop></linearGradient><linearGradient id="paint7_linear_2034_6460" x1="38.932" y1="33.3985" x2="15.1178" y2="9.58423" gradientUnits="userSpaceOnUse"><stop stop-color="#FFD833"></stop><stop offset="1" stop-color="#F2B631"></stop></linearGradient><clipPath id="clip0_2034_6460"><rect width="60" height="60" fill="white"></rect></clipPath></defs></svg>