<svg xmlns="http://www.w3.org/2000/svg" width="60" height="60" viewBox="0 0 60 60" fill="none"><g clip-path="url(#clip0_2034_6433)"><path d="M13.6153 59.8854H46.4937C47.4743 59.8854 48.1321 58.8747 47.732 57.9789C47.0064 56.3552 45.4372 55.1911 43.581 55.0432C43.5828 54.9961 43.5847 54.9489 43.5847 54.9013C43.5847 52.9576 42.0095 51.382 40.0658 51.382C39.2116 51.382 38.4284 51.6864 37.8191 52.1927C37.2501 52.6651 36.547 52.9467 35.8072 52.9467H35.7358C34.7146 52.9485 33.886 52.1213 33.886 51.1005V43.5625H26.223V51.1005C26.223 52.1213 25.3945 52.9485 24.3732 52.9467H24.3018C23.5621 52.9467 22.8589 52.6651 22.2899 52.1927C21.6806 51.6864 20.8974 51.382 20.0432 51.382C18.0996 51.382 16.5244 52.9576 16.5244 54.9013C16.5244 54.9489 16.5258 54.9961 16.5281 55.0432C14.6718 55.1911 13.1026 56.3552 12.3771 57.9789C11.9765 58.8747 12.6343 59.8854 13.6153 59.8854Z" fill="url(#paint0_linear_2034_6433)"></path><path d="M47.7316 57.9754C47.0061 56.3517 45.4368 55.1876 43.5806 55.0398C43.5824 54.9926 43.5843 54.9455 43.5843 54.8979C43.5843 52.9542 42.0091 51.3786 40.0654 51.3786C39.2112 51.3786 38.428 51.683 37.8187 52.1893C37.2497 52.6617 36.5466 52.9432 35.8069 52.9432H35.7354C34.7142 52.945 33.8856 52.1179 33.8856 51.0971V43.5586H26.2227V48.5327L37.572 59.882H46.4934C47.4739 59.882 48.1317 58.8713 47.7316 57.9754Z" fill="url(#paint1_linear_2034_6433)"></path><path d="M23.5854 45.8301H12.4864C11.4153 45.8301 10.5469 44.8597 10.5469 43.6621V36.7948C10.5469 36.1287 10.8206 35.5002 11.2889 35.0891L23.5854 24.3047V45.8301Z" fill="url(#paint2_linear_2034_6433)"></path><path d="M36.5234 45.8301H47.6224C48.6935 45.8301 49.5619 44.8597 49.5619 43.6621V36.7948C49.5619 36.1287 49.2882 35.5002 48.8194 35.0891L36.5234 24.3047V45.8301Z" fill="url(#paint3_linear_2034_6433)"></path><path d="M40.367 44.3126H19.7383V17.0898C19.7383 11.1329 22.1727 5.43469 26.4775 1.31756C28.477 -0.595436 31.6278 -0.595436 33.6273 1.31756C37.9321 5.43469 40.367 11.1329 40.367 17.0898V44.3126Z" fill="url(#paint4_linear_2034_6433)"></path><path d="M40.3705 22.0505L34.1018 15.7819C33.0975 14.6892 31.6569 14.0039 30.0561 14.0039C27.0221 14.0039 24.5625 16.4635 24.5625 19.4971C24.5625 21.0983 25.2478 22.5389 26.3409 23.5432L40.3705 37.5728V22.0505Z" fill="url(#paint5_linear_2034_6433)"></path><path d="M30.0561 14.0039C27.0221 14.0039 24.5625 16.4635 24.5625 19.4971C24.5625 22.5311 27.0221 24.9907 30.0561 24.9907C33.0897 24.9907 35.5497 22.5311 35.5497 19.4971C35.5497 16.4635 33.0897 14.0039 30.0561 14.0039Z" fill="url(#paint6_linear_2034_6433)"></path><path d="M30.0534 23.2163C32.1065 23.2163 33.7709 21.5518 33.7709 19.4988C33.7709 17.4457 32.1065 15.7812 30.0534 15.7812C28.0004 15.7812 26.3359 17.4457 26.3359 19.4988C26.3359 21.5518 28.0004 23.2163 30.0534 23.2163Z" fill="url(#paint7_linear_2034_6433)"></path><path d="M30.0562 16.7891C28.5603 16.7891 27.3477 18.0017 27.3477 19.4972C27.3477 20.9932 28.5603 22.2058 30.0562 22.2058C31.5518 22.2058 32.7648 20.9932 32.7648 19.4972C32.7648 18.0017 31.5518 16.7891 30.0562 16.7891Z" fill="url(#paint8_linear_2034_6433)"></path><path d="M40.3705 36.8483V44.3117H32.3115L26.3405 38.3406C25.2478 37.3358 24.5625 35.8952 24.5625 34.2944C24.5625 31.2608 27.0221 28.8008 30.0561 28.8008C31.6569 28.8008 33.0975 29.487 34.1023 30.5787L40.3705 36.8483Z" fill="url(#paint9_linear_2034_6433)"></path><path d="M30.0561 28.8047C27.0221 28.8047 24.5625 31.2643 24.5625 34.2979C24.5625 37.3319 27.0221 39.7915 30.0561 39.7915C33.0897 39.7915 35.5497 37.3319 35.5497 34.2979C35.5497 31.2643 33.0897 28.8047 30.0561 28.8047Z" fill="url(#paint10_linear_2034_6433)"></path><path d="M30.0534 38.0131C32.1065 38.0131 33.7709 36.3487 33.7709 34.2956C33.7709 32.2426 32.1065 30.5781 30.0534 30.5781C28.0004 30.5781 26.3359 32.2426 26.3359 34.2956C26.3359 36.3487 28.0004 38.0131 30.0534 38.0131Z" fill="url(#paint11_linear_2034_6433)"></path><path d="M30.0562 31.5859C28.5603 31.5859 27.3477 32.7986 27.3477 34.2941C27.3477 35.79 28.5603 37.0027 30.0562 37.0027C31.5518 37.0027 32.7648 35.79 32.7648 34.2941C32.7648 32.7986 31.5518 31.5859 30.0562 31.5859Z" fill="url(#paint12_linear_2034_6433)"></path><path d="M33.6291 1.31756C31.6296 -0.595436 28.4788 -0.595436 26.4793 1.31756C24.1703 3.52627 22.3997 6.19 21.2539 9.10458C23.8952 9.68091 26.8858 10.0059 30.0544 10.0059C33.2226 10.0059 36.2132 9.68091 38.8545 9.10458C37.7087 6.19 35.9385 3.52627 33.6291 1.31756Z" fill="url(#paint13_linear_2034_6433)"></path><path d="M19.7383 42.7422V47.567C19.7383 48.1223 20.1883 48.5723 20.7431 48.5723H39.3617C39.917 48.5723 40.367 48.1223 40.367 47.567V42.7422H19.7383Z" fill="url(#paint14_linear_2034_6433)"></path><path d="M12.3768 57.976C11.9767 58.8719 12.6345 59.8826 13.6155 59.8826H46.494C47.4745 59.8826 48.1323 58.8719 47.7322 57.976C47.3843 57.1969 46.8405 56.5258 46.1658 56.0195H13.9438C13.2686 56.5258 12.7252 57.1969 12.3768 57.976Z" fill="url(#paint15_linear_2034_6433)"></path></g><defs><linearGradient id="paint0_linear_2034_6433" x1="12.993" y1="48.5892" x2="38.4124" y2="56.0654" gradientUnits="userSpaceOnUse"><stop stop-color="#FFFCF8"></stop><stop offset="0.1875" stop-color="#FAF8F6"></stop><stop offset="0.4041" stop-color="#ECEEF2"></stop><stop offset="0.6353" stop-color="#D5DCEA"></stop><stop offset="0.875" stop-color="#B5C4DF"></stop><stop offset="1" stop-color="#A1B5D8"></stop></linearGradient><linearGradient id="paint1_linear_2034_6433" x1="38.3442" y1="56.7855" x2="30.5356" y2="36.5996" gradientUnits="userSpaceOnUse"><stop stop-color="#A1B5D8" stop-opacity="0"></stop><stop offset="0.3862" stop-color="#8C9DB6" stop-opacity="0.384314"></stop><stop offset="0.7742" stop-color="#7A899A" stop-opacity="0.772549"></stop><stop offset="1" stop-color="#748290"></stop></linearGradient><linearGradient id="paint2_linear_2034_6433" x1="16.9001" y1="34.4301" x2="25.6821" y2="41.1211" gradientUnits="userSpaceOnUse"><stop stop-color="#FF4974"></stop><stop offset="0.3262" stop-color="#FE4672"></stop><stop offset="0.5324" stop-color="#FB3E6C"></stop><stop offset="0.7054" stop-color="#F52F60"></stop><stop offset="0.8591" stop-color="#EE1A51"></stop><stop offset="1" stop-color="#E4003D"></stop></linearGradient><linearGradient id="paint3_linear_2034_6433" x1="47.0225" y1="32.8413" x2="34.0189" y2="38.9302" gradientUnits="userSpaceOnUse"><stop stop-color="#FF4974"></stop><stop offset="0.3262" stop-color="#FE4672"></stop><stop offset="0.5324" stop-color="#FB3E6C"></stop><stop offset="0.7054" stop-color="#F52F60"></stop><stop offset="0.8591" stop-color="#EE1A51"></stop><stop offset="1" stop-color="#E4003D"></stop></linearGradient><linearGradient id="paint4_linear_2034_6433" x1="17.3838" y1="22.0977" x2="47.8405" y2="22.0977" gradientUnits="userSpaceOnUse"><stop stop-color="#FFFCF8"></stop><stop offset="0.1875" stop-color="#FAF8F6"></stop><stop offset="0.4041" stop-color="#ECEEF2"></stop><stop offset="0.6353" stop-color="#D5DCEA"></stop><stop offset="0.875" stop-color="#B5C4DF"></stop><stop offset="1" stop-color="#A1B5D8"></stop></linearGradient><linearGradient id="paint5_linear_2034_6433" x1="41.1479" y1="30.5891" x2="20.7894" y2="10.2305" gradientUnits="userSpaceOnUse"><stop stop-color="#A1B5D8" stop-opacity="0"></stop><stop offset="0.3862" stop-color="#8C9DB6" stop-opacity="0.384314"></stop><stop offset="0.7742" stop-color="#7A899A" stop-opacity="0.772549"></stop><stop offset="1" stop-color="#748290"></stop></linearGradient><linearGradient id="paint6_linear_2034_6433" x1="24.5256" y1="13.9668" x2="32.2945" y2="21.7357" gradientUnits="userSpaceOnUse"><stop stop-color="#FFD00D"></stop><stop offset="0.2378" stop-color="#FFCB0E"></stop><stop offset="0.5353" stop-color="#FFBB11"></stop><stop offset="0.8632" stop-color="#FFA215"></stop><stop offset="1" stop-color="#FF9517"></stop></linearGradient><linearGradient id="paint7_linear_2034_6433" x1="33.7958" y1="23.2414" x2="28.5386" y2="17.9841" gradientUnits="userSpaceOnUse"><stop stop-color="#FFD00D"></stop><stop offset="0.2378" stop-color="#FFCB0E"></stop><stop offset="0.5353" stop-color="#FFBB11"></stop><stop offset="0.8632" stop-color="#FFA215"></stop><stop offset="1" stop-color="#FF9517"></stop></linearGradient><linearGradient id="paint8_linear_2034_6433" x1="27.3295" y1="16.7707" x2="31.1598" y2="20.601" gradientUnits="userSpaceOnUse"><stop stop-color="#445EA0"></stop><stop offset="0.3216" stop-color="#415A9B"></stop><stop offset="0.6926" stop-color="#364D8D"></stop><stop offset="1" stop-color="#2A3D7C"></stop></linearGradient><linearGradient id="paint9_linear_2034_6433" x1="37.8103" y1="42.0487" x2="21.9888" y2="26.2272" gradientUnits="userSpaceOnUse"><stop stop-color="#A1B5D8" stop-opacity="0"></stop><stop offset="0.3862" stop-color="#8C9DB6" stop-opacity="0.384314"></stop><stop offset="0.7742" stop-color="#7A899A" stop-opacity="0.772549"></stop><stop offset="1" stop-color="#748290"></stop></linearGradient><linearGradient id="paint10_linear_2034_6433" x1="24.5256" y1="28.7676" x2="32.2945" y2="36.5365" gradientUnits="userSpaceOnUse"><stop stop-color="#FFD00D"></stop><stop offset="0.2378" stop-color="#FFCB0E"></stop><stop offset="0.5353" stop-color="#FFBB11"></stop><stop offset="0.8632" stop-color="#FFA215"></stop><stop offset="1" stop-color="#FF9517"></stop></linearGradient><linearGradient id="paint11_linear_2034_6433" x1="33.7958" y1="38.0382" x2="28.5386" y2="32.781" gradientUnits="userSpaceOnUse"><stop stop-color="#FFD00D"></stop><stop offset="0.2378" stop-color="#FFCB0E"></stop><stop offset="0.5353" stop-color="#FFBB11"></stop><stop offset="0.8632" stop-color="#FFA215"></stop><stop offset="1" stop-color="#FF9517"></stop></linearGradient><linearGradient id="paint12_linear_2034_6433" x1="27.3295" y1="31.5675" x2="31.1598" y2="35.3979" gradientUnits="userSpaceOnUse"><stop stop-color="#445EA0"></stop><stop offset="0.3216" stop-color="#415A9B"></stop><stop offset="0.6926" stop-color="#364D8D"></stop><stop offset="1" stop-color="#2A3D7C"></stop></linearGradient><linearGradient id="paint13_linear_2034_6433" x1="17.5257" y1="-4.70869" x2="32.5681" y2="10.3336" gradientUnits="userSpaceOnUse"><stop stop-color="#FF4974"></stop><stop offset="0.3262" stop-color="#FE4672"></stop><stop offset="0.5324" stop-color="#FB3E6C"></stop><stop offset="0.7054" stop-color="#F52F60"></stop><stop offset="0.8591" stop-color="#EE1A51"></stop><stop offset="1" stop-color="#E4003D"></stop></linearGradient><linearGradient id="paint14_linear_2034_6433" x1="15.3658" y1="45.6572" x2="42.1924" y2="45.6572" gradientUnits="userSpaceOnUse"><stop stop-color="#FF4974"></stop><stop offset="0.3262" stop-color="#FE4672"></stop><stop offset="0.5324" stop-color="#FB3E6C"></stop><stop offset="0.7054" stop-color="#F52F60"></stop><stop offset="0.8591" stop-color="#EE1A51"></stop><stop offset="1" stop-color="#E4003D"></stop></linearGradient><linearGradient id="paint15_linear_2034_6433" x1="30.0547" y1="58.0551" x2="30.0547" y2="60.8794" gradientUnits="userSpaceOnUse"><stop stop-color="#A1B5D8" stop-opacity="0"></stop><stop offset="0.3862" stop-color="#8C9DB6" stop-opacity="0.384314"></stop><stop offset="0.7742" stop-color="#7A899A" stop-opacity="0.772549"></stop><stop offset="1" stop-color="#748290"></stop></linearGradient><clipPath id="clip0_2034_6433"><rect width="60" height="60" fill="white"></rect></clipPath></defs></svg>