<svg xmlns="http://www.w3.org/2000/svg" width="64" height="64" viewBox="0 0 64 64" fill="none"><g opacity="0.15"><path d="M60.7146 43.3078C60.7146 44.8364 60.3672 46.1914 59.6724 47.3726C59.047 48.4843 58.2132 49.4223 57.171 50.1866C56.1288 50.9509 54.9823 51.5415 53.7316 51.9584C52.5504 52.3058 51.4387 52.4795 50.3965 52.4795C48.7984 52.4795 47.1655 52.1321 45.4979 51.4373C43.8998 50.673 42.4407 49.596 41.1205 48.2064C39.8004 46.8167 38.7234 45.1491 37.8896 43.2036C37.0558 41.2581 36.6389 39.1041 36.6389 36.7417C36.6389 32.6422 37.4032 29.1334 38.9318 26.2151C40.5299 23.2968 42.406 20.8649 44.5599 18.9194C46.7834 16.9044 49.0415 15.3411 51.3345 14.2294C53.6969 13.0481 55.6424 12.2144 57.171 11.728V15.0631C55.7814 15.8969 54.2875 16.8002 52.6894 17.773C51.1608 18.7457 49.7364 19.8922 48.4162 21.2124C47.1655 22.5325 46.1233 24.0264 45.2895 25.694C44.4557 27.3616 44.0388 29.2376 44.0388 31.3221C44.0388 32.3643 44.143 33.1981 44.3515 33.8235C44.5599 34.4488 44.8031 34.9352 45.081 35.2826C45.4284 35.63 45.7411 35.8732 46.0191 36.0122C46.3665 36.1511 46.6444 36.2206 46.8528 36.2206C47.6171 36.2206 48.5552 36.0122 49.6669 35.5953C50.7786 35.1089 51.8208 34.8657 52.7936 34.8657C53.6969 34.8657 54.6002 35.0741 55.5034 35.491C56.4762 35.8384 57.3447 36.3943 58.109 37.1586C58.8733 37.8534 59.4987 38.722 59.9851 39.7642C60.4714 40.8065 60.7146 41.9877 60.7146 43.3078ZM28.2098 43.0994C28.2098 44.628 27.8624 45.9829 27.1675 47.1641C26.5422 48.3453 25.7084 49.3181 24.6662 50.0824C23.6239 50.7772 22.4775 51.3331 21.2268 51.75C20.0456 52.0974 18.8991 52.2711 17.7874 52.2711C16.1893 52.2711 14.5912 51.9237 12.9931 51.2288C11.395 50.4645 9.93586 49.4223 8.61569 48.1021C7.29552 46.7125 6.21854 45.0449 5.38474 43.0994C4.62044 41.1539 4.23828 38.9999 4.23828 36.6375C4.23828 32.538 5.00259 29.0291 6.53121 26.1109C8.12931 23.1231 10.0053 20.6565 12.1593 18.711C14.3827 16.696 16.6409 15.1326 18.9339 14.0209C21.2268 12.8397 23.1376 12.0059 24.6662 11.5195V14.9589C23.2765 15.7927 21.7826 16.696 20.1845 17.6687C18.6559 18.6415 17.2315 19.788 15.9114 21.1081C14.6607 22.4283 13.5837 23.9222 12.6804 25.5898C11.8466 27.1879 11.4297 29.0639 11.4297 31.2179C11.4297 33.1634 11.8119 34.4488 12.5762 35.0741C13.41 35.6995 14.0353 36.0122 14.4522 36.0122C15.1471 36.0122 16.0503 35.8037 17.162 35.3868C18.2738 34.9699 19.316 34.7615 20.2888 34.7615C21.192 34.7615 22.0953 34.9699 22.9986 35.3868C23.9713 35.7342 24.8399 36.2901 25.6042 37.0544C26.3685 37.7492 26.9938 38.6178 27.4802 39.66C27.9666 40.6327 28.2098 41.7792 28.2098 43.0994Z" fill="#FF5D3E"></path></g></svg>