<svg xmlns="http://www.w3.org/2000/svg" width="140" height="35" viewBox="0 0 140 35" fill="none"><path d="M26.5913 0H8.32672C3.728 0 0 3.728 0 8.32672V26.5913C0 31.19 3.728 34.918 8.32672 34.918H26.5913C31.19 34.918 34.918 31.19 34.918 26.5913V8.32672C34.918 3.728 31.19 0 26.5913 0Z" fill="white"></path><path d="M14.4898 20.1162L10.236 11.1847C12.0673 10.3125 14.17 10.2035 16.0816 10.8817C17.9932 11.5599 19.5571 12.9697 20.4293 14.8009L24.6831 23.7325C22.8518 24.6047 20.7491 24.7136 18.8375 24.0355C16.9259 23.3573 15.362 21.9475 14.4898 20.1162Z" fill="#F37821"></path><path fill-rule="evenodd" clip-rule="evenodd" d="M25.4044 23.3892L29.4579 21.4585L23.4922 19.3745L25.4044 23.3892Z" fill="#232221"></path><path fill-rule="evenodd" clip-rule="evenodd" d="M9.5135 11.5283L5.45996 13.459L11.444 15.5819L9.5135 11.5283Z" fill="#232221"></path><path d="M68.6276 19.3061V26.2002H65.3487V24.696C64.6975 25.7962 63.4403 26.3794 61.6665 26.3794C58.8368 26.3794 57.1523 24.8081 57.1523 22.7191C57.1523 20.5864 58.6573 19.104 62.3401 19.104H65.124C65.124 17.5998 64.2265 16.7241 62.3401 16.7241C61.0892 16.7137 59.8683 17.1075 58.8592 17.8469L57.6014 15.3992C58.9263 14.4557 60.8804 13.9395 62.8111 13.9395C66.4941 13.9396 68.6276 15.6458 68.6276 19.3061ZM65.1241 22.3831V21.1479H62.7216C61.0824 21.1479 60.5662 21.7538 60.5662 22.5625C60.5662 23.4382 61.307 24.0222 62.5422 24.0222C63.7096 24.0222 64.72 23.4834 65.1241 22.3831Z" fill="white"></path><path d="M91.2933 19.284V26.2H87.7898V19.8229C87.7898 17.8687 86.9141 16.9705 85.4995 16.9705C83.9275 16.9705 82.8272 17.981 82.8272 20.1371V26.2H79.3244V19.823C79.3244 17.8688 78.4939 16.9705 77.0341 16.9705C75.4847 16.9705 74.3844 17.9811 74.3844 20.1372V26.2H70.8809V14.1188H74.2269V15.5115C75.1252 14.4783 76.4726 13.9395 78.0221 13.9395C79.7065 13.9395 81.1436 14.5906 81.9967 15.9155C82.5238 15.2755 83.1904 14.7646 83.9454 14.4221C84.7005 14.0796 85.5239 13.9145 86.3526 13.9395C89.2269 13.9394 91.2933 15.6011 91.2933 19.284Z" fill="white"></path><path d="M91.0078 10.4805V13.4445C91.675 13.4448 92.3149 13.71 92.7867 14.1818C93.2585 14.6536 93.5237 15.2934 93.524 15.9607V26.1973H97.1603V17.0061C97.1603 14.1389 96.2494 13.4446 96.2494 13.4446H102.185V10.4806L91.0078 10.4805Z" fill="#F37821"></path><path d="M111.808 21.1478H102.669C103.006 22.6521 104.285 23.573 106.126 23.573C106.685 23.5953 107.242 23.5032 107.763 23.3024C108.284 23.1015 108.759 22.796 109.158 22.4048L111.022 24.426C109.899 25.7057 108.215 26.3794 106.037 26.3794C101.86 26.3794 99.1426 23.7523 99.1426 20.1598C99.1426 16.544 101.905 13.9395 105.588 13.9395C109.136 13.9395 111.875 16.3194 111.875 20.2043C111.875 20.4741 111.831 20.8554 111.808 21.1478ZM102.624 19.104H108.574C108.486 18.3895 108.132 17.7344 107.583 17.2686C107.034 16.8028 106.33 16.5603 105.61 16.5892C104.886 16.5519 104.175 16.7908 103.621 17.2577C103.067 17.7245 102.71 18.3844 102.624 19.104Z" fill="#F37821"></path><path d="M113.599 20.1598C113.599 16.5221 116.406 13.9395 120.336 13.9395C122.873 13.9395 124.872 15.0397 125.748 17.0157L123.03 18.4755C122.778 17.9723 122.39 17.5499 121.909 17.2562C121.429 16.9625 120.876 16.8093 120.313 16.8139C118.539 16.8139 117.147 18.0491 117.147 20.1599C117.147 22.2708 118.539 23.5052 120.313 23.5052C120.877 23.5147 121.432 23.3635 121.913 23.0692C122.394 22.775 122.782 22.3499 123.03 21.8436L125.748 23.326C124.872 25.2575 122.873 26.3797 120.336 26.3797C116.406 26.3795 113.599 23.7976 113.599 20.1598Z" fill="#F37821"></path><path d="M139.999 19.2843V26.2002H136.496V19.8231C136.496 17.869 135.598 16.9707 134.048 16.9707C132.365 16.9707 131.152 18.0039 131.152 20.227V26.2003H127.648V9.53857H131.152V15.3769C132.095 14.4333 133.442 13.9397 134.992 13.9397C137.843 13.9396 139.999 15.6013 139.999 19.2843Z" fill="#F37821"></path><path d="M55.6157 21.4654C55.642 21.3425 55.6642 21.2189 55.6837 21.0942C55.6999 20.9877 55.717 20.8816 55.728 20.7752C55.7521 20.5528 55.7657 20.3283 55.7676 20.1018C55.7676 20.0967 55.7685 20.0915 55.7685 20.0864C55.7685 20.0847 55.7685 20.0833 55.7685 20.0815C55.7689 20.0173 55.7674 19.953 55.7658 19.8886C55.765 19.8497 55.7658 19.8113 55.7642 19.7717C55.7618 19.7677 55.7626 19.7644 55.7611 19.7572C55.7608 19.6753 55.7541 19.5916 55.7473 19.5083C55.7462 19.488 55.7428 19.4686 55.7411 19.4485C55.7193 19.1839 55.6822 18.9208 55.63 18.6605C55.6196 18.6106 55.6009 18.5647 55.5894 18.5152L55.5878 18.5075C55.5734 18.4487 55.5583 18.3935 55.543 18.3378C55.5381 18.3189 55.5346 18.2999 55.5296 18.2811L55.5236 18.2588L55.5234 18.2564C55.5023 18.1762 55.4771 18.0984 55.4519 18.0205L55.4511 18.0182L55.4489 18.0112C55.4052 17.8714 55.3598 17.7335 55.3078 17.5984C55.2308 17.394 55.1456 17.1914 55.047 16.9921C55.0251 16.9484 55.0012 16.9063 54.9783 16.8631C54.9372 16.7848 54.8982 16.7059 54.8534 16.6286C54.7673 16.4799 54.6753 16.3363 54.5794 16.196C54.5678 16.1791 54.5552 16.1632 54.5434 16.1463C53.7146 14.9568 52.5276 14.063 51.1554 13.5952C51.1505 13.5935 51.1461 13.5909 51.141 13.5892C51.1336 13.5866 51.1259 13.5847 51.1185 13.5821C51.0463 13.5579 50.9737 13.535 50.9006 13.5134C50.8805 13.5074 50.8613 13.5004 50.8409 13.4945C50.837 13.4948 50.833 13.4945 50.8292 13.4934C50.1533 13.2985 49.4512 13.2095 48.7481 13.2298L50.9772 10.1356C51.0789 9.99456 51.1518 9.83483 51.1918 9.66556C51.2317 9.49629 51.2379 9.32081 51.21 9.14914C51.1821 8.97747 51.1206 8.81297 51.0291 8.66507C50.9376 8.51717 50.8179 8.38875 50.6767 8.28714C50.3917 8.08201 50.0369 7.99842 49.6903 8.05476C49.3437 8.11111 49.0336 8.30277 48.8283 8.58762L46.2676 12.1419L46.2673 12.1417L46.1356 12.3245L43.5202 15.9413C43.4837 15.9897 43.4491 16.0391 43.4138 16.0885L43.2784 16.2759L43.2871 16.2824C42.9108 16.8411 42.62 17.4529 42.4243 18.0974C42.3694 18.278 42.3218 18.4593 42.2827 18.6459L42.2987 18.649C42.2074 19.0709 42.1577 19.5007 42.15 19.9322H42.1364C42.114 20.9412 42.3225 21.9419 42.7459 22.8579C42.7856 22.9461 42.8261 23.031 42.8698 23.1168C42.8803 23.1432 42.8947 23.1673 42.9061 23.1906C42.9522 23.2804 43.0023 23.3677 43.0525 23.455C43.1098 23.5544 43.168 23.6506 43.2294 23.7475C43.3093 23.8662 43.3892 23.9847 43.4739 24.0976C43.532 24.1801 43.5917 24.2561 43.6546 24.333C43.712 24.4051 43.7724 24.4779 43.8337 24.5476C43.9272 24.6524 44.0216 24.7541 44.1166 24.8525C44.995 25.7493 46.1056 26.3839 47.3241 26.6856C49.0298 27.1027 50.8307 26.8458 52.3517 25.9684C53.8727 25.0909 54.9966 23.6606 55.4894 21.9751C55.4973 21.9484 55.5058 21.922 55.5134 21.8952C55.5321 21.828 55.5566 21.764 55.5733 21.6957C55.5923 21.619 55.5995 21.5421 55.6157 21.4654ZM51.0385 23.648C50.4617 23.9838 49.8121 24.1751 49.1453 24.2054C49.1389 24.2056 49.1325 24.2062 49.126 24.2065C49.0162 24.211 48.9066 24.2093 48.7971 24.2051C48.7676 24.2038 48.738 24.2033 48.7086 24.2015C48.6238 24.1964 48.5395 24.1869 48.4554 24.1767C48.3992 24.1696 48.3426 24.1629 48.2867 24.1535C48.2303 24.1444 48.1743 24.1326 48.1184 24.1212C48.0345 24.1036 47.9508 24.0851 47.8683 24.0625C47.8404 24.055 47.8127 24.0464 47.785 24.0383C47.6764 24.006 47.5686 23.9711 47.4633 23.9304L47.4543 23.9269C47.2127 23.8329 46.9802 23.7169 46.7598 23.5804L46.7586 23.5822C46.3736 23.3454 46.0299 23.0472 45.7411 22.6994C45.7094 22.6604 45.6778 22.6213 45.6474 22.5813C45.5818 22.4958 45.5166 22.4096 45.4569 22.318L45.4538 22.3172C45.4182 22.254 45.3786 22.1931 45.3431 22.1298C45.2927 22.0427 45.2494 21.953 45.2061 21.8633C45.1757 21.803 45.1485 21.7425 45.1232 21.6818C44.777 20.8635 44.6997 19.9563 44.9024 19.0912C45.0671 18.4011 45.4054 17.7646 45.8852 17.2419C46.3918 16.6938 47.036 16.2914 47.7509 16.0768C48.4658 15.8622 49.2251 15.8431 49.9498 16.0216C50.6041 16.1828 51.2095 16.5002 51.7142 16.9467C52.2188 17.3932 52.6077 17.9554 52.8475 18.5851C52.8651 18.6327 52.8792 18.6809 52.8963 18.7288C52.9523 18.8869 52.9985 19.0484 53.0344 19.2123C53.0481 19.2779 53.058 19.3435 53.0679 19.4096C53.0729 19.4408 53.0786 19.472 53.0828 19.5033C53.0918 19.5608 53.0968 19.6191 53.1035 19.6785C53.1111 19.7621 53.1157 19.8453 53.1183 19.9283C53.1212 19.9762 53.1216 20.0241 53.1194 20.072C53.1137 20.7976 52.9188 21.5092 52.5538 22.1363C52.1889 22.7635 51.6666 23.2845 51.0385 23.648V23.648Z" fill="white"></path></svg>