<svg xmlns="http://www.w3.org/2000/svg" width="1350" height="473" viewBox="0 0 1350 473" fill="none"><g clip-path="url(#clip0_1202_939)"><path d="M164.606 110.887C29.0373 104.57 1.47052 183.84 -42.4139 165.532C-44.391 78.0196 -68.9816 -94.1262 -65.6645 -99.3997C-62.3474 -104.673 409.98 -94.6051 672.561 -94.1585L673.127 -8.82493C617.61 44.0586 661.898 57.9173 460.304 55.2852C317.886 53.4257 316.354 117.958 164.606 110.887Z" fill="white" fill-opacity="0.04"></path><path d="M212.411 127.678C62.4987 120.693 32.0153 208.35 -16.5123 188.105C-18.6986 91.3331 -45.8909 -99.0263 -42.2228 -104.858C-38.5548 -110.689 483.747 -99.5559 774.11 -99.0621L774.736 -4.69991C713.345 53.7789 762.319 69.1039 539.395 66.1933C381.909 64.1371 380.215 135.497 212.411 127.678Z" fill="white" fill-opacity="0.04"></path><path d="M1191.04 350.178C1366.44 358.351 1402.11 255.789 1458.89 279.476C1461.45 392.703 1493.26 615.43 1488.97 622.254C1484.68 629.077 873.569 616.05 533.833 615.472L533.101 505.065C604.93 436.643 547.629 418.712 808.458 422.117C992.723 424.523 994.705 341.03 1191.04 350.178Z" fill="white" fill-opacity="0.04"></path><path d="M1129.19 328.453C1323.15 337.491 1362.59 224.078 1425.38 250.271C1428.21 375.477 1463.39 621.771 1458.64 629.316C1453.9 636.86 778.128 622.456 402.447 621.817L401.637 499.728C481.066 424.066 417.703 404.238 706.128 408.004C909.889 410.665 912.081 318.337 1129.19 328.453Z" fill="white" fill-opacity="0.04"></path></g><defs><clipPath id="clip0_1202_939"><rect width="1350" height="473" fill="white"></rect></clipPath></defs></svg>