<svg xmlns="http://www.w3.org/2000/svg" width="1200" height="179" viewBox="0 0 1200 179" fill="none"><g clip-path="url(#clip0_829_4463)"><g style="mix-blend-mode:overlay" opacity="0.1"><path d="M748.168 40.5321C761.041 29.7836 775.084 16.2753 790.372 3.1164C824.379 -26.073 864.589 -53.4018 912.121 -44.4219C1015.63 -24.8751 1000.3 55.8173 1073.71 84.5626C1142.49 111.503 1145.64 8.75306 1274.45 43.8017C1366.31 68.7927 1421.32 146.934 1445.34 189.709L1410.71 237.379C1386.36 191.983 1304.73 126.394 1217.83 147.045C1110.29 172.607 1045.85 143.598 966.222 44.7893C909.81 -25.2508 804.624 12.5541 748.159 40.5254L748.168 40.5321Z" fill="white"></path></g><g style="mix-blend-mode:overlay" opacity="0.1"><path d="M790.568 3.25616C824.575 -25.9332 864.785 -53.2621 912.317 -44.2822C1015.82 -24.7354 1000.49 55.957 1073.9 84.7023C1142.68 111.643 1145.84 8.8928 1274.65 43.9414C1366.5 68.9324 1421.52 147.073 1445.53 189.848L1387.18 270.169C1377.31 188.488 1254.79 37.1626 1148.52 124.361C1024.06 226.501 976.432 55.8187 892.255 4.6613C858.147 -16.0815 821.787 -10.6054 790.568 3.25616Z" fill="white"></path></g><path d="M709.999 61.8377C709.999 61.8377 758.314 76.4989 820.34 24.5126C882.36 -27.465 942.842 20.5368 973.051 74.3974C1003.26 128.258 1063.74 173.062 1144.92 140.078C1226.09 107.094 1368.74 168.949 1368.72 295.202" stroke="white" stroke-opacity="0.2" stroke-miterlimit="10"></path><g style="mix-blend-mode:overlay" opacity="0.1"><path d="M635.217 229.822C622.344 240.571 608.302 254.079 593.013 267.238C559.006 296.427 518.796 323.756 471.264 314.776C367.76 295.229 383.087 214.537 309.678 185.792C240.9 158.851 237.745 261.601 108.932 226.553C17.0781 201.562 -37.9343 123.421 -61.9502 80.6458L-27.3214 32.9755C-2.97385 78.3709 78.6558 143.961 165.553 123.309C273.093 97.747 337.538 126.757 417.163 225.565C473.575 295.605 578.762 257.8 635.226 229.829L635.217 229.822Z" fill="white"></path></g><g style="mix-blend-mode:overlay" opacity="0.1"><path d="M592.818 267.098C558.811 296.288 518.601 323.616 471.069 314.637C367.564 295.09 382.891 214.397 309.483 185.652C240.704 158.712 237.55 261.462 108.736 226.413C16.8828 201.422 -38.1296 123.281 -62.1455 80.5061L-3.79878 0.185441C6.07337 81.8668 128.597 233.192 234.862 145.993C359.324 43.8535 406.954 214.536 491.131 265.693C525.238 286.436 561.599 280.96 592.818 267.098Z" fill="white"></path></g><path d="M666.968 221.384C666.968 221.384 618.654 206.722 556.628 258.709C494.608 310.686 434.126 262.684 403.917 208.824C373.708 154.963 313.223 110.16 232.053 143.144C150.882 176.128 8.22514 114.272 8.25116 -11.9808" stroke="white" stroke-opacity="0.2" stroke-miterlimit="10"></path></g><defs><clipPath id="clip0_829_4463"><rect width="1200" height="179" fill="white"></rect></clipPath></defs></svg>