<svg xmlns="http://www.w3.org/2000/svg" width="320" height="263" viewBox="0 0 320 263" fill="none"><g clip-path="url(#clip0_829_8925)"><rect width="320" height="263" rx="20" fill="url(#paint0_linear_829_8925)"></rect><g style="mix-blend-mode:overlay" opacity="0.1"><path d="M114.857 60.2296C123.577 52.9484 133.09 43.7977 143.447 34.8837C166.484 15.1104 193.722 -3.40251 225.921 2.68063C296.037 15.9219 285.654 70.584 335.382 90.0564C381.973 108.306 384.11 38.7021 471.37 62.4445C533.593 79.3737 570.859 132.307 587.128 161.284L563.67 193.576C547.176 162.825 491.879 118.393 433.014 132.383C360.165 149.699 316.509 130.048 262.57 63.1135C224.356 15.6674 153.101 41.2769 114.851 60.2251L114.857 60.2296Z" fill="white"></path></g><g style="mix-blend-mode:overlay" opacity="0.1"><path d="M143.579 34.9788C166.616 15.2055 193.854 -3.30744 226.053 2.7757C296.168 16.017 285.786 70.6791 335.514 90.1515C382.105 108.401 384.242 38.7971 471.502 62.5396C533.725 79.4688 570.991 132.402 587.26 161.379L547.735 215.789C541.047 160.457 458.048 57.9475 386.063 117.017C301.751 186.208 269.485 70.5854 212.463 35.9307C189.358 21.8792 164.727 25.5888 143.579 34.9788Z" fill="white"></path></g><path d="M89.0005 74.6623C89.0005 74.6623 121.729 84.5941 163.747 49.3778C205.76 14.1675 246.731 46.6846 267.195 83.1704C287.659 119.656 328.632 150.007 383.618 127.663C438.605 105.319 535.242 147.221 535.224 232.747" stroke="white" stroke-opacity="0.2" stroke-miterlimit="10"></path><path opacity="0.4" d="M404.517 378.547C392.011 383.405 377.913 390.056 362.96 396.123C329.72 409.558 292.252 419.998 258.515 401.041C185.048 359.767 217.293 302.514 168.992 261.96C123.739 223.957 95.0844 301.042 6.39417 241.547C-56.8488 199.124 -78.5785 125.827 -85.8506 87.2621L-47.4149 59.9763C-40.5612 100.612 4.55416 171.199 75.7062 177.755C163.762 185.865 205.201 224.329 240.306 319.584C265.168 387.099 354.569 385.326 404.522 378.555L404.517 378.547Z" fill="#F8A046"></path><path opacity="0.3" d="M362.848 395.967C329.607 409.402 292.14 419.842 258.403 400.885C184.936 359.611 217.181 302.358 168.879 261.804C123.627 223.801 94.9723 300.886 6.28215 241.391C-56.9608 198.968 -78.6905 125.671 -85.9626 87.1061L-21.2016 41.1316C-34.5961 105.575 19.6056 251.607 122.45 212.667C242.907 167.051 235.386 308.614 286.122 368.91C306.675 393.353 335.639 398.495 362.848 395.967Z" fill="#FF4900"></path><path d="M430.743 380.266C430.743 380.266 397.865 356.803 337.558 380.358C277.257 403.907 243.677 352.059 234.544 303.508C225.411 254.957 191.012 205.532 121.048 209.789C51.0843 214.045 -41.248 130.691 -8.95728 34.9894" stroke="white" stroke-opacity="0.2" stroke-miterlimit="10"></path><path opacity="0.1" fill-rule="evenodd" clip-rule="evenodd" d="M20.6484 41.099C21.2124 42.343 22.4015 43.192 23.7679 43.3261L38.4173 44.7649C39.7837 44.899 41.1197 44.2981 41.9221 43.1883L50.5249 31.2905C51.3274 30.1808 51.4742 28.7308 50.9103 27.4869L44.8637 14.1503C44.2998 12.9063 43.1106 12.0574 41.7442 11.9232L27.0949 10.4844C25.7284 10.3503 24.3924 10.9512 23.59 12.061L14.9872 23.9588C14.1848 25.0686 14.0379 26.5185 14.6019 27.7625L20.6484 41.099Z" fill="url(#paint1_linear_829_8925)"></path><path opacity="0.5" d="M258.986 234.652L253.899 225.779C253.81 225.624 253.81 225.433 253.9 225.279L259.041 216.437C259.13 216.282 259.296 216.188 259.474 216.188L269.702 216.219C269.881 216.219 270.045 216.315 270.134 216.47L275.222 225.343C275.31 225.498 275.31 225.689 275.22 225.843L270.08 234.685C269.99 234.839 269.825 234.934 269.646 234.934L259.418 234.903C259.24 234.902 259.075 234.807 258.986 234.652Z" stroke="white"></path><path opacity="0.5" d="M83.1956 41.1202L82.016 39.0627C81.9271 38.9077 81.9277 38.7171 82.0175 38.5627L83.2095 36.5123C83.2992 36.3579 83.4646 36.2631 83.6432 36.2636L86.0149 36.2708C86.1935 36.2713 86.3583 36.3671 86.4471 36.5221L87.6268 38.5795C87.7157 38.7345 87.7151 38.9251 87.6253 39.0795L86.4333 41.1299C86.3435 41.2843 86.1782 41.3791 85.9995 41.3786L83.6279 41.3715C83.4493 41.3709 83.2845 41.2752 83.1956 41.1202Z" stroke="white"></path><g opacity="0.3"><path d="M301.971 160.936L296.691 167.858L298.607 152.979L301.971 160.936Z" fill="url(#paint2_linear_829_8925)"></path><path d="M289.963 151.944L298.608 152.979L284.685 158.866L289.963 151.944Z" fill="url(#paint3_linear_829_8925)"></path><path d="M296.69 167.858L288.047 166.823L284.683 158.867L296.69 167.858Z" fill="url(#paint4_linear_829_8925)"></path><path d="M298.607 152.979L296.691 167.858L284.684 158.866L298.607 152.979Z" fill="url(#paint5_linear_829_8925)"></path><path d="M295.887 157.261C295.644 157.172 295.393 157.106 295.137 157.064C295.025 157.042 294.911 157.026 294.797 157.017C294.683 157.01 294.569 156.997 294.453 157C294.386 157.001 294.317 156.993 294.249 156.994C294.179 156.995 294.108 157 294.037 157.002C293.94 157.006 293.844 157.02 293.748 157.028C293.687 157.033 293.624 157.043 293.563 157.05C293.498 157.058 293.434 157.075 293.369 157.084C293.294 157.093 293.221 157.108 293.149 157.128C293.043 157.157 292.937 157.189 292.831 157.217C292.527 157.297 292.249 157.44 291.964 157.564C291.869 157.606 291.779 157.656 291.695 157.715C291.614 157.77 291.525 157.813 291.446 157.874C291.384 157.922 291.318 157.966 291.25 158.005C291.194 158.036 291.148 158.083 291.095 158.119C291.037 158.16 290.99 158.217 290.925 158.249C290.884 158.273 290.847 158.303 290.815 158.337C290.754 158.393 290.693 158.452 290.631 158.504C290.546 158.574 290.472 158.653 290.395 158.728C290.277 158.845 290.165 158.969 290.062 159.099C289.945 159.241 289.837 159.389 289.738 159.544C289.691 159.617 289.649 159.694 289.605 159.768C289.508 159.941 289.427 160.122 289.363 160.308C289.301 160.482 289.26 160.662 289.241 160.845C289.228 160.938 289.224 161.032 289.228 161.125C289.237 161.228 289.226 161.336 289.271 161.434C289.282 161.458 289.268 161.482 289.275 161.505C289.283 161.534 289.296 161.556 289.33 161.542C289.388 161.518 289.451 161.51 289.51 161.487C289.757 161.391 289.999 161.284 290.243 161.183C290.411 161.114 290.571 161.028 290.734 160.949C290.824 160.912 290.911 160.87 290.996 160.822C291.102 160.755 291.226 160.72 291.326 160.649C291.417 160.584 291.528 160.557 291.608 160.477C291.614 160.472 291.62 160.469 291.627 160.466C291.733 160.42 291.818 160.336 291.927 160.294C291.985 160.224 292.076 160.202 292.146 160.147C292.211 160.096 292.283 160.05 292.354 160.005C292.429 159.956 292.505 159.908 292.579 159.856C292.644 159.806 292.713 159.761 292.784 159.72C292.858 159.68 292.924 159.628 292.996 159.585C293.1 159.522 293.2 159.453 293.301 159.384C293.36 159.353 293.417 159.317 293.471 159.277C293.54 159.212 293.628 159.185 293.702 159.131C293.786 159.07 293.874 159.015 293.966 158.967C294.01 158.953 294.049 158.927 294.078 158.892C294.081 158.888 294.086 158.885 294.09 158.884C294.201 158.851 294.283 158.767 294.387 158.721C294.412 158.711 294.435 158.699 294.458 158.684C294.582 158.6 294.716 158.53 294.856 158.475C294.918 158.448 294.962 158.392 295.03 158.377C295.219 158.337 295.39 158.239 295.581 158.204C295.605 158.199 295.628 158.193 295.651 158.186C295.743 158.16 295.836 158.141 295.93 158.129C295.984 158.12 296.039 158.112 296.094 158.105C296.157 158.096 296.222 158.095 296.284 158.085C296.364 158.075 296.444 158.071 296.525 158.071C296.617 158.067 296.709 158.068 296.801 158.074C296.902 158.076 297.002 158.085 297.102 158.101C297.109 158.104 297.117 158.103 297.123 158.1C297.13 158.098 297.136 158.092 297.139 158.086C297.146 158.073 297.136 158.062 297.128 158.054C297.083 158.006 297.041 157.955 296.991 157.912C296.881 157.813 296.764 157.722 296.642 157.639C296.498 157.541 296.346 157.456 296.186 157.386C296.143 157.368 296.11 157.33 296.059 157.328C296.04 157.338 296.028 157.333 296.021 157.313L296.021 157.313C295.996 157.315 295.971 157.311 295.948 157.302C295.925 157.293 295.904 157.279 295.887 157.261V157.261ZM291.901 158.259C292.008 158.203 292.147 158.169 292.279 158.114C292.297 158.108 292.316 158.104 292.336 158.103C292.362 158.101 292.388 158.096 292.414 158.088C292.49 158.053 292.57 158.027 292.652 158.013C292.732 158.005 292.806 157.955 292.892 157.944C292.954 157.936 293.016 157.912 293.08 157.899C293.168 157.889 293.254 157.869 293.338 157.84C293.348 157.834 293.361 157.832 293.372 157.835C293.401 157.847 293.424 157.832 293.449 157.823C293.464 157.816 293.48 157.811 293.497 157.81C293.584 157.815 293.671 157.811 293.758 157.799C293.848 157.795 293.938 157.808 294.023 157.839C294.06 157.855 294.09 157.884 294.106 157.922C294.121 157.959 294.122 158.001 294.106 158.039C294.057 158.146 293.987 158.243 293.9 158.324C293.875 158.35 293.846 158.374 293.821 158.403C293.769 158.459 293.714 158.511 293.655 158.56C293.592 158.613 293.527 158.662 293.458 158.708C293.356 158.782 293.265 158.873 293.146 158.922C293.139 158.925 293.133 158.929 293.129 158.935C293.116 158.969 293.083 158.975 293.057 158.991C292.965 159.049 292.882 159.12 292.778 159.157C292.738 159.22 292.665 159.227 292.607 159.258C292.586 159.27 292.557 159.272 292.547 159.295C292.54 159.306 292.532 159.315 292.523 159.322C292.513 159.329 292.502 159.335 292.49 159.337C292.379 159.385 292.267 159.432 292.155 159.479C292.14 159.486 292.121 159.498 292.108 159.495C292.088 159.491 292.067 159.491 292.047 159.495C292.027 159.5 292.007 159.508 291.991 159.52C291.911 159.553 291.826 159.572 291.741 159.576C291.673 159.591 291.605 159.599 291.536 159.601C291.457 159.605 291.378 159.601 291.301 159.588C291.285 159.583 291.27 159.573 291.252 159.581C291.239 159.585 291.224 159.586 291.21 159.584C291.196 159.581 291.182 159.574 291.172 159.564C291.153 159.549 291.131 159.54 291.107 159.536C291.078 159.529 291.049 159.517 291.024 159.5C290.991 159.486 290.983 159.455 290.961 159.435C290.924 159.4 290.898 159.357 290.883 159.31C290.868 159.262 290.865 159.212 290.876 159.163C290.883 159.087 290.911 159.015 290.957 158.955C291.007 158.895 291.038 158.821 291.1 158.768C291.178 158.703 291.236 158.613 291.336 158.574C291.341 158.572 291.345 158.569 291.348 158.565C291.397 158.499 291.476 158.475 291.54 158.43C291.653 158.36 291.774 158.303 291.901 158.259V158.259ZM290.588 159.984C290.603 160.009 290.61 160.037 290.61 160.066C290.61 160.095 290.602 160.123 290.588 160.148C290.579 160.171 290.573 160.199 290.544 160.199C290.53 160.2 290.515 160.197 290.503 160.189C290.49 160.182 290.48 160.171 290.473 160.159C290.463 160.14 290.461 160.113 290.44 160.105C290.394 160.087 290.419 160.049 290.41 160.021C290.397 159.981 290.418 159.955 290.438 159.931C290.447 159.921 290.458 159.912 290.471 159.907C290.484 159.902 290.498 159.901 290.512 159.903C290.526 159.905 290.539 159.91 290.55 159.919C290.56 159.927 290.569 159.938 290.574 159.951C290.58 159.962 290.584 159.973 290.588 159.984V159.984ZM290.323 159.619C290.298 159.57 290.276 159.523 290.316 159.471C290.335 159.446 290.347 159.421 290.39 159.431C290.436 159.44 290.481 159.455 290.487 159.5C290.499 159.562 290.49 159.626 290.46 159.682C290.457 159.688 290.453 159.694 290.448 159.699C290.442 159.704 290.436 159.707 290.43 159.71C290.423 159.712 290.416 159.713 290.409 159.712C290.401 159.712 290.395 159.71 290.388 159.707C290.342 159.694 290.342 159.65 290.323 159.619V159.619ZM290.847 159.996L290.846 159.997C290.838 159.979 290.83 159.962 290.824 159.944C290.819 159.92 290.823 159.894 290.836 159.873C290.849 159.851 290.869 159.835 290.893 159.827C290.932 159.816 290.998 159.847 291.001 159.888C291.005 159.945 291.025 160.003 290.991 160.06C290.962 160.11 290.91 160.117 290.878 160.068C290.866 160.045 290.855 160.021 290.847 159.996V159.996Z" fill="white"></path><path d="M297.597 158.565C297.576 158.567 297.555 158.571 297.535 158.575C297.286 158.648 297.044 158.74 296.81 158.85C296.713 158.936 296.577 158.956 296.481 159.044C296.468 159.055 296.454 159.064 296.438 159.07C296.35 159.114 296.265 159.166 296.186 159.224C296.125 159.262 296.066 159.303 296.01 159.347C295.954 159.391 295.897 159.435 295.839 159.476C295.789 159.512 295.738 159.548 295.69 159.586C295.637 159.627 295.584 159.668 295.534 159.712C295.482 159.757 295.421 159.788 295.369 159.834C295.327 159.871 295.277 159.902 295.233 159.939C295.162 159.996 295.089 160.048 295.012 160.096C294.953 160.135 294.894 160.178 294.836 160.219C294.763 160.272 294.678 160.309 294.614 160.375C294.611 160.379 294.606 160.381 294.602 160.383C294.513 160.411 294.446 160.478 294.367 160.524C294.281 160.573 294.197 160.625 294.114 160.679C294.056 160.717 293.996 160.751 293.933 160.78C293.869 160.809 293.822 160.863 293.755 160.888C293.69 160.915 293.629 160.949 293.572 160.99C293.478 161.049 293.368 161.082 293.274 161.141C293.076 161.265 292.856 161.339 292.645 161.436C292.434 161.532 292.217 161.62 292.002 161.709C291.798 161.793 291.591 161.869 291.391 161.963C291.367 161.974 291.343 161.987 291.317 162C291.353 162.054 291.411 162.031 291.454 162.033C291.562 162.039 291.671 162.04 291.779 162.036C291.861 162.034 291.944 162.022 292.026 162.019C292.08 162.016 292.133 161.995 292.187 162.006C292.195 162.006 292.202 162.005 292.209 162.002C292.297 161.979 292.387 161.965 292.477 161.959C292.48 161.96 292.482 161.959 292.484 161.958C292.574 161.916 292.679 161.925 292.767 161.878C292.828 161.846 292.897 161.848 292.96 161.824C293.131 161.764 293.299 161.692 293.46 161.608C293.547 161.569 293.631 161.523 293.711 161.47C293.779 161.416 293.86 161.385 293.927 161.329C293.982 161.282 294.047 161.241 294.106 161.198C294.158 161.165 294.207 161.128 294.253 161.087C294.296 161.048 294.341 161.013 294.389 160.98C294.488 160.903 294.591 160.831 294.688 160.75C294.732 160.713 294.782 160.676 294.829 160.641C294.873 160.607 294.921 160.575 294.963 160.537C295.01 160.493 295.061 160.452 295.113 160.414C295.162 160.38 295.208 160.344 295.252 160.305C295.295 160.268 295.34 160.232 295.386 160.196C295.469 160.13 295.557 160.069 295.635 159.996C295.679 159.955 295.731 159.924 295.778 159.886C295.824 159.85 295.867 159.808 295.915 159.775C295.969 159.738 296.014 159.692 296.065 159.653C296.113 159.616 296.164 159.582 296.21 159.54C296.251 159.502 296.301 159.47 296.343 159.431C296.394 159.386 296.448 159.344 296.506 159.306C296.595 159.244 296.666 159.159 296.764 159.109C296.805 159.042 296.89 159.035 296.941 158.977C296.974 158.938 297.036 158.931 297.077 158.896C297.127 158.858 297.181 158.825 297.239 158.8C297.343 158.746 297.438 158.674 297.549 158.632C297.578 158.621 297.573 158.595 297.597 158.565Z" fill="white"></path><path d="M292.209 160.821L292.089 160.875C292.089 160.885 292.086 160.896 292.076 160.899C292.015 160.921 291.965 160.965 291.905 160.99C291.613 161.114 291.322 161.239 291.03 161.363C290.906 161.416 290.78 161.463 290.651 161.504C290.637 161.509 290.623 161.513 290.611 161.5L290.476 161.553C290.414 161.594 290.345 161.622 290.272 161.637C290.24 161.644 290.209 161.677 290.172 161.651C290.035 161.712 289.883 161.726 289.748 161.791C289.635 161.795 289.536 161.856 289.425 161.871C289.341 161.882 289.273 161.939 289.193 161.968C289.217 162.013 289.261 162.009 289.294 162.013C289.436 162.028 289.578 162.04 289.721 162.047C289.819 162.051 289.918 162.04 290.016 162.043C290.098 162.045 290.18 162.032 290.261 162.028C290.324 162.024 290.389 162.013 290.453 162.003C290.515 161.988 290.578 161.977 290.642 161.97C290.654 161.97 290.666 161.969 290.678 161.965C290.791 161.925 290.911 161.91 291.026 161.871C291.171 161.827 291.313 161.775 291.452 161.715C291.528 161.678 291.612 161.658 291.674 161.596C291.682 161.59 291.691 161.585 291.7 161.583C291.834 161.535 291.947 161.45 292.066 161.377C292.172 161.312 292.279 161.247 292.38 161.176C292.45 161.126 292.534 161.095 292.593 161.03C292.596 161.026 292.6 161.023 292.605 161.021C292.688 160.988 292.753 160.925 292.829 160.879C292.901 160.84 292.969 160.795 293.032 160.744C293.042 160.733 293.054 160.724 293.066 160.717C293.143 160.677 293.216 160.63 293.284 160.575C293.349 160.529 293.42 160.489 293.485 160.441C293.551 160.391 293.625 160.346 293.691 160.296C293.758 160.246 293.844 160.226 293.896 160.157C293.9 160.153 293.904 160.15 293.908 160.149C293.986 160.115 294.057 160.067 294.118 160.009C294.188 159.952 294.281 159.933 294.338 159.86C294.341 159.857 294.345 159.854 294.35 159.853C294.439 159.822 294.506 159.756 294.58 159.704C294.651 159.655 294.736 159.625 294.794 159.558C294.808 159.548 294.823 159.54 294.839 159.535C294.887 159.517 294.93 159.489 294.967 159.453C294.978 159.444 294.99 159.436 295.004 159.432C295.111 159.38 295.221 159.334 295.324 159.276C295.448 159.205 295.581 159.154 295.71 159.091C295.722 159.085 295.737 159.081 295.742 159.065C295.735 159.049 295.722 159.055 295.712 159.059C295.634 159.083 295.554 159.101 295.474 159.113C295.347 159.139 295.221 159.175 295.099 159.219C294.884 159.288 294.676 159.376 294.477 159.483C294.318 159.563 294.163 159.652 294.014 159.75C293.935 159.803 293.849 159.846 293.77 159.902C293.696 159.954 293.618 160.004 293.542 160.054C293.458 160.109 293.363 160.148 293.289 160.218C293.288 160.22 293.286 160.221 293.283 160.222C293.182 160.259 293.102 160.332 293.009 160.382C292.892 160.446 292.777 160.512 292.662 160.577C292.601 160.612 292.54 160.645 292.478 160.676C292.476 160.683 292.477 160.694 292.473 160.696C292.392 160.751 292.303 160.793 292.209 160.821V160.821Z" fill="white"></path><path d="M290.284 163.285C290.34 163.289 290.397 163.293 290.453 163.298C290.557 163.308 290.66 163.306 290.763 163.306C290.851 163.306 290.938 163.295 291.025 163.287C291.084 163.281 291.145 163.268 291.203 163.263C291.279 163.257 291.346 163.221 291.421 163.218C291.438 163.218 291.455 163.215 291.471 163.209C291.572 163.169 291.682 163.158 291.782 163.119C291.938 163.065 292.089 162.999 292.234 162.92C292.324 162.865 292.427 162.829 292.502 162.751C292.505 162.748 292.509 162.745 292.514 162.743C292.61 162.709 292.688 162.641 292.772 162.587C292.85 162.537 292.941 162.504 293.007 162.435C293.012 162.429 293.018 162.425 293.024 162.422C293.114 162.386 293.185 162.319 293.269 162.272C293.352 162.228 293.43 162.177 293.504 162.12C293.509 162.114 293.514 162.11 293.521 162.106C293.609 162.067 293.68 162.001 293.764 161.952C293.84 161.914 293.912 161.866 293.978 161.81C294.003 161.786 294.044 161.778 294.071 161.755C294.142 161.693 294.235 161.664 294.301 161.595C294.304 161.592 294.308 161.589 294.313 161.588C294.4 161.552 294.48 161.502 294.552 161.441C294.623 161.39 294.711 161.361 294.769 161.289C294.772 161.286 294.776 161.283 294.781 161.282C294.875 161.252 294.946 161.183 295.028 161.134C295.099 161.093 295.167 161.048 295.232 160.999C295.265 160.974 295.302 160.956 295.335 160.933C295.418 160.886 295.498 160.833 295.574 160.775C295.583 160.767 295.594 160.762 295.606 160.757C295.712 160.71 295.806 160.642 295.91 160.589C295.97 160.559 296.033 160.533 296.094 160.502C296.144 160.477 296.148 160.46 296.124 160.411C296.104 160.37 296.095 160.365 296.05 160.386C296 160.401 295.953 160.429 295.916 160.466C295.893 160.485 295.867 160.498 295.839 160.506C295.764 160.541 295.692 160.581 295.624 160.626C295.566 160.665 295.495 160.684 295.437 160.722C295.326 160.797 295.197 160.838 295.087 160.909C294.993 160.97 294.884 161.001 294.796 161.066C294.685 161.149 294.547 161.184 294.442 161.274C294.436 161.278 294.429 161.281 294.422 161.284C294.286 161.344 294.154 161.415 294.029 161.497C293.924 161.558 293.807 161.603 293.714 161.685C293.707 161.691 293.698 161.696 293.689 161.7C293.575 161.756 293.464 161.82 293.356 161.889C293.281 161.93 293.203 161.97 293.133 162.019C293.028 162.091 292.91 162.137 292.801 162.199C292.57 162.321 292.332 162.43 292.089 162.525C292.024 162.557 291.956 162.583 291.886 162.603C291.748 162.634 291.623 162.701 291.488 162.735C291.401 162.757 291.316 162.79 291.23 162.808C291.151 162.824 291.078 162.862 291.001 162.87C290.914 162.88 290.837 162.929 290.749 162.923C290.741 162.923 290.734 162.924 290.727 162.926C290.652 162.963 290.568 162.963 290.489 162.979C290.375 163.007 290.26 163.025 290.143 163.034C290.09 163.035 290.036 163.054 289.982 163.059C289.914 163.072 289.846 163.08 289.777 163.082C289.77 163.081 289.762 163.082 289.755 163.084C289.743 163.086 289.73 163.089 289.727 163.102C289.723 163.117 289.734 163.123 289.746 163.128C289.866 163.183 289.993 163.224 290.123 163.25C290.171 163.246 290.219 163.252 290.265 163.266C290.27 163.267 290.274 163.269 290.277 163.272C290.281 163.276 290.283 163.28 290.284 163.285V163.285Z" fill="white"></path><path fill-rule="evenodd" clip-rule="evenodd" d="M290.241 163.787C290.203 163.746 290.17 163.7 290.143 163.65C290.188 163.642 290.235 163.643 290.28 163.651C290.309 163.653 290.339 163.655 290.368 163.657C290.447 163.663 290.525 163.669 290.604 163.672C290.703 163.676 290.802 163.674 290.901 163.666C290.996 163.658 291.091 163.647 291.186 163.637C291.212 163.634 291.237 163.626 291.263 163.618C291.306 163.605 291.349 163.592 291.395 163.603C291.447 163.585 291.5 163.573 291.553 163.561C291.627 163.545 291.701 163.528 291.771 163.496C291.792 163.486 291.814 163.483 291.836 163.48C291.859 163.477 291.882 163.474 291.904 163.464C291.974 163.431 292.046 163.402 292.118 163.372C292.258 163.316 292.398 163.259 292.528 163.177C292.573 163.149 292.62 163.126 292.667 163.102C292.728 163.072 292.789 163.041 292.845 163.002C292.907 162.957 292.973 162.918 293.04 162.882C293.075 162.864 293.108 162.841 293.14 162.818C293.186 162.785 293.232 162.753 293.286 162.733C293.288 162.732 293.29 162.731 293.292 162.729C293.351 162.678 293.417 162.637 293.482 162.595C293.538 162.56 293.594 162.525 293.645 162.484C293.672 162.463 293.702 162.445 293.733 162.427C293.754 162.415 293.776 162.402 293.797 162.388C293.828 162.366 293.86 162.344 293.891 162.322C293.954 162.278 294.017 162.234 294.082 162.194C294.11 162.176 294.137 162.158 294.165 162.14C294.207 162.112 294.249 162.084 294.293 162.059C294.358 162.022 294.42 161.98 294.478 161.933C294.523 161.898 294.571 161.869 294.619 161.839C294.648 161.821 294.677 161.803 294.705 161.784C294.735 161.764 294.765 161.745 294.795 161.726C294.845 161.695 294.894 161.664 294.94 161.629C294.968 161.608 294.999 161.59 295.03 161.572C295.071 161.548 295.113 161.524 295.15 161.491C295.203 161.451 295.26 161.416 295.319 161.387C295.375 161.353 295.431 161.317 295.486 161.282C295.552 161.239 295.617 161.197 295.685 161.158C295.73 161.131 295.776 161.106 295.823 161.081C295.875 161.052 295.928 161.023 295.98 160.992C296.009 160.976 296.04 160.961 296.072 160.949C296.117 160.931 296.159 160.905 296.2 160.879C296.236 160.857 296.273 160.834 296.312 160.816C296.54 160.713 296.77 160.616 297.001 160.52C297.058 160.496 297.116 160.473 297.174 160.45C297.238 160.425 297.302 160.4 297.365 160.373C297.447 160.339 297.532 160.311 297.616 160.283C297.727 160.246 297.837 160.209 297.942 160.157C297.948 160.154 297.954 160.152 297.96 160.149C297.963 160.148 297.966 160.147 297.969 160.146C298.07 160.103 298.097 160.114 298.106 160.222C298.11 160.263 298.119 160.303 298.129 160.343C298.139 160.388 298.15 160.434 298.152 160.482C298.159 160.554 298.163 160.627 298.162 160.699C298.152 160.858 298.116 161.014 298.053 161.161C297.966 161.351 297.83 161.514 297.658 161.634C297.563 161.699 297.462 161.753 297.355 161.797C297.171 161.885 296.982 161.963 296.793 162.042C296.731 162.068 296.669 162.094 296.607 162.12C295.726 162.493 294.846 162.865 293.965 163.237C293.849 163.286 293.733 163.335 293.617 163.384C293.139 163.586 292.66 163.789 292.18 163.987C292.126 164.01 292.072 164.034 292.018 164.058C291.879 164.12 291.739 164.182 291.588 164.218C291.476 164.253 291.36 164.274 291.244 164.282C291.141 164.286 291.037 164.275 290.938 164.25C290.738 164.195 290.555 164.092 290.404 163.952C290.348 163.899 290.292 163.844 290.241 163.787ZM295.924 162.145C295.932 162.129 295.937 162.114 295.942 162.099C295.952 162.07 295.962 162.043 295.986 162.019C296.021 161.983 296.054 161.945 296.088 161.907C296.131 161.856 296.175 161.806 296.224 161.76C296.283 161.71 296.338 161.655 296.39 161.598C296.42 161.565 296.453 161.535 296.488 161.509C296.527 161.473 296.563 161.436 296.596 161.396C296.612 161.38 296.63 161.367 296.648 161.354C296.666 161.341 296.684 161.328 296.7 161.312C296.717 161.295 296.733 161.276 296.749 161.257C296.787 161.213 296.825 161.169 296.879 161.142C296.885 161.138 296.89 161.133 296.894 161.127C296.926 161.083 296.968 161.047 297.016 161.022C297.024 161.018 297.03 161.013 297.036 161.007C297.041 161 297.046 160.993 297.048 160.985C297.051 160.977 297.056 160.969 297.062 160.963C297.068 160.957 297.075 160.952 297.083 160.949C297.106 160.934 297.128 160.917 297.149 160.899C297.17 160.888 297.186 160.872 297.202 160.856C297.221 160.837 297.24 160.818 297.266 160.809C297.268 160.808 297.269 160.808 297.271 160.807M295.991 162.128C295.97 162.137 295.947 162.142 295.924 162.145ZM295.991 162.128C296 162.125 296.008 162.121 296.017 162.117ZM296.017 162.117C296.017 162.117 296.017 162.117 296.017 162.117ZM296.044 162.104C296.04 162.106 296.036 162.108 296.033 162.11C296.027 162.112 296.022 162.115 296.017 162.117M296.14 162.096C296.116 162.106 296.09 162.111 296.06 162.103C296.055 162.101 296.05 162.102 296.044 162.104M296.949 161.752C296.7 161.858 296.451 161.964 296.202 162.068C296.193 162.072 296.184 162.076 296.175 162.08C296.164 162.086 296.152 162.092 296.14 162.096M296.973 161.745C296.965 161.748 296.957 161.751 296.949 161.752ZM297.144 161.639C297.127 161.646 297.111 161.652 297.096 161.66C297.091 161.663 297.085 161.666 297.079 161.668C297.065 161.673 297.052 161.679 297.047 161.688C297.028 161.714 297.002 161.734 296.973 161.745M297.168 161.63C297.163 161.632 297.158 161.634 297.153 161.636C297.15 161.637 297.147 161.638 297.144 161.639M297.718 160.537C297.732 160.531 297.747 160.529 297.762 160.53C297.778 160.53 297.793 160.535 297.806 160.542C297.813 160.547 297.82 160.551 297.827 160.555C297.854 160.572 297.883 160.589 297.882 160.626C297.881 160.754 297.85 160.88 297.79 160.994C297.728 161.121 297.645 161.238 297.544 161.338C297.525 161.355 297.507 161.373 297.489 161.391C297.429 161.449 297.37 161.508 297.293 161.546C297.292 161.547 297.291 161.547 297.29 161.547C297.289 161.548 297.287 161.548 297.286 161.55C297.257 161.594 297.213 161.613 297.168 161.63M297.718 160.537C297.717 160.538 297.715 160.539 297.713 160.539C297.639 160.568 297.572 160.611 297.515 160.665C297.443 160.724 297.363 160.771 297.276 160.805" fill="white"></path></g></g><defs><linearGradient id="paint0_linear_829_8925" x1="0" y1="131.481" x2="320.019" y2="131.481" gradientUnits="userSpaceOnUse"><stop stop-color="#FF5722"></stop><stop offset="1" stop-color="#FF9E28"></stop></linearGradient><linearGradient id="paint1_linear_829_8925" x1="17.7147" y1="44.6992" x2="68.5008" y2="51.7036" gradientUnits="userSpaceOnUse"><stop stop-color="white"></stop><stop offset="1" stop-color="#FFECB3"></stop></linearGradient><linearGradient id="paint2_linear_829_8925" x1="300.172" y1="166.386" x2="295.126" y2="154.451" gradientUnits="userSpaceOnUse"><stop stop-color="#DB5A00"></stop><stop offset="1" stop-color="#FFCBA7"></stop></linearGradient><linearGradient id="paint3_linear_829_8925" x1="291.646" y1="155.922" x2="289.964" y2="151.943" gradientUnits="userSpaceOnUse"><stop stop-color="#FFBE91"></stop><stop offset="1" stop-color="#F16400"></stop></linearGradient><linearGradient id="paint4_linear_829_8925" x1="293.21" y1="169.33" x2="288.164" y2="157.395" gradientUnits="userSpaceOnUse"><stop stop-color="#DB5A00"></stop><stop offset="1" stop-color="#FFCBA7"></stop></linearGradient><linearGradient id="paint5_linear_829_8925" x1="296.691" y1="167.857" x2="291.646" y2="155.923" gradientUnits="userSpaceOnUse"><stop offset="0.0249283" stop-color="#FFC59C"></stop><stop offset="1" stop-color="#EF690B"></stop></linearGradient><clipPath id="clip0_829_8925"><rect width="320" height="263" fill="white"></rect></clipPath></defs></svg>