<svg width="200" height="45" viewBox="0 0 200 45" fill="none" xmlns="http://www.w3.org/2000/svg">
<g clip-path="url(#clip0_829_6064)">
<path d="M58.4942 17.3234C58.4092 16.4662 58.0443 15.8002 57.3996 15.3256C56.7549 14.8509 55.88 14.6135 54.7748 14.6135C54.0238 14.6135 53.3898 14.7198 52.8726 14.9324C52.3554 15.1378 51.9587 15.4247 51.6824 15.7931C51.4131 16.1615 51.2785 16.5795 51.2785 17.0471C51.2644 17.4368 51.3458 17.7768 51.523 18.0673C51.7072 18.3578 51.9587 18.6093 52.2775 18.8218C52.5963 19.0273 52.9647 19.2079 53.3827 19.3638C53.8007 19.5126 54.247 19.6401 54.7217 19.7464L56.677 20.2139C57.6263 20.4265 58.4978 20.7099 59.2912 21.0641C60.0847 21.4183 60.7719 21.854 61.3529 22.3712C61.9338 22.8884 62.3837 23.4977 62.7025 24.199C63.0284 24.9004 63.1949 25.7045 63.2019 26.6113C63.1949 27.9433 62.8548 29.098 62.1818 30.0757C61.5158 31.0463 60.5523 31.8008 59.2912 32.3393C58.0373 32.8706 56.5247 33.1363 54.7535 33.1363C52.9966 33.1363 51.4663 32.8671 50.1627 32.3286C48.8662 31.7902 47.8531 30.9932 47.1234 29.9376C46.4008 28.8749 46.0218 27.5607 45.9863 25.995H50.439C50.4886 26.7247 50.6976 27.334 51.066 27.8228C51.4415 28.3046 51.9409 28.6694 52.5644 28.9174C53.1949 29.1583 53.9069 29.2787 54.7004 29.2787C55.4797 29.2787 56.1563 29.1653 56.7301 28.9386C57.3111 28.7119 57.761 28.3967 58.0798 27.9928C58.3986 27.589 58.558 27.125 58.558 26.6007C58.558 26.1119 58.4127 25.701 58.1223 25.368C57.8389 25.035 57.4209 24.7516 56.8683 24.5178C56.3228 24.284 55.6533 24.0715 54.8598 23.8802L52.49 23.2851C50.6551 22.8388 49.2063 22.141 48.1436 21.1916C47.0809 20.2423 46.5531 18.9635 46.5602 17.3553C46.5531 16.0376 46.9038 14.8863 47.6122 13.9015C48.3278 12.9168 49.309 12.1481 50.5559 11.5955C51.8028 11.0429 53.2197 10.7666 54.8067 10.7666C56.422 10.7666 57.8318 11.0429 59.0362 11.5955C60.2477 12.1481 61.1899 12.9168 61.8629 13.9015C62.536 14.8863 62.8831 16.0269 62.9044 17.3234H58.4942Z" fill="#FF5722"/>
<path d="M74.8942 16.5051V19.9058H65.0643V16.5051H74.8942ZM67.296 12.5944H71.823V27.8122C71.823 28.2302 71.8868 28.5561 72.0143 28.7899C72.1418 29.0166 72.319 29.176 72.5457 29.2681C72.7795 29.3602 73.0487 29.4062 73.3533 29.4062C73.5658 29.4062 73.7784 29.3885 73.9909 29.3531C74.2035 29.3106 74.3664 29.2787 74.4798 29.2574L75.1918 32.6262C74.9651 32.697 74.6462 32.7785 74.2353 32.8706C73.8244 32.9698 73.325 33.03 72.7369 33.0513C71.6459 33.0938 70.6895 32.9485 69.8677 32.6156C69.0529 32.2826 68.4189 31.7654 67.9655 31.064C67.512 30.3626 67.2889 29.4771 67.296 28.4073V12.5944Z" fill="#FF5722"/>
<path d="M82.4978 33.1363C81.4563 33.1363 80.5283 32.9556 79.7135 32.5943C78.8988 32.2259 78.2541 31.6839 77.7794 30.9684C77.3118 30.2458 77.078 29.346 77.078 28.2691C77.078 27.3623 77.2445 26.6007 77.5775 25.9844C77.9105 25.368 78.3639 24.8721 78.9378 24.4966C79.5116 24.1211 80.1634 23.8377 80.8931 23.6464C81.6299 23.4551 82.4021 23.3205 83.2098 23.2426C84.1591 23.1434 84.9243 23.0513 85.5052 22.9663C86.0861 22.8742 86.5077 22.7396 86.7698 22.5625C87.0319 22.3854 87.163 22.1232 87.163 21.7761V21.7123C87.163 21.0393 86.9505 20.5186 86.5254 20.1502C86.1074 19.7818 85.5123 19.5976 84.7401 19.5976C83.9253 19.5976 83.2771 19.7782 82.7953 20.1395C82.3136 20.4938 81.9948 20.9401 81.8389 21.4785L77.6519 21.1385C77.8644 20.1466 78.2824 19.2894 78.9059 18.5668C79.5293 17.837 80.3334 17.2774 81.3182 16.8877C82.31 16.491 83.4577 16.2926 84.7613 16.2926C85.6681 16.2926 86.536 16.3989 87.3649 16.6114C88.2009 16.8239 88.9412 17.1534 89.5859 17.5997C90.2377 18.046 90.7514 18.6199 91.1268 19.3213C91.5023 20.0156 91.6901 20.848 91.6901 21.8186V32.8281H87.3968V30.5646H87.2693C87.0071 31.0746 86.6564 31.5245 86.2172 31.9142C85.778 32.2967 85.2501 32.5978 84.6338 32.8175C84.0174 33.03 83.3054 33.1363 82.4978 33.1363ZM83.7943 30.012C84.4602 30.012 85.0482 29.8809 85.5583 29.6188C86.0684 29.3495 86.4687 28.9882 86.7592 28.5348C87.0496 28.0814 87.1949 27.5678 87.1949 26.9939V25.2617C87.0532 25.3538 86.8584 25.4388 86.6104 25.5168C86.3695 25.5876 86.0968 25.6549 85.7921 25.7187C85.4875 25.7754 85.1828 25.8285 84.8782 25.8781C84.5736 25.9206 84.2973 25.9596 84.0493 25.995C83.518 26.0729 83.0539 26.1969 82.6572 26.3669C82.2604 26.537 81.9523 26.7672 81.7326 27.0577C81.513 27.3411 81.4032 27.6953 81.4032 28.1204C81.4032 28.7367 81.6264 29.2079 82.0727 29.5337C82.5261 29.8526 83.1 30.012 83.7943 30.012Z" fill="#FF5722"/>
<path d="M102.577 33.1469C100.905 33.1469 99.4672 32.7927 98.2628 32.0842C97.0655 31.3687 96.1445 30.3768 95.4998 29.1087C94.8622 27.8405 94.5434 26.3811 94.5434 24.7304C94.5434 23.0584 94.8657 21.5919 95.5104 20.3308C96.1622 19.0627 97.0868 18.0744 98.2841 17.3659C99.4814 16.6504 100.905 16.2926 102.556 16.2926C103.98 16.2926 105.227 16.5512 106.297 17.0684C107.367 17.5855 108.213 18.3117 108.837 19.2469C109.46 20.1821 109.804 21.2802 109.867 22.5412H105.595C105.475 21.7265 105.156 21.0712 104.639 20.5753C104.129 20.0722 103.459 19.8207 102.63 19.8207C101.929 19.8207 101.316 20.012 100.792 20.3946C100.275 20.7701 99.871 21.3191 99.5806 22.0418C99.2901 22.7644 99.1448 23.6393 99.1448 24.6666C99.1448 25.7081 99.2865 26.5936 99.5699 27.3233C99.8604 28.0531 100.268 28.6092 100.792 28.9918C101.316 29.3743 101.929 29.5656 102.63 29.5656C103.148 29.5656 103.612 29.4594 104.023 29.2468C104.441 29.0343 104.784 28.7261 105.053 28.3223C105.33 27.9114 105.51 27.419 105.595 26.8451H109.867C109.797 28.092 109.457 29.1901 108.847 30.1395C108.245 31.0817 107.413 31.8185 106.35 32.3499C105.287 32.8812 104.03 33.1469 102.577 33.1469Z" fill="#FF5722"/>
<path d="M116.868 28.131L116.879 22.7006H117.537L122.766 16.5051H127.962L120.938 24.7091H119.865L116.868 28.131ZM112.766 32.8281V11.0642H117.293V32.8281H112.766ZM122.968 32.8281L118.164 25.7187L121.182 22.52L128.271 32.8281H122.968Z" fill="#FF5722"/>
<path d="M130.268 32.8281V11.0642H144.679V14.858H134.87V20.0439H143.722V23.8377H134.87V32.8281H130.268Z" fill="#FF5722"/>
<path d="M153.866 33.1469C152.215 33.1469 150.787 32.7962 149.583 32.0948C148.386 31.3864 147.461 30.4016 146.809 29.1406C146.157 27.8724 145.832 26.4023 145.832 24.7304C145.832 23.0442 146.157 21.5706 146.809 20.3096C147.461 19.0414 148.386 18.0567 149.583 17.3553C150.787 16.6468 152.215 16.2926 153.866 16.2926C155.516 16.2926 156.94 16.6468 158.138 17.3553C159.342 18.0567 160.27 19.0414 160.922 20.3096C161.574 21.5706 161.899 23.0442 161.899 24.7304C161.899 26.4023 161.574 27.8724 160.922 29.1406C160.27 30.4016 159.342 31.3864 158.138 32.0948C156.94 32.7962 155.516 33.1469 153.866 33.1469ZM153.887 29.64C154.638 29.64 155.265 29.4275 155.768 29.0024C156.271 28.5702 156.65 27.9822 156.905 27.2383C157.167 26.4944 157.298 25.6478 157.298 24.6985C157.298 23.7492 157.167 22.9025 156.905 22.1587C156.65 21.4148 156.271 20.8268 155.768 20.3946C155.265 19.9624 154.638 19.7464 153.887 19.7464C153.129 19.7464 152.491 19.9624 151.974 20.3946C151.464 20.8268 151.078 21.4148 150.816 22.1587C150.561 22.9025 150.433 23.7492 150.433 24.6985C150.433 25.6478 150.561 26.4944 150.816 27.2383C151.078 27.9822 151.464 28.5702 151.974 29.0024C152.491 29.4275 153.129 29.64 153.887 29.64Z" fill="#FF5722"/>
<path d="M172.218 33.1469C170.568 33.1469 169.14 32.7962 167.936 32.0948C166.738 31.3864 165.814 30.4016 165.162 29.1406C164.51 27.8724 164.184 26.4023 164.184 24.7304C164.184 23.0442 164.51 21.5706 165.162 20.3096C165.814 19.0414 166.738 18.0567 167.936 17.3553C169.14 16.6468 170.568 16.2926 172.218 16.2926C173.869 16.2926 175.293 16.6468 176.49 17.3553C177.695 18.0567 178.623 19.0414 179.274 20.3096C179.926 21.5706 180.252 23.0442 180.252 24.7304C180.252 26.4023 179.926 27.8724 179.274 29.1406C178.623 30.4016 177.695 31.3864 176.49 32.0948C175.293 32.7962 173.869 33.1469 172.218 33.1469ZM172.239 29.64C172.99 29.64 173.617 29.4275 174.12 29.0024C174.623 28.5702 175.002 27.9822 175.258 27.2383C175.52 26.4944 175.651 25.6478 175.651 24.6985C175.651 23.7492 175.52 22.9025 175.258 22.1587C175.002 21.4148 174.623 20.8268 174.12 20.3946C173.617 19.9624 172.99 19.7464 172.239 19.7464C171.481 19.7464 170.844 19.9624 170.327 20.3946C169.817 20.8268 169.43 21.4148 169.168 22.1587C168.913 22.9025 168.786 23.7492 168.786 24.6985C168.786 25.6478 168.913 26.4944 169.168 27.2383C169.43 27.9822 169.817 28.5702 170.327 29.0024C170.844 29.4275 171.481 29.64 172.239 29.64Z" fill="#FF5722"/>
<path d="M189.211 33.0938C187.971 33.0938 186.848 32.775 185.842 32.1373C184.843 31.4926 184.05 30.5468 183.462 29.3C182.881 28.046 182.59 26.5086 182.59 24.6879C182.59 22.8175 182.891 21.2625 183.493 20.0227C184.096 18.7758 184.896 17.8441 185.895 17.2278C186.901 16.6043 188.003 16.2926 189.2 16.2926C190.114 16.2926 190.876 16.4485 191.485 16.7602C192.101 17.0648 192.597 17.4474 192.973 17.9079C193.355 18.3613 193.646 18.8076 193.844 19.2469H193.982V11.0642H198.499V32.8281H194.035V30.2139H193.844C193.631 30.6673 193.33 31.1172 192.941 31.5635C192.558 32.0027 192.059 32.3676 191.442 32.6581C190.833 32.9485 190.089 33.0938 189.211 33.0938ZM190.645 29.4912C191.375 29.4912 191.991 29.2929 192.494 28.8961C193.004 28.4923 193.394 27.9291 193.663 27.2065C193.94 26.4838 194.078 25.6372 194.078 24.6666C194.078 23.696 193.943 22.853 193.674 22.1374C193.405 21.4219 193.015 20.8693 192.505 20.4796C191.995 20.09 191.375 19.8951 190.645 19.8951C189.901 19.8951 189.274 20.097 188.764 20.5009C188.254 20.9047 187.868 21.4644 187.606 22.1799C187.344 22.8955 187.213 23.7244 187.213 24.6666C187.213 25.616 187.344 26.4555 187.606 27.1852C187.875 27.9078 188.261 28.4746 188.764 28.8855C189.274 29.2893 189.901 29.4912 190.645 29.4912Z" fill="#FF5722"/>
<path d="M0 33.1491L19.3364 44.1962L0 11.0513V33.1491Z" fill="url(#paint0_linear_829_6064)"/>
<path d="M19.3364 0L0 11.0507H38.6691L19.3364 0Z" fill="url(#paint1_linear_829_6064)"/>
<path d="M19.3389 44.1962L38.6716 33.1491V11.0513L19.3389 44.1962Z" fill="url(#paint2_linear_829_6064)"/>
<path d="M0 11.0513L19.3364 44.1962L38.6691 11.0513H0Z" fill="url(#paint3_linear_829_6064)"/>
<path d="M10.6741 18.4304C11.1587 17.9788 11.6851 17.5734 12.2464 17.2194C12.489 17.0554 12.7406 16.9049 13 16.7683C13.2618 16.639 13.5183 16.4953 13.7926 16.3862C13.9524 16.3226 14.1088 16.2352 14.2687 16.1704C14.4355 16.1029 14.6071 16.0419 14.7764 15.9777C15.0079 15.8901 15.2477 15.8272 15.4827 15.7509C15.6309 15.7027 15.79 15.6629 15.9396 15.6188C16.1016 15.5711 16.2705 15.5493 16.4324 15.5039C16.6165 15.4522 16.8041 15.4137 16.9938 15.3886C17.2727 15.3523 17.5542 15.3219 17.8307 15.2824C18.6279 15.1684 19.4244 15.2269 20.2207 15.2355C20.4842 15.2401 20.7467 15.2693 21.0047 15.3229C21.251 15.3731 21.5031 15.3857 21.7492 15.4498C21.9438 15.5022 22.142 15.5403 22.3423 15.5637C22.5037 15.581 22.6594 15.6461 22.8197 15.6796C22.9989 15.7172 23.1645 15.8057 23.3507 15.8147C23.4708 15.8304 23.5879 15.8637 23.6981 15.9137C23.8968 15.9849 24.0984 16.0631 24.2978 16.1227C24.566 16.203 24.8199 16.3158 25.0773 16.4158C25.4722 16.5746 25.8575 16.7559 26.2311 16.9589C26.6479 17.1759 27.0509 17.4177 27.438 17.6831C27.6198 17.8091 27.7965 17.9472 27.9743 18.08C28.3748 18.3893 28.7457 18.7344 29.0824 19.111C29.4005 19.4582 29.6759 19.8417 29.9025 20.2533C30.026 20.4597 30.1299 20.6769 30.213 20.9022C30.2959 21.1525 30.4279 21.3965 30.4202 21.6726C30.4184 21.738 30.4749 21.7814 30.4826 21.8438C30.4919 21.9198 30.4822 21.9852 30.388 21.9853C30.2265 21.9854 30.0714 22.0301 29.9093 22.0346C29.233 22.0533 28.5567 22.0438 27.8804 22.0494C27.4152 22.0533 26.9526 22.0103 26.4889 21.9869C26.2409 21.9889 25.993 21.9762 25.7465 21.9491C25.4291 21.8949 25.1028 21.9367 24.7953 21.8682C24.5175 21.8063 24.2272 21.8532 23.9601 21.7442C23.9422 21.7389 23.9234 21.737 23.9048 21.7384C23.608 21.7352 23.3247 21.6234 23.0265 21.6321C22.8201 21.5236 22.5839 21.5624 22.364 21.503C22.1605 21.448 21.9443 21.4115 21.7322 21.375C21.5065 21.3362 21.2789 21.2978 21.0539 21.2482C20.8505 21.1961 20.6438 21.1573 20.4352 21.132C20.221 21.1135 20.014 21.0568 19.8024 21.0262C19.4952 20.9816 19.1884 20.9172 18.8826 20.8565C18.7115 20.8411 18.5417 20.8131 18.3748 20.7726C18.1489 20.6893 17.9147 20.714 17.6872 20.6594C17.4284 20.5996 17.1655 20.5586 16.9007 20.5367C16.7833 20.5475 16.6652 20.5245 16.5607 20.4706C16.5498 20.4645 16.5371 20.4622 16.5247 20.464C16.2313 20.4959 15.9537 20.3799 15.6643 20.3749C15.596 20.3776 15.5277 20.3725 15.4606 20.3598C15.0833 20.2851 14.6986 20.253 14.314 20.2644C14.1415 20.2601 13.9816 20.1736 13.8055 20.2072C13.3201 20.3 12.8195 20.239 12.3352 20.346C12.2746 20.3586 12.2135 20.3679 12.1519 20.3739C11.9114 20.4056 11.6732 20.4532 11.4392 20.5165C11.3018 20.5506 11.1653 20.5873 11.0284 20.6235C10.8704 20.6654 10.7176 20.729 10.5612 20.7655C10.363 20.8235 10.1683 20.8929 9.97826 20.9732C9.75771 21.0555 9.54204 21.15 9.33218 21.2563C9.09571 21.3601 8.86762 21.4818 8.64992 21.6202C8.63555 21.6324 8.61725 21.6392 8.59832 21.6394C8.57938 21.6396 8.56101 21.6333 8.54634 21.6214C8.51818 21.5963 8.53124 21.5617 8.54087 21.5353C8.59851 21.377 8.64903 21.215 8.72161 21.0635C8.88351 20.7216 9.06811 20.3907 9.27424 20.073C9.51318 19.6979 9.78788 19.3463 10.0946 19.0231C10.178 18.9373 10.2193 18.8137 10.3368 18.76C10.39 18.7633 10.415 18.7388 10.4114 18.6859L10.4113 18.686C10.4719 18.666 10.527 18.6325 10.5725 18.5882C10.6181 18.5439 10.6528 18.49 10.6741 18.4304ZM21.0619 16.8107C20.7537 16.7851 20.3905 16.8447 20.0254 16.8465C19.976 16.8492 19.9274 16.8592 19.881 16.8762C19.8166 16.898 19.7498 16.9121 19.682 16.9182C19.468 16.911 19.254 16.9314 19.0454 16.9789C18.849 17.0412 18.6261 16.9966 18.4127 17.0559C18.2587 17.0988 18.0882 17.1035 17.9248 17.1364C17.7076 17.1999 17.484 17.2394 17.2581 17.2542C17.2273 17.2516 17.1966 17.26 17.1715 17.2779C17.1155 17.3346 17.0464 17.3213 16.9798 17.3267C16.9368 17.3233 16.8935 17.3289 16.8528 17.3431C16.6526 17.4409 16.4432 17.5191 16.2275 17.5766C16.0108 17.6569 15.8121 17.7787 15.643 17.935C15.57 18.0092 15.5294 18.1087 15.5298 18.2122C15.5302 18.3158 15.5715 18.415 15.6451 18.4886C15.8686 18.6917 16.1298 18.85 16.4142 18.9549C16.5014 18.9914 16.5937 19.0185 16.68 19.0623C16.858 19.1426 17.041 19.2115 17.2278 19.2687C17.4286 19.3301 17.6326 19.3804 17.839 19.4195C18.1527 19.4936 18.458 19.6179 18.7886 19.6139C18.8072 19.6124 18.8258 19.6174 18.841 19.6281C18.9054 19.6935 18.9892 19.6743 19.0671 19.6868C19.3405 19.731 19.608 19.8165 19.89 19.8006C20.0459 19.9078 20.2245 19.8527 20.3931 19.8689C20.4537 19.8747 20.523 19.8503 20.5723 19.8959C20.5969 19.9144 20.625 19.9278 20.655 19.9351C20.6849 19.9425 20.7161 19.9436 20.7466 19.9386C21.0567 19.9395 21.3669 19.9397 21.677 19.9393C21.7203 19.9392 21.7767 19.9506 21.8044 19.9286C21.848 19.8993 21.8972 19.8791 21.949 19.8691C22.0009 19.8592 22.0542 19.8598 22.1057 19.8708C22.326 19.8704 22.5445 19.8308 22.7507 19.7539C22.9237 19.7213 23.0932 19.673 23.2572 19.6096C23.447 19.5407 23.6286 19.4514 23.7987 19.3434C23.8322 19.3176 23.8553 19.2779 23.9055 19.2787C23.9427 19.2765 23.9785 19.2641 24.0089 19.243C24.0393 19.2218 24.0632 19.1927 24.078 19.159C24.1076 19.1058 24.1505 19.061 24.2025 19.0288C24.2652 18.9823 24.3198 18.9259 24.3641 18.8619C24.427 18.7951 24.4162 18.7145 24.4476 18.6436C24.4983 18.5266 24.5184 18.3989 24.5061 18.2722C24.4938 18.1454 24.4494 18.0238 24.3771 17.9185C24.2854 17.7478 24.1471 17.606 23.9779 17.5094C23.7997 17.4189 23.6528 17.2754 23.4547 17.2136C23.2057 17.1359 22.9801 16.9832 22.7052 16.9891C22.6927 16.9897 22.6803 16.987 22.6692 16.9813C22.4886 16.8744 22.2772 16.8954 22.0821 16.8535C21.7447 16.8022 21.4025 16.7879 21.0619 16.8107ZM25.872 19.568C25.8635 19.641 25.8742 19.7149 25.9032 19.7825C25.9322 19.8501 25.9784 19.9091 26.0373 19.9537C26.0806 19.9976 26.1229 20.0592 26.19 20.0311C26.2252 20.0181 26.2559 19.9955 26.2785 19.9659C26.3011 19.9363 26.3148 19.9009 26.3179 19.8639C26.3223 19.8097 26.3003 19.7438 26.3412 19.7038C26.4312 19.6161 26.3357 19.5524 26.3292 19.4774C26.3198 19.3685 26.243 19.3295 26.1738 19.2938C26.1423 19.2774 26.107 19.2694 26.0715 19.2706C26.0359 19.2717 26.0012 19.282 25.9708 19.3003C25.9404 19.3187 25.9154 19.3446 25.8982 19.3754C25.8809 19.4062 25.872 19.4409 25.8723 19.4761C25.8702 19.5066 25.872 19.5374 25.872 19.568ZM26.1331 18.4422C26.1436 18.3043 26.1478 18.1714 26.003 18.0878C25.9327 18.0472 25.881 18.001 25.7888 18.0657C25.6902 18.1349 25.5988 18.2139 25.6281 18.3272C25.6615 18.4842 25.7477 18.6253 25.8725 18.7276C25.8859 18.7399 25.9017 18.7493 25.9189 18.7554C25.9361 18.7614 25.9543 18.7639 25.9725 18.7627C25.9908 18.7616 26.0086 18.7567 26.0248 18.7485C26.0411 18.7403 26.0555 18.7289 26.0672 18.715C26.163 18.6379 26.1194 18.5341 26.1331 18.4422ZM25.2742 19.854H25.2778C25.2778 19.8054 25.2818 19.7563 25.2771 19.7081C25.2644 19.6457 25.2289 19.5902 25.1774 19.5522C25.1258 19.5142 25.062 19.4964 24.998 19.5023C24.8956 19.5134 24.7701 19.6536 24.8035 19.7514C24.8506 19.8897 24.862 20.0471 24.9987 20.1488C25.1164 20.2365 25.2463 20.2004 25.2723 20.0544C25.2787 19.9878 25.2794 19.9208 25.2742 19.854Z" fill="white"/>
<path d="M7.94531 23.2055C7.99686 23.1899 8.04925 23.1773 8.10225 23.1676C8.75982 23.0909 9.42245 23.0654 10.0841 23.0914C10.3973 23.1984 10.7376 23.1101 11.0507 23.2216C11.0922 23.235 11.1358 23.241 11.1793 23.2392C11.4311 23.2561 11.681 23.2942 11.9263 23.353C12.1072 23.3806 12.2864 23.4185 12.4629 23.4664C12.6381 23.5138 12.8176 23.5601 12.996 23.601C13.1478 23.6357 13.3033 23.67 13.4551 23.7105C13.6201 23.7546 13.7876 23.799 13.9478 23.8524C14.1152 23.9083 14.2902 23.9179 14.4576 23.9756C14.5937 24.0225 14.7434 24.0446 14.8845 24.0879C15.1065 24.1503 15.3321 24.2 15.5599 24.2369C15.7395 24.2704 15.9197 24.3121 16.0969 24.352C16.3228 24.403 16.5596 24.4077 16.7765 24.4983C16.788 24.5031 16.8004 24.5052 16.8129 24.5043C17.0515 24.4828 17.2744 24.5744 17.5066 24.6022C17.7573 24.6322 18.0088 24.6719 18.2564 24.7175C18.4309 24.7493 18.6076 24.7677 18.7849 24.7726C18.9642 24.778 19.1285 24.859 19.3123 24.8511C19.4913 24.8512 19.6698 24.8703 19.8447 24.9082C20.1239 24.956 20.417 24.9231 20.697 24.9682C21.287 25.0632 21.8801 25.0187 22.4713 25.0359C23.0667 25.0533 23.6631 25.0432 24.259 25.0387C24.8235 25.0344 25.3879 25.0077 25.9526 25.0292C26.0206 25.0318 26.0885 25.0372 26.1626 25.0417C26.1309 25.2057 25.9726 25.2086 25.8725 25.2573C25.6242 25.3782 25.3683 25.4887 25.1112 25.5885C24.9164 25.6641 24.7083 25.7196 24.5112 25.7929C24.3814 25.8412 24.2359 25.8428 24.1178 25.9231C24.101 25.9314 24.0826 25.9358 24.0639 25.9361C23.834 25.97 23.608 26.0259 23.389 26.1029C23.3833 26.1055 23.3773 26.1071 23.3711 26.1076C23.1166 26.0961 22.8786 26.2223 22.6247 26.1997C22.4487 26.1841 22.2888 26.2578 22.1177 26.2646C21.6532 26.2947 21.187 26.2911 20.723 26.2539C20.4789 26.2492 20.2356 26.2243 19.9956 26.1795C19.781 26.119 19.56 26.1275 19.3456 26.0603C19.1696 26.0051 18.9761 25.9743 18.7928 25.9312C18.6377 25.9048 18.485 25.8659 18.3363 25.815C18.1969 25.7674 18.0546 25.7286 17.9102 25.699C17.5992 25.6162 17.2842 25.5509 16.9754 25.4556C16.8338 25.4119 16.6809 25.3757 16.5352 25.3385C16.3976 25.3033 16.2534 25.2749 16.1156 25.227C15.9599 25.1709 15.8008 25.1247 15.6393 25.0885C15.4918 25.0566 15.3461 25.0166 15.2031 24.9688C15.0653 24.9232 14.922 24.8843 14.7803 24.8451C14.5173 24.7723 14.2496 24.7173 13.9921 24.6226C13.8492 24.57 13.6953 24.5471 13.5475 24.5064C13.4019 24.4663 13.26 24.4099 13.1124 24.3804C12.9498 24.3479 12.7979 24.2831 12.6387 24.2411C12.4891 24.2017 12.3345 24.1736 12.1855 24.1205C12.0501 24.0722 11.9008 24.0473 11.7629 23.9971C11.5968 23.9403 11.4268 23.8954 11.2541 23.8628C10.9821 23.8064 10.7303 23.6777 10.4508 23.6571C10.2872 23.5406 10.0789 23.6077 9.90194 23.5219C9.78368 23.4645 9.63158 23.5099 9.49991 23.467C9.34416 23.4264 9.18405 23.4044 9.02301 23.4014C8.7237 23.3776 8.42916 23.3027 8.12649 23.3158C8.04608 23.3193 8.0324 23.2509 7.94531 23.2055Z" fill="white"/>
<path d="M22.891 23.1514L23.2258 23.1593C23.2368 23.1827 23.2549 23.2047 23.2801 23.2032C23.448 23.1935 23.6097 23.2475 23.7766 23.2478C24.5867 23.2493 25.3967 23.2528 26.2068 23.254C26.5522 23.2566 26.8976 23.2417 27.2415 23.2094C27.2796 23.2056 27.3158 23.2022 27.3322 23.1607L27.7036 23.1504C27.8896 23.1846 28.0805 23.1825 28.2657 23.1444C28.3488 23.1299 28.456 23.1775 28.5176 23.0779C28.9003 23.0858 29.2723 22.9662 29.6559 22.9853C29.9253 22.8815 30.2183 22.927 30.4945 22.8522C30.7041 22.7955 30.9221 22.8611 31.1378 22.8497C31.1267 22.9798 31.0208 23.0141 30.945 23.056C30.6259 23.2326 30.3033 23.4039 29.974 23.5609C29.7473 23.669 29.5037 23.7421 29.2747 23.8462C29.0828 23.9335 28.8787 23.9846 28.6816 24.0542C28.5293 24.1079 28.3656 24.1478 28.2061 24.1882C28.0441 24.2133 27.884 24.2497 27.7272 24.2973C27.6992 24.3105 27.6691 24.3191 27.6383 24.3227C27.3305 24.3408 27.0332 24.4252 26.7235 24.4461C26.3385 24.4883 25.9513 24.5074 25.564 24.5035C25.3499 24.4925 25.1298 24.5302 24.9219 24.4442C24.8978 24.4377 24.8726 24.4365 24.848 24.4404C24.4856 24.4603 24.1347 24.3723 23.7815 24.3184C23.4671 24.2706 23.1498 24.2264 22.8409 24.159C22.6258 24.112 22.3975 24.122 22.193 24.0268C22.182 24.0209 22.1698 24.0176 22.1574 24.0169C21.9272 24.0217 21.711 23.9383 21.4865 23.9057C21.2794 23.8856 21.0746 23.8464 20.8748 23.7888C20.8405 23.7745 20.8041 23.7654 20.7671 23.7617C20.5457 23.7436 20.3267 23.704 20.1132 23.6434C19.9131 23.5992 19.7063 23.5771 19.5058 23.5273C19.3011 23.4764 19.0814 23.4429 18.8762 23.3918C18.6694 23.3404 18.4453 23.3778 18.2531 23.2673C18.2419 23.2618 18.2293 23.2596 18.2168 23.2608C18.0002 23.2578 17.7858 23.2166 17.5837 23.1393C17.3628 23.076 17.1243 23.1228 16.9183 23.0084C16.9069 23.0032 16.8943 23.0013 16.8818 23.0028C16.6423 23.0195 16.4172 22.9316 16.1914 22.8827C15.976 22.8361 15.7464 22.8518 15.5416 22.7521C15.4996 22.7408 15.4559 22.7369 15.4126 22.7405C15.2822 22.7466 15.152 22.7249 15.0308 22.6769C14.9956 22.6648 14.9582 22.66 14.921 22.6628C14.6182 22.6477 14.3134 22.6496 14.0131 22.6146C13.6488 22.5721 13.284 22.5826 12.9197 22.5636C12.885 22.5618 12.8455 22.5668 12.8184 22.5338C12.8181 22.4884 12.8547 22.4914 12.8826 22.489C13.0897 22.4682 13.2949 22.4316 13.4963 22.3795C13.8225 22.3153 14.1528 22.2738 14.4849 22.2553C15.06 22.2039 15.6386 22.2046 16.2136 22.2576C16.6685 22.2878 17.1214 22.3439 17.5698 22.4258C17.811 22.4731 18.0565 22.4885 18.2979 22.5404C18.5235 22.5889 18.7568 22.6297 18.9857 22.672C19.2381 22.7186 19.501 22.7146 19.7445 22.8083C19.7504 22.8103 19.7566 22.8111 19.7628 22.8107C20.038 22.7958 20.2992 22.8885 20.5698 22.9149C20.9074 22.9478 21.2446 22.9895 21.5815 23.0285C21.7585 23.049 21.9355 23.0673 22.1132 23.0788C22.1236 23.0934 22.1325 23.1195 22.1446 23.121C22.3902 23.17 22.6422 23.1803 22.891 23.1514Z" fill="white"/>
<path d="M29.8776 27.0399C29.7485 27.1066 29.618 27.1709 29.4905 27.2405C29.2579 27.3674 29.0118 27.4636 28.7685 27.5674C28.5609 27.656 28.3444 27.7151 28.1314 27.7828C27.9875 27.8285 27.8323 27.8582 27.69 27.9048C27.5051 27.9653 27.3104 27.9481 27.1306 28.0149C27.0904 28.0313 27.0477 28.0412 27.0043 28.044C26.7267 28.0509 26.4575 28.1345 26.1819 28.1405C25.7607 28.1705 25.3378 28.1645 24.9177 28.1227C24.6525 28.0828 24.3739 28.1011 24.1196 27.9921C24.1083 27.9867 24.0959 27.984 24.0834 27.9841C23.8217 28.0008 23.5706 27.9195 23.3195 27.8757C23.0853 27.8349 22.8384 27.8462 22.614 27.7499C22.5971 27.7419 22.5788 27.7374 22.56 27.7367C22.3122 27.7407 22.0783 27.6538 21.8339 27.6279C21.5959 27.6057 21.3603 27.5637 21.1295 27.5024C21.1125 27.4949 21.0946 27.4896 21.0763 27.4864C20.8289 27.4821 20.5948 27.3979 20.3507 27.3666C20.1315 27.3522 19.9147 27.3116 19.7053 27.2458C19.6214 27.2138 19.5171 27.236 19.4306 27.208C19.2016 27.1338 18.9526 27.1577 18.7297 27.0597C18.7179 27.0554 18.7053 27.054 18.6929 27.0557C18.4525 27.0571 18.2133 27.0204 17.9847 26.9469C17.7653 26.8972 17.5282 26.9166 17.3226 26.8062C17.3113 26.8008 17.2987 26.7987 17.2863 26.8001C17.0352 26.8236 16.7987 26.7331 16.556 26.6982C16.349 26.672 16.1436 26.6343 15.9409 26.5849C15.8377 26.5578 15.7348 26.552 15.6331 26.5314C15.3901 26.5029 15.1494 26.4578 14.9127 26.3962C14.8828 26.3881 14.8517 26.3847 14.8206 26.3861C14.523 26.3815 14.2321 26.314 13.9363 26.2935C13.7631 26.2815 13.5891 26.2829 13.4159 26.2716C13.2726 26.2623 13.2459 26.227 13.2543 26.0867C13.2613 25.9697 13.276 25.9493 13.4021 25.9536C13.5373 25.9398 13.6739 25.9587 13.8002 26.0085C13.8714 26.0302 13.9464 26.0367 14.0204 26.0276C14.2307 26.0336 14.4402 26.0563 14.6469 26.0955C14.8221 26.1282 15.0088 26.1018 15.1838 26.1354C15.5196 26.1998 15.8641 26.1681 16.1949 26.2274C16.4767 26.2778 16.7646 26.2413 17.0354 26.3071C17.3803 26.3909 17.7388 26.3373 18.0774 26.4433C18.0956 26.4477 18.1144 26.4491 18.133 26.4474C18.5149 26.453 18.8956 26.4899 19.2714 26.5576C19.5803 26.5978 19.9001 26.5873 20.2011 26.6882C20.2249 26.6955 20.2497 26.6988 20.2745 26.6981C20.6006 26.7173 20.9253 26.7552 21.247 26.8114C21.4654 26.835 21.6893 26.8503 21.9039 26.8949C22.2225 26.9611 22.545 26.9525 22.8643 26.9891C23.5301 27.0463 24.1986 27.0656 24.8665 27.0471C25.0525 27.0579 25.239 27.0523 25.4239 27.0302C25.7791 26.9661 26.1401 26.9978 26.4932 26.9443C26.7201 26.9099 26.9514 26.9031 27.1729 26.8592C27.3744 26.8193 27.5844 26.8346 27.7732 26.778C27.9879 26.7136 28.2186 26.753 28.4218 26.6512C28.4382 26.6423 28.4567 26.6375 28.4754 26.6374C28.6884 26.6477 28.8872 26.5656 29.0883 26.5231C29.3839 26.4763 29.6749 26.4049 29.9583 26.3095C30.0842 26.2599 30.2293 26.2489 30.3635 26.2074C30.536 26.1712 30.7052 26.1207 30.8692 26.0565C30.886 26.0487 30.9037 26.0429 30.9219 26.0394C30.9525 26.0327 30.9868 26.028 31.0076 26.0554C31.0302 26.0851 31.0112 26.1113 30.9881 26.1349C30.76 26.385 30.5027 26.6073 30.2216 26.7973C30.1046 26.8365 29.996 26.8971 29.9016 26.976C29.8917 26.9832 29.8843 26.993 29.88 27.0044C29.8757 27.0157 29.8749 27.0281 29.8776 27.0399Z" fill="white"/>
<path fill-rule="evenodd" clip-rule="evenodd" d="M30.4815 28.1801C30.5295 28.0442 30.561 27.9031 30.5753 27.7598C30.4608 27.7865 30.3521 27.8334 30.2545 27.8985C30.1871 27.9325 30.12 27.9669 30.0529 28.0013C29.8735 28.093 29.6943 28.1848 29.5108 28.2697C29.2819 28.3791 29.0463 28.474 28.8052 28.5537C28.5736 28.6271 28.3383 28.6983 28.105 28.7669C28.0404 28.7859 27.973 28.7931 27.9058 28.8003C27.791 28.8126 27.6768 28.8249 27.5781 28.8954C27.4391 28.9052 27.3021 28.9301 27.165 28.9551C26.9736 28.9899 26.7821 29.0247 26.585 29.0184C26.528 29.0165 26.4734 29.031 26.4181 29.0456C26.3612 29.0606 26.3036 29.0758 26.2417 29.0738C26.0428 29.0674 25.8438 29.0703 25.6448 29.0732C25.2583 29.0789 24.8717 29.0845 24.4854 29.022C24.3524 29.0005 24.2178 28.9919 24.0827 28.9833C23.9096 28.9723 23.7359 28.9612 23.5642 28.9228C23.3731 28.8811 23.1793 28.8523 22.9842 28.8367C22.8832 28.8282 22.7846 28.8064 22.6863 28.7846C22.5451 28.7534 22.4044 28.7223 22.2578 28.7308C22.2516 28.7306 22.2454 28.7294 22.2397 28.7271C22.0497 28.6652 21.8534 28.633 21.657 28.6007C21.4911 28.5735 21.3251 28.5463 21.1627 28.5011C21.0779 28.4775 20.9891 28.466 20.8996 28.4544C20.8361 28.4462 20.7722 28.438 20.7093 28.4253C20.6137 28.4061 20.5182 28.3854 20.4228 28.3648C20.2305 28.3231 20.0384 28.2815 19.8455 28.2518C19.7617 28.2388 19.6783 28.223 19.5949 28.2072C19.4684 28.1832 19.3417 28.1591 19.2132 28.1451C19.0233 28.122 18.8355 28.0846 18.6513 28.0333C18.5111 27.9959 18.3689 27.9739 18.227 27.952C18.1402 27.9386 18.0534 27.9252 17.9673 27.9083C17.8784 27.8908 17.7883 27.8759 17.6982 27.8609C17.5508 27.8364 17.4033 27.8119 17.2608 27.7764C17.172 27.7543 17.082 27.7431 16.992 27.7319C16.87 27.7167 16.7478 27.7015 16.6286 27.6592C16.4636 27.6179 16.2949 27.5924 16.125 27.5831C15.959 27.5591 15.7936 27.5305 15.6285 27.5019C15.4312 27.4678 15.2342 27.4337 15.0362 27.4073C14.9031 27.3896 14.769 27.3767 14.6348 27.3637C14.4817 27.349 14.3285 27.3342 14.1762 27.3123C14.0898 27.3023 14.0028 27.2991 13.9159 27.3026C13.7906 27.3044 13.668 27.2849 13.5453 27.2653C13.4368 27.248 13.3281 27.2306 13.2174 27.228C12.5782 27.2127 11.9391 27.2125 11.2998 27.2151C11.1405 27.2158 10.9812 27.2202 10.822 27.2246C10.6463 27.2295 10.4706 27.2343 10.295 27.2342C10.0674 27.2339 9.84064 27.2518 9.6139 27.2697C9.3168 27.2931 9.01974 27.3165 8.72094 27.2992C8.70402 27.2982 8.68704 27.2985 8.67005 27.2988C8.66218 27.2989 8.65431 27.299 8.64645 27.299C8.36669 27.2991 8.31339 27.3525 8.39806 27.6147C8.43063 27.7155 8.44844 27.8188 8.46624 27.9221C8.48659 28.0401 8.50694 28.1581 8.54933 28.2726C8.60412 28.4503 8.66851 28.625 8.74226 28.7959C8.92356 29.1604 9.16612 29.4917 9.45959 29.7757C9.85346 30.1354 10.3376 30.384 10.8616 30.4955C11.1497 30.553 11.4429 30.5809 11.7368 30.5787C12.2589 30.6004 12.7821 30.5979 13.3052 30.5955C13.4775 30.5947 13.6498 30.5939 13.8221 30.594C16.2678 30.5951 18.7135 30.5951 21.1592 30.594C21.4812 30.5938 21.8031 30.5938 22.1251 30.5938C23.4543 30.5938 24.7836 30.5938 26.1128 30.5834C26.2627 30.5822 26.4127 30.5851 26.5628 30.5881C26.9542 30.5958 27.3459 30.6035 27.7383 30.5378C28.0357 30.5069 28.3286 30.4423 28.6112 30.3452C28.8589 30.2526 29.0912 30.124 29.3007 29.9637C29.7165 29.6352 30.0461 29.2122 30.2615 28.7306C30.3406 28.549 30.4188 28.3655 30.4815 28.1801ZM15.4554 29.9714C15.4221 29.9418 15.3942 29.9113 15.3674 29.8821C15.3139 29.8235 15.2647 29.7698 15.1849 29.7364C15.0656 29.6867 14.9494 29.6301 14.8331 29.5735C14.6796 29.4989 14.526 29.4242 14.3653 29.3649C14.1767 29.3039 13.9921 29.2312 13.8127 29.1473C13.7102 29.0984 13.6026 29.0608 13.4918 29.035C13.3667 28.9903 13.2447 28.9375 13.1264 28.8771C13.0729 28.8554 13.0177 28.8427 12.9626 28.83C12.9074 28.8174 12.8523 28.8047 12.7991 28.783C12.7408 28.7593 12.6841 28.7308 12.6273 28.7023C12.4947 28.6358 12.3615 28.569 12.207 28.561C12.1888 28.5576 12.1715 28.551 12.1557 28.5415C12.0374 28.4691 11.9033 28.4256 11.7646 28.4145C11.7428 28.4133 11.7214 28.4076 11.702 28.3979C11.6825 28.3881 11.6653 28.3745 11.6514 28.3578C11.6364 28.3422 11.6184 28.3298 11.5983 28.3214C11.5794 28.3134 11.5591 28.3091 11.5385 28.3088C11.5368 28.3087 11.5351 28.3086 11.5334 28.3085C11.4642 28.2961 11.3958 28.279 11.3289 28.2576C11.2693 28.2522 11.2152 28.2303 11.1617 28.2087C11.1039 28.1854 11.047 28.1624 10.9847 28.1607C10.9738 28.16 10.9627 28.1599 10.9514 28.1606C10.8898 28.1632 10.8282 28.1631 10.7668 28.1605C10.5864 28.152 10.4075 28.1215 10.2342 28.0696C10.0783 28.0122 9.91438 27.9794 9.7486 27.9722C9.70996 27.9703 9.67121 27.9697 9.63243 27.9706C9.59269 27.9704 9.55346 27.9793 9.51777 27.9966C9.48209 28.0139 9.45092 28.0391 9.42675 28.0704C9.41629 28.0874 9.40384 28.1045 9.39117 28.1219C9.34384 28.187 9.29341 28.2562 9.33211 28.3434C9.46135 28.6434 9.6608 28.9088 9.91396 29.1176C10.1875 29.3568 10.5001 29.5483 10.8383 29.6841C10.8989 29.706 10.9589 29.7296 11.0187 29.7531C11.2186 29.8317 11.4175 29.9099 11.6373 29.924C11.6386 29.9241 11.6399 29.9241 11.6413 29.924C11.6431 29.9242 11.6448 29.9243 11.6466 29.9244C11.6484 29.9245 11.6502 29.9245 11.652 29.9244C11.6533 29.9247 11.6545 29.9252 11.6556 29.9259C11.7355 29.9786 11.8203 29.9946 11.9066 29.998C11.9547 30.0005 12.0033 29.9987 12.052 29.9969C12.0974 29.9953 12.1429 29.9936 12.1879 29.9954C12.1966 29.9958 12.2052 29.9964 12.2139 29.9971C12.2183 29.9975 12.2229 29.9977 12.2275 29.9979C12.2417 29.9988 12.2569 29.9984 12.2721 29.998C12.284 29.9977 12.2959 29.9974 12.3073 29.9977C12.3275 29.999 12.3455 30.0029 12.3582 30.0132C12.4183 30.0509 12.4869 30.0716 12.557 30.074C12.5882 30.0758 12.6198 30.0739 12.6511 30.0683C12.7821 30.0685 12.913 30.0687 13.044 30.0688C13.4673 30.0695 13.8907 30.0694 14.314 30.0685C14.4549 30.0683 14.5957 30.068 14.7366 30.0677C14.7535 30.0677 14.7704 30.0682 14.7874 30.0689C14.7921 30.0692 14.7967 30.0694 14.8014 30.0696C14.8092 30.07 14.817 30.0704 14.8248 30.0707C14.9171 30.0749 15.0097 30.0759 15.0931 30.0083C15.1085 29.9959 15.1334 29.9949 15.16 29.996C15.1623 29.9961 15.1647 29.9962 15.1671 29.9963C15.1725 29.9966 15.1779 29.9969 15.1833 29.9971C15.1956 29.9978 15.2077 29.9982 15.219 29.9976C15.2234 29.9978 15.2277 29.998 15.232 29.9982C15.3074 30.0023 15.383 29.9932 15.4554 29.9714Z" fill="white"/>
</g>
<defs>
<linearGradient id="paint0_linear_829_6064" x1="9.66818" y1="44.1962" x2="9.66818" y2="11.0513" gradientUnits="userSpaceOnUse">
<stop stop-color="#FF5722"/>
<stop offset="1" stop-color="#F2914E"/>
</linearGradient>
<linearGradient id="paint1_linear_829_6064" x1="19.3345" y1="11.0507" x2="19.3345" y2="1.91051e-07" gradientUnits="userSpaceOnUse">
<stop stop-color="#F2914E"/>
<stop offset="1" stop-color="#FF5722"/>
</linearGradient>
<linearGradient id="paint2_linear_829_6064" x1="29.0052" y1="44.1962" x2="29.0052" y2="11.0513" gradientUnits="userSpaceOnUse">
<stop stop-color="#FF5722"/>
<stop offset="1" stop-color="#F2914E"/>
</linearGradient>
<linearGradient id="paint3_linear_829_6064" x1="19.3345" y1="44.1962" x2="19.3345" y2="11.0513" gradientUnits="userSpaceOnUse">
<stop offset="0.0249283" stop-color="#F2914E"/>
<stop offset="1" stop-color="#FF5722"/>
</linearGradient>
<clipPath id="clip0_829_6064">
<rect width="200" height="44.1582" fill="white"/>
</clipPath>
</defs>
</svg>
